ply
format ascii 1.0
comment Created by Blender 2.73 (sub 0) - www.blender.org, source file: 'arc_combined.blend'
element vertex 72
property float x
property float y
property float z
property float nx
property float ny
property float nz
property uchar red
property uchar green
property uchar blue
element face 20
property list uchar uint vertex_indices
end_header
1.000000 6.152353 -0.620000 0.000000 -0.000000 -1.000000 161 129 67
-1.000000 6.152353 -0.620000 0.000000 -0.000000 -1.000000 161 129 67
-1.000000 7.572353 -0.620000 0.000000 -0.000000 -1.000000 161 129 67
1.000000 7.572353 -0.620000 0.000000 -0.000000 -1.000000 161 129 67
1.000000 6.152353 0.620000 -0.261839 -0.965111 0.000000 161 129 67
1.000000 6.152353 -0.620000 -0.261839 -0.965111 0.000000 161 129 67
3.017168 5.605085 -0.620000 -0.261839 -0.965111 0.000000 161 129 67
3.017168 5.605085 0.620000 -0.261839 -0.965111 0.000000 161 129 67
1.000000 7.572353 0.620000 0.000000 -0.000000 1.000000 161 129 67
-1.000000 7.572353 0.620000 0.000000 -0.000000 1.000000 161 129 67
-1.000000 6.152353 0.620000 0.000000 -0.000000 1.000000 161 129 67
1.000000 6.152353 0.620000 0.000000 -0.000000 1.000000 161 129 67
-1.000000 6.152353 -0.620000 0.263745 -0.964593 0.000000 161 129 67
-1.000000 6.152353 0.620000 0.263745 -0.964593 0.000000 161 129 67
-3.037175 5.595336 0.620000 0.263745 -0.964593 0.000000 161 129 67
-3.037175 5.595336 -0.620000 0.263745 -0.964593 0.000000 161 129 67
-1.000000 6.152353 -0.620000 0.000000 -1.000000 -0.000000 161 129 67
1.000000 6.152353 -0.620000 0.000000 -1.000000 -0.000000 161 129 67
1.000000 6.152353 0.620000 0.000000 -1.000000 -0.000000 161 129 67
-1.000000 6.152353 0.620000 0.000000 -1.000000 -0.000000 161 129 67
-1.000000 7.572353 0.620000 0.000000 1.000000 -0.000000 161 129 67
1.000000 7.572353 0.620000 0.000000 1.000000 -0.000000 161 129 67
1.000000 7.572353 -0.620000 0.000000 1.000000 -0.000000 161 129 67
-1.000000 7.572353 -0.620000 0.000000 1.000000 -0.000000 161 129 67
3.017168 7.025085 -0.620000 1.000000 -0.000000 0.000000 161 129 67
3.017168 7.025085 0.620000 1.000000 -0.000000 0.000000 161 129 67
3.017168 5.605085 0.620000 1.000000 -0.000000 0.000000 161 129 67
3.017168 5.605085 -0.620000 1.000000 -0.000000 0.000000 161 129 67
3.017168 5.605085 0.620000 0.000000 0.000000 1.000000 161 129 67
3.017168 7.025085 0.620000 0.000000 0.000000 1.000000 161 129 67
1.000000 7.572353 -0.620000 0.261839 0.965111 0.000000 161 129 67
1.000000 7.572353 0.620000 0.261839 0.965111 0.000000 161 129 67
3.017168 7.025085 0.620000 0.261839 0.965111 0.000000 161 129 67
3.017168 7.025085 -0.620000 0.261839 0.965111 0.000000 161 129 67
3.017168 7.025085 -0.620000 -0.000000 0.000000 -1.000000 161 129 67
3.017168 5.605085 -0.620000 -0.000000 0.000000 -1.000000 161 129 67
-3.037175 7.015337 0.620000 -1.000000 0.000000 0.000000 161 129 67
-3.037175 7.015337 -0.620000 -1.000000 0.000000 0.000000 161 129 67
-3.037175 5.595336 -0.620000 -1.000000 0.000000 0.000000 161 129 67
-3.037175 5.595336 0.620000 -1.000000 0.000000 0.000000 161 129 67
-1.000000 7.572353 0.620000 -0.263745 0.964593 0.000000 161 129 67
-1.000000 7.572353 -0.620000 -0.263745 0.964593 0.000000 161 129 67
-3.037175 7.015337 -0.620000 -0.263745 0.964593 0.000000 161 129 67
-3.037175 7.015337 0.620000 -0.263745 0.964593 0.000000 161 129 67
-3.037175 7.015337 0.620000 -0.000000 0.000000 1.000000 161 129 67
-3.037175 5.595336 0.620000 -0.000000 0.000000 1.000000 161 129 67
-3.037175 5.595336 -0.620000 0.000000 0.000000 -1.000000 161 129 67
-3.037175 7.015337 -0.620000 0.000000 0.000000 -1.000000 161 129 67
1.000000 -1.000000 1.000000 0.000000 -1.000000 0.000000 77 71 63
-1.000000 -1.000000 1.000000 0.000000 -1.000000 0.000000 77 71 63
-1.000000 -1.000000 -1.000000 0.000000 -1.000000 0.000000 77 71 63
1.000000 -1.000000 -1.000000 0.000000 -1.000000 0.000000 77 71 63
0.999999 1.000000 1.000000 -0.000000 1.000000 0.000000 77 71 63
1.000000 1.000000 -1.000000 -0.000000 1.000000 0.000000 77 71 63
-1.000000 1.000000 -1.000000 -0.000000 1.000000 0.000000 77 71 63
-1.000001 1.000000 0.999999 -0.000000 1.000000 0.000000 77 71 63
1.000000 -1.000000 1.000000 -0.000000 0.000000 1.000000 77 71 63
0.999999 1.000000 1.000000 -0.000000 0.000000 1.000000 77 71 63
-1.000001 1.000000 0.999999 -0.000000 0.000000 1.000000 77 71 63
-1.000000 -1.000000 1.000000 -0.000000 0.000000 1.000000 77 71 63
-1.000000 -1.000000 1.000000 -1.000000 -0.000000 -0.000000 77 71 63
-1.000001 1.000000 0.999999 -1.000000 -0.000000 -0.000000 77 71 63
-1.000000 1.000000 -1.000000 -1.000000 -0.000000 -0.000000 77 71 63
-1.000000 -1.000000 -1.000000 -1.000000 -0.000000 -0.000000 77 71 63
-1.000000 -1.000000 -1.000000 0.000000 -0.000000 -1.000000 77 71 63
-1.000000 1.000000 -1.000000 0.000000 -0.000000 -1.000000 77 71 63
1.000000 1.000000 -1.000000 0.000000 -0.000000 -1.000000 77 71 63
1.000000 -1.000000 -1.000000 0.000000 -0.000000 -1.000000 77 71 63
0.999999 1.000000 1.000000 1.000000 0.000000 0.000000 77 71 63
1.000000 -1.000000 1.000000 1.000000 0.000000 0.000000 77 71 63
1.000000 -1.000000 -1.000000 1.000000 0.000000 0.000000 77 71 63
1.000000 1.000000 -1.000000 1.000000 0.000000 0.000000 77 71 63
4 0 1 2 3
4 4 5 6 7
4 8 9 10 11
4 12 13 14 15
4 16 17 18 19
4 20 21 22 23
4 24 25 26 27
4 8 11 28 29
4 30 31 32 33
4 0 3 34 35
4 36 37 38 39
4 40 41 42 43
4 10 9 44 45
4 2 1 46 47
4 48 49 50 51
4 52 53 54 55
4 56 57 58 59
4 60 61 62 63
4 64 65 66 67
4 68 69 70 71
