ply
format ascii 1.0
comment Created by Blender 2.79 (sub 0) - www.blender.org, source file: 'bed.blend'
element vertex 96
property float x
property float y
property float z
property float nx
property float ny
property float nz
property uchar red
property uchar green
property uchar blue
element face 24
property list uchar uint vertex_indices
end_header
-1.000000 0.906060 3.116863 0.000000 1.000000 0.000000 102 64 36
-1.000000 0.906060 3.316863 0.000000 1.000000 0.000000 102 64 36
1.000000 0.906060 3.316863 0.000000 1.000000 0.000000 102 64 36
1.000000 0.906060 3.116863 0.000000 1.000000 0.000000 102 64 36
1.000000 0.906060 3.116863 1.000000 -0.000000 0.000000 102 64 36
1.000000 0.906060 3.316863 1.000000 -0.000000 0.000000 102 64 36
1.000000 -3.493941 3.316863 1.000000 -0.000000 0.000000 102 64 36
1.000000 -3.493941 3.116863 1.000000 -0.000000 0.000000 102 64 36
1.000000 -3.493941 3.116863 0.000000 -1.000000 0.000000 102 64 36
1.000000 -3.493941 3.316863 0.000000 -1.000000 0.000000 102 64 36
-1.000000 -3.493941 3.316863 0.000000 -1.000000 0.000000 102 64 36
-1.000000 -3.493941 3.116863 0.000000 -1.000000 0.000000 102 64 36
-1.000000 0.906060 3.316863 -1.000000 0.000000 0.000000 102 64 36
-1.000000 0.906060 3.116863 -1.000000 0.000000 0.000000 102 64 36
-1.000000 -3.493941 3.116863 -1.000000 0.000000 0.000000 102 64 36
-1.000000 -3.493941 3.316863 -1.000000 0.000000 0.000000 102 64 36
-1.000000 -3.493941 3.116863 -0.000000 0.000000 -1.000000 102 64 36
-1.000000 0.906060 3.116863 -0.000000 0.000000 -1.000000 102 64 36
1.000000 0.906060 3.116863 -0.000000 0.000000 -1.000000 102 64 36
1.000000 -3.493941 3.116863 -0.000000 0.000000 -1.000000 102 64 36
1.000000 -3.493941 3.316863 -0.000000 0.000000 1.000000 102 64 36
1.000000 0.906060 3.316863 -0.000000 0.000000 1.000000 102 64 36
-1.000000 0.906060 3.316863 -0.000000 0.000000 1.000000 102 64 36
-1.000000 -3.493941 3.316863 -0.000000 0.000000 1.000000 102 64 36
-0.994762 0.903354 3.178298 0.000000 1.000000 0.000000 102 64 36
-0.994762 0.903354 3.378298 0.000000 1.000000 0.000000 102 64 36
-0.594762 0.903354 3.378298 0.000000 1.000000 0.000000 102 64 36
-0.594762 0.903354 3.178298 0.000000 1.000000 0.000000 102 64 36
-0.594762 0.903354 3.178298 1.000000 -0.000000 0.000000 102 64 36
-0.594762 0.903354 3.378298 1.000000 -0.000000 0.000000 102 64 36
-0.594762 -3.496646 3.378298 1.000000 -0.000000 0.000000 102 64 36
-0.594762 -3.496646 3.178298 1.000000 -0.000000 0.000000 102 64 36
-0.594762 -3.496646 3.178298 0.000000 -1.000000 0.000000 102 64 36
-0.594762 -3.496646 3.378298 0.000000 -1.000000 0.000000 102 64 36
-0.994762 -3.496646 3.378298 0.000000 -1.000000 0.000000 102 64 36
-0.994762 -3.496646 3.178298 0.000000 -1.000000 0.000000 102 64 36
-0.994762 -3.496646 3.178298 -1.000000 -0.000000 0.000000 102 64 36
-0.994762 -3.496646 3.378298 -1.000000 -0.000000 0.000000 102 64 36
-0.994762 0.903354 3.378298 -1.000000 -0.000000 0.000000 102 64 36
-0.994762 0.903354 3.178298 -1.000000 -0.000000 0.000000 102 64 36
-0.594762 0.903354 3.178298 0.000000 0.000000 -1.000000 255 255 255
-0.594762 -3.496646 3.178298 0.000000 0.000000 -1.000000 255 255 255
-0.994762 -3.496646 3.178298 0.000000 0.000000 -1.000000 255 255 255
-0.994762 0.903354 3.178298 0.000000 0.000000 -1.000000 255 255 255
-0.594762 -3.496646 3.378298 -0.000000 0.000000 1.000000 102 64 36
-0.594762 0.903354 3.378298 -0.000000 0.000000 1.000000 102 64 36
-0.994762 0.903354 3.378298 -0.000000 0.000000 1.000000 102 64 36
-0.994762 -3.496646 3.378298 -0.000000 0.000000 1.000000 102 64 36
-0.225823 0.903354 3.178298 0.000000 1.000000 0.000000 102 64 36
-0.225823 0.903354 3.378298 0.000000 1.000000 0.000000 102 64 36
0.174177 0.903354 3.378298 0.000000 1.000000 0.000000 102 64 36
0.174177 0.903354 3.178298 0.000000 1.000000 0.000000 102 64 36
0.174177 0.903354 3.178298 1.000000 -0.000000 0.000000 102 64 36
0.174177 0.903354 3.378298 1.000000 -0.000000 0.000000 102 64 36
0.174177 -3.496646 3.378298 1.000000 -0.000000 0.000000 102 64 36
0.174177 -3.496646 3.178298 1.000000 -0.000000 0.000000 102 64 36
0.174177 -3.496646 3.178298 0.000000 -1.000000 0.000000 102 64 36
0.174177 -3.496646 3.378298 0.000000 -1.000000 0.000000 102 64 36
-0.225823 -3.496646 3.378298 0.000000 -1.000000 0.000000 102 64 36
-0.225823 -3.496646 3.178298 0.000000 -1.000000 0.000000 102 64 36
-0.225823 -3.496646 3.178298 -1.000000 -0.000000 0.000000 102 64 36
-0.225823 -3.496646 3.378298 -1.000000 -0.000000 0.000000 102 64 36
-0.225823 0.903354 3.378298 -1.000000 -0.000000 0.000000 102 64 36
-0.225823 0.903354 3.178298 -1.000000 -0.000000 0.000000 102 64 36
0.174177 0.903354 3.178298 0.000000 0.000000 -1.000000 255 255 255
0.174177 -3.496646 3.178298 0.000000 0.000000 -1.000000 255 255 255
-0.225823 -3.496646 3.178298 0.000000 0.000000 -1.000000 255 255 255
-0.225823 0.903354 3.178298 0.000000 0.000000 -1.000000 255 255 255
0.174177 -3.496646 3.378298 -0.000000 0.000000 1.000000 102 64 36
0.174177 0.903354 3.378298 -0.000000 0.000000 1.000000 102 64 36
-0.225823 0.903354 3.378298 -0.000000 0.000000 1.000000 102 64 36
-0.225823 -3.496646 3.378298 -0.000000 0.000000 1.000000 102 64 36
0.600002 0.903354 3.178298 0.000000 1.000000 0.000000 102 64 36
0.600002 0.903354 3.378298 0.000000 1.000000 0.000000 102 64 36
1.000002 0.903354 3.378298 0.000000 1.000000 0.000000 102 64 36
1.000002 0.903354 3.178298 0.000000 1.000000 0.000000 102 64 36
1.000002 0.903354 3.178298 1.000000 -0.000000 0.000000 102 64 36
1.000002 0.903354 3.378298 1.000000 -0.000000 0.000000 102 64 36
1.000002 -3.496646 3.378298 1.000000 -0.000000 0.000000 102 64 36
1.000002 -3.496646 3.178298 1.000000 -0.000000 0.000000 102 64 36
1.000002 -3.496646 3.178298 0.000000 -1.000000 0.000000 102 64 36
1.000002 -3.496646 3.378298 0.000000 -1.000000 0.000000 102 64 36
0.600002 -3.496646 3.378298 0.000000 -1.000000 0.000000 102 64 36
0.600002 -3.496646 3.178298 0.000000 -1.000000 0.000000 102 64 36
0.600002 -3.496646 3.178298 -1.000000 -0.000000 0.000000 102 64 36
0.600002 -3.496646 3.378298 -1.000000 -0.000000 0.000000 102 64 36
0.600002 0.903354 3.378298 -1.000000 -0.000000 0.000000 102 64 36
0.600002 0.903354 3.178298 -1.000000 -0.000000 0.000000 102 64 36
1.000002 0.903354 3.178298 0.000000 0.000000 -1.000000 102 64 36
1.000002 -3.496646 3.178298 0.000000 0.000000 -1.000000 255 255 255
0.600002 -3.496646 3.178298 0.000000 0.000000 -1.000000 255 255 255
0.600002 0.903354 3.178298 0.000000 0.000000 -1.000000 102 64 36
1.000002 -3.496646 3.378298 -0.000000 0.000000 1.000000 102 64 36
1.000002 0.903354 3.378298 -0.000000 0.000000 1.000000 102 64 36
0.600002 0.903354 3.378298 -0.000000 0.000000 1.000000 102 64 36
0.600002 -3.496646 3.378298 -0.000000 0.000000 1.000000 102 64 36
4 0 1 2 3
4 4 5 6 7
4 8 9 10 11
4 12 13 14 15
4 16 17 18 19
4 20 21 22 23
4 24 25 26 27
4 28 29 30 31
4 32 33 34 35
4 36 37 38 39
4 40 41 42 43
4 44 45 46 47
4 48 49 50 51
4 52 53 54 55
4 56 57 58 59
4 60 61 62 63
4 64 65 66 67
4 68 69 70 71
4 72 73 74 75
4 76 77 78 79
4 80 81 82 83
4 84 85 86 87
4 88 89 90 91
4 92 93 94 95
