ply
format ascii 1.0
comment Created by Blender 2.73 (sub 0) - www.blender.org, source file: 'create_downloaded.blend'
element vertex 531
property float x
property float y
property float z
property float nx
property float ny
property float nz
property uchar red
property uchar green
property uchar blue
element face 210
property list uchar uint vertex_indices
end_header
-0.920000 2.700000 0.700000 -1.000000 -0.000000 -0.000000 151 73 18
-0.920000 2.700000 -0.700000 -1.000000 -0.000000 -0.000000 151 73 18
-0.920000 1.300000 -0.700000 -1.000000 -0.000000 -0.000000 151 73 18
-0.920000 1.300000 0.700000 -1.000000 0.000000 -0.000000 151 73 18
0.700000 2.700000 0.920000 0.000000 -0.000000 1.000000 151 73 18
-0.700000 2.700000 0.920000 0.000000 -0.000000 1.000000 151 73 18
-0.700000 1.300000 0.920000 0.000000 -0.000000 1.000000 151 73 18
0.700000 1.300000 0.920000 -0.000000 0.000000 1.000000 151 73 18
0.920000 2.700000 -0.700000 1.000000 0.000000 0.000000 151 73 18
0.920000 2.700000 0.700000 1.000000 0.000000 0.000000 151 73 18
0.920000 1.300000 0.700000 1.000000 0.000000 0.000000 151 73 18
0.920000 1.300000 -0.700000 1.000000 -0.000000 -0.000000 151 73 18
-0.700000 2.700000 -0.920000 0.000000 0.000000 -1.000000 151 73 18
0.700000 2.700000 -0.920000 0.000000 0.000000 -1.000000 151 73 18
0.700000 1.300000 -0.920000 0.000000 0.000000 -1.000000 151 73 18
-0.700000 1.300000 -0.920000 0.000000 0.000000 -1.000000 151 73 18
0.700000 2.920000 0.700000 0.000000 1.000000 -0.000000 151 73 18
0.700000 2.920000 -0.700000 0.000000 1.000000 -0.000000 151 73 18
-0.700000 2.920000 -0.700000 0.000000 1.000000 -0.000000 151 73 18
-0.700000 2.920000 0.700000 0.000000 1.000000 -0.000000 151 73 18
-0.700000 1.080000 0.700000 0.000000 -1.000000 0.000000 151 73 18
-0.700000 1.080000 -0.700000 0.000000 -1.000000 0.000000 151 73 18
0.700000 1.080000 -0.700000 0.000000 -1.000000 0.000000 151 73 18
0.700000 1.080000 0.700000 0.000000 -1.000000 0.000000 151 73 18
-1.000000 1.300000 0.700000 -1.000000 0.000001 -0.000000 151 73 18
-1.000000 1.300000 -0.700000 -1.000000 0.000001 -0.000000 151 73 18
-1.000000 1.000000 -1.000000 -1.000000 0.000001 -0.000000 151 73 18
-1.000000 1.000000 1.000000 -1.000000 -0.000000 0.000000 151 73 18
-1.000000 1.300000 0.700000 -1.000000 -0.000000 0.000000 151 73 18
-1.000000 1.000000 -1.000000 -1.000000 -0.000000 0.000000 151 73 18
-1.000000 2.700000 0.700000 -1.000000 0.000000 0.000000 151 73 18
-1.000000 3.000000 1.000000 -1.000000 0.000000 0.000000 151 73 18
-1.000000 2.700000 -0.700000 -1.000000 0.000000 -0.000000 151 73 18
-1.000000 3.000000 -1.000000 -1.000000 -0.000000 0.000000 151 73 18
-1.000000 1.300000 -0.700000 -1.000000 -0.000000 0.000000 151 73 18
0.700000 1.300000 1.000000 -0.000000 0.000000 1.000000 151 73 18
-0.700000 1.300000 1.000000 -0.000000 0.000000 1.000000 151 73 18
-1.000000 1.000000 1.000000 -0.000000 0.000000 1.000000 151 73 18
1.000000 1.000000 1.000000 -0.000000 -0.000000 1.000000 151 73 18
0.700000 2.700000 1.000000 0.000000 -0.000000 1.000000 151 73 18
1.000000 3.000000 1.000000 0.000000 0.000000 1.000000 151 73 18
-0.700000 2.700000 1.000000 -0.000000 0.000000 1.000000 151 73 18
-1.000000 3.000000 1.000000 0.000000 -0.000000 1.000000 151 73 18
1.000000 1.300000 -0.700000 1.000000 -0.000000 -0.000000 151 73 18
1.000000 1.300000 0.700000 1.000000 -0.000000 -0.000000 151 73 18
1.000000 1.000000 1.000000 1.000000 -0.000000 -0.000000 151 73 18
1.000000 1.000000 -1.000000 1.000000 0.000000 0.000000 151 73 18
1.000000 2.700000 -0.700000 1.000000 -0.000000 0.000000 151 73 18
1.000000 3.000000 -1.000000 1.000000 0.000000 -0.000000 151 73 18
1.000000 2.700000 0.700000 1.000000 0.000000 0.000000 151 73 18
1.000000 3.000000 1.000000 1.000000 -0.000000 -0.000000 151 73 18
-0.700000 1.300000 -1.000000 0.000000 0.000000 -1.000000 151 73 18
0.700000 1.300000 -1.000000 0.000000 0.000000 -1.000000 151 73 18
1.000000 1.000000 -1.000000 0.000000 0.000000 -1.000000 151 73 18
-1.000000 1.000000 -1.000000 -0.000000 -0.000000 -1.000000 151 73 18
-0.700000 2.700000 -1.000000 -0.000000 0.000000 -1.000000 151 73 18
-1.000000 3.000000 -1.000000 -0.000000 0.000000 -1.000000 151 73 18
0.700000 2.700000 -1.000000 0.000000 0.000000 -1.000000 151 73 18
1.000000 3.000000 -1.000000 -0.000000 0.000000 -1.000000 151 73 18
-0.700000 3.000000 0.700000 0.000000 1.000000 -0.000000 151 73 18
-0.700000 3.000000 -0.700000 0.000000 1.000000 -0.000000 151 73 18
-1.000000 3.000000 -1.000000 0.000000 1.000000 -0.000000 151 73 18
-1.000000 3.000000 1.000000 0.000000 1.000000 -0.000000 151 73 18
0.700000 3.000000 0.700000 -0.000000 1.000000 0.000000 151 73 18
1.000000 3.000000 1.000000 -0.000000 1.000000 0.000000 151 73 18
0.700000 3.000000 -0.700000 0.000000 1.000000 0.000000 151 73 18
1.000000 3.000000 -1.000000 0.000000 1.000000 0.000000 151 73 18
0.700000 1.000000 0.700000 0.000000 -1.000000 0.000000 151 73 18
0.700000 1.000000 -0.700000 0.000000 -1.000000 0.000000 151 73 18
1.000000 1.000000 -1.000000 0.000000 -1.000000 0.000000 151 73 18
1.000000 1.000000 1.000000 0.000000 -1.000000 0.000000 151 73 18
-0.700000 1.000000 0.700000 -0.000000 -1.000000 0.000000 151 73 18
-1.000000 1.000000 1.000000 -0.000000 -1.000000 0.000000 151 73 18
-0.700000 1.000000 -0.700000 0.000000 -1.000000 0.000000 151 73 18
-1.000000 1.000000 -1.000000 0.000000 -1.000000 -0.000000 151 73 18
-0.920000 1.300000 0.700000 0.000000 1.000000 -0.000000 151 73 18
-0.920000 1.300000 -0.700000 0.000000 1.000000 -0.000000 151 73 18
-1.000000 1.300000 -0.700000 0.000000 1.000000 -0.000000 151 73 18
-1.000000 1.300000 0.700000 -0.000006 1.000000 0.000000 151 73 18
-0.920000 1.300000 0.700000 -0.000006 1.000000 0.000000 151 73 18
-1.000000 1.300000 -0.700000 -0.000006 1.000000 0.000000 151 73 18
-0.920000 2.700000 0.700000 0.000000 0.000000 -1.000000 151 73 18
-0.920000 1.300000 0.700000 0.000000 0.000000 -1.000000 151 73 18
-1.000000 1.300000 0.700000 0.000000 0.000000 -1.000000 151 73 18
-1.000000 2.700000 0.700000 0.000000 0.000000 -1.000000 151 73 18
-0.920000 2.700000 -0.700000 0.000000 -1.000000 0.000000 151 73 18
-0.920000 2.700000 0.700000 0.000000 -1.000000 0.000000 151 73 18
-1.000000 2.700000 0.700000 0.000000 -1.000000 0.000000 151 73 18
-1.000000 2.700000 -0.700000 -0.000000 -1.000000 -0.000000 151 73 18
-0.920000 1.300000 -0.700000 0.000001 0.000000 1.000000 151 73 18
-0.920000 2.700000 -0.700000 0.000001 0.000000 1.000000 151 73 18
-1.000000 2.700000 -0.700000 0.000001 0.000000 1.000000 151 73 18
-1.000000 1.300000 -0.700000 0.000000 -0.000000 1.000000 151 73 18
-0.920000 1.300000 -0.700000 0.000000 -0.000000 1.000000 151 73 18
-1.000000 2.700000 -0.700000 0.000000 -0.000000 1.000000 151 73 18
0.700000 1.300000 0.920000 -0.000000 1.000000 0.000000 151 73 18
-0.700000 1.300000 0.920000 -0.000000 1.000000 0.000000 151 73 18
-0.700000 1.300000 1.000000 -0.000000 1.000000 0.000000 151 73 18
0.700000 1.300000 1.000000 -0.000000 1.000000 -0.000000 151 73 18
0.700000 2.700000 0.920000 -1.000000 0.000000 -0.000001 151 73 18
0.700000 1.300000 0.920000 -1.000000 0.000000 -0.000001 151 73 18
0.700000 1.300000 1.000000 -1.000000 0.000000 -0.000001 151 73 18
0.700000 2.700000 1.000000 -1.000000 0.000000 -0.000001 151 73 18
-0.700000 2.700000 0.920000 -0.000000 -1.000000 -0.000000 151 73 18
0.700000 2.700000 0.920000 -0.000000 -1.000000 -0.000000 151 73 18
0.700000 2.700000 1.000000 -0.000000 -1.000000 -0.000000 151 73 18
-0.700000 2.700000 1.000000 -0.000000 -1.000000 0.000000 151 73 18
-0.700000 1.300000 0.920000 1.000000 0.000000 -0.000001 151 73 18
-0.700000 2.700000 0.920000 1.000000 0.000000 -0.000001 151 73 18
-0.700000 2.700000 1.000000 1.000000 0.000000 -0.000001 151 73 18
-0.700000 1.300000 1.000000 1.000000 -0.000000 0.000001 151 73 18
-0.700000 1.300000 0.920000 1.000000 -0.000000 0.000001 151 73 18
-0.700000 2.700000 1.000000 1.000000 -0.000000 0.000001 151 73 18
0.920000 1.300000 -0.700000 0.000000 1.000000 0.000000 151 73 18
0.920000 1.300000 0.700000 0.000000 1.000000 0.000000 151 73 18
1.000000 1.300000 0.700000 0.000000 1.000000 0.000000 151 73 18
1.000000 1.300000 -0.700000 -0.000000 1.000000 0.000000 151 73 18
0.920000 2.700000 -0.700000 0.000000 -0.000000 1.000000 151 73 18
0.920000 1.300000 -0.700000 0.000000 -0.000000 1.000000 151 73 18
1.000000 1.300000 -0.700000 0.000000 -0.000000 1.000000 151 73 18
1.000000 2.700000 -0.700000 0.000000 -0.000000 1.000000 151 73 18
0.920000 2.700000 0.700000 0.000006 -1.000000 0.000000 151 73 18
0.920000 2.700000 -0.700000 0.000006 -1.000000 0.000000 151 73 18
1.000000 2.700000 -0.700000 0.000006 -1.000000 0.000000 151 73 18
1.000000 2.700000 0.700000 0.000000 -1.000000 -0.000000 151 73 18
0.920000 2.700000 0.700000 0.000000 -1.000000 -0.000000 151 73 18
1.000000 2.700000 -0.700000 0.000000 -1.000000 -0.000000 151 73 18
0.920000 1.300000 0.700000 -0.000000 -0.000000 -1.000000 151 73 18
0.920000 2.700000 0.700000 -0.000000 -0.000000 -1.000000 151 73 18
1.000000 2.700000 0.700000 -0.000000 -0.000000 -1.000000 151 73 18
1.000000 1.300000 0.700000 0.000000 -0.000000 -1.000000 151 73 18
-0.700000 1.300000 -0.920000 0.000000 1.000000 0.000000 151 73 18
0.700000 1.300000 -0.920000 0.000000 1.000000 0.000000 151 73 18
0.700000 1.300000 -1.000000 0.000000 1.000000 0.000000 151 73 18
-0.700000 1.300000 -1.000000 0.000000 1.000000 0.000000 151 73 18
-0.700000 2.700000 -0.920000 1.000000 0.000000 0.000000 151 73 18
-0.700000 1.300000 -0.920000 1.000000 0.000000 0.000000 151 73 18
-0.700000 1.300000 -1.000000 1.000000 0.000000 0.000000 151 73 18
-0.700000 2.700000 -1.000000 1.000000 0.000000 -0.000001 151 73 18
-0.700000 2.700000 -0.920000 1.000000 0.000000 -0.000001 151 73 18
-0.700000 1.300000 -1.000000 1.000000 0.000000 -0.000001 151 73 18
0.700000 2.700000 -0.920000 0.000000 -1.000000 0.000000 151 73 18
-0.700000 2.700000 -0.920000 0.000000 -1.000000 0.000000 151 73 18
-0.700000 2.700000 -1.000000 0.000000 -1.000000 0.000000 151 73 18
0.700000 2.700000 -1.000000 0.000000 -1.000000 0.000000 151 73 18
0.700000 1.300000 -0.920000 -1.000000 -0.000000 -0.000001 151 73 18
0.700000 2.700000 -0.920000 -1.000000 -0.000000 -0.000001 151 73 18
0.700000 2.700000 -1.000000 -1.000000 -0.000000 -0.000001 151 73 18
0.700000 1.300000 -1.000000 -1.000000 0.000000 -0.000001 151 73 18
-0.700000 2.920000 0.700000 1.000000 -0.000001 0.000000 151 73 18
-0.700000 2.920000 -0.700000 1.000000 -0.000001 0.000000 151 73 18
-0.700000 3.000000 -0.700000 1.000000 -0.000001 0.000000 151 73 18
-0.700000 3.000000 0.700000 1.000000 -0.000000 0.000000 151 73 18
-0.700000 2.920000 0.700000 1.000000 -0.000000 0.000000 151 73 18
-0.700000 3.000000 -0.700000 1.000000 -0.000000 0.000000 151 73 18
0.700000 2.920000 0.700000 0.000000 0.000000 -1.000000 151 73 18
-0.700000 2.920000 0.700000 0.000000 0.000000 -1.000000 151 73 18
-0.700000 3.000000 0.700000 0.000000 0.000000 -1.000000 151 73 18
0.700000 3.000000 0.700000 0.000000 0.000000 -1.000000 151 73 18
0.700000 2.920000 -0.700000 -1.000000 -0.000000 -0.000000 151 73 18
0.700000 2.920000 0.700000 -1.000000 -0.000000 -0.000000 151 73 18
0.700000 3.000000 0.700000 -1.000000 -0.000000 -0.000000 151 73 18
0.700000 3.000000 -0.700000 -1.000000 0.000000 -0.000000 151 73 18
-0.700000 2.920000 -0.700000 0.000000 0.000000 1.000000 151 73 18
0.700000 2.920000 -0.700000 0.000000 0.000000 1.000000 151 73 18
0.700000 3.000000 -0.700000 0.000000 0.000000 1.000000 151 73 18
-0.700000 3.000000 -0.700000 0.000000 -0.000000 1.000000 151 73 18
0.700000 1.080000 0.700000 -1.000000 0.000000 -0.000000 151 73 18
0.700000 1.080000 -0.700000 -1.000000 0.000000 -0.000000 151 73 18
0.700000 1.000000 -0.700000 -1.000000 0.000000 -0.000000 151 73 18
0.700000 1.000000 0.700000 -1.000000 -0.000001 0.000000 151 73 18
0.700000 1.080000 0.700000 -1.000000 -0.000001 0.000000 151 73 18
0.700000 1.000000 -0.700000 -1.000000 -0.000001 0.000000 151 73 18
-0.700000 1.080000 0.700000 0.000000 0.000001 -1.000000 151 73 18
0.700000 1.080000 0.700000 0.000000 0.000001 -1.000000 151 73 18
0.700000 1.000000 0.700000 0.000000 0.000001 -1.000000 151 73 18
-0.700000 1.000000 0.700000 -0.000000 0.000000 -1.000000 151 73 18
-0.700000 1.080000 0.700000 -0.000000 0.000000 -1.000000 151 73 18
0.700000 1.000000 0.700000 -0.000000 0.000000 -1.000000 151 73 18
-0.700000 1.080000 -0.700000 1.000000 -0.000001 0.000000 151 73 18
-0.700000 1.080000 0.700000 1.000000 -0.000001 0.000000 151 73 18
-0.700000 1.000000 0.700000 1.000000 -0.000001 0.000000 151 73 18
-0.700000 1.000000 -0.700000 1.000000 0.000001 0.000000 151 73 18
-0.700000 1.080000 -0.700000 1.000000 0.000001 0.000000 151 73 18
-0.700000 1.000000 0.700000 1.000000 0.000001 0.000000 151 73 18
0.700000 1.080000 -0.700000 0.000000 -0.000001 1.000000 151 73 18
-0.700000 1.080000 -0.700000 0.000000 -0.000001 1.000000 151 73 18
-0.700000 1.000000 -0.700000 0.000000 -0.000001 1.000000 151 73 18
0.700000 1.000000 -0.700000 -0.000000 0.000000 1.000000 151 73 18
0.700000 1.080000 -0.700000 -0.000000 0.000000 1.000000 151 73 18
-0.700000 1.000000 -0.700000 -0.000000 0.000000 1.000000 151 73 18
0.707107 1.030000 0.919239 -0.707107 0.000000 0.707107 151 73 18
0.707107 1.080000 0.919239 -0.707107 0.000000 0.707107 151 73 18
-0.919239 1.080000 -0.707107 -0.707107 0.000000 0.707107 151 73 18
-0.919239 1.030000 -0.707107 -0.707107 0.000000 0.707107 151 73 18
0.919239 1.030000 0.707107 0.000001 -1.000000 -0.000001 151 73 18
0.707107 1.030000 0.919239 0.000001 -1.000000 -0.000001 151 73 18
-0.919239 1.030000 -0.707107 0.000001 -1.000000 -0.000001 151 73 18
-0.707107 1.030000 -0.919239 0.000000 -1.000000 -0.000000 151 73 18
0.919239 1.030000 0.707107 0.000000 -1.000000 -0.000000 151 73 18
-0.919239 1.030000 -0.707107 0.000000 -1.000000 -0.000000 151 73 18
0.919239 1.080000 0.707107 0.707107 0.000000 -0.707107 151 73 18
0.919239 1.030000 0.707107 0.707107 0.000000 -0.707107 151 73 18
-0.707107 1.030000 -0.919239 0.707107 0.000000 -0.707107 151 73 18
-0.707107 1.080000 -0.919239 0.707107 0.000000 -0.707107 151 73 18
0.919239 2.707107 -0.970000 0.707107 -0.707107 0.000000 151 73 18
0.919239 2.707107 -0.920000 0.707107 -0.707107 0.000000 151 73 18
-0.707107 1.080761 -0.920000 0.707107 -0.707107 0.000000 151 73 18
-0.707107 1.080761 -0.970000 0.707107 -0.707107 0.000000 151 73 18
0.919239 1.030000 0.707107 0.707107 0.000000 0.707107 255 255 255
0.919239 1.080000 0.707107 0.707107 0.000000 0.707107 255 255 255
0.707107 1.080000 0.919239 0.707107 0.000000 0.707107 255 255 255
0.707107 1.030000 0.919239 0.707107 0.000000 0.707107 255 255 255
0.919239 2.920000 -0.707107 0.707107 0.000000 0.707107 151 73 18
0.919239 2.970000 -0.707107 0.707107 0.000000 0.707107 151 73 18
-0.707107 2.970000 0.919239 0.707107 0.000000 0.707107 151 73 18
-0.707107 2.920000 0.919239 0.707107 0.000000 0.707107 151 73 18
-0.707107 2.919239 0.970000 -0.000000 0.000000 1.000000 151 73 18
-0.919239 2.707107 0.970000 -0.000000 0.000000 1.000000 151 73 18
0.707107 1.080761 0.970000 -0.000000 0.000000 1.000000 151 73 18
0.919239 1.292893 0.970000 0.000000 0.000000 1.000000 151 73 18
0.707107 2.970000 -0.919239 -0.707107 0.000000 -0.707107 151 73 18
0.707107 2.920000 -0.919239 -0.707107 0.000000 -0.707107 151 73 18
-0.919239 2.920000 0.707107 -0.707107 0.000000 -0.707107 151 73 18
-0.919239 2.970000 0.707107 -0.707107 0.000000 -0.707107 151 73 18
0.919239 2.970000 -0.707107 -0.000000 1.000000 0.000000 151 73 18
0.707107 2.970000 -0.919239 -0.000000 1.000000 0.000000 151 73 18
-0.919239 2.970000 0.707107 -0.000000 1.000000 0.000000 151 73 18
-0.707107 2.970000 0.919239 -0.000000 1.000000 0.000000 151 73 18
-0.707107 2.919239 0.920000 0.707107 0.707107 0.000002 151 73 18
-0.707107 2.919239 0.970000 0.707107 0.707107 0.000002 151 73 18
0.919239 1.292893 0.970000 0.707107 0.707107 0.000002 151 73 18
0.919239 1.292893 0.920000 0.707107 0.707107 0.000000 151 73 18
-0.707107 2.919239 0.920000 0.707107 0.707107 0.000000 151 73 18
0.919239 1.292893 0.970000 0.707107 0.707107 0.000000 151 73 18
0.920000 2.707107 -0.919239 -0.000000 -0.707107 -0.707107 151 73 18
0.970000 2.707107 -0.919239 -0.000000 -0.707107 -0.707107 151 73 18
0.970000 1.080761 0.707107 -0.000000 -0.707107 -0.707107 151 73 18
0.920000 1.080761 0.707107 0.000000 -0.707107 -0.707107 151 73 18
0.920000 1.080761 0.707107 0.000000 -0.707107 0.707107 255 255 255
0.970000 1.080761 0.707107 0.000000 -0.707107 0.707107 255 255 255
0.970000 1.292893 0.919239 0.000000 -0.707107 0.707107 255 255 255
0.920000 1.292893 0.919239 -0.000002 -0.707107 0.707107 255 255 255
0.920000 1.080761 0.707107 -0.000002 -0.707107 0.707107 255 255 255
0.970000 1.292893 0.919239 -0.000002 -0.707107 0.707107 255 255 255
0.970000 2.919239 -0.707107 0.000001 0.707107 0.707107 151 73 18
0.920000 2.919239 -0.707107 0.000001 0.707107 0.707107 151 73 18
0.920000 1.292893 0.919239 0.000001 0.707107 0.707107 151 73 18
0.970000 1.292893 0.919239 0.000000 0.707107 0.707107 151 73 18
0.970000 2.919239 -0.707107 0.000000 0.707107 0.707107 151 73 18
0.920000 1.292893 0.919239 0.000000 0.707107 0.707107 151 73 18
0.970000 2.707107 -0.919239 1.000000 0.000000 0.000000 151 73 18
0.970000 2.919239 -0.707107 1.000000 0.000000 0.000000 151 73 18
0.970000 1.292893 0.919239 1.000000 0.000000 0.000000 151 73 18
0.970000 1.080761 0.707107 1.000000 0.000000 0.000000 151 73 18
0.707107 2.919239 -0.920000 -0.707107 0.707107 -0.000001 151 73 18
0.707107 2.919239 -0.970000 -0.707107 0.707107 -0.000001 151 73 18
-0.919239 1.292893 -0.970000 -0.707107 0.707107 -0.000001 151 73 18
-0.919239 1.292893 -0.920000 -0.707107 0.707107 0.000000 151 73 18
0.707107 2.919239 -0.920000 -0.707107 0.707107 0.000000 151 73 18
-0.919239 1.292893 -0.970000 -0.707107 0.707107 0.000000 151 73 18
-0.970000 2.919239 0.707107 -0.000005 0.707107 -0.707107 151 73 18
-0.920000 2.919239 0.707107 -0.000005 0.707107 -0.707107 151 73 18
-0.920000 1.292893 -0.919239 -0.000005 0.707107 -0.707107 151 73 18
-0.970000 1.292893 -0.919239 0.000000 0.707107 -0.707107 151 73 18
-0.970000 2.919239 0.707107 0.000000 0.707107 -0.707107 151 73 18
-0.920000 1.292893 -0.919239 0.000000 0.707107 -0.707107 151 73 18
-0.970000 2.707107 0.919239 -1.000000 -0.000000 -0.000000 151 73 18
-0.970000 2.919239 0.707107 -1.000000 -0.000000 -0.000000 151 73 18
-0.970000 1.292893 -0.919239 -1.000000 -0.000000 -0.000000 151 73 18
-0.970000 1.080761 -0.707107 -1.000000 -0.000000 -0.000000 151 73 18
-0.920000 2.707107 0.919239 0.000000 -0.707107 0.707107 151 73 18
-0.970000 2.707107 0.919239 0.000000 -0.707107 0.707107 151 73 18
-0.970000 1.080761 -0.707107 0.000000 -0.707107 0.707107 151 73 18
-0.920000 1.080761 -0.707107 0.000002 -0.707107 0.707107 151 73 18
-0.920000 2.707107 0.919239 0.000002 -0.707107 0.707107 151 73 18
-0.970000 1.080761 -0.707107 0.000002 -0.707107 0.707107 151 73 18
0.707107 2.919239 -0.970000 -0.000000 0.000000 -1.000000 151 73 18
0.919239 2.707107 -0.970000 -0.000000 0.000000 -1.000000 151 73 18
-0.707107 1.080761 -0.970000 -0.000000 0.000000 -1.000000 151 73 18
-0.919239 1.292893 -0.970000 -0.000000 0.000000 -1.000000 151 73 18
0.707107 1.080761 0.970000 0.707107 -0.707106 0.000000 255 255 255
0.707107 1.080761 0.920000 0.707107 -0.707106 0.000000 255 255 255
0.919239 1.292893 0.920000 0.707107 -0.707106 0.000000 255 255 255
0.919239 1.292893 0.970000 0.707107 -0.707106 0.000000 255 255 255
-0.919239 2.707107 0.970000 -0.707107 -0.707107 -0.000001 151 73 18
-0.919239 2.707107 0.920000 -0.707107 -0.707107 -0.000001 151 73 18
0.707107 1.080761 0.920000 -0.707107 -0.707107 -0.000001 151 73 18
0.707107 1.080761 0.970000 -0.707107 -0.707107 0.000000 151 73 18
-0.919239 2.707107 0.970000 -0.707107 -0.707107 0.000000 151 73 18
0.707107 1.080761 0.920000 -0.707107 -0.707107 0.000000 151 73 18
-0.000601 3.000818 -0.576639 0.000000 -1.000000 0.000000 255 255 255
0.208236 3.000818 -0.039230 0.000000 -1.000000 0.000000 255 255 255
-0.329173 3.000818 0.169607 0.000000 -1.000000 0.000000 255 255 255
-0.538010 3.000818 -0.367803 0.000000 -1.000000 0.000000 255 255 255
-0.000601 3.751410 -0.576639 0.000000 1.000000 0.000000 212 209 81
-0.538010 3.751410 -0.367803 0.000000 1.000000 0.000000 212 209 81
-0.329173 3.751410 0.169607 0.000000 1.000000 0.000000 212 209 81
0.208236 3.751410 -0.039230 0.000000 1.000000 0.000000 212 209 81
-0.329173 3.000818 0.169607 0.362212 0.000000 0.932096 212 209 81
0.208236 3.000818 -0.039230 0.362212 0.000000 0.932096 212 209 81
0.208236 3.751410 -0.039230 0.362212 0.000000 0.932096 212 209 81
-0.329173 3.751410 0.169607 0.362212 0.000000 0.932096 212 209 81
-0.538010 3.000818 -0.367803 -0.932096 0.000000 0.362212 212 209 81
-0.329173 3.000818 0.169607 -0.932096 0.000000 0.362212 212 209 81
-0.329173 3.751410 0.169607 -0.932096 0.000000 0.362212 212 209 81
-0.538010 3.751410 -0.367803 -0.932096 0.000000 0.362212 212 209 81
-0.000601 3.000818 -0.576639 -0.362212 0.000000 -0.932096 212 209 81
-0.538010 3.000818 -0.367803 -0.362212 0.000000 -0.932096 212 209 81
-0.538010 3.751410 -0.367803 -0.362212 0.000000 -0.932096 212 209 81
-0.000601 3.751410 -0.576639 -0.362212 0.000000 -0.932096 212 209 81
0.208236 3.000818 -0.039230 0.932096 -0.000000 -0.362212 212 209 81
-0.000601 3.000818 -0.576639 0.932096 -0.000000 -0.362212 212 209 81
-0.000601 3.751410 -0.576639 0.932096 -0.000000 -0.362212 212 209 81
0.208236 3.751410 -0.039230 0.932096 -0.000000 -0.362212 212 209 81
0.035229 2.996993 -0.659248 0.000000 -1.000000 0.000000 255 255 255
0.061333 2.996993 -0.592071 0.000000 -1.000000 0.000000 255 255 255
-0.005843 2.996993 -0.565967 0.000000 -1.000000 0.000000 255 255 255
-0.031948 2.996993 -0.633143 0.000000 -1.000000 0.000000 255 255 255
0.035229 3.717691 -0.659248 0.000000 1.000000 0.000000 255 255 255
-0.031948 3.717691 -0.633143 0.000000 1.000000 0.000000 255 255 255
-0.005843 3.717691 -0.565967 0.000000 1.000000 0.000000 255 255 255
0.061333 3.717691 -0.592071 0.000000 1.000000 0.000000 255 255 255
-0.005843 2.996993 -0.565967 0.362212 0.000000 0.932096 38 38 38
0.061333 2.996993 -0.592071 0.362212 0.000000 0.932096 38 38 38
0.061333 3.717691 -0.592071 0.362212 0.000000 0.932096 38 38 38
-0.005843 3.717691 -0.565967 0.362212 0.000000 0.932096 38 38 38
-0.031948 2.996993 -0.633143 -0.932096 0.000000 0.362211 38 38 38
-0.005843 2.996993 -0.565967 -0.932096 0.000000 0.362211 38 38 38
-0.005843 3.717691 -0.565967 -0.932096 0.000000 0.362211 38 38 38
-0.031948 3.717691 -0.633143 -0.932096 0.000000 0.362211 38 38 38
0.035229 2.996993 -0.659248 -0.362212 -0.000000 -0.932096 38 38 38
-0.031948 2.996993 -0.633143 -0.362212 -0.000000 -0.932096 38 38 38
-0.031948 3.717691 -0.633143 -0.362212 -0.000000 -0.932096 38 38 38
0.035229 3.717691 -0.659248 -0.362212 -0.000000 -0.932096 38 38 38
0.061333 2.996993 -0.592071 0.932096 -0.000000 -0.362211 38 38 38
0.035229 2.996993 -0.659248 0.932096 -0.000000 -0.362211 38 38 38
0.035229 3.717691 -0.659248 0.932096 -0.000000 -0.362211 38 38 38
0.061333 3.717691 -0.592071 0.932096 -0.000000 -0.362211 38 38 38
0.040471 2.869229 -0.669920 0.000000 -1.000000 0.000000 38 38 38
0.301517 2.869229 0.001841 0.000000 -1.000000 0.000000 38 38 38
-0.370245 2.869229 0.262887 0.000000 -1.000000 0.000000 38 38 38
-0.631291 2.869229 -0.408874 0.000000 -1.000000 0.000000 38 38 38
0.040471 3.013370 -0.669920 0.000000 1.000000 0.000000 38 38 38
-0.631291 3.013370 -0.408874 0.000000 1.000000 0.000000 38 38 38
-0.370245 3.013370 0.262887 0.000000 1.000000 0.000000 38 38 38
0.301517 3.013370 0.001841 0.000000 1.000000 0.000000 38 38 38
-0.370245 2.869229 0.262887 0.362212 0.000000 0.932096 38 38 38
0.301517 2.869229 0.001841 0.362212 0.000000 0.932096 38 38 38
0.301517 3.013370 0.001841 0.362212 0.000000 0.932096 38 38 38
-0.370245 3.013370 0.262887 0.362212 0.000000 0.932096 38 38 38
-0.631291 2.869229 -0.408874 -0.932096 0.000000 0.362212 38 38 38
-0.370245 2.869229 0.262887 -0.932096 0.000000 0.362212 38 38 38
-0.370245 3.013370 0.262887 -0.932096 0.000000 0.362212 38 38 38
-0.631291 3.013370 -0.408874 -0.932096 0.000000 0.362212 38 38 38
0.040471 2.869229 -0.669920 -0.362212 0.000000 -0.932096 38 38 38
-0.631291 2.869229 -0.408874 -0.362212 0.000000 -0.932096 38 38 38
-0.631291 3.013370 -0.408874 -0.362212 0.000000 -0.932096 38 38 38
0.040471 3.013370 -0.669920 -0.362212 0.000000 -0.932096 38 38 38
0.301517 2.869229 0.001841 0.932096 -0.000000 -0.362212 38 38 38
0.040471 2.869229 -0.669920 0.932096 -0.000000 -0.362212 38 38 38
0.040471 3.013370 -0.669920 0.932096 -0.000000 -0.362212 38 38 38
0.301517 3.013370 0.001841 0.932096 -0.000000 -0.362212 38 38 38
-0.550506 2.996993 -0.431632 0.000000 -1.000000 0.000000 255 255 255
-0.524401 2.996993 -0.364455 0.000000 -1.000000 0.000000 255 255 255
-0.591578 2.996993 -0.338351 0.000000 -1.000000 0.000000 255 255 255
-0.617682 2.996993 -0.405527 0.000000 -1.000000 0.000000 255 255 255
-0.550506 3.717691 -0.431632 0.000000 1.000000 0.000000 255 255 255
-0.617682 3.717691 -0.405527 0.000000 1.000000 0.000000 255 255 255
-0.591578 3.717691 -0.338351 0.000000 1.000000 0.000000 255 255 255
-0.524401 3.717691 -0.364456 0.000000 1.000000 0.000000 255 255 255
-0.591578 2.996993 -0.338351 0.362211 0.000000 0.932096 38 38 38
-0.524401 2.996993 -0.364455 0.362211 0.000000 0.932096 38 38 38
-0.524401 3.717691 -0.364456 0.362211 0.000000 0.932096 38 38 38
-0.591578 3.717691 -0.338351 0.362211 0.000000 0.932096 38 38 38
-0.617682 2.996993 -0.405527 -0.932096 0.000000 0.362211 38 38 38
-0.591578 2.996993 -0.338351 -0.932096 0.000000 0.362211 38 38 38
-0.591578 3.717691 -0.338351 -0.932096 0.000000 0.362211 38 38 38
-0.617682 3.717691 -0.405527 -0.932096 0.000000 0.362211 38 38 38
-0.550506 2.996993 -0.431632 -0.362211 -0.000000 -0.932096 38 38 38
-0.617682 2.996993 -0.405527 -0.362211 -0.000000 -0.932096 38 38 38
-0.617682 3.717691 -0.405527 -0.362211 -0.000000 -0.932096 38 38 38
-0.550506 3.717691 -0.431632 -0.362211 -0.000000 -0.932096 38 38 38
-0.524401 2.996993 -0.364455 0.932096 -0.000000 -0.362211 38 38 38
-0.550506 2.996993 -0.431632 0.932096 -0.000000 -0.362211 38 38 38
-0.550506 3.717691 -0.431632 0.932096 -0.000000 -0.362211 38 38 38
-0.524401 3.717691 -0.364456 0.932096 -0.000000 -0.362211 38 38 38
-0.322411 2.996993 0.155335 0.000000 -1.000000 0.000000 255 255 255
-0.296307 2.996993 0.222511 0.000000 -1.000000 0.000000 255 255 255
-0.363483 2.996993 0.248616 0.000000 -1.000000 0.000000 255 255 255
-0.389587 2.996993 0.181440 0.000000 -1.000000 0.000000 255 255 255
-0.322411 3.717691 0.155335 0.000000 1.000000 0.000000 255 255 255
-0.389587 3.717691 0.181440 0.000000 1.000000 0.000000 255 255 255
-0.363483 3.717691 0.248616 0.000000 1.000000 0.000000 255 255 255
-0.296307 3.717691 0.222511 0.000000 1.000000 0.000000 255 255 255
-0.363483 2.996993 0.248616 0.362211 -0.000000 0.932096 38 38 38
-0.296307 2.996993 0.222511 0.362211 -0.000000 0.932096 38 38 38
-0.296307 3.717691 0.222511 0.362211 -0.000000 0.932096 38 38 38
-0.363483 3.717691 0.248616 0.362211 -0.000000 0.932096 38 38 38
-0.389587 2.996993 0.181440 -0.932096 0.000000 0.362212 38 38 38
-0.363483 2.996993 0.248616 -0.932096 0.000000 0.362212 38 38 38
-0.363483 3.717691 0.248616 -0.932096 0.000000 0.362212 38 38 38
-0.389587 3.717691 0.181440 -0.932096 0.000000 0.362212 38 38 38
-0.322411 2.996993 0.155335 -0.362211 -0.000000 -0.932096 38 38 38
-0.389587 2.996993 0.181440 -0.362211 -0.000000 -0.932096 38 38 38
-0.389587 3.717691 0.181440 -0.362211 -0.000000 -0.932096 38 38 38
-0.322411 3.717691 0.155335 -0.362211 -0.000000 -0.932096 38 38 38
-0.296307 2.996993 0.222511 0.932096 -0.000000 -0.362212 38 38 38
-0.322411 2.996993 0.155335 0.932096 -0.000000 -0.362212 38 38 38
-0.322411 3.717691 0.155335 0.932096 -0.000000 -0.362212 38 38 38
-0.296307 3.717691 0.222511 0.932096 -0.000000 -0.362212 38 38 38
0.260841 2.996993 -0.071316 0.000000 -1.000000 0.000000 255 255 255
0.286946 2.996993 -0.004140 0.000000 -1.000000 0.000000 255 255 255
0.219770 2.996993 0.021965 0.000000 -1.000000 0.000000 255 255 255
0.193665 2.996993 -0.045212 0.000000 -1.000000 0.000000 255 255 255
0.260841 3.717691 -0.071316 0.000000 1.000000 0.000000 255 255 255
0.193665 3.717691 -0.045212 0.000000 1.000000 0.000000 255 255 255
0.219770 3.717691 0.021965 0.000000 1.000000 0.000000 255 255 255
0.286946 3.717691 -0.004140 0.000000 1.000000 0.000000 255 255 255
0.219770 2.996993 0.021965 0.362212 0.000000 0.932096 38 38 38
0.286946 2.996993 -0.004140 0.362212 0.000000 0.932096 38 38 38
0.286946 3.717691 -0.004140 0.362212 0.000000 0.932096 38 38 38
0.219770 3.717691 0.021965 0.362212 0.000000 0.932096 38 38 38
0.193665 2.996993 -0.045212 -0.932096 0.000000 0.362211 38 38 38
0.219770 2.996993 0.021965 -0.932096 0.000000 0.362211 38 38 38
0.219770 3.717691 0.021965 -0.932096 0.000000 0.362211 38 38 38
0.193665 3.717691 -0.045212 -0.932096 0.000000 0.362211 38 38 38
0.260841 2.996993 -0.071316 -0.362212 -0.000000 -0.932096 38 38 38
0.193665 2.996993 -0.045212 -0.362212 -0.000000 -0.932096 38 38 38
0.193665 3.717691 -0.045212 -0.362212 -0.000000 -0.932096 38 38 38
0.260841 3.717691 -0.071316 -0.362212 -0.000000 -0.932096 38 38 38
0.286946 2.996993 -0.004140 0.932096 -0.000000 -0.362212 38 38 38
0.260841 2.996993 -0.071316 0.932096 -0.000000 -0.362212 38 38 38
0.260841 3.717691 -0.071316 0.932096 -0.000000 -0.362212 38 38 38
0.286946 3.717691 -0.004140 0.932096 -0.000000 -0.362212 38 38 38
0.040471 3.710038 -0.669920 0.000000 -1.000000 0.000000 38 38 38
0.301517 3.710038 0.001841 0.000000 -1.000000 0.000000 38 38 38
-0.370245 3.710038 0.262887 0.000000 -1.000000 0.000000 38 38 38
-0.631291 3.710038 -0.408874 0.000000 -1.000000 0.000000 38 38 38
0.040471 3.854177 -0.669920 0.000000 1.000000 0.000000 38 38 38
-0.631291 3.854177 -0.408874 0.000000 1.000000 0.000000 38 38 38
-0.370245 3.854177 0.262887 0.000000 1.000000 0.000000 38 38 38
0.301517 3.854177 0.001841 0.000000 1.000000 0.000000 38 38 38
-0.370245 3.710038 0.262887 0.362212 0.000000 0.932096 38 38 38
0.301517 3.710038 0.001841 0.362212 0.000000 0.932096 38 38 38
0.301517 3.854177 0.001841 0.362212 0.000000 0.932096 38 38 38
-0.370245 3.854177 0.262887 0.362212 0.000000 0.932096 38 38 38
-0.631291 3.710038 -0.408874 -0.932096 0.000000 0.362212 38 38 38
-0.370245 3.710038 0.262887 -0.932096 0.000000 0.362212 38 38 38
-0.370245 3.854177 0.262887 -0.932096 0.000000 0.362212 38 38 38
-0.631291 3.854177 -0.408874 -0.932096 0.000000 0.362212 38 38 38
0.040471 3.710038 -0.669920 -0.362212 0.000000 -0.932096 38 38 38
-0.631291 3.710038 -0.408874 -0.362212 0.000000 -0.932096 38 38 38
-0.631291 3.854177 -0.408874 -0.362212 0.000000 -0.932096 38 38 38
0.040471 3.854177 -0.669920 -0.362212 0.000000 -0.932096 38 38 38
0.301517 3.710038 0.001841 0.932096 -0.000000 -0.362212 38 38 38
0.040471 3.710038 -0.669920 0.932096 -0.000000 -0.362212 38 38 38
0.040471 3.854177 -0.669920 0.932096 -0.000000 -0.362212 38 38 38
0.301517 3.854177 0.001841 0.932096 -0.000000 -0.362212 38 38 38
-0.021136 3.783838 -0.529999 0.000000 -1.000000 0.000000 255 255 255
0.161596 3.783838 -0.059766 0.000000 -1.000000 0.000000 255 255 255
-0.308637 3.783838 0.122966 0.000000 -1.000000 0.000000 255 255 255
-0.491370 3.783838 -0.347267 0.000000 -1.000000 0.000000 255 255 255
-0.021136 3.927979 -0.529999 0.000000 1.000000 0.000000 38 38 38
-0.491370 3.927979 -0.347267 0.000000 1.000000 0.000000 38 38 38
-0.308637 3.927979 0.122966 0.000000 1.000000 0.000000 38 38 38
0.161596 3.927979 -0.059766 0.000000 1.000000 0.000000 38 38 38
-0.308637 3.783838 0.122966 0.362212 0.000000 0.932096 38 38 38
0.161596 3.783838 -0.059766 0.362212 0.000000 0.932096 38 38 38
0.161596 3.927979 -0.059766 0.362212 0.000000 0.932096 38 38 38
-0.308637 3.927979 0.122966 0.362212 0.000000 0.932096 38 38 38
-0.491370 3.783838 -0.347267 -0.932096 0.000000 0.362212 38 38 38
-0.308637 3.783838 0.122966 -0.932096 0.000000 0.362212 38 38 38
-0.308637 3.927979 0.122966 -0.932096 0.000000 0.362212 38 38 38
-0.491370 3.927979 -0.347267 -0.932096 0.000000 0.362212 38 38 38
-0.021136 3.783838 -0.529999 -0.362212 -0.000000 -0.932096 38 38 38
-0.491370 3.783838 -0.347267 -0.362212 -0.000000 -0.932096 38 38 38
-0.491370 3.927979 -0.347267 -0.362212 -0.000000 -0.932096 38 38 38
-0.021136 3.927979 -0.529999 -0.362212 -0.000000 -0.932096 38 38 38
0.161596 3.783838 -0.059766 0.932096 -0.000000 -0.362212 38 38 38
-0.021136 3.783838 -0.529999 0.932096 -0.000000 -0.362212 38 38 38
-0.021136 3.927979 -0.529999 0.932096 -0.000000 -0.362212 38 38 38
0.161596 3.927979 -0.059766 0.932096 -0.000000 -0.362212 38 38 38
-0.093012 3.848659 -0.366757 0.000000 -1.000000 0.000000 255 255 255
-0.001646 3.848659 -0.131641 0.000000 -1.000000 0.000000 255 255 255
-0.236762 3.848659 -0.040276 0.000000 -1.000000 0.000000 255 255 255
-0.328128 3.848659 -0.275391 0.000000 -1.000000 0.000000 255 255 255
-0.093012 3.992799 -0.366757 0.000000 1.000000 0.000000 38 38 38
-0.328128 3.992799 -0.275391 0.000000 1.000000 0.000000 38 38 38
-0.236762 3.992799 -0.040276 0.000000 1.000000 0.000000 38 38 38
-0.001646 3.992799 -0.131641 0.000000 1.000000 0.000000 38 38 38
-0.236762 3.848659 -0.040276 0.362212 -0.000000 0.932096 38 38 38
-0.001646 3.848659 -0.131641 0.362212 -0.000000 0.932096 38 38 38
-0.001646 3.992799 -0.131641 0.362212 -0.000000 0.932096 38 38 38
-0.236762 3.992799 -0.040276 0.362212 -0.000000 0.932096 38 38 38
-0.328128 3.848659 -0.275391 -0.932096 0.000000 0.362212 38 38 38
-0.236762 3.848659 -0.040276 -0.932096 0.000000 0.362212 38 38 38
-0.236762 3.992799 -0.040276 -0.932096 0.000000 0.362212 38 38 38
-0.328128 3.992799 -0.275391 -0.932096 0.000000 0.362212 38 38 38
-0.093012 3.848659 -0.366757 -0.362212 0.000000 -0.932096 38 38 38
-0.328128 3.848659 -0.275391 -0.362212 0.000000 -0.932096 38 38 38
-0.328128 3.992799 -0.275391 -0.362212 0.000000 -0.932096 38 38 38
-0.093012 3.992799 -0.366757 -0.362212 0.000000 -0.932096 38 38 38
-0.001646 3.848659 -0.131641 0.932096 -0.000000 -0.362212 38 38 38
-0.093012 3.848659 -0.366757 0.932096 -0.000000 -0.362212 38 38 38
-0.093012 3.992799 -0.366757 0.932096 -0.000000 -0.362212 38 38 38
-0.001646 3.992799 -0.131641 0.932096 -0.000000 -0.362212 38 38 38
-0.128949 3.961393 -0.285137 0.000000 -1.000000 0.000000 255 255 255
-0.083267 3.961393 -0.167579 0.000000 -1.000000 0.000000 255 255 255
-0.200824 3.961393 -0.121896 0.000000 -1.000000 0.000000 255 255 255
-0.246507 3.961393 -0.239454 0.000000 -1.000000 0.000000 255 255 255
-0.128949 4.253375 -0.285137 0.000000 1.000000 0.000000 105 70 31
-0.246507 4.253375 -0.239454 0.000000 1.000000 0.000000 105 70 31
-0.200824 4.253375 -0.121896 0.000000 1.000000 0.000000 105 70 31
-0.083267 4.253375 -0.167579 0.000000 1.000000 0.000000 105 70 31
-0.200824 3.961393 -0.121896 0.362212 -0.000000 0.932096 105 70 31
-0.083267 3.961393 -0.167579 0.362212 -0.000000 0.932096 105 70 31
-0.083267 4.253375 -0.167579 0.362212 -0.000000 0.932096 105 70 31
-0.200824 4.253375 -0.121896 0.362212 -0.000000 0.932096 105 70 31
-0.246507 3.961393 -0.239454 -0.932096 0.000000 0.362212 105 70 31
-0.200824 3.961393 -0.121896 -0.932096 0.000000 0.362212 105 70 31
-0.200824 4.253375 -0.121896 -0.932096 0.000000 0.362212 105 70 31
-0.246507 4.253375 -0.239454 -0.932096 0.000000 0.362212 105 70 31
-0.128949 3.961393 -0.285137 -0.362212 -0.000000 -0.932096 105 70 31
-0.246507 3.961393 -0.239454 -0.362212 -0.000000 -0.932096 105 70 31
-0.246507 4.253375 -0.239454 -0.362212 -0.000000 -0.932096 105 70 31
-0.128949 4.253375 -0.285137 -0.362212 -0.000000 -0.932096 105 70 31
-0.083267 3.961393 -0.167579 0.932096 -0.000000 -0.362212 105 70 31
-0.128949 3.961393 -0.285137 0.932096 -0.000000 -0.362212 105 70 31
-0.128949 4.253375 -0.285137 0.932096 -0.000000 -0.362212 105 70 31
-0.083267 4.253375 -0.167579 0.932096 -0.000000 -0.362212 105 70 31
3 0 1 2
3 3 0 2
3 4 5 6
3 7 4 6
3 8 9 10
3 11 8 10
3 12 13 14
3 15 12 14
3 16 17 18
3 19 16 18
3 20 21 22
3 23 20 22
3 24 25 26
3 27 28 29
3 30 28 27
3 31 30 27
3 32 30 31
3 33 32 31
3 34 32 33
3 29 34 33
3 35 36 37
3 38 35 37
3 39 35 38
3 40 39 38
3 41 39 40
3 42 41 40
3 36 41 42
3 37 36 42
3 43 44 45
3 46 43 45
3 47 43 46
3 48 47 46
3 49 47 48
3 50 49 48
3 44 49 50
3 45 44 50
3 51 52 53
3 54 51 53
3 55 51 54
3 56 55 54
3 57 55 56
3 58 57 56
3 52 57 58
3 53 52 58
3 59 60 61
3 62 59 61
3 63 59 62
3 64 63 62
3 65 63 64
3 66 65 64
3 60 65 66
3 61 60 66
3 67 68 69
3 70 67 69
3 71 67 70
3 72 71 70
3 73 71 72
3 74 73 72
3 74 68 73
3 74 69 68
3 75 76 77
3 78 79 80
3 81 82 83
3 84 81 83
3 85 86 87
3 88 85 87
3 89 90 91
3 92 93 94
3 95 96 97
3 98 95 97
3 99 100 101
3 102 99 101
3 103 104 105
3 106 103 105
3 107 108 109
3 110 111 112
3 113 114 115
3 116 113 115
3 117 118 119
3 120 117 119
3 121 122 123
3 124 125 126
3 127 128 129
3 130 127 129
3 131 132 133
3 134 131 133
3 135 136 137
3 138 139 140
3 141 142 143
3 144 141 143
3 145 146 147
3 148 145 147
3 149 150 151
3 152 153 154
3 155 156 157
3 158 155 157
3 159 160 161
3 162 159 161
3 163 164 165
3 166 163 165
3 167 168 169
3 170 171 172
3 173 174 175
3 176 177 178
3 179 180 181
3 182 183 184
3 185 186 187
3 188 189 190
3 191 192 193
3 194 191 193
3 195 196 197
3 198 199 200
3 201 202 203
3 204 201 203
3 205 206 207
3 208 205 207
3 209 210 211
3 212 209 211
3 213 214 215
3 216 213 215
3 217 218 219
3 220 217 219
3 221 222 223
3 224 221 223
3 225 226 227
3 228 225 227
3 229 230 231
3 232 233 234
3 235 236 237
3 238 235 237
3 239 240 241
3 242 243 244
3 245 246 247
3 248 249 250
3 251 252 253
3 254 251 253
3 255 256 257
3 258 259 260
3 261 262 263
3 264 265 266
3 267 268 269
3 270 267 269
3 271 272 273
3 274 275 276
3 277 278 279
3 280 277 279
3 281 282 283
3 284 281 283
3 285 286 287
3 288 289 290
4 291 292 293 294
4 295 296 297 298
4 299 300 301 302
4 303 304 305 306
4 307 308 309 310
4 311 312 313 314
4 315 316 317 318
4 319 320 321 322
4 323 324 325 326
4 327 328 329 330
4 331 332 333 334
4 335 336 337 338
4 339 340 341 342
4 343 344 345 346
4 347 348 349 350
4 351 352 353 354
4 355 356 357 358
4 359 360 361 362
4 363 364 365 366
4 367 368 369 370
4 371 372 373 374
4 375 376 377 378
4 379 380 381 382
4 383 384 385 386
4 387 388 389 390
4 391 392 393 394
4 395 396 397 398
4 399 400 401 402
4 403 404 405 406
4 407 408 409 410
4 411 412 413 414
4 415 416 417 418
4 419 420 421 422
4 423 424 425 426
4 427 428 429 430
4 431 432 433 434
4 435 436 437 438
4 439 440 441 442
4 443 444 445 446
4 447 448 449 450
4 451 452 453 454
4 455 456 457 458
4 459 460 461 462
4 463 464 465 466
4 467 468 469 470
4 471 472 473 474
4 475 476 477 478
4 479 480 481 482
4 483 484 485 486
4 487 488 489 490
4 491 492 493 494
4 495 496 497 498
4 499 500 501 502
4 503 504 505 506
4 507 508 509 510
4 511 512 513 514
4 515 516 517 518
4 519 520 521 522
4 523 524 525 526
4 527 528 529 530
