ply
format ascii 1.0
comment Created by Blender 2.73 (sub 0) - www.blender.org, source file: 'normal_floor.blend'
element vertex 246
property float x
property float y
property float z
property float nx
property float ny
property float nz
property uchar red
property uchar green
property uchar blue
element face 84
property list uchar uint vertex_indices
end_header
-0.630304 1.102098 0.615100 0.333663 0.907287 0.255930 58 54 48
-0.589090 1.093401 0.592199 0.333663 0.907287 0.255930 58 54 48
-0.604177 1.099509 0.590214 0.333663 0.907287 0.255930 58 54 48
-0.685771 0.793516 0.585441 -0.292929 -0.955565 0.032988 255 255 255
-0.845416 0.842895 0.598187 -0.292929 -0.955565 0.032988 255 255 255
-0.696724 0.790435 0.398947 -0.292929 -0.955565 0.032988 255 255 255
-0.758267 0.817185 0.627305 -0.292930 -0.955564 0.032991 255 255 255
-0.827323 0.838393 0.628438 -0.292930 -0.955564 0.032991 255 255 255
-0.845416 0.842895 0.598187 -0.292930 -0.955564 0.032991 255 255 255
-0.685771 0.793516 0.585441 -0.292929 -0.955565 0.032987 255 255 255
-0.758267 0.817185 0.627305 -0.292929 -0.955565 0.032987 255 255 255
-0.845416 0.842895 0.598187 -0.292929 -0.955565 0.032987 255 255 255
-0.553157 1.019451 0.460482 0.687165 -0.012321 -0.726397 58 54 48
-0.702825 1.006511 0.319117 0.687165 -0.012321 -0.726397 58 54 48
-0.676314 1.025595 0.343872 0.687165 -0.012321 -0.726397 58 54 48
-0.641676 0.841166 0.320391 -0.716239 -0.269845 -0.643573 58 54 48
-0.687771 0.841940 0.371367 -0.716239 -0.269845 -0.643573 58 54 48
-0.702825 1.006511 0.319117 -0.716239 -0.269845 -0.643573 58 54 48
-0.553157 1.019451 0.460482 0.779265 0.099312 -0.618775 58 54 48
-0.507851 0.939443 0.504698 0.779265 0.099312 -0.618775 58 54 48
-0.641676 0.841166 0.320391 0.779265 0.099312 -0.618775 58 54 48
-0.553157 1.019451 0.460482 0.656153 0.237146 -0.716397 58 54 48
-0.641676 0.841166 0.320391 0.656153 0.237146 -0.716397 58 54 48
-0.702825 1.006511 0.319117 0.656153 0.237146 -0.716397 58 54 48
-0.758267 0.817185 0.627305 -0.153358 -0.543433 0.825325 58 54 48
-0.791660 0.867074 0.653950 -0.153358 -0.543433 0.825325 58 54 48
-0.827323 0.838393 0.628438 -0.153358 -0.543433 0.825325 58 54 48
-0.687771 0.841940 0.371367 -0.741716 -0.020739 -0.670393 58 54 48
-0.641676 0.841166 0.320391 -0.741716 -0.020739 -0.670393 58 54 48
-0.673976 0.810064 0.357090 -0.741716 -0.020739 -0.670393 58 54 48
-0.543063 1.058964 0.561955 0.895729 0.376880 -0.235862 58 54 48
-0.504697 0.941515 0.519987 0.895729 0.376880 -0.235862 58 54 48
-0.507851 0.939443 0.504698 0.895729 0.376880 -0.235862 58 54 48
-0.553157 1.019451 0.460482 0.895729 0.376880 -0.235862 58 54 48
-0.504697 0.941515 0.519987 0.607590 -0.794052 -0.017760 58 54 48
-0.641676 0.841166 0.320391 0.607590 -0.794052 -0.017760 58 54 48
-0.507851 0.939443 0.504698 0.607590 -0.794052 -0.017760 58 54 48
-0.696724 0.790435 0.398947 0.743871 -0.661686 0.093954 58 54 48
-0.673976 0.810064 0.357090 0.743871 -0.661686 0.093954 58 54 48
-0.641676 0.841166 0.320391 0.743871 -0.661686 0.093954 58 54 48
-0.504697 0.941515 0.519987 0.627451 -0.778286 -0.023994 58 54 48
-0.685771 0.793516 0.585441 0.627451 -0.778286 -0.023994 58 54 48
-0.696724 0.790435 0.398947 0.627451 -0.778286 -0.023994 58 54 48
-0.504697 0.941515 0.519987 0.636976 -0.769234 -0.050404 58 54 48
-0.696724 0.790435 0.398947 0.636976 -0.769234 -0.050404 58 54 48
-0.641676 0.841166 0.320391 0.636976 -0.769234 -0.050404 58 54 48
-0.696724 0.790435 0.398947 -0.843651 -0.132035 -0.520403 58 54 48
-0.687771 0.841940 0.371367 -0.843651 -0.132035 -0.520403 58 54 48
-0.673976 0.810064 0.357090 -0.843651 -0.132035 -0.520403 58 54 48
-0.805246 1.079754 0.441089 -0.809810 -0.243539 -0.533758 58 54 48
-0.702825 1.006511 0.319117 -0.809810 -0.243539 -0.533758 58 54 48
-0.687771 0.841940 0.371367 -0.809810 -0.243539 -0.533758 58 54 48
-0.696724 0.790435 0.398947 -0.808412 -0.223942 -0.544352 58 54 48
-0.845416 0.842895 0.598187 -0.808412 -0.223942 -0.544352 58 54 48
-0.805246 1.079754 0.441089 -0.808412 -0.223942 -0.544352 58 54 48
-0.696724 0.790435 0.398947 -0.763423 -0.196746 -0.615205 58 54 48
-0.805246 1.079754 0.441089 -0.763423 -0.196746 -0.615205 58 54 48
-0.687771 0.841940 0.371367 -0.763423 -0.196746 -0.615205 58 54 48
-0.676314 1.025595 0.343872 -0.073707 0.826450 -0.558164 58 54 48
-0.775437 1.099442 0.466305 -0.073707 0.826450 -0.558164 58 54 48
-0.724911 1.096651 0.455499 -0.073707 0.826450 -0.558164 58 54 48
-0.702825 1.006511 0.319117 -0.073705 0.826451 -0.558164 58 54 48
-0.805246 1.079754 0.441089 -0.073705 0.826451 -0.558164 58 54 48
-0.775437 1.099442 0.466305 -0.073705 0.826451 -0.558164 58 54 48
-0.676314 1.025595 0.343872 -0.073706 0.826451 -0.558164 58 54 48
-0.702825 1.006511 0.319117 -0.073706 0.826451 -0.558164 58 54 48
-0.775437 1.099442 0.466305 -0.073706 0.826451 -0.558164 58 54 48
-0.630304 1.102098 0.615100 0.042442 0.997344 -0.059197 58 54 48
-0.775437 1.099442 0.466305 0.042442 0.997344 -0.059197 58 54 48
-0.659011 1.104222 0.630308 0.042442 0.997344 -0.059197 58 54 48
-0.604177 1.099509 0.590214 0.042440 0.997344 -0.059195 58 54 48
-0.724911 1.096651 0.455499 0.042440 0.997344 -0.059195 58 54 48
-0.775437 1.099442 0.466305 0.042440 0.997344 -0.059195 58 54 48
-0.630304 1.102098 0.615100 0.042441 0.997344 -0.059195 58 54 48
-0.604177 1.099509 0.590214 0.042441 0.997344 -0.059195 58 54 48
-0.775437 1.099442 0.466305 0.042441 0.997344 -0.059195 58 54 48
-0.553157 1.019451 0.460482 0.390126 0.844221 -0.367549 58 54 48
-0.589090 1.093401 0.592199 0.390126 0.844221 -0.367549 58 54 48
-0.543063 1.058964 0.561955 0.390126 0.844221 -0.367549 58 54 48
-0.724911 1.096651 0.455499 0.390128 0.844219 -0.367551 58 54 48
-0.604177 1.099509 0.590214 0.390128 0.844219 -0.367551 58 54 48
-0.589090 1.093401 0.592199 0.390128 0.844219 -0.367551 58 54 48
-0.676314 1.025595 0.343872 0.390126 0.844221 -0.367549 58 54 48
-0.724911 1.096651 0.455499 0.390126 0.844221 -0.367549 58 54 48
-0.827323 0.838393 0.628438 -0.730678 0.459079 0.505328 58 54 48
-0.805246 1.079754 0.441089 -0.730678 0.459079 0.505328 58 54 48
-0.845416 0.842895 0.598187 -0.730678 0.459079 0.505328 58 54 48
-0.659011 1.104222 0.630308 -0.730677 0.459080 0.505328 58 54 48
-0.775437 1.099442 0.466305 -0.730677 0.459080 0.505328 58 54 48
-0.805246 1.079754 0.441089 -0.730677 0.459080 0.505328 58 54 48
-0.827323 0.838393 0.628438 -0.730677 0.459079 0.505329 58 54 48
-0.791660 0.867074 0.653950 -0.730677 0.459079 0.505329 58 54 48
-0.659011 1.104222 0.630308 -0.730677 0.459079 0.505329 58 54 48
-0.805246 1.079754 0.441089 -0.730677 0.459079 0.505329 58 54 48
-0.791660 0.867074 0.653950 0.452099 -0.165505 0.876478 58 54 48
-0.630304 1.102098 0.615100 0.452099 -0.165505 0.876478 58 54 48
-0.659011 1.104222 0.630308 0.452099 -0.165505 0.876478 58 54 48
-0.543063 1.058964 0.561955 0.452099 -0.165505 0.876479 58 54 48
-0.589090 1.093401 0.592199 0.452099 -0.165505 0.876479 58 54 48
-0.630304 1.102098 0.615100 0.452099 -0.165505 0.876479 58 54 48
-0.685771 0.793516 0.585441 0.452099 -0.165505 0.876478 58 54 48
-0.504697 0.941515 0.519987 0.452099 -0.165505 0.876478 58 54 48
-0.543063 1.058964 0.561955 0.452099 -0.165505 0.876478 58 54 48
-0.791660 0.867074 0.653950 0.452098 -0.165506 0.876479 58 54 48
-0.758267 0.817185 0.627305 0.452098 -0.165506 0.876479 58 54 48
-0.685771 0.793516 0.585441 0.452098 -0.165506 0.876479 58 54 48
-0.791660 0.867074 0.653950 0.452099 -0.165505 0.876479 58 54 48
-0.685771 0.793516 0.585441 0.452099 -0.165505 0.876479 58 54 48
1.000000 -1.000000 1.000000 -0.000000 -1.000000 0.000000 77 71 63
-1.000000 -1.000000 1.000000 -0.000000 -1.000000 0.000000 77 71 63
-1.000000 -1.000000 -1.000000 -0.000000 -1.000000 0.000000 77 71 63
1.000001 -1.000000 -1.000000 -0.000000 -1.000000 0.000000 77 71 63
1.000000 1.000000 1.000000 0.000000 1.000000 -0.000000 77 71 63
1.000000 1.000000 -1.000000 0.000000 1.000000 -0.000000 77 71 63
-0.999999 1.000000 -1.000000 0.000000 1.000000 -0.000000 77 71 63
-1.000001 1.000000 0.999999 0.000000 1.000000 -0.000000 77 71 63
1.000000 -1.000000 1.000000 -0.000000 0.000000 1.000000 77 71 63
1.000000 1.000000 1.000000 -0.000000 0.000000 1.000000 77 71 63
-1.000001 1.000000 0.999999 -0.000000 0.000000 1.000000 77 71 63
-1.000000 -1.000000 1.000000 -0.000000 0.000000 1.000000 77 71 63
-1.000000 -1.000000 1.000000 -1.000000 -0.000000 -0.000000 77 71 63
-1.000001 1.000000 0.999999 -1.000000 -0.000000 -0.000000 77 71 63
-0.999999 1.000000 -1.000000 -1.000000 -0.000000 -0.000000 77 71 63
-1.000000 -1.000000 -1.000000 -1.000000 -0.000000 -0.000000 77 71 63
-1.000000 -1.000000 -1.000000 0.000000 -0.000000 -1.000000 77 71 63
-0.999999 1.000000 -1.000000 0.000000 -0.000000 -1.000000 77 71 63
1.000000 1.000000 -1.000000 0.000000 -0.000000 -1.000000 77 71 63
1.000001 -1.000000 -1.000000 0.000000 -0.000000 -1.000000 77 71 63
1.000000 1.000000 1.000000 1.000000 0.000000 0.000000 77 71 63
1.000000 -1.000000 1.000000 1.000000 0.000000 0.000000 77 71 63
1.000001 -1.000000 -1.000000 1.000000 0.000000 0.000000 77 71 63
1.000000 1.000000 -1.000000 1.000000 0.000000 0.000000 77 71 63
0.657842 0.980982 -0.236162 -0.052989 -0.236270 0.970242 58 54 48
0.612567 0.996701 -0.234807 -0.052989 -0.236270 0.970242 58 54 48
0.621775 0.983412 -0.237540 -0.052989 -0.236270 0.970242 58 54 48
0.675805 1.125315 -0.515491 0.229585 0.448328 -0.863882 58 54 48
0.797211 1.012777 -0.541630 0.229585 0.448328 -0.863882 58 54 48
0.551020 1.018241 -0.604222 0.229585 0.448328 -0.863882 58 54 48
0.756567 1.093340 -0.510622 0.229588 0.448328 -0.863882 58 54 48
0.805970 1.042338 -0.523961 0.229588 0.448328 -0.863882 58 54 48
0.797211 1.012777 -0.541630 0.229588 0.448328 -0.863882 58 54 48
0.675805 1.125315 -0.515491 0.229583 0.448327 -0.863884 58 54 48
0.756567 1.093340 -0.510622 0.229583 0.448327 -0.863884 58 54 48
0.797211 1.012777 -0.541630 0.229583 0.448327 -0.863884 58 54 48
0.493702 0.989960 -0.334480 -0.999659 -0.010387 -0.023943 58 54 48
0.498598 0.836649 -0.472407 -0.999659 -0.010387 -0.023943 58 54 48
0.497528 0.853223 -0.434937 -0.999659 -0.010387 -0.023943 58 54 48
0.456469 0.974064 -0.574496 0.046831 -0.586414 -0.808657 58 54 48
0.525125 0.976034 -0.571949 0.046831 -0.586414 -0.808657 58 54 48
0.498598 0.836649 -0.472407 0.046831 -0.586414 -0.808657 58 54 48
0.493702 0.989960 -0.334480 -0.988016 0.030971 0.151215 58 54 48
0.493231 1.089259 -0.357896 -0.988016 0.030971 0.151215 58 54 48
0.456469 0.974064 -0.574496 -0.988016 0.030971 0.151215 58 54 48
0.493702 0.989960 -0.334480 -0.970731 -0.177025 0.162309 58 54 48
0.456469 0.974064 -0.574496 -0.970731 -0.177025 0.162309 58 54 48
0.498598 0.836649 -0.472407 -0.970731 -0.177025 0.162309 58 54 48
0.756567 1.093340 -0.510622 0.694277 0.707305 -0.133042 58 54 48
0.798996 1.058468 -0.474600 0.694277 0.707305 -0.133042 58 54 48
0.805970 1.042338 -0.523961 0.694277 0.707305 -0.133042 58 54 48
0.525125 0.976034 -0.571949 0.045705 -0.770058 -0.636334 58 54 48
0.456469 0.974064 -0.574496 0.045705 -0.770058 -0.636334 58 54 48
0.505273 0.995631 -0.597089 0.045705 -0.770058 -0.636334 58 54 48
0.558689 1.027030 -0.254715 -0.797937 0.134752 0.587484 58 54 48
0.501873 1.098165 -0.348201 -0.797937 0.134752 0.587484 58 54 48
0.493231 1.089259 -0.357896 -0.797937 0.134752 0.587484 58 54 48
0.493702 0.989960 -0.334480 -0.797937 0.134752 0.587484 58 54 48
0.501873 1.098165 -0.348201 -0.440226 0.821579 -0.362228 58 54 48
0.456469 0.974064 -0.574496 -0.440226 0.821579 -0.362228 58 54 48
0.493231 1.089259 -0.357896 -0.440226 0.821579 -0.362228 58 54 48
0.551020 1.018241 -0.604222 -0.456748 0.876937 -0.149542 58 54 48
0.505273 0.995631 -0.597089 -0.456748 0.876937 -0.149542 58 54 48
0.456469 0.974064 -0.574496 -0.456748 0.876937 -0.149542 58 54 48
0.501873 1.098165 -0.348201 -0.458616 0.819418 -0.343839 58 54 48
0.675805 1.125315 -0.515491 -0.458616 0.819418 -0.343839 58 54 48
0.551020 1.018241 -0.604222 -0.458616 0.819418 -0.343839 58 54 48
0.501873 1.098165 -0.348201 -0.484081 0.804533 -0.344081 58 54 48
0.551020 1.018241 -0.604222 -0.484081 0.804533 -0.344081 58 54 48
0.456469 0.974064 -0.574496 -0.484081 0.804533 -0.344081 58 54 48
0.551020 1.018241 -0.604222 0.224002 -0.674983 -0.703009 58 54 48
0.525125 0.976034 -0.571949 0.224002 -0.674983 -0.703009 58 54 48
0.505273 0.995631 -0.597089 0.224002 -0.674983 -0.703009 58 54 48
0.657332 0.801424 -0.406873 0.190697 -0.594275 -0.781327 58 54 48
0.498598 0.836649 -0.472407 0.190697 -0.594275 -0.781327 58 54 48
0.525125 0.976034 -0.571949 0.190697 -0.594275 -0.781327 58 54 48
0.551020 1.018241 -0.604222 0.182188 -0.611508 -0.769977 58 54 48
0.797211 1.012777 -0.541630 0.182188 -0.611508 -0.769977 58 54 48
0.657332 0.801424 -0.406873 0.182188 -0.611508 -0.769977 58 54 48
0.551020 1.018241 -0.604222 0.100190 -0.642425 -0.759771 58 54 48
0.657332 0.801424 -0.406873 0.100190 -0.642425 -0.759771 58 54 48
0.525125 0.976034 -0.571949 0.100190 -0.642425 -0.759771 58 54 48
0.497528 0.853223 -0.434937 -0.344675 -0.862090 0.371484 58 54 48
0.654268 0.819713 -0.367274 -0.344675 -0.862090 0.371484 58 54 48
0.611033 0.843625 -0.351896 -0.344675 -0.862090 0.371484 58 54 48
0.498598 0.836649 -0.472407 -0.344675 -0.862090 0.371483 58 54 48
0.657332 0.801424 -0.406873 -0.344675 -0.862090 0.371483 58 54 48
0.654268 0.819713 -0.367274 -0.344675 -0.862090 0.371483 58 54 48
0.498598 0.836649 -0.472407 -0.344675 -0.862090 0.371484 58 54 48
0.657842 0.980982 -0.236162 -0.071925 -0.628230 0.774696 58 54 48
0.654268 0.819713 -0.367274 -0.071925 -0.628230 0.774696 58 54 48
0.688849 0.972066 -0.240514 -0.071925 -0.628230 0.774696 58 54 48
0.621775 0.983412 -0.237540 -0.071925 -0.628231 0.774695 58 54 48
0.611033 0.843625 -0.351896 -0.071925 -0.628231 0.774695 58 54 48
0.654268 0.819713 -0.367274 -0.071925 -0.628231 0.774695 58 54 48
0.657842 0.980982 -0.236162 -0.071922 -0.628231 0.774696 58 54 48
0.621775 0.983412 -0.237540 -0.071922 -0.628231 0.774696 58 54 48
0.654268 0.819713 -0.367274 -0.071922 -0.628231 0.774696 58 54 48
0.493702 0.989960 -0.334480 -0.535675 -0.509641 0.673289 58 54 48
0.612567 0.996701 -0.234807 -0.535675 -0.509641 0.673289 58 54 48
0.558689 1.027030 -0.254715 -0.535675 -0.509641 0.673289 58 54 48
0.611033 0.843625 -0.351896 -0.535681 -0.509637 0.673288 58 54 48
0.621775 0.983412 -0.237540 -0.535681 -0.509637 0.673288 58 54 48
0.612567 0.996701 -0.234807 -0.535681 -0.509637 0.673288 58 54 48
0.493702 0.989960 -0.334480 -0.535675 -0.509639 0.673290 58 54 48
0.497528 0.853223 -0.434937 -0.535675 -0.509639 0.673290 58 54 48
0.611033 0.843625 -0.351896 -0.535675 -0.509639 0.673290 58 54 48
0.493702 0.989960 -0.334480 -0.535676 -0.509639 0.673290 58 54 48
0.611033 0.843625 -0.351896 -0.535676 -0.509639 0.673290 58 54 48
0.612567 0.996701 -0.234807 -0.535676 -0.509639 0.673290 58 54 48
0.805970 1.042338 -0.523961 0.873224 -0.413179 0.258384 58 54 48
0.657332 0.801424 -0.406873 0.873224 -0.413179 0.258384 63 59 53
0.797211 1.012777 -0.541630 0.873224 -0.413179 0.258384 58 54 48
0.688849 0.972066 -0.240514 0.873222 -0.413183 0.258387 58 54 48
0.654268 0.819713 -0.367274 0.873222 -0.413183 0.258387 63 59 53
0.657332 0.801424 -0.406873 0.873222 -0.413183 0.258387 63 59 53
0.805970 1.042338 -0.523961 0.873223 -0.413182 0.258382 58 54 48
0.798996 1.058468 -0.474600 0.873223 -0.413182 0.258382 58 54 48
0.688849 0.972066 -0.240514 0.873223 -0.413182 0.258382 58 54 48
0.805970 1.042338 -0.523961 0.873224 -0.413180 0.258383 58 54 48
0.688849 0.972066 -0.240514 0.873224 -0.413180 0.258383 58 54 48
0.657332 0.801424 -0.406873 0.873224 -0.413180 0.258383 63 59 53
0.798996 1.058468 -0.474600 0.304525 0.838087 0.452632 58 54 48
0.657842 0.980982 -0.236162 0.304525 0.838087 0.452632 58 54 48
0.688849 0.972066 -0.240514 0.304525 0.838087 0.452632 58 54 48
0.558689 1.027030 -0.254715 0.304526 0.838085 0.452635 58 54 48
0.612567 0.996701 -0.234807 0.304526 0.838085 0.452635 58 54 48
0.657842 0.980982 -0.236162 0.304526 0.838085 0.452635 58 54 48
0.675805 1.125315 -0.515491 0.304526 0.838086 0.452632 58 54 48
0.501873 1.098165 -0.348201 0.304526 0.838086 0.452632 58 54 48
0.558689 1.027030 -0.254715 0.304526 0.838086 0.452632 58 54 48
0.798996 1.058468 -0.474600 0.304525 0.838085 0.452634 58 54 48
0.756567 1.093340 -0.510622 0.304525 0.838085 0.452634 58 54 48
0.675805 1.125315 -0.515491 0.304525 0.838085 0.452634 58 54 48
0.798996 1.058468 -0.474600 0.304527 0.838085 0.452632 58 54 48
0.558689 1.027030 -0.254715 0.304527 0.838085 0.452632 58 54 48
0.657842 0.980982 -0.236162 0.304527 0.838085 0.452632 58 54 48
0.798996 1.058468 -0.474600 0.304526 0.838086 0.452632 58 54 48
3 0 1 2
3 3 4 5
3 6 7 8
3 9 10 11
3 12 13 14
3 15 16 17
3 18 19 20
3 21 22 23
3 24 25 26
3 27 28 29
4 30 31 32 33
3 34 35 36
3 37 38 39
3 40 41 42
3 43 44 45
3 46 47 48
3 49 50 51
3 52 53 54
3 55 56 57
3 58 59 60
3 61 62 63
3 64 65 66
3 67 68 69
3 70 71 72
3 73 74 75
3 76 77 78
3 79 80 81
3 76 82 83
3 76 83 77
3 84 85 86
3 87 88 89
3 90 91 92
3 90 92 93
3 94 95 96
3 97 98 99
3 100 101 102
3 103 104 105
3 106 97 99
3 106 107 97
4 108 109 110 111
4 112 113 114 115
4 116 117 118 119
4 120 121 122 123
4 124 125 126 127
4 128 129 130 131
3 132 133 134
3 135 136 137
3 138 139 140
3 141 142 143
3 144 145 146
3 147 148 149
3 150 151 152
3 153 154 155
3 156 157 158
3 159 160 161
4 162 163 164 165
3 166 167 168
3 169 170 171
3 172 173 174
3 175 176 177
3 178 179 180
3 181 182 183
3 184 185 186
3 187 188 189
3 190 191 192
3 193 194 195
3 190 196 191
3 197 198 199
3 200 201 202
3 203 204 205
3 206 207 208
3 209 210 211
3 212 213 214
3 215 216 217
3 218 219 220
3 221 222 223
3 224 225 226
3 227 228 229
3 230 231 232
3 233 234 235
3 236 237 238
3 239 240 241
3 242 243 244
3 245 236 238
