ply
format ascii 1.0
comment Created by Blender 2.73 (sub 0) - www.blender.org, source file: 'grass_bush.blend'
element vertex 174
property float x
property float y
property float z
property float nx
property float ny
property float nz
property uchar red
property uchar green
property uchar blue
element face 56
property list uchar uint vertex_indices
end_header
0.665437 -0.279167 -0.068197 -0.065858 -0.997159 0.036570 34 177 28
-0.079069 -0.200223 0.743607 -0.065858 -0.997159 0.036570 34 177 28
-0.752311 -0.200225 -0.468887 -0.065858 -0.997159 0.036570 34 177 28
-2.047039 0.734900 0.917208 -0.160092 -0.495414 0.853777 34 177 28
-0.079069 -0.200223 0.743607 -0.160092 -0.495414 0.853777 34 177 28
0.684265 0.734903 1.429358 -0.160092 -0.495414 0.853777 34 177 28
-2.047039 0.734900 0.917208 -0.177621 -0.266740 0.947259 34 177 28
0.684265 0.734903 1.429358 -0.177621 -0.266740 0.947259 34 177 28
-0.539193 2.375719 1.661986 -0.177621 -0.266740 0.947259 34 177 28
0.381055 1.352002 -1.515275 -0.157941 -0.278810 -0.947269 34 177 28
-1.446183 0.730708 -1.027748 -0.157941 -0.278810 -0.947269 34 177 28
-0.923985 1.863860 -1.448337 -0.157941 -0.278810 -0.947269 34 177 28
2.360673 0.734895 0.067567 0.656096 -0.398346 -0.640983 34 177 28
1.288046 0.730708 -1.027748 0.656096 -0.398346 -0.640983 34 177 28
2.132981 1.863860 -0.867102 0.656096 -0.398346 -0.640983 34 177 28
0.684265 0.734903 1.429358 0.558621 -0.463720 0.687682 34 177 28
2.360673 0.734895 0.067567 0.558621 -0.463720 0.687682 34 177 28
2.132981 1.863860 1.013812 0.558621 -0.463720 0.687682 34 177 28
-2.047039 0.734900 0.917208 -0.305308 -0.146521 0.940914 34 177 28
-0.539193 2.375719 1.661986 -0.305308 -0.146521 0.940914 34 177 28
-2.291119 1.863860 1.013812 -0.305308 -0.146521 0.940914 34 177 28
2.360673 0.734895 0.067567 0.852840 -0.220045 -0.473545 34 177 28
2.132981 1.863860 -0.867102 0.852840 -0.220045 -0.473545 34 177 28
2.655176 1.863860 0.073355 0.852840 -0.220045 -0.473545 34 177 28
0.684265 0.734903 1.429358 0.386140 -0.161202 0.908246 34 177 28
2.132981 1.863860 1.013812 0.386140 -0.161202 0.908246 34 177 28
0.765848 1.863860 1.595048 0.386140 -0.161202 0.908246 34 177 28
-2.518810 2.992826 0.079144 -0.548720 0.642488 0.534898 34 177 28
-1.446183 2.997013 1.174459 -0.548720 0.642488 0.534898 34 177 28
-1.446179 3.697330 0.333284 -0.548720 0.642488 0.534898 34 177 28
-0.842403 2.992816 -1.282647 -0.458773 0.685976 -0.564769 34 177 28
-2.518810 2.992826 0.079144 -0.458773 0.685976 -0.564769 34 177 28
-0.539195 4.006887 -0.297242 -0.458773 0.685976 -0.564769 34 177 28
1.888901 2.992819 -0.770497 0.163401 0.462512 -0.871426 34 177 28
-0.842403 2.992816 -1.282647 0.163401 0.462512 -0.871426 34 177 28
0.765844 3.697330 -0.607161 0.163401 0.462512 -0.871426 34 177 28
0.594179 3.440297 1.201326 0.178868 0.957399 0.226702 34 177 28
1.900546 3.374199 0.449740 0.178868 0.957399 0.226702 34 177 28
-0.539195 4.006887 -0.297242 0.178868 0.957399 0.226702 34 177 28
1.900546 3.374199 0.449740 0.239484 0.970097 0.039478 34 177 28
0.765844 3.697330 -0.607161 0.239484 0.970097 0.039478 34 177 28
-0.539195 4.006887 -0.297242 0.239484 0.970097 0.039478 34 177 28
1.900546 3.374199 0.449740 0.484411 0.833680 -0.265186 34 177 28
1.888901 2.992819 -0.770497 0.484411 0.833680 -0.265186 34 177 28
0.765844 3.697330 -0.607161 0.484411 0.833680 -0.265186 34 177 28
0.765844 3.697330 -0.607161 -0.004671 0.697607 -0.716465 34 177 28
-0.842403 2.992816 -1.282647 -0.004671 0.697607 -0.716465 34 177 28
-0.539195 4.006887 -0.297242 -0.004671 0.697607 -0.716465 34 177 28
-0.539195 4.006887 -0.297242 -0.479335 0.831305 -0.281371 34 177 28
-2.518810 2.992826 0.079144 -0.479335 0.831305 -0.281371 34 177 28
-1.446179 3.697330 0.333284 -0.479335 0.831305 -0.281371 34 177 28
-1.446179 3.697330 0.333284 -0.047410 0.921936 0.384429 34 177 28
0.594179 3.440297 1.201326 -0.047410 0.921936 0.384429 34 177 28
-0.539195 4.006887 -0.297242 -0.047410 0.921936 0.384429 34 177 28
-1.446179 3.697330 0.333284 -0.172755 0.756964 0.630207 34 177 28
-1.446183 2.997013 1.174459 -0.172755 0.756964 0.630207 34 177 28
0.594179 3.440297 1.201326 -0.172755 0.756964 0.630207 34 177 28
-1.446183 2.997013 1.174459 -0.119683 0.498853 0.858383 34 177 28
-0.539193 2.375719 1.661986 -0.119683 0.498853 0.858383 34 177 28
0.594179 3.440297 1.201326 -0.119683 0.498853 0.858383 34 177 28
0.765848 1.863860 1.595048 0.148961 0.254846 0.955439 34 177 28
0.594179 3.440297 1.201326 0.148961 0.254846 0.955439 34 177 28
-0.539193 2.375719 1.661986 0.148961 0.254846 0.955439 34 177 28
0.765848 1.863860 1.595048 0.377497 0.262869 0.887917 34 177 28
2.132981 1.863860 1.013812 0.377497 0.262869 0.887917 34 177 28
0.594179 3.440297 1.201326 0.377497 0.262869 0.887917 34 177 28
2.132981 1.863860 1.013812 0.477130 0.370974 0.796697 34 177 28
1.900546 3.374199 0.449740 0.477130 0.370974 0.796697 34 177 28
0.594179 3.440297 1.201326 0.477130 0.370974 0.796697 34 177 28
2.655176 1.863860 0.073355 0.867537 0.472309 -0.155898 34 177 28
1.888901 2.992819 -0.770497 0.867537 0.472309 -0.155898 34 177 28
1.900546 3.374199 0.449740 0.867537 0.472309 -0.155898 34 177 28
2.655176 1.863860 0.073355 0.851919 0.224662 -0.473034 34 177 28
2.132981 1.863860 -0.867102 0.851919 0.224662 -0.473034 34 177 28
1.888901 2.992819 -0.770497 0.851919 0.224662 -0.473034 34 177 28
0.381055 1.352002 -1.515275 0.177621 0.266741 -0.947259 34 177 28
-0.842403 2.992816 -1.282647 0.177621 0.266741 -0.947259 34 177 28
1.888901 2.992819 -0.770497 0.177621 0.266741 -0.947259 34 177 28
0.381055 1.352002 -1.515275 0.006034 0.144779 -0.989446 34 177 28
-0.923985 1.863860 -1.448337 0.006034 0.144779 -0.989446 34 177 28
-0.842403 2.992816 -1.282647 0.006034 0.144779 -0.989446 34 177 28
-2.291119 1.863860 -0.867102 -0.558620 0.463720 -0.687683 34 177 28
-2.518810 2.992826 0.079144 -0.558620 0.463720 -0.687683 34 177 28
-0.842403 2.992816 -1.282647 -0.558620 0.463720 -0.687683 34 177 28
-2.291119 1.863860 -0.867102 -0.858119 0.216972 -0.465355 34 177 28
-2.803199 1.351996 -0.161480 -0.858119 0.216972 -0.465355 34 177 28
-2.518810 2.992826 0.079144 -0.858119 0.216972 -0.465355 34 177 28
-2.291119 1.863860 1.013812 -0.656095 0.398346 0.640983 34 177 28
-1.446183 2.997013 1.174459 -0.656095 0.398346 0.640983 34 177 28
-2.518810 2.992826 0.079144 -0.656095 0.398346 0.640983 34 177 28
-2.291119 1.863860 1.013812 -0.382539 0.156138 0.910651 34 177 28
-0.539193 2.375719 1.661986 -0.382539 0.156138 0.910651 34 177 28
-1.446183 2.997013 1.174459 -0.382539 0.156138 0.910651 34 177 28
2.132981 1.863860 1.013812 0.833673 0.301181 0.462903 34 177 28
2.655176 1.863860 0.073355 0.833673 0.301181 0.462903 34 177 28
1.900546 3.374199 0.449740 0.833673 0.301181 0.462903 34 177 28
2.132981 1.863860 1.013812 0.851920 -0.224659 0.473034 34 177 28
2.360673 0.734895 0.067567 0.851920 -0.224659 0.473034 34 177 28
2.655176 1.863860 0.073355 0.851920 -0.224659 0.473034 34 177 28
2.132981 1.863860 -0.867102 0.305308 0.146521 -0.940914 34 177 28
0.381055 1.352002 -1.515275 0.305308 0.146521 -0.940914 34 177 28
1.888901 2.992819 -0.770497 0.305308 0.146521 -0.940914 34 177 28
2.132981 1.863860 -0.867102 0.382539 -0.156138 -0.910651 34 177 28
1.288046 0.730708 -1.027748 0.382539 -0.156138 -0.910651 34 177 28
0.381055 1.352002 -1.515275 0.382539 -0.156138 -0.910651 34 177 28
-0.923985 1.863860 -1.448337 -0.386140 0.161202 -0.908246 34 177 28
-2.291119 1.863860 -0.867102 -0.386140 0.161202 -0.908246 34 177 28
-0.842403 2.992816 -1.282647 -0.386140 0.161202 -0.908246 34 177 28
-0.923985 1.863860 -1.448337 -0.386266 -0.159216 -0.908542 34 177 28
-1.446183 0.730708 -1.027748 -0.386266 -0.159216 -0.908542 34 177 28
-2.291119 1.863860 -0.867102 -0.386266 -0.159216 -0.908542 34 177 28
-1.446183 0.730708 -1.027748 -0.613284 -0.357439 -0.704358 34 177 28
-2.803199 1.351996 -0.161480 -0.613284 -0.357439 -0.704358 34 177 28
-2.291119 1.863860 -0.867102 -0.613284 -0.357439 -0.704358 34 177 28
-2.803199 1.351996 -0.161480 -0.927785 0.108449 0.357007 34 177 28
-2.291119 1.863860 1.013812 -0.927785 0.108449 0.357007 34 177 28
-2.518810 2.992826 0.079144 -0.927785 0.108449 0.357007 34 177 28
-2.803199 1.351996 -0.161480 -0.853661 -0.224764 0.469833 34 177 28
-2.047039 0.734900 0.917208 -0.853661 -0.224764 0.469833 34 177 28
-2.291119 1.863860 1.013812 -0.853661 -0.224764 0.469833 34 177 28
-0.539193 2.375719 1.661986 -0.006034 -0.144779 0.989446 34 177 28
0.684265 0.734903 1.429358 -0.006034 -0.144779 0.989446 34 177 28
0.765848 1.863860 1.595048 -0.006034 -0.144779 0.989446 34 177 28
-0.079069 -0.200223 0.743607 0.427547 -0.734971 0.526327 34 177 28
2.360673 0.734895 0.067567 0.427547 -0.734971 0.526327 34 177 28
0.684265 0.734903 1.429358 0.427547 -0.734971 0.526327 34 177 28
-0.079069 -0.200223 0.743607 0.426308 -0.775105 0.466342 34 177 28
0.665437 -0.279167 -0.068197 0.426308 -0.775105 0.466342 34 177 28
2.360673 0.734895 0.067567 0.426308 -0.775105 0.466342 34 177 28
0.665437 -0.279167 -0.068197 0.480934 -0.741316 -0.468138 34 177 28
1.288046 0.730708 -1.027748 0.480934 -0.741316 -0.468138 34 177 28
2.360673 0.734895 0.067567 0.480934 -0.741316 -0.468138 34 177 28
0.665437 -0.279167 -0.068197 0.148688 -0.727793 -0.669485 34 177 28
-0.752311 -0.200225 -0.468887 0.148688 -0.727793 -0.669485 34 177 28
1.288046 0.730708 -1.027748 0.148688 -0.727793 -0.669485 34 177 28
-0.752311 -0.200225 -0.468887 0.041116 -0.578967 -0.814314 34 177 28
0.381055 1.352002 -1.515275 0.041116 -0.578967 -0.814314 34 177 28
1.288046 0.730708 -1.027748 0.041116 -0.578967 -0.814314 34 177 28
-0.752311 -0.200225 -0.468887 -0.042134 -0.537141 -0.842439 34 177 28
-1.446183 0.730708 -1.027748 -0.042134 -0.537141 -0.842439 34 177 28
0.381055 1.352002 -1.515275 -0.042134 -0.537141 -0.842439 34 177 28
-0.752311 -0.200225 -0.468887 -0.586313 -0.690911 -0.422942 34 177 28
-2.803199 1.351996 -0.161480 -0.586313 -0.690911 -0.422942 34 177 28
-1.446183 0.730708 -1.027748 -0.586313 -0.690911 -0.422942 34 177 28
-0.752311 -0.200225 -0.468887 -0.606065 -0.794854 -0.029869 34 177 28
-2.047039 0.734900 0.917208 -0.606065 -0.794854 -0.029869 34 177 28
-2.803199 1.351996 -0.161480 -0.606065 -0.794854 -0.029869 34 177 28
-0.752311 -0.200225 -0.468887 -0.402202 -0.887896 0.223326 34 177 28
-0.079069 -0.200223 0.743607 -0.402202 -0.887896 0.223326 34 177 28
-2.047039 0.734900 0.917208 -0.402202 -0.887896 0.223326 34 177 28
1.000000 -1.000000 1.000000 0.000000 -1.000000 0.000000 64 112 28
-1.000000 -1.000000 1.000000 0.000000 -1.000000 0.000000 64 112 28
-1.000000 -1.000000 -1.000000 0.000000 -1.000000 0.000000 64 112 28
1.000000 -1.000000 -1.000000 0.000000 -1.000000 0.000000 64 112 28
0.999999 1.000000 1.000000 -0.000000 1.000000 0.000000 64 112 28
1.000000 1.000000 -1.000000 -0.000000 1.000000 0.000000 64 112 28
-1.000000 1.000000 -1.000000 -0.000000 1.000000 0.000000 64 112 28
-1.000000 1.000000 0.999999 -0.000000 1.000000 0.000000 64 112 28
1.000000 -1.000000 1.000000 -0.000000 0.000000 1.000000 64 112 28
0.999999 1.000000 1.000000 -0.000000 0.000000 1.000000 64 112 28
-1.000000 1.000000 0.999999 -0.000000 0.000000 1.000000 64 112 28
-1.000000 -1.000000 1.000000 -0.000000 0.000000 1.000000 64 112 28
-1.000000 -1.000000 1.000000 -1.000000 -0.000000 -0.000000 64 112 28
-1.000000 1.000000 0.999999 -1.000000 -0.000000 -0.000000 64 112 28
-1.000000 1.000000 -1.000000 -1.000000 -0.000000 -0.000000 64 112 28
-1.000000 -1.000000 -1.000000 -1.000000 -0.000000 -0.000000 64 112 28
-1.000000 -1.000000 -1.000000 0.000000 -0.000000 -1.000000 64 112 28
-1.000000 1.000000 -1.000000 0.000000 -0.000000 -1.000000 64 112 28
1.000000 1.000000 -1.000000 0.000000 -0.000000 -1.000000 64 112 28
1.000000 -1.000000 -1.000000 0.000000 -0.000000 -1.000000 64 112 28
0.999999 1.000000 1.000000 1.000000 0.000000 0.000000 64 112 28
1.000000 -1.000000 1.000000 1.000000 0.000000 0.000000 64 112 28
1.000000 -1.000000 -1.000000 1.000000 0.000000 0.000000 64 112 28
1.000000 1.000000 -1.000000 1.000000 0.000000 0.000000 64 112 28
3 0 1 2
3 3 4 5
3 6 7 8
3 9 10 11
3 12 13 14
3 15 16 17
3 18 19 20
3 21 22 23
3 24 25 26
3 27 28 29
3 30 31 32
3 33 34 35
3 36 37 38
3 39 40 41
3 42 43 44
3 45 46 47
3 48 49 50
3 51 52 53
3 54 55 56
3 57 58 59
3 60 61 62
3 63 64 65
3 66 67 68
3 69 70 71
3 72 73 74
3 75 76 77
3 78 79 80
3 81 82 83
3 84 85 86
3 87 88 89
3 90 91 92
3 93 94 95
3 96 97 98
3 99 100 101
3 102 103 104
3 105 106 107
3 108 109 110
3 111 112 113
3 114 115 116
3 117 118 119
3 120 121 122
3 123 124 125
3 126 127 128
3 129 130 131
3 132 133 134
3 135 136 137
3 138 139 140
3 141 142 143
3 144 145 146
3 147 148 149
4 150 151 152 153
4 154 155 156 157
4 158 159 160 161
4 162 163 164 165
4 166 167 168 169
4 170 171 172 173
