ply
format ascii 1.0
comment Created by Blender 2.73 (sub 0) - www.blender.org, source file: 'grass_stone.blend'
element vertex 380
property float x
property float y
property float z
property float nx
property float ny
property float nz
property uchar red
property uchar green
property uchar blue
element face 126
property list uchar uint vertex_indices
end_header
0.184248 0.855450 -0.954825 -0.536435 -0.464223 -0.704793 138 138 138
-1.323479 2.133279 -0.648919 -0.536435 -0.464223 -0.704793 138 138 138
-0.305805 1.874575 -1.253096 -0.536435 -0.464223 -0.704793 138 138 138
0.275470 -0.006271 -0.456670 -0.536435 -0.464223 -0.704793 138 138 138
-1.008817 0.671475 0.074424 -0.536435 -0.464223 -0.704793 138 138 138
0.184248 0.855450 -0.954825 -0.536436 -0.464223 -0.704793 138 138 138
0.275470 -0.006271 -0.456670 -0.536436 -0.464223 -0.704793 138 138 138
-1.323479 2.133279 -0.648919 -0.536436 -0.464223 -0.704793 138 138 138
-1.493227 3.795855 -0.194639 -0.430307 0.174843 0.885588 138 138 138
-1.029179 0.542684 0.673122 -0.430307 0.174843 0.885588 138 138 138
-0.259809 0.143451 1.125781 -0.430307 0.174843 0.885588 138 138 138
-0.411473 4.394259 0.212841 -0.430307 0.174843 0.885588 138 138 138
0.391586 -0.072876 -0.383989 -0.014266 -0.786756 -0.617099 255 255 255
0.392493 -0.073055 -0.383781 -0.014266 -0.786756 -0.617099 255 255 255
0.391874 -0.073188 -0.383597 -0.014266 -0.786756 -0.617099 255 255 255
0.392161 -0.073428 -0.383195 -0.068081 -0.933542 -0.351943 255 255 255
0.393069 -0.073597 -0.382924 -0.068081 -0.933542 -0.351943 255 255 255
0.392439 -0.073604 -0.382784 -0.068081 -0.933542 -0.351943 255 255 255
0.392161 -0.073428 -0.383195 -0.045095 -0.909291 -0.413710 255 255 255
0.392781 -0.073375 -0.383379 -0.045095 -0.909291 -0.413710 255 255 255
0.393069 -0.073597 -0.382924 -0.045095 -0.909291 -0.413710 255 255 255
0.393384 -0.073096 -0.383526 0.269121 -0.709419 -0.651383 255 255 255
0.394255 -0.073014 -0.383255 0.269121 -0.709419 -0.651383 255 255 255
0.393688 -0.073366 -0.383106 0.269121 -0.709419 -0.651383 255 255 255
1.593905 1.339633 0.769529 0.097706 0.223746 0.969738 138 138 138
0.218430 0.146116 1.183493 0.097706 0.223746 0.969738 138 138 138
1.260517 0.617785 0.969670 0.097706 0.223746 0.969738 138 138 138
0.715065 3.809550 0.288197 0.097706 0.223746 0.969738 138 138 138
0.060981 4.496674 0.195560 0.097706 0.223746 0.969738 138 138 138
0.393688 -0.073366 -0.383106 0.316489 -0.877258 -0.360906 255 255 255
0.394532 -0.073184 -0.382807 0.316489 -0.877258 -0.360906 255 255 255
0.393945 -0.073454 -0.382666 0.316489 -0.877258 -0.360906 255 255 255
0.393688 -0.073366 -0.383106 0.350444 -0.782605 -0.514508 255 255 255
0.394255 -0.073014 -0.383255 0.350444 -0.782605 -0.514508 255 255 255
0.394532 -0.073184 -0.382807 0.350444 -0.782605 -0.514508 255 255 255
0.394255 -0.073014 -0.383255 0.348079 -0.784220 -0.513653 255 255 255
0.395098 -0.072838 -0.382952 0.348079 -0.784220 -0.513653 255 255 255
0.394532 -0.073184 -0.382807 0.348079 -0.784220 -0.513653 255 255 255
0.393069 -0.073597 -0.382924 0.244631 -0.913068 -0.326286 255 255 255
0.393688 -0.073366 -0.383106 0.244631 -0.913068 -0.326286 255 255 255
0.393945 -0.073454 -0.382666 0.244631 -0.913068 -0.326286 255 255 255
0.393069 -0.073597 -0.382924 0.163378 -0.842626 -0.513118 255 255 255
0.392781 -0.073375 -0.383379 0.163378 -0.842626 -0.513118 255 255 255
0.393688 -0.073366 -0.383106 0.163378 -0.842626 -0.513118 255 255 255
0.392781 -0.073375 -0.383379 0.196745 -0.753538 -0.627274 255 255 255
0.393384 -0.073096 -0.383526 0.196745 -0.753538 -0.627274 255 255 255
0.393688 -0.073366 -0.383106 0.196745 -0.753538 -0.627274 255 255 255
0.392439 -0.073604 -0.382784 0.018909 -0.980546 -0.195377 255 255 255
0.393340 -0.073640 -0.382512 0.018909 -0.980546 -0.195377 255 255 255
0.392714 -0.073679 -0.382379 0.018909 -0.980546 -0.195377 255 255 255
0.392439 -0.073604 -0.382784 -0.010941 -0.995104 -0.098230 255 255 255
0.393069 -0.073597 -0.382924 -0.010941 -0.995104 -0.098230 255 255 255
0.393340 -0.073640 -0.382512 -0.010941 -0.995104 -0.098230 255 255 255
0.393069 -0.073597 -0.382924 0.226526 -0.941598 -0.249159 255 255 255
0.393945 -0.073454 -0.382666 0.226526 -0.941598 -0.249159 255 255 255
0.393340 -0.073640 -0.382512 0.226526 -0.941598 -0.249159 255 255 255
0.391874 -0.073188 -0.383597 -0.066294 -0.876908 -0.476065 255 255 255
0.392781 -0.073375 -0.383379 -0.066294 -0.876908 -0.476065 255 255 255
0.392161 -0.073428 -0.383195 -0.066294 -0.876908 -0.476065 255 255 255
0.391874 -0.073188 -0.383597 -0.014000 -0.787208 -0.616529 255 255 255
0.392493 -0.073055 -0.383781 -0.014000 -0.787208 -0.616529 255 255 255
0.392781 -0.073375 -0.383379 -0.014000 -0.787208 -0.616529 255 255 255
0.392493 -0.073055 -0.383781 0.163524 -0.711552 -0.683339 255 255 255
0.393384 -0.073096 -0.383526 0.163524 -0.711552 -0.683339 255 255 255
0.392781 -0.073375 -0.383379 0.163524 -0.711552 -0.683339 255 255 255
1.593905 1.339633 0.769529 0.757454 0.373828 0.535272 138 138 138
1.784575 2.250159 -0.136186 0.757454 0.373828 0.535272 138 138 138
1.762200 2.352598 -0.176066 0.757454 0.373828 0.535272 138 138 138
0.715065 3.809550 0.288197 0.757454 0.373828 0.535272 138 138 138
0.184248 0.855450 -0.954825 0.251141 -0.158698 -0.954852 138 138 138
1.594095 2.240110 -0.814146 0.251141 -0.158698 -0.954852 138 138 138
1.035942 1.074457 -0.767215 0.251141 -0.158698 -0.954852 138 138 138
-0.305805 1.874575 -1.253096 0.251141 -0.158698 -0.954852 138 138 138
0.172134 3.676740 -1.426913 0.251141 -0.158698 -0.954852 138 138 138
0.184248 0.855450 -0.954825 0.251141 -0.158698 -0.954853 138 138 138
-0.305805 1.874575 -1.253096 0.251141 -0.158698 -0.954853 138 138 138
1.594095 2.240110 -0.814146 0.251141 -0.158698 -0.954853 138 138 138
0.172134 3.676740 -1.426913 -0.854688 -0.366817 -0.367360 138 138 138
-0.235545 4.286739 -1.087517 -0.854688 -0.366817 -0.367360 138 138 138
-0.017639 3.991766 -1.299951 -0.854688 -0.366817 -0.367360 138 138 138
-1.522872 3.791147 -0.354871 -0.553250 0.274320 -0.786551 138 138 138
-0.402869 4.486564 -0.900132 -0.553250 0.274320 -0.786551 138 138 138
-0.235545 4.286739 -1.087517 -0.553250 0.274320 -0.786551 138 138 138
-1.517400 2.971895 -0.547387 0.503709 0.200805 -0.840211 138 138 138
-1.546898 3.627138 -0.408472 0.503709 0.200805 -0.840211 138 138 138
-1.522872 3.791147 -0.354871 0.503709 0.200805 -0.840211 138 138 138
-1.323479 2.133279 -0.648919 0.528451 0.221426 -0.819579 138 138 138
-1.352192 2.229613 -0.641406 0.528451 0.221426 -0.819579 138 138 138
-1.517400 2.971895 -0.547387 0.528451 0.221426 -0.819579 138 138 138
0.172134 3.676740 -1.426913 -0.500561 0.049390 -0.864291 138 138 138
-0.305805 1.874575 -1.253096 -0.500561 0.049390 -0.864291 138 138 138
-1.323479 2.133279 -0.648919 -0.500561 0.049390 -0.864291 138 138 138
0.172134 3.676740 -1.426913 -0.525096 0.118001 -0.842823 138 138 138
-1.522872 3.791147 -0.354871 -0.525096 0.118001 -0.842823 138 138 138
-0.235545 4.286739 -1.087517 -0.525096 0.118001 -0.842823 138 138 138
-1.323479 2.133279 -0.648919 0.442519 0.207941 -0.872317 138 138 138
-1.517400 2.971895 -0.547387 0.442519 0.207941 -0.872317 138 138 138
-1.522872 3.791147 -0.354871 0.442519 0.207941 -0.872317 138 138 138
0.172134 3.676740 -1.426913 -0.528374 0.086258 -0.844618 138 138 138
-1.323479 2.133279 -0.648919 -0.528374 0.086258 -0.844618 138 138 138
-1.522872 3.791147 -0.354871 -0.528374 0.086258 -0.844618 138 138 138
1.035942 1.074457 -0.767215 0.301324 -0.453112 -0.838983 138 138 138
0.275470 -0.006271 -0.456670 0.301324 -0.453112 -0.838983 138 138 138
0.184248 0.855450 -0.954825 0.301324 -0.453112 -0.838983 138 138 138
0.391586 -0.072876 -0.383989 0.604330 0.217009 -0.766611 138 138 138
0.325415 -0.035420 -0.425549 0.604330 0.217009 -0.766611 138 138 138
0.275470 -0.006271 -0.456670 0.604330 0.217009 -0.766611 138 138 138
0.393384 -0.073096 -0.383526 0.273109 0.340608 -0.899665 138 138 138
0.392493 -0.073055 -0.383781 0.273109 0.340608 -0.899665 138 138 138
0.391586 -0.072876 -0.383989 0.273109 0.340608 -0.899665 138 138 138
0.395098 -0.072838 -0.382952 0.245911 0.363803 -0.898429 138 138 138
0.394255 -0.073014 -0.383255 0.245911 0.363803 -0.898429 138 138 138
0.393384 -0.073096 -0.383526 0.245911 0.363803 -0.898429 138 138 138
0.489012 -0.037778 -0.375831 0.026580 0.130116 -0.991143 138 138 138
0.442091 -0.055411 -0.379404 0.026580 0.130116 -0.991143 138 138 138
0.395098 -0.072838 -0.382952 0.026580 0.130116 -0.991143 138 138 138
0.577915 0.008090 -0.367037 0.023459 0.144202 -0.989270 138 138 138
0.534608 -0.017629 -0.371813 0.023459 0.144202 -0.989270 138 138 138
0.489012 -0.037778 -0.375831 0.023459 0.144202 -0.989270 138 138 138
0.882832 0.594530 -0.621152 -0.528535 -0.090923 -0.844028 138 138 138
0.744952 0.275164 -0.500407 -0.528535 -0.090923 -0.844028 138 138 138
0.577915 0.008090 -0.367037 -0.528535 -0.090923 -0.844028 138 138 138
1.035942 1.074457 -0.767215 -0.604522 -0.049117 -0.795073 138 138 138
0.998996 0.952617 -0.731597 -0.604522 -0.049117 -0.795073 138 138 138
0.882832 0.594530 -0.621152 -0.604522 -0.049117 -0.795073 138 138 138
1.035942 1.074457 -0.767215 0.279976 -0.441903 -0.852253 138 138 138
0.391586 -0.072876 -0.383989 0.279976 -0.441903 -0.852253 138 138 138
0.275470 -0.006271 -0.456670 0.279976 -0.441903 -0.852253 138 138 138
0.395098 -0.072838 -0.382952 0.270419 0.262626 -0.926229 138 138 138
0.393384 -0.073096 -0.383526 0.270419 0.262626 -0.926229 138 138 138
0.391586 -0.072876 -0.383989 0.270419 0.262626 -0.926229 138 138 138
0.577915 0.008090 -0.367037 0.015180 0.159820 -0.987029 138 138 138
0.489012 -0.037778 -0.375831 0.015180 0.159820 -0.987029 138 138 138
0.395098 -0.072838 -0.382952 0.015180 0.159820 -0.987029 138 138 138
1.035942 1.074457 -0.767215 -0.538314 -0.083487 -0.838599 138 138 138
0.882832 0.594530 -0.621152 -0.538314 -0.083487 -0.838599 138 138 138
0.577915 0.008090 -0.367037 -0.538314 -0.083487 -0.838599 138 138 138
1.035942 1.074457 -0.767215 0.259292 -0.433835 -0.862876 138 138 138
0.395098 -0.072838 -0.382952 0.259292 -0.433835 -0.862876 138 138 138
0.391586 -0.072876 -0.383989 0.259292 -0.433835 -0.862876 138 138 138
1.035942 1.074457 -0.767215 0.268327 -0.437357 -0.858324 138 138 138
0.577915 0.008090 -0.367037 0.268327 -0.437357 -0.858324 138 138 138
0.395098 -0.072838 -0.382952 0.268327 -0.437357 -0.858324 138 138 138
-1.522872 3.791147 -0.354871 -0.502326 0.862031 0.067609 138 138 138
-0.071980 4.596595 0.155406 -0.502326 0.862031 0.067609 138 138 138
-0.402869 4.486564 -0.900132 -0.502326 0.862031 0.067609 138 138 138
-1.493227 3.795855 -0.194639 -0.502326 0.862031 0.067611 138 138 138
-0.411473 4.394259 0.212841 -0.502326 0.862031 0.067611 138 138 138
-0.071980 4.596595 0.155406 -0.502326 0.862031 0.067611 138 138 138
-1.522872 3.791147 -0.354871 -0.502326 0.862031 0.067610 138 138 138
-1.493227 3.795855 -0.194639 -0.502326 0.862031 0.067610 138 138 138
-0.071980 4.596595 0.155406 -0.502326 0.862031 0.067610 138 138 138
-1.008817 0.671475 0.074424 0.727307 -0.676000 -0.118525 138 138 138
-1.039624 0.553698 0.557115 0.727307 -0.676000 -0.118525 138 138 138
-1.025376 0.620458 0.263784 0.727307 -0.676000 -0.118525 138 138 138
-0.259809 0.143451 1.125781 -0.438795 -0.897424 -0.045697 138 138 138
-1.029179 0.542684 0.673122 -0.438795 -0.897424 -0.045697 138 138 138
-1.039624 0.553698 0.557115 -0.438795 -0.897424 -0.045697 138 138 138
-0.014784 -0.126068 0.859753 -0.257814 -0.787262 0.560134 138 138 138
-0.160679 0.107447 1.120804 -0.257814 -0.787262 0.560134 138 138 138
-0.259809 0.143451 1.125781 -0.257814 -0.787262 0.560134 138 138 138
0.260104 -0.158648 0.066009 -0.913809 -0.267645 -0.305483 138 138 138
0.126208 -0.199097 0.501978 -0.913809 -0.267645 -0.305483 138 138 138
-0.014784 -0.126068 0.859753 -0.913809 -0.267645 -0.305483 138 138 138
0.392439 -0.073604 -0.382784 0.003380 -0.982692 -0.185218 138 138 138
0.392714 -0.073679 -0.382379 0.003380 -0.982692 -0.185218 138 138 138
0.260104 -0.158648 0.066009 0.003380 -0.982692 -0.185218 138 138 138
0.391874 -0.073188 -0.383597 -0.849919 -0.210338 0.483110 138 138 138
0.392161 -0.073428 -0.383195 -0.849919 -0.210338 0.483110 138 138 138
0.392439 -0.073604 -0.382784 -0.849919 -0.210338 0.483110 138 138 138
0.325415 -0.035420 -0.425549 -0.098081 -0.811874 -0.575535 138 138 138
0.391586 -0.072876 -0.383989 -0.098081 -0.811874 -0.575535 138 138 138
0.391874 -0.073188 -0.383597 -0.098081 -0.811874 -0.575535 138 138 138
-1.008817 0.671475 0.074424 -0.481397 -0.875231 -0.047201 138 138 138
0.275470 -0.006271 -0.456670 -0.481397 -0.875231 -0.047201 138 138 138
0.325415 -0.035420 -0.425549 -0.481397 -0.875231 -0.047201 138 138 138
-1.008817 0.671475 0.074424 -0.306112 -0.920179 -0.244062 138 138 138
-0.259809 0.143451 1.125781 -0.306112 -0.920179 -0.244062 138 138 138
-1.039624 0.553698 0.557115 -0.306112 -0.920179 -0.244062 138 138 138
0.260104 -0.158648 0.066009 -0.829516 -0.490444 -0.267146 138 138 138
-0.014784 -0.126068 0.859753 -0.829516 -0.490444 -0.267146 138 138 138
-0.259809 0.143451 1.125781 -0.829516 -0.490444 -0.267146 138 138 138
0.391874 -0.073188 -0.383597 -0.297809 -0.918032 -0.261777 138 138 138
0.392439 -0.073604 -0.382784 -0.297809 -0.918032 -0.261777 138 138 138
0.260104 -0.158648 0.066009 -0.297809 -0.918032 -0.261777 138 138 138
-1.008817 0.671475 0.074424 -0.477699 -0.877882 -0.033583 138 138 138
0.325415 -0.035420 -0.425549 -0.477699 -0.877882 -0.033583 138 138 138
0.391874 -0.073188 -0.383597 -0.477699 -0.877882 -0.033583 138 138 138
-1.008817 0.671475 0.074424 -0.547346 -0.836365 -0.030108 138 138 138
0.260104 -0.158648 0.066009 -0.547346 -0.836365 -0.030108 138 138 138
-0.259809 0.143451 1.125781 -0.547346 -0.836365 -0.030108 138 138 138
-1.008817 0.671475 0.074424 -0.522859 -0.796151 -0.304568 138 138 138
0.391874 -0.073188 -0.383597 -0.522859 -0.796151 -0.304568 138 138 138
0.260104 -0.158648 0.066009 -0.522859 -0.796151 -0.304568 138 138 138
-1.522872 3.791147 -0.354871 -0.978788 -0.090605 0.183749 138 138 138
-1.029179 0.542684 0.673122 -0.978788 -0.090605 0.183749 138 138 138
-1.493227 3.795855 -0.194639 -0.978788 -0.090605 0.183749 138 138 138
-1.025376 0.620458 0.263784 -0.685559 0.716363 0.129740 138 138 138
-1.039624 0.553698 0.557115 -0.685559 0.716363 0.129740 138 138 138
-1.029179 0.542684 0.673122 -0.685559 0.716363 0.129740 138 138 138
-1.323479 2.133279 -0.648919 -0.946119 -0.282223 -0.158771 138 138 138
-1.008817 0.671475 0.074424 -0.946119 -0.282223 -0.158771 138 138 138
-1.025376 0.620458 0.263784 -0.946119 -0.282223 -0.158771 138 138 138
-1.517400 2.971895 -0.547387 -0.528451 -0.221426 0.819579 138 138 138
-1.352192 2.229613 -0.641406 -0.528451 -0.221426 0.819579 138 138 138
-1.323479 2.133279 -0.648919 -0.528451 -0.221426 0.819579 138 138 138
-1.522872 3.791147 -0.354871 -0.503709 -0.200805 0.840211 138 138 138
-1.546898 3.627138 -0.408472 -0.503709 -0.200805 0.840211 138 138 138
-1.517400 2.971895 -0.547387 -0.503709 -0.200805 0.840211 138 138 138
-1.522872 3.791147 -0.354871 -0.985895 -0.162504 -0.040037 138 138 138
-1.025376 0.620458 0.263784 -0.985895 -0.162504 -0.040037 138 138 138
-1.029179 0.542684 0.673122 -0.985895 -0.162504 -0.040037 138 138 138
-1.517400 2.971895 -0.547387 -0.974468 -0.219767 -0.045992 138 138 138
-1.323479 2.133279 -0.648919 -0.974468 -0.219767 -0.045992 138 138 138
-1.025376 0.620458 0.263784 -0.974468 -0.219767 -0.045992 138 138 138
-1.522872 3.791147 -0.354871 -0.940774 -0.083498 0.328590 138 138 138
-1.517400 2.971895 -0.547387 -0.940774 -0.083498 0.328590 138 138 138
-1.025376 0.620458 0.263784 -0.940774 -0.083498 0.328590 138 138 138
-0.071980 4.596595 0.155406 -0.130672 0.215046 0.967822 138 138 138
0.218430 0.146116 1.183493 -0.130672 0.215046 0.967822 138 138 138
0.060981 4.496674 0.195560 -0.130672 0.215046 0.967822 138 138 138
-0.259809 0.143451 1.125781 -0.106540 -0.418031 0.902164 138 138 138
-0.160679 0.107447 1.120804 -0.106540 -0.418031 0.902164 138 138 138
0.218430 0.146116 1.183493 -0.106540 -0.418031 0.902164 138 138 138
-0.071980 4.596595 0.155406 0.039381 0.211160 0.976658 138 138 138
-0.411473 4.394259 0.212841 0.039381 0.211160 0.976658 138 138 138
-0.259809 0.143451 1.125781 0.039381 0.211160 0.976658 138 138 138
-0.071980 4.596595 0.155406 -0.118162 0.216175 0.969178 138 138 138
-0.259809 0.143451 1.125781 -0.118162 0.216175 0.969178 138 138 138
0.218430 0.146116 1.183493 -0.118162 0.216175 0.969178 138 138 138
0.577915 0.008090 -0.367037 -0.023459 -0.144202 0.989270 138 138 138
0.489012 -0.037778 -0.375831 -0.023459 -0.144202 0.989270 138 138 138
0.534608 -0.017629 -0.371813 -0.023459 -0.144202 0.989270 138 138 138
0.395098 -0.072838 -0.382952 -0.026580 -0.130116 0.991143 138 138 138
0.442091 -0.055411 -0.379404 -0.026580 -0.130116 0.991143 138 138 138
0.489012 -0.037778 -0.375831 -0.026580 -0.130116 0.991143 138 138 138
0.393945 -0.073454 -0.382666 0.193270 0.092558 0.976770 138 138 138
0.394532 -0.073184 -0.382807 0.193270 0.092558 0.976770 138 138 138
0.395098 -0.072838 -0.382952 0.193270 0.092558 0.976770 138 138 138
0.392714 -0.073679 -0.382379 0.195606 0.162993 0.967043 138 138 138
0.393340 -0.073640 -0.382512 0.195606 0.162993 0.967043 138 138 138
0.393945 -0.073454 -0.382666 0.195606 0.162993 0.967043 138 138 138
0.126208 -0.199097 0.501978 0.947040 0.111361 0.301189 138 138 138
0.260104 -0.158648 0.066009 0.947040 0.111361 0.301189 138 138 138
0.392714 -0.073679 -0.382379 0.947040 0.111361 0.301189 138 138 138
-0.160679 0.107447 1.120804 0.922042 0.220082 0.318436 138 138 138
-0.014784 -0.126068 0.859753 0.922042 0.220082 0.318436 138 138 138
0.126208 -0.199097 0.501978 0.922042 0.220082 0.318436 138 138 138
1.260517 0.617785 0.969670 0.184518 -0.713895 -0.675505 138 138 138
0.218430 0.146116 1.183493 0.184518 -0.713895 -0.675505 138 138 138
-0.160679 0.107447 1.120804 0.184518 -0.713895 -0.675505 138 138 138
1.068658 0.103419 0.424197 -0.823513 -0.238624 0.514670 138 138 138
1.217714 0.314822 0.760715 -0.823513 -0.238624 0.514670 138 138 138
1.260517 0.617785 0.969670 -0.823513 -0.238624 0.514670 138 138 138
0.577915 0.008090 -0.367037 -0.766669 -0.375546 0.520753 138 138 138
0.856541 -0.007299 0.032067 -0.766669 -0.375546 0.520753 138 138 138
1.068658 0.103419 0.424197 -0.766669 -0.375546 0.520753 138 138 138
0.577915 0.008090 -0.367037 -0.015180 -0.159820 0.987029 138 138 138
0.395098 -0.072838 -0.382952 -0.015180 -0.159820 0.987029 138 138 138
0.489012 -0.037778 -0.375831 -0.015180 -0.159820 0.987029 138 138 138
0.392714 -0.073679 -0.382379 0.219321 0.042850 0.974711 138 138 138
0.393945 -0.073454 -0.382666 0.219321 0.042850 0.974711 138 138 138
0.395098 -0.072838 -0.382952 0.219321 0.042850 0.974711 138 138 138
-0.160679 0.107447 1.120804 0.921075 0.234529 0.310832 138 138 138
0.126208 -0.199097 0.501978 0.921075 0.234529 0.310832 138 138 138
0.392714 -0.073679 -0.382379 0.921075 0.234529 0.310832 138 138 138
1.068658 0.103419 0.424197 0.328610 -0.742106 0.584205 138 138 138
1.260517 0.617785 0.969670 0.328610 -0.742106 0.584205 138 138 138
-0.160679 0.107447 1.120804 0.328610 -0.742106 0.584205 138 138 138
0.577915 0.008090 -0.367037 0.411052 -0.899757 -0.146540 138 138 138
1.068658 0.103419 0.424197 0.411052 -0.899757 -0.146540 138 138 138
0.395098 -0.072838 -0.382952 0.411052 -0.899757 -0.146540 138 138 138
-0.160679 0.107447 1.120804 0.374491 -0.894111 0.245604 138 138 138
0.392714 -0.073679 -0.382379 0.374491 -0.894111 0.245604 138 138 138
0.395098 -0.072838 -0.382952 0.374491 -0.894111 0.245604 138 138 138
1.068658 0.103419 0.424197 0.080618 -0.985700 0.147971 138 138 138
-0.160679 0.107447 1.120804 0.080618 -0.985700 0.147971 138 138 138
0.395098 -0.072838 -0.382952 0.080618 -0.985700 0.147971 138 138 138
1.260517 0.617785 0.969670 0.834275 -0.466704 -0.293552 138 138 138
1.784575 2.250159 -0.136186 0.834275 -0.466704 -0.293552 138 138 138
1.593905 1.339633 0.769529 0.834275 -0.466704 -0.293552 138 138 138
1.731207 2.286790 -0.399064 0.976519 0.114888 -0.182239 138 138 138
1.763387 2.303267 -0.216238 0.976519 0.114888 -0.182239 138 138 138
1.784575 2.250159 -0.136186 0.976519 0.114888 -0.182239 138 138 138
1.630291 2.249827 -0.745647 0.123873 -0.989861 0.069501 138 138 138
1.692754 2.269312 -0.579461 0.123873 -0.989861 0.069501 138 138 138
1.731207 2.286790 -0.399064 0.123873 -0.989861 0.069501 138 138 138
1.035942 1.074457 -0.767215 0.828480 -0.411976 -0.379338 138 138 138
1.594095 2.240110 -0.814146 0.828480 -0.411976 -0.379338 138 138 138
1.630291 2.249827 -0.745647 0.828480 -0.411976 -0.379338 138 138 138
0.882832 0.594530 -0.621152 0.604522 0.049117 0.795073 138 138 138
0.998996 0.952617 -0.731597 0.604522 0.049117 0.795073 138 138 138
1.035942 1.074457 -0.767215 0.604522 0.049117 0.795073 138 138 138
0.577915 0.008090 -0.367037 0.528535 0.090923 0.844028 138 138 138
0.744952 0.275164 -0.500407 0.528535 0.090923 0.844028 138 138 138
0.882832 0.594530 -0.621152 0.528535 0.090923 0.844028 138 138 138
1.068658 0.103419 0.424197 0.766669 0.375546 -0.520753 138 138 138
0.856541 -0.007299 0.032067 0.766669 0.375546 -0.520753 138 138 138
0.577915 0.008090 -0.367037 0.766669 0.375546 -0.520753 138 138 138
1.260517 0.617785 0.969670 0.823513 0.238624 -0.514670 138 138 138
1.217714 0.314822 0.760715 0.823513 0.238624 -0.514670 138 138 138
1.068658 0.103419 0.424197 0.823513 0.238624 -0.514670 138 138 138
1.260517 0.617785 0.969670 0.866699 -0.438876 -0.237109 138 138 138
1.731207 2.286790 -0.399064 0.866699 -0.438876 -0.237109 138 138 138
1.784575 2.250159 -0.136186 0.866699 -0.438876 -0.237109 138 138 138
1.035942 1.074457 -0.767215 0.874434 -0.438360 -0.207861 138 138 138
1.630291 2.249827 -0.745647 0.874434 -0.438360 -0.207861 138 138 138
1.731207 2.286790 -0.399064 0.874434 -0.438360 -0.207861 138 138 138
0.577915 0.008090 -0.367037 0.538314 0.083487 0.838599 138 138 138
0.882832 0.594530 -0.621152 0.538314 0.083487 0.838599 138 138 138
1.035942 1.074457 -0.767215 0.538314 0.083487 0.838599 138 138 138
1.260517 0.617785 0.969670 0.805411 0.262918 -0.531213 138 138 138
1.068658 0.103419 0.424197 0.805411 0.262918 -0.531213 138 138 138
0.577915 0.008090 -0.367037 0.805411 0.262918 -0.531213 138 138 138
1.260517 0.617785 0.969670 0.873027 -0.431912 -0.226441 138 138 138
1.035942 1.074457 -0.767215 0.873027 -0.431912 -0.226441 138 138 138
1.731207 2.286790 -0.399064 0.873027 -0.431912 -0.226441 138 138 138
1.260517 0.617785 0.969670 0.859543 -0.455879 -0.230999 138 138 138
0.577915 0.008090 -0.367037 0.859543 -0.455879 -0.230999 138 138 138
1.035942 1.074457 -0.767215 0.859543 -0.455879 -0.230999 138 138 138
1.763387 2.303267 -0.216238 0.975774 0.151793 -0.157559 138 138 138
1.762200 2.352598 -0.176066 0.975774 0.151793 -0.157559 138 138 138
1.784575 2.250159 -0.136186 0.975774 0.151793 -0.157559 138 138 138
1.594095 2.240110 -0.814146 -0.159001 0.985700 -0.055809 138 138 138
1.692754 2.269312 -0.579461 -0.159001 0.985700 -0.055809 138 138 138
1.630291 2.249827 -0.745647 -0.159001 0.985700 -0.055809 138 138 138
1.763387 2.303267 -0.216238 -0.178781 0.982233 -0.057058 138 138 138
1.731207 2.286790 -0.399064 -0.178781 0.982233 -0.057058 138 138 138
1.692754 2.269312 -0.579461 -0.178781 0.982233 -0.057058 138 138 138
0.715065 3.809550 0.288197 0.481032 0.560530 -0.674103 138 138 138
1.762200 2.352598 -0.176066 0.481032 0.560530 -0.674103 138 138 138
1.763387 2.303267 -0.216238 0.481032 0.560530 -0.674103 138 138 138
-0.071980 4.596595 0.155406 0.527757 0.401466 -0.748530 138 138 138
0.060981 4.496674 0.195560 0.527757 0.401466 -0.748530 138 138 138
0.715065 3.809550 0.288197 0.527757 0.401466 -0.748530 138 138 138
-0.235545 4.286739 -1.087517 0.600892 0.753451 -0.266908 138 138 138
-0.402869 4.486564 -0.900132 0.600892 0.753451 -0.266908 138 138 138
-0.071980 4.596595 0.155406 0.600892 0.753451 -0.266908 138 138 138
0.172134 3.676740 -1.426913 0.854688 0.366817 0.367359 138 138 138
-0.017639 3.991766 -1.299951 0.854688 0.366817 0.367359 138 138 138
-0.235545 4.286739 -1.087517 0.854688 0.366817 0.367359 138 138 138
1.594095 2.240110 -0.814146 0.733482 0.564511 -0.378591 138 138 138
0.172134 3.676740 -1.426913 0.733482 0.564511 -0.378591 138 138 138
1.692754 2.269312 -0.579461 0.733482 0.564511 -0.378591 138 138 138
0.715065 3.809550 0.288197 0.769440 0.604539 -0.206143 138 138 138
1.763387 2.303267 -0.216238 0.769440 0.604539 -0.206143 138 138 138
1.692754 2.269312 -0.579461 0.769440 0.604539 -0.206143 138 138 138
-0.235545 4.286739 -1.087517 0.704633 0.661179 -0.257557 138 138 138
-0.071980 4.596595 0.155406 0.704633 0.661179 -0.257557 138 138 138
0.715065 3.809550 0.288197 0.704633 0.661179 -0.257557 138 138 138
0.172134 3.676740 -1.426913 0.729926 0.632292 -0.259642 138 138 138
-0.235545 4.286739 -1.087517 0.729926 0.632292 -0.259642 138 138 138
1.692754 2.269312 -0.579461 0.729926 0.632292 -0.259642 138 138 138
-0.235545 4.286739 -1.087517 0.727596 0.623284 -0.286568 138 138 138
0.715065 3.809550 0.288197 0.727596 0.623284 -0.286568 138 138 138
1.692754 2.269312 -0.579461 0.727596 0.623284 -0.286568 138 138 138
1.000000 -1.000000 1.000000 0.000000 -1.000000 0.000000 64 112 28
-1.000000 -1.000000 1.000000 0.000000 -1.000000 0.000000 64 112 28
-1.000000 -1.000000 -1.000000 0.000000 -1.000000 0.000000 64 112 28
1.000000 -1.000000 -1.000000 0.000000 -1.000000 0.000000 64 112 28
0.999999 1.000000 1.000000 -0.000000 1.000000 0.000000 64 112 28
1.000000 1.000000 -1.000000 -0.000000 1.000000 0.000000 64 112 28
-1.000000 1.000000 -1.000000 -0.000000 1.000000 0.000000 64 112 28
-1.000001 1.000000 0.999999 -0.000000 1.000000 0.000000 64 112 28
1.000000 -1.000000 1.000000 -0.000000 0.000000 1.000000 64 112 28
0.999999 1.000000 1.000000 -0.000000 0.000000 1.000000 64 112 28
-1.000001 1.000000 0.999999 -0.000000 0.000000 1.000000 64 112 28
-1.000000 -1.000000 1.000000 -0.000000 0.000000 1.000000 64 112 28
-1.000000 -1.000000 1.000000 -1.000000 -0.000000 -0.000000 64 112 28
-1.000001 1.000000 0.999999 -1.000000 -0.000000 -0.000000 64 112 28
-1.000000 1.000000 -1.000000 -1.000000 -0.000000 -0.000000 64 112 28
-1.000000 -1.000000 -1.000000 -1.000000 -0.000000 -0.000000 64 112 28
-1.000000 -1.000000 -1.000000 0.000000 -0.000000 -1.000000 64 112 28
-1.000000 1.000000 -1.000000 0.000000 -0.000000 -1.000000 64 112 28
1.000000 1.000000 -1.000000 0.000000 -0.000000 -1.000000 64 112 28
1.000000 -1.000000 -1.000000 0.000000 -0.000000 -1.000000 64 112 28
0.999999 1.000000 1.000000 1.000000 0.000000 0.000000 64 112 28
1.000000 -1.000000 1.000000 1.000000 0.000000 0.000000 64 112 28
1.000000 -1.000000 -1.000000 1.000000 0.000000 0.000000 64 112 28
1.000000 1.000000 -1.000000 1.000000 0.000000 0.000000 64 112 28
3 0 1 2
3 3 4 1
3 5 6 7
4 8 9 10 11
3 12 13 14
3 15 16 17
3 18 19 20
3 21 22 23
3 24 25 26
3 27 28 25
3 24 27 25
3 29 30 31
3 32 33 34
3 35 36 37
3 38 39 40
3 41 42 43
3 44 45 46
3 47 48 49
3 50 51 52
3 53 54 55
3 56 57 58
3 59 60 61
3 62 63 64
4 65 66 67 68
3 69 70 71
3 72 73 70
3 74 75 76
3 77 78 79
3 80 81 82
3 83 84 85
3 86 87 88
3 89 90 91
3 92 93 94
3 95 96 97
3 98 99 100
3 101 102 103
3 104 105 106
3 107 108 109
3 110 111 112
3 113 114 115
3 116 117 118
3 119 120 121
3 122 123 124
3 125 126 127
3 128 129 130
3 131 132 133
3 134 135 136
3 137 138 139
3 140 141 142
3 143 144 145
3 146 147 148
3 149 150 151
3 152 153 154
3 155 156 157
3 158 159 160
3 161 162 163
3 164 165 166
3 167 168 169
3 170 171 172
3 173 174 175
3 176 177 178
3 179 180 181
3 182 183 184
3 185 186 187
3 188 189 190
3 191 192 193
3 194 195 196
3 197 198 199
3 200 201 202
3 203 204 205
3 206 207 208
3 209 210 211
3 212 213 214
3 215 216 217
3 218 219 220
3 221 222 223
3 224 225 226
3 227 228 229
3 230 231 232
3 233 234 235
3 236 237 238
3 239 240 241
3 242 243 244
3 245 246 247
3 248 249 250
3 251 252 253
3 254 255 256
3 257 258 259
3 260 261 262
3 263 264 265
3 266 267 268
3 269 270 271
3 272 273 274
3 275 276 277
3 278 279 280
3 281 282 283
3 284 285 286
3 287 288 289
3 290 291 292
3 293 294 295
3 296 297 298
3 299 300 301
3 302 303 304
3 305 306 307
3 308 309 310
3 311 312 313
3 314 315 316
3 317 318 319
3 320 321 322
3 323 324 325
3 326 327 328
3 329 330 331
3 332 333 334
3 335 336 337
3 338 339 340
3 341 342 343
3 344 345 346
3 347 348 349
3 350 351 352
3 353 354 355
4 356 357 358 359
4 360 361 362 363
4 364 365 366 367
4 368 369 370 371
4 372 373 374 375
4 376 377 378 379
