ply
format ascii 1.0
comment Created by Blender 2.73 (sub 0) - www.blender.org, source file: 'grass_bush_2.blend'
element vertex 108
property float x
property float y
property float z
property float nx
property float ny
property float nz
property uchar red
property uchar green
property uchar blue
element face 34
property list uchar uint vertex_indices
end_header
-0.772468 -0.013552 1.357841 -0.445219 0.083771 0.891495 34 177 28
1.016306 2.407521 2.023666 -0.445219 0.083771 0.891495 34 177 28
-0.367795 3.069787 1.270205 -0.445219 0.083771 0.891495 34 177 28
-0.772468 -0.013552 1.357841 -0.770994 0.118971 0.625631 34 177 28
-0.367795 3.069787 1.270205 -0.770994 0.118971 0.625631 34 177 28
-1.394343 2.334512 0.144964 -0.770994 0.118971 0.625631 34 177 28
-0.367795 3.069787 1.270205 -0.335262 0.760825 0.555647 34 177 28
1.086871 4.606268 0.044071 -0.335262 0.760825 0.555647 34 177 28
-0.124079 4.239903 -0.184935 -0.335262 0.760825 0.555647 34 177 28
-0.367795 3.069787 1.270205 -0.759809 0.562874 0.325364 34 177 28
-0.124079 4.239903 -0.184935 -0.759809 0.562874 0.325364 34 177 28
-1.394343 2.334512 0.144964 -0.759809 0.562874 0.325364 34 177 28
-0.755694 -0.571720 -0.671430 -0.804700 -0.388307 -0.449083 34 177 28
-1.499493 0.756019 -0.486686 -0.804700 -0.388307 -0.449083 34 177 28
-0.716154 0.819159 -1.944924 -0.804700 -0.388307 -0.449083 34 177 28
0.827488 0.657934 -1.475358 0.151162 -0.669873 -0.726925 34 177 28
-0.755694 -0.571720 -0.671430 0.151162 -0.669873 -0.726925 34 177 28
-0.716154 0.819159 -1.944924 0.151162 -0.669873 -0.726925 34 177 28
1.000000 -1.000000 -1.000000 0.000000 -1.000000 -0.000000 64 112 28
1.000000 -1.000000 1.000000 0.000000 -1.000000 -0.000000 64 112 28
-1.000000 -1.000000 1.000000 0.000000 -1.000000 -0.000000 64 112 28
-1.000000 -1.000000 -1.000000 0.000000 -1.000000 -0.000000 64 112 28
-0.892868 3.332634 -1.653083 -0.229046 0.096365 -0.968634 34 177 28
0.749798 3.174559 -2.057238 -0.229046 0.096365 -0.968634 34 177 28
-0.716154 0.819159 -1.944924 -0.229046 0.096365 -0.968634 34 177 28
0.749798 3.174559 -2.057238 0.264477 -0.209492 -0.941363 34 177 28
0.827488 0.657934 -1.475358 0.264477 -0.209492 -0.941363 34 177 28
-0.716154 0.819159 -1.944924 0.264477 -0.209492 -0.941363 34 177 28
-0.716154 0.819159 -1.944924 -0.880794 -0.006953 -0.473448 34 177 28
-1.499493 0.756019 -0.486686 -0.880794 -0.006953 -0.473448 34 177 28
-0.892868 3.332634 -1.653083 -0.880794 -0.006953 -0.473448 34 177 28
-1.499493 0.756019 -0.486686 -0.971080 0.141608 -0.192225 34 177 28
-1.394343 2.334512 0.144964 -0.971080 0.141608 -0.192225 34 177 28
-0.892868 3.332634 -1.653083 -0.971080 0.141608 -0.192225 34 177 28
-1.394343 2.334512 0.144964 -0.822491 0.562694 0.082966 34 177 28
-0.124079 4.239903 -0.184935 -0.822491 0.562694 0.082966 34 177 28
-0.892868 3.332634 -1.653083 -0.822491 0.562694 0.082966 34 177 28
1.086871 4.606268 0.044071 -0.056967 0.829297 -0.555896 34 177 28
0.749798 3.174559 -2.057238 -0.056967 0.829297 -0.555896 34 177 28
-0.892868 3.332634 -1.653083 -0.056967 0.829297 -0.555896 34 177 28
1.086871 4.606268 0.044071 0.686915 0.544577 -0.481231 34 177 28
1.946945 3.386256 -0.108854 0.686915 0.544577 -0.481231 34 177 28
0.749798 3.174559 -2.057238 0.686915 0.544577 -0.481231 34 177 28
1.835823 1.352017 -0.371800 0.769579 -0.121201 -0.626944 34 177 28
0.827488 0.657934 -1.475358 0.769579 -0.121201 -0.626944 34 177 28
0.749798 3.174559 -2.057238 0.769579 -0.121201 -0.626944 34 177 28
0.243306 -0.883786 0.493632 0.350411 -0.785076 -0.510751 34 177 28
-0.755694 -0.571720 -0.671430 0.350411 -0.785076 -0.510751 34 177 28
0.827488 0.657934 -1.475358 0.350411 -0.785076 -0.510751 34 177 28
-0.772468 -0.013552 1.357841 -0.857211 -0.498294 0.129974 34 177 28
-1.499493 0.756019 -0.486686 -0.857211 -0.498294 0.129974 34 177 28
-0.755694 -0.571720 -0.671430 -0.857211 -0.498294 0.129974 34 177 28
-0.772468 -0.013552 1.357841 -0.937889 -0.073226 0.339120 34 177 28
-1.394343 2.334512 0.144964 -0.937889 -0.073226 0.339120 34 177 28
-1.499493 0.756019 -0.486686 -0.937889 -0.073226 0.339120 34 177 28
-0.124079 4.239903 -0.184935 -0.180566 0.876174 -0.446895 34 177 28
1.086871 4.606268 0.044071 -0.180566 0.876174 -0.446895 34 177 28
-0.892868 3.332634 -1.653083 -0.180566 0.876174 -0.446895 34 177 28
1.946945 3.386256 -0.108854 0.850787 0.021396 -0.525075 34 177 28
1.835823 1.352017 -0.371800 0.850787 0.021396 -0.525075 34 177 28
0.749798 3.174559 -2.057238 0.850787 0.021396 -0.525075 34 177 28
1.835823 1.352017 -0.371800 0.730264 -0.626023 -0.273514 34 177 28
0.243306 -0.883786 0.493632 0.730264 -0.626023 -0.273514 34 177 28
0.827488 0.657934 -1.475358 0.730264 -0.626023 -0.273514 34 177 28
1.835823 1.352017 -0.371800 0.809116 -0.587000 -0.027601 34 177 28
1.437212 0.716827 1.451845 0.809116 -0.587000 -0.027601 34 177 28
0.243306 -0.883786 0.493632 0.809116 -0.587000 -0.027601 34 177 28
0.243306 -0.883786 0.493632 -0.517922 -0.825881 0.222884 34 177 28
-0.772468 -0.013552 1.357841 -0.517922 -0.825881 0.222884 34 177 28
-0.755694 -0.571720 -0.671430 -0.517922 -0.825881 0.222884 34 177 28
1.016306 2.407521 2.023666 -0.082699 0.668272 0.739306 34 177 28
1.086871 4.606268 0.044071 -0.082699 0.668272 0.739306 34 177 28
-0.367795 3.069787 1.270205 -0.082699 0.668272 0.739306 34 177 28
1.016306 2.407521 2.023666 0.726528 0.446739 0.522093 34 177 28
1.946945 3.386256 -0.108854 0.726528 0.446739 0.522093 34 177 28
1.086871 4.606268 0.044071 0.726528 0.446739 0.522093 34 177 28
1.016306 2.407521 2.023666 0.899874 0.078952 0.428944 34 177 28
1.437212 0.716827 1.451845 0.899874 0.078952 0.428944 34 177 28
1.946945 3.386256 -0.108854 0.899874 0.078952 0.428944 34 177 28
1.437212 0.716827 1.451845 0.979285 -0.077666 0.187000 34 177 28
1.835823 1.352017 -0.371800 0.979285 -0.077666 0.187000 34 177 28
1.946945 3.386256 -0.108854 0.979285 -0.077666 0.187000 34 177 28
1.437212 0.716827 1.451845 0.162548 -0.593247 0.788439 34 177 28
-0.772468 -0.013552 1.357841 0.162548 -0.593247 0.788439 34 177 28
0.243306 -0.883786 0.493632 0.162548 -0.593247 0.788439 34 177 28
1.437212 0.716827 1.451845 0.060788 -0.306183 0.950030 34 177 28
1.016306 2.407521 2.023666 0.060788 -0.306183 0.950030 34 177 28
-0.772468 -0.013552 1.357841 0.060788 -0.306183 0.950030 34 177 28
-1.000000 1.000000 0.999999 -0.000000 1.000000 0.000000 64 112 28
0.999999 1.000000 1.000000 -0.000000 1.000000 0.000000 64 112 28
1.000000 1.000000 -1.000000 -0.000000 1.000000 0.000000 64 112 28
-1.000000 1.000000 -1.000000 -0.000000 1.000000 0.000000 64 112 28
1.000000 -1.000000 1.000000 -0.000000 0.000000 1.000000 64 112 28
0.999999 1.000000 1.000000 -0.000000 0.000000 1.000000 64 112 28
-1.000000 1.000000 0.999999 -0.000000 0.000000 1.000000 64 112 28
-1.000000 -1.000000 1.000000 -0.000000 0.000000 1.000000 64 112 28
-1.000000 -1.000000 -1.000000 -1.000000 -0.000000 -0.000000 64 112 28
-1.000000 -1.000000 1.000000 -1.000000 -0.000000 -0.000000 64 112 28
-1.000000 1.000000 0.999999 -1.000000 -0.000000 -0.000000 64 112 28
-1.000000 1.000000 -1.000000 -1.000000 -0.000000 -0.000000 64 112 28
1.000000 -1.000000 -1.000000 0.000000 -0.000000 -1.000000 64 112 28
-1.000000 -1.000000 -1.000000 0.000000 -0.000000 -1.000000 64 112 28
-1.000000 1.000000 -1.000000 0.000000 -0.000000 -1.000000 64 112 28
1.000000 1.000000 -1.000000 0.000000 -0.000000 -1.000000 64 112 28
0.999999 1.000000 1.000000 1.000000 0.000000 0.000000 64 112 28
1.000000 -1.000000 1.000000 1.000000 0.000000 0.000000 64 112 28
1.000000 -1.000000 -1.000000 1.000000 0.000000 0.000000 64 112 28
1.000000 1.000000 -1.000000 1.000000 0.000000 0.000000 64 112 28
3 0 1 2
3 3 4 5
3 6 7 8
3 9 10 11
3 12 13 14
3 15 16 17
4 18 19 20 21
3 22 23 24
3 25 26 27
3 28 29 30
3 31 32 33
3 34 35 36
3 37 38 39
3 40 41 42
3 43 44 45
3 46 47 48
3 49 50 51
3 52 53 54
3 55 56 57
3 58 59 60
3 61 62 63
3 64 65 66
3 67 68 69
3 70 71 72
3 73 74 75
3 76 77 78
3 79 80 81
3 82 83 84
3 85 86 87
4 88 89 90 91
4 92 93 94 95
4 96 97 98 99
4 100 101 102 103
4 104 105 106 107
