ply
format ascii 1.0
comment Created by Blender 2.73 (sub 0) - www.blender.org, source file: 'ladder_up_combined.blend'
element vertex 288
property float x
property float y
property float z
property float nx
property float ny
property float nz
property uchar red
property uchar green
property uchar blue
element face 72
property list uchar uint vertex_indices
end_header
1.104408 7.688112 -0.841495 0.000000 -0.000000 -1.000000 63 39 23
0.850669 7.725129 -0.841495 0.000000 -0.000000 -1.000000 63 39 23
0.887686 7.978868 -0.841495 0.000000 -0.000000 -1.000000 63 39 23
1.141424 7.941851 -0.841495 0.000000 -0.000000 -1.000000 63 39 23
1.141424 7.941851 -0.841495 0.989526 -0.144357 0.000000 63 39 23
1.141424 7.941851 0.857373 0.989526 -0.144357 0.000000 63 39 23
1.104408 7.688112 0.857373 0.989526 -0.144357 0.000000 63 39 23
1.104408 7.688112 -0.841495 0.989526 -0.144357 0.000000 63 39 23
1.141424 7.941851 0.857373 0.000000 -0.000000 1.000000 63 39 23
0.887686 7.978868 0.857373 0.000000 -0.000000 1.000000 63 39 23
0.850669 7.725129 0.857373 0.000000 -0.000000 1.000000 63 39 23
1.104408 7.688112 0.857373 0.000000 -0.000000 1.000000 63 39 23
0.850669 7.725129 -0.841495 -0.989526 0.144356 -0.000000 63 39 23
0.850669 7.725129 0.857373 -0.989526 0.144356 -0.000000 63 39 23
0.887686 7.978868 0.857373 -0.989526 0.144356 -0.000000 63 39 23
0.887686 7.978868 -0.841495 -0.989526 0.144356 -0.000000 63 39 23
0.850669 7.725129 -0.841495 -0.144356 -0.989526 -0.000000 63 39 23
1.104408 7.688112 -0.841495 -0.144356 -0.989526 -0.000000 63 39 23
1.104408 7.688112 0.857373 -0.144356 -0.989526 -0.000000 63 39 23
0.850669 7.725129 0.857373 -0.144356 -0.989526 -0.000000 63 39 23
0.887686 7.978868 0.857373 0.144358 0.989525 0.000000 63 39 23
1.141424 7.941851 0.857373 0.144358 0.989525 0.000000 63 39 23
1.141424 7.941851 -0.841495 0.144358 0.989525 0.000000 63 39 23
0.887686 7.978868 -0.841495 0.144358 0.989525 0.000000 63 39 23
1.007741 8.162559 -0.806139 0.000000 0.000000 -1.000000 63 39 23
1.271487 8.124056 -0.806139 0.000000 0.000000 -1.000000 63 39 23
0.676955 3.530338 -0.806139 0.000000 0.000000 -1.000000 63 39 23
0.413208 3.568841 -0.806139 0.000000 0.000000 -1.000000 63 39 23
1.271487 8.124056 -0.806139 0.991729 -0.128352 0.000000 63 39 23
1.271487 8.124056 -0.539597 0.991729 -0.128352 0.000000 63 39 23
0.676955 3.530338 -0.539597 0.991729 -0.128352 0.000000 63 39 23
0.676955 3.530338 -0.806139 0.991729 -0.128352 0.000000 63 39 23
1.271487 8.124056 -0.539597 0.000000 0.000000 1.000000 63 39 23
1.007741 8.162559 -0.539597 0.000000 0.000000 1.000000 63 39 23
0.413208 3.568841 -0.539597 0.000000 0.000000 1.000000 63 39 23
0.676955 3.530338 -0.539597 0.000000 0.000000 1.000000 63 39 23
1.007741 8.162559 -0.539597 -0.991729 0.128352 0.000000 63 39 23
1.007741 8.162559 -0.806139 -0.991729 0.128352 0.000000 63 39 23
0.413208 3.568841 -0.806139 -0.991729 0.128352 0.000000 63 39 23
0.413208 3.568841 -0.539597 -0.991729 0.128352 0.000000 63 39 23
0.413208 3.568841 -0.806139 -0.144456 -0.989511 0.000000 255 255 255
0.676955 3.530338 -0.806139 -0.144456 -0.989511 0.000000 255 255 255
0.676955 3.530338 -0.539597 -0.144456 -0.989511 0.000000 255 255 255
0.413208 3.568841 -0.539597 -0.144456 -0.989511 0.000000 255 255 255
1.007741 8.162559 -0.539597 0.144453 0.989512 0.000000 63 39 23
1.271487 8.124056 -0.539597 0.144453 0.989512 0.000000 63 39 23
1.271487 8.124056 -0.806139 0.144453 0.989512 0.000000 63 39 23
1.007741 8.162559 -0.806139 0.144453 0.989512 0.000000 63 39 23
1.007740 8.162559 0.530394 0.000000 0.000000 -1.000000 63 39 23
1.271487 8.124056 0.530394 0.000000 0.000000 -1.000000 63 39 23
0.676955 3.530338 0.530394 0.000000 0.000000 -1.000000 63 39 23
0.413208 3.568841 0.530394 0.000000 0.000000 -1.000000 63 39 23
1.271487 8.124056 0.530394 0.991729 -0.128352 0.000000 63 39 23
1.271487 8.124056 0.796936 0.991729 -0.128352 0.000000 63 39 23
0.676955 3.530338 0.796936 0.991729 -0.128352 0.000000 63 39 23
0.676955 3.530338 0.530394 0.991729 -0.128352 0.000000 63 39 23
1.271487 8.124056 0.796936 0.000000 0.000000 1.000000 63 39 23
1.007740 8.162559 0.796936 0.000000 0.000000 1.000000 63 39 23
0.413208 3.568841 0.796936 0.000000 0.000000 1.000000 63 39 23
0.676955 3.530338 0.796936 0.000000 0.000000 1.000000 63 39 23
1.007740 8.162559 0.796936 -0.991729 0.128352 0.000000 63 39 23
1.007740 8.162559 0.530394 -0.991729 0.128352 0.000000 63 39 23
0.413208 3.568841 0.530394 -0.991729 0.128352 0.000000 63 39 23
0.413208 3.568841 0.796936 -0.991729 0.128352 0.000000 63 39 23
0.413208 3.568841 0.530394 -0.144455 -0.989511 0.000000 255 255 255
0.676955 3.530338 0.530394 -0.144455 -0.989511 0.000000 255 255 255
0.676955 3.530338 0.796936 -0.144455 -0.989511 0.000000 255 255 255
0.413208 3.568841 0.796936 -0.144455 -0.989511 0.000000 255 255 255
1.007740 8.162559 0.796936 0.144453 0.989512 0.000000 63 39 23
1.271487 8.124056 0.796936 0.144453 0.989512 0.000000 63 39 23
1.271487 8.124056 0.530394 0.144453 0.989512 0.000000 63 39 23
1.007740 8.162559 0.530394 0.144453 0.989512 0.000000 63 39 23
0.727567 6.815669 -0.856593 -0.000000 -0.109119 -0.994029 63 39 23
0.981305 6.778874 -0.852554 -0.000000 -0.109119 -0.994029 63 39 23
0.944289 6.526650 -0.824866 -0.000000 -0.109119 -0.994029 63 39 23
0.690551 6.563446 -0.828905 -0.000000 -0.109119 -0.994029 63 39 23
0.981305 6.778874 -0.852554 0.989526 -0.143494 0.015752 63 39 23
0.981305 6.964253 0.836170 0.989526 -0.143494 0.015752 63 39 23
0.944289 6.712030 0.863858 0.989526 -0.143494 0.015752 63 39 23
0.944289 6.526650 -0.824866 0.989526 -0.143494 0.015752 63 39 23
0.981305 6.964253 0.836170 -0.000000 0.109119 0.994029 63 39 23
0.727567 7.001048 0.832131 -0.000000 0.109119 0.994029 63 39 23
0.690550 6.748825 0.859819 -0.000000 0.109119 0.994029 63 39 23
0.944289 6.712030 0.863858 -0.000000 0.109119 0.994029 63 39 23
0.727567 7.001048 0.832131 -0.989526 0.143495 -0.015752 63 39 23
0.727567 6.815669 -0.856593 -0.989526 0.143495 -0.015752 63 39 23
0.690551 6.563446 -0.828905 -0.989526 0.143495 -0.015752 63 39 23
0.690550 6.748825 0.859819 -0.989526 0.143495 -0.015752 63 39 23
0.690551 6.563446 -0.828905 -0.144356 -0.983617 0.107976 63 39 23
0.944289 6.526650 -0.824866 -0.144356 -0.983617 0.107976 63 39 23
0.944289 6.712030 0.863858 -0.144356 -0.983617 0.107976 63 39 23
0.690550 6.748825 0.859819 -0.144356 -0.983617 0.107976 63 39 23
0.727567 7.001048 0.832131 0.144354 0.983617 -0.107976 63 39 23
0.981305 6.964253 0.836170 0.144354 0.983617 -0.107976 63 39 23
0.981305 6.778874 -0.852554 0.144354 0.983617 -0.107976 63 39 23
0.727567 6.815669 -0.856593 0.144354 0.983617 -0.107976 63 39 23
0.559717 5.599897 -0.828635 -0.000000 0.085250 -0.996360 63 39 23
0.813456 5.563016 -0.831790 -0.000000 0.085250 -0.996360 63 39 23
0.776439 5.310201 -0.853422 -0.000000 0.085250 -0.996360 63 39 23
0.522701 5.347083 -0.850266 -0.000000 0.085250 -0.996360 63 39 23
0.813456 5.563016 -0.831790 0.989526 -0.143831 -0.012306 63 39 23
0.813456 5.418187 0.860893 0.989526 -0.143831 -0.012306 63 39 23
0.776439 5.165372 0.839262 0.989526 -0.143831 -0.012306 63 39 23
0.776439 5.310201 -0.853422 0.989526 -0.143831 -0.012306 63 39 23
0.813456 5.418187 0.860893 -0.000000 -0.085250 0.996360 63 39 23
0.559717 5.455069 0.864049 -0.000000 -0.085250 0.996360 63 39 23
0.522701 5.202254 0.842418 -0.000000 -0.085250 0.996360 63 39 23
0.776439 5.165372 0.839262 -0.000000 -0.085250 0.996360 63 39 23
0.559717 5.455069 0.864049 -0.989526 0.143831 0.012306 63 39 23
0.559717 5.599897 -0.828635 -0.989526 0.143831 0.012306 63 39 23
0.522701 5.347083 -0.850266 -0.989526 0.143831 0.012306 63 39 23
0.522701 5.202254 0.842418 -0.989526 0.143831 0.012306 63 39 23
0.522701 5.347083 -0.850266 -0.144357 -0.985923 -0.084357 63 39 23
0.776439 5.310201 -0.853422 -0.144357 -0.985923 -0.084357 63 39 23
0.776439 5.165372 0.839262 -0.144357 -0.985923 -0.084357 63 39 23
0.522701 5.202254 0.842418 -0.144357 -0.985923 -0.084357 63 39 23
0.559717 5.455069 0.864049 0.144356 0.985924 0.084357 63 39 23
0.813456 5.418187 0.860893 0.144356 0.985924 0.084357 63 39 23
0.813456 5.563016 -0.831790 0.144356 0.985924 0.084357 63 39 23
0.559717 5.599897 -0.828635 0.144356 0.985924 0.084357 63 39 23
0.413070 4.268756 -0.841495 0.000000 0.000000 -1.000000 63 39 23
0.666809 4.231740 -0.841495 0.000000 0.000000 -1.000000 63 39 23
0.629792 3.978002 -0.841495 0.000000 0.000000 -1.000000 63 39 23
0.376054 4.015018 -0.841495 0.000000 0.000000 -1.000000 63 39 23
0.666809 4.231740 -0.841495 0.989526 -0.144356 0.000000 63 39 23
0.666809 4.231740 0.857373 0.989526 -0.144356 0.000000 63 39 23
0.629792 3.978002 0.857373 0.989526 -0.144356 0.000000 63 39 23
0.629792 3.978002 -0.841495 0.989526 -0.144356 0.000000 63 39 23
0.666809 4.231740 0.857373 0.000000 -0.000000 1.000000 63 39 23
0.413070 4.268756 0.857373 0.000000 -0.000000 1.000000 63 39 23
0.376054 4.015018 0.857373 0.000000 -0.000000 1.000000 63 39 23
0.629792 3.978002 0.857373 0.000000 -0.000000 1.000000 63 39 23
0.413070 4.268756 0.857373 -0.989526 0.144356 0.000000 63 39 23
0.413070 4.268756 -0.841495 -0.989526 0.144356 0.000000 63 39 23
0.376054 4.015018 -0.841495 -0.989526 0.144356 0.000000 63 39 23
0.376054 4.015018 0.857373 -0.989526 0.144356 0.000000 63 39 23
0.376054 4.015018 -0.841495 -0.144356 -0.989526 0.000000 63 39 23
0.629792 3.978002 -0.841495 -0.144356 -0.989526 0.000000 63 39 23
0.629792 3.978002 0.857373 -0.144356 -0.989526 0.000000 245 244 244
0.376054 4.015018 0.857373 -0.144356 -0.989526 0.000000 219 215 212
0.413070 4.268756 0.857373 0.144356 0.989526 0.000000 63 39 23
0.666809 4.231740 0.857373 0.144356 0.989526 0.000000 63 39 23
0.666809 4.231740 -0.841495 0.144356 0.989526 0.000000 63 39 23
0.413070 4.268756 -0.841495 0.144356 0.989526 0.000000 63 39 23
0.323492 3.649463 -0.841495 0.000000 0.000000 -1.000000 63 39 23
0.577231 3.612447 -0.841495 0.000000 0.000000 -1.000000 63 39 23
0.540214 3.358708 -0.841495 0.000000 0.000000 -1.000000 63 39 23
0.286476 3.395725 -0.841495 0.000000 0.000000 -1.000000 63 39 23
0.577231 3.612447 -0.841495 0.989526 -0.144357 0.000000 63 39 23
0.577231 3.612447 0.857373 0.989526 -0.144357 0.000000 63 39 23
0.540214 3.358708 0.857373 0.989526 -0.144357 0.000000 63 39 23
0.540214 3.358708 -0.841495 0.989526 -0.144357 0.000000 63 39 23
0.577231 3.612447 0.857373 0.000000 -0.000000 1.000000 63 39 23
0.323492 3.649463 0.857373 0.000000 -0.000000 1.000000 63 39 23
0.286476 3.395725 0.857373 0.000000 -0.000000 1.000000 63 39 23
0.540214 3.358708 0.857373 0.000000 -0.000000 1.000000 63 39 23
0.323492 3.649463 0.857373 -0.989526 0.144356 -0.000000 63 39 23
0.323492 3.649463 -0.841495 -0.989526 0.144356 -0.000000 63 39 23
0.286476 3.395725 -0.841495 -0.989526 0.144356 -0.000000 63 39 23
0.286476 3.395725 0.857373 -0.989526 0.144356 -0.000000 63 39 23
0.286476 3.395725 -0.841495 -0.144356 -0.989526 -0.000000 63 39 23
0.540214 3.358708 -0.841495 -0.144356 -0.989526 -0.000000 63 39 23
0.540214 3.358708 0.857373 -0.144356 -0.989526 -0.000000 63 39 23
0.286476 3.395725 0.857373 -0.144356 -0.989526 -0.000000 63 39 23
0.323492 3.649463 0.857373 0.144356 0.989526 0.000000 63 39 23
0.577231 3.612447 0.857373 0.144356 0.989526 0.000000 63 39 23
0.577231 3.612447 -0.841495 0.144356 0.989526 0.000000 63 39 23
0.323492 3.649463 -0.841495 0.144356 0.989526 0.000000 63 39 23
0.443547 3.833155 -0.806139 0.000000 0.000000 -1.000000 63 39 23
0.707293 3.794652 -0.806139 0.000000 0.000000 -1.000000 63 39 23
0.112761 -0.799066 -0.806139 0.000000 0.000000 -1.000000 63 39 23
-0.150985 -0.760563 -0.806139 0.000000 0.000000 -1.000000 63 39 23
0.707293 3.794652 -0.806139 0.991729 -0.128352 0.000000 63 39 23
0.707293 3.794652 -0.539597 0.991729 -0.128352 0.000000 63 39 23
0.112761 -0.799066 -0.539597 0.991729 -0.128352 0.000000 63 39 23
0.112761 -0.799066 -0.806139 0.991729 -0.128352 0.000000 63 39 23
0.707293 3.794652 -0.539597 0.000000 0.000000 1.000000 63 39 23
0.443547 3.833155 -0.539597 0.000000 0.000000 1.000000 63 39 23
-0.150985 -0.760563 -0.539597 0.000000 0.000000 1.000000 63 39 23
0.112761 -0.799066 -0.539597 0.000000 0.000000 1.000000 63 39 23
0.443547 3.833155 -0.539597 -0.991729 0.128352 -0.000000 63 39 23
0.443547 3.833155 -0.806139 -0.991729 0.128352 -0.000000 63 39 23
-0.150985 -0.760563 -0.806139 -0.991729 0.128352 -0.000000 63 39 23
-0.150985 -0.760563 -0.539597 -0.991729 0.128352 -0.000000 63 39 23
-0.150985 -0.760563 -0.806139 -0.144455 -0.989511 -0.000000 255 255 255
0.112761 -0.799066 -0.806139 -0.144455 -0.989511 -0.000000 255 255 255
0.112761 -0.799066 -0.539597 -0.144455 -0.989511 -0.000000 255 255 255
-0.150985 -0.760563 -0.539597 -0.144455 -0.989511 -0.000000 255 255 255
0.443547 3.833155 -0.539597 0.144456 0.989511 0.000000 63 39 23
0.707293 3.794652 -0.539597 0.144456 0.989511 0.000000 63 39 23
0.707293 3.794652 -0.806139 0.144456 0.989511 0.000000 63 39 23
0.443547 3.833155 -0.806139 0.144456 0.989511 0.000000 63 39 23
0.443547 3.833156 0.530394 0.000000 0.000000 -1.000000 63 39 23
0.707293 3.794652 0.530394 0.000000 0.000000 -1.000000 63 39 23
0.112761 -0.799066 0.530394 0.000000 0.000000 -1.000000 63 39 23
-0.150985 -0.760563 0.530394 0.000000 0.000000 -1.000000 63 39 23
0.707293 3.794652 0.530394 0.991729 -0.128352 0.000000 63 39 23
0.707293 3.794652 0.796936 0.991729 -0.128352 0.000000 63 39 23
0.112761 -0.799066 0.796936 0.991729 -0.128352 0.000000 63 39 23
0.112761 -0.799066 0.530394 0.991729 -0.128352 0.000000 63 39 23
0.707293 3.794652 0.796936 0.000000 0.000000 1.000000 63 39 23
0.443547 3.833156 0.796936 0.000000 0.000000 1.000000 63 39 23
-0.150985 -0.760563 0.796936 0.000000 0.000000 1.000000 63 39 23
0.112761 -0.799066 0.796936 0.000000 0.000000 1.000000 63 39 23
0.443547 3.833156 0.796936 -0.991729 0.128352 -0.000000 63 39 23
0.443547 3.833156 0.530394 -0.991729 0.128352 -0.000000 63 39 23
-0.150985 -0.760563 0.530394 -0.991729 0.128352 -0.000000 63 39 23
-0.150985 -0.760563 0.796936 -0.991729 0.128352 -0.000000 63 39 23
-0.150985 -0.760563 0.530394 -0.144455 -0.989511 -0.000000 255 255 255
0.112761 -0.799066 0.530394 -0.144455 -0.989511 -0.000000 255 255 255
0.112761 -0.799066 0.796936 -0.144455 -0.989511 -0.000000 255 255 255
-0.150985 -0.760563 0.796936 -0.144455 -0.989511 -0.000000 255 255 255
0.443547 3.833156 0.796936 0.144458 0.989511 0.000000 63 39 23
0.707293 3.794652 0.796936 0.144458 0.989511 0.000000 63 39 23
0.707293 3.794652 0.530394 0.144458 0.989511 0.000000 63 39 23
0.443547 3.833156 0.530394 0.144458 0.989511 0.000000 63 39 23
0.163374 2.486265 -0.856593 -0.000000 -0.109119 -0.994029 63 39 23
0.417112 2.449469 -0.852554 -0.000000 -0.109119 -0.994029 63 39 23
0.380095 2.197246 -0.824866 -0.000000 -0.109119 -0.994029 63 39 23
0.126357 2.234042 -0.828905 -0.000000 -0.109119 -0.994029 63 39 23
0.417112 2.449469 -0.852554 0.989526 -0.143494 0.015752 63 39 23
0.417112 2.634849 0.836170 0.989526 -0.143494 0.015752 63 39 23
0.380095 2.382626 0.863858 0.989526 -0.143494 0.015752 63 39 23
0.380095 2.197246 -0.824866 0.989526 -0.143494 0.015752 63 39 23
0.417112 2.634849 0.836170 0.000000 0.109119 0.994029 63 39 23
0.163373 2.671644 0.832131 0.000000 0.109119 0.994029 63 39 23
0.126357 2.419421 0.859819 0.000000 0.109119 0.994029 63 39 23
0.380095 2.382626 0.863858 0.000000 0.109119 0.994029 63 39 23
0.163373 2.671644 0.832131 -0.989526 0.143494 -0.015752 63 39 23
0.163374 2.486265 -0.856593 -0.989526 0.143494 -0.015752 63 39 23
0.126357 2.234042 -0.828905 -0.989526 0.143494 -0.015752 63 39 23
0.126357 2.419421 0.859819 -0.989526 0.143494 -0.015752 63 39 23
0.126357 2.234042 -0.828905 -0.144356 -0.983617 0.107976 63 39 23
0.380095 2.197246 -0.824866 -0.144356 -0.983617 0.107976 63 39 23
0.380095 2.382626 0.863858 -0.144356 -0.983617 0.107976 63 39 23
0.126357 2.419421 0.859819 -0.144356 -0.983617 0.107976 63 39 23
0.163373 2.671644 0.832131 0.144357 0.983617 -0.107976 63 39 23
0.417112 2.634849 0.836170 0.144357 0.983617 -0.107976 63 39 23
0.417112 2.449469 -0.852554 0.144357 0.983617 -0.107976 63 39 23
0.163374 2.486265 -0.856593 0.144357 0.983617 -0.107976 63 39 23
-0.004476 1.270493 -0.828635 -0.000000 0.085250 -0.996360 63 39 23
0.249262 1.233611 -0.831790 -0.000000 0.085250 -0.996360 63 39 23
0.212246 0.980797 -0.853422 -0.000000 0.085250 -0.996360 63 39 23
-0.041493 1.017678 -0.850266 -0.000000 0.085250 -0.996360 63 39 23
0.249262 1.233611 -0.831790 0.989526 -0.143831 -0.012306 63 39 23
0.249262 1.088783 0.860893 0.989526 -0.143831 -0.012306 63 39 23
0.212246 0.835968 0.839262 0.989526 -0.143831 -0.012306 63 39 23
0.212246 0.980797 -0.853422 0.989526 -0.143831 -0.012306 63 39 23
0.249262 1.088783 0.860893 -0.000000 -0.085250 0.996360 63 39 23
-0.004476 1.125665 0.864049 -0.000000 -0.085250 0.996360 63 39 23
-0.041493 0.872850 0.842418 -0.000000 -0.085250 0.996360 63 39 23
0.212246 0.835968 0.839262 -0.000000 -0.085250 0.996360 63 39 23
-0.004476 1.125665 0.864049 -0.989526 0.143831 0.012306 63 39 23
-0.004476 1.270493 -0.828635 -0.989526 0.143831 0.012306 63 39 23
-0.041493 1.017678 -0.850266 -0.989526 0.143831 0.012306 63 39 23
-0.041493 0.872850 0.842418 -0.989526 0.143831 0.012306 63 39 23
-0.041493 1.017678 -0.850266 -0.144356 -0.985924 -0.084357 63 39 23
0.212246 0.980797 -0.853422 -0.144356 -0.985924 -0.084357 63 39 23
0.212246 0.835968 0.839262 -0.144356 -0.985924 -0.084357 63 39 23
-0.041493 0.872850 0.842418 -0.144356 -0.985924 -0.084357 63 39 23
-0.004476 1.125665 0.864049 0.144357 0.985923 0.084357 63 39 23
0.249262 1.088783 0.860893 0.144357 0.985923 0.084357 63 39 23
0.249262 1.233611 -0.831790 0.144357 0.985923 0.084357 63 39 23
-0.004476 1.270493 -0.828635 0.144357 0.985923 0.084357 63 39 23
-0.151123 -0.060648 -0.841495 0.000000 0.000000 -1.000000 63 39 23
0.102615 -0.097664 -0.841495 0.000000 0.000000 -1.000000 63 39 23
0.065599 -0.351402 -0.841495 0.000000 0.000000 -1.000000 63 39 23
-0.188140 -0.314386 -0.841495 0.000000 0.000000 -1.000000 63 39 23
0.102615 -0.097664 -0.841495 0.989526 -0.144356 0.000000 63 39 23
0.102615 -0.097664 0.857374 0.989526 -0.144356 0.000000 63 39 23
0.065599 -0.351402 0.857374 0.989526 -0.144356 0.000000 63 39 23
0.065599 -0.351402 -0.841495 0.989526 -0.144356 0.000000 63 39 23
0.102615 -0.097664 0.857374 0.000000 -0.000000 1.000000 63 39 23
-0.151123 -0.060648 0.857374 0.000000 -0.000000 1.000000 63 39 23
-0.188140 -0.314386 0.857374 0.000000 -0.000000 1.000000 63 39 23
0.065599 -0.351402 0.857374 0.000000 -0.000000 1.000000 63 39 23
-0.151123 -0.060648 0.857374 -0.989526 0.144356 0.000000 63 39 23
-0.151123 -0.060648 -0.841495 -0.989526 0.144356 0.000000 63 39 23
-0.188140 -0.314386 -0.841495 -0.989526 0.144356 0.000000 63 39 23
-0.188140 -0.314386 0.857374 -0.989526 0.144356 0.000000 63 39 23
-0.188140 -0.314386 -0.841495 -0.144356 -0.989526 0.000000 63 39 23
0.065599 -0.351402 -0.841495 -0.144356 -0.989526 0.000000 63 39 23
0.065599 -0.351402 0.857374 -0.144356 -0.989526 0.000000 245 244 244
-0.188140 -0.314386 0.857374 -0.144356 -0.989526 0.000000 219 215 212
-0.151123 -0.060648 0.857374 0.144356 0.989526 0.000000 63 39 23
0.102615 -0.097664 0.857374 0.144356 0.989526 0.000000 63 39 23
0.102615 -0.097664 -0.841495 0.144356 0.989526 0.000000 63 39 23
-0.151123 -0.060648 -0.841495 0.144356 0.989526 0.000000 63 39 23
4 0 1 2 3
4 4 5 6 7
4 8 9 10 11
4 12 13 14 15
4 16 17 18 19
4 20 21 22 23
4 24 25 26 27
4 28 29 30 31
4 32 33 34 35
4 36 37 38 39
4 40 41 42 43
4 44 45 46 47
4 48 49 50 51
4 52 53 54 55
4 56 57 58 59
4 60 61 62 63
4 64 65 66 67
4 68 69 70 71
4 72 73 74 75
4 76 77 78 79
4 80 81 82 83
4 84 85 86 87
4 88 89 90 91
4 92 93 94 95
4 96 97 98 99
4 100 101 102 103
4 104 105 106 107
4 108 109 110 111
4 112 113 114 115
4 116 117 118 119
4 120 121 122 123
4 124 125 126 127
4 128 129 130 131
4 132 133 134 135
4 136 137 138 139
4 140 141 142 143
4 144 145 146 147
4 148 149 150 151
4 152 153 154 155
4 156 157 158 159
4 160 161 162 163
4 164 165 166 167
4 168 169 170 171
4 172 173 174 175
4 176 177 178 179
4 180 181 182 183
4 184 185 186 187
4 188 189 190 191
4 192 193 194 195
4 196 197 198 199
4 200 201 202 203
4 204 205 206 207
4 208 209 210 211
4 212 213 214 215
4 216 217 218 219
4 220 221 222 223
4 224 225 226 227
4 228 229 230 231
4 232 233 234 235
4 236 237 238 239
4 240 241 242 243
4 244 245 246 247
4 248 249 250 251
4 252 253 254 255
4 256 257 258 259
4 260 261 262 263
4 264 265 266 267
4 268 269 270 271
4 272 273 274 275
4 276 277 278 279
4 280 281 282 283
4 284 285 286 287
