ply
format ascii 1.0
comment Created by Blender 2.73 (sub 0) - www.blender.org, source file: 'ladder_combined.blend'
element vertex 144
property float x
property float y
property float z
property float nx
property float ny
property float nz
property uchar red
property uchar green
property uchar blue
element face 36
property list uchar uint vertex_indices
end_header
1.108219 2.266410 -0.841495 0.000000 -0.000000 -1.000000 63 39 23
0.854480 2.303426 -0.841495 0.000000 -0.000000 -1.000000 63 39 23
0.891497 2.557165 -0.841495 0.000000 -0.000000 -1.000000 63 39 23
1.145235 2.520148 -0.841495 0.000000 -0.000000 -1.000000 63 39 23
1.145235 2.520148 -0.841495 0.989526 -0.144357 0.000000 63 39 23
1.145235 2.520148 0.857373 0.989526 -0.144357 0.000000 63 39 23
1.108219 2.266410 0.857373 0.989526 -0.144357 0.000000 63 39 23
1.108219 2.266410 -0.841495 0.989526 -0.144357 0.000000 63 39 23
1.145235 2.520148 0.857373 0.000000 -0.000000 1.000000 63 39 23
0.891497 2.557165 0.857373 0.000000 -0.000000 1.000000 63 39 23
0.854480 2.303426 0.857373 0.000000 -0.000000 1.000000 63 39 23
1.108219 2.266410 0.857373 0.000000 -0.000000 1.000000 63 39 23
0.854480 2.303426 -0.841495 -0.989526 0.144356 -0.000000 63 39 23
0.854480 2.303426 0.857373 -0.989526 0.144356 -0.000000 63 39 23
0.891497 2.557165 0.857373 -0.989526 0.144356 -0.000000 63 39 23
0.891497 2.557165 -0.841495 -0.989526 0.144356 -0.000000 63 39 23
0.854480 2.303426 -0.841495 -0.144356 -0.989526 -0.000000 63 39 23
1.108219 2.266410 -0.841495 -0.144356 -0.989526 -0.000000 63 39 23
1.108219 2.266410 0.857373 -0.144356 -0.989526 -0.000000 63 39 23
0.854480 2.303426 0.857373 -0.144356 -0.989526 -0.000000 63 39 23
0.891497 2.557165 0.857373 0.144356 0.989526 0.000000 63 39 23
1.145235 2.520148 0.857373 0.144356 0.989526 0.000000 63 39 23
1.145235 2.520148 -0.841495 0.144356 0.989526 0.000000 63 39 23
0.891497 2.557165 -0.841495 0.144356 0.989526 0.000000 63 39 23
1.011552 2.740857 -0.806139 0.000000 0.000000 -1.000000 63 39 23
1.275298 2.702353 -0.806139 0.000000 0.000000 -1.000000 63 39 23
0.680766 -1.891364 -0.806139 0.000000 0.000000 -1.000000 63 39 23
0.417019 -1.852861 -0.806139 0.000000 0.000000 -1.000000 63 39 23
1.275298 2.702353 -0.806139 0.991729 -0.128352 0.000000 63 39 23
1.275298 2.702353 -0.539597 0.991729 -0.128352 0.000000 63 39 23
0.680766 -1.891364 -0.539597 0.991729 -0.128352 0.000000 63 39 23
0.680766 -1.891364 -0.806139 0.991729 -0.128352 0.000000 63 39 23
1.275298 2.702353 -0.539597 0.000000 0.000000 1.000000 63 39 23
1.011552 2.740857 -0.539597 0.000000 0.000000 1.000000 63 39 23
0.417019 -1.852861 -0.539597 0.000000 0.000000 1.000000 63 39 23
0.680766 -1.891364 -0.539597 0.000000 0.000000 1.000000 63 39 23
1.011552 2.740857 -0.539597 -0.991729 0.128352 0.000000 63 39 23
1.011552 2.740857 -0.806139 -0.991729 0.128352 0.000000 63 39 23
0.417019 -1.852861 -0.806139 -0.991729 0.128352 0.000000 63 39 23
0.417019 -1.852861 -0.539597 -0.991729 0.128352 0.000000 63 39 23
0.417019 -1.852861 -0.806139 -0.144455 -0.989511 -0.000000 255 255 255
0.680766 -1.891364 -0.806139 -0.144455 -0.989511 -0.000000 255 255 255
0.680766 -1.891364 -0.539597 -0.144455 -0.989511 -0.000000 255 255 255
0.417019 -1.852861 -0.539597 -0.144455 -0.989511 -0.000000 255 255 255
1.011552 2.740857 -0.539597 0.144456 0.989511 0.000000 63 39 23
1.275298 2.702353 -0.539597 0.144456 0.989511 0.000000 63 39 23
1.275298 2.702353 -0.806139 0.144456 0.989511 0.000000 63 39 23
1.011552 2.740857 -0.806139 0.144456 0.989511 0.000000 63 39 23
1.011552 2.740858 0.530394 0.000000 0.000000 -1.000000 63 39 23
1.275298 2.702353 0.530394 0.000000 0.000000 -1.000000 63 39 23
0.680766 -1.891364 0.530394 0.000000 0.000000 -1.000000 63 39 23
0.417019 -1.852861 0.530394 0.000000 0.000000 -1.000000 63 39 23
1.275298 2.702353 0.530394 0.991729 -0.128352 0.000000 63 39 23
1.275298 2.702353 0.796936 0.991729 -0.128352 0.000000 63 39 23
0.680766 -1.891364 0.796936 0.991729 -0.128352 0.000000 63 39 23
0.680766 -1.891364 0.530394 0.991729 -0.128352 0.000000 63 39 23
1.275298 2.702353 0.796936 0.000000 0.000000 1.000000 63 39 23
1.011551 2.740858 0.796936 0.000000 0.000000 1.000000 63 39 23
0.417019 -1.852861 0.796936 0.000000 0.000000 1.000000 63 39 23
0.680766 -1.891364 0.796936 0.000000 0.000000 1.000000 63 39 23
1.011551 2.740858 0.796936 -0.991729 0.128352 -0.000000 63 39 23
1.011552 2.740858 0.530394 -0.991729 0.128352 -0.000000 63 39 23
0.417019 -1.852861 0.530394 -0.991729 0.128352 -0.000000 63 39 23
0.417019 -1.852861 0.796936 -0.991729 0.128352 -0.000000 63 39 23
0.417019 -1.852861 0.530394 -0.144455 -0.989511 -0.000000 255 255 255
0.680766 -1.891364 0.530394 -0.144455 -0.989511 -0.000000 255 255 255
0.680766 -1.891364 0.796936 -0.144455 -0.989511 -0.000000 255 255 255
0.417019 -1.852861 0.796936 -0.144455 -0.989511 -0.000000 255 255 255
1.011551 2.740858 0.796936 0.144458 0.989511 0.000000 63 39 23
1.275298 2.702353 0.796936 0.144458 0.989511 0.000000 63 39 23
1.275298 2.702353 0.530394 0.144458 0.989511 0.000000 63 39 23
1.011552 2.740858 0.530394 0.144458 0.989511 0.000000 63 39 23
0.731378 1.393967 -0.856593 -0.000000 -0.109119 -0.994029 63 39 23
0.985116 1.357171 -0.852554 -0.000000 -0.109119 -0.994029 63 39 23
0.948100 1.104948 -0.824866 -0.000000 -0.109119 -0.994029 63 39 23
0.694362 1.141744 -0.828905 -0.000000 -0.109119 -0.994029 63 39 23
0.985116 1.357171 -0.852554 0.989526 -0.143495 0.015752 63 39 23
0.985116 1.542550 0.836170 0.989526 -0.143495 0.015752 63 39 23
0.948100 1.290327 0.863858 0.989526 -0.143495 0.015752 63 39 23
0.948100 1.104948 -0.824866 0.989526 -0.143495 0.015752 63 39 23
0.985116 1.542550 0.836170 0.000000 0.109119 0.994029 63 39 23
0.731378 1.579346 0.832131 0.000000 0.109119 0.994029 63 39 23
0.694361 1.327123 0.859819 0.000000 0.109119 0.994029 63 39 23
0.948100 1.290327 0.863858 0.000000 0.109119 0.994029 63 39 23
0.731378 1.579346 0.832131 -0.989526 0.143494 -0.015752 63 39 23
0.731378 1.393967 -0.856593 -0.989526 0.143494 -0.015752 63 39 23
0.694362 1.141744 -0.828905 -0.989526 0.143494 -0.015752 63 39 23
0.694361 1.327123 0.859819 -0.989526 0.143494 -0.015752 63 39 23
0.694362 1.141744 -0.828905 -0.144356 -0.983617 0.107976 63 39 23
0.948100 1.104948 -0.824866 -0.144356 -0.983617 0.107976 63 39 23
0.948100 1.290327 0.863858 -0.144356 -0.983617 0.107976 63 39 23
0.694361 1.327123 0.859819 -0.144356 -0.983617 0.107976 63 39 23
0.731378 1.579346 0.832131 0.144357 0.983617 -0.107976 63 39 23
0.985116 1.542550 0.836170 0.144357 0.983617 -0.107976 63 39 23
0.985116 1.357171 -0.852554 0.144357 0.983617 -0.107976 63 39 23
0.731378 1.393967 -0.856593 0.144357 0.983617 -0.107976 63 39 23
0.563528 0.178195 -0.828635 -0.000000 0.085250 -0.996360 63 39 23
0.817267 0.141313 -0.831790 -0.000000 0.085250 -0.996360 63 39 23
0.780250 -0.111502 -0.853422 -0.000000 0.085250 -0.996360 63 39 23
0.526512 -0.074620 -0.850266 -0.000000 0.085250 -0.996360 63 39 23
0.817267 0.141313 -0.831790 0.989526 -0.143831 -0.012306 63 39 23
0.817267 -0.003515 0.860893 0.989526 -0.143831 -0.012306 63 39 23
0.780250 -0.256330 0.839262 0.989526 -0.143831 -0.012306 63 39 23
0.780250 -0.111502 -0.853422 0.989526 -0.143831 -0.012306 63 39 23
0.817267 -0.003515 0.860893 -0.000000 -0.085250 0.996360 63 39 23
0.563528 0.033367 0.864049 -0.000000 -0.085250 0.996360 63 39 23
0.526512 -0.219448 0.842418 -0.000000 -0.085250 0.996360 63 39 23
0.780250 -0.256330 0.839262 -0.000000 -0.085250 0.996360 63 39 23
0.563528 0.033367 0.864049 -0.989526 0.143831 0.012306 63 39 23
0.563528 0.178195 -0.828635 -0.989526 0.143831 0.012306 63 39 23
0.526512 -0.074620 -0.850266 -0.989526 0.143831 0.012306 63 39 23
0.526512 -0.219448 0.842418 -0.989526 0.143831 0.012306 63 39 23
0.526512 -0.074620 -0.850266 -0.144356 -0.985924 -0.084357 63 39 23
0.780250 -0.111502 -0.853422 -0.144356 -0.985924 -0.084357 63 39 23
0.780250 -0.256330 0.839262 -0.144356 -0.985924 -0.084357 63 39 23
0.526512 -0.219448 0.842418 -0.144356 -0.985924 -0.084357 63 39 23
0.563528 0.033367 0.864049 0.144357 0.985923 0.084357 63 39 23
0.817267 -0.003515 0.860893 0.144357 0.985923 0.084357 63 39 23
0.817267 0.141313 -0.831790 0.144357 0.985923 0.084357 63 39 23
0.563528 0.178195 -0.828635 0.144357 0.985923 0.084357 63 39 23
0.416881 -1.152946 -0.841495 0.000000 0.000000 -1.000000 63 39 23
0.670620 -1.189962 -0.841495 0.000000 0.000000 -1.000000 63 39 23
0.633603 -1.443701 -0.841495 0.000000 0.000000 -1.000000 63 39 23
0.379865 -1.406684 -0.841495 0.000000 0.000000 -1.000000 63 39 23
0.670620 -1.189962 -0.841495 0.989526 -0.144356 0.000000 63 39 23
0.670620 -1.189962 0.857374 0.989526 -0.144356 0.000000 63 39 23
0.633603 -1.443701 0.857374 0.989526 -0.144356 0.000000 63 39 23
0.633603 -1.443701 -0.841495 0.989526 -0.144356 0.000000 63 39 23
0.670620 -1.189962 0.857374 0.000000 -0.000000 1.000000 63 39 23
0.416881 -1.152946 0.857374 0.000000 -0.000000 1.000000 63 39 23
0.379865 -1.406684 0.857374 0.000000 -0.000000 1.000000 63 39 23
0.633603 -1.443701 0.857374 0.000000 -0.000000 1.000000 63 39 23
0.416881 -1.152946 0.857374 -0.989526 0.144356 0.000000 63 39 23
0.416881 -1.152946 -0.841495 -0.989526 0.144356 0.000000 63 39 23
0.379865 -1.406684 -0.841495 -0.989526 0.144356 0.000000 63 39 23
0.379865 -1.406684 0.857374 -0.989526 0.144356 0.000000 63 39 23
0.379865 -1.406684 -0.841495 -0.144356 -0.989526 0.000000 63 39 23
0.633603 -1.443701 -0.841495 -0.144356 -0.989526 0.000000 63 39 23
0.633603 -1.443701 0.857374 -0.144356 -0.989526 0.000000 245 244 244
0.379865 -1.406684 0.857374 -0.144356 -0.989526 0.000000 219 215 212
0.416881 -1.152946 0.857374 0.144356 0.989526 0.000000 63 39 23
0.670620 -1.189962 0.857374 0.144356 0.989526 0.000000 63 39 23
0.670620 -1.189962 -0.841495 0.144356 0.989526 0.000000 63 39 23
0.416881 -1.152946 -0.841495 0.144356 0.989526 0.000000 63 39 23
4 0 1 2 3
4 4 5 6 7
4 8 9 10 11
4 12 13 14 15
4 16 17 18 19
4 20 21 22 23
4 24 25 26 27
4 28 29 30 31
4 32 33 34 35
4 36 37 38 39
4 40 41 42 43
4 44 45 46 47
4 48 49 50 51
4 52 53 54 55
4 56 57 58 59
4 60 61 62 63
4 64 65 66 67
4 68 69 70 71
4 72 73 74 75
4 76 77 78 79
4 80 81 82 83
4 84 85 86 87
4 88 89 90 91
4 92 93 94 95
4 96 97 98 99
4 100 101 102 103
4 104 105 106 107
4 108 109 110 111
4 112 113 114 115
4 116 117 118 119
4 120 121 122 123
4 124 125 126 127
4 128 129 130 131
4 132 133 134 135
4 136 137 138 139
4 140 141 142 143
