ply
format ascii 1.0
comment Created by Blender 2.73 (sub 0) - www.blender.org, source file: 'lantern_separated.blend'
element vertex 264
property float x
property float y
property float z
property float nx
property float ny
property float nz
property uchar red
property uchar green
property uchar blue
element face 66
property list uchar uint vertex_indices
end_header
1.000000 -1.000000 1.000000 0.000000 -1.000000 0.000000 77 71 63
-1.000000 -1.000000 1.000000 0.000000 -1.000000 0.000000 77 71 63
-1.000000 -1.000000 -1.000000 0.000000 -1.000000 0.000000 77 71 63
1.000000 -1.000000 -1.000000 0.000000 -1.000000 0.000000 77 71 63
0.999999 1.000000 1.000000 -0.000000 1.000000 0.000000 77 71 63
1.000000 1.000000 -1.000000 -0.000000 1.000000 0.000000 77 71 63
-1.000000 1.000000 -1.000000 -0.000000 1.000000 0.000000 77 71 63
-1.000001 1.000000 0.999999 -0.000000 1.000000 0.000000 77 71 63
1.000000 -1.000000 1.000000 -0.000000 0.000000 1.000000 77 71 63
0.999999 1.000000 1.000000 -0.000000 0.000000 1.000000 77 71 63
-1.000001 1.000000 0.999999 -0.000000 0.000000 1.000000 77 71 63
-1.000000 -1.000000 1.000000 -0.000000 0.000000 1.000000 77 71 63
-1.000000 -1.000000 1.000000 -1.000000 -0.000000 -0.000000 77 71 63
-1.000001 1.000000 0.999999 -1.000000 -0.000000 -0.000000 77 71 63
-1.000000 1.000000 -1.000000 -1.000000 -0.000000 -0.000000 77 71 63
-1.000000 -1.000000 -1.000000 -1.000000 -0.000000 -0.000000 77 71 63
-1.000000 -1.000000 -1.000000 0.000000 -0.000000 -1.000000 77 71 63
-1.000000 1.000000 -1.000000 0.000000 -0.000000 -1.000000 77 71 63
1.000000 1.000000 -1.000000 0.000000 -0.000000 -1.000000 77 71 63
1.000000 -1.000000 -1.000000 0.000000 -0.000000 -1.000000 77 71 63
0.999999 1.000000 1.000000 1.000000 0.000000 0.000000 77 71 63
1.000000 -1.000000 1.000000 1.000000 0.000000 0.000000 77 71 63
1.000000 -1.000000 -1.000000 1.000000 0.000000 0.000000 77 71 63
1.000000 1.000000 -1.000000 1.000000 0.000000 0.000000 77 71 63
-0.288280 7.539425 -0.288280 0.000000 -1.000000 -0.000000 255 255 255
0.288280 7.539425 -0.288280 0.000000 -1.000000 -0.000000 255 255 255
0.288280 7.539425 0.288280 0.000000 -1.000000 -0.000000 255 255 255
-0.288280 7.539425 0.288280 0.000000 -1.000000 -0.000000 255 255 255
-0.288280 8.290016 -0.288280 0.000000 1.000000 0.000000 212 209 81
-0.288280 8.290016 0.288280 0.000000 1.000000 0.000000 212 209 81
0.288280 8.290016 0.288280 0.000000 1.000000 0.000000 212 209 81
0.288280 8.290016 -0.288280 0.000000 1.000000 0.000000 212 209 81
0.288280 7.539425 0.288280 1.000000 0.000000 0.000000 212 209 81
0.288280 7.539425 -0.288280 1.000000 0.000000 0.000000 212 209 81
0.288280 8.290016 -0.288280 1.000000 0.000000 0.000000 212 209 81
0.288280 8.290016 0.288280 1.000000 0.000000 0.000000 212 209 81
-0.288280 7.539425 0.288280 0.000000 0.000000 1.000000 212 209 81
0.288280 7.539425 0.288280 0.000000 0.000000 1.000000 212 209 81
0.288280 8.290016 0.288280 0.000000 0.000000 1.000000 212 209 81
-0.288280 8.290016 0.288280 0.000000 0.000000 1.000000 212 209 81
-0.288280 7.539425 -0.288280 -1.000000 -0.000000 0.000000 212 209 81
-0.288280 7.539425 0.288280 -1.000000 -0.000000 0.000000 212 209 81
-0.288280 8.290016 0.288280 -1.000000 -0.000000 0.000000 212 209 81
-0.288280 8.290016 -0.288280 -1.000000 -0.000000 0.000000 212 209 81
0.288280 7.539425 -0.288280 0.000000 -0.000000 -1.000000 212 209 81
-0.288280 7.539425 -0.288280 0.000000 -0.000000 -1.000000 212 209 81
-0.288280 8.290016 -0.288280 0.000000 -0.000000 -1.000000 212 209 81
0.288280 8.290016 -0.288280 0.000000 -0.000000 -1.000000 212 209 81
-0.352301 7.535599 -0.351598 0.000000 -1.000000 -0.000000 255 255 255
-0.280231 7.535599 -0.351598 0.000000 -1.000000 -0.000000 255 255 255
-0.280231 7.535599 -0.279528 0.000000 -1.000000 -0.000000 255 255 255
-0.352301 7.535599 -0.279528 0.000000 -1.000000 -0.000000 255 255 255
-0.352301 8.256298 -0.351598 0.000000 1.000000 0.000000 255 255 255
-0.352301 8.256298 -0.279528 0.000000 1.000000 0.000000 255 255 255
-0.280231 8.256298 -0.279528 0.000000 1.000000 0.000000 255 255 255
-0.280231 8.256298 -0.351598 0.000000 1.000000 0.000000 255 255 255
-0.280231 7.535599 -0.279528 1.000000 0.000000 0.000000 38 38 38
-0.280231 7.535599 -0.351598 1.000000 0.000000 0.000000 38 38 38
-0.280231 8.256298 -0.351598 1.000000 0.000000 0.000000 38 38 38
-0.280231 8.256298 -0.279528 1.000000 0.000000 0.000000 38 38 38
-0.352301 7.535599 -0.279528 0.000000 0.000000 1.000000 38 38 38
-0.280231 7.535599 -0.279528 0.000000 0.000000 1.000000 38 38 38
-0.280231 8.256298 -0.279528 0.000000 0.000000 1.000000 38 38 38
-0.352301 8.256298 -0.279528 0.000000 0.000000 1.000000 38 38 38
-0.352301 7.535599 -0.351598 -1.000000 -0.000000 0.000000 38 38 38
-0.352301 7.535599 -0.279528 -1.000000 -0.000000 0.000000 38 38 38
-0.352301 8.256298 -0.279528 -1.000000 -0.000000 0.000000 38 38 38
-0.352301 8.256298 -0.351598 -1.000000 -0.000000 0.000000 38 38 38
-0.280231 7.535599 -0.351598 0.000000 -0.000000 -1.000000 38 38 38
-0.352301 7.535599 -0.351598 0.000000 -0.000000 -1.000000 38 38 38
-0.352301 8.256298 -0.351598 0.000000 -0.000000 -1.000000 38 38 38
-0.280231 8.256298 -0.351598 0.000000 -0.000000 -1.000000 38 38 38
-0.360350 7.407836 -0.360350 0.000000 -1.000000 -0.000000 38 38 38
0.360350 7.407836 -0.360350 0.000000 -1.000000 -0.000000 38 38 38
0.360350 7.407836 0.360350 0.000000 -1.000000 -0.000000 38 38 38
-0.360350 7.407836 0.360350 0.000000 -1.000000 -0.000000 38 38 38
-0.360350 7.551976 -0.360350 0.000000 1.000000 0.000000 38 38 38
-0.360350 7.551976 0.360350 0.000000 1.000000 0.000000 38 38 38
0.360350 7.551976 0.360350 0.000000 1.000000 0.000000 38 38 38
0.360350 7.551976 -0.360350 0.000000 1.000000 0.000000 38 38 38
0.360350 7.407836 0.360350 1.000000 0.000000 0.000000 38 38 38
0.360350 7.407836 -0.360350 1.000000 0.000000 0.000000 38 38 38
0.360350 7.551976 -0.360350 1.000000 0.000000 0.000000 38 38 38
0.360350 7.551976 0.360350 1.000000 0.000000 0.000000 38 38 38
-0.360350 7.407836 0.360350 0.000000 0.000000 1.000000 38 38 38
0.360350 7.407836 0.360350 0.000000 0.000000 1.000000 38 38 38
0.360350 7.551976 0.360350 0.000000 0.000000 1.000000 38 38 38
-0.360350 7.551976 0.360350 0.000000 0.000000 1.000000 38 38 38
-0.360350 7.407836 -0.360350 -1.000000 -0.000000 0.000000 38 38 38
-0.360350 7.407836 0.360350 -1.000000 -0.000000 0.000000 38 38 38
-0.360350 7.551976 0.360350 -1.000000 -0.000000 0.000000 38 38 38
-0.360350 7.551976 -0.360350 -1.000000 -0.000000 0.000000 38 38 38
0.360350 7.407836 -0.360350 0.000000 -0.000000 -1.000000 38 38 38
-0.360350 7.407836 -0.360350 0.000000 -0.000000 -1.000000 38 38 38
-0.360350 7.551976 -0.360350 0.000000 -0.000000 -1.000000 38 38 38
0.360350 7.551976 -0.360350 0.000000 -0.000000 -1.000000 38 38 38
-0.352301 7.535599 0.276808 0.000000 -1.000000 -0.000000 255 255 255
-0.280231 7.535599 0.276808 0.000000 -1.000000 -0.000000 255 255 255
-0.280231 7.535599 0.348878 0.000000 -1.000000 -0.000000 255 255 255
-0.352301 7.535599 0.348878 0.000000 -1.000000 -0.000000 255 255 255
-0.352301 8.256298 0.276808 0.000000 1.000000 0.000000 255 255 255
-0.352301 8.256298 0.348878 0.000000 1.000000 0.000000 255 255 255
-0.280231 8.256298 0.348878 0.000000 1.000000 0.000000 255 255 255
-0.280231 8.256298 0.276808 0.000000 1.000000 0.000000 255 255 255
-0.280231 7.535599 0.348878 1.000000 0.000000 0.000000 38 38 38
-0.280231 7.535599 0.276808 1.000000 0.000000 0.000000 38 38 38
-0.280231 8.256298 0.276808 1.000000 0.000000 0.000000 38 38 38
-0.280231 8.256298 0.348878 1.000000 0.000000 0.000000 38 38 38
-0.352301 7.535599 0.348878 0.000000 0.000000 1.000000 38 38 38
-0.280231 7.535599 0.348878 0.000000 0.000000 1.000000 38 38 38
-0.280231 8.256298 0.348878 0.000000 0.000000 1.000000 38 38 38
-0.352301 8.256298 0.348878 0.000000 0.000000 1.000000 38 38 38
-0.352301 7.535599 0.276808 -1.000000 -0.000000 0.000000 38 38 38
-0.352301 7.535599 0.348878 -1.000000 -0.000000 0.000000 38 38 38
-0.352301 8.256298 0.348878 -1.000000 -0.000000 0.000000 38 38 38
-0.352301 8.256298 0.276808 -1.000000 -0.000000 0.000000 38 38 38
-0.280231 7.535599 0.276808 0.000000 -0.000000 -1.000000 38 38 38
-0.352301 7.535599 0.276808 0.000000 -0.000000 -1.000000 38 38 38
-0.352301 8.256298 0.276808 0.000000 -0.000000 -1.000000 38 38 38
-0.280231 8.256298 0.276808 0.000000 -0.000000 -1.000000 38 38 38
0.277427 7.535599 0.276808 0.000000 -1.000000 -0.000000 255 255 255
0.349497 7.535599 0.276808 0.000000 -1.000000 -0.000000 255 255 255
0.349497 7.535599 0.348878 0.000000 -1.000000 -0.000000 255 255 255
0.277427 7.535599 0.348878 0.000000 -1.000000 -0.000000 255 255 255
0.277427 8.256298 0.276808 0.000000 1.000000 0.000000 255 255 255
0.277427 8.256298 0.348878 0.000000 1.000000 0.000000 255 255 255
0.349497 8.256298 0.348878 0.000000 1.000000 0.000000 255 255 255
0.349497 8.256298 0.276808 0.000000 1.000000 0.000000 255 255 255
0.349497 7.535599 0.348878 1.000000 0.000000 0.000000 38 38 38
0.349497 7.535599 0.276808 1.000000 0.000000 0.000000 38 38 38
0.349497 8.256298 0.276808 1.000000 0.000000 0.000000 38 38 38
0.349497 8.256298 0.348878 1.000000 0.000000 0.000000 38 38 38
0.277427 7.535599 0.348878 0.000000 0.000000 1.000000 38 38 38
0.349497 7.535599 0.348878 0.000000 0.000000 1.000000 38 38 38
0.349497 8.256298 0.348878 0.000000 0.000000 1.000000 38 38 38
0.277427 8.256298 0.348878 0.000000 0.000000 1.000000 38 38 38
0.277427 7.535599 0.276808 -1.000000 -0.000000 0.000000 38 38 38
0.277427 7.535599 0.348878 -1.000000 -0.000000 0.000000 38 38 38
0.277427 8.256298 0.348878 -1.000000 -0.000000 0.000000 38 38 38
0.277427 8.256298 0.276808 -1.000000 -0.000000 0.000000 38 38 38
0.349497 7.535599 0.276808 0.000000 -0.000000 -1.000000 38 38 38
0.277427 7.535599 0.276808 0.000000 -0.000000 -1.000000 38 38 38
0.277427 8.256298 0.276808 0.000000 -0.000000 -1.000000 38 38 38
0.349497 8.256298 0.276808 0.000000 -0.000000 -1.000000 38 38 38
0.277427 7.535599 -0.348935 0.000000 -1.000000 -0.000000 255 255 255
0.349497 7.535599 -0.348935 0.000000 -1.000000 -0.000000 255 255 255
0.349497 7.535599 -0.276865 0.000000 -1.000000 -0.000000 255 255 255
0.277427 7.535599 -0.276865 0.000000 -1.000000 -0.000000 255 255 255
0.277427 8.256298 -0.348935 0.000000 1.000000 0.000000 255 255 255
0.277427 8.256298 -0.276865 0.000000 1.000000 0.000000 255 255 255
0.349497 8.256298 -0.276865 0.000000 1.000000 0.000000 255 255 255
0.349497 8.256298 -0.348935 0.000000 1.000000 0.000000 255 255 255
0.349497 7.535599 -0.276865 1.000000 0.000000 0.000000 38 38 38
0.349497 7.535599 -0.348935 1.000000 0.000000 0.000000 38 38 38
0.349497 8.256298 -0.348935 1.000000 0.000000 0.000000 38 38 38
0.349497 8.256298 -0.276865 1.000000 0.000000 0.000000 38 38 38
0.277427 7.535599 -0.276865 0.000000 0.000000 1.000000 38 38 38
0.349497 7.535599 -0.276865 0.000000 0.000000 1.000000 38 38 38
0.349497 8.256298 -0.276865 0.000000 0.000000 1.000000 38 38 38
0.277427 8.256298 -0.276865 0.000000 0.000000 1.000000 38 38 38
0.277427 7.535599 -0.348935 -1.000000 -0.000000 0.000000 38 38 38
0.277427 7.535599 -0.276865 -1.000000 -0.000000 0.000000 38 38 38
0.277427 8.256298 -0.276865 -1.000000 -0.000000 0.000000 38 38 38
0.277427 8.256298 -0.348935 -1.000000 -0.000000 0.000000 38 38 38
0.349497 7.535599 -0.348935 0.000000 -0.000000 -1.000000 38 38 38
0.277427 7.535599 -0.348935 0.000000 -0.000000 -1.000000 38 38 38
0.277427 8.256298 -0.348935 0.000000 -0.000000 -1.000000 38 38 38
0.349497 8.256298 -0.348935 0.000000 -0.000000 -1.000000 38 38 38
-0.360350 8.248645 -0.360350 0.000000 -1.000000 -0.000000 38 38 38
0.360350 8.248645 -0.360350 0.000000 -1.000000 -0.000000 38 38 38
0.360350 8.248645 0.360350 0.000000 -1.000000 -0.000000 38 38 38
-0.360350 8.248645 0.360350 0.000000 -1.000000 -0.000000 38 38 38
-0.360350 8.392784 -0.360350 0.000000 1.000000 0.000000 38 38 38
-0.360350 8.392784 0.360350 0.000000 1.000000 0.000000 38 38 38
0.360350 8.392784 0.360350 0.000000 1.000000 0.000000 38 38 38
0.360350 8.392784 -0.360350 0.000000 1.000000 0.000000 38 38 38
0.360350 8.248645 0.360350 1.000000 0.000000 0.000000 38 38 38
0.360350 8.248645 -0.360350 1.000000 0.000000 0.000000 38 38 38
0.360350 8.392784 -0.360350 1.000000 0.000000 0.000000 38 38 38
0.360350 8.392784 0.360350 1.000000 0.000000 0.000000 38 38 38
-0.360350 8.248645 0.360350 0.000000 0.000000 1.000000 38 38 38
0.360350 8.248645 0.360350 0.000000 0.000000 1.000000 38 38 38
0.360350 8.392784 0.360350 0.000000 0.000000 1.000000 38 38 38
-0.360350 8.392784 0.360350 0.000000 0.000000 1.000000 38 38 38
-0.360350 8.248645 -0.360350 -1.000000 -0.000000 0.000000 38 38 38
-0.360350 8.248645 0.360350 -1.000000 -0.000000 0.000000 38 38 38
-0.360350 8.392784 0.360350 -1.000000 -0.000000 0.000000 38 38 38
-0.360350 8.392784 -0.360350 -1.000000 -0.000000 0.000000 38 38 38
0.360350 8.248645 -0.360350 0.000000 -0.000000 -1.000000 38 38 38
-0.360350 8.248645 -0.360350 0.000000 -0.000000 -1.000000 38 38 38
-0.360350 8.392784 -0.360350 0.000000 -0.000000 -1.000000 38 38 38
0.360350 8.392784 -0.360350 0.000000 -0.000000 -1.000000 38 38 38
-0.252245 8.322445 -0.252245 0.000000 -1.000000 -0.000000 255 255 255
0.252245 8.322445 -0.252245 0.000000 -1.000000 -0.000000 255 255 255
0.252245 8.322445 0.252245 0.000000 -1.000000 -0.000000 255 255 255
-0.252245 8.322445 0.252245 0.000000 -1.000000 -0.000000 255 255 255
-0.252245 8.466585 -0.252245 0.000000 1.000000 0.000000 38 38 38
-0.252245 8.466585 0.252245 0.000000 1.000000 0.000000 38 38 38
0.252245 8.466585 0.252245 0.000000 1.000000 0.000000 38 38 38
0.252245 8.466585 -0.252245 0.000000 1.000000 0.000000 38 38 38
0.252245 8.322445 0.252245 1.000000 0.000000 0.000000 38 38 38
0.252245 8.322445 -0.252245 1.000000 0.000000 0.000000 38 38 38
0.252245 8.466585 -0.252245 1.000000 0.000000 0.000000 38 38 38
0.252245 8.466585 0.252245 1.000000 0.000000 0.000000 38 38 38
-0.252245 8.322445 0.252245 0.000000 0.000000 1.000000 38 38 38
0.252245 8.322445 0.252245 0.000000 0.000000 1.000000 38 38 38
0.252245 8.466585 0.252245 0.000000 0.000000 1.000000 38 38 38
-0.252245 8.466585 0.252245 0.000000 0.000000 1.000000 38 38 38
-0.252245 8.322445 -0.252245 -1.000000 -0.000000 0.000000 38 38 38
-0.252245 8.322445 0.252245 -1.000000 -0.000000 0.000000 38 38 38
-0.252245 8.466585 0.252245 -1.000000 -0.000000 0.000000 38 38 38
-0.252245 8.466585 -0.252245 -1.000000 -0.000000 0.000000 38 38 38
0.252245 8.322445 -0.252245 0.000000 -0.000000 -1.000000 38 38 38
-0.252245 8.322445 -0.252245 0.000000 -0.000000 -1.000000 38 38 38
-0.252245 8.466585 -0.252245 0.000000 -0.000000 -1.000000 38 38 38
0.252245 8.466585 -0.252245 0.000000 -0.000000 -1.000000 38 38 38
-0.126122 8.387265 -0.126122 0.000000 -1.000000 -0.000000 255 255 255
0.126122 8.387265 -0.126122 0.000000 -1.000000 -0.000000 255 255 255
0.126122 8.387265 0.126122 0.000000 -1.000000 -0.000000 255 255 255
-0.126122 8.387265 0.126122 0.000000 -1.000000 -0.000000 255 255 255
-0.126122 8.531405 -0.126122 0.000000 1.000000 0.000000 38 38 38
-0.126122 8.531405 0.126122 0.000000 1.000000 0.000000 38 38 38
0.126122 8.531405 0.126122 0.000000 1.000000 0.000000 38 38 38
0.126122 8.531405 -0.126122 0.000000 1.000000 0.000000 38 38 38
0.126122 8.387265 0.126122 1.000000 0.000000 0.000000 38 38 38
0.126122 8.387265 -0.126122 1.000000 0.000000 0.000000 38 38 38
0.126122 8.531405 -0.126122 1.000000 0.000000 0.000000 38 38 38
0.126122 8.531405 0.126122 1.000000 0.000000 0.000000 38 38 38
-0.126122 8.387265 0.126122 0.000000 0.000000 1.000000 38 38 38
0.126122 8.387265 0.126122 0.000000 0.000000 1.000000 38 38 38
0.126122 8.531405 0.126122 0.000000 0.000000 1.000000 38 38 38
-0.126122 8.531405 0.126122 0.000000 0.000000 1.000000 38 38 38
-0.126122 8.387265 -0.126122 -1.000000 -0.000000 0.000000 38 38 38
-0.126122 8.387265 0.126122 -1.000000 -0.000000 0.000000 38 38 38
-0.126122 8.531405 0.126122 -1.000000 -0.000000 0.000000 38 38 38
-0.126122 8.531405 -0.126122 -1.000000 -0.000000 0.000000 38 38 38
0.126122 8.387265 -0.126122 0.000000 -0.000000 -1.000000 38 38 38
-0.126122 8.387265 -0.126122 0.000000 -0.000000 -1.000000 38 38 38
-0.126122 8.531405 -0.126122 0.000000 -0.000000 -1.000000 38 38 38
0.126122 8.531405 -0.126122 0.000000 -0.000000 -1.000000 38 38 38
-0.063061 8.500000 -0.063061 0.000000 -1.000000 -0.000000 255 255 255
0.063061 8.500000 -0.063061 0.000000 -1.000000 -0.000000 255 255 255
0.063061 8.500000 0.063061 0.000000 -1.000000 -0.000000 255 255 255
-0.063061 8.500000 0.063061 0.000000 -1.000000 -0.000000 255 255 255
-0.063061 8.791982 -0.063061 0.000000 1.000000 0.000000 105 70 31
-0.063061 8.791982 0.063061 0.000000 1.000000 0.000000 105 70 31
0.063061 8.791982 0.063061 0.000000 1.000000 0.000000 105 70 31
0.063061 8.791982 -0.063061 0.000000 1.000000 0.000000 105 70 31
0.063061 8.500000 0.063061 1.000000 0.000000 0.000000 105 70 31
0.063061 8.500000 -0.063061 1.000000 0.000000 0.000000 105 70 31
0.063061 8.791982 -0.063061 1.000000 0.000000 0.000000 105 70 31
0.063061 8.791982 0.063061 1.000000 0.000000 0.000000 105 70 31
-0.063061 8.500000 0.063061 0.000000 0.000000 1.000000 105 70 31
0.063061 8.500000 0.063061 0.000000 0.000000 1.000000 105 70 31
0.063061 8.791982 0.063061 0.000000 0.000000 1.000000 105 70 31
-0.063061 8.791982 0.063061 0.000000 0.000000 1.000000 105 70 31
-0.063061 8.500000 -0.063061 -1.000000 -0.000000 0.000000 105 70 31
-0.063061 8.500000 0.063061 -1.000000 -0.000000 0.000000 105 70 31
-0.063061 8.791982 0.063061 -1.000000 -0.000000 0.000000 105 70 31
-0.063061 8.791982 -0.063061 -1.000000 -0.000000 0.000000 105 70 31
0.063061 8.500000 -0.063061 0.000000 -0.000000 -1.000000 105 70 31
-0.063061 8.500000 -0.063061 0.000000 -0.000000 -1.000000 105 70 31
-0.063061 8.791982 -0.063061 0.000000 -0.000000 -1.000000 105 70 31
0.063061 8.791982 -0.063061 0.000000 -0.000000 -1.000000 105 70 31
4 0 1 2 3
4 4 5 6 7
4 8 9 10 11
4 12 13 14 15
4 16 17 18 19
4 20 21 22 23
4 24 25 26 27
4 28 29 30 31
4 32 33 34 35
4 36 37 38 39
4 40 41 42 43
4 44 45 46 47
4 48 49 50 51
4 52 53 54 55
4 56 57 58 59
4 60 61 62 63
4 64 65 66 67
4 68 69 70 71
4 72 73 74 75
4 76 77 78 79
4 80 81 82 83
4 84 85 86 87
4 88 89 90 91
4 92 93 94 95
4 96 97 98 99
4 100 101 102 103
4 104 105 106 107
4 108 109 110 111
4 112 113 114 115
4 116 117 118 119
4 120 121 122 123
4 124 125 126 127
4 128 129 130 131
4 132 133 134 135
4 136 137 138 139
4 140 141 142 143
4 144 145 146 147
4 148 149 150 151
4 152 153 154 155
4 156 157 158 159
4 160 161 162 163
4 164 165 166 167
4 168 169 170 171
4 172 173 174 175
4 176 177 178 179
4 180 181 182 183
4 184 185 186 187
4 188 189 190 191
4 192 193 194 195
4 196 197 198 199
4 200 201 202 203
4 204 205 206 207
4 208 209 210 211
4 212 213 214 215
4 216 217 218 219
4 220 221 222 223
4 224 225 226 227
4 228 229 230 231
4 232 233 234 235
4 236 237 238 239
4 240 241 242 243
4 244 245 246 247
4 248 249 250 251
4 252 253 254 255
4 256 257 258 259
4 260 261 262 263
