ply
format ascii 1.0
comment Created by Blender 2.73 (sub 0) - www.blender.org, source file: 'column_more_lowpoly.blend'
element vertex 664
property float x
property float y
property float z
property float nx
property float ny
property float nz
property uchar red
property uchar green
property uchar blue
element face 194
property list uchar uint vertex_indices
end_header
0.600000 1.887959 0.000000 0.980596 -0.019642 0.195053 77 71 63
0.698822 6.821580 -0.000000 0.980596 -0.019642 0.195053 77 71 63
0.645627 6.821580 0.267428 0.980596 -0.019642 0.195053 77 71 63
0.554328 1.887959 0.229610 0.980596 -0.019642 0.195053 77 71 63
0.554328 1.887959 0.229610 0.831309 -0.019642 0.555463 77 71 63
0.645627 6.821580 0.267428 0.831309 -0.019642 0.555463 77 71 63
0.494142 6.821580 0.494142 0.831309 -0.019642 0.555463 77 71 63
0.424264 1.887959 0.424264 0.831309 -0.019642 0.555463 77 71 63
0.424264 1.887959 0.424264 0.555463 -0.019642 0.831309 77 71 63
0.494142 6.821580 0.494142 0.555463 -0.019642 0.831309 77 71 63
0.267428 6.821580 0.645627 0.555463 -0.019642 0.831309 77 71 63
0.229610 1.887959 0.554328 0.555463 -0.019642 0.831309 77 71 63
0.229610 1.887959 0.554328 0.195053 -0.019642 0.980596 77 71 63
0.267428 6.821580 0.645627 0.195053 -0.019642 0.980596 77 71 63
-0.000000 6.821580 0.698822 0.195053 -0.019642 0.980596 77 71 63
-0.000000 1.887959 0.600000 0.195053 -0.019642 0.980596 77 71 63
-0.000000 1.887959 0.600000 -0.195053 -0.019642 0.980596 77 71 63
-0.000000 6.821580 0.698822 -0.195053 -0.019642 0.980596 77 71 63
-0.267428 6.821580 0.645627 -0.195053 -0.019642 0.980596 77 71 63
-0.229610 1.887959 0.554328 -0.195053 -0.019642 0.980596 77 71 63
-0.229610 1.887959 0.554328 -0.555463 -0.019642 0.831309 77 71 63
-0.267428 6.821580 0.645627 -0.555463 -0.019642 0.831309 77 71 63
-0.494142 6.821580 0.494142 -0.555463 -0.019642 0.831309 77 71 63
-0.424264 1.887959 0.424264 -0.555463 -0.019642 0.831309 77 71 63
-0.424264 1.887959 0.424264 -0.831309 -0.019642 0.555463 77 71 63
-0.494142 6.821580 0.494142 -0.831309 -0.019642 0.555463 77 71 63
-0.645627 6.821580 0.267428 -0.831309 -0.019642 0.555463 77 71 63
-0.554328 1.887959 0.229610 -0.831309 -0.019642 0.555463 77 71 63
-0.554328 1.887959 0.229610 -0.980596 -0.019642 0.195053 77 71 63
-0.645627 6.821580 0.267428 -0.980596 -0.019642 0.195053 77 71 63
-0.698822 6.821580 0.000000 -0.980596 -0.019642 0.195053 77 71 63
-0.600000 1.887959 0.000000 -0.980596 -0.019642 0.195053 77 71 63
-0.600000 1.887959 0.000000 -0.980596 -0.019642 -0.195053 77 71 63
-0.698822 6.821580 0.000000 -0.980596 -0.019642 -0.195053 77 71 63
-0.645627 6.821580 -0.267427 -0.980596 -0.019642 -0.195053 77 71 63
-0.554328 1.887959 -0.229610 -0.980596 -0.019642 -0.195053 77 71 63
-0.554328 1.887959 -0.229610 -0.831309 -0.019642 -0.555463 77 71 63
-0.645627 6.821580 -0.267427 -0.831309 -0.019642 -0.555463 77 71 63
-0.494142 6.821580 -0.494142 -0.831309 -0.019642 -0.555463 77 71 63
-0.424264 1.887959 -0.424264 -0.831309 -0.019642 -0.555463 77 71 63
-0.424264 1.887959 -0.424264 -0.555463 -0.019642 -0.831309 77 71 63
-0.494142 6.821580 -0.494142 -0.555463 -0.019642 -0.831309 77 71 63
-0.267428 6.821580 -0.645627 -0.555463 -0.019642 -0.831309 77 71 63
-0.229610 1.887959 -0.554328 -0.555463 -0.019642 -0.831309 77 71 63
-0.229610 1.887959 -0.554328 -0.195053 -0.019642 -0.980596 77 71 63
-0.267428 6.821580 -0.645627 -0.195053 -0.019642 -0.980596 77 71 63
0.000000 6.821580 -0.698822 -0.195053 -0.019642 -0.980596 77 71 63
0.000000 1.887959 -0.600000 -0.195053 -0.019642 -0.980596 77 71 63
0.000000 1.887959 -0.600000 0.195053 -0.019642 -0.980596 77 71 63
0.000000 6.821580 -0.698822 0.195053 -0.019642 -0.980596 77 71 63
0.267428 6.821580 -0.645627 0.195053 -0.019642 -0.980596 77 71 63
0.229610 1.887959 -0.554328 0.195053 -0.019642 -0.980596 77 71 63
0.229610 1.887959 -0.554328 0.555463 -0.019642 -0.831309 77 71 63
0.267428 6.821580 -0.645627 0.555463 -0.019642 -0.831309 77 71 63
0.494142 6.821580 -0.494142 0.555463 -0.019642 -0.831309 77 71 63
0.424264 1.887959 -0.424264 0.555463 -0.019642 -0.831309 77 71 63
0.267428 6.821580 0.645627 0.531016 -0.294002 0.794723 77 71 63
0.494142 6.821580 0.494142 0.531016 -0.294002 0.794723 77 71 63
0.572669 7.175679 0.572668 0.531016 -0.294002 0.794723 77 71 63
0.309926 7.175679 0.748227 0.531016 -0.294002 0.794723 77 71 63
0.424264 1.887959 -0.424264 0.831309 -0.019642 -0.555463 77 71 63
0.494142 6.821580 -0.494142 0.831309 -0.019642 -0.555463 77 71 63
0.645627 6.821580 -0.267427 0.831309 -0.019642 -0.555463 77 71 63
0.554328 1.887959 -0.229610 0.831309 -0.019642 -0.555463 77 71 63
0.698822 6.821580 -0.000000 0.980596 -0.019642 -0.195052 77 71 63
0.600000 1.887959 0.000000 0.980596 -0.019642 -0.195052 77 71 63
0.554328 1.887959 -0.229610 0.980596 -0.019642 -0.195052 77 71 63
0.645627 6.821580 -0.267427 0.980596 -0.019642 -0.195052 77 71 63
0.424264 1.887959 0.424264 0.442302 0.605135 0.661952 77 71 63
0.229610 1.887959 0.554328 0.442302 0.605135 0.661952 77 71 63
0.300309 1.649577 0.725009 0.442302 0.605135 0.661952 77 71 63
0.554898 1.649577 0.554898 0.442302 0.605135 0.661952 77 71 63
0.300309 1.649577 0.725009 0.195091 0.000000 0.980785 77 71 63
-0.000000 1.649577 0.784744 0.195091 0.000000 0.980785 77 71 63
-0.000000 1.437118 0.784744 0.195091 0.000000 0.980785 77 71 63
0.300309 1.437118 0.725009 0.195091 0.000000 0.980785 77 71 63
-0.554328 1.887959 0.229610 -0.780826 0.605135 0.155316 77 71 63
-0.600000 1.887959 0.000000 -0.780826 0.605135 0.155316 77 71 63
-0.784744 1.649577 0.000000 -0.780826 0.605135 0.155316 77 71 63
-0.725009 1.649577 0.300309 -0.780826 0.605135 0.155316 77 71 63
0.600000 1.887959 0.000000 0.780826 0.605135 0.155316 77 71 63
0.554328 1.887959 0.229610 0.780826 0.605135 0.155316 77 71 63
0.725009 1.649577 0.300309 0.780826 0.605135 0.155316 77 71 63
0.784744 1.649577 -0.000000 0.780826 0.605135 0.155316 77 71 63
0.000000 1.887959 -0.600000 0.155316 0.605135 -0.780826 77 71 63
0.229610 1.887959 -0.554328 0.155316 0.605135 -0.780826 77 71 63
0.300309 1.649577 -0.725009 0.155316 0.605135 -0.780826 77 71 63
0.000000 1.649577 -0.784744 0.155316 0.605135 -0.780826 77 71 63
-0.229610 1.887959 0.554328 -0.442302 0.605135 0.661952 77 71 63
-0.424264 1.887959 0.424264 -0.442302 0.605135 0.661952 77 71 63
-0.554898 1.649577 0.554898 -0.442302 0.605135 0.661952 77 71 63
-0.300309 1.649577 0.725009 -0.442302 0.605135 0.661952 77 71 63
-0.424264 1.887959 -0.424264 -0.442302 0.605135 -0.661952 77 71 63
-0.229610 1.887959 -0.554328 -0.442302 0.605135 -0.661952 77 71 63
-0.300309 1.649577 -0.725009 -0.442302 0.605135 -0.661952 77 71 63
-0.554898 1.649577 -0.554898 -0.442302 0.605135 -0.661952 77 71 63
0.554328 1.887959 -0.229610 0.780826 0.605135 -0.155316 77 71 63
0.600000 1.887959 0.000000 0.780826 0.605135 -0.155316 77 71 63
0.784744 1.649577 -0.000000 0.780826 0.605135 -0.155316 77 71 63
0.725009 1.649577 -0.300308 0.780826 0.605135 -0.155316 77 71 63
0.229610 1.887959 0.554328 0.155316 0.605135 0.780826 77 71 63
-0.000000 1.887959 0.600000 0.155316 0.605135 0.780826 77 71 63
-0.000000 1.649577 0.784744 0.155316 0.605135 0.780826 77 71 63
0.300309 1.649577 0.725009 0.155316 0.605135 0.780826 77 71 63
-0.600000 1.887959 0.000000 -0.780826 0.605135 -0.155316 77 71 63
-0.554328 1.887959 -0.229610 -0.780826 0.605135 -0.155316 77 71 63
-0.725009 1.649577 -0.300309 -0.780826 0.605135 -0.155316 77 71 63
-0.784744 1.649577 0.000000 -0.780826 0.605135 -0.155316 77 71 63
0.229610 1.887959 -0.554328 0.442302 0.605135 -0.661952 77 71 63
0.424264 1.887959 -0.424264 0.442302 0.605135 -0.661952 77 71 63
0.554898 1.649577 -0.554898 0.442302 0.605135 -0.661952 77 71 63
0.300309 1.649577 -0.725009 0.442302 0.605135 -0.661952 77 71 63
0.554328 1.887959 0.229610 0.661952 0.605135 0.442302 77 71 63
0.424264 1.887959 0.424264 0.661952 0.605135 0.442302 77 71 63
0.554898 1.649577 0.554898 0.661952 0.605135 0.442302 77 71 63
0.725009 1.649577 0.300309 0.661952 0.605135 0.442302 77 71 63
-0.424264 1.887959 0.424264 -0.661952 0.605135 0.442302 77 71 63
-0.554328 1.887959 0.229610 -0.661952 0.605135 0.442302 77 71 63
-0.725009 1.649577 0.300309 -0.661952 0.605135 0.442302 77 71 63
-0.554898 1.649577 0.554898 -0.661952 0.605135 0.442302 77 71 63
-0.229610 1.887959 -0.554328 -0.155316 0.605135 -0.780826 77 71 63
0.000000 1.887959 -0.600000 -0.155316 0.605135 -0.780826 77 71 63
0.000000 1.649577 -0.784744 -0.155316 0.605135 -0.780826 77 71 63
-0.300309 1.649577 -0.725009 -0.155316 0.605135 -0.780826 77 71 63
-0.000000 1.887959 0.600000 -0.155316 0.605135 0.780826 77 71 63
-0.229610 1.887959 0.554328 -0.155316 0.605135 0.780826 77 71 63
-0.300309 1.649577 0.725009 -0.155316 0.605135 0.780826 77 71 63
-0.000000 1.649577 0.784744 -0.155316 0.605135 0.780826 77 71 63
-0.554328 1.887959 -0.229610 -0.661952 0.605135 -0.442302 77 71 63
-0.424264 1.887959 -0.424264 -0.661952 0.605135 -0.442302 77 71 63
-0.554898 1.649577 -0.554898 -0.661952 0.605135 -0.442302 77 71 63
-0.725009 1.649577 -0.300309 -0.661952 0.605135 -0.442302 77 71 63
0.424264 1.887959 -0.424264 0.661952 0.605135 -0.442302 77 71 63
0.554328 1.887959 -0.229610 0.661952 0.605135 -0.442302 77 71 63
0.725009 1.649577 -0.300308 0.661952 0.605135 -0.442302 77 71 63
0.554898 1.649577 -0.554898 0.661952 0.605135 -0.442302 77 71 63
-0.784744 1.437118 0.000000 -0.000000 1.000000 0.000000 77 71 63
-0.725009 1.437118 -0.300309 -0.000000 1.000000 0.000000 77 71 63
-0.851708 1.437118 -0.352789 -0.000000 1.000000 0.000000 77 71 63
-0.921881 1.437118 0.000000 -0.000000 1.000000 0.000000 77 71 63
-0.300309 1.649577 -0.725009 -0.195090 0.000000 -0.980785 77 71 63
0.000000 1.649577 -0.784744 -0.195090 0.000000 -0.980785 77 71 63
0.000000 1.437118 -0.784744 -0.195090 0.000000 -0.980785 77 71 63
-0.300309 1.437118 -0.725009 -0.195090 0.000000 -0.980785 77 71 63
-0.000000 1.649577 0.784744 -0.195091 0.000000 0.980785 77 71 63
-0.300309 1.649577 0.725009 -0.195091 0.000000 0.980785 77 71 63
-0.300309 1.437118 0.725009 -0.195091 0.000000 0.980785 77 71 63
-0.000000 1.437118 0.784744 -0.195091 0.000000 0.980785 77 71 63
0.000000 1.649577 -0.784744 0.195090 0.000000 -0.980785 77 71 63
0.300309 1.649577 -0.725009 0.195090 0.000000 -0.980785 77 71 63
0.300309 1.437118 -0.725009 0.195090 0.000000 -0.980785 77 71 63
0.000000 1.437118 -0.784744 0.195090 0.000000 -0.980785 77 71 63
-0.300309 1.649577 0.725009 -0.555570 0.000000 0.831470 77 71 63
-0.554898 1.649577 0.554898 -0.555570 0.000000 0.831470 77 71 63
-0.554898 1.437118 0.554898 -0.555570 0.000000 0.831470 77 71 63
-0.300309 1.437118 0.725009 -0.555570 0.000000 0.831470 77 71 63
0.300309 1.649577 -0.725009 0.555571 0.000000 -0.831469 77 71 63
0.554898 1.649577 -0.554898 0.555571 0.000000 -0.831469 77 71 63
0.554898 1.437118 -0.554898 0.555571 0.000000 -0.831469 77 71 63
0.300309 1.437118 -0.725009 0.555571 0.000000 -0.831469 77 71 63
-0.554898 1.649577 0.554898 -0.831469 0.000000 0.555570 77 71 63
-0.725009 1.649577 0.300309 -0.831469 0.000000 0.555570 77 71 63
-0.725009 1.437118 0.300309 -0.831469 0.000000 0.555570 77 71 63
-0.554898 1.437118 0.554898 -0.831469 0.000000 0.555570 77 71 63
0.554898 1.649577 -0.554898 0.831470 0.000000 -0.555570 77 71 63
0.725009 1.649577 -0.300308 0.831470 0.000000 -0.555570 77 71 63
0.725009 1.437118 -0.300308 0.831470 0.000000 -0.555570 77 71 63
0.554898 1.437118 -0.554898 0.831470 0.000000 -0.555570 77 71 63
-0.725009 1.649577 0.300309 -0.980785 0.000000 0.195090 77 71 63
-0.784744 1.649577 0.000000 -0.980785 0.000000 0.195090 77 71 63
-0.784744 1.437118 0.000000 -0.980785 0.000000 0.195090 77 71 63
-0.725009 1.437118 0.300309 -0.980785 0.000000 0.195090 77 71 63
0.784744 1.649577 -0.000000 0.980785 0.000000 0.195090 77 71 63
0.725009 1.649577 0.300309 0.980785 0.000000 0.195090 77 71 63
0.725009 1.437118 0.300309 0.980785 0.000000 0.195090 77 71 63
0.784744 1.437118 -0.000000 0.980785 0.000000 0.195090 77 71 63
0.725009 1.649577 -0.300308 0.980785 0.000000 -0.195090 77 71 63
0.784744 1.649577 -0.000000 0.980785 0.000000 -0.195090 77 71 63
0.784744 1.437118 -0.000000 0.980785 0.000000 -0.195090 77 71 63
0.725009 1.437118 -0.300308 0.980785 0.000000 -0.195090 77 71 63
-0.784744 1.649577 0.000000 -0.980785 0.000000 -0.195090 77 71 63
-0.725009 1.649577 -0.300309 -0.980785 0.000000 -0.195090 77 71 63
-0.725009 1.437118 -0.300309 -0.980785 0.000000 -0.195090 77 71 63
-0.784744 1.437118 0.000000 -0.980785 0.000000 -0.195090 77 71 63
0.725009 1.649577 0.300309 0.831469 0.000000 0.555570 77 71 63
0.554898 1.649577 0.554898 0.831469 0.000000 0.555570 77 71 63
0.554898 1.437118 0.554898 0.831469 0.000000 0.555570 77 71 63
0.725009 1.437118 0.300309 0.831469 0.000000 0.555570 77 71 63
-0.725009 1.649577 -0.300309 -0.831470 0.000000 -0.555570 77 71 63
-0.554898 1.649577 -0.554898 -0.831470 0.000000 -0.555570 77 71 63
-0.554898 1.437118 -0.554898 -0.831470 0.000000 -0.555570 77 71 63
-0.725009 1.437118 -0.300309 -0.831470 0.000000 -0.555570 77 71 63
0.554898 1.649577 0.554898 0.555570 0.000000 0.831470 77 71 63
0.300309 1.649577 0.725009 0.555570 0.000000 0.831470 77 71 63
0.300309 1.437118 0.725009 0.555570 0.000000 0.831470 77 71 63
0.554898 1.437118 0.554898 0.555570 0.000000 0.831470 77 71 63
-0.554898 1.649577 -0.554898 -0.555570 0.000000 -0.831470 77 71 63
-0.300309 1.649577 -0.725009 -0.555570 0.000000 -0.831470 77 71 63
-0.300309 1.437118 -0.725009 -0.555570 0.000000 -0.831470 77 71 63
-0.554898 1.437118 -0.554898 -0.555570 0.000000 -0.831470 77 71 63
0.352789 1.437118 -0.851707 0.529837 -0.300821 -0.792956 77 71 63
0.651869 1.437118 -0.651868 0.529837 -0.300821 -0.792956 77 71 63
0.595500 1.189249 -0.595500 0.529837 -0.300821 -0.792956 77 71 63
0.322282 1.189249 -0.778058 0.529837 -0.300821 -0.792956 77 71 63
0.725009 1.437118 0.300309 0.000000 1.000000 0.000000 77 71 63
0.554898 1.437118 0.554898 0.000000 1.000000 0.000000 77 71 63
0.651869 1.437118 0.651869 0.000000 1.000000 0.000000 77 71 63
0.851707 1.437118 0.352789 0.000000 1.000000 0.000000 77 71 63
-0.554898 1.437118 -0.554898 -0.000000 1.000000 -0.000000 77 71 63
-0.651869 1.437118 -0.651869 -0.000000 1.000000 -0.000000 77 71 63
0.300309 1.437118 0.725009 0.000000 1.000000 0.000000 77 71 63
0.352789 1.437118 0.851707 0.000000 1.000000 0.000000 77 71 63
-0.300309 1.437118 -0.725009 -0.000000 1.000000 -0.000000 77 71 63
-0.352789 1.437118 -0.851707 -0.000000 1.000000 -0.000000 77 71 63
-0.000000 1.437118 0.784744 0.000000 1.000000 0.000000 77 71 63
-0.000000 1.437118 0.921881 0.000000 1.000000 0.000000 77 71 63
0.000000 1.437118 -0.784744 0.000000 1.000000 -0.000000 77 71 63
0.000000 1.437118 -0.921881 0.000000 1.000000 -0.000000 77 71 63
-0.300309 1.437118 0.725009 0.000000 1.000000 0.000000 77 71 63
-0.352789 1.437118 0.851707 0.000000 1.000000 0.000000 77 71 63
0.300309 1.437118 -0.725009 0.000000 1.000000 -0.000000 77 71 63
0.352789 1.437118 -0.851707 0.000000 1.000000 -0.000000 77 71 63
-0.554898 1.437118 0.554898 -0.000000 1.000000 0.000000 77 71 63
-0.651869 1.437118 0.651869 -0.000000 1.000000 0.000000 77 71 63
0.554898 1.437118 -0.554898 0.000000 1.000000 -0.000000 77 71 63
0.651869 1.437118 -0.651868 0.000000 1.000000 -0.000000 77 71 63
-0.725009 1.437118 0.300309 -0.000000 1.000000 0.000000 77 71 63
-0.851707 1.437118 0.352789 -0.000000 1.000000 0.000000 77 71 63
0.725009 1.437118 -0.300308 0.000000 1.000000 -0.000000 77 71 63
0.851708 1.437118 -0.352788 0.000000 1.000000 -0.000000 77 71 63
0.784744 1.437118 -0.000000 0.000000 1.000000 0.000000 77 71 63
0.921881 1.437118 -0.000000 0.000000 1.000000 0.000000 77 71 63
0.322282 1.189249 0.778058 0.159981 0.572315 0.804277 77 71 63
-0.000000 1.189249 0.842164 0.159981 0.572315 0.804277 77 71 63
-0.000000 0.994494 0.980749 0.159981 0.572315 0.804277 78 72 64
0.375316 0.994494 0.906094 0.159981 0.572315 0.804277 77 71 63
-0.651869 1.437118 0.651869 -0.792956 -0.300822 0.529837 77 71 63
-0.851707 1.437118 0.352789 -0.792956 -0.300822 0.529837 77 71 63
-0.778058 1.189249 0.322282 -0.792956 -0.300822 0.529837 77 71 63
-0.595500 1.189249 0.595500 -0.792956 -0.300822 0.529837 77 71 63
0.651869 1.437118 -0.651868 0.792957 -0.300821 -0.529836 77 71 63
0.851708 1.437118 -0.352788 0.792957 -0.300821 -0.529836 77 71 63
0.778058 1.189249 -0.322282 0.792957 -0.300821 -0.529836 77 71 63
0.595500 1.189249 -0.595500 0.792957 -0.300821 -0.529836 77 71 63
-0.851707 1.437118 0.352789 -0.935356 -0.300822 0.186054 77 71 63
-0.921881 1.437118 0.000000 -0.935356 -0.300822 0.186054 77 71 63
-0.842164 1.189249 0.000000 -0.935356 -0.300822 0.186054 77 71 63
-0.778058 1.189249 0.322282 -0.935356 -0.300822 0.186054 77 71 63
0.921881 1.437118 -0.000000 0.935356 -0.300821 0.186054 77 71 63
0.851707 1.437118 0.352789 0.935356 -0.300821 0.186054 77 71 63
0.778058 1.189249 0.322282 0.935356 -0.300821 0.186054 77 71 63
0.842164 1.189249 -0.000000 0.935356 -0.300821 0.186054 77 71 63
0.851708 1.437118 -0.352788 0.935356 -0.300821 -0.186054 77 71 63
0.921881 1.437118 -0.000000 0.935356 -0.300821 -0.186054 77 71 63
0.842164 1.189249 -0.000000 0.935356 -0.300821 -0.186054 77 71 63
0.778058 1.189249 -0.322282 0.935356 -0.300821 -0.186054 77 71 63
-0.921881 1.437118 0.000000 -0.935356 -0.300822 -0.186054 77 71 63
-0.851708 1.437118 -0.352789 -0.935356 -0.300822 -0.186054 77 71 63
-0.778058 1.189249 -0.322282 -0.935356 -0.300822 -0.186054 77 71 63
-0.842164 1.189249 0.000000 -0.935356 -0.300822 -0.186054 77 71 63
0.851707 1.437118 0.352789 0.792956 -0.300821 0.529837 77 71 63
0.651869 1.437118 0.651869 0.792956 -0.300821 0.529837 77 71 63
0.595500 1.189249 0.595500 0.792956 -0.300821 0.529837 77 71 63
0.778058 1.189249 0.322282 0.792956 -0.300821 0.529837 77 71 63
-0.851708 1.437118 -0.352789 -0.792956 -0.300822 -0.529836 77 71 63
-0.651869 1.437118 -0.651869 -0.792956 -0.300822 -0.529836 77 71 63
-0.595500 1.189249 -0.595500 -0.792956 -0.300822 -0.529836 77 71 63
-0.778058 1.189249 -0.322282 -0.792956 -0.300822 -0.529836 77 71 63
0.651869 1.437118 0.651869 0.529836 -0.300821 0.792957 77 71 63
0.352789 1.437118 0.851707 0.529836 -0.300821 0.792957 77 71 63
0.322282 1.189249 0.778058 0.529836 -0.300821 0.792957 77 71 63
0.595500 1.189249 0.595500 0.529836 -0.300821 0.792957 77 71 63
-0.651869 1.437118 -0.651869 -0.529837 -0.300822 -0.792956 77 71 63
-0.352789 1.437118 -0.851707 -0.529837 -0.300822 -0.792956 77 71 63
-0.322282 1.189249 -0.778058 -0.529837 -0.300822 -0.792956 77 71 63
-0.595500 1.189249 -0.595500 -0.529837 -0.300822 -0.792956 77 71 63
0.352789 1.437118 0.851707 0.186054 -0.300821 0.935356 77 71 63
-0.000000 1.437118 0.921881 0.186054 -0.300821 0.935356 77 71 63
-0.000000 1.189249 0.842164 0.186054 -0.300821 0.935356 77 71 63
0.322282 1.189249 0.778058 0.186054 -0.300821 0.935356 77 71 63
-0.352789 1.437118 -0.851707 -0.186054 -0.300821 -0.935356 77 71 63
0.000000 1.437118 -0.921881 -0.186054 -0.300821 -0.935356 77 71 63
0.000000 1.189249 -0.842164 -0.186054 -0.300821 -0.935356 77 71 63
-0.322282 1.189249 -0.778058 -0.186054 -0.300821 -0.935356 77 71 63
-0.000000 1.437118 0.921881 -0.186054 -0.300821 0.935356 77 71 63
-0.352789 1.437118 0.851707 -0.186054 -0.300821 0.935356 77 71 63
-0.322282 1.189249 0.778058 -0.186054 -0.300821 0.935356 77 71 63
-0.000000 1.189249 0.842164 -0.186054 -0.300821 0.935356 77 71 63
0.000000 1.437118 -0.921881 0.186054 -0.300821 -0.935356 77 71 63
0.352789 1.437118 -0.851707 0.186054 -0.300821 -0.935356 77 71 63
0.322282 1.189249 -0.778058 0.186054 -0.300821 -0.935356 77 71 63
0.000000 1.189249 -0.842164 0.186054 -0.300821 -0.935356 77 71 63
-0.352789 1.437118 0.851707 -0.529837 -0.300822 0.792956 77 71 63
-0.651869 1.437118 0.651869 -0.529837 -0.300822 0.792956 77 71 63
-0.595500 1.189249 0.595500 -0.529837 -0.300822 0.792956 77 71 63
-0.322282 1.189249 0.778058 -0.529837 -0.300822 0.792956 77 71 63
0.980749 0.994494 -0.000000 -0.000000 -1.000000 0.000000 77 71 63
0.693494 0.994494 -0.693494 -0.000000 -1.000000 0.000000 77 71 63
0.906094 0.994494 -0.375316 -0.000000 -1.000000 0.000000 77 71 63
0.000000 0.994494 -0.980749 0.000000 -1.000000 0.000000 97 91 84
0.375317 0.994494 -0.906094 0.000000 -1.000000 0.000000 79 74 66
-0.693494 0.994494 -0.693494 0.000000 -1.000000 0.000000 237 235 235
-0.375317 0.994494 -0.906094 0.000000 -1.000000 0.000000 145 141 136
-0.980749 0.994494 0.000000 0.000000 -1.000000 0.000000 249 249 248
-0.906094 0.994494 -0.375316 0.000000 -1.000000 0.000000 255 255 255
-0.693494 0.994494 0.693494 0.000000 -1.000000 0.000000 78 72 64
-0.906094 0.994494 0.375316 0.000000 -1.000000 0.000000 155 152 148
-0.000000 0.994494 0.980749 0.000000 -1.000000 0.000000 77 71 63
-0.375316 0.994494 0.906094 0.000000 -1.000000 0.000000 77 71 63
0.693494 0.994494 0.693494 0.000000 -1.000000 0.000000 77 71 63
0.375316 0.994494 0.906094 0.000000 -1.000000 0.000000 77 71 63
0.906094 0.994494 0.375316 0.000000 -1.000000 0.000000 77 71 63
-0.322282 1.189249 -0.778058 -0.159980 0.572315 -0.804277 77 71 63
0.000000 1.189249 -0.842164 -0.159980 0.572315 -0.804277 77 71 63
0.000000 0.994494 -0.980749 -0.159980 0.572315 -0.804277 77 71 63
-0.375317 0.994494 -0.906094 -0.159980 0.572315 -0.804277 77 71 63
-0.000000 1.189249 0.842164 -0.159981 0.572315 0.804277 77 71 63
-0.322282 1.189249 0.778058 -0.159981 0.572315 0.804277 77 71 63
-0.375316 0.994494 0.906094 -0.159981 0.572315 0.804277 77 71 63
-0.000000 0.994494 0.980749 -0.159981 0.572315 0.804277 77 71 63
0.000000 1.189249 -0.842164 0.159981 0.572315 -0.804277 77 71 63
0.322282 1.189249 -0.778058 0.159981 0.572315 -0.804277 77 71 63
0.375317 0.994494 -0.906094 0.159981 0.572315 -0.804277 77 71 63
0.000000 0.994494 -0.980749 0.159981 0.572315 -0.804277 77 71 63
-0.322282 1.189249 0.778058 -0.455586 0.572315 0.681833 77 71 63
-0.595500 1.189249 0.595500 -0.455586 0.572315 0.681833 77 71 63
-0.693494 0.994494 0.693494 -0.455586 0.572315 0.681833 77 71 63
-0.375316 0.994494 0.906094 -0.455586 0.572315 0.681833 77 71 63
0.322282 1.189249 -0.778058 0.455587 0.572315 -0.681833 77 71 63
0.595500 1.189249 -0.595500 0.455587 0.572315 -0.681833 77 71 63
0.693494 0.994494 -0.693494 0.455587 0.572315 -0.681833 77 71 63
0.375317 0.994494 -0.906094 0.455587 0.572315 -0.681833 77 71 63
-0.595500 1.189249 0.595500 -0.681833 0.572315 0.455587 77 71 63
-0.778058 1.189249 0.322282 -0.681833 0.572315 0.455587 77 71 63
-0.906094 0.994494 0.375316 -0.681833 0.572315 0.455587 77 71 63
-0.693494 0.994494 0.693494 -0.681833 0.572315 0.455587 77 71 63
0.595500 1.189249 -0.595500 0.681833 0.572315 -0.455586 77 71 63
0.778058 1.189249 -0.322282 0.681833 0.572315 -0.455586 77 71 63
0.906094 0.994494 -0.375316 0.681833 0.572315 -0.455586 77 71 63
0.693494 0.994494 -0.693494 0.681833 0.572315 -0.455586 77 71 63
-0.778058 1.189249 0.322282 -0.804277 0.572315 0.159981 77 71 63
-0.842164 1.189249 0.000000 -0.804277 0.572315 0.159981 77 71 63
-0.980749 0.994494 0.000000 -0.804277 0.572315 0.159981 77 71 63
-0.906094 0.994494 0.375316 -0.804277 0.572315 0.159981 77 71 63
0.842164 1.189249 -0.000000 0.804277 0.572315 0.159981 77 71 63
0.778058 1.189249 0.322282 0.804277 0.572315 0.159981 77 71 63
0.906094 0.994494 0.375316 0.804277 0.572315 0.159981 77 71 63
0.980749 0.994494 -0.000000 0.804277 0.572315 0.159981 77 71 63
0.778058 1.189249 -0.322282 0.804277 0.572315 -0.159981 77 71 63
0.842164 1.189249 -0.000000 0.804277 0.572315 -0.159981 77 71 63
0.980749 0.994494 -0.000000 0.804277 0.572315 -0.159981 77 71 63
0.906094 0.994494 -0.375316 0.804277 0.572315 -0.159981 77 71 63
-0.842164 1.189249 0.000000 -0.804277 0.572315 -0.159981 77 71 63
-0.778058 1.189249 -0.322282 -0.804277 0.572315 -0.159981 77 71 63
-0.906094 0.994494 -0.375316 -0.804277 0.572315 -0.159981 77 71 63
-0.980749 0.994494 0.000000 -0.804277 0.572315 -0.159981 77 71 63
0.778058 1.189249 0.322282 0.681833 0.572315 0.455587 77 71 63
0.595500 1.189249 0.595500 0.681833 0.572315 0.455587 77 71 63
0.693494 0.994494 0.693494 0.681833 0.572315 0.455587 77 71 63
0.906094 0.994494 0.375316 0.681833 0.572315 0.455587 77 71 63
-0.778058 1.189249 -0.322282 -0.681834 0.572315 -0.455586 77 71 63
-0.595500 1.189249 -0.595500 -0.681834 0.572315 -0.455586 77 71 63
-0.693494 0.994494 -0.693494 -0.681834 0.572315 -0.455586 77 71 63
-0.906094 0.994494 -0.375316 -0.681834 0.572315 -0.455586 77 71 63
0.595500 1.189249 0.595500 0.455586 0.572315 0.681833 77 71 63
0.322282 1.189249 0.778058 0.455586 0.572315 0.681833 77 71 63
0.375316 0.994494 0.906094 0.455586 0.572315 0.681833 77 71 63
0.693494 0.994494 0.693494 0.455586 0.572315 0.681833 77 71 63
-0.595500 1.189249 -0.595500 -0.455587 0.572315 -0.681833 77 71 63
-0.322282 1.189249 -0.778058 -0.455587 0.572315 -0.681833 77 71 63
-0.375317 0.994494 -0.906094 -0.455587 0.572315 -0.681833 77 71 63
-0.693494 0.994494 -0.693494 -0.455587 0.572315 -0.681833 77 71 63
-0.809876 7.175679 0.000000 -0.885054 0.430913 0.176048 77 71 63
-0.748228 7.175679 0.309926 -0.885054 0.430913 0.176048 77 71 63
-0.612840 7.476663 0.253847 -0.885054 0.430913 0.176048 77 71 63
-0.663334 7.476663 -0.000000 -0.885054 0.430913 0.176048 77 71 63
-0.698822 6.821580 0.000000 -0.937439 -0.294003 0.186468 77 71 63
-0.645627 6.821580 0.267428 -0.937439 -0.294003 0.186468 77 71 63
-0.748228 7.175679 0.309926 -0.937439 -0.294003 0.186468 77 71 63
-0.809876 7.175679 0.000000 -0.937439 -0.294003 0.186468 77 71 63
0.267428 6.821580 -0.645627 0.186468 -0.294003 -0.937439 77 71 63
0.000000 6.821580 -0.698822 0.186468 -0.294003 -0.937439 77 71 63
0.000000 7.175679 -0.809876 0.186468 -0.294003 -0.937439 77 71 63
0.309926 7.175679 -0.748228 0.186468 -0.294003 -0.937439 77 71 63
0.645627 6.821580 0.267428 0.937439 -0.294003 0.186468 77 71 63
0.698822 6.821580 -0.000000 0.937439 -0.294003 0.186468 77 71 63
0.809876 7.175679 -0.000000 0.937439 -0.294003 0.186468 77 71 63
0.748228 7.175679 0.309926 0.937439 -0.294003 0.186468 77 71 63
-0.494142 6.821580 0.494142 -0.531017 -0.294003 0.794722 77 71 63
-0.267428 6.821580 0.645627 -0.531017 -0.294003 0.794722 77 71 63
-0.309926 7.175679 0.748227 -0.531017 -0.294003 0.794722 77 71 63
-0.572669 7.175679 0.572668 -0.531017 -0.294003 0.794722 77 71 63
-0.267428 6.821580 -0.645627 -0.531017 -0.294003 -0.794722 77 71 63
-0.494142 6.821580 -0.494142 -0.531017 -0.294003 -0.794722 77 71 63
-0.572669 7.175679 -0.572668 -0.531017 -0.294003 -0.794722 77 71 63
-0.309926 7.175679 -0.748228 -0.531017 -0.294003 -0.794722 77 71 63
0.698822 6.821580 -0.000000 0.937439 -0.294003 -0.186468 77 71 63
0.645627 6.821580 -0.267427 0.937439 -0.294003 -0.186468 77 71 63
0.748228 7.175679 -0.309926 0.937439 -0.294003 -0.186468 77 71 63
0.809876 7.175679 -0.000000 0.937439 -0.294003 -0.186468 77 71 63
-0.000000 6.821580 0.698822 0.186468 -0.294002 0.937439 77 71 63
0.267428 6.821580 0.645627 0.186468 -0.294002 0.937439 77 71 63
0.309926 7.175679 0.748227 0.186468 -0.294002 0.937439 77 71 63
-0.000000 7.175679 0.809876 0.186468 -0.294002 0.937439 77 71 63
-0.645627 6.821580 -0.267427 -0.937439 -0.294003 -0.186468 77 71 63
-0.698822 6.821580 0.000000 -0.937439 -0.294003 -0.186468 77 71 63
-0.809876 7.175679 0.000000 -0.937439 -0.294003 -0.186468 77 71 63
-0.748228 7.175679 -0.309926 -0.937439 -0.294003 -0.186468 77 71 63
0.494142 6.821580 -0.494142 0.531017 -0.294003 -0.794722 77 71 63
0.267428 6.821580 -0.645627 0.531017 -0.294003 -0.794722 77 71 63
0.309926 7.175679 -0.748228 0.531017 -0.294003 -0.794722 77 71 63
0.572669 7.175679 -0.572668 0.531017 -0.294003 -0.794722 77 71 63
0.494142 6.821580 0.494142 0.794722 -0.294003 0.531017 77 71 63
0.645627 6.821580 0.267428 0.794722 -0.294003 0.531017 77 71 63
0.748228 7.175679 0.309926 0.794722 -0.294003 0.531017 77 71 63
0.572669 7.175679 0.572668 0.794722 -0.294003 0.531017 77 71 63
-0.645627 6.821580 0.267428 -0.794722 -0.294003 0.531017 77 71 63
-0.494142 6.821580 0.494142 -0.794722 -0.294003 0.531017 77 71 63
-0.572669 7.175679 0.572668 -0.794722 -0.294003 0.531017 77 71 63
-0.748228 7.175679 0.309926 -0.794722 -0.294003 0.531017 77 71 63
0.000000 6.821580 -0.698822 -0.186468 -0.294003 -0.937439 77 71 63
-0.267428 6.821580 -0.645627 -0.186468 -0.294003 -0.937439 77 71 63
-0.309926 7.175679 -0.748228 -0.186468 -0.294003 -0.937439 77 71 63
0.000000 7.175679 -0.809876 -0.186468 -0.294003 -0.937439 77 71 63
-0.267428 6.821580 0.645627 -0.186468 -0.294002 0.937439 77 71 63
-0.000000 6.821580 0.698822 -0.186468 -0.294002 0.937439 77 71 63
-0.000000 7.175679 0.809876 -0.186468 -0.294002 0.937439 77 71 63
-0.309926 7.175679 0.748227 -0.186468 -0.294002 0.937439 77 71 63
-0.494142 6.821580 -0.494142 -0.794723 -0.294003 -0.531016 77 71 63
-0.645627 6.821580 -0.267427 -0.794723 -0.294003 -0.531016 77 71 63
-0.748228 7.175679 -0.309926 -0.794723 -0.294003 -0.531016 77 71 63
-0.572669 7.175679 -0.572668 -0.794723 -0.294003 -0.531016 77 71 63
0.645627 6.821580 -0.267427 0.794723 -0.294003 -0.531016 77 71 63
0.494142 6.821580 -0.494142 0.794723 -0.294003 -0.531016 77 71 63
0.572669 7.175679 -0.572668 0.794723 -0.294003 -0.531016 77 71 63
0.748228 7.175679 -0.309926 0.794723 -0.294003 -0.531016 77 71 63
0.253847 7.476663 -0.612841 0.190460 -0.216583 -0.957506 77 71 63
0.000000 7.476663 -0.663334 0.190460 -0.216583 -0.957506 77 71 63
0.000000 8.231676 -0.834114 0.190460 -0.216583 -0.957506 77 71 63
0.319202 8.231676 -0.770621 0.190460 -0.216583 -0.957506 77 71 63
0.748228 7.175679 0.309926 0.885054 0.430913 0.176048 77 71 63
0.809876 7.175679 -0.000000 0.885054 0.430913 0.176048 77 71 63
0.663334 7.476663 -0.000000 0.885054 0.430913 0.176048 77 71 63
0.612840 7.476663 0.253847 0.885054 0.430913 0.176048 77 71 63
0.809876 7.175679 -0.000000 0.885054 0.430913 -0.176048 77 71 63
0.748228 7.175679 -0.309926 0.885054 0.430913 -0.176048 77 71 63
0.612841 7.476663 -0.253847 0.885054 0.430913 -0.176048 77 71 63
0.663334 7.476663 -0.000000 0.885054 0.430913 -0.176048 77 71 63
-0.748228 7.175679 -0.309926 -0.885054 0.430913 -0.176048 77 71 63
-0.809876 7.175679 0.000000 -0.885054 0.430913 -0.176048 77 71 63
-0.663334 7.476663 -0.000000 -0.885054 0.430913 -0.176048 77 71 63
-0.612840 7.476663 -0.253847 -0.885054 0.430913 -0.176048 77 71 63
0.572669 7.175679 0.572668 0.750313 0.430913 0.501343 77 71 63
0.748228 7.175679 0.309926 0.750313 0.430913 0.501343 77 71 63
0.612840 7.476663 0.253847 0.750313 0.430913 0.501343 77 71 63
0.469048 7.476663 0.469048 0.750313 0.430913 0.501343 77 71 63
-0.572669 7.175679 -0.572668 -0.750313 0.430913 -0.501343 77 71 63
-0.748228 7.175679 -0.309926 -0.750313 0.430913 -0.501343 77 71 63
-0.612840 7.476663 -0.253847 -0.750313 0.430913 -0.501343 77 71 63
-0.469048 7.476663 -0.469048 -0.750313 0.430913 -0.501343 77 71 63
0.309926 7.175679 0.748227 0.501343 0.430913 0.750313 77 71 63
0.572669 7.175679 0.572668 0.501343 0.430913 0.750313 77 71 63
0.469048 7.476663 0.469048 0.501343 0.430913 0.750313 77 71 63
0.253847 7.476663 0.612840 0.501343 0.430913 0.750313 77 71 63
-0.309926 7.175679 -0.748228 -0.501343 0.430913 -0.750313 77 71 63
-0.572669 7.175679 -0.572668 -0.501343 0.430913 -0.750313 77 71 63
-0.469048 7.476663 -0.469048 -0.501343 0.430913 -0.750313 77 71 63
-0.253847 7.476663 -0.612841 -0.501343 0.430913 -0.750313 77 71 63
-0.000000 7.175679 0.809876 0.176048 0.430913 0.885054 77 71 63
0.309926 7.175679 0.748227 0.176048 0.430913 0.885054 77 71 63
0.253847 7.476663 0.612840 0.176048 0.430913 0.885054 77 71 63
-0.000000 7.476663 0.663333 0.176048 0.430913 0.885054 77 71 63
0.000000 7.175679 -0.809876 -0.176048 0.430912 -0.885054 77 71 63
-0.309926 7.175679 -0.748228 -0.176048 0.430912 -0.885054 77 71 63
-0.253847 7.476663 -0.612841 -0.176048 0.430912 -0.885054 77 71 63
0.000000 7.476663 -0.663334 -0.176048 0.430912 -0.885054 77 71 63
-0.309926 7.175679 0.748227 -0.176048 0.430913 0.885054 77 71 63
-0.000000 7.175679 0.809876 -0.176048 0.430913 0.885054 77 71 63
-0.000000 7.476663 0.663333 -0.176048 0.430913 0.885054 77 71 63
-0.253847 7.476663 0.612840 -0.176048 0.430913 0.885054 77 71 63
0.309926 7.175679 -0.748228 0.176048 0.430912 -0.885054 77 71 63
0.000000 7.175679 -0.809876 0.176048 0.430912 -0.885054 77 71 63
0.000000 7.476663 -0.663334 0.176048 0.430912 -0.885054 77 71 63
0.253847 7.476663 -0.612841 0.176048 0.430912 -0.885054 77 71 63
-0.572669 7.175679 0.572668 -0.501343 0.430913 0.750313 77 71 63
-0.309926 7.175679 0.748227 -0.501343 0.430913 0.750313 77 71 63
-0.253847 7.476663 0.612840 -0.501343 0.430913 0.750313 77 71 63
-0.469048 7.476663 0.469048 -0.501343 0.430913 0.750313 77 71 63
0.572669 7.175679 -0.572668 0.501343 0.430913 -0.750313 77 71 63
0.309926 7.175679 -0.748228 0.501343 0.430913 -0.750313 77 71 63
0.253847 7.476663 -0.612841 0.501343 0.430913 -0.750313 77 71 63
0.469048 7.476663 -0.469048 0.501343 0.430913 -0.750313 77 71 63
-0.748228 7.175679 0.309926 -0.750313 0.430913 0.501343 77 71 63
-0.572669 7.175679 0.572668 -0.750313 0.430913 0.501343 77 71 63
-0.469048 7.476663 0.469048 -0.750313 0.430913 0.501343 77 71 63
-0.612840 7.476663 0.253847 -0.750313 0.430913 0.501343 77 71 63
0.748228 7.175679 -0.309926 0.750313 0.430913 -0.501343 77 71 63
0.572669 7.175679 -0.572668 0.750313 0.430913 -0.501343 77 71 63
0.469048 7.476663 -0.469048 0.750313 0.430913 -0.501343 77 71 63
0.612841 7.476663 -0.253847 0.750313 0.430913 -0.501343 77 71 63
0.319202 8.231676 0.770621 0.555570 0.000000 0.831470 77 71 63
0.589808 8.231676 0.589808 0.555570 0.000000 0.831470 77 71 63
0.589808 8.360392 0.589808 0.555570 0.000000 0.831470 77 71 63
0.319202 8.360392 0.770621 0.555570 0.000000 0.831470 77 71 63
-0.469048 7.476663 0.469048 -0.542383 -0.216583 0.811734 77 71 63
-0.253847 7.476663 0.612840 -0.542383 -0.216583 0.811734 77 71 63
-0.319202 8.231676 0.770621 -0.542383 -0.216583 0.811734 77 71 63
-0.589808 8.231676 0.589808 -0.542383 -0.216583 0.811734 77 71 63
0.469048 7.476663 -0.469048 0.542384 -0.216583 -0.811734 77 71 63
0.253847 7.476663 -0.612841 0.542384 -0.216583 -0.811734 77 71 63
0.319202 8.231676 -0.770621 0.542384 -0.216583 -0.811734 77 71 63
0.589808 8.231676 -0.589807 0.542384 -0.216583 -0.811734 77 71 63
-0.612840 7.476663 0.253847 -0.811734 -0.216583 0.542383 77 71 63
-0.469048 7.476663 0.469048 -0.811734 -0.216583 0.542383 77 71 63
-0.589808 8.231676 0.589808 -0.811734 -0.216583 0.542383 77 71 63
-0.770621 8.231676 0.319201 -0.811734 -0.216583 0.542383 77 71 63
0.612841 7.476663 -0.253847 0.811734 -0.216583 -0.542383 77 71 63
0.469048 7.476663 -0.469048 0.811734 -0.216583 -0.542383 77 71 63
0.589808 8.231676 -0.589807 0.811734 -0.216583 -0.542383 77 71 63
0.770621 8.231676 -0.319201 0.811734 -0.216583 -0.542383 77 71 63
-0.663334 7.476663 -0.000000 -0.957506 -0.216583 0.190460 77 71 63
-0.612840 7.476663 0.253847 -0.957506 -0.216583 0.190460 77 71 63
-0.770621 8.231676 0.319201 -0.957506 -0.216583 0.190460 77 71 63
-0.834114 8.231676 0.000000 -0.957506 -0.216583 0.190460 77 71 63
0.612840 7.476663 0.253847 0.957506 -0.216583 0.190460 77 71 63
0.663334 7.476663 -0.000000 0.957506 -0.216583 0.190460 77 71 63
0.834114 8.231676 -0.000000 0.957506 -0.216583 0.190460 77 71 63
0.770621 8.231676 0.319201 0.957506 -0.216583 0.190460 77 71 63
0.663334 7.476663 -0.000000 0.957506 -0.216583 -0.190459 77 71 63
0.612841 7.476663 -0.253847 0.957506 -0.216583 -0.190459 77 71 63
0.770621 8.231676 -0.319201 0.957506 -0.216583 -0.190459 77 71 63
0.834114 8.231676 -0.000000 0.957506 -0.216583 -0.190459 77 71 63
-0.612840 7.476663 -0.253847 -0.957506 -0.216583 -0.190459 77 71 63
-0.663334 7.476663 -0.000000 -0.957506 -0.216583 -0.190459 77 71 63
-0.834114 8.231676 0.000000 -0.957506 -0.216583 -0.190459 77 71 63
-0.770621 8.231676 -0.319201 -0.957506 -0.216583 -0.190459 77 71 63
0.469048 7.476663 0.469048 0.811734 -0.216583 0.542383 77 71 63
0.612840 7.476663 0.253847 0.811734 -0.216583 0.542383 77 71 63
0.770621 8.231676 0.319201 0.811734 -0.216583 0.542383 77 71 63
0.589808 8.231676 0.589808 0.811734 -0.216583 0.542383 77 71 63
-0.469048 7.476663 -0.469048 -0.811734 -0.216583 -0.542383 77 71 63
-0.612840 7.476663 -0.253847 -0.811734 -0.216583 -0.542383 77 71 63
-0.770621 8.231676 -0.319201 -0.811734 -0.216583 -0.542383 77 71 63
-0.589808 8.231676 -0.589808 -0.811734 -0.216583 -0.542383 77 71 63
0.253847 7.476663 0.612840 0.542383 -0.216583 0.811734 77 71 63
0.469048 7.476663 0.469048 0.542383 -0.216583 0.811734 77 71 63
0.589808 8.231676 0.589808 0.542383 -0.216583 0.811734 77 71 63
0.319202 8.231676 0.770621 0.542383 -0.216583 0.811734 77 71 63
-0.253847 7.476663 -0.612841 -0.542384 -0.216583 -0.811734 77 71 63
-0.469048 7.476663 -0.469048 -0.542384 -0.216583 -0.811734 77 71 63
-0.589808 8.231676 -0.589808 -0.542384 -0.216583 -0.811734 77 71 63
-0.319202 8.231676 -0.770621 -0.542384 -0.216583 -0.811734 77 71 63
-0.000000 7.476663 0.663333 0.190460 -0.216583 0.957506 77 71 63
0.253847 7.476663 0.612840 0.190460 -0.216583 0.957506 77 71 63
0.319202 8.231676 0.770621 0.190460 -0.216583 0.957506 77 71 63
-0.000000 8.231676 0.834114 0.190460 -0.216583 0.957506 77 71 63
0.000000 7.476663 -0.663334 -0.190460 -0.216583 -0.957506 77 71 63
-0.253847 7.476663 -0.612841 -0.190460 -0.216583 -0.957506 77 71 63
-0.319202 8.231676 -0.770621 -0.190460 -0.216583 -0.957506 77 71 63
0.000000 8.231676 -0.834114 -0.190460 -0.216583 -0.957506 77 71 63
-0.253847 7.476663 0.612840 -0.190460 -0.216583 0.957506 77 71 63
-0.000000 7.476663 0.663333 -0.190460 -0.216583 0.957506 77 71 63
-0.000000 8.231676 0.834114 -0.190460 -0.216583 0.957506 77 71 63
-0.319202 8.231676 0.770621 -0.190460 -0.216583 0.957506 77 71 63
0.770621 8.360392 0.319201 0.000000 1.000000 0.000000 77 71 63
0.319202 8.360392 0.770621 0.000000 1.000000 0.000000 77 71 63
0.589808 8.360392 0.589808 0.000000 1.000000 0.000000 77 71 63
-0.319202 8.360392 0.770621 0.000000 1.000000 0.000000 77 71 63
-0.000000 8.360392 0.834114 0.000000 1.000000 0.000000 77 71 63
-0.770621 8.360392 0.319201 0.000000 1.000000 0.000000 77 71 63
-0.589808 8.360392 0.589808 0.000000 1.000000 0.000000 77 71 63
-0.770621 8.360392 -0.319201 0.000000 1.000000 0.000000 77 71 63
-0.834114 8.360392 0.000000 0.000000 1.000000 0.000000 77 71 63
-0.319202 8.360392 -0.770621 0.000000 1.000000 0.000000 77 71 63
-0.589808 8.360392 -0.589808 0.000000 1.000000 0.000000 77 71 63
0.319202 8.360392 -0.770621 -0.000000 1.000000 0.000000 77 71 63
0.000000 8.360392 -0.834114 -0.000000 1.000000 0.000000 77 71 63
0.770621 8.360392 -0.319201 0.000000 1.000000 0.000000 77 71 63
0.589808 8.360392 -0.589807 0.000000 1.000000 0.000000 77 71 63
0.834114 8.360392 -0.000000 0.000000 1.000000 -0.000000 77 71 63
-0.319202 8.231676 -0.770621 -0.555570 0.000000 -0.831469 77 71 63
-0.589808 8.231676 -0.589808 -0.555570 0.000000 -0.831469 77 71 63
-0.589808 8.360392 -0.589808 -0.555570 0.000000 -0.831469 77 71 63
-0.319202 8.360392 -0.770621 -0.555570 0.000000 -0.831469 77 71 63
-0.000000 8.231676 0.834114 0.195090 0.000000 0.980785 77 71 63
0.319202 8.231676 0.770621 0.195090 0.000000 0.980785 77 71 63
0.319202 8.360392 0.770621 0.195090 0.000000 0.980785 77 71 63
-0.000000 8.360392 0.834114 0.195090 0.000000 0.980785 77 71 63
0.000000 8.231676 -0.834114 -0.195090 0.000000 -0.980785 77 71 63
-0.319202 8.231676 -0.770621 -0.195090 0.000000 -0.980785 77 71 63
-0.319202 8.360392 -0.770621 -0.195090 0.000000 -0.980785 77 71 63
0.000000 8.360392 -0.834114 -0.195090 0.000000 -0.980785 77 71 63
-0.319202 8.231676 0.770621 -0.195090 0.000000 0.980785 77 71 63
-0.000000 8.231676 0.834114 -0.195090 0.000000 0.980785 77 71 63
-0.000000 8.360392 0.834114 -0.195090 0.000000 0.980785 77 71 63
-0.319202 8.360392 0.770621 -0.195090 0.000000 0.980785 77 71 63
0.319202 8.231676 -0.770621 0.195091 0.000000 -0.980785 77 71 63
0.000000 8.231676 -0.834114 0.195091 0.000000 -0.980785 77 71 63
0.000000 8.360392 -0.834114 0.195091 0.000000 -0.980785 77 71 63
0.319202 8.360392 -0.770621 0.195091 0.000000 -0.980785 77 71 63
-0.589808 8.231676 0.589808 -0.555570 0.000000 0.831470 77 71 63
-0.319202 8.231676 0.770621 -0.555570 0.000000 0.831470 77 71 63
-0.319202 8.360392 0.770621 -0.555570 0.000000 0.831470 77 71 63
-0.589808 8.360392 0.589808 -0.555570 0.000000 0.831470 77 71 63
0.589808 8.231676 -0.589807 0.555571 0.000000 -0.831469 77 71 63
0.319202 8.231676 -0.770621 0.555571 0.000000 -0.831469 77 71 63
0.319202 8.360392 -0.770621 0.555571 0.000000 -0.831469 77 71 63
0.589808 8.360392 -0.589807 0.555571 0.000000 -0.831469 77 71 63
-0.770621 8.231676 0.319201 -0.831470 0.000000 0.555570 77 71 63
-0.589808 8.231676 0.589808 -0.831470 0.000000 0.555570 77 71 63
-0.589808 8.360392 0.589808 -0.831470 0.000000 0.555570 77 71 63
-0.770621 8.360392 0.319201 -0.831470 0.000000 0.555570 77 71 63
0.770621 8.231676 -0.319201 0.831470 0.000000 -0.555570 77 71 63
0.589808 8.231676 -0.589807 0.831470 0.000000 -0.555570 77 71 63
0.589808 8.360392 -0.589807 0.831470 0.000000 -0.555570 77 71 63
0.770621 8.360392 -0.319201 0.831470 0.000000 -0.555570 77 71 63
-0.834114 8.231676 0.000000 -0.980785 0.000000 0.195090 77 71 63
-0.770621 8.231676 0.319201 -0.980785 0.000000 0.195090 77 71 63
-0.770621 8.360392 0.319201 -0.980785 0.000000 0.195090 77 71 63
-0.834114 8.360392 0.000000 -0.980785 0.000000 0.195090 77 71 63
0.770621 8.231676 0.319201 0.980785 0.000000 0.195090 77 71 63
0.834114 8.231676 -0.000000 0.980785 0.000000 0.195090 77 71 63
0.834114 8.360392 -0.000000 0.980785 0.000000 0.195090 77 71 63
0.770621 8.360392 0.319201 0.980785 0.000000 0.195090 77 71 63
0.834114 8.231676 -0.000000 0.980785 0.000000 -0.195090 77 71 63
0.770621 8.231676 -0.319201 0.980785 0.000000 -0.195090 77 71 63
0.770621 8.360392 -0.319201 0.980785 0.000000 -0.195090 77 71 63
0.834114 8.360392 -0.000000 0.980785 0.000000 -0.195090 77 71 63
-0.770621 8.231676 -0.319201 -0.980785 0.000000 -0.195090 77 71 63
-0.834114 8.231676 0.000000 -0.980785 0.000000 -0.195090 77 71 63
-0.834114 8.360392 0.000000 -0.980785 0.000000 -0.195090 77 71 63
-0.770621 8.360392 -0.319201 -0.980785 0.000000 -0.195090 77 71 63
0.589808 8.231676 0.589808 0.831470 0.000000 0.555570 77 71 63
0.770621 8.231676 0.319201 0.831470 0.000000 0.555570 77 71 63
0.770621 8.360392 0.319201 0.831470 0.000000 0.555570 77 71 63
0.589808 8.360392 0.589808 0.831470 0.000000 0.555570 77 71 63
-0.589808 8.231676 -0.589808 -0.831470 0.000000 -0.555570 77 71 63
-0.770621 8.231676 -0.319201 -0.831470 0.000000 -0.555570 77 71 63
-0.770621 8.360392 -0.319201 -0.831470 0.000000 -0.555570 77 71 63
-0.589808 8.360392 -0.589808 -0.831470 0.000000 -0.555570 77 71 63
1.000000 -1.000000 1.000000 0.000000 -1.000000 0.000000 77 71 63
-1.000000 -1.000000 1.000000 0.000000 -1.000000 0.000000 77 71 63
-1.000000 -1.000000 -1.000000 0.000000 -1.000000 0.000000 77 71 63
1.000000 -1.000000 -1.000000 0.000000 -1.000000 0.000000 77 71 63
0.999999 1.000000 1.000000 -0.000000 1.000000 0.000000 77 71 63
1.000000 1.000000 -1.000000 -0.000000 1.000000 0.000000 77 71 63
-1.000000 1.000000 -1.000000 -0.000000 1.000000 0.000000 77 71 63
-1.000001 1.000000 0.999999 -0.000000 1.000000 0.000000 77 71 63
1.000000 -1.000000 1.000000 -0.000000 0.000000 1.000000 77 71 63
0.999999 1.000000 1.000000 -0.000000 0.000000 1.000000 77 71 63
-1.000001 1.000000 0.999999 -0.000000 0.000000 1.000000 77 71 63
-1.000000 -1.000000 1.000000 -0.000000 0.000000 1.000000 77 71 63
-1.000000 -1.000000 1.000000 -1.000000 -0.000000 -0.000000 77 71 63
-1.000001 1.000000 0.999999 -1.000000 -0.000000 -0.000000 77 71 63
-1.000000 1.000000 -1.000000 -1.000000 -0.000000 -0.000000 77 71 63
-1.000000 -1.000000 -1.000000 -1.000000 -0.000000 -0.000000 77 71 63
-1.000000 -1.000000 -1.000000 0.000000 -0.000000 -1.000000 77 71 63
-1.000000 1.000000 -1.000000 0.000000 -0.000000 -1.000000 77 71 63
1.000000 1.000000 -1.000000 0.000000 -0.000000 -1.000000 77 71 63
1.000000 -1.000000 -1.000000 0.000000 -0.000000 -1.000000 77 71 63
0.999999 1.000000 1.000000 1.000000 0.000000 0.000000 77 71 63
1.000000 -1.000000 1.000000 1.000000 0.000000 0.000000 77 71 63
1.000000 -1.000000 -1.000000 1.000000 0.000000 0.000000 77 71 63
1.000000 1.000000 -1.000000 1.000000 0.000000 0.000000 77 71 63
4 0 1 2 3
4 4 5 6 7
4 8 9 10 11
4 12 13 14 15
4 16 17 18 19
4 20 21 22 23
4 24 25 26 27
4 28 29 30 31
4 32 33 34 35
4 36 37 38 39
4 40 41 42 43
4 44 45 46 47
4 48 49 50 51
4 52 53 54 55
4 56 57 58 59
4 60 61 62 63
4 64 65 66 67
4 68 69 70 71
4 72 73 74 75
4 76 77 78 79
4 80 81 82 83
4 84 85 86 87
4 88 89 90 91
4 92 93 94 95
4 96 97 98 99
4 100 101 102 103
4 104 105 106 107
4 108 109 110 111
4 112 113 114 115
4 116 117 118 119
4 120 121 122 123
4 124 125 126 127
4 128 129 130 131
4 132 133 134 135
4 136 137 138 139
4 140 141 142 143
4 144 145 146 147
4 148 149 150 151
4 152 153 154 155
4 156 157 158 159
4 160 161 162 163
4 164 165 166 167
4 168 169 170 171
4 172 173 174 175
4 176 177 178 179
4 180 181 182 183
4 184 185 186 187
4 188 189 190 191
4 192 193 194 195
4 196 197 198 199
4 200 201 202 203
4 204 205 206 207
4 137 208 209 138
4 205 210 211 206
4 208 212 213 209
4 210 214 215 211
4 212 216 217 213
4 214 218 219 215
4 216 220 221 217
4 218 222 223 219
4 220 224 225 221
4 222 226 227 223
4 224 228 229 225
4 226 136 139 227
4 230 204 207 231
4 228 230 231 229
4 232 233 234 235
4 236 237 238 239
4 240 241 242 243
4 244 245 246 247
4 248 249 250 251
4 252 253 254 255
4 256 257 258 259
4 260 261 262 263
4 264 265 266 267
4 268 269 270 271
4 272 273 274 275
4 276 277 278 279
4 280 281 282 283
4 284 285 286 287
4 288 289 290 291
4 292 293 294 295
3 296 297 298
3 299 300 297
3 301 302 299
3 303 304 301
3 305 306 303
3 307 308 305
3 309 310 307
3 296 311 309
3 296 299 297
3 303 301 299
3 307 305 303
3 296 309 307
3 296 303 299
3 296 307 303
4 312 313 314 315
4 316 317 318 319
4 320 321 322 323
4 324 325 326 327
4 328 329 330 331
4 332 333 334 335
4 336 337 338 339
4 340 341 342 343
4 344 345 346 347
4 348 349 350 351
4 352 353 354 355
4 356 357 358 359
4 360 361 362 363
4 364 365 366 367
4 368 369 370 371
4 372 373 374 375
4 376 377 378 379
4 380 381 382 383
4 384 385 386 387
4 388 389 390 391
4 392 393 394 395
4 396 397 398 399
4 400 401 402 403
4 404 405 406 407
4 408 409 410 411
4 412 413 414 415
4 416 417 418 419
4 420 421 422 423
4 424 425 426 427
4 428 429 430 431
4 432 433 434 435
4 436 437 438 439
4 440 441 442 443
4 444 445 446 447
4 448 449 450 451
4 452 453 454 455
4 456 457 458 459
4 460 461 462 463
4 464 465 466 467
4 468 469 470 471
4 472 473 474 475
4 476 477 478 479
4 480 481 482 483
4 484 485 486 487
4 488 489 490 491
4 492 493 494 495
4 496 497 498 499
4 500 501 502 503
4 504 505 506 507
4 508 509 510 511
4 512 513 514 515
4 516 517 518 519
4 520 521 522 523
4 524 525 526 527
4 528 529 530 531
4 532 533 534 535
4 536 537 538 539
4 540 541 542 543
4 544 545 546 547
4 548 549 550 551
4 552 553 554 555
4 556 557 558 559
4 560 561 562 563
3 564 565 566
3 567 568 565
3 569 570 567
3 571 572 569
3 573 574 571
3 575 576 573
3 577 578 575
3 564 579 577
3 564 567 565
3 571 569 567
3 575 573 571
3 564 577 575
3 564 571 567
3 564 575 571
4 580 581 582 583
4 584 585 586 587
4 588 589 590 591
4 592 593 594 595
4 596 597 598 599
4 600 601 602 603
4 604 605 606 607
4 608 609 610 611
4 612 613 614 615
4 616 617 618 619
4 620 621 622 623
4 624 625 626 627
4 628 629 630 631
4 632 633 634 635
4 636 637 638 639
4 640 641 642 643
4 644 645 646 647
4 648 649 650 651
4 652 653 654 655
4 656 657 658 659
4 660 661 662 663
