ply
format ascii 1.0
comment Created by Blender 2.73 (sub 0) - www.blender.org, source file: 'prison_cell_bar_separated.blend'
element vertex 192
property float x
property float y
property float z
property float nx
property float ny
property float nz
property uchar red
property uchar green
property uchar blue
element face 48
property list uchar uint vertex_indices
end_header
-0.960448 1.121342 -0.084013 0.000000 -1.000000 -0.000000 255 255 255
-0.794659 1.121342 -0.084013 0.000000 -1.000000 -0.000000 255 255 255
-0.794659 1.121342 0.081776 0.000000 -1.000000 -0.000000 255 255 255
-0.960448 1.121342 0.081776 0.000000 -1.000000 -0.000000 255 255 255
-0.960448 6.740967 -0.084013 0.000000 1.000000 0.000000 78 78 76
-0.960448 6.740967 0.081776 0.000000 1.000000 0.000000 78 78 76
-0.794659 6.740967 0.081776 0.000000 1.000000 0.000000 78 78 76
-0.794659 6.740967 -0.084013 0.000000 1.000000 0.000000 78 78 76
-0.794659 1.121342 0.081776 1.000000 0.000000 0.000000 78 78 76
-0.794659 1.121342 -0.084013 1.000000 0.000000 0.000000 78 78 76
-0.794659 6.740967 -0.084013 1.000000 0.000000 0.000000 78 78 76
-0.794659 6.740967 0.081776 1.000000 0.000000 0.000000 78 78 76
-0.960448 1.121342 0.081776 0.000000 0.000000 1.000000 78 78 76
-0.794659 1.121342 0.081776 0.000000 0.000000 1.000000 78 78 76
-0.794659 6.740967 0.081776 0.000000 0.000000 1.000000 78 78 76
-0.960448 6.740967 0.081776 0.000000 0.000000 1.000000 78 78 76
-0.960448 1.121342 -0.084013 -1.000000 -0.000000 0.000000 78 78 76
-0.960448 1.121342 0.081776 -1.000000 -0.000000 0.000000 78 78 76
-0.960448 6.740967 0.081776 -1.000000 -0.000000 0.000000 78 78 76
-0.960448 6.740967 -0.084013 -1.000000 -0.000000 0.000000 78 78 76
-0.794659 1.121342 -0.084013 0.000000 -0.000000 -1.000000 78 78 76
-0.960448 1.121342 -0.084013 0.000000 -0.000000 -1.000000 78 78 76
-0.960448 6.740967 -0.084013 0.000000 -0.000000 -1.000000 78 78 76
-0.794659 6.740967 -0.084013 0.000000 -0.000000 -1.000000 78 78 76
-0.371068 1.121342 -0.084013 0.000000 -1.000000 -0.000000 255 255 255
-0.205279 1.121342 -0.084013 0.000000 -1.000000 -0.000000 255 255 255
-0.205279 1.121342 0.081776 0.000000 -1.000000 -0.000000 255 255 255
-0.371068 1.121342 0.081776 0.000000 -1.000000 -0.000000 255 255 255
-0.371068 6.740967 -0.084013 0.000000 1.000000 0.000000 78 78 76
-0.371068 6.740967 0.081776 0.000000 1.000000 0.000000 78 78 76
-0.205279 6.740967 0.081776 0.000000 1.000000 0.000000 78 78 76
-0.205279 6.740967 -0.084013 0.000000 1.000000 0.000000 78 78 76
-0.205279 1.121342 0.081776 1.000000 0.000000 0.000000 78 78 76
-0.205279 1.121342 -0.084013 1.000000 0.000000 0.000000 78 78 76
-0.205279 6.740967 -0.084013 1.000000 0.000000 0.000000 78 78 76
-0.205279 6.740967 0.081776 1.000000 0.000000 0.000000 78 78 76
-0.371068 1.121342 0.081776 0.000000 0.000000 1.000000 78 78 76
-0.205279 1.121342 0.081776 0.000000 0.000000 1.000000 78 78 76
-0.205279 6.740967 0.081776 0.000000 0.000000 1.000000 78 78 76
-0.371068 6.740967 0.081776 0.000000 0.000000 1.000000 78 78 76
-0.371068 1.121342 -0.084013 -1.000000 -0.000000 0.000000 78 78 76
-0.371068 1.121342 0.081776 -1.000000 -0.000000 0.000000 78 78 76
-0.371068 6.740967 0.081776 -1.000000 -0.000000 0.000000 78 78 76
-0.371068 6.740967 -0.084013 -1.000000 -0.000000 0.000000 78 78 76
-0.205279 1.121342 -0.084013 0.000000 -0.000000 -1.000000 78 78 76
-0.371068 1.121342 -0.084013 0.000000 -0.000000 -1.000000 78 78 76
-0.371068 6.740967 -0.084013 0.000000 -0.000000 -1.000000 78 78 76
-0.205279 6.740967 -0.084013 0.000000 -0.000000 -1.000000 78 78 76
0.218311 1.121342 -0.084013 0.000000 -1.000000 -0.000000 255 255 255
0.384100 1.121342 -0.084013 0.000000 -1.000000 -0.000000 255 255 255
0.384100 1.121342 0.081776 0.000000 -1.000000 -0.000000 255 255 255
0.218311 1.121342 0.081776 0.000000 -1.000000 -0.000000 255 255 255
0.218311 6.740967 -0.084013 0.000000 1.000000 0.000000 78 78 76
0.218311 6.740967 0.081776 0.000000 1.000000 0.000000 78 78 76
0.384100 6.740967 0.081776 0.000000 1.000000 0.000000 78 78 76
0.384100 6.740967 -0.084013 0.000000 1.000000 0.000000 78 78 76
0.384100 1.121342 0.081776 1.000000 0.000000 0.000000 78 78 76
0.384100 1.121342 -0.084013 1.000000 0.000000 0.000000 78 78 76
0.384100 6.740967 -0.084013 1.000000 0.000000 0.000000 78 78 76
0.384100 6.740967 0.081776 1.000000 0.000000 0.000000 78 78 76
0.218311 1.121342 0.081776 0.000000 0.000000 1.000000 78 78 76
0.384100 1.121342 0.081776 0.000000 0.000000 1.000000 78 78 76
0.384100 6.740967 0.081776 0.000000 0.000000 1.000000 78 78 76
0.218311 6.740967 0.081776 0.000000 0.000000 1.000000 78 78 76
0.218311 1.121342 -0.084013 -1.000000 -0.000000 0.000000 78 78 76
0.218311 1.121342 0.081776 -1.000000 -0.000000 0.000000 78 78 76
0.218311 6.740967 0.081776 -1.000000 -0.000000 0.000000 78 78 76
0.218311 6.740967 -0.084013 -1.000000 -0.000000 0.000000 78 78 76
0.384100 1.121342 -0.084013 0.000000 -0.000000 -1.000000 78 78 76
0.218311 1.121342 -0.084013 0.000000 -0.000000 -1.000000 78 78 76
0.218311 6.740967 -0.084013 0.000000 -0.000000 -1.000000 78 78 76
0.384100 6.740967 -0.084013 0.000000 -0.000000 -1.000000 78 78 76
0.807691 1.121342 -0.084013 0.000000 -1.000000 -0.000000 255 255 255
0.973480 1.121342 -0.084013 0.000000 -1.000000 -0.000000 255 255 255
0.973480 1.121342 0.081776 0.000000 -1.000000 -0.000000 255 255 255
0.807691 1.121342 0.081776 0.000000 -1.000000 -0.000000 255 255 255
0.807691 6.740967 -0.084013 0.000000 1.000000 0.000000 78 78 76
0.807691 6.740967 0.081776 0.000000 1.000000 0.000000 78 78 76
0.973480 6.740967 0.081776 0.000000 1.000000 0.000000 78 78 76
0.973480 6.740967 -0.084013 0.000000 1.000000 0.000000 78 78 76
0.973480 1.121342 0.081776 1.000000 0.000000 0.000000 78 78 76
0.973480 1.121342 -0.084013 1.000000 0.000000 0.000000 78 78 76
0.973480 6.740967 -0.084013 1.000000 0.000000 0.000000 78 78 76
0.973480 6.740967 0.081776 1.000000 0.000000 0.000000 78 78 76
0.807691 1.121342 0.081776 0.000000 0.000000 1.000000 78 78 76
0.973480 1.121342 0.081776 0.000000 0.000000 1.000000 78 78 76
0.973480 6.740967 0.081776 0.000000 0.000000 1.000000 78 78 76
0.807691 6.740967 0.081776 0.000000 0.000000 1.000000 78 78 76
0.807691 1.121342 -0.084013 -1.000000 -0.000000 0.000000 78 78 76
0.807691 1.121342 0.081776 -1.000000 -0.000000 0.000000 78 78 76
0.807691 6.740967 0.081776 -1.000000 -0.000000 0.000000 78 78 76
0.807691 6.740967 -0.084013 -1.000000 -0.000000 0.000000 78 78 76
0.973480 1.121342 -0.084013 0.000000 -0.000000 -1.000000 78 78 76
0.807691 1.121342 -0.084013 0.000000 -0.000000 -1.000000 78 78 76
0.807691 6.740967 -0.084013 0.000000 -0.000000 -1.000000 78 78 76
0.973480 6.740967 -0.084013 0.000000 -0.000000 -1.000000 78 78 76
-1.000000 1.117711 -0.103048 0.000000 0.000000 -1.000000 78 78 76
1.000000 1.117711 -0.103048 0.000000 0.000000 -1.000000 78 78 76
1.000000 0.803055 -0.103048 0.000000 0.000000 -1.000000 78 78 76
-1.000000 0.803055 -0.103048 0.000000 0.000000 -1.000000 78 78 76
1.000000 1.117711 -0.103048 1.000000 -0.000000 0.000000 78 78 76
1.000000 1.117711 0.103048 1.000000 -0.000000 0.000000 78 78 76
1.000000 0.803055 0.103048 1.000000 -0.000000 0.000000 78 78 76
1.000000 0.803055 -0.103048 1.000000 -0.000000 0.000000 78 78 76
1.000000 1.117711 0.103048 0.000000 -0.000000 1.000000 78 78 76
-1.000000 1.117711 0.103048 0.000000 -0.000000 1.000000 78 78 76
-1.000000 0.803055 0.103048 0.000000 -0.000000 1.000000 78 78 76
1.000000 0.803055 0.103048 0.000000 -0.000000 1.000000 78 78 76
-1.000000 1.117711 0.103048 -1.000000 0.000000 0.000000 78 78 76
-1.000000 1.117711 -0.103048 -1.000000 0.000000 0.000000 78 78 76
-1.000000 0.803055 -0.103048 -1.000000 0.000000 0.000000 78 78 76
-1.000000 0.803055 0.103048 -1.000000 0.000000 0.000000 78 78 76
-1.000000 0.803055 -0.103048 0.000000 -1.000000 -0.000000 78 78 76
1.000000 0.803055 -0.103048 0.000000 -1.000000 -0.000000 78 78 76
1.000000 0.803055 0.103048 0.000000 -1.000000 -0.000000 78 78 76
-1.000000 0.803055 0.103048 0.000000 -1.000000 -0.000000 78 78 76
-1.000000 1.117711 0.103048 0.000000 1.000000 -0.000000 78 78 76
1.000000 1.117711 0.103048 0.000000 1.000000 -0.000000 78 78 76
1.000000 1.117711 -0.103048 0.000000 1.000000 -0.000000 78 78 76
-1.000000 1.117711 -0.103048 0.000000 1.000000 -0.000000 78 78 76
-1.000000 4.075475 -0.103048 0.000000 0.000000 -1.000000 78 78 76
1.000000 4.075475 -0.103048 0.000000 0.000000 -1.000000 78 78 76
1.000000 3.760819 -0.103048 0.000000 0.000000 -1.000000 78 78 76
-1.000000 3.760819 -0.103048 0.000000 0.000000 -1.000000 78 78 76
1.000000 4.075475 -0.103048 1.000000 -0.000000 0.000000 78 78 76
1.000000 4.075475 0.103048 1.000000 -0.000000 0.000000 78 78 76
1.000000 3.760819 0.103048 1.000000 -0.000000 0.000000 78 78 76
1.000000 3.760819 -0.103048 1.000000 -0.000000 0.000000 78 78 76
1.000000 4.075475 0.103048 0.000000 -0.000000 1.000000 78 78 76
-1.000000 4.075475 0.103048 0.000000 -0.000000 1.000000 78 78 76
-1.000000 3.760819 0.103048 0.000000 -0.000000 1.000000 78 78 76
1.000000 3.760819 0.103048 0.000000 -0.000000 1.000000 78 78 76
-1.000000 4.075475 0.103048 -1.000000 0.000000 0.000000 78 78 76
-1.000000 4.075475 -0.103048 -1.000000 0.000000 0.000000 78 78 76
-1.000000 3.760819 -0.103048 -1.000000 0.000000 0.000000 78 78 76
-1.000000 3.760819 0.103048 -1.000000 0.000000 0.000000 78 78 76
-1.000000 3.760819 -0.103048 0.000000 -1.000000 -0.000000 78 78 76
1.000000 3.760819 -0.103048 0.000000 -1.000000 -0.000000 78 78 76
1.000000 3.760819 0.103048 0.000000 -1.000000 -0.000000 78 78 76
-1.000000 3.760819 0.103048 0.000000 -1.000000 -0.000000 78 78 76
-1.000000 4.075475 0.103048 0.000000 1.000000 -0.000000 78 78 76
1.000000 4.075475 0.103048 0.000000 1.000000 -0.000000 78 78 76
1.000000 4.075475 -0.103048 0.000000 1.000000 -0.000000 78 78 76
-1.000000 4.075475 -0.103048 0.000000 1.000000 -0.000000 78 78 76
-1.000000 7.033239 -0.103048 0.000000 0.000000 -1.000000 78 78 76
1.000000 7.033239 -0.103048 0.000000 0.000000 -1.000000 78 78 76
1.000000 6.718583 -0.103048 0.000000 0.000000 -1.000000 78 78 76
-1.000000 6.718583 -0.103048 0.000000 0.000000 -1.000000 78 78 76
1.000000 7.033239 -0.103048 1.000000 -0.000000 0.000000 78 78 76
1.000000 7.033239 0.103048 1.000000 -0.000000 0.000000 78 78 76
1.000000 6.718583 0.103048 1.000000 -0.000000 0.000000 78 78 76
1.000000 6.718583 -0.103048 1.000000 -0.000000 0.000000 78 78 76
1.000000 7.033239 0.103048 0.000000 -0.000000 1.000000 78 78 76
-1.000000 7.033239 0.103048 0.000000 -0.000000 1.000000 78 78 76
-1.000000 6.718583 0.103048 0.000000 -0.000000 1.000000 78 78 76
1.000000 6.718583 0.103048 0.000000 -0.000000 1.000000 78 78 76
-1.000000 7.033239 0.103048 -1.000000 0.000000 0.000000 78 78 76
-1.000000 7.033239 -0.103048 -1.000000 0.000000 0.000000 78 78 76
-1.000000 6.718583 -0.103048 -1.000000 0.000000 0.000000 78 78 76
-1.000000 6.718583 0.103048 -1.000000 0.000000 0.000000 78 78 76
-1.000000 6.718583 -0.103048 0.000000 -1.000000 -0.000000 78 78 76
1.000000 6.718583 -0.103048 0.000000 -1.000000 -0.000000 78 78 76
1.000000 6.718583 0.103048 0.000000 -1.000000 -0.000000 78 78 76
-1.000000 6.718583 0.103048 0.000000 -1.000000 -0.000000 78 78 76
-1.000000 7.033239 0.103048 0.000000 1.000000 -0.000000 78 78 76
1.000000 7.033239 0.103048 0.000000 1.000000 -0.000000 78 78 76
1.000000 7.033239 -0.103048 0.000000 1.000000 -0.000000 78 78 76
-1.000000 7.033239 -0.103048 0.000000 1.000000 -0.000000 78 78 76
1.000000 -1.000000 1.000000 0.000000 -1.000000 0.000000 156 126 56
-1.000000 -1.000000 1.000000 0.000000 -1.000000 0.000000 155 125 55
-1.000000 -1.000000 -1.000000 0.000000 -1.000000 0.000000 155 125 55
1.000000 -1.000000 -1.000000 0.000000 -1.000000 0.000000 155 125 55
1.000000 1.000000 1.000000 -0.000000 1.000000 0.000000 155 125 55
1.000000 1.000000 -1.000000 -0.000000 1.000000 0.000000 155 125 55
-1.000000 1.000000 -1.000000 -0.000000 1.000000 0.000000 155 125 55
-1.000001 1.000000 0.999999 -0.000000 1.000000 0.000000 155 125 55
1.000000 -1.000000 1.000000 -0.000000 0.000000 1.000000 155 125 55
1.000000 1.000000 1.000000 -0.000000 0.000000 1.000000 155 125 55
-1.000001 1.000000 0.999999 -0.000000 0.000000 1.000000 160 130 61
-1.000000 -1.000000 1.000000 -0.000000 0.000000 1.000000 155 125 55
-1.000000 -1.000000 1.000000 -1.000000 -0.000000 -0.000000 155 125 55
-1.000001 1.000000 0.999999 -1.000000 -0.000000 -0.000000 155 125 55
-1.000000 1.000000 -1.000000 -1.000000 -0.000000 -0.000000 155 125 55
-1.000000 -1.000000 -1.000000 -1.000000 -0.000000 -0.000000 155 125 55
-1.000000 -1.000000 -1.000000 0.000000 -0.000000 -1.000000 155 125 55
-1.000000 1.000000 -1.000000 0.000000 -0.000000 -1.000000 155 125 55
1.000000 1.000000 -1.000000 0.000000 -0.000000 -1.000000 155 125 55
1.000000 -1.000000 -1.000000 0.000000 -0.000000 -1.000000 155 125 55
1.000000 1.000000 1.000000 1.000000 0.000000 0.000000 155 125 55
1.000000 -1.000000 1.000000 1.000000 0.000000 0.000000 155 125 55
1.000000 -1.000000 -1.000000 1.000000 0.000000 0.000000 155 125 55
1.000000 1.000000 -1.000000 1.000000 0.000000 0.000000 155 125 55
4 0 1 2 3
4 4 5 6 7
4 8 9 10 11
4 12 13 14 15
4 16 17 18 19
4 20 21 22 23
4 24 25 26 27
4 28 29 30 31
4 32 33 34 35
4 36 37 38 39
4 40 41 42 43
4 44 45 46 47
4 48 49 50 51
4 52 53 54 55
4 56 57 58 59
4 60 61 62 63
4 64 65 66 67
4 68 69 70 71
4 72 73 74 75
4 76 77 78 79
4 80 81 82 83
4 84 85 86 87
4 88 89 90 91
4 92 93 94 95
4 96 97 98 99
4 100 101 102 103
4 104 105 106 107
4 108 109 110 111
4 112 113 114 115
4 116 117 118 119
4 120 121 122 123
4 124 125 126 127
4 128 129 130 131
4 132 133 134 135
4 136 137 138 139
4 140 141 142 143
4 144 145 146 147
4 148 149 150 151
4 152 153 154 155
4 156 157 158 159
4 160 161 162 163
4 164 165 166 167
4 168 169 170 171
4 172 173 174 175
4 176 177 178 179
4 180 181 182 183
4 184 185 186 187
4 188 189 190 191
