ply
format ascii 1.0
comment Created by Blender 2.73 (sub 0) - www.blender.org, source file: 'shrine_combined.blend'
element vertex 514
property float x
property float y
property float z
property float nx
property float ny
property float nz
property uchar red
property uchar green
property uchar blue
element face 170
property list uchar uint vertex_indices
end_header
-0.643434 2.618784 -0.579301 0.000000 0.000000 -1.000000 22 22 22
-0.174013 2.218624 -0.579301 0.000000 0.000000 -1.000000 22 22 22
-0.643434 2.218624 -0.579301 0.000000 0.000000 -1.000000 22 22 22
-0.408724 2.618784 -0.579301 0.000000 0.000000 -1.000000 22 22 22
-0.174013 2.618784 -0.579301 0.000000 0.000000 -1.000000 22 22 22
-0.174013 2.618784 -0.579301 1.000000 -0.000000 0.000000 22 22 22
-0.174013 2.218624 -0.109880 1.000000 -0.000000 0.000000 22 22 22
-0.174013 2.218624 -0.579301 1.000000 -0.000000 0.000000 22 22 22
-0.174013 2.618784 -0.344590 1.000000 -0.000000 0.000000 22 22 22
-0.174013 2.618784 -0.109880 1.000000 -0.000000 0.000000 22 22 22
-0.174013 2.618784 -0.109880 0.000000 -0.000000 1.000000 22 22 22
-0.643434 2.218624 -0.109880 0.000000 -0.000000 1.000000 22 22 22
-0.174013 2.218624 -0.109880 0.000000 -0.000000 1.000000 22 22 22
-0.408724 2.618784 -0.109880 0.000000 0.000000 1.000000 22 22 22
-0.643434 2.618784 -0.109880 0.000000 0.000000 1.000000 22 22 22
-0.643434 2.618784 -0.109880 -1.000000 0.000000 0.000000 22 22 22
-0.643434 2.218624 -0.579301 -1.000000 0.000000 0.000000 22 22 22
-0.643434 2.218624 -0.109880 -1.000000 0.000000 0.000000 22 22 22
-0.643434 2.618784 -0.344590 -1.000000 0.000000 0.000000 22 22 22
-0.643434 2.618784 -0.579301 -1.000000 0.000000 0.000000 22 22 22
-0.643434 2.218624 -0.579301 0.000000 -1.000000 -0.000000 255 255 255
-0.174013 2.218624 -0.579301 0.000000 -1.000000 -0.000000 255 255 255
-0.174013 2.218624 -0.109880 0.000000 -1.000000 -0.000000 255 255 255
-0.643434 2.218624 -0.109880 0.000000 -1.000000 -0.000000 255 255 255
-0.408724 2.618784 -0.344590 0.000000 0.000000 1.000000 22 22 22
-0.174013 2.618784 -0.344590 0.000000 0.000000 1.000000 22 22 22
-0.174013 2.771204 -0.344590 0.000000 0.000000 1.000000 22 22 22
-0.408724 2.771204 -0.344590 0.000000 0.000000 1.000000 22 22 22
-0.643434 2.618784 -0.344590 0.000000 0.000000 1.000000 22 22 22
-0.408724 2.872817 -0.344590 0.000000 0.000000 1.000000 22 22 22
-0.643434 2.872817 -0.344590 0.000000 0.000000 1.000000 22 22 22
-0.408724 2.618784 -0.344590 0.000000 -0.000000 -1.000000 255 255 255
-0.643434 2.618784 -0.344590 0.000000 -0.000000 -1.000000 255 255 255
-0.643434 2.771204 -0.344590 0.000000 -0.000000 -1.000000 255 255 255
-0.408724 2.771204 -0.344590 0.000000 -0.000000 -1.000000 255 255 255
-0.408724 2.618784 -0.109880 0.000000 1.000000 -0.000000 22 22 22
-0.174013 2.618784 -0.109880 0.000000 1.000000 -0.000000 22 22 22
-0.174013 2.618784 -0.344590 0.000000 1.000000 -0.000000 22 22 22
-0.408724 2.618784 -0.344590 0.000000 1.000000 -0.000000 22 22 22
-0.643434 2.872817 -0.344590 0.000000 1.000000 -0.000000 22 22 22
-0.408724 2.872817 -0.344590 0.000000 1.000000 -0.000000 22 22 22
-0.408724 2.872817 -0.579301 0.000000 1.000000 -0.000000 22 22 22
-0.643434 2.872817 -0.579301 0.000000 1.000000 -0.000000 22 22 22
-0.408724 2.618784 -0.344590 1.000000 0.000000 0.000000 22 22 22
-0.408724 2.618784 -0.579301 1.000000 0.000000 0.000000 22 22 22
-0.408724 2.872817 -0.579301 1.000000 0.000000 0.000000 22 22 22
-0.408724 2.872817 -0.344590 1.000000 0.000000 0.000000 22 22 22
-0.643434 2.872817 -0.579301 0.000000 -0.000000 -1.000000 22 22 22
-0.408724 2.872817 -0.579301 0.000000 -0.000000 -1.000000 22 22 22
-0.643434 2.872817 -0.344590 -1.000000 -0.000000 0.000000 22 22 22
-0.643434 2.872817 -0.579301 -1.000000 -0.000000 0.000000 22 22 22
-0.643434 2.771204 -0.109880 0.000000 1.000000 -0.000000 22 22 22
-0.408724 2.771204 -0.109880 0.000000 1.000000 -0.000000 22 22 22
-0.408724 2.771204 -0.344590 0.000000 1.000000 -0.000000 22 22 22
-0.643434 2.771204 -0.344590 0.000000 1.000000 -0.000000 22 22 22
-0.408724 2.618784 -0.109880 1.000000 0.000000 0.000000 22 22 22
-0.408724 2.771204 -0.344590 1.000000 0.000000 0.000000 22 22 22
-0.408724 2.771204 -0.109880 1.000000 0.000000 0.000000 22 22 22
-0.643434 2.771204 -0.109880 -1.000000 -0.000000 0.000000 22 22 22
-0.643434 2.771204 -0.344590 -1.000000 -0.000000 0.000000 22 22 22
-0.408724 2.771204 -0.109880 0.000000 0.000000 1.000000 22 22 22
-0.643434 2.771204 -0.109880 0.000000 0.000000 1.000000 22 22 22
-0.408724 2.771204 -0.344590 0.000000 1.000000 -0.000000 22 22 22
-0.174013 2.771204 -0.344590 0.000000 1.000000 -0.000000 22 22 22
-0.174013 2.771204 -0.579301 0.000000 1.000000 -0.000000 22 22 22
-0.408724 2.771204 -0.579301 0.000000 1.000000 -0.000000 22 22 22
-0.408724 2.618784 -0.579301 -1.000000 -0.000000 0.000000 255 255 255
-0.408724 2.618784 -0.344590 -1.000000 -0.000000 0.000000 255 255 255
-0.408724 2.771204 -0.344590 -1.000000 -0.000000 0.000000 255 255 255
-0.408724 2.771204 -0.579301 -1.000000 -0.000000 0.000000 255 255 255
-0.174013 2.771204 -0.579301 1.000000 0.000000 0.000000 22 22 22
-0.174013 2.771204 -0.344590 1.000000 0.000000 0.000000 22 22 22
-0.408724 2.771204 -0.579301 0.000000 -0.000000 -1.000000 22 22 22
-0.174013 2.771204 -0.579301 0.000000 -0.000000 -1.000000 22 22 22
0.000000 0.700489 -0.771755 0.260018 -0.130009 -0.956811 22 22 22
0.597333 0.700489 -0.597333 0.260018 -0.130009 -0.956811 22 22 22
0.500000 -0.299511 -0.500000 0.260018 -0.130009 -0.956811 22 22 22
0.000000 -0.494178 -0.597333 0.260018 -0.130009 -0.956811 22 22 22
0.771755 0.700489 0.000000 0.956811 -0.130009 0.260018 22 22 22
0.597333 0.700489 0.597333 0.956811 -0.130009 0.260018 22 22 22
0.500000 -0.299511 0.500000 0.956811 -0.130009 0.260018 31 27 32
0.597333 -0.494178 0.000000 0.956811 -0.130009 0.260018 53 40 56
0.000000 0.700489 0.771755 -0.260018 -0.130009 0.956811 22 22 22
-0.597333 0.700489 0.597333 -0.260018 -0.130009 0.956811 22 22 22
-0.500000 -0.299511 0.500000 -0.260018 -0.130009 0.956811 25 25 25
0.000000 -0.494178 0.597333 -0.260018 -0.130009 0.956811 32 31 32
-0.771755 0.700489 0.000000 -0.956811 -0.130009 -0.260018 22 22 22
-0.597333 0.700489 -0.597333 -0.956811 -0.130009 -0.260018 22 22 22
-0.500000 -0.299511 -0.500000 -0.956811 -0.130009 -0.260018 23 22 23
-0.597333 -0.494178 0.000000 -0.956811 -0.130009 -0.260018 22 22 22
0.000000 -0.843021 0.000000 0.430922 -0.792851 0.430922 255 255 255
0.597333 -0.494178 0.000000 0.430922 -0.792851 0.430922 252 252 252
0.500000 -0.299511 0.500000 0.430922 -0.792851 0.430922 160 160 160
0.000000 -0.494178 0.597333 0.430922 -0.792851 0.430922 224 224 224
0.000000 2.243998 0.000000 0.430922 0.792851 -0.430922 22 22 22
0.597333 1.895155 0.000000 0.430922 0.792851 -0.430922 22 22 22
0.500000 1.700489 -0.500000 0.430922 0.792851 -0.430922 22 22 22
0.000000 1.895155 -0.597333 0.430922 0.792851 -0.430922 22 22 22
-0.597333 1.895155 0.000000 -0.430922 0.792851 -0.430922 22 22 22
0.000000 2.243998 0.000000 -0.430922 0.792851 -0.430922 22 22 22
0.000000 1.895155 -0.597333 -0.430922 0.792851 -0.430922 22 22 22
-0.500000 1.700489 -0.500000 -0.430922 0.792851 -0.430922 22 22 22
-0.500000 1.700489 0.500000 -0.430922 0.792851 0.430922 22 22 22
0.000000 1.895155 0.597333 -0.430922 0.792851 0.430922 22 22 22
0.000000 2.243998 0.000000 -0.430922 0.792851 0.430922 22 22 22
-0.597333 1.895155 0.000000 -0.430922 0.792851 0.430922 22 22 22
0.000000 1.895155 0.597333 0.430922 0.792851 0.430922 22 22 22
0.500000 1.700489 0.500000 0.430922 0.792851 0.430922 22 22 22
0.597333 1.895155 0.000000 0.430922 0.792851 0.430922 22 22 22
0.000000 2.243998 0.000000 0.430922 0.792851 0.430922 22 22 22
-0.597333 -0.494178 0.000000 -0.430922 -0.792851 0.430922 250 250 250
0.000000 -0.843021 0.000000 -0.430922 -0.792851 0.430922 255 255 255
0.000000 -0.494178 0.597333 -0.430922 -0.792851 0.430922 253 253 253
-0.500000 -0.299511 0.500000 -0.430922 -0.792851 0.430922 185 185 185
-0.500000 -0.299511 -0.500000 -0.430922 -0.792851 -0.430922 212 212 212
0.000000 -0.494178 -0.597333 -0.430922 -0.792851 -0.430922 241 241 241
0.000000 -0.843021 0.000000 -0.430922 -0.792851 -0.430922 255 255 255
-0.597333 -0.494178 0.000000 -0.430922 -0.792851 -0.430922 253 253 253
0.000000 -0.494178 -0.597333 0.430922 -0.792851 -0.430922 22 22 22
0.500000 -0.299511 -0.500000 0.430922 -0.792851 -0.430922 22 22 22
0.597333 -0.494178 0.000000 0.430922 -0.792851 -0.430922 22 22 22
0.000000 -0.843021 0.000000 0.430922 -0.792851 -0.430922 22 22 22
-0.597333 0.700489 0.597333 -0.956811 -0.130009 0.260018 22 22 22
-0.771755 0.700489 0.000000 -0.956811 -0.130009 0.260018 22 22 22
-0.597333 -0.494178 0.000000 -0.956811 -0.130009 0.260018 22 22 22
-0.500000 -0.299511 0.500000 -0.956811 -0.130009 0.260018 22 22 22
-0.500000 1.700489 0.500000 -0.956812 0.130009 0.260018 22 22 22
-0.597333 1.895155 0.000000 -0.956812 0.130009 0.260018 22 22 22
-0.771755 0.700489 0.000000 -0.956812 0.130009 0.260018 22 22 22
-0.597333 0.700489 0.597333 -0.956812 0.130009 0.260018 22 22 22
-0.597333 1.895155 0.000000 -0.956812 0.130009 -0.260018 22 22 22
-0.500000 1.700489 -0.500000 -0.956812 0.130009 -0.260018 22 22 22
-0.597333 0.700489 -0.597333 -0.956812 0.130009 -0.260018 22 22 22
-0.771755 0.700489 0.000000 -0.956812 0.130009 -0.260018 22 22 22
0.597333 0.700489 0.597333 0.260018 -0.130009 0.956811 22 22 22
0.000000 0.700489 0.771755 0.260018 -0.130009 0.956811 22 22 22
0.000000 -0.494178 0.597333 0.260018 -0.130009 0.956811 31 29 31
0.500000 -0.299511 0.500000 0.260018 -0.130009 0.956811 22 22 22
0.500000 1.700489 0.500000 0.260018 0.130009 0.956811 22 22 22
0.000000 1.895155 0.597333 0.260018 0.130009 0.956811 22 22 22
0.000000 0.700489 0.771755 0.260018 0.130009 0.956811 22 22 22
0.597333 0.700489 0.597333 0.260018 0.130009 0.956811 22 22 22
0.000000 1.895155 0.597333 -0.260018 0.130009 0.956811 22 22 22
-0.500000 1.700489 0.500000 -0.260018 0.130009 0.956811 22 22 22
-0.597333 0.700489 0.597333 -0.260018 0.130009 0.956811 22 22 22
0.000000 0.700489 0.771755 -0.260018 0.130009 0.956811 22 22 22
0.597333 0.700489 -0.597333 0.956811 -0.130009 -0.260018 22 22 22
0.771755 0.700489 0.000000 0.956811 -0.130009 -0.260018 22 22 22
0.597333 -0.494178 0.000000 0.956811 -0.130009 -0.260018 22 22 22
0.500000 -0.299511 -0.500000 0.956811 -0.130009 -0.260018 22 22 22
0.500000 1.700489 -0.500000 0.956812 0.130009 -0.260018 22 22 22
0.597333 1.895155 0.000000 0.956812 0.130009 -0.260018 22 22 22
0.771755 0.700489 0.000000 0.956812 0.130009 -0.260018 22 22 22
0.597333 0.700489 -0.597333 0.956812 0.130009 -0.260018 22 22 22
0.597333 1.895155 0.000000 0.956812 0.130009 0.260018 22 22 22
0.500000 1.700489 0.500000 0.956812 0.130009 0.260018 22 22 22
0.597333 0.700489 0.597333 0.956812 0.130009 0.260018 22 22 22
0.771755 0.700489 0.000000 0.956812 0.130009 0.260018 22 22 22
-0.597333 0.700489 -0.597333 -0.260018 -0.130009 -0.956811 22 22 22
0.000000 0.700489 -0.771755 -0.260018 -0.130009 -0.956811 22 22 22
0.000000 -0.494178 -0.597333 -0.260018 -0.130009 -0.956811 22 22 22
-0.500000 -0.299511 -0.500000 -0.260018 -0.130009 -0.956811 22 22 22
-0.500000 1.700489 -0.500000 -0.260018 0.130009 -0.956811 22 22 22
0.000000 1.895155 -0.597333 -0.260018 0.130009 -0.956811 22 22 22
0.000000 0.700489 -0.771755 -0.260018 0.130009 -0.956811 22 22 22
-0.597333 0.700489 -0.597333 -0.260018 0.130009 -0.956811 22 22 22
0.000000 1.895155 -0.597333 0.260018 0.130009 -0.956811 22 22 22
0.500000 1.700489 -0.500000 0.260018 0.130009 -0.956811 22 22 22
0.597333 0.700489 -0.597333 0.260018 0.130009 -0.956811 22 22 22
0.000000 0.700489 -0.771755 0.260018 0.130009 -0.956811 22 22 22
0.000000 2.056055 -0.962323 0.034165 -0.158662 -0.986742 22 22 22
0.924528 2.056055 -0.924528 0.034165 -0.158662 -0.986742 22 22 22
0.900000 1.862258 -0.900000 0.034165 -0.158662 -0.986742 22 22 22
0.000000 1.856976 -0.924528 0.034165 -0.158662 -0.986742 22 22 22
0.962323 2.056055 0.000000 0.986742 -0.158662 0.034165 22 22 22
0.924528 2.056055 0.924528 0.986742 -0.158662 0.034165 22 22 22
0.900000 1.862258 0.900000 0.986742 -0.158662 0.034165 22 22 22
0.924528 1.856976 0.000000 0.986742 -0.158662 0.034165 22 22 22
0.000000 2.056055 0.962323 -0.034165 -0.158662 0.986742 22 22 22
-0.924528 2.056055 0.924528 -0.034165 -0.158662 0.986742 22 22 22
-0.900000 1.862258 0.900000 -0.034165 -0.158662 0.986742 22 22 22
0.000000 1.856976 0.924528 -0.034165 -0.158662 0.986742 22 22 22
-0.962323 2.056055 0.000000 -0.986742 -0.158662 -0.034165 22 22 22
-0.924528 2.056055 -0.924528 -0.986742 -0.158662 -0.034165 22 22 22
-0.900000 1.862258 -0.900000 -0.986742 -0.158662 -0.034165 22 22 22
-0.924528 1.856976 0.000000 -0.986742 -0.158662 -0.034165 22 22 22
0.000000 1.848838 0.000000 0.007455 -0.999944 0.007455 22 22 22
0.924528 1.856976 0.000000 0.007455 -0.999944 0.007455 22 22 22
0.900000 1.862258 0.900000 0.007455 -0.999944 0.007455 22 22 22
0.000000 1.856976 0.924528 0.007455 -0.999944 0.007455 22 22 22
0.000000 2.263272 0.000000 0.007455 0.999944 -0.007455 22 22 22
0.924528 2.255133 0.000000 0.007455 0.999944 -0.007455 22 22 22
0.900000 2.249852 -0.900000 0.007455 0.999944 -0.007455 22 22 22
0.000000 2.255133 -0.924528 0.007455 0.999944 -0.007455 22 22 22
-0.924528 2.255133 0.000000 -0.007455 0.999944 -0.007455 22 22 22
0.000000 2.263272 0.000000 -0.007455 0.999944 -0.007455 22 22 22
0.000000 2.255133 -0.924528 -0.007455 0.999944 -0.007455 22 22 22
-0.900000 2.249852 -0.900000 -0.007455 0.999944 -0.007455 22 22 22
-0.900000 2.249852 0.900000 -0.007455 0.999944 0.007455 22 22 22
0.000000 2.255133 0.924528 -0.007455 0.999944 0.007455 22 22 22
0.000000 2.263272 0.000000 -0.007455 0.999944 0.007455 22 22 22
-0.924528 2.255133 0.000000 -0.007455 0.999944 0.007455 22 22 22
0.000000 2.255133 0.924528 0.007455 0.999944 0.007455 22 22 22
0.900000 2.249852 0.900000 0.007455 0.999944 0.007455 22 22 22
0.924528 2.255133 0.000000 0.007455 0.999944 0.007455 22 22 22
0.000000 2.263272 0.000000 0.007455 0.999944 0.007455 22 22 22
-0.924528 1.856976 0.000000 -0.007455 -0.999944 0.007455 22 22 22
0.000000 1.848838 0.000000 -0.007455 -0.999944 0.007455 22 22 22
0.000000 1.856976 0.924528 -0.007455 -0.999944 0.007455 22 22 22
-0.900000 1.862258 0.900000 -0.007455 -0.999944 0.007455 22 22 22
-0.900000 1.862258 -0.900000 -0.007455 -0.999944 -0.007455 22 22 22
0.000000 1.856976 -0.924528 -0.007455 -0.999944 -0.007455 22 22 22
0.000000 1.848838 0.000000 -0.007455 -0.999944 -0.007455 22 22 22
-0.924528 1.856976 0.000000 -0.007455 -0.999944 -0.007455 22 22 22
0.000000 1.856976 -0.924528 0.007455 -0.999944 -0.007455 22 22 22
0.900000 1.862258 -0.900000 0.007455 -0.999944 -0.007455 22 22 22
0.924528 1.856976 0.000000 0.007455 -0.999944 -0.007455 22 22 22
0.000000 1.848838 0.000000 0.007455 -0.999944 -0.007455 22 22 22
-0.924528 2.056055 0.924528 -0.986742 -0.158662 0.034165 22 22 22
-0.962323 2.056055 0.000000 -0.986742 -0.158662 0.034165 22 22 22
-0.924528 1.856976 0.000000 -0.986742 -0.158662 0.034165 22 22 22
-0.900000 1.862258 0.900000 -0.986742 -0.158662 0.034165 22 22 22
-0.900000 2.249852 0.900000 -0.986742 0.158662 0.034165 22 22 22
-0.924528 2.255133 0.000000 -0.986742 0.158662 0.034165 22 22 22
-0.962323 2.056055 0.000000 -0.986742 0.158662 0.034165 22 22 22
-0.924528 2.056055 0.924528 -0.986742 0.158662 0.034165 22 22 22
-0.924528 2.255133 0.000000 -0.986742 0.158662 -0.034165 22 22 22
-0.900000 2.249852 -0.900000 -0.986742 0.158662 -0.034165 22 22 22
-0.924528 2.056055 -0.924528 -0.986742 0.158662 -0.034165 22 22 22
-0.962323 2.056055 0.000000 -0.986742 0.158662 -0.034165 22 22 22
0.924528 2.056055 0.924528 0.034165 -0.158662 0.986742 22 22 22
0.000000 2.056055 0.962323 0.034165 -0.158662 0.986742 22 22 22
0.000000 1.856976 0.924528 0.034165 -0.158662 0.986742 22 22 22
0.900000 1.862258 0.900000 0.034165 -0.158662 0.986742 22 22 22
0.900000 2.249852 0.900000 0.034165 0.158662 0.986742 22 22 22
0.000000 2.255133 0.924528 0.034165 0.158662 0.986742 22 22 22
0.000000 2.056055 0.962323 0.034165 0.158662 0.986742 22 22 22
0.924528 2.056055 0.924528 0.034165 0.158662 0.986742 22 22 22
0.000000 2.255133 0.924528 -0.034165 0.158662 0.986742 22 22 22
-0.900000 2.249852 0.900000 -0.034165 0.158662 0.986742 22 22 22
-0.924528 2.056055 0.924528 -0.034165 0.158662 0.986742 22 22 22
0.000000 2.056055 0.962323 -0.034165 0.158662 0.986742 22 22 22
0.924528 2.056055 -0.924528 0.986742 -0.158662 -0.034165 22 22 22
0.962323 2.056055 0.000000 0.986742 -0.158662 -0.034165 22 22 22
0.924528 1.856976 0.000000 0.986742 -0.158662 -0.034165 22 22 22
0.900000 1.862258 -0.900000 0.986742 -0.158662 -0.034165 22 22 22
0.900000 2.249852 -0.900000 0.986742 0.158662 -0.034165 22 22 22
0.924528 2.255133 0.000000 0.986742 0.158662 -0.034165 22 22 22
0.962323 2.056055 0.000000 0.986742 0.158662 -0.034165 22 22 22
0.924528 2.056055 -0.924528 0.986742 0.158662 -0.034165 22 22 22
0.924528 2.255133 0.000000 0.986742 0.158662 0.034165 22 22 22
0.900000 2.249852 0.900000 0.986742 0.158662 0.034165 22 22 22
0.924528 2.056055 0.924528 0.986742 0.158662 0.034165 22 22 22
0.962323 2.056055 0.000000 0.986742 0.158662 0.034165 22 22 22
-0.924528 2.056055 -0.924528 -0.034165 -0.158662 -0.986742 22 22 22
0.000000 2.056055 -0.962323 -0.034165 -0.158662 -0.986742 22 22 22
0.000000 1.856976 -0.924528 -0.034165 -0.158662 -0.986742 22 22 22
-0.900000 1.862258 -0.900000 -0.034165 -0.158662 -0.986742 22 22 22
-0.900000 2.249852 -0.900000 -0.034165 0.158662 -0.986742 22 22 22
0.000000 2.255133 -0.924528 -0.034165 0.158662 -0.986742 22 22 22
0.000000 2.056055 -0.962323 -0.034165 0.158662 -0.986742 22 22 22
-0.924528 2.056055 -0.924528 -0.034165 0.158662 -0.986742 22 22 22
0.000000 2.255133 -0.924528 0.034165 0.158662 -0.986742 22 22 22
0.900000 2.249852 -0.900000 0.034165 0.158662 -0.986742 22 22 22
0.924528 2.056055 -0.924528 0.034165 0.158662 -0.986742 22 22 22
0.000000 2.056055 -0.962323 0.034165 0.158662 -0.986742 22 22 22
0.602382 2.618784 -0.579301 1.000000 -0.000000 0.000000 22 22 22
0.602382 2.218624 -0.109880 1.000000 -0.000000 0.000000 22 22 22
0.602382 2.218624 -0.579301 1.000000 -0.000000 0.000000 22 22 22
0.602382 2.618784 -0.344590 1.000000 -0.000000 0.000000 22 22 22
0.602382 2.618784 -0.109880 1.000000 -0.000000 0.000000 22 22 22
0.602382 2.618784 -0.109880 0.000000 -0.000000 1.000000 22 22 22
0.132961 2.218624 -0.109880 0.000000 -0.000000 1.000000 22 22 22
0.602382 2.218624 -0.109880 0.000000 -0.000000 1.000000 22 22 22
0.367672 2.618784 -0.109880 0.000000 0.000000 1.000000 22 22 22
0.132961 2.618784 -0.109880 0.000000 0.000000 1.000000 22 22 22
0.132961 2.618784 -0.109880 -1.000000 0.000000 0.000000 22 22 22
0.132961 2.218624 -0.579301 -1.000000 0.000000 0.000000 22 22 22
0.132961 2.218624 -0.109880 -1.000000 0.000000 0.000000 22 22 22
0.132961 2.618784 -0.344590 -1.000000 0.000000 0.000000 22 22 22
0.132961 2.618784 -0.579301 -1.000000 0.000000 0.000000 22 22 22
0.132961 2.618784 -0.579301 0.000000 0.000000 -1.000000 22 22 22
0.602382 2.218624 -0.579301 0.000000 0.000000 -1.000000 22 22 22
0.132961 2.218624 -0.579301 0.000000 0.000000 -1.000000 22 22 22
0.367672 2.618784 -0.579301 0.000000 0.000000 -1.000000 22 22 22
0.602382 2.618784 -0.579301 0.000000 0.000000 -1.000000 22 22 22
0.602382 2.218624 -0.579301 0.000000 -1.000000 0.000000 255 255 255
0.602382 2.218624 -0.109880 0.000000 -1.000000 0.000000 255 255 255
0.132961 2.218624 -0.109880 0.000000 -1.000000 0.000000 255 255 255
0.132961 2.218624 -0.579301 0.000000 -1.000000 0.000000 255 255 255
0.367672 2.618784 -0.344590 -1.000000 -0.000000 0.000000 22 22 22
0.367672 2.618784 -0.109880 -1.000000 -0.000000 0.000000 22 22 22
0.367672 2.771204 -0.109880 -1.000000 -0.000000 0.000000 22 22 22
0.367672 2.771204 -0.344590 -1.000000 -0.000000 0.000000 22 22 22
0.367672 2.618784 -0.579301 -1.000000 -0.000000 0.000000 22 22 22
0.367672 2.872817 -0.344590 -1.000000 -0.000000 0.000000 22 22 22
0.367672 2.872817 -0.579301 -1.000000 -0.000000 0.000000 22 22 22
0.367672 2.618784 -0.344590 1.000000 0.000000 0.000000 255 255 255
0.367672 2.618784 -0.579301 1.000000 0.000000 0.000000 255 255 255
0.367672 2.771204 -0.579301 1.000000 0.000000 0.000000 255 255 255
0.367672 2.771204 -0.344590 1.000000 0.000000 0.000000 255 255 255
0.132961 2.618784 -0.344590 0.000000 1.000000 0.000000 22 22 22
0.132961 2.618784 -0.109880 0.000000 1.000000 0.000000 22 22 22
0.367672 2.618784 -0.109880 0.000000 1.000000 0.000000 22 22 22
0.367672 2.618784 -0.344590 0.000000 1.000000 0.000000 22 22 22
0.367672 2.872817 -0.579301 0.000000 1.000000 0.000000 22 22 22
0.367672 2.872817 -0.344590 0.000000 1.000000 0.000000 22 22 22
0.602382 2.872817 -0.344590 0.000000 1.000000 0.000000 22 22 22
0.602382 2.872817 -0.579301 0.000000 1.000000 0.000000 22 22 22
0.367672 2.618784 -0.344590 0.000000 0.000000 1.000000 22 22 22
0.602382 2.618784 -0.344590 0.000000 0.000000 1.000000 22 22 22
0.602382 2.872817 -0.344590 0.000000 0.000000 1.000000 22 22 22
0.367672 2.872817 -0.344590 0.000000 0.000000 1.000000 22 22 22
0.602382 2.872817 -0.579301 1.000000 0.000000 0.000000 22 22 22
0.602382 2.872817 -0.344590 1.000000 0.000000 0.000000 22 22 22
0.367672 2.872817 -0.579301 0.000000 -0.000000 -1.000000 22 22 22
0.602382 2.872817 -0.579301 0.000000 -0.000000 -1.000000 22 22 22
0.132961 2.771204 -0.579301 0.000000 1.000000 0.000000 22 22 22
0.132961 2.771204 -0.344590 0.000000 1.000000 0.000000 22 22 22
0.367672 2.771204 -0.344590 0.000000 1.000000 0.000000 22 22 22
0.367672 2.771204 -0.579301 0.000000 1.000000 0.000000 22 22 22
0.132961 2.618784 -0.344590 0.000000 0.000000 1.000000 22 22 22
0.367672 2.771204 -0.344590 0.000000 0.000000 1.000000 22 22 22
0.132961 2.771204 -0.344590 0.000000 0.000000 1.000000 22 22 22
0.132961 2.771204 -0.579301 0.000000 -0.000000 -1.000000 22 22 22
0.367672 2.771204 -0.579301 0.000000 -0.000000 -1.000000 22 22 22
0.132961 2.771204 -0.344590 -1.000000 -0.000000 0.000000 22 22 22
0.132961 2.771204 -0.579301 -1.000000 -0.000000 0.000000 22 22 22
0.367672 2.771204 -0.344590 0.000000 1.000000 0.000000 22 22 22
0.367672 2.771204 -0.109880 0.000000 1.000000 0.000000 22 22 22
0.602382 2.771204 -0.109880 0.000000 1.000000 0.000000 22 22 22
0.602382 2.771204 -0.344590 0.000000 1.000000 0.000000 22 22 22
0.602382 2.618784 -0.344590 0.000000 -0.000000 -1.000000 255 255 255
0.367672 2.618784 -0.344590 0.000000 -0.000000 -1.000000 255 255 255
0.367672 2.771204 -0.344590 0.000000 -0.000000 -1.000000 255 255 255
0.602382 2.771204 -0.344590 0.000000 -0.000000 -1.000000 255 255 255
0.602382 2.771204 -0.109880 0.000000 0.000000 1.000000 22 22 22
0.367672 2.771204 -0.109880 0.000000 0.000000 1.000000 22 22 22
0.602382 2.771204 -0.344590 1.000000 0.000000 0.000000 22 22 22
0.602382 2.771204 -0.109880 1.000000 0.000000 0.000000 22 22 22
0.602382 2.618784 0.634742 -0.000000 0.000000 1.000000 22 22 22
0.132961 2.218624 0.634742 -0.000000 0.000000 1.000000 22 22 22
0.602382 2.218624 0.634742 -0.000000 0.000000 1.000000 22 22 22
0.367672 2.618784 0.634742 0.000000 0.000000 1.000000 22 22 22
0.132961 2.618784 0.634742 0.000000 0.000000 1.000000 22 22 22
0.132961 2.618784 0.634742 -1.000000 0.000000 -0.000000 22 22 22
0.132962 2.218624 0.165321 -1.000000 0.000000 -0.000000 22 22 22
0.132961 2.218624 0.634742 -1.000000 0.000000 -0.000000 22 22 22
0.132961 2.618784 0.400032 -1.000000 0.000000 -0.000000 22 22 22
0.132962 2.618784 0.165321 -1.000000 0.000000 -0.000000 22 22 22
0.132962 2.618784 0.165321 0.000000 0.000000 -1.000000 22 22 22
0.602382 2.218624 0.165321 0.000000 0.000000 -1.000000 22 22 22
0.132962 2.218624 0.165321 0.000000 0.000000 -1.000000 22 22 22
0.367672 2.618784 0.165321 0.000000 0.000000 -1.000000 22 22 22
0.602382 2.618784 0.165321 0.000000 0.000000 -1.000000 22 22 22
0.602382 2.618784 0.165321 1.000000 0.000000 0.000000 22 22 22
0.602382 2.218624 0.634742 1.000000 0.000000 0.000000 22 22 22
0.602382 2.218624 0.165321 1.000000 0.000000 0.000000 22 22 22
0.602382 2.618784 0.400032 1.000000 -0.000000 0.000000 22 22 22
0.602382 2.618784 0.634742 1.000000 -0.000000 0.000000 22 22 22
0.602382 2.218624 0.634742 0.000000 -1.000000 0.000000 255 255 255
0.132961 2.218624 0.634742 0.000000 -1.000000 0.000000 255 255 255
0.132962 2.218624 0.165321 0.000000 -1.000000 0.000000 255 255 255
0.602382 2.218624 0.165321 0.000000 -1.000000 0.000000 255 255 255
0.367672 2.618784 0.400032 0.000000 0.000000 -1.000000 22 22 22
0.132961 2.618784 0.400032 0.000000 0.000000 -1.000000 22 22 22
0.132961 2.771204 0.400032 0.000000 0.000000 -1.000000 22 22 22
0.367672 2.771204 0.400032 0.000000 0.000000 -1.000000 22 22 22
0.602382 2.618784 0.400032 0.000000 0.000000 -1.000000 22 22 22
0.367672 2.872817 0.400032 0.000000 0.000000 -1.000000 22 22 22
0.602382 2.872817 0.400032 0.000000 0.000000 -1.000000 22 22 22
0.367672 2.618784 0.400032 -0.000000 0.000000 1.000000 255 255 255
0.602382 2.618784 0.400032 -0.000000 0.000000 1.000000 255 255 255
0.602382 2.771204 0.400032 -0.000000 0.000000 1.000000 255 255 255
0.367672 2.771204 0.400032 -0.000000 0.000000 1.000000 255 255 255
0.367672 2.618784 0.165321 0.000000 1.000000 0.000000 22 22 22
0.132962 2.618784 0.165321 0.000000 1.000000 0.000000 22 22 22
0.132961 2.618784 0.400032 0.000000 1.000000 0.000000 22 22 22
0.367672 2.618784 0.400032 0.000000 1.000000 0.000000 22 22 22
0.602382 2.872817 0.400032 0.000000 1.000000 0.000000 22 22 22
0.367672 2.872817 0.400032 0.000000 1.000000 0.000000 22 22 22
0.367672 2.872817 0.634742 0.000000 1.000000 0.000000 22 22 22
0.602382 2.872817 0.634742 0.000000 1.000000 0.000000 22 22 22
0.367672 2.618784 0.400032 -1.000000 0.000000 -0.000000 22 22 22
0.367672 2.618784 0.634742 -1.000000 0.000000 -0.000000 22 22 22
0.367672 2.872817 0.634742 -1.000000 0.000000 -0.000000 22 22 22
0.367672 2.872817 0.400032 -1.000000 0.000000 -0.000000 22 22 22
0.602382 2.872817 0.634742 -0.000000 0.000000 1.000000 22 22 22
0.367672 2.872817 0.634742 -0.000000 0.000000 1.000000 22 22 22
0.602382 2.872817 0.400032 1.000000 0.000000 0.000000 22 22 22
0.602382 2.872817 0.634742 1.000000 0.000000 0.000000 22 22 22
0.602382 2.771204 0.165321 0.000000 1.000000 0.000000 22 22 22
0.367672 2.771204 0.165321 0.000000 1.000000 0.000000 22 22 22
0.367672 2.771204 0.400032 0.000000 1.000000 0.000000 22 22 22
0.602382 2.771204 0.400032 0.000000 1.000000 0.000000 22 22 22
0.367672 2.618784 0.165321 -1.000000 0.000000 -0.000000 22 22 22
0.367672 2.771204 0.400032 -1.000000 0.000000 -0.000000 22 22 22
0.367672 2.771204 0.165321 -1.000000 0.000000 -0.000000 22 22 22
0.602382 2.771204 0.165321 1.000000 0.000000 0.000000 22 22 22
0.602382 2.771204 0.400032 1.000000 0.000000 0.000000 22 22 22
0.367672 2.771204 0.165321 0.000000 0.000000 -1.000000 22 22 22
0.602382 2.771204 0.165321 0.000000 0.000000 -1.000000 22 22 22
0.367672 2.771204 0.400032 0.000000 1.000000 0.000000 22 22 22
0.132961 2.771204 0.400032 0.000000 1.000000 0.000000 22 22 22
0.132961 2.771204 0.634742 0.000000 1.000000 0.000000 22 22 22
0.367672 2.771204 0.634742 0.000000 1.000000 0.000000 22 22 22
0.367672 2.618784 0.634742 1.000000 0.000000 0.000000 255 255 255
0.367672 2.618784 0.400032 1.000000 0.000000 0.000000 255 255 255
0.367672 2.771204 0.400032 1.000000 0.000000 0.000000 255 255 255
0.367672 2.771204 0.634742 1.000000 0.000000 0.000000 255 255 255
0.132961 2.771204 0.634742 -1.000000 0.000000 -0.000000 22 22 22
0.132961 2.771204 0.400032 -1.000000 0.000000 -0.000000 22 22 22
0.367672 2.771204 0.634742 0.000000 0.000000 1.000000 22 22 22
0.132961 2.771204 0.634742 0.000000 0.000000 1.000000 22 22 22
-0.643434 2.618784 0.634742 -1.000000 0.000000 0.000000 22 22 22
-0.643434 2.218624 0.165321 -1.000000 0.000000 0.000000 22 22 22
-0.643434 2.218624 0.634742 -1.000000 0.000000 0.000000 22 22 22
-0.643434 2.618784 0.400032 -1.000000 0.000000 0.000001 22 22 22
-0.643434 2.618784 0.165321 -1.000000 0.000000 0.000001 22 22 22
-0.643434 2.218624 0.165321 -1.000000 0.000000 0.000001 22 22 22
-0.643434 2.618784 0.400032 -1.000000 0.000000 0.000000 22 22 22
-0.643434 2.618784 0.165321 -0.000000 0.000000 -1.000000 22 22 22
-0.174013 2.218624 0.165321 -0.000000 0.000000 -1.000000 22 22 22
-0.643434 2.218624 0.165321 -0.000000 0.000000 -1.000000 22 22 22
-0.408724 2.618784 0.165321 -0.000000 0.000000 -1.000000 22 22 22
-0.174013 2.618784 0.165321 -0.000000 0.000000 -1.000000 22 22 22
-0.174013 2.618784 0.165321 1.000000 0.000000 -0.000000 22 22 22
-0.174013 2.218624 0.634742 1.000000 0.000000 -0.000000 22 22 22
-0.174013 2.218624 0.165321 1.000000 0.000000 -0.000000 22 22 22
-0.174013 2.618784 0.400031 1.000000 0.000000 -0.000000 22 22 22
-0.174013 2.618784 0.634742 1.000000 0.000000 -0.000000 22 22 22
-0.174013 2.618784 0.634742 0.000000 0.000000 1.000000 22 22 22
-0.643434 2.218624 0.634742 0.000000 0.000000 1.000000 22 22 22
-0.174013 2.218624 0.634742 0.000000 0.000000 1.000000 22 22 22
-0.408724 2.618784 0.634742 0.000000 -0.000000 1.000000 22 22 22
-0.643434 2.618784 0.634742 0.000000 -0.000000 1.000000 22 22 22
-0.643434 2.218624 0.634742 -0.000000 -1.000000 0.000000 255 255 255
-0.643434 2.218624 0.165321 -0.000000 -1.000000 0.000000 255 255 255
-0.174013 2.218624 0.165321 -0.000000 -1.000000 0.000000 255 255 255
-0.174013 2.218624 0.634742 -0.000000 -1.000000 0.000000 255 255 255
-0.408724 2.618784 0.400031 1.000000 0.000000 -0.000000 22 22 22
-0.408724 2.618784 0.165321 1.000000 0.000000 -0.000000 22 22 22
-0.408724 2.771204 0.165321 1.000000 0.000000 -0.000000 22 22 22
-0.408724 2.771204 0.400031 1.000000 0.000000 -0.000000 22 22 22
-0.408724 2.618784 0.634742 1.000000 0.000000 -0.000000 22 22 22
-0.408724 2.872817 0.400031 1.000000 0.000000 -0.000000 22 22 22
-0.408724 2.872817 0.634742 1.000000 0.000000 -0.000000 22 22 22
-0.408724 2.618784 0.400031 -1.000000 0.000000 0.000000 255 255 255
-0.408724 2.618784 0.634742 -1.000000 0.000000 0.000000 255 255 255
-0.408724 2.771204 0.634742 -1.000000 0.000000 0.000000 255 255 255
-0.408724 2.771204 0.400031 -1.000000 0.000000 0.000000 255 255 255
-0.174013 2.618784 0.400031 -0.000000 1.000000 0.000000 22 22 22
-0.174013 2.618784 0.165321 -0.000000 1.000000 0.000000 22 22 22
-0.408724 2.618784 0.165321 -0.000000 1.000000 0.000000 22 22 22
-0.408724 2.618784 0.400031 -0.000000 1.000000 0.000000 22 22 22
-0.408724 2.872817 0.634742 -0.000000 1.000000 0.000000 22 22 22
-0.408724 2.872817 0.400031 -0.000000 1.000000 0.000000 22 22 22
-0.643434 2.872817 0.400032 -0.000000 1.000000 0.000000 22 22 22
-0.643434 2.872817 0.634742 -0.000000 1.000000 0.000000 22 22 22
-0.408724 2.618784 0.400031 -0.000000 0.000000 -1.000000 22 22 22
-0.643434 2.618784 0.400032 -0.000000 0.000000 -1.000000 22 22 22
-0.643434 2.872817 0.400032 -0.000000 0.000000 -1.000000 22 22 22
-0.408724 2.872817 0.400031 -0.000000 0.000000 -1.000000 22 22 22
-0.643434 2.872817 0.634742 -1.000000 0.000000 0.000000 22 22 22
-0.643434 2.872817 0.400032 -1.000000 0.000000 0.000000 22 22 22
-0.408724 2.872817 0.634742 0.000000 0.000000 1.000000 22 22 22
-0.643434 2.872817 0.634742 0.000000 0.000000 1.000000 22 22 22
-0.174013 2.771204 0.634742 -0.000000 1.000000 0.000000 22 22 22
-0.174013 2.771204 0.400031 -0.000000 1.000000 0.000000 22 22 22
-0.408724 2.771204 0.400031 -0.000000 1.000000 0.000000 22 22 22
-0.408724 2.771204 0.634742 -0.000000 1.000000 0.000000 22 22 22
-0.174013 2.618784 0.400031 -0.000000 0.000000 -1.000000 22 22 22
-0.408724 2.771204 0.400031 -0.000000 0.000000 -1.000000 22 22 22
-0.174013 2.771204 0.400031 -0.000000 0.000000 -1.000000 22 22 22
-0.174013 2.771204 0.634742 0.000000 0.000000 1.000000 22 22 22
-0.408724 2.771204 0.634742 0.000000 0.000000 1.000000 22 22 22
-0.174013 2.771204 0.400031 1.000000 0.000000 -0.000000 22 22 22
-0.174013 2.771204 0.634742 1.000000 0.000000 -0.000000 22 22 22
-0.408724 2.771204 0.400031 -0.000000 1.000000 0.000000 22 22 22
-0.408724 2.771204 0.165321 -0.000000 1.000000 0.000000 22 22 22
-0.643434 2.771204 0.165321 -0.000000 1.000000 0.000000 22 22 22
-0.643434 2.771204 0.400032 -0.000000 1.000000 0.000000 22 22 22
-0.643434 2.618784 0.400032 0.000000 0.000000 1.000000 255 255 255
-0.408724 2.618784 0.400031 0.000000 0.000000 1.000000 255 255 255
-0.408724 2.771204 0.400031 0.000000 0.000000 1.000000 255 255 255
-0.643434 2.771204 0.400032 0.000000 0.000000 1.000000 255 255 255
-0.643434 2.771204 0.165321 -0.000000 0.000000 -1.000000 22 22 22
-0.408724 2.771204 0.165321 -0.000000 0.000000 -1.000000 22 22 22
-0.643434 2.771204 0.400032 -1.000000 0.000000 0.000001 22 22 22
-0.643434 2.771204 0.165321 -1.000000 0.000000 0.000001 22 22 22
1.000000 -1.000000 1.000000 0.000000 -1.000000 0.000000 77 71 63
-1.000000 -1.000000 1.000000 0.000000 -1.000000 0.000000 77 71 63
-1.000000 -1.000000 -1.000000 0.000000 -1.000000 0.000000 77 71 63
1.000000 -1.000000 -1.000000 0.000000 -1.000000 0.000000 77 71 63
0.999999 1.000000 1.000000 -0.000000 1.000000 0.000000 77 71 63
1.000000 1.000000 -1.000000 -0.000000 1.000000 0.000000 77 71 63
-1.000000 1.000000 -1.000000 -0.000000 1.000000 0.000000 77 71 63
-1.000001 1.000000 0.999999 -0.000000 1.000000 0.000000 77 71 63
1.000000 -1.000000 1.000000 -0.000000 0.000000 1.000000 77 71 63
0.999999 1.000000 1.000000 -0.000000 0.000000 1.000000 77 71 63
-1.000001 1.000000 0.999999 -0.000000 0.000000 1.000000 77 71 63
-1.000000 -1.000000 1.000000 -0.000000 0.000000 1.000000 77 71 63
-1.000000 -1.000000 1.000000 -1.000000 -0.000000 -0.000000 77 71 63
-1.000001 1.000000 0.999999 -1.000000 -0.000000 -0.000000 77 71 63
-1.000000 1.000000 -1.000000 -1.000000 -0.000000 -0.000000 77 71 63
-1.000000 -1.000000 -1.000000 -1.000000 -0.000000 -0.000000 77 71 63
-1.000000 -1.000000 -1.000000 0.000000 -0.000000 -1.000000 77 71 63
-1.000000 1.000000 -1.000000 0.000000 -0.000000 -1.000000 77 71 63
1.000000 1.000000 -1.000000 0.000000 -0.000000 -1.000000 77 71 63
1.000000 -1.000000 -1.000000 0.000000 -0.000000 -1.000000 77 71 63
0.999999 1.000000 1.000000 1.000000 0.000000 0.000000 77 71 63
1.000000 -1.000000 1.000000 1.000000 0.000000 0.000000 77 71 63
1.000000 -1.000000 -1.000000 1.000000 0.000000 0.000000 77 71 63
1.000000 1.000000 -1.000000 1.000000 0.000000 0.000000 77 71 63
3 0 1 2
3 3 4 1
3 0 3 1
3 5 6 7
3 8 9 6
3 5 8 6
3 10 11 12
3 13 14 11
3 10 13 11
3 15 16 17
3 18 19 16
3 15 18 16
4 20 21 22 23
4 24 25 26 27
4 28 24 29 30
4 31 32 33 34
4 35 36 37 38
4 39 40 41 42
4 43 44 45 46
4 3 0 47 48
4 19 18 49 50
4 51 52 53 54
4 55 43 56 57
4 18 15 58 59
4 14 13 60 61
4 62 63 64 65
4 66 67 68 69
4 8 5 70 71
4 4 3 72 73
4 74 75 76 77
4 78 79 80 81
4 82 83 84 85
4 86 87 88 89
4 90 91 92 93
4 94 95 96 97
4 98 99 100 101
4 102 103 104 105
4 106 107 108 109
4 110 111 112 113
4 114 115 116 117
4 118 119 120 121
4 122 123 124 125
4 126 127 128 129
4 130 131 132 133
4 134 135 136 137
4 138 139 140 141
4 142 143 144 145
4 146 147 148 149
4 150 151 152 153
4 154 155 156 157
4 158 159 160 161
4 162 163 164 165
4 166 167 168 169
4 170 171 172 173
4 174 175 176 177
4 178 179 180 181
4 182 183 184 185
4 186 187 188 189
4 190 191 192 193
4 194 195 196 197
4 198 199 200 201
4 202 203 204 205
4 206 207 208 209
4 210 211 212 213
4 214 215 216 217
4 218 219 220 221
4 222 223 224 225
4 226 227 228 229
4 230 231 232 233
4 234 235 236 237
4 238 239 240 241
4 242 243 244 245
4 246 247 248 249
4 250 251 252 253
4 254 255 256 257
4 258 259 260 261
4 262 263 264 265
3 266 267 268
3 269 270 267
3 266 269 267
3 271 272 273
3 274 275 272
3 271 274 272
3 276 277 278
3 279 280 277
3 276 279 277
3 281 282 283
3 284 285 282
3 281 284 282
4 286 287 288 289
4 290 291 292 293
4 294 290 295 296
4 297 298 299 300
4 301 302 303 304
4 305 306 307 308
4 309 310 311 312
4 269 266 313 314
4 285 284 315 316
4 317 318 319 320
4 321 309 322 323
4 284 281 324 325
4 280 279 326 327
4 328 329 330 331
4 332 333 334 335
4 274 271 336 337
4 270 269 338 339
3 340 341 342
3 343 344 341
3 340 343 341
3 345 346 347
3 348 349 346
3 345 348 346
3 350 351 352
3 353 354 351
3 350 353 351
3 355 356 357
3 358 359 356
3 355 358 356
4 360 361 362 363
4 364 365 366 367
4 368 364 369 370
4 371 372 373 374
4 375 376 377 378
4 379 380 381 382
4 383 384 385 386
4 343 340 387 388
4 359 358 389 390
4 391 392 393 394
4 395 383 396 397
4 358 355 398 399
4 354 353 400 401
4 402 403 404 405
4 406 407 408 409
4 348 345 410 411
4 344 343 412 413
3 414 415 416
3 417 418 419
3 414 420 415
3 421 422 423
3 424 425 422
3 421 424 422
3 426 427 428
3 429 430 427
3 426 429 427
3 431 432 433
3 434 435 432
3 431 434 432
4 436 437 438 439
4 440 441 442 443
4 444 440 445 446
4 447 448 449 450
4 451 452 453 454
4 455 456 457 458
4 459 460 461 462
4 420 414 463 464
4 435 434 465 466
4 467 468 469 470
4 471 459 472 473
4 434 431 474 475
4 430 429 476 477
4 478 479 480 481
4 482 483 484 485
4 424 421 486 487
4 418 417 488 489
4 490 491 492 493
4 494 495 496 497
4 498 499 500 501
4 502 503 504 505
4 506 507 508 509
4 510 511 512 513
