ply
format ascii 1.0
comment Created by Blender 2.73 (sub 0) - www.blender.org, source file: 'stone_1_sepearted.blend'
element vertex 121
property float x
property float y
property float z
property float nx
property float ny
property float nz
property uchar red
property uchar green
property uchar blue
element face 46
property list uchar uint vertex_indices
end_header
0.844673 1.260035 -1.642387 0.976787 0.041219 -0.210211 138 138 138
1.352876 0.971103 0.662427 0.976787 0.041219 -0.210211 138 138 138
0.934192 0.879696 -1.300997 0.976787 0.041219 -0.210211 138 138 138
1.150466 2.331059 -0.011448 0.976787 0.041218 -0.210211 138 138 138
1.279828 1.896660 0.504481 0.976787 0.041218 -0.210211 138 138 138
1.352876 0.971103 0.662427 0.976787 0.041218 -0.210211 138 138 138
1.150466 2.331059 -0.011448 0.976787 0.041219 -0.210211 138 138 138
0.006817 2.321511 1.232331 -0.008236 -0.095220 0.995422 138 138 138
0.189734 2.359131 1.237443 -0.008236 -0.095220 0.995422 138 138 138
0.187359 2.359398 1.237449 -0.008236 -0.095220 0.995422 138 138 138
-0.641046 0.894622 1.090726 -0.008276 -0.095030 0.995440 138 138 138
0.776648 0.960840 1.108834 -0.008276 -0.095030 0.995440 138 138 138
0.189734 2.359131 1.237443 -0.008276 -0.095030 0.995440 138 138 138
0.006817 2.321511 1.232331 -0.008276 -0.095030 0.995440 138 138 138
1.279828 1.896660 0.504481 0.654008 0.651465 0.384533 138 138 138
1.150466 2.331059 -0.011448 0.654008 0.651465 0.384533 138 138 138
0.468150 2.852759 0.265176 0.654008 0.651465 0.384533 138 138 138
0.371552 2.474274 1.070686 0.654008 0.651465 0.384533 138 138 138
-1.576613 1.622856 0.179856 -0.943659 -0.302865 0.133345 138 138 138
-1.379335 0.810591 -0.268926 -0.943659 -0.302865 0.133345 138 138 138
-1.266258 0.848330 0.617012 -0.943659 -0.302865 0.133345 138 138 138
-0.818811 2.434698 0.562610 -0.342973 0.929841 0.133285 138 138 138
0.157601 2.863200 0.085771 -0.342973 0.929841 0.133285 138 138 138
-0.715040 2.658673 -0.732886 -0.342973 0.929841 0.133285 138 138 138
-1.428485 2.271758 0.130506 -0.342973 0.929841 0.133285 138 138 138
0.934192 0.879696 -1.300997 0.186928 -0.631490 -0.752515 138 138 138
-0.386666 0.808765 -1.569563 0.186928 -0.631490 -0.752515 138 138 138
0.805511 1.266743 -1.657761 0.186928 -0.631490 -0.752515 138 138 138
0.844673 1.260035 -1.642387 0.186928 -0.631490 -0.752515 138 138 138
0.805511 1.266743 -1.657761 -0.045113 -0.074415 -0.996206 138 138 138
-0.386666 0.808765 -1.569563 -0.045113 -0.074415 -0.996206 138 138 138
-0.405562 0.807925 -1.568645 -0.045113 -0.074415 -0.996206 138 138 138
-0.187613 1.734193 -1.647705 -0.045113 -0.074415 -0.996206 138 138 138
0.157601 2.863200 0.085771 0.348392 0.752208 -0.559291 138 138 138
-0.187613 1.734193 -1.647705 0.348392 0.752208 -0.559291 138 138 138
-0.715040 2.658673 -0.732886 0.348392 0.752208 -0.559291 138 138 138
0.844673 1.260035 -1.642387 0.348390 0.752204 -0.559297 138 138 138
0.805511 1.266743 -1.657761 0.348390 0.752204 -0.559297 138 138 138
-0.187613 1.734193 -1.647705 0.348390 0.752204 -0.559297 138 138 138
0.468150 2.852759 0.265176 0.348392 0.752208 -0.559291 138 138 138
1.150466 2.331059 -0.011448 0.348392 0.752208 -0.559291 138 138 138
0.844673 1.260035 -1.642387 0.348392 0.752208 -0.559291 138 138 138
-0.818811 2.434698 0.562610 -0.199261 0.895900 0.397061 138 138 138
0.468150 2.852759 0.265176 -0.199261 0.895900 0.397061 138 138 138
0.157601 2.863200 0.085771 -0.199261 0.895900 0.397061 138 138 138
0.190405 2.360441 1.236623 -0.199261 0.895901 0.397060 138 138 138
0.371552 2.474274 1.070686 -0.199261 0.895901 0.397060 138 138 138
0.468150 2.852759 0.265176 -0.199261 0.895901 0.397060 138 138 138
0.006817 2.321511 1.232331 -0.199269 0.895951 0.396944 138 138 138
0.187359 2.359398 1.237449 -0.199269 0.895951 0.396944 138 138 138
0.190405 2.360441 1.236623 -0.199269 0.895951 0.396944 138 138 138
-0.818811 2.434698 0.562610 -0.199261 0.895901 0.397060 138 138 138
0.006817 2.321511 1.232331 -0.199261 0.895901 0.397060 138 138 138
0.006817 2.321511 1.232331 -0.199262 0.895901 0.397060 138 138 138
0.190405 2.360441 1.236623 -0.199262 0.895901 0.397060 138 138 138
0.468150 2.852759 0.265176 -0.199262 0.895901 0.397060 138 138 138
0.190405 2.360441 1.236623 0.059343 0.507273 0.859740 255 255 255
0.187359 2.359398 1.237449 0.059343 0.507273 0.859740 255 255 255
0.189734 2.359131 1.237443 0.059343 0.507273 0.859740 255 255 255
1.279828 1.896660 0.504481 0.600376 0.180340 0.779119 138 138 138
0.776648 0.960840 1.108834 0.600376 0.180340 0.779119 138 138 138
1.352876 0.971103 0.662427 0.600376 0.180340 0.779119 138 138 138
0.190405 2.360441 1.236623 0.600329 0.180316 0.779160 138 138 138
0.189734 2.359131 1.237443 0.600329 0.180316 0.779160 138 138 138
0.776648 0.960840 1.108834 0.600329 0.180316 0.779160 138 138 138
1.279828 1.896660 0.504481 0.600377 0.180340 0.779118 138 138 138
0.371552 2.474274 1.070686 0.600377 0.180340 0.779118 138 138 138
0.190405 2.360441 1.236623 0.600377 0.180340 0.779118 138 138 138
0.190405 2.360441 1.236623 0.600376 0.180340 0.779119 138 138 138
-0.386666 0.808765 -1.569563 0.046161 -0.998262 0.036632 138 138 138
-1.379335 0.810591 -0.268926 0.046161 -0.998262 0.036632 138 138 138
-0.405562 0.807925 -1.568645 0.046161 -0.998262 0.036632 138 138 138
-0.641046 0.894622 1.090726 0.046159 -0.998262 0.036631 138 138 138
-1.266258 0.848330 0.617012 0.046159 -0.998262 0.036631 138 138 138
-1.379335 0.810591 -0.268926 0.046159 -0.998262 0.036631 138 138 138
1.352876 0.971103 0.662427 0.046159 -0.998262 0.036631 138 138 138
0.776648 0.960840 1.108834 0.046159 -0.998262 0.036631 138 138 138
-0.386666 0.808765 -1.569563 0.046159 -0.998262 0.036631 138 138 138
0.934192 0.879696 -1.300997 0.046159 -0.998262 0.036631 138 138 138
-0.641046 0.894622 1.090726 -0.601365 0.196180 0.774515 138 138 138
-1.576613 1.622856 0.179856 -0.601365 0.196180 0.774515 138 138 138
-1.266258 0.848330 0.617012 -0.601365 0.196180 0.774515 138 138 138
-0.818811 2.434698 0.562610 -0.601365 0.196180 0.774515 138 138 138
-1.428485 2.271758 0.130506 -0.601365 0.196180 0.774515 138 138 138
0.006817 2.321511 1.232331 -0.601365 0.196180 0.774515 138 138 138
-1.428485 2.271758 0.130506 -0.792756 0.135774 -0.594225 138 138 138
-1.379335 0.810591 -0.268926 -0.792756 0.135774 -0.594225 138 138 138
-1.576613 1.622856 0.179856 -0.792756 0.135774 -0.594225 138 138 138
-0.187613 1.734193 -1.647705 -0.792751 0.135814 -0.594222 138 138 138
-0.405562 0.807925 -1.568645 -0.792751 0.135814 -0.594222 138 138 138
-1.379335 0.810591 -0.268926 -0.792751 0.135814 -0.594222 138 138 138
-1.428485 2.271758 0.130506 -0.792751 0.135753 -0.594237 138 138 138
-0.715040 2.658673 -0.732886 -0.792751 0.135753 -0.594237 138 138 138
-0.187613 1.734193 -1.647705 -0.792751 0.135753 -0.594237 138 138 138
-1.428485 2.271758 0.130506 -0.792744 0.135778 -0.594240 138 138 138
-0.187613 1.734193 -1.647705 -0.792744 0.135778 -0.594240 138 138 138
-1.379335 0.810591 -0.268926 -0.792744 0.135778 -0.594240 138 138 138
1.000000 -1.000000 1.000000 0.000000 -1.000000 0.000000 77 71 63
-1.000000 -1.000000 1.000000 0.000000 -1.000000 0.000000 77 71 63
-1.000000 -1.000000 -1.000000 0.000000 -1.000000 0.000000 77 71 63
1.000000 -1.000000 -1.000000 0.000000 -1.000000 0.000000 77 71 63
1.000000 1.000000 1.000000 -0.000000 1.000000 -0.000000 77 71 63
1.000000 1.000000 -1.000000 -0.000000 1.000000 -0.000000 77 71 63
-1.000000 1.000000 -1.000000 -0.000000 1.000000 -0.000000 77 71 63
-1.000001 1.000000 0.999999 -0.000000 1.000000 -0.000000 77 71 63
1.000000 -1.000000 1.000000 -0.000000 0.000000 1.000000 77 71 63
1.000000 1.000000 1.000000 -0.000000 0.000000 1.000000 77 71 63
-1.000001 1.000000 0.999999 -0.000000 0.000000 1.000000 77 71 63
-1.000000 -1.000000 1.000000 -0.000000 0.000000 1.000000 77 71 63
-1.000000 -1.000000 1.000000 -1.000000 -0.000000 -0.000000 77 71 63
-1.000001 1.000000 0.999999 -1.000000 -0.000000 -0.000000 77 71 63
-1.000000 1.000000 -1.000000 -1.000000 -0.000000 -0.000000 77 71 63
-1.000000 -1.000000 -1.000000 -1.000000 -0.000000 -0.000000 77 71 63
-1.000000 -1.000000 -1.000000 0.000000 -0.000000 -1.000000 77 71 63
-1.000000 1.000000 -1.000000 0.000000 -0.000000 -1.000000 77 71 63
1.000000 1.000000 -1.000000 0.000000 -0.000000 -1.000000 77 71 63
1.000000 -1.000000 -1.000000 0.000000 -0.000000 -1.000000 77 71 63
1.000000 1.000000 1.000000 1.000000 0.000000 0.000000 77 71 63
1.000000 -1.000000 1.000000 1.000000 0.000000 0.000000 77 71 63
1.000000 -1.000000 -1.000000 1.000000 0.000000 0.000000 77 71 63
1.000000 1.000000 -1.000000 1.000000 0.000000 0.000000 77 71 63
3 0 1 2
3 3 4 5
3 0 6 1
3 7 8 9
3 10 11 12
3 13 10 12
4 14 15 16 17
3 18 19 20
4 21 22 23 24
4 25 26 27 28
4 29 30 31 32
3 33 34 35
3 36 37 38
3 39 40 41
3 33 39 34
3 39 41 34
3 42 43 44
3 45 46 47
3 48 49 50
3 51 52 47
3 53 54 55
3 56 57 58
3 59 60 61
3 62 63 64
3 65 66 67
3 59 68 60
3 69 70 71
3 72 73 74
3 75 76 72
3 77 78 75
3 77 72 74
3 77 75 72
3 79 80 81
3 82 83 80
3 79 84 82
3 79 82 80
3 85 86 87
3 88 89 90
3 91 92 93
3 94 95 96
4 97 98 99 100
4 101 102 103 104
4 105 106 107 108
4 109 110 111 112
4 113 114 115 116
4 117 118 119 120
