ply
format ascii 1.0
comment Created by Blender 2.73 (sub 0) - www.blender.org, source file: 'stone_2_sepearted.blend'
element vertex 372
property float x
property float y
property float z
property float nx
property float ny
property float nz
property uchar red
property uchar green
property uchar blue
element face 126
property list uchar uint vertex_indices
end_header
0.161215 1.191086 -0.990045 -0.530713 -0.509702 -0.677161 138 138 138
-1.155513 1.972029 -0.545901 -0.530713 -0.509702 -0.677161 138 138 138
-0.221516 1.801885 -1.149837 -0.530713 -0.509702 -0.677161 138 138 138
0.182106 0.680086 -0.621786 -0.530713 -0.509702 -0.677161 138 138 138
-0.970261 1.102477 -0.036574 -0.530713 -0.509702 -0.677161 138 138 138
-1.227745 3.096468 0.035669 -0.428798 0.157755 0.889520 138 138 138
-1.012246 1.075330 0.497997 -0.428798 0.157755 0.889520 138 138 138
-0.342022 0.901984 0.851825 -0.428798 0.157755 0.889520 138 138 138
-0.212727 3.590606 0.437329 -0.428798 0.157755 0.889520 138 138 138
0.282778 0.650187 -0.565021 0.030645 -0.895831 -0.443337 255 255 255
0.283594 0.650141 -0.564873 0.030645 -0.895831 -0.443337 255 255 255
0.283014 0.650037 -0.564701 0.030645 -0.895831 -0.443337 255 255 255
0.283253 0.649935 -0.564365 0.003792 -0.985888 -0.167361 255 255 255
0.284068 0.649903 -0.564158 0.003792 -0.985888 -0.167361 255 255 255
0.283486 0.649876 -0.564014 0.003792 -0.985888 -0.167361 255 255 255
0.283253 0.649935 -0.564365 0.018813 -0.974269 -0.224600 255 255 255
0.283829 0.649987 -0.564544 0.018813 -0.974269 -0.224600 255 255 255
0.284068 0.649903 -0.564158 0.018813 -0.974269 -0.224600 255 255 255
0.284401 0.650191 -0.564667 0.276479 -0.830831 -0.482991 255 255 255
0.285197 0.650321 -0.564435 0.276479 -0.830831 -0.482991 255 255 255
0.284653 0.650072 -0.564318 0.276479 -0.830831 -0.482991 255 255 255
1.435189 1.757729 0.594027 0.117932 0.163074 0.979540 138 138 138
0.094936 0.936818 0.892053 0.117932 0.163074 0.979540 138 138 138
1.082852 1.284949 0.715156 0.117932 0.163074 0.979540 138 138 138
0.784259 3.279348 0.419076 0.117931 0.163074 0.979540 138 138 138
0.226651 3.683174 0.418980 0.117931 0.163074 0.979540 138 138 138
0.094936 0.936818 0.892053 0.117931 0.163074 0.979540 138 138 138
0.784259 3.279348 0.419076 0.117932 0.163074 0.979540 138 138 138
0.284653 0.650072 -0.564318 0.296362 -0.940210 -0.167854 255 255 255
0.285430 0.650269 -0.564050 0.296362 -0.940210 -0.167854 255 255 255
0.284872 0.650072 -0.563932 0.296362 -0.940210 -0.167854 255 255 255
0.284653 0.650072 -0.564318 0.335719 -0.885086 -0.322360 255 255 255
0.285197 0.650321 -0.564435 0.335719 -0.885086 -0.322360 255 255 255
0.285430 0.650269 -0.564050 0.335719 -0.885086 -0.322360 255 255 255
0.285197 0.650321 -0.564435 0.333500 -0.886350 -0.321187 255 255 255
0.285972 0.650514 -0.564164 0.333500 -0.886350 -0.321187 255 255 255
0.285430 0.650269 -0.564050 0.333500 -0.886350 -0.321187 255 255 255
0.284068 0.649903 -0.564158 0.240462 -0.961039 -0.136316 255 255 255
0.284653 0.650072 -0.564318 0.240462 -0.961039 -0.136316 255 255 255
0.284872 0.650072 -0.563932 0.240462 -0.961039 -0.136316 255 255 255
0.284068 0.649903 -0.564158 0.182464 -0.930924 -0.316365 255 255 255
0.283829 0.649987 -0.564544 0.182464 -0.930924 -0.316365 255 255 255
0.284653 0.650072 -0.564318 0.182464 -0.930924 -0.316365 255 255 255
0.283829 0.649987 -0.564544 0.212345 -0.867829 -0.449201 255 255 255
0.284401 0.650191 -0.564667 0.212345 -0.867829 -0.449201 255 255 255
0.284653 0.650072 -0.564318 0.212345 -0.867829 -0.449201 255 255 255
0.283486 0.649876 -0.564014 0.074958 -0.996618 -0.033670 255 255 255
0.284303 0.649930 -0.563794 0.074958 -0.996618 -0.033670 255 255 255
0.283723 0.649882 -0.563659 0.074958 -0.996618 -0.033670 255 255 255
0.283486 0.649876 -0.564014 0.055448 -0.997703 0.038912 255 255 255
0.284068 0.649903 -0.564158 0.055448 -0.997703 0.038912 255 255 255
0.284303 0.649930 -0.563794 0.055448 -0.997703 0.038912 255 255 255
0.284068 0.649903 -0.564158 0.224689 -0.971744 -0.072308 255 255 255
0.284872 0.650072 -0.563932 0.224689 -0.971744 -0.072308 255 255 255
0.284303 0.649930 -0.563794 0.224689 -0.971744 -0.072308 255 255 255
0.283014 0.650037 -0.564701 -0.002370 -0.957628 -0.287997 255 255 255
0.283829 0.649987 -0.564544 -0.002370 -0.957628 -0.287997 255 255 255
0.283253 0.649935 -0.564365 -0.002370 -0.957628 -0.287997 255 255 255
0.283014 0.650037 -0.564701 0.031044 -0.896333 -0.442294 255 255 255
0.283594 0.650141 -0.564873 0.031044 -0.896333 -0.442294 255 255 255
0.283829 0.649987 -0.564544 0.031044 -0.896333 -0.442294 255 255 255
0.283594 0.650141 -0.564873 0.184201 -0.832808 -0.522016 255 255 255
0.284401 0.650191 -0.564667 0.184201 -0.832808 -0.522016 255 255 255
0.283829 0.649987 -0.564544 0.184201 -0.832808 -0.522016 255 255 255
1.435189 1.757729 0.594027 0.758709 0.384987 0.525496 138 138 138
1.686317 2.277117 -0.149063 0.758709 0.384987 0.525496 138 138 138
1.672750 2.339089 -0.174877 0.758709 0.384987 0.525496 138 138 138
0.784259 3.279348 0.419076 0.758709 0.384987 0.525496 138 138 138
0.161215 1.191086 -0.990045 0.236332 -0.104634 -0.966022 138 138 138
1.529188 2.193411 -0.763944 0.236332 -0.104634 -0.966022 138 138 138
0.949437 1.401854 -0.820040 0.236332 -0.104634 -0.966022 138 138 138
-0.221516 1.801885 -1.149837 0.236332 -0.104634 -0.966022 138 138 138
0.324629 2.993691 -1.145315 0.236332 -0.104634 -0.966022 138 138 138
0.324629 2.993691 -1.145315 -0.849095 -0.390750 -0.355460 138 138 138
-0.023052 3.403282 -0.765056 -0.849095 -0.390750 -0.355460 138 138 138
0.165393 3.201694 -0.993598 -0.849095 -0.390750 -0.355460 138 138 138
-1.250924 3.076038 -0.110292 -0.509564 0.470291 -0.720535 138 138 138
-0.169931 3.542957 -0.570017 -0.509564 0.470291 -0.720535 138 138 138
-0.023052 3.403282 -0.765056 -0.509564 0.470291 -0.720535 138 138 138
-1.287817 2.520530 -0.366178 0.433847 0.353027 -0.828944 138 138 138
-1.280935 2.961917 -0.174600 0.433847 0.353027 -0.828944 138 138 138
-1.250924 3.076038 -0.110292 0.433847 0.353027 -0.828944 138 138 138
-1.155513 1.972029 -0.545901 0.454849 0.374470 -0.808013 138 138 138
-1.176500 2.034262 -0.528874 0.454849 0.374470 -0.808013 138 138 138
-1.287817 2.520530 -0.366178 0.454849 0.374470 -0.808013 138 138 138
0.324629 2.993691 -1.145315 -0.498162 0.231453 -0.835622 138 138 138
-0.221516 1.801885 -1.149837 -0.498162 0.231453 -0.835622 138 138 138
-1.155513 1.972029 -0.545901 -0.498162 0.231453 -0.835622 138 138 138
0.324629 2.993691 -1.145315 -0.510408 0.311039 -0.801710 138 138 138
-1.250924 3.076038 -0.110292 -0.510408 0.311039 -0.801710 138 138 138
-0.023052 3.403282 -0.765056 -0.510408 0.311039 -0.801710 138 138 138
-1.155513 1.972029 -0.545901 0.368842 0.368562 -0.853298 138 138 138
-1.287817 2.520530 -0.366178 0.368842 0.368562 -0.853298 138 138 138
-1.250924 3.076038 -0.110292 0.368842 0.368562 -0.853298 138 138 138
0.324629 2.993691 -1.145315 -0.517821 0.274897 -0.810119 138 138 138
-1.155513 1.972029 -0.545901 -0.517821 0.274897 -0.810119 138 138 138
-1.250924 3.076038 -0.110292 -0.517821 0.274897 -0.810119 138 138 138
0.949437 1.401854 -0.820040 0.313634 -0.546687 -0.776381 138 138 138
0.182106 0.680086 -0.621786 0.313634 -0.546687 -0.776381 138 138 138
0.161215 1.191086 -0.990045 0.313634 -0.546687 -0.776381 138 138 138
0.282778 0.650187 -0.565021 0.537043 0.358731 -0.763477 138 138 138
0.225383 0.666884 -0.597548 0.537043 0.358731 -0.763477 138 138 138
0.182106 0.680086 -0.621786 0.537043 0.358731 -0.763477 138 138 138
0.284401 0.650191 -0.564667 0.180241 0.520013 -0.834925 138 138 138
0.283594 0.650141 -0.564873 0.180241 0.520013 -0.834925 138 138 138
0.282778 0.650187 -0.565021 0.180241 0.520013 -0.834925 138 138 138
0.285972 0.650514 -0.564164 0.152239 0.544353 -0.824926 138 138 138
0.285197 0.650321 -0.564435 0.152239 0.544353 -0.824926 138 138 138
0.284401 0.650191 -0.564667 0.152239 0.544353 -0.824926 138 138 138
0.373874 0.679583 -0.556738 -0.022797 0.311604 -0.949939 138 138 138
0.329951 0.664982 -0.560474 -0.022797 0.311604 -0.949939 138 138 138
0.285972 0.650514 -0.564164 -0.022797 0.311604 -0.949939 138 138 138
0.457760 0.715611 -0.546597 -0.026466 0.327474 -0.944489 138 138 138
0.416716 0.695801 -0.552316 -0.026466 0.327474 -0.944489 138 138 138
0.373874 0.679583 -0.556738 -0.026466 0.327474 -0.944489 138 138 138
0.777664 1.092726 -0.729464 -0.538927 0.049407 -0.840902 138 138 138
0.629741 0.887251 -0.646734 -0.538927 0.049407 -0.840902 138 138 138
0.457760 0.715611 -0.546597 -0.538927 0.049407 -0.840902 138 138 138
0.949437 1.401854 -0.820040 -0.605221 0.105096 -0.789090 138 138 138
0.907631 1.323343 -0.798432 -0.605221 0.105096 -0.789090 138 138 138
0.777664 1.092726 -0.729464 -0.605221 0.105096 -0.789090 138 138 138
0.949437 1.401854 -0.820040 0.292006 -0.529256 -0.796631 138 138 138
0.282778 0.650187 -0.565021 0.292006 -0.529256 -0.796631 138 138 138
0.182106 0.680086 -0.621786 0.292006 -0.529256 -0.796631 138 138 138
0.285972 0.650514 -0.564164 0.189416 0.443351 -0.876106 138 138 138
0.284401 0.650191 -0.564667 0.189416 0.443351 -0.876106 138 138 138
0.282778 0.650187 -0.565021 0.189416 0.443351 -0.876106 138 138 138
0.457760 0.715611 -0.546597 -0.035079 0.345622 -0.937718 138 138 138
0.373874 0.679583 -0.556738 -0.035079 0.345622 -0.937718 138 138 138
0.285972 0.650514 -0.564164 -0.035079 0.345622 -0.937718 138 138 138
0.949437 1.401854 -0.820040 -0.547421 0.059604 -0.834732 138 138 138
0.777664 1.092726 -0.729464 -0.547421 0.059604 -0.834732 138 138 138
0.457760 0.715611 -0.546597 -0.547421 0.059604 -0.834732 138 138 138
0.949437 1.401854 -0.820040 0.270865 -0.515947 -0.812669 138 138 138
0.285972 0.650514 -0.564164 0.270865 -0.515947 -0.812669 138 138 138
0.282778 0.650187 -0.565021 0.270865 -0.515947 -0.812669 138 138 138
0.949437 1.401854 -0.820040 0.280120 -0.521774 -0.805782 138 138 138
0.457760 0.715611 -0.546597 0.280120 -0.521774 -0.805782 138 138 138
0.285972 0.650514 -0.564164 0.280120 -0.521774 -0.805782 138 138 138
-1.250924 3.076038 -0.110292 -0.417413 0.906693 -0.060621 138 138 138
0.111586 3.737121 0.395612 -0.417413 0.906693 -0.060621 138 138 138
-0.169931 3.542957 -0.570017 -0.417413 0.906693 -0.060621 138 138 138
-1.227745 3.096468 0.035669 -0.417413 0.906693 -0.060621 138 138 138
-0.212727 3.590606 0.437329 -0.417413 0.906693 -0.060621 138 138 138
-0.970261 1.102477 -0.036574 0.614302 -0.789009 0.009899 138 138 138
-1.018101 1.070626 0.393438 0.614302 -0.789009 0.009899 138 138 138
-0.993405 1.086570 0.131769 0.614302 -0.789009 0.009899 138 138 138
-0.342022 0.901984 0.851825 -0.278923 -0.958515 0.058745 138 138 138
-1.012246 1.075330 0.497997 -0.278923 -0.958515 0.058745 138 138 138
-1.018101 1.070626 0.393438 -0.278923 -0.958515 0.058745 138 138 138
-0.125833 0.713407 0.576117 -0.118379 -0.860406 0.495670 138 138 138
-0.253096 0.883587 0.841130 -0.118379 -0.860406 0.495670 138 138 138
-0.342022 0.901984 0.851825 -0.118379 -0.860406 0.495670 138 138 138
0.145369 0.630344 -0.159054 -0.916853 -0.251838 -0.309771 138 138 138
0.008723 0.638702 0.238592 -0.916853 -0.251838 -0.309771 138 138 138
-0.125833 0.713407 0.576117 -0.916853 -0.251838 -0.309771 138 138 138
0.283486 0.649876 -0.564014 0.063956 -0.997606 -0.026304 138 138 138
0.283723 0.649882 -0.563659 0.063956 -0.997606 -0.026304 138 138 138
0.145369 0.630344 -0.159054 0.063956 -0.997606 -0.026304 138 138 138
0.283014 0.650037 -0.564701 -0.818170 -0.294407 0.493885 138 138 138
0.283253 0.649935 -0.564365 -0.818170 -0.294407 0.493885 138 138 138
0.283486 0.649876 -0.564014 -0.818170 -0.294407 0.493885 138 138 138
0.225383 0.666884 -0.597548 -0.038905 -0.915188 -0.401146 138 138 138
0.282778 0.650187 -0.565021 -0.038905 -0.915188 -0.401146 138 138 138
0.283014 0.650037 -0.564701 -0.038905 -0.915188 -0.401146 138 138 138
-0.970261 1.102477 -0.036574 -0.319140 -0.946141 0.054467 138 138 138
0.182106 0.680086 -0.621786 -0.319140 -0.946141 0.054467 138 138 138
0.225383 0.666884 -0.597548 -0.319140 -0.946141 0.054467 138 138 138
-0.970261 1.102477 -0.036574 -0.181363 -0.979038 -0.092696 138 138 138
-0.342022 0.901984 0.851825 -0.181363 -0.979038 -0.092696 138 138 138
-1.018101 1.070626 0.393438 -0.181363 -0.979038 -0.092696 138 138 138
0.145369 0.630344 -0.159054 -0.787856 -0.572931 -0.225906 138 138 138
-0.125833 0.713407 0.576117 -0.787856 -0.572931 -0.225906 138 138 138
-0.342022 0.901984 0.851825 -0.787856 -0.572931 -0.225906 138 138 138
0.283014 0.650037 -0.564701 -0.176051 -0.978522 -0.107241 138 138 138
0.283486 0.649876 -0.564014 -0.176051 -0.978522 -0.107241 138 138 138
0.145369 0.630344 -0.159054 -0.176051 -0.978522 -0.107241 138 138 138
-0.970261 1.102477 -0.036574 -0.314252 -0.947070 0.065608 138 138 138
0.225383 0.666884 -0.597548 -0.314252 -0.947070 0.065608 138 138 138
0.283014 0.650037 -0.564701 -0.314252 -0.947070 0.065608 138 138 138
-0.970261 1.102477 -0.036574 -0.383095 -0.921563 0.062931 138 138 138
0.145369 0.630344 -0.159054 -0.383095 -0.921563 0.062931 138 138 138
-0.342022 0.901984 0.851825 -0.383095 -0.921563 0.062931 138 138 138
-0.970261 1.102477 -0.036574 -0.400050 -0.898768 -0.179377 138 138 138
0.283014 0.650037 -0.564701 -0.400050 -0.898768 -0.179377 138 138 138
0.145369 0.630344 -0.159054 -0.400050 -0.898768 -0.179377 138 138 138
-1.250924 3.076038 -0.110292 -0.983908 -0.067020 0.165629 138 138 138
-1.012246 1.075330 0.497997 -0.983908 -0.067020 0.165629 138 138 138
-1.227745 3.096468 0.035669 -0.983908 -0.067020 0.165629 138 138 138
-0.993405 1.086570 0.131769 -0.575886 0.817518 -0.004537 138 138 138
-1.018101 1.070626 0.393438 -0.575886 0.817518 -0.004537 138 138 138
-1.012246 1.075330 0.497997 -0.575886 0.817518 -0.004537 138 138 138
-1.155513 1.972029 -0.545901 -0.943053 -0.293074 -0.157346 138 138 138
-0.970261 1.102477 -0.036574 -0.943053 -0.293074 -0.157346 138 138 138
-0.993405 1.086570 0.131769 -0.943053 -0.293074 -0.157346 138 138 138
-1.287817 2.520530 -0.366178 -0.454849 -0.374470 0.808013 138 138 138
-1.176500 2.034262 -0.528874 -0.454849 -0.374470 0.808013 138 138 138
-1.155513 1.972029 -0.545901 -0.454849 -0.374470 0.808013 138 138 138
-1.250924 3.076038 -0.110292 -0.433847 -0.353027 0.828944 138 138 138
-1.280935 2.961917 -0.174600 -0.433847 -0.353027 0.828944 138 138 138
-1.287817 2.520530 -0.366178 -0.433847 -0.353027 0.828944 138 138 138
-1.250924 3.076038 -0.110292 -0.989349 -0.134759 -0.055035 138 138 138
-0.993405 1.086570 0.131769 -0.989349 -0.134759 -0.055035 138 138 138
-1.012246 1.075330 0.497997 -0.989349 -0.134759 -0.055035 138 138 138
-1.287817 2.520530 -0.366178 -0.974552 -0.218088 -0.051832 138 138 138
-1.155513 1.972029 -0.545901 -0.974552 -0.218088 -0.051832 138 138 138
-0.993405 1.086570 0.131769 -0.974552 -0.218088 -0.051832 138 138 138
-1.250924 3.076038 -0.110292 -0.944506 -0.083606 0.317676 138 138 138
-1.287817 2.520530 -0.366178 -0.944506 -0.083606 0.317676 138 138 138
-0.993405 1.086570 0.131769 -0.944506 -0.083606 0.317676 138 138 138
0.111586 3.737121 0.395612 -0.116978 0.174035 0.977767 138 138 138
0.094936 0.936818 0.892053 -0.116978 0.174035 0.977767 138 138 138
0.226651 3.683174 0.418980 -0.116978 0.174035 0.977767 138 138 138
-0.342022 0.901984 0.851825 -0.026505 -0.595099 0.803215 138 138 138
-0.253096 0.883587 0.841130 -0.026505 -0.595099 0.803215 138 138 138
0.094936 0.936818 0.892053 -0.026505 -0.595099 0.803215 138 138 138
0.111586 3.737121 0.395612 0.059512 0.149301 0.986999 138 138 138
-0.212727 3.590606 0.437329 0.059512 0.149301 0.986999 138 138 138
-0.342022 0.901984 0.851825 0.059512 0.149301 0.986999 138 138 138
0.111586 3.737121 0.395612 -0.104035 0.174212 0.979197 138 138 138
-0.342022 0.901984 0.851825 -0.104035 0.174212 0.979197 138 138 138
0.094936 0.936818 0.892053 -0.104035 0.174212 0.979197 138 138 138
0.457760 0.715611 -0.546597 0.026466 -0.327474 0.944489 138 138 138
0.373874 0.679583 -0.556738 0.026466 -0.327474 0.944489 138 138 138
0.416716 0.695801 -0.552316 0.026466 -0.327474 0.944489 138 138 138
0.285972 0.650514 -0.564164 0.022797 -0.311604 0.949939 138 138 138
0.329951 0.664982 -0.560474 0.022797 -0.311604 0.949939 138 138 138
0.373874 0.679583 -0.556738 0.022797 -0.311604 0.949939 138 138 138
0.284872 0.650072 -0.563932 0.220446 -0.036495 0.974716 138 138 138
0.285430 0.650269 -0.564050 0.220446 -0.036495 0.974716 138 138 138
0.285972 0.650514 -0.564164 0.220446 -0.036495 0.974716 138 138 138
0.283723 0.649882 -0.563659 0.220086 0.065899 0.973252 138 138 138
0.284303 0.649930 -0.563794 0.220086 0.065899 0.973252 138 138 138
0.284872 0.650072 -0.563932 0.220086 0.065899 0.973252 138 138 138
0.008723 0.638702 0.238592 0.945617 0.023035 0.324465 138 138 138
0.145369 0.630344 -0.159054 0.945617 0.023035 0.324465 138 138 138
0.283723 0.649882 -0.563659 0.945617 0.023035 0.324465 138 138 138
-0.253096 0.883587 0.841130 0.926830 0.179619 0.329733 138 138 138
-0.125833 0.713407 0.576117 0.926830 0.179619 0.329733 138 138 138
0.008723 0.638702 0.238592 0.926830 0.179619 0.329733 138 138 138
1.082852 1.284949 0.715156 0.202575 -0.834902 -0.511764 138 138 138
0.094936 0.936818 0.892053 0.202575 -0.834902 -0.511764 138 138 138
-0.253096 0.883587 0.841130 0.202575 -0.834902 -0.511764 138 138 138
0.891983 0.883513 0.172038 -0.779458 -0.340670 0.525726 138 138 138
1.031787 1.063498 0.495946 -0.779458 -0.340670 0.525726 138 138 138
1.082852 1.284949 0.715156 -0.779458 -0.340670 0.525726 138 138 138
0.457760 0.715611 -0.546597 -0.675312 -0.514650 0.528289 138 138 138
0.701639 0.760479 -0.191136 -0.675312 -0.514650 0.528289 138 138 138
0.891983 0.883513 0.172038 -0.675312 -0.514650 0.528289 138 138 138
0.457760 0.715611 -0.546597 0.035079 -0.345622 0.937718 138 138 138
0.285972 0.650514 -0.564164 0.035079 -0.345622 0.937718 138 138 138
0.373874 0.679583 -0.556738 0.035079 -0.345622 0.937718 138 138 138
0.283723 0.649882 -0.563659 0.246270 -0.106730 0.963307 138 138 138
0.284872 0.650072 -0.563932 0.246270 -0.106730 0.963307 138 138 138
0.285972 0.650514 -0.564164 0.246270 -0.106730 0.963307 138 138 138
-0.253096 0.883587 0.841130 0.925597 0.202011 0.320096 138 138 138
0.008723 0.638702 0.238592 0.925597 0.202011 0.320096 138 138 138
0.283723 0.649882 -0.563659 0.925597 0.202011 0.320096 138 138 138
0.891983 0.883513 0.172038 0.292088 -0.815302 0.499968 138 138 138
1.082852 1.284949 0.715156 0.292088 -0.815302 0.499968 138 138 138
-0.253096 0.883587 0.841130 0.292088 -0.815302 0.499968 138 138 138
0.457760 0.715611 -0.546597 0.353931 -0.935260 0.004657 138 138 138
0.891983 0.883513 0.172038 0.353931 -0.935260 0.004657 138 138 138
0.285972 0.650514 -0.564164 0.353931 -0.935260 0.004657 138 138 138
-0.253096 0.883587 0.841130 0.316564 -0.908694 0.272143 138 138 138
0.283723 0.649882 -0.563659 0.316564 -0.908694 0.272143 138 138 138
0.285972 0.650514 -0.564164 0.316564 -0.908694 0.272143 138 138 138
0.891983 0.883513 0.172038 0.121169 -0.970707 0.207475 138 138 138
-0.253096 0.883587 0.841130 0.121169 -0.970707 0.207475 138 138 138
0.285972 0.650514 -0.564164 0.121169 -0.970707 0.207475 138 138 138
1.082852 1.284949 0.715156 0.768455 -0.616563 -0.171250 138 138 138
1.686317 2.277117 -0.149063 0.768455 -0.616563 -0.171250 138 138 138
1.435189 1.757729 0.594027 0.768455 -0.616563 -0.171250 138 138 138
1.646498 2.272403 -0.384071 0.980431 0.102333 -0.168176 138 138 138
1.672075 2.302899 -0.216401 0.980431 0.102333 -0.168176 138 138 138
1.686317 2.277117 -0.149063 0.980431 0.102333 -0.168176 138 138 138
1.561100 2.208546 -0.701419 0.149802 -0.976309 0.156141 138 138 138
1.615049 2.241127 -0.549455 0.149802 -0.976309 0.156141 138 138 138
1.646498 2.272403 -0.384071 0.149802 -0.976309 0.156141 138 138 138
0.949437 1.401854 -0.820040 0.786477 -0.557141 -0.266547 138 138 138
1.529188 2.193411 -0.763944 0.786477 -0.557141 -0.266547 138 138 138
1.561100 2.208546 -0.701419 0.786477 -0.557141 -0.266547 138 138 138
0.777664 1.092726 -0.729464 0.605221 -0.105096 0.789090 138 138 138
0.907631 1.323343 -0.798432 0.605221 -0.105096 0.789090 138 138 138
0.949437 1.401854 -0.820040 0.605221 -0.105096 0.789090 138 138 138
0.457760 0.715611 -0.546597 0.538927 -0.049407 0.840902 138 138 138
0.629741 0.887251 -0.646734 0.538927 -0.049407 0.840902 138 138 138
0.777664 1.092726 -0.729464 0.538927 -0.049407 0.840902 138 138 138
0.891983 0.883513 0.172038 0.675312 0.514650 -0.528289 138 138 138
0.701639 0.760479 -0.191136 0.675312 0.514650 -0.528289 138 138 138
0.457760 0.715611 -0.546597 0.675312 0.514650 -0.528289 138 138 138
1.082852 1.284949 0.715156 0.779458 0.340670 -0.525726 138 138 138
1.031787 1.063498 0.495946 0.779458 0.340670 -0.525726 138 138 138
0.891983 0.883513 0.172038 0.779458 0.340670 -0.525726 138 138 138
1.082852 1.284949 0.715156 0.796644 -0.591779 -0.123112 138 138 138
1.646498 2.272403 -0.384071 0.796644 -0.591779 -0.123112 138 138 138
1.686317 2.277117 -0.149063 0.796644 -0.591779 -0.123112 138 138 138
0.949437 1.401854 -0.820040 0.799904 -0.592392 -0.096052 138 138 138
1.561100 2.208546 -0.701419 0.799904 -0.592392 -0.096052 138 138 138
1.646498 2.272403 -0.384071 0.799904 -0.592392 -0.096052 138 138 138
0.457760 0.715611 -0.546597 0.547421 -0.059604 0.834732 138 138 138
0.777664 1.092726 -0.729464 0.547421 -0.059604 0.834732 138 138 138
0.949437 1.401854 -0.820040 0.547421 -0.059604 0.834732 138 138 138
1.082852 1.284949 0.715156 0.751632 0.375900 -0.541986 138 138 138
0.891983 0.883513 0.172038 0.751632 0.375900 -0.541986 138 138 138
0.457760 0.715611 -0.546597 0.751632 0.375900 -0.541986 138 138 138
1.082852 1.284949 0.715156 0.802628 -0.585420 -0.114331 138 138 138
0.949437 1.401854 -0.820040 0.802628 -0.585420 -0.114331 138 138 138
1.646498 2.272403 -0.384071 0.802628 -0.585420 -0.114331 138 138 138
1.082852 1.284949 0.715156 0.785358 -0.608346 -0.114576 138 138 138
0.457760 0.715611 -0.546597 0.785358 -0.608346 -0.114576 138 138 138
0.949437 1.401854 -0.820040 0.785358 -0.608346 -0.114576 138 138 138
1.672075 2.302899 -0.216401 0.977157 0.152091 -0.148433 138 138 138
1.672750 2.339089 -0.174877 0.977157 0.152091 -0.148433 138 138 138
1.686317 2.277117 -0.149063 0.977157 0.152091 -0.148433 138 138 138
1.529188 2.193411 -0.763944 -0.173314 0.973796 -0.147255 138 138 138
1.615049 2.241127 -0.549455 -0.173314 0.973796 -0.147255 138 138 138
1.561100 2.208546 -0.701419 -0.173314 0.973796 -0.147255 138 138 138
1.672075 2.302899 -0.216401 -0.186537 0.971207 -0.148191 138 138 138
1.646498 2.272403 -0.384071 -0.186537 0.971207 -0.148191 138 138 138
1.615049 2.241127 -0.549455 -0.186537 0.971207 -0.148191 138 138 138
0.784259 3.279348 0.419076 0.333179 0.708102 -0.622562 138 138 138
1.672750 2.339089 -0.174877 0.333179 0.708102 -0.622562 138 138 138
1.672075 2.302899 -0.216401 0.333179 0.708102 -0.622562 138 138 138
0.111586 3.737121 0.395612 0.410874 0.567170 -0.713793 138 138 138
0.226651 3.683174 0.418980 0.410874 0.567170 -0.713793 138 138 138
0.784259 3.279348 0.419076 0.410874 0.567170 -0.713793 138 138 138
-0.023052 3.403282 -0.765056 0.422488 0.856858 -0.295464 138 138 138
-0.169931 3.542957 -0.570017 0.422488 0.856858 -0.295464 138 138 138
0.111586 3.737121 0.395612 0.422488 0.856858 -0.295464 138 138 138
0.324629 2.993691 -1.145315 0.849096 0.390749 0.355460 138 138 138
0.165393 3.201694 -0.993598 0.849096 0.390749 0.355460 138 138 138
-0.023052 3.403282 -0.765056 0.849096 0.390749 0.355460 138 138 138
1.529188 2.193411 -0.763944 0.591919 0.703447 -0.393439 138 138 138
0.324629 2.993691 -1.145315 0.591919 0.703447 -0.393439 138 138 138
1.615049 2.241127 -0.549455 0.591919 0.703447 -0.393439 138 138 138
0.784259 3.279348 0.419076 0.632862 0.734610 -0.244609 138 138 138
1.672075 2.302899 -0.216401 0.632862 0.734610 -0.244609 138 138 138
1.615049 2.241127 -0.549455 0.632862 0.734610 -0.244609 138 138 138
-0.023052 3.403282 -0.765056 0.545397 0.786591 -0.289511 138 138 138
0.111586 3.737121 0.395612 0.545397 0.786591 -0.289511 138 138 138
0.784259 3.279348 0.419076 0.545397 0.786591 -0.289511 138 138 138
0.324629 2.993691 -1.145315 0.578738 0.761710 -0.291309 138 138 138
-0.023052 3.403282 -0.765056 0.578738 0.761710 -0.291309 138 138 138
1.615049 2.241127 -0.549455 0.578738 0.761710 -0.291309 138 138 138
-0.023052 3.403282 -0.765056 0.576495 0.754322 -0.314090 138 138 138
0.784259 3.279348 0.419076 0.576495 0.754322 -0.314090 138 138 138
1.615049 2.241127 -0.549455 0.576495 0.754322 -0.314090 138 138 138
1.000000 -1.000000 1.000000 -0.000000 -1.000000 -0.000000 77 71 63
-1.000000 -1.000000 1.000000 -0.000000 -1.000000 -0.000000 77 71 63
-1.000000 -1.000000 -1.000000 -0.000000 -1.000000 -0.000000 77 71 63
1.000000 -1.000000 -1.000000 -0.000000 -1.000000 -0.000000 77 71 63
0.999999 1.000000 1.000000 0.000000 1.000000 0.000000 77 71 63
1.000000 1.000000 -1.000000 0.000000 1.000000 0.000000 77 71 63
-1.000000 1.000000 -1.000000 0.000000 1.000000 0.000000 77 71 63
-1.000000 1.000000 0.999999 0.000000 1.000000 0.000000 77 71 63
1.000000 -1.000000 1.000000 -0.000000 0.000000 1.000000 77 71 63
0.999999 1.000000 1.000000 -0.000000 0.000000 1.000000 77 71 63
-1.000000 1.000000 0.999999 -0.000000 0.000000 1.000000 77 71 63
-1.000000 -1.000000 1.000000 -0.000000 0.000000 1.000000 77 71 63
-1.000000 -1.000000 1.000000 -1.000000 -0.000000 -0.000000 77 71 63
-1.000000 1.000000 0.999999 -1.000000 -0.000000 -0.000000 77 71 63
-1.000000 1.000000 -1.000000 -1.000000 -0.000000 -0.000000 77 71 63
-1.000000 -1.000000 -1.000000 -1.000000 -0.000000 -0.000000 77 71 63
-1.000000 -1.000000 -1.000000 0.000000 -0.000000 -1.000000 77 71 63
-1.000000 1.000000 -1.000000 0.000000 -0.000000 -1.000000 77 71 63
1.000000 1.000000 -1.000000 0.000000 -0.000000 -1.000000 77 71 63
1.000000 -1.000000 -1.000000 0.000000 -0.000000 -1.000000 77 71 63
0.999999 1.000000 1.000000 1.000000 0.000000 0.000000 77 71 63
1.000000 -1.000000 1.000000 1.000000 0.000000 0.000000 77 71 63
1.000000 -1.000000 -1.000000 1.000000 0.000000 0.000000 77 71 63
1.000000 1.000000 -1.000000 1.000000 0.000000 0.000000 77 71 63
3 0 1 2
3 3 4 1
3 0 3 1
4 5 6 7 8
3 9 10 11
3 12 13 14
3 15 16 17
3 18 19 20
3 21 22 23
3 24 25 26
3 21 27 22
3 28 29 30
3 31 32 33
3 34 35 36
3 37 38 39
3 40 41 42
3 43 44 45
3 46 47 48
3 49 50 51
3 52 53 54
3 55 56 57
3 58 59 60
3 61 62 63
4 64 65 66 67
3 68 69 70
3 71 72 69
3 68 71 69
3 73 74 75
3 76 77 78
3 79 80 81
3 82 83 84
3 85 86 87
3 88 89 90
3 91 92 93
3 94 95 96
3 97 98 99
3 100 101 102
3 103 104 105
3 106 107 108
3 109 110 111
3 112 113 114
3 115 116 117
3 118 119 120
3 121 122 123
3 124 125 126
3 127 128 129
3 130 131 132
3 133 134 135
3 136 137 138
3 139 140 141
3 142 143 140
3 139 142 140
3 144 145 146
3 147 148 149
3 150 151 152
3 153 154 155
3 156 157 158
3 159 160 161
3 162 163 164
3 165 166 167
3 168 169 170
3 171 172 173
3 174 175 176
3 177 178 179
3 180 181 182
3 183 184 185
3 186 187 188
3 189 190 191
3 192 193 194
3 195 196 197
3 198 199 200
3 201 202 203
3 204 205 206
3 207 208 209
3 210 211 212
3 213 214 215
3 216 217 218
3 219 220 221
3 222 223 224
3 225 226 227
3 228 229 230
3 231 232 233
3 234 235 236
3 237 238 239
3 240 241 242
3 243 244 245
3 246 247 248
3 249 250 251
3 252 253 254
3 255 256 257
3 258 259 260
3 261 262 263
3 264 265 266
3 267 268 269
3 270 271 272
3 273 274 275
3 276 277 278
3 279 280 281
3 282 283 284
3 285 286 287
3 288 289 290
3 291 292 293
3 294 295 296
3 297 298 299
3 300 301 302
3 303 304 305
3 306 307 308
3 309 310 311
3 312 313 314
3 315 316 317
3 318 319 320
3 321 322 323
3 324 325 326
3 327 328 329
3 330 331 332
3 333 334 335
3 336 337 338
3 339 340 341
3 342 343 344
3 345 346 347
4 348 349 350 351
4 352 353 354 355
4 356 357 358 359
4 360 361 362 363
4 364 365 366 367
4 368 369 370 371
