ply
format ascii 1.0
comment Created by Blender 2.73 (sub 0) - www.blender.org, source file: 'stone_small.blend'
element vertex 264
property float x
property float y
property float z
property float nx
property float ny
property float nz
property uchar red
property uchar green
property uchar blue
element face 86
property list uchar uint vertex_indices
end_header
0.000000 0.110080 0.000000 -0.315090 -0.943523 0.102381 121 121 121
-0.309011 0.259426 0.425323 -0.315090 -0.943523 0.102381 121 121 121
-0.499995 0.259426 -0.162456 -0.315090 -0.943523 0.102381 121 121 121
-0.525725 0.662861 0.723607 -0.268032 -0.661699 0.700224 121 121 121
-0.309011 0.259426 0.425323 -0.268032 -0.661699 0.700224 121 121 121
0.000000 0.584344 0.850648 -0.268032 -0.661699 0.700224 121 121 121
0.000000 0.110080 0.000000 -0.194736 -0.943523 -0.268034 122 122 122
-0.499995 0.259426 -0.162456 -0.194736 -0.943523 -0.268034 121 121 121
0.000000 0.259429 -0.525730 -0.194736 -0.943523 -0.268034 121 121 121
0.000000 0.110080 0.000000 0.194737 -0.943523 -0.268034 122 122 122
0.000000 0.259429 -0.525730 0.194737 -0.943523 -0.268034 121 121 121
0.499995 0.259426 -0.162456 0.194737 -0.943523 -0.268034 121 121 121
0.000000 0.110080 0.000000 0.315090 -0.943523 0.102381 122 122 122
0.499995 0.259426 -0.162456 0.315090 -0.943523 0.102381 121 121 121
0.309011 0.259426 0.425323 0.315090 -0.943523 0.102381 121 121 121
-0.525725 0.662861 0.723607 -0.268032 -0.330385 0.904989 121 121 121
0.000000 0.584344 0.850648 -0.268032 -0.330385 0.904989 121 121 121
-0.309013 1.110080 0.951058 -0.268032 -0.330385 0.904989 121 121 121
-0.850649 0.662861 -0.276388 -0.943521 -0.330386 0.024747 121 121 121
-0.809012 0.584343 0.262869 -0.943521 -0.330386 0.024747 121 121 121
-1.000000 1.110080 0.000000 -0.943521 -0.330386 0.024747 121 121 121
0.000000 0.662865 -0.894426 -0.315095 -0.330385 -0.889697 121 121 121
-0.499997 0.584344 -0.688189 -0.315095 -0.330385 -0.889697 121 121 121
-0.309013 1.110080 -0.951058 -0.315095 -0.330385 -0.889697 121 121 121
0.850649 0.662861 -0.276388 0.748784 -0.330388 -0.574602 121 121 121
0.499997 0.584344 -0.688189 0.748784 -0.330388 -0.574602 121 121 121
0.809017 1.110080 -0.587786 0.748784 -0.330388 -0.574602 121 121 121
0.525725 0.662861 0.723607 0.777865 -0.330387 0.534576 121 121 121
0.809012 0.584343 0.262869 0.777865 -0.330387 0.534576 121 121 121
0.809017 1.110080 0.587786 0.777865 -0.330387 0.534576 121 121 121
-0.525725 0.662861 0.723607 -0.583126 -0.125627 0.802609 121 121 121
-0.309013 1.110080 0.951058 -0.583126 -0.125627 0.802609 121 121 121
-0.809017 1.110080 0.587786 -0.583126 -0.125627 0.802609 121 121 121
-0.850649 0.662861 -0.276388 -0.943522 -0.125629 -0.306569 121 121 121
-1.000000 1.110080 0.000000 -0.943522 -0.125629 -0.306569 121 121 121
-0.809017 1.110080 -0.587786 -0.943522 -0.125629 -0.306569 121 121 121
0.000000 0.662865 -0.894426 -0.000000 -0.125628 -0.992077 121 121 121
-0.309013 1.110080 -0.951058 -0.000000 -0.125628 -0.992077 121 121 121
0.309013 1.110080 -0.951058 -0.000000 -0.125628 -0.992077 121 121 121
0.850649 0.662861 -0.276388 0.943522 -0.125629 -0.306569 121 121 121
0.809017 1.110080 -0.587786 0.943522 -0.125629 -0.306569 121 121 121
1.000000 1.110080 0.000000 0.943522 -0.125629 -0.306569 121 121 121
0.525725 0.662861 0.723607 0.583126 -0.125627 0.802609 121 121 121
0.809017 1.110080 0.587786 0.583126 -0.125627 0.802609 121 121 121
0.309013 1.110080 0.951058 0.583126 -0.125627 0.802609 121 121 121
-0.850649 1.557300 0.276388 -0.628425 0.661698 0.408946 121 121 121
-0.499997 1.635817 0.688189 -0.628425 0.661698 0.408946 121 121 121
-0.499995 1.960735 0.162456 -0.628425 0.661698 0.408946 121 121 121
-0.525725 1.557300 -0.723607 -0.583122 0.661699 -0.471300 121 121 121
-0.809012 1.635818 -0.262869 -0.583122 0.661699 -0.471300 121 121 121
-0.309011 1.960735 -0.425323 -0.583122 0.661699 -0.471300 121 121 121
0.525725 1.557300 -0.723607 0.268032 0.661699 -0.700224 121 121 121
0.000000 1.635816 -0.850648 0.268032 0.661699 -0.700224 121 121 121
0.309011 1.960735 -0.425323 0.268032 0.661699 -0.700224 121 121 121
0.850649 1.557300 0.276388 0.748779 0.661699 0.038530 121 121 121
0.809012 1.635818 -0.262869 0.748779 0.661699 0.038530 121 121 121
0.499995 1.960735 0.162456 0.748779 0.661699 0.038530 121 121 121
0.000000 1.557296 0.894426 0.194736 0.661695 0.724042 121 121 121
0.499997 1.635817 0.688189 0.194736 0.661695 0.724042 121 121 121
0.000000 1.960732 0.525730 0.194736 0.661695 0.724042 121 121 121
0.000000 1.960732 0.525730 0.194736 0.943523 0.268034 121 121 121
0.499995 1.960735 0.162456 0.194736 0.943523 0.268034 121 121 121
0.000000 2.110080 0.000000 0.194736 0.943523 0.268034 121 121 121
0.000000 1.960732 0.525730 0.356821 0.794658 0.491119 121 121 121
0.499997 1.635817 0.688189 0.356821 0.794658 0.491119 121 121 121
0.499995 1.960735 0.162456 0.356821 0.794658 0.491119 121 121 121
0.499997 1.635817 0.688189 0.628425 0.661699 0.408946 121 121 121
0.850649 1.557300 0.276388 0.628425 0.661699 0.408946 121 121 121
0.499995 1.960735 0.162456 0.628425 0.661699 0.408946 121 121 121
0.499995 1.960735 0.162456 0.315090 0.943524 -0.102381 121 121 121
0.309011 1.960735 -0.425323 0.315090 0.943524 -0.102381 121 121 121
0.000000 2.110080 0.000000 0.315090 0.943524 -0.102381 121 121 121
0.499995 1.960735 0.162456 0.577345 0.794658 -0.187594 121 121 121
0.809012 1.635818 -0.262869 0.577345 0.794658 -0.187594 121 121 121
0.309011 1.960735 -0.425323 0.577345 0.794658 -0.187594 121 121 121
0.809012 1.635818 -0.262869 0.583122 0.661699 -0.471300 121 121 121
0.525725 1.557300 -0.723607 0.583122 0.661699 -0.471300 121 121 121
0.309011 1.960735 -0.425323 0.583122 0.661699 -0.471300 121 121 121
0.309011 1.960735 -0.425323 0.000000 0.943524 -0.331304 121 121 121
-0.309011 1.960735 -0.425323 0.000000 0.943524 -0.331304 121 121 121
0.000000 2.110080 0.000000 0.000000 0.943524 -0.331304 121 121 121
0.309011 1.960735 -0.425323 0.000000 0.794656 -0.607060 121 121 121
0.000000 1.635816 -0.850648 0.000000 0.794656 -0.607060 121 121 121
-0.309011 1.960735 -0.425323 0.000000 0.794656 -0.607060 121 121 121
0.000000 1.635816 -0.850648 -0.268032 0.661699 -0.700224 121 121 121
-0.525725 1.557300 -0.723607 -0.268032 0.661699 -0.700224 121 121 121
-0.309011 1.960735 -0.425323 -0.268032 0.661699 -0.700224 121 121 121
-0.309011 1.960735 -0.425323 -0.315090 0.943524 -0.102381 121 121 121
-0.499995 1.960735 0.162456 -0.315090 0.943524 -0.102381 121 121 121
0.000000 2.110080 0.000000 -0.315090 0.943524 -0.102381 121 121 121
-0.309011 1.960735 -0.425323 -0.577345 0.794658 -0.187594 121 121 121
-0.809012 1.635818 -0.262869 -0.577345 0.794658 -0.187594 121 121 121
-0.499995 1.960735 0.162456 -0.577345 0.794658 -0.187594 121 121 121
-0.809012 1.635818 -0.262869 -0.748779 0.661699 0.038530 121 121 121
-0.850649 1.557300 0.276388 -0.748779 0.661699 0.038530 121 121 121
-0.499995 1.960735 0.162456 -0.748779 0.661699 0.038530 121 121 121
-0.499995 1.960735 0.162456 -0.194736 0.943523 0.268034 121 121 121
0.000000 1.960732 0.525730 -0.194736 0.943523 0.268034 121 121 121
0.000000 2.110080 0.000000 -0.194736 0.943523 0.268034 121 121 121
-0.499995 1.960735 0.162456 -0.356821 0.794658 0.491119 121 121 121
-0.499997 1.635817 0.688189 -0.356821 0.794658 0.491119 121 121 121
0.000000 1.960732 0.525730 -0.356821 0.794658 0.491119 121 121 121
-0.499997 1.635817 0.688189 -0.194736 0.661695 0.724042 121 121 121
0.000000 1.557296 0.894426 -0.194736 0.661695 0.724042 121 121 121
0.000000 1.960732 0.525730 -0.194736 0.661695 0.724042 121 121 121
0.309013 1.110080 0.951058 0.315095 0.330385 0.889697 121 121 121
0.499997 1.635817 0.688189 0.315095 0.330385 0.889697 121 121 121
0.000000 1.557296 0.894426 0.315095 0.330385 0.889697 121 121 121
0.309013 1.110080 0.951058 0.577348 0.187595 0.794656 121 121 121
0.809017 1.110080 0.587786 0.577348 0.187595 0.794656 121 121 121
0.499997 1.635817 0.688189 0.577348 0.187595 0.794656 121 121 121
0.809017 1.110080 0.587786 0.748784 0.330388 0.574602 121 121 121
0.850649 1.557300 0.276388 0.748784 0.330388 0.574602 121 121 121
0.499997 1.635817 0.688189 0.748784 0.330388 0.574602 121 121 121
1.000000 1.110080 0.000000 0.943521 0.330386 -0.024747 121 121 121
0.809012 1.635818 -0.262869 0.943521 0.330386 -0.024747 121 121 121
0.850649 1.557300 0.276388 0.943521 0.330386 -0.024747 121 121 121
1.000000 1.110080 0.000000 0.934171 0.187597 -0.303531 121 121 121
0.809017 1.110080 -0.587786 0.934171 0.187597 -0.303531 121 121 121
0.809012 1.635818 -0.262869 0.934171 0.187597 -0.303531 121 121 121
0.809017 1.110080 -0.587786 0.777865 0.330387 -0.534576 121 121 121
0.525725 1.557300 -0.723607 0.777865 0.330387 -0.534576 121 121 121
0.809012 1.635818 -0.262869 0.777865 0.330387 -0.534576 121 121 121
0.309013 1.110080 -0.951058 0.268032 0.330385 -0.904989 121 121 121
0.000000 1.635816 -0.850648 0.268032 0.330385 -0.904989 121 121 121
0.525725 1.557300 -0.723607 0.268032 0.330385 -0.904989 121 121 121
0.309013 1.110080 -0.951058 0.000000 0.187599 -0.982246 121 121 121
-0.309013 1.110080 -0.951058 0.000000 0.187599 -0.982246 121 121 121
0.000000 1.635816 -0.850648 0.000000 0.187599 -0.982246 121 121 121
-0.309013 1.110080 -0.951058 -0.268032 0.330385 -0.904989 121 121 121
-0.525725 1.557300 -0.723607 -0.268032 0.330385 -0.904989 121 121 121
0.000000 1.635816 -0.850648 -0.268032 0.330385 -0.904989 121 121 121
-0.809017 1.110080 -0.587786 -0.777865 0.330387 -0.534576 121 121 121
-0.809012 1.635818 -0.262869 -0.777865 0.330387 -0.534576 121 121 121
-0.525725 1.557300 -0.723607 -0.777865 0.330387 -0.534576 121 121 121
-0.809017 1.110080 -0.587786 -0.934171 0.187597 -0.303531 121 121 121
-1.000000 1.110080 0.000000 -0.934171 0.187597 -0.303531 121 121 121
-0.809012 1.635818 -0.262869 -0.934171 0.187597 -0.303531 121 121 121
-1.000000 1.110080 0.000000 -0.943521 0.330386 -0.024747 121 121 121
-0.850649 1.557300 0.276388 -0.943521 0.330386 -0.024747 121 121 121
-0.809012 1.635818 -0.262869 -0.943521 0.330386 -0.024747 121 121 121
-0.809017 1.110080 0.587786 -0.748784 0.330388 0.574602 121 121 121
-0.499997 1.635817 0.688189 -0.748784 0.330388 0.574602 121 121 121
-0.850649 1.557300 0.276388 -0.748784 0.330388 0.574602 121 121 121
-0.809017 1.110080 0.587786 -0.577348 0.187595 0.794656 121 121 121
-0.309013 1.110080 0.951058 -0.577348 0.187595 0.794656 121 121 121
-0.499997 1.635817 0.688189 -0.577348 0.187595 0.794656 121 121 121
-0.309013 1.110080 0.951058 -0.315095 0.330385 0.889697 121 121 121
0.000000 1.557296 0.894426 -0.315095 0.330385 0.889697 121 121 121
-0.499997 1.635817 0.688189 -0.315095 0.330385 0.889697 121 121 121
0.809017 1.110080 0.587786 0.943522 0.125629 0.306569 121 121 121
1.000000 1.110080 0.000000 0.943522 0.125629 0.306569 121 121 121
0.850649 1.557300 0.276388 0.943522 0.125629 0.306569 121 121 121
0.809017 1.110080 0.587786 0.934171 -0.187597 0.303531 121 121 121
0.809012 0.584343 0.262869 0.934171 -0.187597 0.303531 121 121 121
1.000000 1.110080 0.000000 0.934171 -0.187597 0.303531 121 121 121
0.809012 0.584343 0.262869 0.943521 -0.330386 0.024747 121 121 121
0.850649 0.662861 -0.276388 0.943521 -0.330386 0.024747 121 121 121
1.000000 1.110080 0.000000 0.943521 -0.330386 0.024747 121 121 121
0.809017 1.110080 -0.587786 0.583126 0.125627 -0.802609 121 121 121
0.309013 1.110080 -0.951058 0.583126 0.125627 -0.802609 121 121 121
0.525725 1.557300 -0.723607 0.583126 0.125627 -0.802609 121 121 121
0.809017 1.110080 -0.587786 0.577348 -0.187595 -0.794656 121 121 121
0.499997 0.584344 -0.688189 0.577348 -0.187595 -0.794656 121 121 121
0.309013 1.110080 -0.951058 0.577348 -0.187595 -0.794656 121 121 121
0.499997 0.584344 -0.688189 0.315095 -0.330385 -0.889697 121 121 121
0.000000 0.662865 -0.894426 0.315095 -0.330385 -0.889697 121 121 121
0.309013 1.110080 -0.951058 0.315095 -0.330385 -0.889697 121 121 121
-0.309013 1.110080 -0.951058 -0.583126 0.125627 -0.802609 121 121 121
-0.809017 1.110080 -0.587786 -0.583126 0.125627 -0.802609 121 121 121
-0.525725 1.557300 -0.723607 -0.583126 0.125627 -0.802609 121 121 121
-0.309013 1.110080 -0.951058 -0.577348 -0.187595 -0.794656 121 121 121
-0.499997 0.584344 -0.688189 -0.577348 -0.187595 -0.794656 121 121 121
-0.809017 1.110080 -0.587786 -0.577348 -0.187595 -0.794656 121 121 121
-0.499997 0.584344 -0.688189 -0.748784 -0.330388 -0.574602 121 121 121
-0.850649 0.662861 -0.276388 -0.748784 -0.330388 -0.574602 121 121 121
-0.809017 1.110080 -0.587786 -0.748784 -0.330388 -0.574602 121 121 121
-1.000000 1.110080 0.000000 -0.943522 0.125629 0.306569 121 121 121
-0.809017 1.110080 0.587786 -0.943522 0.125629 0.306569 121 121 121
-0.850649 1.557300 0.276388 -0.943522 0.125629 0.306569 121 121 121
-1.000000 1.110080 0.000000 -0.934171 -0.187597 0.303531 121 121 121
-0.809012 0.584343 0.262869 -0.934171 -0.187597 0.303531 121 121 121
-0.809017 1.110080 0.587786 -0.934171 -0.187597 0.303531 121 121 121
-0.809012 0.584343 0.262869 -0.777865 -0.330387 0.534576 121 121 121
-0.525725 0.662861 0.723607 -0.777865 -0.330387 0.534576 121 121 121
-0.809017 1.110080 0.587786 -0.777865 -0.330387 0.534576 121 121 121
-0.309013 1.110080 0.951058 0.000000 0.125628 0.992077 121 121 121
0.309013 1.110080 0.951058 0.000000 0.125628 0.992077 121 121 121
0.000000 1.557296 0.894426 0.000000 0.125628 0.992077 121 121 121
-0.309013 1.110080 0.951058 0.000000 -0.187599 0.982246 121 121 121
0.000000 0.584344 0.850648 0.000000 -0.187599 0.982246 121 121 121
0.309013 1.110080 0.951058 0.000000 -0.187599 0.982246 121 121 121
0.000000 0.584344 0.850648 0.268032 -0.330385 0.904989 121 121 121
0.525725 0.662861 0.723607 0.268032 -0.330385 0.904989 121 121 121
0.309013 1.110080 0.951058 0.268032 -0.330385 0.904989 121 121 121
0.309011 0.259426 0.425323 0.583122 -0.661699 0.471300 121 121 121
0.809012 0.584343 0.262869 0.583122 -0.661699 0.471300 121 121 121
0.525725 0.662861 0.723607 0.583122 -0.661699 0.471300 121 121 121
0.309011 0.259426 0.425323 0.577345 -0.794658 0.187594 121 121 121
0.499995 0.259426 -0.162456 0.577345 -0.794658 0.187594 121 121 121
0.809012 0.584343 0.262869 0.577345 -0.794658 0.187594 121 121 121
0.499995 0.259426 -0.162456 0.748779 -0.661699 -0.038530 121 121 121
0.850649 0.662861 -0.276388 0.748779 -0.661699 -0.038530 121 121 121
0.809012 0.584343 0.262869 0.748779 -0.661699 -0.038530 121 121 121
0.499995 0.259426 -0.162456 0.628425 -0.661698 -0.408946 121 121 121
0.499997 0.584344 -0.688189 0.628425 -0.661698 -0.408946 121 121 121
0.850649 0.662861 -0.276388 0.628425 -0.661698 -0.408946 121 121 121
0.499995 0.259426 -0.162456 0.356821 -0.794657 -0.491119 121 121 121
0.000000 0.259429 -0.525730 0.356821 -0.794657 -0.491119 121 121 121
0.499997 0.584344 -0.688189 0.356821 -0.794657 -0.491119 121 121 121
0.000000 0.259429 -0.525730 0.194736 -0.661695 -0.724042 121 121 121
0.000000 0.662865 -0.894426 0.194736 -0.661695 -0.724042 121 121 121
0.499997 0.584344 -0.688189 0.194736 -0.661695 -0.724042 121 121 121
0.000000 0.259429 -0.525730 -0.194736 -0.661695 -0.724042 121 121 121
-0.499997 0.584344 -0.688189 -0.194736 -0.661695 -0.724042 121 121 121
0.000000 0.662865 -0.894426 -0.194736 -0.661695 -0.724042 121 121 121
0.000000 0.259429 -0.525730 -0.356821 -0.794657 -0.491119 121 121 121
-0.499995 0.259426 -0.162456 -0.356821 -0.794657 -0.491119 121 121 121
-0.499997 0.584344 -0.688189 -0.356821 -0.794657 -0.491119 121 121 121
-0.499995 0.259426 -0.162456 -0.628425 -0.661698 -0.408946 121 121 121
-0.850649 0.662861 -0.276388 -0.628425 -0.661698 -0.408946 121 121 121
-0.499997 0.584344 -0.688189 -0.628425 -0.661698 -0.408946 121 121 121
0.000000 0.584344 0.850648 0.268032 -0.661699 0.700224 121 121 121
0.309011 0.259426 0.425323 0.268032 -0.661699 0.700224 121 121 121
0.525725 0.662861 0.723607 0.268032 -0.661699 0.700224 121 121 121
0.000000 0.584344 0.850648 0.000000 -0.794656 0.607060 121 121 121
-0.309011 0.259426 0.425323 0.000000 -0.794656 0.607060 121 121 121
0.309011 0.259426 0.425323 0.000000 -0.794656 0.607060 121 121 121
-0.309011 0.259426 0.425323 0.000000 -0.943524 0.331305 121 121 121
0.000000 0.110080 0.000000 0.000000 -0.943524 0.331305 121 121 121
0.309011 0.259426 0.425323 0.000000 -0.943524 0.331305 121 121 121
-0.499995 0.259426 -0.162456 -0.748779 -0.661699 -0.038530 121 121 121
-0.809012 0.584343 0.262869 -0.748779 -0.661699 -0.038530 121 121 121
-0.850649 0.662861 -0.276388 -0.748779 -0.661699 -0.038530 121 121 121
-0.499995 0.259426 -0.162456 -0.577345 -0.794658 0.187594 121 121 121
-0.309011 0.259426 0.425323 -0.577345 -0.794658 0.187594 121 121 121
-0.809012 0.584343 0.262869 -0.577345 -0.794658 0.187594 121 121 121
-0.309011 0.259426 0.425323 -0.583122 -0.661699 0.471300 121 121 121
-0.525725 0.662861 0.723607 -0.583122 -0.661699 0.471300 121 121 121
-0.809012 0.584343 0.262869 -0.583122 -0.661699 0.471300 121 121 121
1.000000 -1.000000 1.000000 0.000000 -1.000000 0.000000 64 112 28
-1.000000 -1.000000 1.000000 0.000000 -1.000000 0.000000 64 112 28
-1.000000 -1.000000 -1.000000 0.000000 -1.000000 0.000000 64 112 28
1.000000 -1.000000 -1.000000 0.000000 -1.000000 0.000000 64 112 28
0.999999 1.000000 1.000000 -0.000000 1.000000 0.000000 64 112 28
1.000000 1.000000 -1.000000 -0.000000 1.000000 0.000000 64 112 28
-1.000000 1.000000 -1.000000 -0.000000 1.000000 0.000000 64 112 28
-1.000001 1.000000 0.999999 -0.000000 1.000000 0.000000 64 112 28
1.000000 -1.000000 1.000000 -0.000000 0.000000 1.000000 64 112 28
0.999999 1.000000 1.000000 -0.000000 0.000000 1.000000 64 112 28
-1.000001 1.000000 0.999999 -0.000000 0.000000 1.000000 64 112 28
-1.000000 -1.000000 1.000000 -0.000000 0.000000 1.000000 64 112 28
-1.000000 -1.000000 1.000000 -1.000000 -0.000000 -0.000000 64 112 28
-1.000001 1.000000 0.999999 -1.000000 -0.000000 -0.000000 64 112 28
-1.000000 1.000000 -1.000000 -1.000000 -0.000000 -0.000000 64 112 28
-1.000000 -1.000000 -1.000000 -1.000000 -0.000000 -0.000000 64 112 28
-1.000000 -1.000000 -1.000000 0.000000 -0.000000 -1.000000 64 112 28
-1.000000 1.000000 -1.000000 0.000000 -0.000000 -1.000000 64 112 28
1.000000 1.000000 -1.000000 0.000000 -0.000000 -1.000000 64 112 28
1.000000 -1.000000 -1.000000 0.000000 -0.000000 -1.000000 64 112 28
0.999999 1.000000 1.000000 1.000000 0.000000 0.000000 64 112 28
1.000000 -1.000000 1.000000 1.000000 0.000000 0.000000 64 112 28
1.000000 -1.000000 -1.000000 1.000000 0.000000 0.000000 64 112 28
1.000000 1.000000 -1.000000 1.000000 0.000000 0.000000 64 112 28
3 0 1 2
3 3 4 5
3 6 7 8
3 9 10 11
3 12 13 14
3 15 16 17
3 18 19 20
3 21 22 23
3 24 25 26
3 27 28 29
3 30 31 32
3 33 34 35
3 36 37 38
3 39 40 41
3 42 43 44
3 45 46 47
3 48 49 50
3 51 52 53
3 54 55 56
3 57 58 59
3 60 61 62
3 63 64 65
3 66 67 68
3 69 70 71
3 72 73 74
3 75 76 77
3 78 79 80
3 81 82 83
3 84 85 86
3 87 88 89
3 90 91 92
3 93 94 95
3 96 97 98
3 99 100 101
3 102 103 104
3 105 106 107
3 108 109 110
3 111 112 113
3 114 115 116
3 117 118 119
3 120 121 122
3 123 124 125
3 126 127 128
3 129 130 131
3 132 133 134
3 135 136 137
3 138 139 140
3 141 142 143
3 144 145 146
3 147 148 149
3 150 151 152
3 153 154 155
3 156 157 158
3 159 160 161
3 162 163 164
3 165 166 167
3 168 169 170
3 171 172 173
3 174 175 176
3 177 178 179
3 180 181 182
3 183 184 185
3 186 187 188
3 189 190 191
3 192 193 194
3 195 196 197
3 198 199 200
3 201 202 203
3 204 205 206
3 207 208 209
3 210 211 212
3 213 214 215
3 216 217 218
3 219 220 221
3 222 223 224
3 225 226 227
3 228 229 230
3 231 232 233
3 234 235 236
3 237 238 239
4 240 241 242 243
4 244 245 246 247
4 248 249 250 251
4 252 253 254 255
4 256 257 258 259
4 260 261 262 263
