ply
format ascii 1.0
comment Created by Blender 2.73 (sub 0) - www.blender.org, source file: '2_crates_normal.blend'
element vertex 538
property float x
property float y
property float z
property float nx
property float ny
property float nz
property uchar red
property uchar green
property uchar blue
element face 300
property list uchar uint vertex_indices
end_header
-0.611197 4.700000 0.981243 -0.934729 0.000000 0.355362 151 73 18
-1.108704 4.700000 -0.327377 -0.934729 0.000000 0.355362 151 73 18
-1.108704 3.300000 -0.327377 -0.934729 0.000000 0.355362 151 73 18
-0.611197 3.300000 0.981243 -0.934729 0.000000 0.355362 151 73 18
0.981243 4.700000 0.611197 0.355362 -0.000000 0.934729 151 73 18
-0.327377 4.700000 1.108704 0.355362 -0.000000 0.934729 151 73 18
-0.327377 3.300000 1.108704 0.355362 -0.000000 0.934729 151 73 18
0.981243 3.300000 0.611197 0.355362 0.000000 0.934729 151 73 18
0.611197 4.700000 -0.981243 0.934729 0.000000 -0.355362 151 73 18
1.108704 4.700000 0.327377 0.934729 0.000000 -0.355362 151 73 18
1.108704 3.300000 0.327377 0.934729 0.000000 -0.355362 151 73 18
0.611197 3.300000 -0.981243 0.934729 0.000000 -0.355362 151 73 18
-0.981243 4.700000 -0.611197 -0.355362 0.000000 -0.934729 151 73 18
0.327377 4.700000 -1.108704 -0.355362 0.000000 -0.934729 151 73 18
0.327377 3.300000 -1.108704 -0.355362 0.000000 -0.934729 151 73 18
-0.981243 3.300000 -0.611197 -0.355362 -0.000000 -0.934729 151 73 18
0.903064 4.920000 0.405556 -0.000000 1.000000 0.000000 151 73 18
0.405556 4.920000 -0.903064 -0.000000 1.000000 0.000000 151 73 18
-0.903064 4.920000 -0.405556 -0.000000 1.000000 0.000000 151 73 18
-0.405556 4.920000 0.903064 0.000000 1.000000 -0.000000 151 73 18
-0.405556 3.080000 0.903064 0.000000 -1.000000 0.000000 151 73 18
-0.903064 3.080000 -0.405556 0.000000 -1.000000 0.000000 151 73 18
0.405556 3.080000 -0.903064 0.000000 -1.000000 0.000000 151 73 18
0.903064 3.080000 0.405556 0.000000 -1.000000 0.000000 151 73 18
-0.685975 3.300000 1.009672 -0.934729 -0.000000 0.355362 151 73 18
-1.183482 3.300000 -0.298948 -0.934729 -0.000000 0.355362 151 73 18
-1.290091 3.000000 -0.579366 -0.934729 -0.000000 0.355362 151 73 18
-0.579366 3.000000 1.290091 -0.934729 -0.000000 0.355362 151 73 18
-0.685975 4.700000 1.009672 -0.934729 0.000000 0.355363 151 73 18
-0.685975 3.300000 1.009672 -0.934729 0.000000 0.355363 151 73 18
-0.579366 3.000000 1.290091 -0.934729 0.000000 0.355363 151 73 18
-0.579366 5.000000 1.290091 -0.934729 0.000000 0.355363 151 73 18
-1.183482 4.700000 -0.298948 -0.934729 0.000000 0.355362 151 73 18
-0.685975 4.700000 1.009672 -0.934729 0.000000 0.355362 151 73 18
-0.579366 5.000000 1.290091 -0.934729 0.000000 0.355362 151 73 18
-1.290091 5.000000 -0.579366 -0.934729 0.000000 0.355362 151 73 18
1.009672 3.300000 0.685975 0.355362 -0.000000 0.934729 151 73 18
-0.298948 3.300000 1.183482 0.355362 -0.000000 0.934729 151 73 18
-0.579366 3.000000 1.290091 0.355362 -0.000000 0.934729 151 73 18
1.290091 3.000000 0.579366 0.355362 -0.000000 0.934729 151 73 18
1.009672 4.700000 0.685975 0.355363 -0.000000 0.934729 151 73 18
1.009672 3.300000 0.685975 0.355363 -0.000000 0.934729 151 73 18
1.290091 3.000000 0.579366 0.355363 -0.000000 0.934729 151 73 18
1.290091 5.000000 0.579366 0.355363 0.000000 0.934729 151 73 18
-0.298948 4.700000 1.183482 0.355362 0.000000 0.934729 151 73 18
1.009672 4.700000 0.685975 0.355362 0.000000 0.934729 151 73 18
1.290091 5.000000 0.579366 0.355362 0.000000 0.934729 151 73 18
-0.579366 5.000000 1.290091 0.355362 0.000000 0.934729 151 73 18
0.685975 3.300000 -1.009672 0.934729 -0.000000 -0.355362 151 73 18
1.183482 3.300000 0.298948 0.934729 -0.000000 -0.355362 151 73 18
1.290091 3.000000 0.579366 0.934729 -0.000000 -0.355362 151 73 18
0.579366 3.000000 -1.290091 0.934729 -0.000000 -0.355362 151 73 18
0.685975 4.700000 -1.009672 0.934729 0.000000 -0.355363 151 73 18
0.685975 3.300000 -1.009672 0.934729 0.000000 -0.355363 151 73 18
0.579366 3.000000 -1.290091 0.934729 0.000000 -0.355363 151 73 18
0.579366 5.000000 -1.290091 0.934729 0.000000 -0.355363 151 73 18
1.183482 4.700000 0.298948 0.934729 0.000000 -0.355362 151 73 18
0.685975 4.700000 -1.009672 0.934729 0.000000 -0.355362 151 73 18
0.579366 5.000000 -1.290091 0.934729 0.000000 -0.355362 151 73 18
1.290091 5.000000 0.579366 0.934729 0.000000 -0.355362 151 73 18
-1.009672 3.300000 -0.685975 -0.355362 -0.000000 -0.934729 151 73 18
0.298948 3.300000 -1.183482 -0.355362 -0.000000 -0.934729 151 73 18
0.579366 3.000000 -1.290091 -0.355362 -0.000000 -0.934729 151 73 18
-1.290091 3.000000 -0.579366 -0.355362 -0.000000 -0.934729 151 73 18
-1.009672 4.700000 -0.685975 -0.355363 0.000000 -0.934729 151 73 18
-1.009672 3.300000 -0.685975 -0.355363 0.000000 -0.934729 151 73 18
-1.290091 3.000000 -0.579366 -0.355363 0.000000 -0.934729 151 73 18
-1.290091 5.000000 -0.579366 -0.355363 0.000000 -0.934729 151 73 18
0.298948 4.700000 -1.183482 -0.355362 0.000000 -0.934729 151 73 18
-1.009672 4.700000 -0.685975 -0.355362 0.000000 -0.934729 151 73 18
-1.290091 5.000000 -0.579366 -0.355362 0.000000 -0.934729 151 73 18
0.579366 5.000000 -1.290091 -0.355362 0.000000 -0.934729 151 73 18
-0.405556 5.000000 0.903064 0.000000 1.000000 0.000000 151 73 18
-0.903064 5.000000 -0.405556 0.000000 1.000000 0.000000 151 73 18
-1.290091 5.000000 -0.579366 0.000000 1.000000 0.000000 151 73 18
-0.579366 5.000000 1.290091 0.000000 1.000000 -0.000000 151 73 18
0.903064 5.000000 0.405556 0.000000 1.000000 0.000000 151 73 18
1.290091 5.000000 0.579366 -0.000000 1.000000 0.000000 151 73 18
0.405556 5.000000 -0.903064 0.000000 1.000000 0.000000 151 73 18
0.579366 5.000000 -1.290091 0.000000 1.000000 0.000000 151 73 18
0.903064 3.000000 0.405556 0.000000 -1.000000 0.000000 151 73 18
0.405556 3.000000 -0.903064 0.000000 -1.000000 0.000000 151 73 18
0.579366 3.000000 -1.290091 0.000000 -1.000000 0.000000 151 73 18
1.290091 3.000000 0.579366 0.000000 -1.000000 0.000000 151 73 18
-0.405556 3.000000 0.903064 -0.000000 -1.000000 0.000000 151 73 18
-0.579366 3.000000 1.290091 0.000000 -1.000000 0.000000 151 73 18
-0.903064 3.000000 -0.405556 0.000000 -1.000000 -0.000000 151 73 18
-1.290091 3.000000 -0.579366 0.000000 -1.000000 0.000000 151 73 18
-0.611197 3.300000 0.981243 -0.000000 1.000000 0.000000 151 73 18
-1.108704 3.300000 -0.327377 -0.000000 1.000000 0.000000 151 73 18
-1.183482 3.300000 -0.298948 -0.000000 1.000000 0.000000 151 73 18
-0.685975 3.300000 1.009672 0.000000 1.000000 -0.000000 151 73 18
-0.611197 4.700000 0.981243 -0.355362 0.000000 -0.934729 151 73 18
-0.611197 3.300000 0.981243 -0.355362 0.000000 -0.934729 151 73 18
-0.685975 3.300000 1.009672 -0.355362 0.000000 -0.934729 151 73 18
-0.685975 4.700000 1.009672 -0.355362 0.000000 -0.934729 151 73 18
-1.108704 4.700000 -0.327377 0.000000 -1.000000 -0.000000 151 73 18
-0.611197 4.700000 0.981243 0.000000 -1.000000 -0.000000 151 73 18
-0.685975 4.700000 1.009672 0.000000 -1.000000 -0.000000 151 73 18
-1.183482 4.700000 -0.298948 -0.000000 -1.000000 0.000000 151 73 18
-1.108704 3.300000 -0.327377 0.355362 0.000000 0.934729 151 73 18
-1.108704 4.700000 -0.327377 0.355362 0.000000 0.934729 151 73 18
-1.183482 4.700000 -0.298948 0.355362 0.000000 0.934729 151 73 18
-1.183482 3.300000 -0.298948 0.355362 0.000000 0.934729 151 73 18
0.981243 3.300000 0.611197 0.000000 1.000000 0.000000 151 73 18
-0.327377 3.300000 1.108704 0.000000 1.000000 0.000000 151 73 18
-0.298948 3.300000 1.183482 0.000000 1.000000 0.000000 151 73 18
1.009672 3.300000 0.685975 -0.000000 1.000000 0.000000 151 73 18
0.981243 4.700000 0.611197 -0.934729 0.000000 0.355362 151 73 18
0.981243 3.300000 0.611197 -0.934729 0.000000 0.355362 151 73 18
1.009672 3.300000 0.685975 -0.934729 0.000000 0.355362 151 73 18
1.009672 4.700000 0.685975 -0.934729 0.000000 0.355362 151 73 18
-0.327377 4.700000 1.108704 -0.000000 -1.000000 0.000000 151 73 18
0.981243 4.700000 0.611197 -0.000000 -1.000000 0.000000 151 73 18
1.009672 4.700000 0.685975 -0.000000 -1.000000 0.000000 151 73 18
-0.298948 4.700000 1.183482 0.000000 -1.000000 0.000000 151 73 18
-0.327377 3.300000 1.108704 0.934729 0.000000 -0.355362 151 73 18
-0.327377 4.700000 1.108704 0.934729 0.000000 -0.355362 151 73 18
-0.298948 4.700000 1.183482 0.934729 0.000000 -0.355362 151 73 18
-0.298948 3.300000 1.183482 0.934729 0.000000 -0.355362 151 73 18
0.611197 3.300000 -0.981243 0.000000 1.000000 0.000000 151 73 18
1.108704 3.300000 0.327377 0.000000 1.000000 0.000000 151 73 18
1.183482 3.300000 0.298948 0.000000 1.000000 0.000000 151 73 18
0.685975 3.300000 -1.009672 0.000000 1.000000 0.000000 151 73 18
0.611197 4.700000 -0.981243 0.355362 -0.000000 0.934729 151 73 18
0.611197 3.300000 -0.981243 0.355362 -0.000000 0.934729 151 73 18
0.685975 3.300000 -1.009672 0.355362 -0.000000 0.934729 151 73 18
0.685975 4.700000 -1.009672 0.355362 0.000000 0.934729 151 73 18
1.108704 4.700000 0.327377 0.000000 -1.000000 0.000000 151 73 18
0.611197 4.700000 -0.981243 0.000000 -1.000000 0.000000 151 73 18
0.685975 4.700000 -1.009672 0.000000 -1.000000 0.000000 151 73 18
1.183482 4.700000 0.298948 0.000000 -1.000000 0.000000 151 73 18
1.108704 3.300000 0.327377 -0.355362 -0.000000 -0.934729 151 73 18
1.108704 4.700000 0.327377 -0.355362 -0.000000 -0.934729 151 73 18
1.183482 4.700000 0.298948 -0.355362 -0.000000 -0.934729 151 73 18
1.183482 3.300000 0.298948 -0.355362 0.000000 -0.934729 151 73 18
-0.981243 3.300000 -0.611197 0.000000 1.000000 -0.000000 151 73 18
0.327377 3.300000 -1.108704 0.000000 1.000000 -0.000000 151 73 18
0.298948 3.300000 -1.183482 0.000000 1.000000 -0.000000 151 73 18
-1.009672 3.300000 -0.685975 0.000000 1.000000 0.000000 151 73 18
-0.981243 4.700000 -0.611197 0.934729 0.000000 -0.355362 151 73 18
-0.981243 3.300000 -0.611197 0.934729 0.000000 -0.355362 151 73 18
-1.009672 3.300000 -0.685975 0.934729 0.000000 -0.355362 151 73 18
-1.009672 4.700000 -0.685975 0.934729 0.000000 -0.355362 151 73 18
0.327377 4.700000 -1.108704 0.000000 -1.000000 0.000000 151 73 18
-0.981243 4.700000 -0.611197 0.000000 -1.000000 0.000000 151 73 18
-1.009672 4.700000 -0.685975 0.000000 -1.000000 0.000000 151 73 18
0.298948 4.700000 -1.183482 0.000000 -1.000000 -0.000000 151 73 18
0.327377 3.300000 -1.108704 -0.934729 0.000000 0.355362 151 73 18
0.327377 4.700000 -1.108704 -0.934729 0.000000 0.355362 151 73 18
0.298948 4.700000 -1.183482 -0.934729 0.000000 0.355362 151 73 18
0.298948 3.300000 -1.183482 -0.934729 0.000000 0.355362 151 73 18
-0.405556 4.920000 0.903064 0.934729 0.000000 -0.355362 151 73 18
-0.903064 4.920000 -0.405556 0.934729 0.000000 -0.355362 151 73 18
-0.903064 5.000000 -0.405556 0.934729 0.000000 -0.355362 151 73 18
-0.405556 5.000000 0.903064 0.934729 0.000000 -0.355362 151 73 18
0.903064 4.920000 0.405556 -0.355362 -0.000000 -0.934729 151 73 18
-0.405556 4.920000 0.903064 -0.355362 -0.000000 -0.934729 151 73 18
-0.405556 5.000000 0.903064 -0.355362 -0.000000 -0.934729 151 73 18
0.903064 5.000000 0.405556 -0.355362 0.000000 -0.934729 151 73 18
0.405556 4.920000 -0.903064 -0.934729 0.000000 0.355362 151 73 18
0.903064 4.920000 0.405556 -0.934729 0.000000 0.355362 151 73 18
0.903064 5.000000 0.405556 -0.934729 0.000000 0.355362 151 73 18
0.405556 5.000000 -0.903064 -0.934729 0.000000 0.355362 151 73 18
-0.903064 4.920000 -0.405556 0.355362 0.000000 0.934729 151 73 18
0.405556 4.920000 -0.903064 0.355362 0.000000 0.934729 151 73 18
0.405556 5.000000 -0.903064 0.355362 0.000000 0.934729 151 73 18
-0.903064 5.000000 -0.405556 0.355362 -0.000000 0.934729 151 73 18
0.903064 3.080000 0.405556 -0.934729 0.000000 0.355362 151 73 18
0.405556 3.080000 -0.903064 -0.934729 0.000000 0.355362 151 73 18
0.405556 3.000000 -0.903064 -0.934729 0.000000 0.355362 151 73 18
0.903064 3.000000 0.405556 -0.934729 0.000000 0.355362 151 73 18
-0.405556 3.080000 0.903064 -0.355362 0.000000 -0.934729 151 73 18
0.903064 3.080000 0.405556 -0.355362 0.000000 -0.934729 151 73 18
0.903064 3.000000 0.405556 -0.355362 0.000000 -0.934729 151 73 18
-0.405556 3.000000 0.903064 -0.355362 -0.000000 -0.934729 151 73 18
-0.903064 3.080000 -0.405556 0.934729 0.000000 -0.355362 151 73 18
-0.405556 3.080000 0.903064 0.934729 0.000000 -0.355362 151 73 18
-0.405556 3.000000 0.903064 0.934729 0.000000 -0.355362 151 73 18
-0.903064 3.000000 -0.405556 0.934729 0.000000 -0.355362 151 73 18
0.405556 3.080000 -0.903064 0.355362 -0.000000 0.934729 151 73 18
-0.903064 3.080000 -0.405556 0.355362 -0.000000 0.934729 151 73 18
-0.903064 3.000000 -0.405556 0.355362 -0.000000 0.934729 151 73 18
0.405556 3.000000 -0.903064 0.355362 0.000000 0.934729 151 73 18
0.987616 3.030000 0.607960 -0.409674 0.000000 0.912232 151 73 18
0.987616 3.080000 0.607960 -0.409674 0.000000 0.912232 151 73 18
-1.110518 3.080000 -0.334290 -0.409674 0.000000 0.912232 151 73 18
-1.110518 3.030000 -0.334290 -0.409674 0.000000 0.912232 151 73 18
1.110518 3.030000 0.334290 -0.000000 -1.000000 -0.000000 151 73 18
0.987616 3.030000 0.607960 -0.000000 -1.000000 -0.000000 151 73 18
-1.110518 3.030000 -0.334290 -0.000000 -1.000000 -0.000000 151 73 18
-0.987616 3.030000 -0.607960 -0.000000 -1.000000 -0.000000 151 73 18
1.110518 3.080000 0.334290 0.409674 0.000000 -0.912232 151 73 18
1.110518 3.030000 0.334290 0.409674 0.000000 -0.912232 151 73 18
-0.987616 3.030000 -0.607960 0.409674 0.000000 -0.912232 151 73 18
-0.987616 3.080000 -0.607960 0.409674 0.000000 -0.912232 151 73 18
0.514537 4.707107 -1.233350 0.660953 -0.707107 -0.251279 151 73 18
0.532305 4.707107 -1.186613 0.660953 -0.707107 -0.251279 151 73 18
-0.987886 3.080761 -0.608671 0.660953 -0.707107 -0.251279 151 73 18
-1.005654 3.080761 -0.655408 0.660952 -0.707107 -0.251281 151 73 18
0.514537 4.707107 -1.233350 0.660952 -0.707107 -0.251281 151 73 18
-0.987886 3.080761 -0.608671 0.660952 -0.707107 -0.251281 151 73 18
1.110518 3.030000 0.334290 0.912232 0.000000 0.409674 255 255 255
1.110518 3.080000 0.334290 0.912232 0.000000 0.409674 255 255 255
0.987616 3.080000 0.607960 0.912232 0.000000 0.409674 255 255 255
0.987616 3.030000 0.607960 0.912232 0.000000 0.409674 255 255 255
0.607960 4.920000 -0.987616 0.912232 0.000000 0.409674 151 73 18
0.607960 4.970000 -0.987616 0.912232 0.000000 0.409674 151 73 18
-0.334290 4.970000 1.110518 0.912232 0.000000 0.409674 151 73 18
-0.334290 4.920000 1.110518 0.912232 0.000000 0.409674 151 73 18
-0.316251 4.919239 1.157966 0.355362 0.000000 0.934729 151 73 18
-0.514537 4.707107 1.233350 0.355362 0.000000 0.934729 151 73 18
1.005654 3.080761 0.655408 0.355362 0.000000 0.934729 151 73 18
1.203940 3.292893 0.580024 0.355362 0.000000 0.934729 151 73 18
0.334290 4.970000 -1.110518 -0.912232 0.000000 -0.409674 151 73 18
0.334290 4.920000 -1.110518 -0.912232 0.000000 -0.409674 151 73 18
-0.607960 4.920000 0.987616 -0.912232 0.000000 -0.409674 151 73 18
-0.607960 4.970000 0.987616 -0.912232 0.000000 -0.409674 151 73 18
0.607960 4.970000 -0.987616 -0.000000 1.000000 0.000000 151 73 18
0.334290 4.970000 -1.110518 -0.000000 1.000000 0.000000 151 73 18
-0.607960 4.970000 0.987616 -0.000000 1.000000 0.000000 151 73 18
-0.334290 4.970000 1.110518 -0.000000 1.000000 -0.000000 151 73 18
-0.334020 4.919239 1.111229 0.660953 0.707107 -0.251279 151 73 18
-0.316251 4.919239 1.157966 0.660953 0.707107 -0.251279 151 73 18
1.203940 3.292893 0.580024 0.660953 0.707107 -0.251279 151 73 18
1.186172 3.292893 0.533287 0.660953 0.707107 -0.251278 151 73 18
-0.334020 4.919239 1.111229 0.660953 0.707107 -0.251278 151 73 18
1.203940 3.292893 0.580024 0.660953 0.707107 -0.251278 151 73 18
0.533287 4.707107 -1.186172 -0.251279 -0.707107 -0.660953 151 73 18
0.580024 4.707107 -1.203940 -0.251279 -0.707107 -0.660953 151 73 18
1.157966 3.080761 0.316251 -0.251279 -0.707107 -0.660953 151 73 18
1.111229 3.080761 0.334020 -0.251281 -0.707107 -0.660952 151 73 18
0.533287 4.707107 -1.186172 -0.251281 -0.707107 -0.660952 151 73 18
1.157966 3.080761 0.316251 -0.251281 -0.707107 -0.660952 151 73 18
1.111229 3.080761 0.334020 0.251279 -0.707107 0.660953 255 255 255
1.157966 3.080761 0.316251 0.251279 -0.707107 0.660953 255 255 255
1.233350 3.292893 0.514537 0.251279 -0.707107 0.660953 255 255 255
1.186613 3.292893 0.532305 0.251279 -0.707107 0.660953 255 255 255
0.655408 4.919239 -1.005654 0.251280 0.707107 0.660953 151 73 18
0.608671 4.919239 -0.987886 0.251280 0.707107 0.660953 151 73 18
1.186613 3.292893 0.532305 0.251280 0.707107 0.660953 151 73 18
1.233350 3.292893 0.514537 0.251278 0.707107 0.660953 151 73 18
0.655408 4.919239 -1.005654 0.251278 0.707107 0.660953 151 73 18
1.186613 3.292893 0.532305 0.251278 0.707107 0.660953 151 73 18
0.580024 4.707107 -1.203940 0.934729 0.000000 -0.355362 151 73 18
0.655408 4.919239 -1.005654 0.934729 0.000000 -0.355362 151 73 18
1.233350 3.292893 0.514537 0.934729 0.000000 -0.355362 151 73 18
1.157966 3.080761 0.316251 0.934729 -0.000000 -0.355362 151 73 18
0.334020 4.919239 -1.111229 -0.660953 0.707107 0.251279 151 73 18
0.316251 4.919239 -1.157966 -0.660953 0.707107 0.251279 151 73 18
-1.203940 3.292893 -0.580024 -0.660953 0.707107 0.251279 151 73 18
-1.186172 3.292893 -0.533287 -0.660953 0.707107 0.251278 151 73 18
0.334020 4.919239 -1.111229 -0.660953 0.707107 0.251278 151 73 18
-1.203940 3.292893 -0.580024 -0.660953 0.707107 0.251278 151 73 18
-0.655408 4.919239 1.005654 -0.251279 0.707107 -0.660953 151 73 18
-0.608671 4.919239 0.987886 -0.251279 0.707107 -0.660953 151 73 18
-1.186613 3.292893 -0.532305 -0.251279 0.707107 -0.660953 151 73 18
-1.233350 3.292893 -0.514537 -0.251278 0.707107 -0.660953 151 73 18
-0.655408 4.919239 1.005654 -0.251278 0.707107 -0.660953 151 73 18
-1.186613 3.292893 -0.532305 -0.251278 0.707107 -0.660953 151 73 18
-0.580024 4.707107 1.203940 -0.934729 -0.000000 0.355362 151 73 18
-0.655408 4.919239 1.005654 -0.934729 -0.000000 0.355362 151 73 18
-1.233350 3.292893 -0.514537 -0.934729 -0.000000 0.355362 151 73 18
-1.157966 3.080761 -0.316251 -0.934729 -0.000000 0.355362 151 73 18
-0.533287 4.707107 1.186172 0.251279 -0.707107 0.660953 151 73 18
-0.580024 4.707107 1.203940 0.251279 -0.707107 0.660953 151 73 18
-1.157966 3.080761 -0.316251 0.251279 -0.707107 0.660953 151 73 18
-1.111229 3.080761 -0.334020 0.251281 -0.707107 0.660952 151 73 18
-0.533287 4.707107 1.186172 0.251281 -0.707107 0.660952 151 73 18
-1.157966 3.080761 -0.316251 0.251281 -0.707107 0.660952 151 73 18
0.316251 4.919239 -1.157966 -0.355362 0.000000 -0.934729 151 73 18
0.514537 4.707107 -1.233350 -0.355362 0.000000 -0.934729 151 73 18
-1.005654 3.080761 -0.655408 -0.355362 0.000000 -0.934729 151 73 18
-1.203940 3.292893 -0.580024 -0.355362 0.000000 -0.934729 151 73 18
1.005654 3.080761 0.655408 0.660953 -0.707107 -0.251280 255 255 255
0.987886 3.080761 0.608671 0.660953 -0.707107 -0.251280 255 255 255
1.186172 3.292893 0.533287 0.660953 -0.707107 -0.251280 255 255 255
1.203940 3.292893 0.580024 0.660953 -0.707107 -0.251279 255 255 255
1.005654 3.080761 0.655408 0.660953 -0.707107 -0.251279 255 255 255
1.186172 3.292893 0.533287 0.660953 -0.707107 -0.251279 255 255 255
-0.514537 4.707107 1.233350 -0.660953 -0.707107 0.251279 151 73 18
-0.532305 4.707107 1.186613 -0.660953 -0.707107 0.251279 151 73 18
0.987886 3.080761 0.608671 -0.660953 -0.707107 0.251279 151 73 18
1.005654 3.080761 0.655408 -0.660952 -0.707107 0.251281 151 73 18
-0.514537 4.707107 1.233350 -0.660952 -0.707107 0.251281 151 73 18
0.987886 3.080761 0.608671 -0.660952 -0.707107 0.251281 151 73 18
-0.920000 2.700000 0.700000 -1.000000 0.000000 0.000000 151 73 18
-0.920000 2.700000 -0.700000 -1.000000 0.000000 0.000000 151 73 18
-0.920000 1.300000 -0.700000 -1.000000 0.000000 0.000000 151 73 18
-0.920000 1.300000 0.700000 -1.000000 0.000000 0.000000 151 73 18
0.700000 2.700000 0.920000 0.000000 0.000000 1.000000 151 73 18
-0.700000 2.700000 0.920000 0.000000 0.000000 1.000000 151 73 18
-0.700000 1.300000 0.920000 0.000000 0.000000 1.000000 151 73 18
0.700000 1.300000 0.920000 -0.000000 0.000000 1.000000 151 73 18
0.920000 2.700000 -0.700000 1.000000 -0.000000 0.000000 151 73 18
0.920000 2.700000 0.700000 1.000000 -0.000000 0.000000 151 73 18
0.920000 1.300000 0.700000 1.000000 -0.000000 0.000000 151 73 18
0.920000 1.300000 -0.700000 1.000000 0.000000 0.000000 151 73 18
-0.700000 2.700000 -0.920000 0.000000 0.000000 -1.000000 151 73 18
0.700000 2.700000 -0.920000 0.000000 0.000000 -1.000000 151 73 18
0.700000 1.300000 -0.920000 0.000000 0.000000 -1.000000 151 73 18
-0.700000 1.300000 -0.920000 -0.000000 -0.000000 -1.000000 151 73 18
0.700000 2.920000 0.700000 0.000000 1.000000 0.000000 151 73 18
0.700000 2.920000 -0.700000 0.000000 1.000000 0.000000 151 73 18
-0.700000 2.920000 -0.700000 0.000000 1.000000 0.000000 151 73 18
-0.700000 2.920000 0.700000 0.000000 1.000000 -0.000000 151 73 18
-0.700000 1.080000 0.700000 0.000000 -1.000000 0.000000 151 73 18
-0.700000 1.080000 -0.700000 0.000000 -1.000000 0.000000 151 73 18
0.700000 1.080000 -0.700000 0.000000 -1.000000 0.000000 151 73 18
0.700000 1.080000 0.700000 0.000000 -1.000000 0.000000 151 73 18
-1.000000 1.300000 0.700000 -1.000000 0.000000 0.000000 151 73 18
-1.000000 1.300000 -0.700000 -1.000000 0.000000 0.000000 151 73 18
-1.000000 1.000000 -1.000000 -1.000000 0.000000 0.000000 151 73 18
-1.000000 1.000000 1.000000 -1.000000 0.000000 0.000000 151 73 18
-1.000000 2.700000 0.700000 -1.000000 0.000000 0.000000 151 73 18
-1.000000 3.000000 1.000000 -1.000000 0.000000 0.000000 151 73 18
-1.000000 2.700000 -0.700000 -1.000000 0.000000 -0.000000 151 73 18
-1.000000 3.000000 -1.000000 -1.000000 0.000000 -0.000000 151 73 18
0.700000 1.300000 1.000000 0.000000 0.000000 1.000000 151 73 18
-0.700000 1.300000 1.000000 0.000000 0.000000 1.000000 151 73 18
-1.000000 1.000000 1.000000 0.000000 0.000000 1.000000 151 73 18
1.000000 1.000000 1.000000 -0.000000 0.000000 1.000000 151 73 18
0.700000 2.700000 1.000000 0.000000 -0.000000 1.000000 151 73 18
1.000000 3.000000 1.000000 0.000000 -0.000000 1.000000 151 73 18
-0.700000 2.700000 1.000000 0.000000 0.000000 1.000000 151 73 18
-1.000000 3.000000 1.000000 0.000000 0.000000 1.000000 151 73 18
1.000000 1.300000 -0.700000 1.000000 0.000000 0.000000 151 73 18
1.000000 1.300000 0.700000 1.000000 0.000000 0.000000 151 73 18
1.000000 1.000000 1.000000 1.000000 0.000000 0.000000 151 73 18
1.000000 1.000000 -1.000000 1.000000 0.000000 0.000000 151 73 18
1.000000 2.700000 -0.700000 1.000000 0.000000 0.000000 151 73 18
1.000000 3.000000 -1.000000 1.000000 -0.000000 0.000000 151 73 18
1.000000 2.700000 0.700000 1.000000 0.000000 -0.000000 151 73 18
1.000000 3.000000 1.000000 1.000000 0.000000 -0.000000 151 73 18
-0.700000 1.300000 -1.000000 0.000000 0.000000 -1.000000 151 73 18
0.700000 1.300000 -1.000000 0.000000 0.000000 -1.000000 151 73 18
1.000000 1.000000 -1.000000 0.000000 0.000000 -1.000000 151 73 18
-1.000000 1.000000 -1.000000 -0.000000 0.000000 -1.000000 151 73 18
-0.700000 2.700000 -1.000000 0.000000 0.000000 -1.000000 151 73 18
-1.000000 3.000000 -1.000000 0.000000 0.000000 -1.000000 151 73 18
0.700000 2.700000 -1.000000 0.000000 0.000000 -1.000000 151 73 18
1.000000 3.000000 -1.000000 0.000000 0.000000 -1.000000 151 73 18
-0.700000 3.000000 0.700000 0.000000 1.000000 0.000000 151 73 18
-0.700000 3.000000 -0.700000 0.000000 1.000000 0.000000 151 73 18
-1.000000 3.000000 -1.000000 0.000000 1.000000 0.000000 151 73 18
-1.000000 3.000000 1.000000 0.000000 1.000000 -0.000000 151 73 18
0.700000 3.000000 0.700000 -0.000000 1.000000 0.000000 151 73 18
1.000000 3.000000 1.000000 -0.000000 1.000000 0.000000 151 73 18
0.700000 3.000000 -0.700000 0.000000 1.000000 0.000000 151 73 18
1.000000 3.000000 -1.000000 0.000000 1.000000 0.000000 151 73 18
0.700000 1.000000 0.700000 0.000000 -1.000000 0.000000 151 73 18
0.700000 1.000000 -0.700000 0.000000 -1.000000 0.000000 151 73 18
1.000000 1.000000 -1.000000 0.000000 -1.000000 0.000000 151 73 18
1.000000 1.000000 1.000000 0.000000 -1.000000 0.000000 151 73 18
-0.700000 1.000000 0.700000 -0.000000 -1.000000 0.000000 151 73 18
-1.000000 1.000000 1.000000 -0.000000 -1.000000 0.000000 151 73 18
-0.700000 1.000000 -0.700000 0.000000 -1.000000 0.000000 151 73 18
-1.000000 1.000000 -1.000000 0.000000 -1.000000 -0.000000 151 73 18
-0.920000 1.300000 0.700000 0.000000 1.000000 0.000000 151 73 18
-0.920000 1.300000 -0.700000 0.000000 1.000000 0.000000 151 73 18
-1.000000 1.300000 -0.700000 0.000000 1.000000 0.000000 151 73 18
-1.000000 1.300000 0.700000 0.000000 1.000000 -0.000000 151 73 18
-0.920000 2.700000 0.700000 0.000000 0.000000 -1.000000 151 73 18
-0.920000 1.300000 0.700000 0.000000 0.000000 -1.000000 151 73 18
-1.000000 1.300000 0.700000 0.000000 0.000000 -1.000000 151 73 18
-1.000000 2.700000 0.700000 0.000000 0.000000 -1.000000 151 73 18
-0.920000 2.700000 -0.700000 0.000000 -1.000000 0.000000 151 73 18
-0.920000 2.700000 0.700000 0.000000 -1.000000 0.000000 151 73 18
-1.000000 2.700000 0.700000 0.000000 -1.000000 0.000000 151 73 18
-1.000000 2.700000 -0.700000 -0.000000 -1.000000 -0.000000 151 73 18
-0.920000 1.300000 -0.700000 -0.000000 0.000000 1.000000 151 73 18
-0.920000 2.700000 -0.700000 -0.000000 0.000000 1.000000 151 73 18
-1.000000 2.700000 -0.700000 -0.000000 0.000000 1.000000 151 73 18
-1.000000 1.300000 -0.700000 0.000000 0.000000 1.000000 151 73 18
0.700000 1.300000 0.920000 -0.000000 1.000000 0.000000 151 73 18
-0.700000 1.300000 0.920000 -0.000000 1.000000 0.000000 151 73 18
-0.700000 1.300000 1.000000 -0.000000 1.000000 0.000000 151 73 18
0.700000 1.300000 1.000000 -0.000000 1.000000 0.000000 151 73 18
0.700000 2.700000 0.920000 -1.000000 0.000000 0.000000 151 73 18
0.700000 1.300000 0.920000 -1.000000 0.000000 0.000000 151 73 18
0.700000 1.300000 1.000000 -1.000000 0.000000 0.000000 151 73 18
0.700000 2.700000 1.000000 -1.000000 0.000000 0.000000 151 73 18
-0.700000 2.700000 0.920000 -0.000000 -1.000000 -0.000000 151 73 18
0.700000 2.700000 0.920000 -0.000000 -1.000000 -0.000000 151 73 18
0.700000 2.700000 1.000000 -0.000000 -1.000000 -0.000000 151 73 18
-0.700000 2.700000 1.000000 -0.000000 -1.000000 0.000000 151 73 18
-0.700000 1.300000 0.920000 1.000000 0.000000 0.000000 151 73 18
-0.700000 2.700000 0.920000 1.000000 0.000000 0.000000 151 73 18
-0.700000 2.700000 1.000000 1.000000 0.000000 0.000000 151 73 18
-0.700000 1.300000 1.000000 1.000000 0.000000 -0.000000 151 73 18
0.920000 1.300000 -0.700000 0.000000 1.000000 0.000000 151 73 18
0.920000 1.300000 0.700000 0.000000 1.000000 0.000000 151 73 18
1.000000 1.300000 0.700000 0.000000 1.000000 0.000000 151 73 18
1.000000 1.300000 -0.700000 -0.000000 1.000000 0.000000 151 73 18
0.920000 2.700000 -0.700000 0.000000 -0.000000 1.000000 151 73 18
0.920000 1.300000 -0.700000 0.000000 -0.000000 1.000000 151 73 18
1.000000 1.300000 -0.700000 0.000000 -0.000000 1.000000 151 73 18
1.000000 2.700000 -0.700000 0.000000 -0.000000 1.000000 151 73 18
0.920000 2.700000 0.700000 0.000000 -1.000000 0.000000 151 73 18
0.920000 2.700000 -0.700000 0.000000 -1.000000 0.000000 151 73 18
1.000000 2.700000 -0.700000 0.000000 -1.000000 0.000000 151 73 18
1.000000 2.700000 0.700000 0.000000 -1.000000 0.000000 151 73 18
0.920000 1.300000 0.700000 -0.000000 -0.000000 -1.000000 151 73 18
0.920000 2.700000 0.700000 -0.000000 -0.000000 -1.000000 151 73 18
1.000000 2.700000 0.700000 -0.000000 -0.000000 -1.000000 151 73 18
1.000000 1.300000 0.700000 0.000000 -0.000000 -1.000000 151 73 18
-0.700000 1.300000 -0.920000 0.000000 1.000000 -0.000000 151 73 18
0.700000 1.300000 -0.920000 0.000000 1.000000 -0.000000 151 73 18
0.700000 1.300000 -1.000000 0.000000 1.000000 -0.000000 151 73 18
-0.700000 1.300000 -1.000000 0.000000 1.000000 0.000000 151 73 18
-0.700000 2.700000 -0.920000 1.000000 0.000000 0.000000 151 73 18
-0.700000 1.300000 -0.920000 1.000000 0.000000 0.000000 151 73 18
-0.700000 1.300000 -1.000000 1.000000 0.000000 0.000000 151 73 18
-0.700000 2.700000 -1.000000 1.000000 -0.000000 0.000000 151 73 18
0.700000 2.700000 -0.920000 0.000000 -1.000000 0.000000 151 73 18
-0.700000 2.700000 -0.920000 0.000000 -1.000000 0.000000 151 73 18
-0.700000 2.700000 -1.000000 0.000000 -1.000000 0.000000 151 73 18
0.700000 2.700000 -1.000000 0.000000 -1.000000 0.000000 151 73 18
0.700000 1.300000 -0.920000 -1.000000 0.000000 0.000000 151 73 18
0.700000 2.700000 -0.920000 -1.000000 0.000000 0.000000 151 73 18
0.700000 2.700000 -1.000000 -1.000000 0.000000 0.000000 151 73 18
0.700000 1.300000 -1.000000 -1.000000 -0.000000 -0.000000 151 73 18
-0.700000 2.920000 0.700000 1.000000 0.000000 -0.000000 151 73 18
-0.700000 2.920000 -0.700000 1.000000 0.000000 -0.000000 151 73 18
-0.700000 3.000000 -0.700000 1.000000 0.000000 -0.000000 151 73 18
-0.700000 3.000000 0.700000 1.000000 0.000000 -0.000000 151 73 18
0.700000 2.920000 0.700000 0.000000 0.000000 -1.000000 151 73 18
-0.700000 2.920000 0.700000 0.000000 0.000000 -1.000000 151 73 18
-0.700000 3.000000 0.700000 0.000000 0.000000 -1.000000 151 73 18
0.700000 3.000000 0.700000 0.000000 0.000000 -1.000000 151 73 18
0.700000 2.920000 -0.700000 -1.000000 -0.000000 -0.000000 151 73 18
0.700000 2.920000 0.700000 -1.000000 -0.000000 -0.000000 151 73 18
0.700000 3.000000 0.700000 -1.000000 -0.000000 -0.000000 151 73 18
0.700000 3.000000 -0.700000 -1.000000 0.000000 -0.000000 151 73 18
-0.700000 2.920000 -0.700000 0.000000 0.000000 1.000000 151 73 18
0.700000 2.920000 -0.700000 0.000000 0.000000 1.000000 151 73 18
0.700000 3.000000 -0.700000 0.000000 0.000000 1.000000 151 73 18
-0.700000 3.000000 -0.700000 0.000000 -0.000000 1.000000 151 73 18
0.700000 1.080000 0.700000 -1.000000 0.000000 0.000000 151 73 18
0.700000 1.080000 -0.700000 -1.000000 0.000000 0.000000 151 73 18
0.700000 1.000000 -0.700000 -1.000000 0.000000 0.000000 151 73 18
0.700000 1.000000 0.700000 -1.000000 0.000000 0.000000 151 73 18
-0.700000 1.080000 0.700000 0.000000 0.000000 -1.000000 151 73 18
0.700000 1.080000 0.700000 0.000000 0.000000 -1.000000 151 73 18
0.700000 1.000000 0.700000 0.000000 0.000000 -1.000000 151 73 18
-0.700000 1.000000 0.700000 -0.000000 -0.000000 -1.000000 151 73 18
-0.700000 1.080000 -0.700000 1.000000 -0.000000 0.000000 151 73 18
-0.700000 1.080000 0.700000 1.000000 -0.000000 0.000000 151 73 18
-0.700000 1.000000 0.700000 1.000000 -0.000000 0.000000 151 73 18
-0.700000 1.000000 -0.700000 1.000000 0.000000 0.000000 151 73 18
0.700000 1.080000 -0.700000 0.000000 0.000000 1.000000 151 73 18
-0.700000 1.080000 -0.700000 0.000000 0.000000 1.000000 151 73 18
-0.700000 1.000000 -0.700000 0.000000 0.000000 1.000000 151 73 18
0.700000 1.000000 -0.700000 -0.000000 0.000000 1.000000 151 73 18
0.707107 1.030000 0.919239 -0.707107 0.000000 0.707107 151 73 18
0.707107 1.080000 0.919239 -0.707107 0.000000 0.707107 151 73 18
-0.919239 1.080000 -0.707107 -0.707107 0.000000 0.707107 151 73 18
-0.919239 1.030000 -0.707107 -0.707107 0.000000 0.707107 151 73 18
0.919239 1.030000 0.707107 -0.000000 -1.000000 -0.000000 151 73 18
0.707107 1.030000 0.919239 -0.000000 -1.000000 -0.000000 151 73 18
-0.919239 1.030000 -0.707107 -0.000000 -1.000000 -0.000000 151 73 18
-0.707107 1.030000 -0.919239 -0.000000 -1.000000 -0.000000 151 73 18
0.919239 1.080000 0.707107 0.707107 0.000000 -0.707107 151 73 18
0.919239 1.030000 0.707107 0.707107 0.000000 -0.707107 151 73 18
-0.707107 1.030000 -0.919239 0.707107 0.000000 -0.707107 151 73 18
-0.707107 1.080000 -0.919239 0.707107 0.000000 -0.707107 151 73 18
0.919239 2.707107 -0.970000 0.707107 -0.707107 0.000000 151 73 18
0.919239 2.707107 -0.920000 0.707107 -0.707107 0.000000 151 73 18
-0.707107 1.080761 -0.920000 0.707107 -0.707107 0.000000 151 73 18
-0.707107 1.080761 -0.970000 0.707107 -0.707107 0.000000 151 73 18
0.919239 1.030000 0.707107 0.707107 0.000000 0.707107 255 255 255
0.919239 1.080000 0.707107 0.707107 0.000000 0.707107 255 255 255
0.707107 1.080000 0.919239 0.707107 0.000000 0.707107 255 255 255
0.707107 1.030000 0.919239 0.707107 0.000000 0.707107 255 255 255
0.919239 2.920000 -0.707107 0.707107 0.000000 0.707107 151 73 18
0.919239 2.970000 -0.707107 0.707107 0.000000 0.707107 151 73 18
-0.707107 2.970000 0.919239 0.707107 0.000000 0.707107 151 73 18
-0.707107 2.920000 0.919239 0.707107 0.000000 0.707107 151 73 18
-0.707107 2.919239 0.970000 0.000000 -0.000000 1.000000 151 73 18
-0.919239 2.707107 0.970000 0.000000 -0.000000 1.000000 151 73 18
0.707107 1.080761 0.970000 0.000000 -0.000000 1.000000 151 73 18
0.919239 1.292893 0.970000 -0.000000 -0.000000 1.000000 151 73 18
0.707107 2.970000 -0.919239 -0.707107 0.000000 -0.707107 151 73 18
0.707107 2.920000 -0.919239 -0.707107 0.000000 -0.707107 151 73 18
-0.919239 2.920000 0.707107 -0.707107 0.000000 -0.707107 151 73 18
-0.919239 2.970000 0.707107 -0.707107 0.000000 -0.707107 151 73 18
0.919239 2.970000 -0.707107 -0.000000 1.000000 0.000000 151 73 18
0.707107 2.970000 -0.919239 -0.000000 1.000000 0.000000 151 73 18
-0.919239 2.970000 0.707107 -0.000000 1.000000 0.000000 151 73 18
-0.707107 2.970000 0.919239 -0.000000 1.000000 -0.000000 151 73 18
-0.707107 2.919239 0.920000 0.707107 0.707107 0.000000 151 73 18
-0.707107 2.919239 0.970000 0.707107 0.707107 0.000000 151 73 18
0.919239 1.292893 0.970000 0.707107 0.707107 0.000000 151 73 18
0.919239 1.292893 0.920000 0.707107 0.707107 0.000000 151 73 18
0.920000 2.707107 -0.919239 -0.000000 -0.707107 -0.707107 151 73 18
0.970000 2.707107 -0.919239 -0.000000 -0.707107 -0.707107 151 73 18
0.970000 1.080761 0.707107 -0.000000 -0.707107 -0.707107 151 73 18
0.920000 1.080761 0.707107 0.000000 -0.707107 -0.707107 151 73 18
0.920000 1.080761 0.707107 0.000000 -0.707107 0.707107 255 255 255
0.970000 1.080761 0.707107 0.000000 -0.707107 0.707107 255 255 255
0.970000 1.292893 0.919239 0.000000 -0.707107 0.707107 255 255 255
0.920000 1.292893 0.919239 0.000000 -0.707107 0.707107 255 255 255
0.970000 2.919239 -0.707107 -0.000000 0.707107 0.707107 151 73 18
0.920000 2.919239 -0.707107 -0.000000 0.707107 0.707107 151 73 18
0.920000 1.292893 0.919239 -0.000000 0.707107 0.707107 151 73 18
0.970000 1.292893 0.919239 0.000000 0.707107 0.707107 151 73 18
0.970000 2.707107 -0.919239 1.000000 0.000000 0.000000 151 73 18
0.970000 2.919239 -0.707107 1.000000 0.000000 0.000000 151 73 18
0.970000 1.292893 0.919239 1.000000 0.000000 0.000000 151 73 18
0.970000 1.080761 0.707107 1.000000 0.000000 0.000000 151 73 18
0.707107 2.919239 -0.920000 -0.707107 0.707107 0.000000 151 73 18
0.707107 2.919239 -0.970000 -0.707107 0.707107 0.000000 151 73 18
-0.919239 1.292893 -0.970000 -0.707107 0.707107 0.000000 151 73 18
-0.919239 1.292893 -0.920000 -0.707107 0.707107 0.000000 151 73 18
-0.970000 2.919239 0.707107 0.000000 0.707107 -0.707107 151 73 18
-0.920000 2.919239 0.707107 0.000000 0.707107 -0.707107 151 73 18
-0.920000 1.292893 -0.919239 0.000000 0.707107 -0.707107 151 73 18
-0.970000 1.292893 -0.919239 0.000000 0.707107 -0.707107 151 73 18
-0.970000 2.707107 0.919239 -1.000000 -0.000000 -0.000000 151 73 18
-0.970000 2.919239 0.707107 -1.000000 -0.000000 -0.000000 151 73 18
-0.970000 1.292893 -0.919239 -1.000000 -0.000000 -0.000000 151 73 18
-0.970000 1.080761 -0.707107 -1.000000 -0.000000 -0.000000 151 73 18
-0.920000 2.707107 0.919239 0.000000 -0.707107 0.707107 151 73 18
-0.970000 2.707107 0.919239 0.000000 -0.707107 0.707107 151 73 18
-0.970000 1.080761 -0.707107 0.000000 -0.707107 0.707107 151 73 18
-0.920000 1.080761 -0.707107 0.000000 -0.707107 0.707107 151 73 18
0.707107 2.919239 -0.970000 0.000000 0.000000 -1.000000 151 73 18
0.919239 2.707107 -0.970000 0.000000 0.000000 -1.000000 151 73 18
-0.707107 1.080761 -0.970000 0.000000 0.000000 -1.000000 151 73 18
-0.919239 1.292893 -0.970000 -0.000000 0.000000 -1.000000 151 73 18
0.707107 1.080761 0.970000 0.707107 -0.707107 0.000000 255 255 255
0.707107 1.080761 0.920000 0.707107 -0.707107 0.000000 255 255 255
0.919239 1.292893 0.920000 0.707107 -0.707107 0.000000 255 255 255
0.919239 1.292893 0.970000 0.707107 -0.707107 0.000000 255 255 255
-0.919239 2.707107 0.970000 -0.707107 -0.707107 0.000000 151 73 18
-0.919239 2.707107 0.920000 -0.707107 -0.707107 0.000000 151 73 18
0.707107 1.080761 0.920000 -0.707107 -0.707107 0.000000 151 73 18
0.707107 1.080761 0.970000 -0.707107 -0.707107 0.000000 151 73 18
3 0 1 2
3 3 0 2
3 4 5 6
3 7 4 6
3 8 9 10
3 11 8 10
3 12 13 14
3 15 12 14
3 16 17 18
3 19 16 18
3 20 21 22
3 23 20 22
3 24 25 26
3 27 24 26
3 28 29 30
3 31 28 30
3 32 33 34
3 35 32 34
3 25 32 35
3 26 25 35
3 36 37 38
3 39 36 38
3 40 41 42
3 43 40 42
3 44 45 46
3 47 44 46
3 37 44 47
3 38 37 47
3 48 49 50
3 51 48 50
3 52 53 54
3 55 52 54
3 56 57 58
3 59 56 58
3 49 56 59
3 50 49 59
3 60 61 62
3 63 60 62
3 64 65 66
3 67 64 66
3 68 69 70
3 71 68 70
3 61 68 71
3 62 61 71
3 72 73 74
3 75 72 74
3 76 72 75
3 77 76 75
3 78 76 77
3 79 78 77
3 73 78 79
3 74 73 79
3 80 81 82
3 83 80 82
3 84 80 83
3 85 84 83
3 86 84 85
3 87 86 85
3 87 81 86
3 87 82 81
3 88 89 90
3 91 88 90
3 92 93 94
3 95 92 94
3 96 97 98
3 99 96 98
3 100 101 102
3 103 100 102
3 104 105 106
3 107 104 106
3 108 109 110
3 111 108 110
3 112 113 114
3 115 112 114
3 116 117 118
3 119 116 118
3 120 121 122
3 123 120 122
3 124 125 126
3 127 124 126
3 128 129 130
3 131 128 130
3 132 133 134
3 135 132 134
3 136 137 138
3 139 136 138
3 140 141 142
3 143 140 142
3 144 145 146
3 147 144 146
3 148 149 150
3 151 148 150
3 152 153 154
3 155 152 154
3 156 157 158
3 159 156 158
3 160 161 162
3 163 160 162
3 164 165 166
3 167 164 166
3 168 169 170
3 171 168 170
3 172 173 174
3 175 172 174
3 176 177 178
3 179 176 178
3 180 181 182
3 183 180 182
3 184 185 186
3 187 184 186
3 188 189 190
3 191 188 190
3 192 193 194
3 195 192 194
3 196 197 198
3 199 200 201
3 202 203 204
3 205 202 204
3 206 207 208
3 209 206 208
3 210 211 212
3 213 210 212
3 214 215 216
3 217 214 216
3 218 219 220
3 221 218 220
3 222 223 224
3 225 226 227
3 228 229 230
3 231 232 233
3 234 235 236
3 237 234 236
3 238 239 240
3 241 242 243
3 244 245 246
3 247 244 246
3 248 249 250
3 251 252 253
3 254 255 256
3 257 258 259
3 260 261 262
3 263 260 262
3 264 265 266
3 267 268 269
3 270 271 272
3 273 270 272
3 274 275 276
3 277 278 279
3 280 281 282
3 283 284 285
3 286 287 288
3 289 286 288
3 290 291 292
3 293 290 292
3 294 295 296
3 297 294 296
3 298 299 300
3 301 298 300
3 302 303 304
3 305 302 304
3 306 307 308
3 309 306 308
3 310 311 312
3 313 310 312
3 314 310 313
3 315 314 313
3 316 314 315
3 317 316 315
3 311 316 317
3 312 311 317
3 318 319 320
3 321 318 320
3 322 318 321
3 323 322 321
3 324 322 323
3 325 324 323
3 319 324 325
3 320 319 325
3 326 327 328
3 329 326 328
3 330 326 329
3 331 330 329
3 332 330 331
3 333 332 331
3 327 332 333
3 328 327 333
3 334 335 336
3 337 334 336
3 338 334 337
3 339 338 337
3 340 338 339
3 341 340 339
3 335 340 341
3 336 335 341
3 342 343 344
3 345 342 344
3 346 342 345
3 347 346 345
3 348 346 347
3 349 348 347
3 343 348 349
3 344 343 349
3 350 351 352
3 353 350 352
3 354 350 353
3 355 354 353
3 356 354 355
3 357 356 355
3 357 351 356
3 357 352 351
3 358 359 360
3 361 358 360
3 362 363 364
3 365 362 364
3 366 367 368
3 369 366 368
3 370 371 372
3 373 370 372
3 374 375 376
3 377 374 376
3 378 379 380
3 381 378 380
3 382 383 384
3 385 382 384
3 386 387 388
3 389 386 388
3 390 391 392
3 393 390 392
3 394 395 396
3 397 394 396
3 398 399 400
3 401 398 400
3 402 403 404
3 405 402 404
3 406 407 408
3 409 406 408
3 410 411 412
3 413 410 412
3 414 415 416
3 417 414 416
3 418 419 420
3 421 418 420
3 422 423 424
3 425 422 424
3 426 427 428
3 429 426 428
3 430 431 432
3 433 430 432
3 434 435 436
3 437 434 436
3 438 439 440
3 441 438 440
3 442 443 444
3 445 442 444
3 446 447 448
3 449 446 448
3 450 451 452
3 453 450 452
3 454 455 456
3 457 454 456
3 458 459 460
3 461 458 460
3 462 463 464
3 465 462 464
3 466 467 468
3 469 466 468
3 470 471 472
3 473 470 472
3 474 475 476
3 477 474 476
3 478 479 480
3 481 478 480
3 482 483 484
3 485 482 484
3 486 487 488
3 489 486 488
3 490 491 492
3 493 490 492
3 494 495 496
3 497 494 496
3 498 499 500
3 501 498 500
3 502 503 504
3 505 502 504
3 506 507 508
3 509 506 508
3 510 511 512
3 513 510 512
3 514 515 516
3 517 514 516
3 518 519 520
3 521 518 520
3 522 523 524
3 525 522 524
3 526 527 528
3 529 526 528
3 530 531 532
3 533 530 532
3 534 535 536
3 537 534 536
