ply
format ascii 1.0
comment Created by Blender 2.73 (sub 0) - www.blender.org, source file: '2_crates_normal.blend'
element vertex 504
property float x
property float y
property float z
property float nx
property float ny
property float nz
property uchar red
property uchar green
property uchar blue
element face 300
property list uchar uint vertex_indices
end_header
-0.920000 4.700000 0.700000 -1.000000 0.000000 0.000000 151 73 18
-0.920000 4.700000 -0.700000 -1.000000 0.000000 0.000000 151 73 18
-0.920000 3.300000 -0.700000 -1.000000 0.000000 0.000000 151 73 18
-0.920000 3.300000 0.700000 -1.000000 0.000000 0.000000 151 73 18
0.700000 4.700000 0.920000 0.000000 0.000000 1.000000 151 73 18
-0.700000 4.700000 0.920000 0.000000 0.000000 1.000000 151 73 18
-0.700000 3.300000 0.920000 0.000000 0.000000 1.000000 151 73 18
0.700000 3.300000 0.920000 -0.000000 0.000000 1.000000 151 73 18
0.920000 4.700000 -0.700000 1.000000 -0.000000 0.000000 151 73 18
0.920000 4.700000 0.700000 1.000000 -0.000000 0.000000 151 73 18
0.920000 3.300000 0.700000 1.000000 -0.000000 0.000000 151 73 18
0.920000 3.300000 -0.700000 1.000000 0.000000 0.000000 151 73 18
-0.700000 4.700000 -0.920000 0.000000 0.000000 -1.000000 151 73 18
0.700000 4.700000 -0.920000 0.000000 0.000000 -1.000000 151 73 18
0.700000 3.300000 -0.920000 0.000000 0.000000 -1.000000 151 73 18
-0.700000 3.300000 -0.920000 -0.000000 -0.000000 -1.000000 151 73 18
0.700000 4.920000 0.700000 0.000000 1.000000 0.000000 151 73 18
0.700000 4.920000 -0.700000 0.000000 1.000000 0.000000 151 73 18
-0.700000 4.920000 -0.700000 0.000000 1.000000 0.000000 151 73 18
-0.700000 4.920000 0.700000 0.000000 1.000000 -0.000000 151 73 18
-0.700000 3.080000 0.700000 0.000000 -1.000000 0.000000 151 73 18
-0.700000 3.080000 -0.700000 0.000000 -1.000000 0.000000 151 73 18
0.700000 3.080000 -0.700000 0.000000 -1.000000 0.000000 151 73 18
0.700000 3.080000 0.700000 0.000000 -1.000000 0.000000 151 73 18
-1.000000 3.300000 0.700000 -1.000000 0.000000 0.000000 151 73 18
-1.000000 3.300000 -0.700000 -1.000000 0.000000 0.000000 151 73 18
-1.000000 3.000000 -1.000000 -1.000000 0.000000 0.000000 151 73 18
-1.000000 3.000000 1.000000 -1.000000 0.000000 0.000000 151 73 18
-1.000000 4.700000 0.700000 -1.000000 0.000000 0.000000 151 73 18
-1.000000 5.000000 1.000000 -1.000000 0.000000 0.000000 151 73 18
-1.000000 4.700000 -0.700000 -1.000000 0.000000 -0.000000 151 73 18
-1.000000 5.000000 -1.000000 -1.000000 0.000000 -0.000000 151 73 18
0.700000 3.300000 1.000000 0.000000 0.000000 1.000000 151 73 18
-0.700000 3.300000 1.000000 0.000000 0.000000 1.000000 151 73 18
-1.000000 3.000000 1.000000 0.000000 0.000000 1.000000 151 73 18
1.000000 3.000000 1.000000 -0.000000 0.000000 1.000000 151 73 18
0.700000 4.700000 1.000000 0.000000 -0.000000 1.000000 151 73 18
1.000000 5.000000 1.000000 0.000000 -0.000000 1.000000 151 73 18
-0.700000 4.700000 1.000000 0.000000 0.000000 1.000000 151 73 18
-1.000000 5.000000 1.000000 0.000000 0.000000 1.000000 151 73 18
1.000000 3.300000 -0.700000 1.000000 0.000000 0.000000 151 73 18
1.000000 3.300000 0.700000 1.000000 0.000000 0.000000 151 73 18
1.000000 3.000000 1.000000 1.000000 0.000000 0.000000 151 73 18
1.000000 3.000000 -1.000000 1.000000 0.000000 0.000000 151 73 18
1.000000 4.700000 -0.700000 1.000000 0.000000 0.000000 151 73 18
1.000000 5.000000 -1.000000 1.000000 -0.000000 0.000000 151 73 18
1.000000 4.700000 0.700000 1.000000 0.000000 -0.000000 151 73 18
1.000000 5.000000 1.000000 1.000000 0.000000 -0.000000 151 73 18
-0.700000 3.300000 -1.000000 0.000000 0.000000 -1.000000 151 73 18
0.700000 3.300000 -1.000000 0.000000 0.000000 -1.000000 151 73 18
1.000000 3.000000 -1.000000 0.000000 0.000000 -1.000000 151 73 18
-1.000000 3.000000 -1.000000 -0.000000 0.000000 -1.000000 151 73 18
-0.700000 4.700000 -1.000000 0.000000 0.000000 -1.000000 151 73 18
-1.000000 5.000000 -1.000000 0.000000 0.000000 -1.000000 151 73 18
0.700000 4.700000 -1.000000 0.000000 0.000000 -1.000000 151 73 18
1.000000 5.000000 -1.000000 0.000000 0.000000 -1.000000 151 73 18
-0.700000 5.000000 0.700000 0.000000 1.000000 0.000000 151 73 18
-0.700000 5.000000 -0.700000 0.000000 1.000000 0.000000 151 73 18
-1.000000 5.000000 -1.000000 0.000000 1.000000 0.000000 151 73 18
-1.000000 5.000000 1.000000 0.000000 1.000000 -0.000000 151 73 18
0.700000 5.000000 0.700000 -0.000000 1.000000 0.000000 151 73 18
1.000000 5.000000 1.000000 -0.000000 1.000000 0.000000 151 73 18
0.700000 5.000000 -0.700000 0.000000 1.000000 0.000000 151 73 18
1.000000 5.000000 -1.000000 0.000000 1.000000 0.000000 151 73 18
0.700000 3.000000 0.700000 0.000000 -1.000000 0.000000 151 73 18
0.700000 3.000000 -0.700000 0.000000 -1.000000 0.000000 151 73 18
1.000000 3.000000 -1.000000 0.000000 -1.000000 0.000000 151 73 18
1.000000 3.000000 1.000000 0.000000 -1.000000 0.000000 151 73 18
-0.700000 3.000000 0.700000 -0.000000 -1.000000 0.000000 151 73 18
-1.000000 3.000000 1.000000 -0.000000 -1.000000 0.000000 151 73 18
-0.700000 3.000000 -0.700000 0.000000 -1.000000 0.000000 151 73 18
-1.000000 3.000000 -1.000000 0.000000 -1.000000 -0.000000 151 73 18
-0.920000 3.300000 0.700000 0.000000 1.000000 0.000000 151 73 18
-0.920000 3.300000 -0.700000 0.000000 1.000000 0.000000 151 73 18
-1.000000 3.300000 -0.700000 0.000000 1.000000 0.000000 151 73 18
-1.000000 3.300000 0.700000 0.000000 1.000000 -0.000000 151 73 18
-0.920000 4.700000 0.700000 0.000000 0.000000 -1.000000 151 73 18
-0.920000 3.300000 0.700000 0.000000 0.000000 -1.000000 151 73 18
-1.000000 3.300000 0.700000 0.000000 0.000000 -1.000000 151 73 18
-1.000000 4.700000 0.700000 0.000000 0.000000 -1.000000 151 73 18
-0.920000 4.700000 -0.700000 0.000000 -1.000000 0.000000 151 73 18
-0.920000 4.700000 0.700000 0.000000 -1.000000 0.000000 151 73 18
-1.000000 4.700000 0.700000 0.000000 -1.000000 0.000000 151 73 18
-1.000000 4.700000 -0.700000 -0.000000 -1.000000 -0.000000 151 73 18
-0.920000 3.300000 -0.700000 -0.000000 0.000000 1.000000 151 73 18
-0.920000 4.700000 -0.700000 -0.000000 0.000000 1.000000 151 73 18
-1.000000 4.700000 -0.700000 -0.000000 0.000000 1.000000 151 73 18
-1.000000 3.300000 -0.700000 0.000000 0.000000 1.000000 151 73 18
0.700000 3.300000 0.920000 -0.000000 1.000000 0.000000 151 73 18
-0.700000 3.300000 0.920000 -0.000000 1.000000 0.000000 151 73 18
-0.700000 3.300000 1.000000 -0.000000 1.000000 0.000000 151 73 18
0.700000 3.300000 1.000000 -0.000000 1.000000 0.000000 151 73 18
0.700000 4.700000 0.920000 -1.000000 0.000000 0.000000 151 73 18
0.700000 3.300000 0.920000 -1.000000 0.000000 0.000000 151 73 18
0.700000 3.300000 1.000000 -1.000000 0.000000 0.000000 151 73 18
0.700000 4.700000 1.000000 -1.000000 0.000000 0.000000 151 73 18
-0.700000 4.700000 0.920000 -0.000000 -1.000000 -0.000000 151 73 18
0.700000 4.700000 0.920000 -0.000000 -1.000000 -0.000000 151 73 18
0.700000 4.700000 1.000000 -0.000000 -1.000000 -0.000000 151 73 18
-0.700000 4.700000 1.000000 -0.000000 -1.000000 0.000000 151 73 18
-0.700000 3.300000 0.920000 1.000000 0.000000 0.000000 151 73 18
-0.700000 4.700000 0.920000 1.000000 0.000000 0.000000 151 73 18
-0.700000 4.700000 1.000000 1.000000 0.000000 0.000000 151 73 18
-0.700000 3.300000 1.000000 1.000000 0.000000 -0.000000 151 73 18
0.920000 3.300000 -0.700000 0.000000 1.000000 0.000000 151 73 18
0.920000 3.300000 0.700000 0.000000 1.000000 0.000000 151 73 18
1.000000 3.300000 0.700000 0.000000 1.000000 0.000000 151 73 18
1.000000 3.300000 -0.700000 -0.000000 1.000000 0.000000 151 73 18
0.920000 4.700000 -0.700000 0.000000 -0.000000 1.000000 151 73 18
0.920000 3.300000 -0.700000 0.000000 -0.000000 1.000000 151 73 18
1.000000 3.300000 -0.700000 0.000000 -0.000000 1.000000 151 73 18
1.000000 4.700000 -0.700000 0.000000 -0.000000 1.000000 151 73 18
0.920000 4.700000 0.700000 0.000000 -1.000000 0.000000 151 73 18
0.920000 4.700000 -0.700000 0.000000 -1.000000 0.000000 151 73 18
1.000000 4.700000 -0.700000 0.000000 -1.000000 0.000000 151 73 18
1.000000 4.700000 0.700000 0.000000 -1.000000 0.000000 151 73 18
0.920000 3.300000 0.700000 -0.000000 -0.000000 -1.000000 151 73 18
0.920000 4.700000 0.700000 -0.000000 -0.000000 -1.000000 151 73 18
1.000000 4.700000 0.700000 -0.000000 -0.000000 -1.000000 151 73 18
1.000000 3.300000 0.700000 0.000000 -0.000000 -1.000000 151 73 18
-0.700000 3.300000 -0.920000 0.000000 1.000000 -0.000000 151 73 18
0.700000 3.300000 -0.920000 0.000000 1.000000 -0.000000 151 73 18
0.700000 3.300000 -1.000000 0.000000 1.000000 -0.000000 151 73 18
-0.700000 3.300000 -1.000000 0.000000 1.000000 0.000000 151 73 18
-0.700000 4.700000 -0.920000 1.000000 0.000000 0.000000 151 73 18
-0.700000 3.300000 -0.920000 1.000000 0.000000 0.000000 151 73 18
-0.700000 3.300000 -1.000000 1.000000 0.000000 0.000000 151 73 18
-0.700000 4.700000 -1.000000 1.000000 -0.000000 0.000000 151 73 18
0.700000 4.700000 -0.920000 0.000000 -1.000000 0.000000 151 73 18
-0.700000 4.700000 -0.920000 0.000000 -1.000000 0.000000 151 73 18
-0.700000 4.700000 -1.000000 0.000000 -1.000000 0.000000 151 73 18
0.700000 4.700000 -1.000000 0.000000 -1.000000 0.000000 151 73 18
0.700000 3.300000 -0.920000 -1.000000 0.000000 0.000000 151 73 18
0.700000 4.700000 -0.920000 -1.000000 0.000000 0.000000 151 73 18
0.700000 4.700000 -1.000000 -1.000000 0.000000 0.000000 151 73 18
0.700000 3.300000 -1.000000 -1.000000 -0.000000 -0.000000 151 73 18
-0.700000 4.920000 0.700000 1.000000 0.000000 -0.000000 151 73 18
-0.700000 4.920000 -0.700000 1.000000 0.000000 -0.000000 151 73 18
-0.700000 5.000000 -0.700000 1.000000 0.000000 -0.000000 151 73 18
-0.700000 5.000000 0.700000 1.000000 0.000000 -0.000000 151 73 18
0.700000 4.920000 0.700000 0.000000 0.000000 -1.000000 151 73 18
-0.700000 4.920000 0.700000 0.000000 0.000000 -1.000000 151 73 18
-0.700000 5.000000 0.700000 0.000000 0.000000 -1.000000 151 73 18
0.700000 5.000000 0.700000 0.000000 0.000000 -1.000000 151 73 18
0.700000 4.920000 -0.700000 -1.000000 -0.000000 -0.000000 151 73 18
0.700000 4.920000 0.700000 -1.000000 -0.000000 -0.000000 151 73 18
0.700000 5.000000 0.700000 -1.000000 -0.000000 -0.000000 151 73 18
0.700000 5.000000 -0.700000 -1.000000 0.000000 -0.000000 151 73 18
-0.700000 4.920000 -0.700000 0.000000 0.000000 1.000000 151 73 18
0.700000 4.920000 -0.700000 0.000000 0.000000 1.000000 151 73 18
0.700000 5.000000 -0.700000 0.000000 0.000000 1.000000 151 73 18
-0.700000 5.000000 -0.700000 0.000000 -0.000000 1.000000 151 73 18
0.700000 3.080000 0.700000 -1.000000 0.000000 0.000000 151 73 18
0.700000 3.080000 -0.700000 -1.000000 0.000000 0.000000 151 73 18
0.700000 3.000000 -0.700000 -1.000000 0.000000 0.000000 151 73 18
0.700000 3.000000 0.700000 -1.000000 0.000000 0.000000 151 73 18
-0.700000 3.080000 0.700000 0.000000 0.000000 -1.000000 151 73 18
0.700000 3.080000 0.700000 0.000000 0.000000 -1.000000 151 73 18
0.700000 3.000000 0.700000 0.000000 0.000000 -1.000000 151 73 18
-0.700000 3.000000 0.700000 -0.000000 -0.000000 -1.000000 151 73 18
-0.700000 3.080000 -0.700000 1.000000 -0.000000 0.000000 151 73 18
-0.700000 3.080000 0.700000 1.000000 -0.000000 0.000000 151 73 18
-0.700000 3.000000 0.700000 1.000000 -0.000000 0.000000 151 73 18
-0.700000 3.000000 -0.700000 1.000000 0.000000 0.000000 151 73 18
0.700000 3.080000 -0.700000 0.000000 0.000000 1.000000 151 73 18
-0.700000 3.080000 -0.700000 0.000000 0.000000 1.000000 151 73 18
-0.700000 3.000000 -0.700000 0.000000 0.000000 1.000000 151 73 18
0.700000 3.000000 -0.700000 -0.000000 0.000000 1.000000 151 73 18
0.707107 3.030000 0.919239 -0.707107 0.000000 0.707107 151 73 18
0.707107 3.080000 0.919239 -0.707107 0.000000 0.707107 151 73 18
-0.919239 3.080000 -0.707107 -0.707107 0.000000 0.707107 151 73 18
-0.919239 3.030000 -0.707107 -0.707107 0.000000 0.707107 151 73 18
0.919239 3.030000 0.707107 -0.000000 -1.000000 -0.000000 151 73 18
0.707107 3.030000 0.919239 -0.000000 -1.000000 -0.000000 151 73 18
-0.919239 3.030000 -0.707107 -0.000000 -1.000000 -0.000000 151 73 18
-0.707107 3.030000 -0.919239 -0.000000 -1.000000 -0.000000 151 73 18
0.919239 3.080000 0.707107 0.707107 0.000000 -0.707107 151 73 18
0.919239 3.030000 0.707107 0.707107 0.000000 -0.707107 151 73 18
-0.707107 3.030000 -0.919239 0.707107 0.000000 -0.707107 151 73 18
-0.707107 3.080000 -0.919239 0.707107 0.000000 -0.707107 151 73 18
0.919239 4.707107 -0.970000 0.707107 -0.707107 0.000000 151 73 18
0.919239 4.707107 -0.920000 0.707107 -0.707107 0.000000 151 73 18
-0.707107 3.080761 -0.920000 0.707107 -0.707107 0.000000 151 73 18
-0.707107 3.080761 -0.970000 0.707107 -0.707107 0.000000 151 73 18
0.919239 3.030000 0.707107 0.707107 0.000000 0.707107 255 255 255
0.919239 3.080000 0.707107 0.707107 0.000000 0.707107 255 255 255
0.707107 3.080000 0.919239 0.707107 0.000000 0.707107 255 255 255
0.707107 3.030000 0.919239 0.707107 0.000000 0.707107 255 255 255
0.919239 4.920000 -0.707107 0.707107 0.000000 0.707107 151 73 18
0.919239 4.970000 -0.707107 0.707107 0.000000 0.707107 151 73 18
-0.707107 4.970000 0.919239 0.707107 0.000000 0.707107 151 73 18
-0.707107 4.920000 0.919239 0.707107 0.000000 0.707107 151 73 18
-0.707107 4.919239 0.970000 0.000000 -0.000000 1.000000 151 73 18
-0.919239 4.707107 0.970000 0.000000 -0.000000 1.000000 151 73 18
0.707107 3.080761 0.970000 0.000000 -0.000000 1.000000 151 73 18
0.919239 3.292893 0.970000 -0.000000 -0.000000 1.000000 151 73 18
0.707107 4.970000 -0.919239 -0.707107 0.000000 -0.707107 151 73 18
0.707107 4.920000 -0.919239 -0.707107 0.000000 -0.707107 151 73 18
-0.919239 4.920000 0.707107 -0.707107 0.000000 -0.707107 151 73 18
-0.919239 4.970000 0.707107 -0.707107 0.000000 -0.707107 151 73 18
0.919239 4.970000 -0.707107 -0.000000 1.000000 0.000000 151 73 18
0.707107 4.970000 -0.919239 -0.000000 1.000000 0.000000 151 73 18
-0.919239 4.970000 0.707107 -0.000000 1.000000 0.000000 151 73 18
-0.707107 4.970000 0.919239 -0.000000 1.000000 -0.000000 151 73 18
-0.707107 4.919239 0.920000 0.707107 0.707107 0.000000 151 73 18
-0.707107 4.919239 0.970000 0.707107 0.707107 0.000000 151 73 18
0.919239 3.292893 0.970000 0.707107 0.707107 0.000000 151 73 18
0.919239 3.292893 0.920000 0.707107 0.707107 0.000000 151 73 18
0.920000 4.707107 -0.919239 -0.000000 -0.707107 -0.707107 151 73 18
0.970000 4.707107 -0.919239 -0.000000 -0.707107 -0.707107 151 73 18
0.970000 3.080761 0.707107 -0.000000 -0.707107 -0.707107 151 73 18
0.920000 3.080761 0.707107 0.000000 -0.707107 -0.707107 151 73 18
0.920000 3.080761 0.707107 0.000000 -0.707107 0.707107 255 255 255
0.970000 3.080761 0.707107 0.000000 -0.707107 0.707107 255 255 255
0.970000 3.292893 0.919239 0.000000 -0.707107 0.707107 255 255 255
0.920000 3.292893 0.919239 0.000000 -0.707107 0.707107 255 255 255
0.970000 4.919239 -0.707107 -0.000000 0.707107 0.707107 151 73 18
0.920000 4.919239 -0.707107 -0.000000 0.707107 0.707107 151 73 18
0.920000 3.292893 0.919239 -0.000000 0.707107 0.707107 151 73 18
0.970000 3.292893 0.919239 0.000000 0.707107 0.707107 151 73 18
0.970000 4.707107 -0.919239 1.000000 0.000000 0.000000 151 73 18
0.970000 4.919239 -0.707107 1.000000 0.000000 0.000000 151 73 18
0.970000 3.292893 0.919239 1.000000 0.000000 0.000000 151 73 18
0.970000 3.080761 0.707107 1.000000 0.000000 0.000000 151 73 18
0.707107 4.919239 -0.920000 -0.707107 0.707107 0.000000 151 73 18
0.707107 4.919239 -0.970000 -0.707107 0.707107 0.000000 151 73 18
-0.919239 3.292893 -0.970000 -0.707107 0.707107 0.000000 151 73 18
-0.919239 3.292893 -0.920000 -0.707107 0.707107 0.000000 151 73 18
-0.970000 4.919239 0.707107 0.000000 0.707107 -0.707107 151 73 18
-0.920000 4.919239 0.707107 0.000000 0.707107 -0.707107 151 73 18
-0.920000 3.292893 -0.919239 0.000000 0.707107 -0.707107 151 73 18
-0.970000 3.292893 -0.919239 0.000000 0.707107 -0.707107 151 73 18
-0.970000 4.707107 0.919239 -1.000000 -0.000000 -0.000000 151 73 18
-0.970000 4.919239 0.707107 -1.000000 -0.000000 -0.000000 151 73 18
-0.970000 3.292893 -0.919239 -1.000000 -0.000000 -0.000000 151 73 18
-0.970000 3.080761 -0.707107 -1.000000 -0.000000 -0.000000 151 73 18
-0.920000 4.707107 0.919239 0.000000 -0.707107 0.707107 151 73 18
-0.970000 4.707107 0.919239 0.000000 -0.707107 0.707107 151 73 18
-0.970000 3.080761 -0.707107 0.000000 -0.707107 0.707107 151 73 18
-0.920000 3.080761 -0.707107 0.000000 -0.707107 0.707107 151 73 18
0.707107 4.919239 -0.970000 0.000000 0.000000 -1.000000 151 73 18
0.919239 4.707107 -0.970000 0.000000 0.000000 -1.000000 151 73 18
-0.707107 3.080761 -0.970000 0.000000 0.000000 -1.000000 151 73 18
-0.919239 3.292893 -0.970000 -0.000000 0.000000 -1.000000 151 73 18
0.707107 3.080761 0.970000 0.707107 -0.707107 0.000000 255 255 255
0.707107 3.080761 0.920000 0.707107 -0.707107 0.000000 255 255 255
0.919239 3.292893 0.920000 0.707107 -0.707107 0.000000 255 255 255
0.919239 3.292893 0.970000 0.707107 -0.707107 0.000000 255 255 255
-0.919239 4.707107 0.970000 -0.707107 -0.707107 0.000000 151 73 18
-0.919239 4.707107 0.920000 -0.707107 -0.707107 0.000000 151 73 18
0.707107 3.080761 0.920000 -0.707107 -0.707107 0.000000 151 73 18
0.707107 3.080761 0.970000 -0.707107 -0.707107 0.000000 151 73 18
-0.920000 2.700000 0.700000 -1.000000 0.000000 0.000000 151 73 18
-0.920000 2.700000 -0.700000 -1.000000 0.000000 0.000000 151 73 18
-0.920000 1.300000 -0.700000 -1.000000 0.000000 0.000000 151 73 18
-0.920000 1.300000 0.700000 -1.000000 0.000000 0.000000 151 73 18
0.700000 2.700000 0.920000 0.000000 0.000000 1.000000 151 73 18
-0.700000 2.700000 0.920000 0.000000 0.000000 1.000000 151 73 18
-0.700000 1.300000 0.920000 0.000000 0.000000 1.000000 151 73 18
0.700000 1.300000 0.920000 -0.000000 0.000000 1.000000 151 73 18
0.920000 2.700000 -0.700000 1.000000 -0.000000 0.000000 151 73 18
0.920000 2.700000 0.700000 1.000000 -0.000000 0.000000 151 73 18
0.920000 1.300000 0.700000 1.000000 -0.000000 0.000000 151 73 18
0.920000 1.300000 -0.700000 1.000000 0.000000 0.000000 151 73 18
-0.700000 2.700000 -0.920000 0.000000 0.000000 -1.000000 151 73 18
0.700000 2.700000 -0.920000 0.000000 0.000000 -1.000000 151 73 18
0.700000 1.300000 -0.920000 0.000000 0.000000 -1.000000 151 73 18
-0.700000 1.300000 -0.920000 -0.000000 -0.000000 -1.000000 151 73 18
0.700000 2.920000 0.700000 0.000000 1.000000 0.000000 151 73 18
0.700000 2.920000 -0.700000 0.000000 1.000000 0.000000 151 73 18
-0.700000 2.920000 -0.700000 0.000000 1.000000 0.000000 151 73 18
-0.700000 2.920000 0.700000 0.000000 1.000000 -0.000000 151 73 18
-0.700000 1.080000 0.700000 0.000000 -1.000000 0.000000 151 73 18
-0.700000 1.080000 -0.700000 0.000000 -1.000000 0.000000 151 73 18
0.700000 1.080000 -0.700000 0.000000 -1.000000 0.000000 151 73 18
0.700000 1.080000 0.700000 0.000000 -1.000000 0.000000 151 73 18
-1.000000 1.300000 0.700000 -1.000000 0.000000 0.000000 151 73 18
-1.000000 1.300000 -0.700000 -1.000000 0.000000 0.000000 151 73 18
-1.000000 1.000000 -1.000000 -1.000000 0.000000 0.000000 151 73 18
-1.000000 1.000000 1.000000 -1.000000 0.000000 0.000000 151 73 18
-1.000000 2.700000 0.700000 -1.000000 0.000000 0.000000 151 73 18
-1.000000 3.000000 1.000000 -1.000000 0.000000 0.000000 151 73 18
-1.000000 2.700000 -0.700000 -1.000000 0.000000 -0.000000 151 73 18
-1.000000 3.000000 -1.000000 -1.000000 0.000000 -0.000000 151 73 18
0.700000 1.300000 1.000000 0.000000 0.000000 1.000000 151 73 18
-0.700000 1.300000 1.000000 0.000000 0.000000 1.000000 151 73 18
-1.000000 1.000000 1.000000 0.000000 0.000000 1.000000 151 73 18
1.000000 1.000000 1.000000 -0.000000 0.000000 1.000000 151 73 18
0.700000 2.700000 1.000000 0.000000 -0.000000 1.000000 151 73 18
1.000000 3.000000 1.000000 0.000000 -0.000000 1.000000 151 73 18
-0.700000 2.700000 1.000000 0.000000 0.000000 1.000000 151 73 18
-1.000000 3.000000 1.000000 0.000000 0.000000 1.000000 151 73 18
1.000000 1.300000 -0.700000 1.000000 0.000000 0.000000 151 73 18
1.000000 1.300000 0.700000 1.000000 0.000000 0.000000 151 73 18
1.000000 1.000000 1.000000 1.000000 0.000000 0.000000 151 73 18
1.000000 1.000000 -1.000000 1.000000 0.000000 0.000000 151 73 18
1.000000 2.700000 -0.700000 1.000000 0.000000 0.000000 151 73 18
1.000000 3.000000 -1.000000 1.000000 -0.000000 0.000000 151 73 18
1.000000 2.700000 0.700000 1.000000 0.000000 -0.000000 151 73 18
1.000000 3.000000 1.000000 1.000000 0.000000 -0.000000 151 73 18
-0.700000 1.300000 -1.000000 0.000000 0.000000 -1.000000 151 73 18
0.700000 1.300000 -1.000000 0.000000 0.000000 -1.000000 151 73 18
1.000000 1.000000 -1.000000 0.000000 0.000000 -1.000000 151 73 18
-1.000000 1.000000 -1.000000 -0.000000 0.000000 -1.000000 151 73 18
-0.700000 2.700000 -1.000000 0.000000 0.000000 -1.000000 151 73 18
-1.000000 3.000000 -1.000000 0.000000 0.000000 -1.000000 151 73 18
0.700000 2.700000 -1.000000 0.000000 0.000000 -1.000000 151 73 18
1.000000 3.000000 -1.000000 0.000000 0.000000 -1.000000 151 73 18
-0.700000 3.000000 0.700000 0.000000 1.000000 0.000000 151 73 18
-0.700000 3.000000 -0.700000 0.000000 1.000000 0.000000 151 73 18
-1.000000 3.000000 -1.000000 0.000000 1.000000 0.000000 151 73 18
-1.000000 3.000000 1.000000 0.000000 1.000000 -0.000000 151 73 18
0.700000 3.000000 0.700000 -0.000000 1.000000 0.000000 151 73 18
1.000000 3.000000 1.000000 -0.000000 1.000000 0.000000 151 73 18
0.700000 3.000000 -0.700000 0.000000 1.000000 0.000000 151 73 18
1.000000 3.000000 -1.000000 0.000000 1.000000 0.000000 151 73 18
0.700000 1.000000 0.700000 0.000000 -1.000000 0.000000 151 73 18
0.700000 1.000000 -0.700000 0.000000 -1.000000 0.000000 151 73 18
1.000000 1.000000 -1.000000 0.000000 -1.000000 0.000000 151 73 18
1.000000 1.000000 1.000000 0.000000 -1.000000 0.000000 151 73 18
-0.700000 1.000000 0.700000 -0.000000 -1.000000 0.000000 151 73 18
-1.000000 1.000000 1.000000 -0.000000 -1.000000 0.000000 151 73 18
-0.700000 1.000000 -0.700000 0.000000 -1.000000 0.000000 151 73 18
-1.000000 1.000000 -1.000000 0.000000 -1.000000 -0.000000 151 73 18
-0.920000 1.300000 0.700000 0.000000 1.000000 0.000000 151 73 18
-0.920000 1.300000 -0.700000 0.000000 1.000000 0.000000 151 73 18
-1.000000 1.300000 -0.700000 0.000000 1.000000 0.000000 151 73 18
-1.000000 1.300000 0.700000 0.000000 1.000000 -0.000000 151 73 18
-0.920000 2.700000 0.700000 0.000000 0.000000 -1.000000 151 73 18
-0.920000 1.300000 0.700000 0.000000 0.000000 -1.000000 151 73 18
-1.000000 1.300000 0.700000 0.000000 0.000000 -1.000000 151 73 18
-1.000000 2.700000 0.700000 0.000000 0.000000 -1.000000 151 73 18
-0.920000 2.700000 -0.700000 0.000000 -1.000000 0.000000 151 73 18
-0.920000 2.700000 0.700000 0.000000 -1.000000 0.000000 151 73 18
-1.000000 2.700000 0.700000 0.000000 -1.000000 0.000000 151 73 18
-1.000000 2.700000 -0.700000 -0.000000 -1.000000 -0.000000 151 73 18
-0.920000 1.300000 -0.700000 -0.000000 0.000000 1.000000 151 73 18
-0.920000 2.700000 -0.700000 -0.000000 0.000000 1.000000 151 73 18
-1.000000 2.700000 -0.700000 -0.000000 0.000000 1.000000 151 73 18
-1.000000 1.300000 -0.700000 0.000000 0.000000 1.000000 151 73 18
0.700000 1.300000 0.920000 -0.000000 1.000000 0.000000 151 73 18
-0.700000 1.300000 0.920000 -0.000000 1.000000 0.000000 151 73 18
-0.700000 1.300000 1.000000 -0.000000 1.000000 0.000000 151 73 18
0.700000 1.300000 1.000000 -0.000000 1.000000 0.000000 151 73 18
0.700000 2.700000 0.920000 -1.000000 0.000000 0.000000 151 73 18
0.700000 1.300000 0.920000 -1.000000 0.000000 0.000000 151 73 18
0.700000 1.300000 1.000000 -1.000000 0.000000 0.000000 151 73 18
0.700000 2.700000 1.000000 -1.000000 0.000000 0.000000 151 73 18
-0.700000 2.700000 0.920000 -0.000000 -1.000000 -0.000000 151 73 18
0.700000 2.700000 0.920000 -0.000000 -1.000000 -0.000000 151 73 18
0.700000 2.700000 1.000000 -0.000000 -1.000000 -0.000000 151 73 18
-0.700000 2.700000 1.000000 -0.000000 -1.000000 0.000000 151 73 18
-0.700000 1.300000 0.920000 1.000000 0.000000 0.000000 151 73 18
-0.700000 2.700000 0.920000 1.000000 0.000000 0.000000 151 73 18
-0.700000 2.700000 1.000000 1.000000 0.000000 0.000000 151 73 18
-0.700000 1.300000 1.000000 1.000000 0.000000 -0.000000 151 73 18
0.920000 1.300000 -0.700000 0.000000 1.000000 0.000000 151 73 18
0.920000 1.300000 0.700000 0.000000 1.000000 0.000000 151 73 18
1.000000 1.300000 0.700000 0.000000 1.000000 0.000000 151 73 18
1.000000 1.300000 -0.700000 -0.000000 1.000000 0.000000 151 73 18
0.920000 2.700000 -0.700000 0.000000 -0.000000 1.000000 151 73 18
0.920000 1.300000 -0.700000 0.000000 -0.000000 1.000000 151 73 18
1.000000 1.300000 -0.700000 0.000000 -0.000000 1.000000 151 73 18
1.000000 2.700000 -0.700000 0.000000 -0.000000 1.000000 151 73 18
0.920000 2.700000 0.700000 0.000000 -1.000000 0.000000 151 73 18
0.920000 2.700000 -0.700000 0.000000 -1.000000 0.000000 151 73 18
1.000000 2.700000 -0.700000 0.000000 -1.000000 0.000000 151 73 18
1.000000 2.700000 0.700000 0.000000 -1.000000 0.000000 151 73 18
0.920000 1.300000 0.700000 -0.000000 -0.000000 -1.000000 151 73 18
0.920000 2.700000 0.700000 -0.000000 -0.000000 -1.000000 151 73 18
1.000000 2.700000 0.700000 -0.000000 -0.000000 -1.000000 151 73 18
1.000000 1.300000 0.700000 0.000000 -0.000000 -1.000000 151 73 18
-0.700000 1.300000 -0.920000 0.000000 1.000000 -0.000000 151 73 18
0.700000 1.300000 -0.920000 0.000000 1.000000 -0.000000 151 73 18
0.700000 1.300000 -1.000000 0.000000 1.000000 -0.000000 151 73 18
-0.700000 1.300000 -1.000000 0.000000 1.000000 0.000000 151 73 18
-0.700000 2.700000 -0.920000 1.000000 0.000000 0.000000 151 73 18
-0.700000 1.300000 -0.920000 1.000000 0.000000 0.000000 151 73 18
-0.700000 1.300000 -1.000000 1.000000 0.000000 0.000000 151 73 18
-0.700000 2.700000 -1.000000 1.000000 -0.000000 0.000000 151 73 18
0.700000 2.700000 -0.920000 0.000000 -1.000000 0.000000 151 73 18
-0.700000 2.700000 -0.920000 0.000000 -1.000000 0.000000 151 73 18
-0.700000 2.700000 -1.000000 0.000000 -1.000000 0.000000 151 73 18
0.700000 2.700000 -1.000000 0.000000 -1.000000 0.000000 151 73 18
0.700000 1.300000 -0.920000 -1.000000 0.000000 0.000000 151 73 18
0.700000 2.700000 -0.920000 -1.000000 0.000000 0.000000 151 73 18
0.700000 2.700000 -1.000000 -1.000000 0.000000 0.000000 151 73 18
0.700000 1.300000 -1.000000 -1.000000 -0.000000 -0.000000 151 73 18
-0.700000 2.920000 0.700000 1.000000 0.000000 -0.000000 151 73 18
-0.700000 2.920000 -0.700000 1.000000 0.000000 -0.000000 151 73 18
-0.700000 3.000000 -0.700000 1.000000 0.000000 -0.000000 151 73 18
-0.700000 3.000000 0.700000 1.000000 0.000000 -0.000000 151 73 18
0.700000 2.920000 0.700000 0.000000 0.000000 -1.000000 151 73 18
-0.700000 2.920000 0.700000 0.000000 0.000000 -1.000000 151 73 18
-0.700000 3.000000 0.700000 0.000000 0.000000 -1.000000 151 73 18
0.700000 3.000000 0.700000 0.000000 0.000000 -1.000000 151 73 18
0.700000 2.920000 -0.700000 -1.000000 -0.000000 -0.000000 151 73 18
0.700000 2.920000 0.700000 -1.000000 -0.000000 -0.000000 151 73 18
0.700000 3.000000 0.700000 -1.000000 -0.000000 -0.000000 151 73 18
0.700000 3.000000 -0.700000 -1.000000 0.000000 -0.000000 151 73 18
-0.700000 2.920000 -0.700000 0.000000 0.000000 1.000000 151 73 18
0.700000 2.920000 -0.700000 0.000000 0.000000 1.000000 151 73 18
0.700000 3.000000 -0.700000 0.000000 0.000000 1.000000 151 73 18
-0.700000 3.000000 -0.700000 0.000000 -0.000000 1.000000 151 73 18
0.700000 1.080000 0.700000 -1.000000 0.000000 0.000000 151 73 18
0.700000 1.080000 -0.700000 -1.000000 0.000000 0.000000 151 73 18
0.700000 1.000000 -0.700000 -1.000000 0.000000 0.000000 151 73 18
0.700000 1.000000 0.700000 -1.000000 0.000000 0.000000 151 73 18
-0.700000 1.080000 0.700000 0.000000 0.000000 -1.000000 151 73 18
0.700000 1.080000 0.700000 0.000000 0.000000 -1.000000 151 73 18
0.700000 1.000000 0.700000 0.000000 0.000000 -1.000000 151 73 18
-0.700000 1.000000 0.700000 -0.000000 -0.000000 -1.000000 151 73 18
-0.700000 1.080000 -0.700000 1.000000 -0.000000 0.000000 151 73 18
-0.700000 1.080000 0.700000 1.000000 -0.000000 0.000000 151 73 18
-0.700000 1.000000 0.700000 1.000000 -0.000000 0.000000 151 73 18
-0.700000 1.000000 -0.700000 1.000000 0.000000 0.000000 151 73 18
0.700000 1.080000 -0.700000 0.000000 0.000000 1.000000 151 73 18
-0.700000 1.080000 -0.700000 0.000000 0.000000 1.000000 151 73 18
-0.700000 1.000000 -0.700000 0.000000 0.000000 1.000000 151 73 18
0.700000 1.000000 -0.700000 -0.000000 0.000000 1.000000 151 73 18
0.707107 1.030000 0.919239 -0.707107 0.000000 0.707107 151 73 18
0.707107 1.080000 0.919239 -0.707107 0.000000 0.707107 151 73 18
-0.919239 1.080000 -0.707107 -0.707107 0.000000 0.707107 151 73 18
-0.919239 1.030000 -0.707107 -0.707107 0.000000 0.707107 151 73 18
0.919239 1.030000 0.707107 -0.000000 -1.000000 -0.000000 151 73 18
0.707107 1.030000 0.919239 -0.000000 -1.000000 -0.000000 151 73 18
-0.919239 1.030000 -0.707107 -0.000000 -1.000000 -0.000000 151 73 18
-0.707107 1.030000 -0.919239 -0.000000 -1.000000 -0.000000 151 73 18
0.919239 1.080000 0.707107 0.707107 0.000000 -0.707107 151 73 18
0.919239 1.030000 0.707107 0.707107 0.000000 -0.707107 151 73 18
-0.707107 1.030000 -0.919239 0.707107 0.000000 -0.707107 151 73 18
-0.707107 1.080000 -0.919239 0.707107 0.000000 -0.707107 151 73 18
0.919239 2.707107 -0.970000 0.707107 -0.707107 0.000000 151 73 18
0.919239 2.707107 -0.920000 0.707107 -0.707107 0.000000 151 73 18
-0.707107 1.080761 -0.920000 0.707107 -0.707107 0.000000 151 73 18
-0.707107 1.080761 -0.970000 0.707107 -0.707107 0.000000 151 73 18
0.919239 1.030000 0.707107 0.707107 0.000000 0.707107 255 255 255
0.919239 1.080000 0.707107 0.707107 0.000000 0.707107 255 255 255
0.707107 1.080000 0.919239 0.707107 0.000000 0.707107 255 255 255
0.707107 1.030000 0.919239 0.707107 0.000000 0.707107 255 255 255
0.919239 2.920000 -0.707107 0.707107 0.000000 0.707107 151 73 18
0.919239 2.970000 -0.707107 0.707107 0.000000 0.707107 151 73 18
-0.707107 2.970000 0.919239 0.707107 0.000000 0.707107 151 73 18
-0.707107 2.920000 0.919239 0.707107 0.000000 0.707107 151 73 18
-0.707107 2.919239 0.970000 0.000000 -0.000000 1.000000 151 73 18
-0.919239 2.707107 0.970000 0.000000 -0.000000 1.000000 151 73 18
0.707107 1.080761 0.970000 0.000000 -0.000000 1.000000 151 73 18
0.919239 1.292893 0.970000 -0.000000 -0.000000 1.000000 151 73 18
0.707107 2.970000 -0.919239 -0.707107 0.000000 -0.707107 151 73 18
0.707107 2.920000 -0.919239 -0.707107 0.000000 -0.707107 151 73 18
-0.919239 2.920000 0.707107 -0.707107 0.000000 -0.707107 151 73 18
-0.919239 2.970000 0.707107 -0.707107 0.000000 -0.707107 151 73 18
0.919239 2.970000 -0.707107 -0.000000 1.000000 0.000000 151 73 18
0.707107 2.970000 -0.919239 -0.000000 1.000000 0.000000 151 73 18
-0.919239 2.970000 0.707107 -0.000000 1.000000 0.000000 151 73 18
-0.707107 2.970000 0.919239 -0.000000 1.000000 -0.000000 151 73 18
-0.707107 2.919239 0.920000 0.707107 0.707107 0.000000 151 73 18
-0.707107 2.919239 0.970000 0.707107 0.707107 0.000000 151 73 18
0.919239 1.292893 0.970000 0.707107 0.707107 0.000000 151 73 18
0.919239 1.292893 0.920000 0.707107 0.707107 0.000000 151 73 18
0.920000 2.707107 -0.919239 -0.000000 -0.707107 -0.707107 151 73 18
0.970000 2.707107 -0.919239 -0.000000 -0.707107 -0.707107 151 73 18
0.970000 1.080761 0.707107 -0.000000 -0.707107 -0.707107 151 73 18
0.920000 1.080761 0.707107 0.000000 -0.707107 -0.707107 151 73 18
0.920000 1.080761 0.707107 0.000000 -0.707107 0.707107 255 255 255
0.970000 1.080761 0.707107 0.000000 -0.707107 0.707107 255 255 255
0.970000 1.292893 0.919239 0.000000 -0.707107 0.707107 255 255 255
0.920000 1.292893 0.919239 0.000000 -0.707107 0.707107 255 255 255
0.970000 2.919239 -0.707107 -0.000000 0.707107 0.707107 151 73 18
0.920000 2.919239 -0.707107 -0.000000 0.707107 0.707107 151 73 18
0.920000 1.292893 0.919239 -0.000000 0.707107 0.707107 151 73 18
0.970000 1.292893 0.919239 0.000000 0.707107 0.707107 151 73 18
0.970000 2.707107 -0.919239 1.000000 0.000000 0.000000 151 73 18
0.970000 2.919239 -0.707107 1.000000 0.000000 0.000000 151 73 18
0.970000 1.292893 0.919239 1.000000 0.000000 0.000000 151 73 18
0.970000 1.080761 0.707107 1.000000 0.000000 0.000000 151 73 18
0.707107 2.919239 -0.920000 -0.707107 0.707107 0.000000 151 73 18
0.707107 2.919239 -0.970000 -0.707107 0.707107 0.000000 151 73 18
-0.919239 1.292893 -0.970000 -0.707107 0.707107 0.000000 151 73 18
-0.919239 1.292893 -0.920000 -0.707107 0.707107 0.000000 151 73 18
-0.970000 2.919239 0.707107 0.000000 0.707107 -0.707107 151 73 18
-0.920000 2.919239 0.707107 0.000000 0.707107 -0.707107 151 73 18
-0.920000 1.292893 -0.919239 0.000000 0.707107 -0.707107 151 73 18
-0.970000 1.292893 -0.919239 0.000000 0.707107 -0.707107 151 73 18
-0.970000 2.707107 0.919239 -1.000000 -0.000000 -0.000000 151 73 18
-0.970000 2.919239 0.707107 -1.000000 -0.000000 -0.000000 151 73 18
-0.970000 1.292893 -0.919239 -1.000000 -0.000000 -0.000000 151 73 18
-0.970000 1.080761 -0.707107 -1.000000 -0.000000 -0.000000 151 73 18
-0.920000 2.707107 0.919239 0.000000 -0.707107 0.707107 151 73 18
-0.970000 2.707107 0.919239 0.000000 -0.707107 0.707107 151 73 18
-0.970000 1.080761 -0.707107 0.000000 -0.707107 0.707107 151 73 18
-0.920000 1.080761 -0.707107 0.000000 -0.707107 0.707107 151 73 18
0.707107 2.919239 -0.970000 0.000000 0.000000 -1.000000 151 73 18
0.919239 2.707107 -0.970000 0.000000 0.000000 -1.000000 151 73 18
-0.707107 1.080761 -0.970000 0.000000 0.000000 -1.000000 151 73 18
-0.919239 1.292893 -0.970000 -0.000000 0.000000 -1.000000 151 73 18
0.707107 1.080761 0.970000 0.707107 -0.707107 0.000000 255 255 255
0.707107 1.080761 0.920000 0.707107 -0.707107 0.000000 255 255 255
0.919239 1.292893 0.920000 0.707107 -0.707107 0.000000 255 255 255
0.919239 1.292893 0.970000 0.707107 -0.707107 0.000000 255 255 255
-0.919239 2.707107 0.970000 -0.707107 -0.707107 0.000000 151 73 18
-0.919239 2.707107 0.920000 -0.707107 -0.707107 0.000000 151 73 18
0.707107 1.080761 0.920000 -0.707107 -0.707107 0.000000 151 73 18
0.707107 1.080761 0.970000 -0.707107 -0.707107 0.000000 151 73 18
3 0 1 2
3 3 0 2
3 4 5 6
3 7 4 6
3 8 9 10
3 11 8 10
3 12 13 14
3 15 12 14
3 16 17 18
3 19 16 18
3 20 21 22
3 23 20 22
3 24 25 26
3 27 24 26
3 28 24 27
3 29 28 27
3 30 28 29
3 31 30 29
3 25 30 31
3 26 25 31
3 32 33 34
3 35 32 34
3 36 32 35
3 37 36 35
3 38 36 37
3 39 38 37
3 33 38 39
3 34 33 39
3 40 41 42
3 43 40 42
3 44 40 43
3 45 44 43
3 46 44 45
3 47 46 45
3 41 46 47
3 42 41 47
3 48 49 50
3 51 48 50
3 52 48 51
3 53 52 51
3 54 52 53
3 55 54 53
3 49 54 55
3 50 49 55
3 56 57 58
3 59 56 58
3 60 56 59
3 61 60 59
3 62 60 61
3 63 62 61
3 57 62 63
3 58 57 63
3 64 65 66
3 67 64 66
3 68 64 67
3 69 68 67
3 70 68 69
3 71 70 69
3 71 65 70
3 71 66 65
3 72 73 74
3 75 72 74
3 76 77 78
3 79 76 78
3 80 81 82
3 83 80 82
3 84 85 86
3 87 84 86
3 88 89 90
3 91 88 90
3 92 93 94
3 95 92 94
3 96 97 98
3 99 96 98
3 100 101 102
3 103 100 102
3 104 105 106
3 107 104 106
3 108 109 110
3 111 108 110
3 112 113 114
3 115 112 114
3 116 117 118
3 119 116 118
3 120 121 122
3 123 120 122
3 124 125 126
3 127 124 126
3 128 129 130
3 131 128 130
3 132 133 134
3 135 132 134
3 136 137 138
3 139 136 138
3 140 141 142
3 143 140 142
3 144 145 146
3 147 144 146
3 148 149 150
3 151 148 150
3 152 153 154
3 155 152 154
3 156 157 158
3 159 156 158
3 160 161 162
3 163 160 162
3 164 165 166
3 167 164 166
3 168 169 170
3 171 168 170
3 172 173 174
3 175 172 174
3 176 177 178
3 179 176 178
3 180 181 182
3 183 180 182
3 184 185 186
3 187 184 186
3 188 189 190
3 191 188 190
3 192 193 194
3 195 192 194
3 196 197 198
3 199 196 198
3 200 201 202
3 203 200 202
3 204 205 206
3 207 204 206
3 208 209 210
3 211 208 210
3 212 213 214
3 215 212 214
3 216 217 218
3 219 216 218
3 220 221 222
3 223 220 222
3 224 225 226
3 227 224 226
3 228 229 230
3 231 228 230
3 232 233 234
3 235 232 234
3 236 237 238
3 239 236 238
3 240 241 242
3 243 240 242
3 244 245 246
3 247 244 246
3 248 249 250
3 251 248 250
3 252 253 254
3 255 252 254
3 256 257 258
3 259 256 258
3 260 261 262
3 263 260 262
3 264 265 266
3 267 264 266
3 268 269 270
3 271 268 270
3 272 273 274
3 275 272 274
3 276 277 278
3 279 276 278
3 280 276 279
3 281 280 279
3 282 280 281
3 283 282 281
3 277 282 283
3 278 277 283
3 284 285 286
3 287 284 286
3 288 284 287
3 289 288 287
3 290 288 289
3 291 290 289
3 285 290 291
3 286 285 291
3 292 293 294
3 295 292 294
3 296 292 295
3 297 296 295
3 298 296 297
3 299 298 297
3 293 298 299
3 294 293 299
3 300 301 302
3 303 300 302
3 304 300 303
3 305 304 303
3 306 304 305
3 307 306 305
3 301 306 307
3 302 301 307
3 308 309 310
3 311 308 310
3 312 308 311
3 313 312 311
3 314 312 313
3 315 314 313
3 309 314 315
3 310 309 315
3 316 317 318
3 319 316 318
3 320 316 319
3 321 320 319
3 322 320 321
3 323 322 321
3 323 317 322
3 323 318 317
3 324 325 326
3 327 324 326
3 328 329 330
3 331 328 330
3 332 333 334
3 335 332 334
3 336 337 338
3 339 336 338
3 340 341 342
3 343 340 342
3 344 345 346
3 347 344 346
3 348 349 350
3 351 348 350
3 352 353 354
3 355 352 354
3 356 357 358
3 359 356 358
3 360 361 362
3 363 360 362
3 364 365 366
3 367 364 366
3 368 369 370
3 371 368 370
3 372 373 374
3 375 372 374
3 376 377 378
3 379 376 378
3 380 381 382
3 383 380 382
3 384 385 386
3 387 384 386
3 388 389 390
3 391 388 390
3 392 393 394
3 395 392 394
3 396 397 398
3 399 396 398
3 400 401 402
3 403 400 402
3 404 405 406
3 407 404 406
3 408 409 410
3 411 408 410
3 412 413 414
3 415 412 414
3 416 417 418
3 419 416 418
3 420 421 422
3 423 420 422
3 424 425 426
3 427 424 426
3 428 429 430
3 431 428 430
3 432 433 434
3 435 432 434
3 436 437 438
3 439 436 438
3 440 441 442
3 443 440 442
3 444 445 446
3 447 444 446
3 448 449 450
3 451 448 450
3 452 453 454
3 455 452 454
3 456 457 458
3 459 456 458
3 460 461 462
3 463 460 462
3 464 465 466
3 467 464 466
3 468 469 470
3 471 468 470
3 472 473 474
3 475 472 474
3 476 477 478
3 479 476 478
3 480 481 482
3 483 480 482
3 484 485 486
3 487 484 486
3 488 489 490
3 491 488 490
3 492 493 494
3 495 492 494
3 496 497 498
3 499 496 498
3 500 501 502
3 503 500 502
