ply
format ascii 1.0
comment Created by Blender 2.73 (sub 0) - www.blender.org, source file: 'wooden_door_separated.blend'
element vertex 192
property float x
property float y
property float z
property float nx
property float ny
property float nz
property uchar red
property uchar green
property uchar blue
element face 48
property list uchar uint vertex_indices
end_header
1.000000 -1.000002 1.000000 0.000000 -1.000000 -0.000002 77 71 63
-1.000000 -1.000002 1.000000 0.000000 -1.000000 -0.000002 77 71 63
-1.000000 -0.999998 -1.000000 0.000000 -1.000000 -0.000002 77 71 63
1.000000 -0.999998 -1.000000 0.000000 -1.000000 -0.000002 77 71 63
1.000000 0.999998 1.000001 -0.000000 1.000000 0.000002 77 71 63
1.000000 1.000002 -1.000000 -0.000000 1.000000 0.000002 77 71 63
-1.000000 1.000002 -1.000000 -0.000000 1.000000 0.000002 77 71 63
-1.000001 0.999998 0.999999 -0.000000 1.000000 0.000002 77 71 63
1.000000 -1.000002 1.000000 -0.000000 -0.000000 1.000000 77 71 63
1.000000 0.999998 1.000001 -0.000000 -0.000000 1.000000 77 71 63
-1.000001 0.999998 0.999999 -0.000000 -0.000000 1.000000 77 71 63
-1.000000 -1.000002 1.000000 -0.000000 -0.000000 1.000000 77 71 63
-1.000000 -1.000002 1.000000 -1.000000 -0.000000 -0.000000 77 71 63
-1.000001 0.999998 0.999999 -1.000000 -0.000000 -0.000000 77 71 63
-1.000000 1.000002 -1.000000 -1.000000 -0.000000 -0.000000 77 71 63
-1.000000 -0.999998 -1.000000 -1.000000 -0.000000 -0.000000 77 71 63
-1.000000 -0.999998 -1.000000 0.000000 -0.000000 -1.000000 77 71 63
-1.000000 1.000002 -1.000000 0.000000 -0.000000 -1.000000 77 71 63
1.000000 1.000002 -1.000000 0.000000 -0.000000 -1.000000 77 71 63
1.000000 -0.999998 -1.000000 0.000000 -0.000000 -1.000000 77 71 63
1.000000 0.999998 1.000001 1.000000 0.000000 0.000000 77 71 63
1.000000 -1.000002 1.000000 1.000000 0.000000 0.000000 77 71 63
1.000000 -0.999998 -1.000000 1.000000 0.000000 0.000000 77 71 63
1.000000 1.000002 -1.000000 1.000000 0.000000 0.000000 77 71 63
0.674758 4.374261 0.072305 0.000000 0.000000 -1.000000 255 255 255
0.940310 4.374261 0.072305 0.000000 0.000000 -1.000000 255 255 255
0.940310 4.108709 0.072305 0.000000 0.000000 -1.000000 255 255 255
0.674758 4.108709 0.072305 0.000000 0.000000 -1.000000 255 255 255
0.940310 4.374261 0.072305 1.000000 -0.000000 0.000000 63 39 23
0.940310 4.374260 0.337856 1.000000 -0.000000 0.000000 63 39 23
0.940310 4.108709 0.337856 1.000000 -0.000000 0.000000 63 39 23
0.940310 4.108709 0.072305 1.000000 -0.000000 0.000000 63 39 23
0.940310 4.374260 0.337856 0.000000 -0.000000 1.000000 63 39 23
0.674758 4.374260 0.337856 0.000000 -0.000000 1.000000 63 39 23
0.674758 4.108709 0.337856 0.000000 -0.000000 1.000000 63 39 23
0.940310 4.108709 0.337856 0.000000 -0.000000 1.000000 63 39 23
0.674758 4.374260 0.337856 -1.000000 0.000000 0.000000 63 39 23
0.674758 4.374261 0.072305 -1.000000 0.000000 0.000000 63 39 23
0.674758 4.108709 0.072305 -1.000000 0.000000 0.000000 63 39 23
0.674758 4.108709 0.337856 -1.000000 0.000000 0.000000 63 39 23
0.674758 4.108709 0.072305 0.000000 -1.000000 -0.000002 63 39 23
0.940310 4.108709 0.072305 0.000000 -1.000000 -0.000002 63 39 23
0.940310 4.108709 0.337856 0.000000 -1.000000 -0.000002 63 39 23
0.674758 4.108709 0.337856 0.000000 -1.000000 -0.000002 63 39 23
0.674758 4.374260 0.337856 0.000000 1.000000 0.000002 63 39 23
0.940310 4.374260 0.337856 0.000000 1.000000 0.000002 63 39 23
0.940310 4.374261 0.072305 0.000000 1.000000 0.000002 63 39 23
0.674758 4.374261 0.072305 0.000000 1.000000 0.000002 63 39 23
0.600000 7.440226 -0.184881 0.000000 -0.000000 -1.000000 63 39 23
1.000000 7.440226 -0.184881 0.000000 -0.000000 -1.000000 63 39 23
1.000000 0.840806 -0.184881 0.000000 -0.000000 -1.000000 63 39 23
0.600000 0.840806 -0.184881 0.000000 -0.000000 -1.000000 63 39 23
1.000000 7.440226 -0.184881 1.000000 -0.000000 0.000000 63 39 23
1.000000 7.440225 0.215119 1.000000 -0.000000 0.000000 63 39 23
1.000000 0.840806 0.215119 1.000000 -0.000000 0.000000 63 39 23
1.000000 0.840806 -0.184881 1.000000 -0.000000 0.000000 63 39 23
1.000000 7.440225 0.215119 0.000000 -0.000000 1.000000 63 39 23
0.600000 7.440225 0.215119 0.000000 -0.000000 1.000000 63 39 23
0.600000 0.840806 0.215119 0.000000 -0.000000 1.000000 63 39 23
1.000000 0.840806 0.215119 0.000000 -0.000000 1.000000 63 39 23
0.600000 7.440225 0.215119 -1.000000 0.000000 0.000000 63 39 23
0.600000 7.440226 -0.184881 -1.000000 0.000000 0.000000 63 39 23
0.600000 0.840806 -0.184881 -1.000000 0.000000 0.000000 63 39 23
0.600000 0.840806 0.215119 -1.000000 0.000000 0.000000 63 39 23
0.600000 0.840806 -0.184881 0.000000 -1.000000 -0.000002 63 39 23
1.000000 0.840806 -0.184881 0.000000 -1.000000 -0.000002 63 39 23
1.000000 0.840806 0.215119 0.000000 -1.000000 -0.000002 63 39 23
0.600000 0.840806 0.215119 0.000000 -1.000000 -0.000002 63 39 23
0.600000 7.440225 0.215119 0.000000 1.000000 0.000002 63 39 23
1.000000 7.440225 0.215119 0.000000 1.000000 0.000002 63 39 23
1.000000 7.440226 -0.184881 0.000000 1.000000 0.000002 63 39 23
0.600000 7.440226 -0.184881 0.000000 1.000000 0.000002 63 39 23
-1.000000 6.998134 -0.200000 0.000000 -0.000000 -1.000000 63 39 23
-0.600000 6.998134 -0.200000 0.000000 -0.000000 -1.000000 63 39 23
-0.600000 0.840806 -0.200000 0.000000 -0.000000 -1.000000 63 39 23
-1.000000 0.840806 -0.200000 0.000000 -0.000000 -1.000000 63 39 23
-0.600000 6.998134 -0.200000 1.000000 -0.000000 0.000000 63 39 23
-0.600000 6.998132 0.200000 1.000000 -0.000000 0.000000 63 39 23
-0.600000 0.840806 0.200000 1.000000 -0.000000 0.000000 63 39 23
-0.600000 0.840806 -0.200000 1.000000 -0.000000 0.000000 63 39 23
-0.600000 6.998132 0.200000 0.000000 -0.000000 1.000000 63 39 23
-1.000000 6.998132 0.200000 0.000000 -0.000000 1.000000 63 39 23
-1.000000 0.840806 0.200000 0.000000 -0.000000 1.000000 63 39 23
-0.600000 0.840806 0.200000 0.000000 -0.000000 1.000000 63 39 23
-1.000000 6.998132 0.200000 -1.000000 0.000000 0.000000 63 39 23
-1.000000 6.998134 -0.200000 -1.000000 0.000000 0.000000 63 39 23
-1.000000 0.840806 -0.200000 -1.000000 0.000000 0.000000 63 39 23
-1.000000 0.840806 0.200000 -1.000000 0.000000 0.000000 63 39 23
-1.000000 0.840806 -0.200000 0.000000 -1.000000 -0.000002 63 39 23
-0.600000 0.840806 -0.200000 0.000000 -1.000000 -0.000002 63 39 23
-0.600000 0.840806 0.200000 0.000000 -1.000000 -0.000002 63 39 23
-1.000000 0.840806 0.200000 0.000000 -1.000000 -0.000002 63 39 23
-1.000000 6.998132 0.200000 0.000000 1.000000 0.000004 63 39 23
-0.600000 6.998132 0.200000 0.000000 1.000000 0.000004 63 39 23
-0.600000 6.998134 -0.200000 0.000000 1.000000 0.000004 63 39 23
-1.000000 6.998134 -0.200000 0.000000 1.000000 0.000004 63 39 23
-0.600000 7.142494 -0.131577 0.000000 -0.000000 -1.000000 63 39 23
-0.200000 7.142494 -0.131577 0.000000 -0.000000 -1.000000 63 39 23
-0.200000 0.840806 -0.131577 0.000000 -0.000000 -1.000000 63 39 23
-0.600000 0.840806 -0.131577 0.000000 -0.000000 -1.000000 63 39 23
-0.200000 7.142494 -0.131577 1.000000 -0.000000 0.000000 63 39 23
-0.200000 7.142493 0.268423 1.000000 -0.000000 0.000000 63 39 23
-0.200000 0.840806 0.268423 1.000000 -0.000000 0.000000 63 39 23
-0.200000 0.840806 -0.131577 1.000000 -0.000000 0.000000 63 39 23
-0.200000 7.142493 0.268423 0.000000 -0.000000 1.000000 63 39 23
-0.600000 7.142493 0.268423 0.000000 -0.000000 1.000000 63 39 23
-0.600000 0.840806 0.268423 0.000000 -0.000000 1.000000 63 39 23
-0.200000 0.840806 0.268423 0.000000 -0.000000 1.000000 63 39 23
-0.600000 7.142493 0.268423 -1.000000 0.000000 0.000000 63 39 23
-0.600000 7.142494 -0.131577 -1.000000 0.000000 0.000000 63 39 23
-0.600000 0.840806 -0.131577 -1.000000 0.000000 0.000000 63 39 23
-0.600000 0.840806 0.268423 -1.000000 0.000000 0.000000 63 39 23
-0.600000 0.840806 -0.131577 0.000000 -1.000000 -0.000002 63 39 23
-0.200000 0.840806 -0.131577 0.000000 -1.000000 -0.000002 63 39 23
-0.200000 0.840806 0.268423 0.000000 -1.000000 -0.000002 63 39 23
-0.600000 0.840806 0.268423 0.000000 -1.000000 -0.000002 63 39 23
-0.600000 7.142493 0.268423 0.000000 1.000000 0.000002 63 39 23
-0.200000 7.142493 0.268423 0.000000 1.000000 0.000002 63 39 23
-0.200000 7.142494 -0.131577 0.000000 1.000000 0.000002 63 39 23
-0.600000 7.142494 -0.131577 0.000000 1.000000 0.000002 63 39 23
-0.242907 7.303220 -0.212355 -0.245019 -0.000000 -0.969518 63 39 23
0.144900 7.303220 -0.310363 -0.245019 -0.000000 -0.969518 63 39 23
0.144900 0.840806 -0.310363 -0.245019 -0.000000 -0.969518 63 39 23
-0.242907 0.840806 -0.212355 -0.245019 -0.000000 -0.969518 63 39 23
0.144900 7.303220 -0.310363 0.969518 -0.000000 -0.245019 63 39 23
0.242907 7.303219 0.077445 0.969518 -0.000000 -0.245019 63 39 23
0.242907 0.840806 0.077445 0.969518 -0.000000 -0.245019 63 39 23
0.144900 0.840806 -0.310363 0.969518 -0.000000 -0.245019 63 39 23
0.242907 7.303219 0.077445 0.245019 0.000000 0.969518 63 39 23
-0.144900 7.303219 0.175452 0.245019 0.000000 0.969518 63 39 23
-0.144900 0.840806 0.175452 0.245019 0.000000 0.969518 63 39 23
0.242907 0.840806 0.077445 0.245019 0.000000 0.969518 63 39 23
-0.144900 7.303219 0.175452 -0.969518 0.000000 0.245019 63 39 23
-0.242907 7.303220 -0.212355 -0.969518 0.000000 0.245019 63 39 23
-0.242907 0.840806 -0.212355 -0.969518 0.000000 0.245019 63 39 23
-0.144900 0.840806 0.175452 -0.969518 0.000000 0.245019 63 39 23
-0.242907 0.840806 -0.212355 0.000000 -1.000000 -0.000002 63 39 23
0.144900 0.840806 -0.310363 0.000000 -1.000000 -0.000002 63 39 23
0.242907 0.840806 0.077445 0.000000 -1.000000 -0.000002 63 39 23
-0.144900 0.840806 0.175452 0.000000 -1.000000 -0.000002 63 39 23
-0.144900 7.303219 0.175452 0.000001 1.000000 0.000002 63 39 23
0.242907 7.303219 0.077445 0.000001 1.000000 0.000002 63 39 23
0.144900 7.303220 -0.310363 0.000001 1.000000 0.000002 63 39 23
-0.242907 7.303220 -0.212355 0.000001 1.000000 0.000002 63 39 23
0.200000 7.396535 -0.363768 0.000000 -0.000000 -1.000000 63 39 23
0.600000 7.396535 -0.363768 0.000000 -0.000000 -1.000000 63 39 23
0.600000 0.840806 -0.363768 0.000000 -0.000000 -1.000000 63 39 23
0.200000 0.840806 -0.363768 0.000000 -0.000000 -1.000000 63 39 23
0.600000 7.396535 -0.363768 1.000000 -0.000000 0.000000 63 39 23
0.600000 7.396534 0.036232 1.000000 -0.000000 0.000000 63 39 23
0.600000 0.840806 0.036232 1.000000 -0.000000 0.000000 63 39 23
0.600000 0.840806 -0.363768 1.000000 -0.000000 0.000000 63 39 23
0.600000 7.396534 0.036232 0.000000 0.000000 1.000000 63 39 23
0.200000 7.396534 0.036232 0.000000 0.000000 1.000000 63 39 23
0.200000 0.840806 0.036232 0.000000 0.000000 1.000000 63 39 23
0.600000 0.840806 0.036232 0.000000 0.000000 1.000000 63 39 23
0.200000 7.396534 0.036232 -1.000000 0.000000 0.000000 63 39 23
0.200000 7.396535 -0.363768 -1.000000 0.000000 0.000000 63 39 23
0.200000 0.840806 -0.363768 -1.000000 0.000000 0.000000 63 39 23
0.200000 0.840806 0.036232 -1.000000 0.000000 0.000000 63 39 23
0.200000 0.840806 -0.363768 0.000000 -1.000000 -0.000002 63 39 23
0.600000 0.840806 -0.363768 0.000000 -1.000000 -0.000002 63 39 23
0.600000 0.840806 0.036232 0.000000 -1.000000 -0.000002 63 39 23
0.200000 0.840806 0.036232 0.000000 -1.000000 -0.000002 63 39 23
0.200000 7.396534 0.036232 0.000000 1.000000 0.000002 63 39 23
0.600000 7.396534 0.036232 0.000000 1.000000 0.000002 63 39 23
0.600000 7.396535 -0.363768 0.000000 1.000000 0.000002 63 39 23
0.200000 7.396535 -0.363768 0.000000 1.000000 0.000002 63 39 23
0.674758 4.374261 -0.327627 0.000000 0.000000 -1.000000 63 39 23
0.940309 4.374261 -0.327627 0.000000 0.000000 -1.000000 63 39 23
0.940309 4.108709 -0.327627 0.000000 0.000000 -1.000000 63 39 23
0.674758 4.108709 -0.327627 0.000000 0.000000 -1.000000 63 39 23
0.940309 4.374261 -0.327627 1.000000 -0.000000 0.000000 63 39 23
0.940309 4.374261 -0.062075 1.000000 -0.000000 0.000000 63 39 23
0.940309 4.108709 -0.062075 1.000000 -0.000000 0.000000 63 39 23
0.940309 4.108709 -0.327627 1.000000 -0.000000 0.000000 63 39 23
0.940309 4.374261 -0.062075 0.000000 -0.000000 1.000000 255 255 255
0.674758 4.374261 -0.062075 0.000000 -0.000000 1.000000 255 255 255
0.674758 4.108709 -0.062075 0.000000 -0.000000 1.000000 255 255 255
0.940309 4.108709 -0.062075 0.000000 -0.000000 1.000000 255 255 255
0.674758 4.374261 -0.062075 -1.000000 0.000000 0.000000 63 39 23
0.674758 4.374261 -0.327627 -1.000000 0.000000 0.000000 63 39 23
0.674758 4.108709 -0.327627 -1.000000 0.000000 0.000000 63 39 23
0.674758 4.108709 -0.062075 -1.000000 0.000000 0.000000 63 39 23
0.674758 4.108709 -0.327627 0.000000 -1.000000 -0.000000 63 39 23
0.940309 4.108709 -0.327627 0.000000 -1.000000 -0.000000 63 39 23
0.940309 4.108709 -0.062075 0.000000 -1.000000 -0.000000 63 39 23
0.674758 4.108709 -0.062075 0.000000 -1.000000 -0.000000 63 39 23
0.674758 4.374261 -0.062075 0.000000 1.000000 -0.000000 63 39 23
0.940309 4.374261 -0.062075 0.000000 1.000000 -0.000000 63 39 23
0.940309 4.374261 -0.327627 0.000000 1.000000 -0.000000 63 39 23
0.674758 4.374261 -0.327627 0.000000 1.000000 -0.000000 63 39 23
4 0 1 2 3
4 4 5 6 7
4 8 9 10 11
4 12 13 14 15
4 16 17 18 19
4 20 21 22 23
4 24 25 26 27
4 28 29 30 31
4 32 33 34 35
4 36 37 38 39
4 40 41 42 43
4 44 45 46 47
4 48 49 50 51
4 52 53 54 55
4 56 57 58 59
4 60 61 62 63
4 64 65 66 67
4 68 69 70 71
4 72 73 74 75
4 76 77 78 79
4 80 81 82 83
4 84 85 86 87
4 88 89 90 91
4 92 93 94 95
4 96 97 98 99
4 100 101 102 103
4 104 105 106 107
4 108 109 110 111
4 112 113 114 115
4 116 117 118 119
4 120 121 122 123
4 124 125 126 127
4 128 129 130 131
4 132 133 134 135
4 136 137 138 139
4 140 141 142 143
4 144 145 146 147
4 148 149 150 151
4 152 153 154 155
4 156 157 158 159
4 160 161 162 163
4 164 165 166 167
4 168 169 170 171
4 172 173 174 175
4 176 177 178 179
4 180 181 182 183
4 184 185 186 187
4 188 189 190 191
