ply
format ascii 1.0
comment Created by Blender 2.73 (sub 0) - www.blender.org, source file: 'wooden_bar_combined.blend'
element vertex 144
property float x
property float y
property float z
property float nx
property float ny
property float nz
property uchar red
property uchar green
property uchar blue
element face 36
property list uchar uint vertex_indices
end_header
1.520292 6.089872 0.320000 -0.000000 0.000000 1.000000 63 39 23
3.098084 5.002064 0.320000 -0.000000 0.000000 1.000000 63 39 23
3.301107 5.255733 0.320000 -0.000000 0.000000 1.000000 63 39 23
1.723314 6.343541 0.320000 -0.000000 0.000000 1.000000 63 39 23
1.723314 6.343541 0.320000 -0.780737 0.624859 -0.000000 255 255 255
1.723314 6.343541 -0.320000 -0.780737 0.624859 -0.000000 255 255 255
1.520292 6.089872 -0.320000 -0.780737 0.624859 -0.000000 255 255 255
1.520292 6.089872 0.320000 -0.780737 0.624859 -0.000000 255 255 255
1.723314 6.343541 -0.320000 0.000000 -0.000000 -1.000000 63 39 23
3.301107 5.255733 -0.320000 0.000000 -0.000000 -1.000000 63 39 23
3.098084 5.002064 -0.320000 0.000000 -0.000000 -1.000000 63 39 23
1.520292 6.089872 -0.320000 0.000000 -0.000000 -1.000000 63 39 23
3.098084 5.002064 0.320000 0.780737 -0.624859 0.000000 63 39 23
3.098084 5.002064 -0.320000 0.780737 -0.624859 0.000000 63 39 23
3.301107 5.255733 -0.320000 0.780737 -0.624859 0.000000 63 39 23
3.301107 5.255733 0.320000 0.780737 -0.624859 0.000000 63 39 23
3.098084 5.002064 0.320000 -0.567618 -0.823292 -0.000000 63 39 23
1.520292 6.089872 0.320000 -0.567618 -0.823292 -0.000000 63 39 23
1.520292 6.089872 -0.320000 -0.567618 -0.823292 -0.000000 63 39 23
3.098084 5.002064 -0.320000 -0.567618 -0.823292 -0.000000 63 39 23
3.301107 5.255733 -0.320000 0.567618 0.823292 0.000000 63 39 23
1.723314 6.343541 -0.320000 0.567618 0.823292 0.000000 63 39 23
1.723314 6.343541 0.320000 0.567618 0.823292 0.000000 63 39 23
3.301107 5.255733 0.320000 0.567618 0.823292 0.000000 63 39 23
1.592854 6.913563 -0.400000 0.000000 0.000000 -1.000000 63 39 23
3.282179 6.859445 -0.400000 0.000000 0.000000 -1.000000 63 39 23
3.282179 6.059444 -0.400000 0.000000 0.000000 -1.000000 63 39 23
1.592854 6.113563 -0.400000 0.000000 0.000000 -1.000000 63 39 23
3.282179 6.859445 -0.400000 1.000000 -0.000000 0.000000 63 39 23
3.282179 6.859445 0.400000 1.000000 -0.000000 0.000000 63 39 23
3.282178 6.059444 0.400000 1.000000 -0.000000 0.000000 63 39 23
3.282179 6.059444 -0.400000 1.000000 -0.000000 0.000000 63 39 23
-1.577122 6.810129 0.400000 0.000000 -0.000000 1.000000 63 39 23
-3.057773 6.859445 0.400000 0.000000 -0.000000 1.000000 63 39 23
-3.057773 6.059445 0.400000 0.000000 -0.000000 1.000000 63 39 23
-1.577122 6.010129 0.400000 0.000000 -0.000000 1.000000 63 39 23
-3.057773 6.859445 0.400000 -1.000000 0.000000 0.000000 63 39 23
-3.057773 6.859445 -0.400000 -1.000000 0.000000 0.000000 63 39 23
-3.057773 6.059445 -0.400000 -1.000000 0.000000 0.000000 63 39 23
-3.057773 6.059445 0.400000 -1.000000 0.000000 0.000000 63 39 23
1.592854 6.113563 -0.400000 -0.032019 -0.999487 -0.000000 63 39 23
3.282179 6.059444 -0.400000 -0.032019 -0.999487 -0.000000 63 39 23
3.282178 6.059444 0.400000 -0.032019 -0.999487 -0.000000 63 39 23
1.592854 6.113563 0.400000 -0.032019 -0.999487 -0.000000 63 39 23
1.592854 6.913563 0.400000 0.032019 0.999487 0.000000 63 39 23
3.282179 6.859445 0.400000 0.032019 0.999487 0.000000 63 39 23
3.282179 6.859445 -0.400000 0.032019 0.999487 0.000000 63 39 23
1.592854 6.913563 -0.400000 0.032019 0.999487 0.000000 63 39 23
-3.057773 6.859445 0.400000 0.033288 0.999446 0.000000 63 39 23
-1.577122 6.810129 0.400000 0.033288 0.999446 0.000000 63 39 23
-1.577122 6.810129 -0.400000 0.033288 0.999446 0.000000 63 39 23
-3.057773 6.859445 -0.400000 0.033288 0.999446 0.000000 63 39 23
-1.577122 6.810129 0.400000 0.041894 0.999122 0.000000 63 39 23
0.007866 6.743670 0.331820 0.041894 0.999122 0.000000 63 39 23
0.007866 6.743670 -0.468180 0.041894 0.999122 0.000000 63 39 23
-1.577122 6.810129 -0.400000 0.041894 0.999122 0.000000 63 39 23
0.007866 6.743670 0.331820 -0.106579 0.994304 0.000000 63 39 23
1.592854 6.913563 0.400000 -0.106579 0.994304 0.000000 63 39 23
1.592854 6.913563 -0.400000 -0.106579 0.994304 0.000000 63 39 23
0.007866 6.743670 -0.468180 -0.106579 0.994304 0.000000 63 39 23
-3.057773 6.059445 -0.400000 -0.033289 -0.999446 0.000000 63 39 23
-1.577122 6.010128 -0.400000 -0.033289 -0.999446 0.000000 63 39 23
-1.577122 6.010129 0.400000 -0.033289 -0.999446 0.000000 63 39 23
-3.057773 6.059445 0.400000 -0.033289 -0.999446 0.000000 63 39 23
-1.577122 6.010128 -0.400000 -0.041894 -0.999122 0.000000 63 39 23
0.007866 5.943670 -0.468180 -0.041894 -0.999122 0.000000 63 39 23
0.007866 5.943669 0.331820 -0.041894 -0.999122 0.000000 63 39 23
-1.577122 6.010129 0.400000 -0.041894 -0.999122 0.000000 63 39 23
0.007866 5.943670 -0.468180 0.106579 -0.994304 -0.000000 63 39 23
1.592854 6.113563 -0.400000 0.106579 -0.994304 -0.000000 63 39 23
1.592854 6.113563 0.400000 0.106579 -0.994304 -0.000000 63 39 23
0.007866 5.943669 0.331820 0.106579 -0.994304 -0.000000 63 39 23
3.282179 6.859445 0.400000 -0.000000 -0.000000 1.000000 63 39 23
1.592854 6.913563 0.400000 -0.000000 -0.000000 1.000000 63 39 23
1.592854 6.113563 0.400000 -0.000000 -0.000000 1.000000 63 39 23
3.282178 6.059444 0.400000 -0.000000 -0.000000 1.000000 63 39 23
1.592854 6.913563 0.400000 -0.042976 -0.000000 0.999076 63 39 23
0.007866 6.743670 0.331820 -0.042976 -0.000000 0.999076 63 39 23
0.007866 5.943669 0.331820 -0.042976 -0.000000 0.999076 63 39 23
1.592854 6.113563 0.400000 -0.042976 -0.000000 0.999076 63 39 23
0.007866 6.743670 0.331820 0.042976 0.000000 0.999076 63 39 23
-1.577122 6.810129 0.400000 0.042976 0.000000 0.999076 63 39 23
-1.577122 6.010129 0.400000 0.042976 0.000000 0.999076 63 39 23
0.007866 5.943669 0.331820 0.042976 0.000000 0.999076 63 39 23
-3.057773 6.859445 -0.400000 0.000000 0.000000 -1.000000 63 39 23
-1.577122 6.810129 -0.400000 0.000000 0.000000 -1.000000 63 39 23
-1.577122 6.010128 -0.400000 0.000000 0.000000 -1.000000 63 39 23
-3.057773 6.059445 -0.400000 0.000000 0.000000 -1.000000 63 39 23
-1.577122 6.810129 -0.400000 -0.042976 0.000000 -0.999076 63 39 23
0.007866 6.743670 -0.468180 -0.042976 0.000000 -0.999076 63 39 23
0.007866 5.943670 -0.468180 -0.042976 0.000000 -0.999076 63 39 23
-1.577122 6.010128 -0.400000 -0.042976 0.000000 -0.999076 63 39 23
0.007866 6.743670 -0.468180 0.042976 0.000000 -0.999076 63 39 23
1.592854 6.913563 -0.400000 0.042976 0.000000 -0.999076 63 39 23
1.592854 6.113563 -0.400000 0.042976 0.000000 -0.999076 63 39 23
0.007866 5.943670 -0.468180 0.042976 0.000000 -0.999076 63 39 23
-3.301102 5.255733 -0.320000 -0.000000 -0.000000 -1.000000 63 39 23
-1.723310 6.343540 -0.320000 -0.000000 -0.000000 -1.000000 63 39 23
-1.520288 6.089872 -0.320000 -0.000000 -0.000000 -1.000000 63 39 23
-3.098080 5.002064 -0.320000 -0.000000 -0.000000 -1.000000 63 39 23
-1.723310 6.343540 -0.320000 0.780737 0.624859 0.000000 255 255 255
-1.723310 6.343540 0.320000 0.780737 0.624859 0.000000 255 255 255
-1.520288 6.089872 0.320000 0.780737 0.624859 0.000000 255 255 255
-1.520288 6.089872 -0.320000 0.780737 0.624859 0.000000 255 255 255
-1.723310 6.343540 0.320000 0.000000 -0.000000 1.000000 63 39 23
-3.301102 5.255733 0.320000 0.000000 -0.000000 1.000000 63 39 23
-3.098080 5.002064 0.320000 0.000000 -0.000000 1.000000 63 39 23
-1.520288 6.089872 0.320000 0.000000 -0.000000 1.000000 63 39 23
-3.301102 5.255733 0.320000 -0.780738 -0.624859 0.000000 63 39 23
-3.301102 5.255733 -0.320000 -0.780738 -0.624859 0.000000 63 39 23
-3.098080 5.002064 -0.320000 -0.780738 -0.624859 0.000000 63 39 23
-3.098080 5.002064 0.320000 -0.780738 -0.624859 0.000000 63 39 23
-3.098080 5.002064 -0.320000 0.567618 -0.823292 -0.000000 63 39 23
-1.520288 6.089872 -0.320000 0.567618 -0.823292 -0.000000 63 39 23
-1.520288 6.089872 0.320000 0.567618 -0.823292 -0.000000 63 39 23
-3.098080 5.002064 0.320000 0.567618 -0.823292 -0.000000 63 39 23
-3.301102 5.255733 0.320000 -0.567618 0.823292 0.000000 63 39 23
-1.723310 6.343540 0.320000 -0.567618 0.823292 0.000000 63 39 23
-1.723310 6.343540 -0.320000 -0.567618 0.823292 0.000000 63 39 23
-3.301102 5.255733 -0.320000 -0.567618 0.823292 0.000000 63 39 23
1.000000 -1.000000 1.000000 0.000000 -1.000000 0.000000 77 71 63
-1.000000 -1.000000 1.000000 0.000000 -1.000000 0.000000 77 71 63
-1.000000 -1.000000 -1.000000 0.000000 -1.000000 0.000000 77 71 63
1.000001 -1.000000 -1.000000 0.000000 -1.000000 0.000000 77 71 63
0.999999 1.000000 1.000000 -0.000000 1.000000 0.000000 77 71 63
1.000000 1.000000 -1.000000 -0.000000 1.000000 0.000000 77 71 63
-0.999999 1.000000 -1.000000 -0.000000 1.000000 0.000000 77 71 63
-1.000001 1.000000 0.999999 -0.000000 1.000000 0.000000 77 71 63
1.000000 -1.000000 1.000000 -0.000000 0.000000 1.000000 77 71 63
0.999999 1.000000 1.000000 -0.000000 0.000000 1.000000 77 71 63
-1.000001 1.000000 0.999999 -0.000000 0.000000 1.000000 77 71 63
-1.000000 -1.000000 1.000000 -0.000000 0.000000 1.000000 77 71 63
-1.000000 -1.000000 1.000000 -1.000000 0.000000 -0.000000 77 71 63
-1.000001 1.000000 0.999999 -1.000000 0.000000 -0.000000 77 71 63
-0.999999 1.000000 -1.000000 -1.000000 0.000000 -0.000000 77 71 63
-1.000000 -1.000000 -1.000000 -1.000000 0.000000 -0.000000 77 71 63
-1.000000 -1.000000 -1.000000 0.000000 -0.000000 -1.000000 77 71 63
-0.999999 1.000000 -1.000000 0.000000 -0.000000 -1.000000 77 71 63
1.000000 1.000000 -1.000000 0.000000 -0.000000 -1.000000 77 71 63
1.000001 -1.000000 -1.000000 0.000000 -0.000000 -1.000000 77 71 63
0.999999 1.000000 1.000000 1.000000 0.000000 0.000000 77 71 63
1.000000 -1.000000 1.000000 1.000000 0.000000 0.000000 77 71 63
1.000001 -1.000000 -1.000000 1.000000 0.000000 0.000000 77 71 63
1.000000 1.000000 -1.000000 1.000000 0.000000 0.000000 77 71 63
4 0 1 2 3
4 4 5 6 7
4 8 9 10 11
4 12 13 14 15
4 16 17 18 19
4 20 21 22 23
4 24 25 26 27
4 28 29 30 31
4 32 33 34 35
4 36 37 38 39
4 40 41 42 43
4 44 45 46 47
4 48 49 50 51
4 52 53 54 55
4 56 57 58 59
4 60 61 62 63
4 64 65 66 67
4 68 69 70 71
4 72 73 74 75
4 76 77 78 79
4 80 81 82 83
4 84 85 86 87
4 88 89 90 91
4 92 93 94 95
4 96 97 98 99
4 100 101 102 103
4 104 105 106 107
4 108 109 110 111
4 112 113 114 115
4 116 117 118 119
4 120 121 122 123
4 124 125 126 127
4 128 129 130 131
4 132 133 134 135
4 136 137 138 139
4 140 141 142 143
