ply
format ascii 1.0
comment Created by Blender 2.73 (sub 0) - www.blender.org, source file: 'wooden_wall_combined.blend'
element vertex 160
property float x
property float y
property float z
property float nx
property float ny
property float nz
property uchar red
property uchar green
property uchar blue
element face 42
property list uchar uint vertex_indices
end_header
1.000000 -1.000000 1.000000 0.000000 -1.000000 0.000000 77 71 63
-1.000000 -1.000000 1.000000 0.000000 -1.000000 0.000000 77 71 63
-1.000000 -1.000000 -1.000000 0.000000 -1.000000 0.000000 77 71 63
1.000000 -1.000000 -1.000000 0.000000 -1.000000 0.000000 77 71 63
0.999999 1.000000 1.000000 -0.000000 1.000000 0.000000 77 71 63
1.000000 1.000000 -1.000000 -0.000000 1.000000 0.000000 77 71 63
-1.000000 1.000000 -1.000000 -0.000000 1.000000 0.000000 77 71 63
-1.000001 1.000000 0.999999 -0.000000 1.000000 0.000000 77 71 63
1.000000 -1.000000 1.000000 -0.000000 -0.000000 1.000000 77 71 63
0.999999 1.000000 1.000000 -0.000000 -0.000000 1.000000 77 71 63
-1.000001 1.000000 0.999999 -0.000000 -0.000000 1.000000 77 71 63
-1.000000 -1.000000 1.000000 -0.000000 -0.000000 1.000000 77 71 63
-1.000000 -1.000000 1.000000 -1.000000 -0.000000 -0.000000 77 71 63
-1.000001 1.000000 0.999999 -1.000000 -0.000000 -0.000000 77 71 63
-1.000000 1.000000 -1.000000 -1.000000 -0.000000 -0.000000 77 71 63
-1.000000 -1.000000 -1.000000 -1.000000 -0.000000 -0.000000 77 71 63
-1.000000 -1.000000 -1.000000 0.000000 -0.000000 -1.000000 77 71 63
-1.000000 1.000000 -1.000000 0.000000 -0.000000 -1.000000 77 71 63
1.000000 1.000000 -1.000000 0.000000 -0.000000 -1.000000 77 71 63
1.000000 -1.000000 -1.000000 0.000000 -0.000000 -1.000000 77 71 63
0.999999 1.000000 1.000000 1.000000 0.000000 0.000000 77 71 63
1.000000 -1.000000 1.000000 1.000000 0.000000 0.000000 77 71 63
1.000000 -1.000000 -1.000000 1.000000 0.000000 0.000000 77 71 63
1.000000 1.000000 -1.000000 1.000000 0.000000 0.000000 77 71 63
-0.373136 2.571970 -0.010237 -0.000000 -0.045211 -0.998977 63 39 23
0.426864 2.571970 -0.010237 -0.000000 -0.045211 -0.998977 63 39 23
0.400000 1.000000 0.060906 -0.000000 -0.045211 -0.998977 63 39 23
-0.400000 1.000000 0.060906 -0.000000 -0.045211 -0.998977 63 39 23
0.426864 2.571970 -0.010237 0.999854 -0.017087 0.000000 63 39 23
0.426864 2.571970 0.789763 0.999854 -0.017087 0.000000 63 39 23
0.400000 1.000000 0.860906 0.999854 -0.017087 0.000000 63 39 23
0.400000 1.000000 0.060906 0.999854 -0.017087 0.000000 63 39 23
0.426864 2.571970 0.789763 0.000000 0.045211 0.998977 63 39 23
-0.373136 2.571970 0.789763 0.000000 0.045211 0.998977 63 39 23
-0.400000 1.000000 0.860906 0.000000 0.045211 0.998977 63 39 23
0.400000 1.000000 0.860906 0.000000 0.045211 0.998977 63 39 23
-0.373136 2.571970 0.789763 -0.999854 0.017087 0.000000 63 39 23
-0.373136 2.571970 -0.010237 -0.999854 0.017087 0.000000 63 39 23
-0.400000 1.000000 0.060906 -0.999854 0.017087 0.000000 63 39 23
-0.400000 1.000000 0.860906 -0.999854 0.017087 0.000000 63 39 23
-0.400000 1.000000 0.060906 0.000000 -1.000000 -0.000000 63 39 23
0.400000 1.000000 0.060906 0.000000 -1.000000 -0.000000 63 39 23
0.400000 1.000000 0.860906 0.000000 -1.000000 -0.000000 63 39 23
-0.400000 1.000000 0.860906 0.000000 -1.000000 -0.000000 63 39 23
-0.400000 7.004943 0.860906 0.000000 1.000000 -0.000000 63 39 23
0.400000 7.004943 0.860906 0.000000 1.000000 -0.000000 63 39 23
0.400000 7.004943 0.060906 0.000000 1.000000 -0.000000 63 39 23
-0.400000 7.004943 0.060906 0.000000 1.000000 -0.000000 63 39 23
-0.400000 7.004943 0.860906 -1.000000 0.000000 0.000000 63 39 23
-0.400000 7.004943 0.060906 -1.000000 0.000000 0.000000 63 39 23
-0.400000 5.609484 0.011114 -1.000000 0.000000 0.000000 63 39 23
-0.400000 5.609484 0.811114 -1.000000 0.000000 0.000000 63 39 23
-0.400000 4.073205 0.098880 -1.000000 0.000000 0.000000 63 39 23
-0.400000 4.073205 0.898880 -1.000000 0.000000 0.000000 63 39 23
-0.400000 4.073205 0.898880 -0.999840 -0.017892 -0.000000 63 39 23
-0.400000 4.073205 0.098880 -0.999840 -0.017892 -0.000000 63 39 23
-0.373136 2.571970 -0.010237 -0.999840 -0.017892 -0.000000 63 39 23
-0.373136 2.571970 0.789763 -0.999840 -0.017892 -0.000000 63 39 23
0.400000 7.004943 0.860906 0.000000 -0.035659 0.999364 63 39 23
-0.400000 7.004943 0.860906 0.000000 -0.035659 0.999364 63 39 23
-0.400000 5.609484 0.811114 0.000000 -0.035659 0.999364 63 39 23
0.400000 5.609484 0.811114 0.000000 -0.035659 0.999364 63 39 23
0.400000 5.609484 0.811114 0.000000 0.057036 0.998372 63 39 23
-0.400000 5.609484 0.811114 0.000000 0.057036 0.998372 63 39 23
-0.400000 4.073205 0.898880 0.000000 0.057036 0.998372 63 39 23
0.400000 4.073205 0.898880 0.000000 0.057036 0.998372 63 39 23
0.400000 4.073205 0.898880 0.000000 -0.072494 0.997369 63 39 23
-0.400000 4.073205 0.898880 0.000000 -0.072494 0.997369 63 39 23
-0.373136 2.571970 0.789763 0.000000 -0.072494 0.997369 63 39 23
0.426864 2.571970 0.789763 0.000000 -0.072494 0.997369 63 39 23
0.400000 7.004943 0.060906 1.000000 -0.000000 0.000000 63 39 23
0.400000 7.004943 0.860906 1.000000 -0.000000 0.000000 63 39 23
0.400000 5.609484 0.811114 1.000000 -0.000000 0.000000 63 39 23
0.400000 5.609484 0.011114 1.000000 -0.000000 0.000000 63 39 23
0.400000 4.073205 0.898880 1.000000 -0.000000 0.000000 63 39 23
0.400000 4.073205 0.098880 1.000000 -0.000000 0.000000 63 39 23
0.400000 4.073205 0.098880 0.999840 0.017892 0.000000 63 39 23
0.400000 4.073205 0.898880 0.999840 0.017892 0.000000 63 39 23
0.426864 2.571970 0.789763 0.999840 0.017892 0.000000 63 39 23
0.426864 2.571970 -0.010237 0.999840 0.017892 0.000000 63 39 23
-0.400000 7.004943 0.060906 0.000000 0.035659 -0.999364 63 39 23
0.400000 7.004943 0.060906 0.000000 0.035659 -0.999364 63 39 23
0.400000 5.609484 0.011114 0.000000 0.035659 -0.999364 63 39 23
-0.400000 5.609484 0.011114 0.000000 0.035659 -0.999364 63 39 23
-0.400000 5.609484 0.011114 -0.000000 -0.057036 -0.998372 63 39 23
0.400000 5.609484 0.011114 -0.000000 -0.057036 -0.998372 63 39 23
0.400000 4.073205 0.098880 -0.000000 -0.057036 -0.998372 63 39 23
-0.400000 4.073205 0.098880 -0.000000 -0.057036 -0.998372 63 39 23
-0.400000 4.073205 0.098880 0.000000 0.072494 -0.997369 63 39 23
0.400000 4.073205 0.098880 0.000000 0.072494 -0.997369 63 39 23
0.426864 2.571970 -0.010237 0.000000 0.072494 -0.997369 63 39 23
-0.373136 2.571970 -0.010237 0.000000 0.072494 -0.997369 63 39 23
-0.373136 2.571970 -0.829728 0.069559 -0.010934 -0.997518 63 39 23
0.426864 2.571970 -0.829728 0.069559 -0.010934 -0.997518 63 39 23
0.400000 1.000000 -0.758585 0.069559 -0.010934 -0.997518 63 39 23
-0.400000 1.000000 -0.870157 0.069559 -0.010934 -0.997518 63 39 23
0.426864 2.571970 -0.829728 0.999854 -0.017087 0.000000 63 39 23
0.426864 2.571970 -0.029728 0.999854 -0.017087 0.000000 63 39 23
0.400000 1.000000 -0.070157 0.999854 -0.017087 0.000000 63 39 23
0.400000 1.000000 -0.758585 0.999854 -0.017087 0.000000 63 39 23
0.426864 2.571970 -0.029728 0.000000 -0.025710 0.999669 63 39 23
-0.373136 2.571970 -0.029728 0.000000 -0.025710 0.999669 63 39 23
-0.400000 1.000000 -0.070157 0.000000 -0.025710 0.999669 63 39 23
0.400000 1.000000 -0.070157 0.000000 -0.025710 0.999669 63 39 23
-0.373136 2.571970 -0.029728 -0.999854 0.017087 0.000000 63 39 23
-0.373136 2.571970 -0.829728 -0.999854 0.017087 0.000000 63 39 23
-0.400000 1.000000 -0.870157 -0.999854 0.017087 0.000000 63 39 23
-0.400000 1.000000 -0.070157 -0.999854 0.017087 0.000000 63 39 23
-0.400000 1.000000 -0.870157 0.000000 -1.000000 -0.000000 63 39 23
0.400000 1.000000 -0.758585 0.000000 -1.000000 -0.000000 63 39 23
0.400000 1.000000 -0.070157 0.000000 -1.000000 -0.000000 63 39 23
-0.400000 1.000000 -0.070157 0.000000 -1.000000 -0.000000 63 39 23
-0.400000 7.004943 -0.070157 0.000000 1.000000 -0.000000 63 39 23
0.400000 7.004943 -0.070157 0.000000 1.000000 -0.000000 63 39 23
0.400000 7.004943 -0.870157 0.000000 1.000000 -0.000000 63 39 23
-0.400000 7.004943 -0.870157 0.000000 1.000000 -0.000000 63 39 23
-0.400000 7.004943 -0.070157 -1.000000 0.000000 0.000000 63 39 23
-0.400000 7.004943 -0.870157 -1.000000 0.000000 0.000000 63 39 23
-0.400000 5.200517 -0.833812 -1.000000 0.000000 0.000000 63 39 23
-0.400000 5.200517 -0.033812 -1.000000 0.000000 0.000000 63 39 23
-0.400000 4.073205 -0.969015 -1.000000 0.000000 0.000000 63 39 23
-0.400000 4.073205 -0.169015 -1.000000 0.000000 0.000000 63 39 23
-0.400000 4.073205 -0.169015 -0.999840 -0.017892 -0.000000 63 39 23
-0.400000 4.073205 -0.969015 -0.999840 -0.017892 -0.000000 63 39 23
-0.373136 2.571970 -0.829728 -0.999840 -0.017892 -0.000000 63 39 23
-0.373136 2.571970 -0.029728 -0.999840 -0.017892 -0.000000 63 39 23
0.400000 7.004943 -0.070157 0.000000 0.020138 0.999797 63 39 23
-0.400000 7.004943 -0.070157 0.000000 0.020138 0.999797 63 39 23
-0.400000 5.200517 -0.033812 0.000000 0.020138 0.999797 63 39 23
0.400000 5.200517 -0.033812 0.000000 0.020138 0.999797 63 39 23
0.400000 5.200517 -0.033812 0.000000 -0.119081 0.992885 63 39 23
-0.400000 5.200517 -0.033812 0.000000 -0.119081 0.992885 63 39 23
-0.400000 4.073205 -0.169015 0.000000 -0.119081 0.992885 63 39 23
0.400000 4.073205 -0.169015 0.000000 -0.119081 0.992885 63 39 23
0.400000 4.073205 -0.169015 0.000000 0.092385 0.995723 63 39 23
-0.400000 4.073205 -0.169015 0.000000 0.092385 0.995723 63 39 23
-0.373136 2.571970 -0.029728 0.000000 0.092385 0.995723 63 39 23
0.426864 2.571970 -0.029728 0.000000 0.092385 0.995723 63 39 23
0.400000 7.004943 -0.870157 1.000000 -0.000000 0.000000 63 39 23
0.400000 7.004943 -0.070157 1.000000 -0.000000 0.000000 63 39 23
0.400000 5.200517 -0.033812 1.000000 -0.000000 0.000000 63 39 23
0.400000 5.200517 -0.833812 1.000000 -0.000000 0.000000 63 39 23
0.400000 4.073205 -0.169015 1.000000 -0.000000 0.000000 63 39 23
0.400000 4.073205 -0.969015 1.000000 -0.000000 0.000000 63 39 23
0.400000 4.073205 -0.969015 0.999840 0.017892 0.000000 63 39 23
0.400000 4.073205 -0.169015 0.999840 0.017892 0.000000 63 39 23
0.426864 2.571970 -0.029728 0.999840 0.017892 0.000000 63 39 23
0.426864 2.571970 -0.829728 0.999840 0.017892 0.000000 63 39 23
-0.400000 7.004943 -0.870157 0.000000 -0.020138 -0.999797 63 39 23
0.400000 7.004943 -0.870157 0.000000 -0.020138 -0.999797 63 39 23
0.400000 5.200517 -0.833812 0.000000 -0.020138 -0.999797 63 39 23
-0.400000 5.200517 -0.833812 0.000000 -0.020138 -0.999797 63 39 23
-0.400000 5.200517 -0.833812 0.000000 0.119081 -0.992885 63 39 23
0.400000 5.200517 -0.833812 0.000000 0.119081 -0.992885 63 39 23
0.400000 4.073205 -0.969015 0.000000 0.119081 -0.992885 63 39 23
-0.400000 4.073205 -0.969015 0.000000 0.119081 -0.992885 63 39 23
-0.400000 4.073205 -0.969015 -0.000000 -0.092385 -0.995723 63 39 23
0.400000 4.073205 -0.969015 -0.000000 -0.092385 -0.995723 63 39 23
0.426864 2.571970 -0.829728 -0.000000 -0.092385 -0.995723 63 39 23
-0.373136 2.571970 -0.829728 -0.000000 -0.092385 -0.995723 63 39 23
4 0 1 2 3
4 4 5 6 7
4 8 9 10 11
4 12 13 14 15
4 16 17 18 19
4 20 21 22 23
4 24 25 26 27
4 28 29 30 31
4 32 33 34 35
4 36 37 38 39
4 40 41 42 43
4 44 45 46 47
4 48 49 50 51
4 51 50 52 53
4 54 55 56 57
4 58 59 60 61
4 62 63 64 65
4 66 67 68 69
4 70 71 72 73
4 73 72 74 75
4 76 77 78 79
4 80 81 82 83
4 84 85 86 87
4 88 89 90 91
4 92 93 94 95
4 96 97 98 99
4 100 101 102 103
4 104 105 106 107
4 108 109 110 111
4 112 113 114 115
4 116 117 118 119
4 119 118 120 121
4 122 123 124 125
4 126 127 128 129
4 130 131 132 133
4 134 135 136 137
4 138 139 140 141
4 141 140 142 143
4 144 145 146 147
4 148 149 150 151
4 152 153 154 155
4 156 157 158 159
