ply
format ascii 1.0
comment Created by Blender 2.79 (sub 0) - www.blender.org, source file: ''
element vertex 24
property float x
property float y
property float z
property float nx
property float ny
property float nz
property uchar red
property uchar green
property uchar blue
element face 6
property list uchar uint vertex_indices
end_header
1.000000 1.000000 -1.000000 0.000000 0.000000 -1.000000 0 255 104
1.000000 -1.000000 -1.000000 0.000000 0.000000 -1.000000 255 250 81
-1.000000 -1.000000 -1.000000 0.000000 0.000000 -1.000000 255 188 112
-1.000000 1.000000 -1.000000 0.000000 0.000000 -1.000000 255 158 65
1.000000 0.999999 1.000000 0.000000 -0.000000 1.000000 255 19 24
-1.000000 1.000000 1.000000 0.000000 -0.000000 1.000000 253 255 0
-1.000000 -1.000000 1.000000 0.000000 -0.000000 1.000000 255 90 236
0.999999 -1.000001 1.000000 0.000000 -0.000000 1.000000 0 11 255
1.000000 1.000000 -1.000000 1.000000 -0.000000 0.000000 0 255 104
1.000000 0.999999 1.000000 1.000000 -0.000000 0.000000 255 4 29
0.999999 -1.000001 1.000000 1.000000 -0.000000 0.000000 0 11 255
1.000000 -1.000000 -1.000000 1.000000 -0.000000 0.000000 255 250 81
1.000000 -1.000000 -1.000000 -0.000000 -1.000000 -0.000000 255 250 81
0.999999 -1.000001 1.000000 -0.000000 -1.000000 -0.000000 0 11 255
-1.000000 -1.000000 1.000000 -0.000000 -1.000000 -0.000000 255 90 236
-1.000000 -1.000000 -1.000000 -0.000000 -1.000000 -0.000000 255 188 112
-1.000000 -1.000000 -1.000000 -1.000000 0.000000 -0.000000 255 188 112
-1.000000 -1.000000 1.000000 -1.000000 0.000000 -0.000000 255 93 236
-1.000000 1.000000 1.000000 -1.000000 0.000000 -0.000000 253 255 21
-1.000000 1.000000 -1.000000 -1.000000 0.000000 -0.000000 255 157 63
1.000000 0.999999 1.000000 0.000000 1.000000 0.000000 255 49 73
1.000000 1.000000 -1.000000 0.000000 1.000000 0.000000 0 255 104
-1.000000 1.000000 -1.000000 0.000000 1.000000 0.000000 255 157 63
-1.000000 1.000000 1.000000 0.000000 1.000000 0.000000 253 255 21
4 0 1 2 3
4 4 5 6 7
4 8 9 10 11
4 12 13 14 15
4 16 17 18 19
4 20 21 22 23
