ply
format ascii 1.0
comment Created by Blender 2.79 (sub 0) - www.blender.org, source file: ''
element vertex 240
property float x
property float y
property float z
property float nx
property float ny
property float nz
property uchar red
property uchar green
property uchar blue
element face 64
property list uchar uint vertex_indices
end_header
0.382683 -0.000000 0.923880 0.541419 0.224263 0.810291 255 247 0
0.707106 -0.000000 0.707107 0.541419 0.224263 0.810291 255 247 0
0.499999 0.500000 0.707107 0.541419 0.224263 0.810291 255 247 0
0.270597 0.270598 0.923880 0.541419 0.224263 0.810291 255 247 0
0.923879 -0.000000 0.382684 0.908663 0.376380 0.180745 255 247 0
1.000000 -0.000000 0.000001 0.908663 0.376380 0.180745 255 247 0
0.707107 0.707107 0.000001 0.908663 0.376380 0.180745 255 247 0
0.653281 0.653281 0.382684 0.908663 0.376380 0.180745 255 247 0
0.923880 -0.000000 -0.382683 0.786152 0.325634 -0.525289 255 247 0
0.707107 -0.000000 -0.707106 0.786152 0.325634 -0.525289 255 247 0
0.500001 0.500000 -0.707106 0.786152 0.325634 -0.525289 255 247 0
0.653282 0.653281 -0.382683 0.786152 0.325634 -0.525289 255 247 0
0.382684 -0.000000 -0.923879 0.194457 0.080547 -0.977598 255 247 0
0.000001 -0.000000 -1.000000 0.194457 0.080547 -0.977598 255 247 0
0.270599 0.270598 -0.923879 0.194457 0.080547 -0.977598 255 247 0
-0.000001 0.000000 1.000000 0.194456 0.080546 0.977599 255 247 0
0.382683 -0.000000 0.923880 0.194456 0.080546 0.977599 255 247 0
0.270597 0.270598 0.923880 0.194456 0.080546 0.977599 255 247 0
0.707106 -0.000000 0.707107 0.786151 0.325634 0.525290 255 247 0
0.923879 -0.000000 0.382684 0.786151 0.325634 0.525290 255 247 0
0.653281 0.653281 0.382684 0.786151 0.325634 0.525290 255 247 0
0.499999 0.500000 0.707107 0.786151 0.325634 0.525290 255 247 0
1.000000 -0.000000 0.000001 0.908663 0.376380 -0.180744 255 247 0
0.923880 -0.000000 -0.382683 0.908663 0.376380 -0.180744 255 247 0
0.653282 0.653281 -0.382683 0.908663 0.376380 -0.180744 255 247 0
0.707107 0.707107 0.000001 0.908663 0.376380 -0.180744 255 247 0
0.707107 -0.000000 -0.707106 0.541420 0.224263 -0.810290 255 247 0
0.382684 -0.000000 -0.923879 0.541420 0.224263 -0.810290 255 247 0
0.270599 0.270598 -0.923879 0.541420 0.224263 -0.810290 255 247 0
0.500001 0.500000 -0.707106 0.541420 0.224263 -0.810290 255 247 0
0.270599 0.270598 -0.923879 0.080547 0.194457 -0.977598 255 247 0
0.000001 -0.000000 -1.000000 0.080547 0.194457 -0.977598 255 247 0
0.000001 0.382683 -0.923880 0.080547 0.194457 -0.977598 255 247 0
-0.000001 0.000000 1.000000 0.080546 0.194457 0.977599 255 247 0
0.270597 0.270598 0.923880 0.080546 0.194457 0.977599 255 247 0
-0.000001 0.382683 0.923880 0.080546 0.194457 0.977599 255 247 0
0.499999 0.500000 0.707107 0.325634 0.786151 0.525290 255 247 0
0.653281 0.653281 0.382684 0.325634 0.786151 0.525290 255 247 0
-0.000000 0.923879 0.382684 0.325634 0.786151 0.525290 255 247 0
-0.000000 0.707107 0.707107 0.325634 0.786151 0.525290 255 247 0
0.707107 0.707107 0.000001 0.376381 0.908663 -0.180744 255 247 0
0.653282 0.653281 -0.382683 0.376381 0.908663 -0.180744 255 247 0
0.000001 0.923879 -0.382683 0.376381 0.908663 -0.180744 255 247 0
0.000000 1.000000 0.000000 0.376381 0.908663 -0.180744 255 247 0
0.500001 0.500000 -0.707106 0.224264 0.541419 -0.810291 255 247 0
0.270599 0.270598 -0.923879 0.224264 0.541419 -0.810291 255 247 0
0.000001 0.382683 -0.923880 0.224264 0.541419 -0.810291 255 247 0
0.000001 0.707107 -0.707107 0.224264 0.541419 -0.810291 255 247 0
0.270597 0.270598 0.923880 0.224262 0.541419 0.810291 255 247 0
0.499999 0.500000 0.707107 0.224262 0.541419 0.810291 255 247 0
-0.000000 0.707107 0.707107 0.224262 0.541419 0.810291 255 247 0
-0.000001 0.382683 0.923880 0.224262 0.541419 0.810291 255 247 0
0.653281 0.653281 0.382684 0.376381 0.908663 0.180745 255 247 0
0.707107 0.707107 0.000001 0.376381 0.908663 0.180745 255 247 0
0.000000 1.000000 0.000000 0.376381 0.908663 0.180745 255 247 0
-0.000000 0.923879 0.382684 0.376381 0.908663 0.180745 255 247 0
0.653282 0.653281 -0.382683 0.325635 0.786151 -0.525289 255 247 0
0.500001 0.500000 -0.707106 0.325635 0.786151 -0.525289 255 247 0
0.000001 0.707107 -0.707107 0.325635 0.786151 -0.525289 255 247 0
0.000001 0.923879 -0.382683 0.325635 0.786151 -0.525289 255 247 0
-0.000000 0.707107 0.707107 -0.325635 0.786151 0.525289 255 247 0
-0.000000 0.923879 0.382684 -0.325635 0.786151 0.525289 255 247 0
-0.653281 0.653281 0.382683 -0.325635 0.786151 0.525289 255 247 0
-0.500000 0.500000 0.707106 -0.325635 0.786151 0.525289 255 247 0
0.000000 1.000000 0.000000 -0.376380 0.908663 -0.180745 255 247 0
0.000001 0.923879 -0.382683 -0.376380 0.908663 -0.180745 255 247 0
-0.653281 0.653281 -0.382684 -0.376380 0.908663 -0.180745 255 247 0
-0.707106 0.707107 -0.000001 -0.376380 0.908663 -0.180745 255 247 0
0.000001 0.707107 -0.707107 -0.224262 0.541419 -0.810291 255 247 0
0.000001 0.382683 -0.923880 -0.224262 0.541419 -0.810291 255 247 0
-0.270597 0.270598 -0.923880 -0.224262 0.541419 -0.810291 255 247 0
-0.499999 0.500000 -0.707107 -0.224262 0.541419 -0.810291 255 247 0
-0.000001 0.382683 0.923880 -0.224264 0.541419 0.810291 255 247 0
-0.000000 0.707107 0.707107 -0.224264 0.541419 0.810291 255 247 0
-0.500000 0.500000 0.707106 -0.224264 0.541419 0.810291 255 247 0
-0.270599 0.270598 0.923879 -0.224264 0.541419 0.810291 255 247 0
-0.000000 0.923879 0.382684 -0.376381 0.908663 0.180744 255 247 0
0.000000 1.000000 0.000000 -0.376381 0.908663 0.180744 255 247 0
-0.707106 0.707107 -0.000001 -0.376381 0.908663 0.180744 255 247 0
-0.653281 0.653281 0.382683 -0.376381 0.908663 0.180744 255 247 0
0.000001 0.923879 -0.382683 -0.325634 0.786151 -0.525290 255 247 0
0.000001 0.707107 -0.707107 -0.325634 0.786151 -0.525290 255 247 0
-0.499999 0.500000 -0.707107 -0.325634 0.786151 -0.525290 255 247 0
-0.653281 0.653281 -0.382684 -0.325634 0.786151 -0.525290 255 247 0
0.000001 0.382683 -0.923880 -0.080546 0.194457 -0.977599 255 247 0
0.000001 -0.000000 -1.000000 -0.080546 0.194457 -0.977599 255 247 0
-0.270597 0.270598 -0.923880 -0.080546 0.194457 -0.977599 255 247 0
-0.000001 0.000000 1.000000 -0.080547 0.194457 0.977599 255 247 0
-0.000001 0.382683 0.923880 -0.080547 0.194457 0.977599 255 247 0
-0.270599 0.270598 0.923879 -0.080547 0.194457 0.977599 255 247 0
-0.270599 0.270598 0.923879 -0.541420 0.224263 0.810290 255 247 0
-0.500000 0.500000 0.707106 -0.541420 0.224263 0.810290 255 247 0
-0.707107 0.000000 0.707106 -0.541420 0.224263 0.810290 255 247 1
-0.382684 0.000000 0.923879 -0.541420 0.224263 0.810290 255 247 0
-0.653281 0.653281 0.382683 -0.908663 0.376381 0.180744 255 247 0
-0.707106 0.707107 -0.000001 -0.908663 0.376381 0.180744 255 247 0
-1.000000 0.000000 -0.000001 -0.908663 0.376381 0.180744 255 247 0
-0.923879 0.000000 0.382683 -0.908663 0.376381 0.180744 255 247 0
-0.653281 0.653281 -0.382684 -0.786151 0.325634 -0.525290 255 247 0
-0.499999 0.500000 -0.707107 -0.786151 0.325634 -0.525290 255 247 0
-0.707106 0.000000 -0.707107 -0.786151 0.325634 -0.525290 255 247 0
-0.923879 0.000000 -0.382684 -0.786151 0.325634 -0.525290 255 247 0
-0.270597 0.270598 -0.923880 -0.194456 0.080547 -0.977599 255 247 0
0.000001 -0.000000 -1.000000 -0.194456 0.080547 -0.977599 255 247 0
-0.382682 0.000000 -0.923880 -0.194456 0.080547 -0.977599 255 247 0
-0.000001 0.000000 1.000000 -0.194457 0.080547 0.977598 255 247 0
-0.270599 0.270598 0.923879 -0.194457 0.080547 0.977598 255 247 0
-0.382684 0.000000 0.923879 -0.194457 0.080547 0.977598 255 247 0
-0.500000 0.500000 0.707106 -0.786151 0.325635 0.525289 255 247 0
-0.653281 0.653281 0.382683 -0.786151 0.325635 0.525289 255 247 0
-0.923879 0.000000 0.382683 -0.786151 0.325635 0.525289 255 247 0
-0.707107 0.000000 0.707106 -0.786151 0.325635 0.525289 255 247 0
-0.707106 0.707107 -0.000001 -0.908663 0.376381 -0.180745 255 247 0
-0.653281 0.653281 -0.382684 -0.908663 0.376381 -0.180745 255 247 0
-0.923879 0.000000 -0.382684 -0.908663 0.376381 -0.180745 255 247 0
-1.000000 0.000000 -0.000001 -0.908663 0.376381 -0.180745 255 247 0
-0.499999 0.500000 -0.707107 -0.541418 0.224263 -0.810291 255 247 0
-0.270597 0.270598 -0.923880 -0.541418 0.224263 -0.810291 255 247 0
-0.382682 0.000000 -0.923880 -0.541418 0.224263 -0.810291 255 247 0
-0.707106 0.000000 -0.707107 -0.541418 0.224263 -0.810291 255 247 0
-0.923879 0.000000 0.382683 -0.908664 -0.376381 0.180744 255 247 0
-1.000000 0.000000 -0.000001 -0.908664 -0.376381 0.180744 255 247 0
-0.707106 -0.707106 -0.000001 -0.908664 -0.376381 0.180744 255 247 0
-0.653282 -0.653281 0.382683 -0.908664 -0.376381 0.180744 255 247 0
-0.923879 0.000000 -0.382684 -0.786151 -0.325634 -0.525290 255 247 0
-0.707106 0.000000 -0.707107 -0.786151 -0.325634 -0.525290 255 247 0
-0.499999 -0.500000 -0.707107 -0.786151 -0.325634 -0.525290 255 247 0
-0.653281 -0.653281 -0.382684 -0.786151 -0.325634 -0.525290 255 247 0
-0.382682 0.000000 -0.923880 -0.194456 -0.080546 -0.977599 255 247 0
0.000001 -0.000000 -1.000000 -0.194456 -0.080546 -0.977599 255 247 0
-0.270597 -0.270598 -0.923880 -0.194456 -0.080546 -0.977599 255 247 0
-0.000001 0.000000 1.000000 -0.194457 -0.080547 0.977598 255 247 0
-0.382684 0.000000 0.923879 -0.194457 -0.080547 0.977598 255 247 0
-0.270599 -0.270598 0.923879 -0.194457 -0.080547 0.977598 255 247 0
-0.707107 0.000000 0.707106 -0.786151 -0.325634 0.525289 255 247 0
-0.923879 0.000000 0.382683 -0.786151 -0.325634 0.525289 255 247 0
-0.653282 -0.653281 0.382683 -0.786151 -0.325634 0.525289 255 247 0
-0.500000 -0.500000 0.707106 -0.786151 -0.325634 0.525289 255 247 0
-1.000000 0.000000 -0.000001 -0.908663 -0.376381 -0.180745 255 247 0
-0.923879 0.000000 -0.382684 -0.908663 -0.376381 -0.180745 255 247 0
-0.653281 -0.653281 -0.382684 -0.908663 -0.376381 -0.180745 255 247 0
-0.707106 -0.707106 -0.000001 -0.908663 -0.376381 -0.180745 255 247 0
-0.707106 0.000000 -0.707107 -0.541419 -0.224263 -0.810291 255 247 0
-0.382682 0.000000 -0.923880 -0.541419 -0.224263 -0.810291 255 247 0
-0.270597 -0.270598 -0.923880 -0.541419 -0.224263 -0.810291 255 247 0
-0.499999 -0.500000 -0.707107 -0.541419 -0.224263 -0.810291 255 247 0
-0.382684 0.000000 0.923879 -0.541420 -0.224263 0.810290 255 247 0
-0.707107 0.000000 0.707106 -0.541420 -0.224263 0.810290 255 247 0
-0.500000 -0.500000 0.707106 -0.541420 -0.224263 0.810290 255 247 0
-0.270599 -0.270598 0.923879 -0.541420 -0.224263 0.810290 255 247 0
-0.000001 0.000000 1.000000 -0.080547 -0.194457 0.977599 255 247 0
-0.270599 -0.270598 0.923879 -0.080547 -0.194457 0.977599 255 247 0
-0.000001 -0.382683 0.923880 -0.080547 -0.194457 0.977599 255 247 0
-0.500000 -0.500000 0.707106 -0.325635 -0.786151 0.525289 255 247 0
-0.653282 -0.653281 0.382683 -0.325635 -0.786151 0.525289 255 247 0
-0.000000 -0.923879 0.382684 -0.325635 -0.786151 0.525289 255 247 0
-0.000001 -0.707107 0.707107 -0.325635 -0.786151 0.525289 255 247 0
-0.707106 -0.707106 -0.000001 -0.376381 -0.908663 -0.180745 255 247 0
-0.653281 -0.653281 -0.382684 -0.376381 -0.908663 -0.180745 255 247 0
0.000000 -0.923879 -0.382683 -0.376381 -0.908663 -0.180745 255 247 0
0.000000 -1.000000 0.000000 -0.376381 -0.908663 -0.180745 255 247 0
-0.499999 -0.500000 -0.707107 -0.224263 -0.541419 -0.810291 255 247 0
-0.270597 -0.270598 -0.923880 -0.224263 -0.541419 -0.810291 255 247 0
0.000001 -0.382683 -0.923880 -0.224263 -0.541419 -0.810291 255 247 0
0.000001 -0.707107 -0.707107 -0.224263 -0.541419 -0.810291 255 247 0
-0.270599 -0.270598 0.923879 -0.224264 -0.541419 0.810291 255 247 0
-0.500000 -0.500000 0.707106 -0.224264 -0.541419 0.810291 255 248 27
-0.000001 -0.707107 0.707107 -0.224264 -0.541419 0.810291 255 247 0
-0.000001 -0.382683 0.923880 -0.224264 -0.541419 0.810291 255 247 0
-0.653282 -0.653281 0.382683 -0.376381 -0.908663 0.180744 255 247 0
-0.707106 -0.707106 -0.000001 -0.376381 -0.908663 0.180744 255 247 0
0.000000 -1.000000 0.000000 -0.376381 -0.908663 0.180744 255 247 0
-0.000000 -0.923879 0.382684 -0.376381 -0.908663 0.180744 255 247 0
-0.653281 -0.653281 -0.382684 -0.325634 -0.786151 -0.525289 255 247 0
-0.499999 -0.500000 -0.707107 -0.325634 -0.786151 -0.525289 255 247 0
0.000001 -0.707107 -0.707107 -0.325634 -0.786151 -0.525289 255 247 0
0.000000 -0.923879 -0.382683 -0.325634 -0.786151 -0.525289 255 247 0
-0.270597 -0.270598 -0.923880 -0.080546 -0.194457 -0.977599 255 247 0
0.000001 -0.000000 -1.000000 -0.080546 -0.194457 -0.977599 255 247 0
0.000001 -0.382683 -0.923880 -0.080546 -0.194457 -0.977599 255 247 0
0.000000 -1.000000 0.000000 0.376381 -0.908663 -0.180744 255 247 0
0.000000 -0.923879 -0.382683 0.376381 -0.908663 -0.180744 255 247 0
0.653282 -0.653281 -0.382683 0.376381 -0.908663 -0.180744 255 247 0
0.707107 -0.707107 0.000001 0.376381 -0.908663 -0.180744 255 247 0
0.000001 -0.707107 -0.707107 0.224264 -0.541419 -0.810291 255 247 0
0.000001 -0.382683 -0.923880 0.224264 -0.541419 -0.810291 255 247 0
0.270599 -0.270598 -0.923879 0.224264 -0.541419 -0.810291 255 247 0
0.500000 -0.500000 -0.707106 0.224264 -0.541419 -0.810291 255 247 0
-0.000001 -0.382683 0.923880 0.224262 -0.541419 0.810291 255 247 0
-0.000001 -0.707107 0.707107 0.224262 -0.541419 0.810291 255 247 0
0.499999 -0.500000 0.707107 0.224262 -0.541419 0.810291 255 247 0
0.270597 -0.270598 0.923880 0.224262 -0.541419 0.810291 255 247 0
-0.000000 -0.923879 0.382684 0.376380 -0.908663 0.180745 255 247 0
0.000000 -1.000000 0.000000 0.376380 -0.908663 0.180745 255 247 0
0.707107 -0.707107 0.000001 0.376380 -0.908663 0.180745 255 247 0
0.653281 -0.653281 0.382684 0.376380 -0.908663 0.180745 255 247 0
0.000000 -0.923879 -0.382683 0.325635 -0.786151 -0.525289 255 247 0
0.000001 -0.707107 -0.707107 0.325635 -0.786151 -0.525289 255 247 0
0.500000 -0.500000 -0.707106 0.325635 -0.786151 -0.525289 255 247 0
0.653282 -0.653281 -0.382683 0.325635 -0.786151 -0.525289 255 247 0
0.000001 -0.382683 -0.923880 0.080547 -0.194457 -0.977599 255 247 0
0.000001 -0.000000 -1.000000 0.080547 -0.194457 -0.977599 255 247 0
0.270599 -0.270598 -0.923879 0.080547 -0.194457 -0.977599 255 247 0
-0.000001 0.000000 1.000000 0.080546 -0.194457 0.977599 255 247 0
-0.000001 -0.382683 0.923880 0.080546 -0.194457 0.977599 255 247 0
0.270597 -0.270598 0.923880 0.080546 -0.194457 0.977599 255 247 0
-0.000001 -0.707107 0.707107 0.325634 -0.786151 0.525290 255 247 0
-0.000000 -0.923879 0.382684 0.325634 -0.786151 0.525290 255 247 0
0.653281 -0.653281 0.382684 0.325634 -0.786151 0.525290 255 247 0
0.499999 -0.500000 0.707107 0.325634 -0.786151 0.525290 255 247 0
0.270597 -0.270598 0.923880 0.541418 -0.224263 0.810291 255 249 49
0.499999 -0.500000 0.707107 0.541418 -0.224263 0.810291 255 247 0
0.707106 -0.000000 0.707107 0.541418 -0.224263 0.810291 255 247 13
0.382683 -0.000000 0.923880 0.541418 -0.224263 0.810291 255 247 0
1.000000 -0.000000 0.000001 0.908663 -0.376381 0.180745 255 247 0
0.923879 -0.000000 0.382684 0.908663 -0.376381 0.180745 255 247 0
0.653281 -0.653281 0.382684 0.908663 -0.376381 0.180745 255 247 0
0.707107 -0.707107 0.000001 0.908663 -0.376381 0.180745 255 247 0
0.653282 -0.653281 -0.382683 0.786152 -0.325635 -0.525289 255 247 0
0.500000 -0.500000 -0.707106 0.786152 -0.325635 -0.525289 255 247 0
0.707107 -0.000000 -0.707106 0.786152 -0.325635 -0.525289 255 247 0
0.923880 -0.000000 -0.382683 0.786152 -0.325635 -0.525289 255 247 0
0.270599 -0.270598 -0.923879 0.194457 -0.080547 -0.977598 255 247 0
0.000001 -0.000000 -1.000000 0.194457 -0.080547 -0.977598 255 247 0
0.382684 -0.000000 -0.923879 0.194457 -0.080547 -0.977598 255 247 0
-0.000001 0.000000 1.000000 0.194456 -0.080546 0.977599 255 247 0
0.270597 -0.270598 0.923880 0.194456 -0.080546 0.977599 255 247 0
0.382683 -0.000000 0.923880 0.194456 -0.080546 0.977599 255 247 0
0.499999 -0.500000 0.707107 0.786151 -0.325635 0.525290 255 247 0
0.653281 -0.653281 0.382684 0.786151 -0.325635 0.525290 255 247 0
0.923879 -0.000000 0.382684 0.786151 -0.325635 0.525290 255 247 0
0.707106 -0.000000 0.707107 0.786151 -0.325635 0.525290 255 247 0
0.923880 -0.000000 -0.382683 0.908663 -0.376381 -0.180744 255 247 0
1.000000 -0.000000 0.000001 0.908663 -0.376381 -0.180744 255 247 0
0.707107 -0.707107 0.000001 0.908663 -0.376381 -0.180744 255 247 0
0.653282 -0.653281 -0.382683 0.908663 -0.376381 -0.180744 255 247 0
0.500000 -0.500000 -0.707106 0.541420 -0.224263 -0.810290 255 247 0
0.270599 -0.270598 -0.923879 0.541420 -0.224263 -0.810290 255 247 0
0.382684 -0.000000 -0.923879 0.541420 -0.224263 -0.810290 255 247 0
0.707107 -0.000000 -0.707106 0.541420 -0.224263 -0.810290 255 247 0
4 0 1 2 3
4 4 5 6 7
4 8 9 10 11
3 12 13 14
3 15 16 17
4 18 19 20 21
4 22 23 24 25
4 26 27 28 29
3 30 31 32
3 33 34 35
4 36 37 38 39
4 40 41 42 43
4 44 45 46 47
4 48 49 50 51
4 52 53 54 55
4 56 57 58 59
4 60 61 62 63
4 64 65 66 67
4 68 69 70 71
4 72 73 74 75
4 76 77 78 79
4 80 81 82 83
3 84 85 86
3 87 88 89
4 90 91 92 93
4 94 95 96 97
4 98 99 100 101
3 102 103 104
3 105 106 107
4 108 109 110 111
4 112 113 114 115
4 116 117 118 119
4 120 121 122 123
4 124 125 126 127
3 128 129 130
3 131 132 133
4 134 135 136 137
4 138 139 140 141
4 142 143 144 145
4 146 147 148 149
3 150 151 152
4 153 154 155 156
4 157 158 159 160
4 161 162 163 164
4 165 166 167 168
4 169 170 171 172
4 173 174 175 176
3 177 178 179
4 180 181 182 183
4 184 185 186 187
4 188 189 190 191
4 192 193 194 195
4 196 197 198 199
3 200 201 202
3 203 204 205
4 206 207 208 209
4 210 211 212 213
4 214 215 216 217
4 218 219 220 221
3 222 223 224
3 225 226 227
4 228 229 230 231
4 232 233 234 235
4 236 237 238 239
