ply
format ascii 1.0
comment Created by Blender 2.79 (sub 0) - www.blender.org, source file: ''
element vertex 470
property float x
property float y
property float z
property float nx
property float ny
property float nz
property uchar red
property uchar green
property uchar blue
element face 128
property list uchar uint vertex_indices
end_header
-0.400054 0.263034 3.939516 0.267513 0.915934 0.299169 255 255 255
-0.421049 0.021417 4.699447 0.267513 0.915934 0.299169 255 255 254
-0.413696 0.018701 4.699762 0.267513 0.915934 0.299169 255 255 254
-0.232111 0.181633 4.039985 0.267513 0.915934 0.299169 255 255 255
-0.232111 0.181633 4.039985 0.876795 0.352012 0.327595 255 255 255
-0.413696 0.018701 4.699762 0.876795 0.352012 0.327595 255 255 255
-0.410417 0.011576 4.699943 0.876795 0.352012 0.327595 255 255 255
-0.133250 0.016092 3.951963 0.876795 0.352012 0.327595 255 255 255
-0.133250 0.016092 3.951963 0.901264 -0.277355 0.332863 255 255 255
-0.410417 0.011576 4.699943 0.901264 -0.277355 0.332863 255 255 255
-0.413133 0.004217 4.699883 0.901264 -0.277355 0.332863 255 255 255
-0.219018 -0.155130 4.042803 0.901264 -0.277355 0.332863 255 255 255
-0.219018 -0.155130 4.042803 0.337621 -0.887272 0.314261 255 255 255
-0.413133 0.004217 4.699883 0.337621 -0.887272 0.314261 255 255 255
-0.420253 0.000933 4.699618 0.337621 -0.887272 0.314261 255 255 255
-0.380069 -0.250991 3.943818 0.337621 -0.887272 0.314261 255 255 255
-0.380069 -0.250991 3.943818 -0.291255 -0.911934 0.289046 255 255 255
-0.420253 0.000933 4.699618 -0.291255 -0.911934 0.289046 255 255 255
-0.427606 0.003649 4.699303 -0.291255 -0.911934 0.289046 255 255 255
-0.555518 -0.168326 4.029311 -0.291255 -0.911934 0.289046 255 255 255
-0.555518 -0.168326 4.029311 -0.900536 -0.348012 0.260619 255 255 255
-0.427606 0.003649 4.699303 -0.900536 -0.348012 0.260619 254 254 253
-0.430885 0.010774 4.699122 -0.900536 -0.348012 0.260619 254 254 253
-0.646874 -0.004050 3.931369 -0.900536 -0.348012 0.260619 255 255 255
-0.568611 0.168437 4.026493 -0.361362 0.891272 0.273954 255 255 255
-0.428169 0.018133 4.699182 -0.361362 0.891272 0.273954 255 255 255
-0.421049 0.021417 4.699447 -0.361362 0.891272 0.273954 255 255 255
-0.400054 0.263034 3.939516 -0.361362 0.891272 0.273954 255 255 255
-0.646874 -0.004050 3.931369 -0.925006 0.281354 0.255352 255 255 255
-0.430885 0.010774 4.699122 -0.925006 0.281354 0.255352 254 254 253
-0.428169 0.018133 4.699182 -0.925006 0.281354 0.255352 254 254 253
-0.568611 0.168437 4.026493 -0.925006 0.281354 0.255352 255 255 255
-0.772538 0.453262 0.866743 0.051157 -0.347069 -0.936443 52 129 4
-0.292056 0.728099 0.791130 0.051157 -0.347069 -0.936443 55 130 8
0.200855 0.491434 0.905772 0.051157 -0.347069 -0.936443 56 130 9
0.200855 0.491434 0.905772 -0.302505 -0.019737 -0.952944 56 130 9
0.479729 0.013772 0.827138 -0.302505 -0.019737 -0.952944 57 145 3
0.238730 -0.482719 0.913925 -0.302505 -0.019737 -0.952944 52 129 4
0.238730 -0.482719 0.913925 0.024666 0.334295 -0.942146 52 129 4
-0.234246 -0.758820 0.803575 0.024666 0.334295 -0.942146 52 129 4
-0.734663 -0.520890 0.874896 0.024666 0.334295 -0.942146 52 129 4
-0.734663 -0.520890 0.874896 0.378328 0.006962 -0.925645 52 129 4
-1.006031 -0.044493 0.767566 0.378328 0.006962 -0.925645 52 129 4
-0.772538 0.453262 0.866743 0.378328 0.006962 -0.925645 52 129 4
-0.772538 0.453262 0.866743 0.040328 -0.006794 -0.999163 52 129 4
0.200855 0.491434 0.905772 0.040328 -0.006794 -0.999163 56 130 9
0.238730 -0.482719 0.913925 0.040328 -0.006794 -0.999163 52 129 4
-0.734663 -0.520890 0.874896 0.040328 -0.006794 -0.999163 52 129 4
-0.410417 0.011576 4.699943 -0.040400 0.006751 0.999161 65 167 0
-0.413696 0.018701 4.699762 -0.040400 0.006751 0.999161 65 167 0
-0.421049 0.021417 4.699447 -0.040400 0.006751 0.999161 65 167 0
-0.421049 0.021417 4.699447 -0.040259 0.006764 0.999166 65 167 0
-0.428169 0.018133 4.699182 -0.040259 0.006764 0.999166 65 167 0
-0.430885 0.010774 4.699122 -0.040259 0.006764 0.999166 65 167 0
-0.430885 0.010774 4.699122 -0.040322 0.006787 0.999164 65 167 0
-0.427606 0.003649 4.699303 -0.040322 0.006787 0.999164 65 167 0
-0.420253 0.000933 4.699618 -0.040322 0.006787 0.999164 65 167 0
-0.420253 0.000933 4.699618 -0.040340 0.006794 0.999163 65 167 0
-0.413133 0.004217 4.699883 -0.040340 0.006794 0.999163 65 167 0
-0.410417 0.011576 4.699943 -0.040340 0.006794 0.999163 65 167 0
-0.410417 0.011576 4.699943 -0.040329 0.006829 0.999163 65 167 0
-0.421049 0.021417 4.699447 -0.040329 0.006829 0.999163 65 167 0
-0.430885 0.010774 4.699122 -0.040329 0.006829 0.999163 65 167 0
-0.430885 0.010774 4.699122 -0.040327 0.006782 0.999163 65 167 0
-0.420253 0.000933 4.699618 -0.040327 0.006782 0.999163 65 167 0
-0.410417 0.011576 4.699943 -0.040327 0.006782 0.999163 65 167 0
-0.302375 1.024448 0.758630 0.292128 0.823333 0.486605 65 167 0
-0.313313 0.620073 1.426937 0.292128 0.823333 0.486605 65 167 0
0.104548 0.419265 1.538305 0.292128 0.823333 0.486605 65 167 0
0.388648 0.693129 0.881911 0.292128 0.823333 0.486605 65 167 0
-0.322289 0.881908 1.394725 0.293593 0.840983 0.454478 65 167 0
-0.334570 0.512046 2.062743 0.293593 0.840983 0.454478 65 167 0
0.008241 0.347097 2.170839 0.293593 0.840983 0.454478 65 167 0
0.270625 0.597463 1.513728 0.293593 0.840983 0.454478 65 167 0
-0.341643 0.724928 2.030942 0.297458 0.864197 0.405811 65 167 0
-0.355826 0.404020 2.698550 0.297458 0.864197 0.405811 65 167 0
-0.088067 0.274928 2.803372 0.297458 0.864197 0.405811 65 167 0
0.143519 0.491966 2.145246 0.297458 0.864197 0.405811 65 167 0
-0.361061 0.569629 2.667144 0.295960 0.886725 0.355143 65 167 0
-0.377083 0.295993 3.334357 0.295960 0.886725 0.355143 255 255 255
-0.184374 0.202759 3.435906 0.295960 0.886725 0.355143 255 255 255
0.017469 0.387613 2.776798 0.295960 0.886725 0.355143 65 167 0
-0.380781 0.422076 3.303282 0.279931 0.908741 0.309561 255 255 255
-0.398339 0.187967 3.970163 0.279931 0.908741 0.309561 255 255 255
-0.280681 0.130591 4.068440 0.279931 0.908741 0.309561 255 255 255
-0.103707 0.288534 3.408510 0.279931 0.908741 0.309561 255 255 255
0.388648 0.693129 0.881911 0.773300 0.377983 0.509054 65 167 0
0.104548 0.419265 1.538305 0.773300 0.377983 0.509054 65 167 0
0.341848 0.013687 1.457504 0.773300 0.377983 0.509054 65 167 0
0.777263 0.025188 0.809001 0.773300 0.377983 0.509054 65 167 0
0.270625 0.597463 1.513728 0.792378 0.379332 0.477749 65 167 0
0.008241 0.347097 2.170839 0.792378 0.379332 0.477749 65 167 0
0.203968 0.013602 2.087869 0.792378 0.379332 0.477749 65 167 0
0.604895 0.023750 1.437984 0.792378 0.379332 0.477749 65 167 0
0.143519 0.491966 2.145246 0.817645 0.382737 0.430081 65 167 0
-0.088067 0.274928 2.803372 0.817645 0.382737 0.430081 65 167 0
0.066087 0.013517 2.718235 0.817645 0.382737 0.430081 65 167 0
0.418100 0.021747 2.066388 0.817645 0.382737 0.430081 65 167 0
0.017469 0.387613 2.776798 0.842737 0.380655 0.380653 65 167 0
-0.184374 0.202759 3.435906 0.842737 0.380655 0.380653 255 255 255
-0.071793 0.013432 3.348600 0.842737 0.380655 0.380653 255 255 255
0.232983 0.019810 2.694860 0.842737 0.380655 0.380653 65 167 0
-0.103707 0.288534 3.408510 0.868167 0.364298 0.337006 255 255 255
-0.280681 0.130591 4.068440 0.868167 0.364298 0.337006 255 255 255
-0.209674 0.013347 3.978966 0.868167 0.364298 0.337006 255 255 255
0.055606 0.018176 3.323642 0.868167 0.364298 0.337006 255 255 255
0.777263 0.025188 0.809001 0.799980 -0.308246 0.514798 65 167 0
0.341848 0.013687 1.457504 0.799980 -0.308246 0.514798 65 167 0
0.136699 -0.407684 1.545226 0.799980 -0.308246 0.514798 65 167 0
0.441630 -0.669596 0.893317 0.799980 -0.308246 0.514798 65 167 0
0.604895 0.023750 1.437984 0.819126 -0.308632 0.483507 65 167 0
0.203968 0.013602 2.087869 0.819126 -0.308632 0.483507 65 167 0
0.034669 -0.332649 2.176528 0.819126 -0.308632 0.483507 65 167 0
0.316126 -0.572835 1.523523 0.819126 -0.308632 0.483507 65 167 0
0.418100 0.021747 2.066388 0.844612 -0.310861 0.435886 65 167 0
0.066087 0.013517 2.718235 0.844612 -0.310861 0.435886 65 167 0
-0.067362 -0.257614 2.807830 0.844612 -0.310861 0.435886 65 167 0
0.180802 -0.466986 2.153271 0.844612 -0.310861 0.435886 65 167 0
0.232983 0.019810 2.694860 0.869498 -0.307664 0.386414 65 167 0
-0.071793 0.013432 3.348600 0.869498 -0.307664 0.386414 255 255 255
-0.169392 -0.182579 3.439131 0.869498 -0.307664 0.386414 255 255 255
0.046621 -0.362194 2.783073 0.869498 -0.307664 0.386414 65 167 0
0.055606 0.018176 3.323642 0.893610 -0.290114 0.342483 255 255 255
-0.209674 0.013347 3.978966 0.893610 -0.290114 0.342483 255 255 255
-0.271423 -0.107544 4.070433 0.893610 -0.290114 0.342483 255 255 255
-0.082292 -0.262278 3.413120 0.893610 -0.290114 0.342483 255 255 255
0.441630 -0.669596 0.893317 0.354850 -0.789920 0.500107 65 167 0
0.136699 -0.407684 1.545226 0.354850 -0.789920 0.500107 65 167 0
-0.264238 -0.642159 1.437501 0.354850 -0.789920 0.500107 65 167 0
-0.221504 -1.055578 0.776038 0.354850 -0.789920 0.500107 65 167 0
0.316126 -0.572835 1.523523 0.357703 -0.807939 0.468278 65 167 0
0.034669 -0.332649 2.176528 0.357703 -0.807939 0.468278 65 167 0
-0.294230 -0.525499 2.071427 0.357703 -0.807939 0.468278 65 167 0
-0.252839 -0.904403 1.409676 0.357703 -0.807939 0.468278 65 167 0
0.180802 -0.466986 2.153271 0.363389 -0.831592 0.420004 65 167 0
-0.067362 -0.257614 2.807830 0.363389 -0.831592 0.420004 65 167 0
-0.324223 -0.408838 2.705353 0.363389 -0.831592 0.420004 65 167 0
-0.284734 -0.738789 2.043192 0.363389 -0.831592 0.420004 65 167 0
0.046621 -0.362194 2.783073 0.363678 -0.855012 0.369720 65 167 0
-0.169392 -0.182579 3.439131 0.363678 -0.855012 0.369720 255 255 255
-0.354215 -0.292177 3.339279 0.363678 -0.855012 0.369720 255 255 255
-0.316565 -0.574855 2.676723 0.363678 -0.855012 0.369720 65 167 0
-0.082292 -0.262278 3.413120 0.349436 -0.878965 0.324523 255 255 255
-0.271423 -0.107544 4.070433 0.349436 -0.878965 0.324523 255 255 255
-0.384207 -0.175516 3.973206 0.349436 -0.878965 0.324523 255 255 255
-0.348094 -0.418667 3.310318 0.349436 -0.878965 0.324523 255 255 255
-0.221504 -1.055578 0.776038 -0.330844 -0.816810 0.472614 65 167 0
-0.264238 -0.642159 1.437501 -0.330844 -0.816810 0.472614 65 167 0
-0.689605 -0.440087 1.512095 -0.330844 -0.816810 0.472614 65 167 0
-0.920033 -0.722994 0.838720 -0.330844 -0.816810 0.472614 65 167 0
-0.252839 -0.904403 1.409676 -0.329725 -0.834896 0.440715 65 167 0
-0.294230 -0.525499 2.071427 -0.329725 -0.834896 0.440715 65 167 0
-0.644547 -0.359284 2.149294 -0.329725 -0.834896 0.440715 65 167 0
-0.853259 -0.618693 1.476636 -0.329725 -0.834896 0.440715 65 167 0
-0.284734 -0.738789 2.043192 -0.329668 -0.858770 0.392215 65 167 0
-0.324223 -0.408838 2.705353 -0.329668 -0.858770 0.392215 65 167 0
-0.599488 -0.278481 2.786494 -0.329668 -0.858770 0.392215 65 167 0
-0.777402 -0.504562 2.114852 -0.329668 -0.858770 0.392215 65 167 0
-0.316565 -0.574855 2.676723 -0.324104 -0.881983 0.342143 65 167 0
-0.354215 -0.292177 3.339279 -0.324104 -0.881983 0.342143 255 255 255
-0.554430 -0.197678 3.423693 -0.324104 -0.881983 0.342143 255 255 255
-0.702601 -0.391574 2.753033 -0.324104 -0.881983 0.342143 65 167 0
-0.348094 -0.418667 3.310318 -0.304465 -0.904608 0.298305 255 255 255
-0.384207 -0.175516 3.973206 -0.304465 -0.904608 0.298305 255 255 255
-0.509372 -0.116875 4.060893 -0.304465 -0.904608 0.298305 255 255 255
-0.632674 -0.283861 3.391053 -0.304465 -0.904608 0.298305 255 255 255
-0.920033 -0.722994 0.838720 -0.812016 -0.371460 0.450164 65 167 0
-0.689605 -0.440087 1.512095 -0.812016 -0.371460 0.450164 65 167 0
-0.919400 -0.035773 1.406933 -0.812016 -0.371460 0.450164 65 167 0
-1.301142 -0.056317 0.725667 -0.812016 -0.371460 0.450164 65 167 0
-0.853259 -0.618693 1.476636 -0.828510 -0.373244 0.417444 65 167 0
-0.644547 -0.359284 2.149294 -0.828510 -0.373244 0.417444 65 167 0
-0.832768 -0.027054 2.046301 -0.828510 -0.373244 0.417444 65 167 0
-1.180023 -0.046245 1.366417 -0.828510 -0.373244 0.417444 65 167 0
-0.777402 -0.504562 2.114852 -0.849855 -0.377310 0.367946 65 167 0
-0.599488 -0.278481 2.786494 -0.849855 -0.377310 0.367946 65 167 0
-0.746136 -0.018335 2.685668 -0.849855 -0.377310 0.367946 65 167 0
-1.044477 -0.035608 2.007746 -0.849855 -0.377310 0.367946 65 167 0
-0.702601 -0.391574 2.753033 -0.870881 -0.375913 0.316633 65 167 0
-0.554430 -0.197678 3.423693 -0.870881 -0.375913 0.316633 255 255 255
-0.659505 -0.009615 3.325036 -0.870881 -0.375913 0.316633 255 255 255
-0.910609 -0.025036 2.649007 -0.870881 -0.375913 0.316633 108 187 58
-0.632674 -0.283861 3.391053 -0.892702 -0.360164 0.270860 255 255 255
-0.509372 -0.116875 4.060893 -0.892702 -0.360164 0.270860 255 255 255
-0.572873 -0.000896 3.964403 -0.892702 -0.360164 0.270860 255 255 255
-0.784481 -0.014768 3.289958 -0.892702 -0.360164 0.270860 255 255 255
-0.973015 0.639731 0.827315 -0.393566 0.796443 0.459112 65 167 0
-0.721756 0.386862 1.505174 -0.393566 0.796443 0.459112 65 167 0
-0.313313 0.620073 1.426937 -0.393566 0.796443 0.459112 65 167 0
-0.302375 1.024448 0.758630 -0.393566 0.796443 0.459112 65 167 0
-0.898760 0.551605 1.466841 -0.393834 0.814026 0.426915 65 167 0
-0.670975 0.320461 2.143605 -0.393834 0.814026 0.426915 65 167 0
-0.334570 0.512046 2.062743 -0.393834 0.814026 0.426915 65 167 0
-0.322289 0.881908 1.394725 -0.393834 0.814026 0.426915 65 167 0
-0.814685 0.454390 2.106826 -0.395599 0.837019 0.378023 65 167 0
-0.620193 0.254061 2.782037 -0.395599 0.837019 0.378023 65 167 0
-0.355826 0.404020 2.698550 -0.395599 0.837019 0.378023 65 167 0
-0.341643 0.724928 2.030942 -0.395599 0.837019 0.378023 65 167 0
-0.731753 0.358232 2.746757 -0.391822 0.859754 0.327566 65 167 0
-0.569412 0.187660 3.420468 -0.391822 0.859754 0.327566 255 255 255
-0.377083 0.295993 3.334357 -0.391822 0.859754 0.327566 255 255 255
-0.361061 0.569629 2.667144 -0.391822 0.859754 0.327566 65 167 0
-0.654089 0.266950 3.386443 -0.373970 0.883098 0.283343 255 255 255
-0.518630 0.121259 4.058899 -0.373970 0.883098 0.283343 255 255 255
-0.398339 0.187967 3.970163 -0.373970 0.883098 0.283343 255 255 255
-0.380781 0.422076 3.303282 -0.373970 0.883098 0.283343 254 254 254
-1.301142 -0.056317 0.725667 -0.838696 0.314769 0.444421 65 167 0
-0.919400 -0.035773 1.406933 -0.838696 0.314769 0.444421 65 167 0
-0.721756 0.386862 1.505174 -0.838696 0.314769 0.444421 65 167 0
-0.973015 0.639731 0.827315 -0.838696 0.314769 0.444421 65 167 0
-1.180023 -0.046245 1.366417 -0.855258 0.314720 0.411686 65 167 0
-0.832768 -0.027054 2.046301 -0.855258 0.314720 0.411686 65 167 0
-0.670975 0.320461 2.143605 -0.855258 0.314720 0.411686 65 167 0
-0.898760 0.551605 1.466841 -0.855258 0.314720 0.411686 65 167 0
-1.044477 -0.035608 2.007746 -0.876822 0.316288 0.362141 65 167 0
-0.746136 -0.018335 2.685668 -0.876822 0.316288 0.362141 65 167 0
-0.620193 0.254061 2.782037 -0.876822 0.316288 0.362141 65 167 0
-0.814685 0.454390 2.106826 -0.876822 0.316288 0.362141 65 167 0
-0.910609 -0.025036 2.649007 -0.897642 0.312406 0.310872 108 187 58
-0.659505 -0.009615 3.325036 -0.897642 0.312406 0.310872 255 255 255
-0.569412 0.187660 3.420468 -0.897642 0.312406 0.310872 255 255 255
-0.731753 0.358232 2.746757 -0.897642 0.312406 0.310872 68 168 4
-0.784481 -0.014768 3.289958 -0.918145 0.294247 0.265383 255 255 255
-0.572873 -0.000896 3.964403 -0.918145 0.294247 0.265383 255 255 255
-0.518630 0.121259 4.058899 -0.918145 0.294247 0.265383 255 255 255
-0.654089 0.266950 3.386443 -0.918145 0.294247 0.265383 255 255 255
-0.398339 0.187967 3.970163 0.319899 -0.496919 -0.806682 255 255 255
-0.400054 0.263034 3.939516 0.319899 -0.496919 -0.806682 255 255 255
-0.232111 0.181633 4.039985 0.319899 -0.496919 -0.806682 255 255 255
-0.280681 0.130591 4.068440 0.319899 -0.496919 -0.806682 255 255 255
-0.280681 0.130591 4.068440 -0.478658 0.242186 -0.843939 255 255 255
-0.232111 0.181633 4.039985 -0.478658 0.242186 -0.843939 255 255 255
-0.133250 0.016092 3.951963 -0.478658 0.242186 -0.843939 255 255 255
-0.209674 0.013347 3.978966 -0.478658 0.242186 -0.843939 255 255 255
-0.209674 0.013347 3.978966 -0.457862 -0.292686 -0.839462 255 255 255
-0.133250 0.016092 3.951963 -0.457862 -0.292686 -0.839462 255 255 255
-0.219018 -0.155130 4.042803 -0.457862 -0.292686 -0.839462 255 255 255
-0.271423 -0.107544 4.070433 -0.457862 -0.292686 -0.839462 255 255 255
-0.271423 -0.107544 4.070433 0.280879 0.506705 -0.815081 255 255 255
-0.219018 -0.155130 4.042803 0.280879 0.506705 -0.815081 255 255 255
-0.380069 -0.250991 3.943818 0.280879 0.506705 -0.815081 255 255 255
-0.384207 -0.175516 3.973206 0.280879 0.506705 -0.815081 255 255 255
-0.384207 -0.175516 3.973206 -0.253576 0.485747 -0.836510 255 255 255
-0.380069 -0.250991 3.943818 -0.253576 0.485747 -0.836510 255 255 255
-0.555518 -0.168326 4.029311 -0.253576 0.485747 -0.836510 255 255 255
-0.509372 -0.116875 4.060893 -0.253576 0.485747 -0.836510 255 255 255
-0.509372 -0.116875 4.060893 0.544982 -0.253360 -0.799252 255 255 255
-0.555518 -0.168326 4.029311 0.544982 -0.253360 -0.799252 255 255 255
-0.646874 -0.004050 3.931369 0.544982 -0.253360 -0.799252 255 255 255
-0.572873 -0.000896 3.964403 0.544982 -0.253360 -0.799252 255 255 255
-0.518630 0.121259 4.058899 -0.214556 -0.517878 -0.828111 255 255 255
-0.568611 0.168437 4.026493 -0.214556 -0.517878 -0.828111 255 255 255
-0.400054 0.263034 3.939516 -0.214556 -0.517878 -0.828111 255 255 255
-0.398339 0.187967 3.970163 -0.214556 -0.517878 -0.828111 255 255 255
-0.572873 -0.000896 3.964403 0.524186 0.281512 -0.803729 255 255 255
-0.646874 -0.004050 3.931369 0.524186 0.281512 -0.803729 255 255 255
-0.568611 0.168437 4.026493 0.524186 0.281512 -0.803729 250 253 248
-0.518630 0.121259 4.058899 0.524186 0.281512 -0.803729 255 255 255
-0.377083 0.295993 3.334357 0.237813 -0.337744 -0.910700 242 250 239
-0.380781 0.422076 3.303282 0.237813 -0.337744 -0.910700 253 254 253
-0.103707 0.288534 3.408510 0.237813 -0.337744 -0.910700 255 255 255
-0.184374 0.202759 3.435906 0.237813 -0.337744 -0.910700 255 255 255
-0.184374 0.202759 3.435906 -0.308687 0.168070 -0.936197 255 255 255
-0.103707 0.288534 3.408510 -0.308687 0.168070 -0.936197 255 255 255
0.055606 0.018176 3.323642 -0.308687 0.168070 -0.936197 255 255 255
-0.071793 0.013432 3.348600 -0.308687 0.168070 -0.936197 255 255 255
-0.071793 0.013432 3.348600 -0.294099 -0.207150 -0.933057 255 255 255
0.055606 0.018176 3.323642 -0.294099 -0.207150 -0.933057 255 255 255
-0.082292 -0.262278 3.413120 -0.294099 -0.207150 -0.933057 255 255 255
-0.169392 -0.182579 3.439131 -0.294099 -0.207150 -0.933057 255 255 255
-0.169392 -0.182579 3.439131 0.211465 0.339921 -0.916371 255 255 255
-0.082292 -0.262278 3.413120 0.211465 0.339921 -0.916371 255 255 255
-0.348094 -0.418667 3.310318 0.211465 0.339921 -0.916371 255 255 255
-0.354215 -0.292177 3.339279 0.211465 0.339921 -0.916371 252 254 252
-0.354215 -0.292177 3.339279 -0.163462 0.325217 -0.931404 255 255 255
-0.348094 -0.418667 3.310318 -0.163462 0.325217 -0.931404 255 255 255
-0.632674 -0.283861 3.391053 -0.163462 0.325217 -0.931404 255 255 255
-0.554430 -0.197678 3.423693 -0.163462 0.325217 -0.931404 255 255 255
-0.554430 -0.197678 3.423693 0.383038 -0.180596 -0.905907 244 250 241
-0.632674 -0.283861 3.391053 0.383038 -0.180596 -0.905907 212 236 199
-0.784481 -0.014768 3.289958 0.383038 -0.180596 -0.905907 255 255 255
-0.659505 -0.009615 3.325036 0.383038 -0.180596 -0.905907 255 255 255
-0.569412 0.187660 3.420468 -0.137115 -0.352447 -0.925733 255 255 255
-0.654089 0.266950 3.386443 -0.137115 -0.352447 -0.925733 255 255 255
-0.380781 0.422076 3.303282 -0.137115 -0.352447 -0.925733 253 254 253
-0.377083 0.295993 3.334357 -0.137115 -0.352447 -0.925733 242 250 239
-0.659505 -0.009615 3.325036 0.368450 0.194623 -0.909047 255 255 255
-0.784481 -0.014768 3.289958 0.368450 0.194623 -0.909047 255 255 255
-0.654089 0.266950 3.386443 0.368450 0.194623 -0.909047 255 255 255
-0.569412 0.187660 3.420468 0.368450 0.194623 -0.909047 255 255 255
-0.355826 0.404020 2.698550 0.186707 -0.264417 -0.946163 65 167 0
-0.361061 0.569629 2.667144 0.186707 -0.264417 -0.946163 65 167 0
0.017469 0.387613 2.776798 0.186707 -0.264417 -0.946163 65 167 0
-0.088067 0.274928 2.803372 0.186707 -0.264417 -0.946163 65 167 0
-0.088067 0.274928 2.803372 -0.230003 0.121269 -0.965605 65 167 0
0.017469 0.387613 2.776798 -0.230003 0.121269 -0.965605 65 167 0
0.232983 0.019810 2.694860 -0.230003 0.121269 -0.965605 65 167 0
0.066087 0.013517 2.718235 -0.230003 0.121269 -0.965605 65 167 0
0.066087 0.013517 2.718235 -0.219267 -0.154880 -0.963293 65 167 0
0.232983 0.019810 2.694860 -0.219267 -0.154880 -0.963293 65 167 0
0.046621 -0.362194 2.783073 -0.219267 -0.154880 -0.963293 65 167 0
-0.067362 -0.257614 2.807830 -0.219267 -0.154880 -0.963293 65 167 0
-0.067362 -0.257614 2.807830 0.166230 0.262265 -0.950571 65 167 0
0.046621 -0.362194 2.783073 0.166230 0.262265 -0.950571 65 167 0
-0.316565 -0.574855 2.676723 0.166230 0.262265 -0.950571 65 167 0
-0.324223 -0.408838 2.705353 0.166230 0.262265 -0.950571 65 167 0
-0.324223 -0.408838 2.705353 -0.109705 0.251444 -0.961634 65 167 0
-0.316565 -0.574855 2.676723 -0.109705 0.251444 -0.961634 65 167 0
-0.702601 -0.391574 2.753033 -0.109705 0.251444 -0.961634 65 167 0
-0.599488 -0.278481 2.786494 -0.109705 0.251444 -0.961634 65 167 0
-0.599488 -0.278481 2.786494 0.307006 -0.134243 -0.942192 65 167 0
-0.702601 -0.391574 2.753033 0.307006 -0.134243 -0.942192 65 167 0
-0.910609 -0.025036 2.649007 0.307006 -0.134243 -0.942192 108 187 58
-0.746136 -0.018335 2.685668 0.307006 -0.134243 -0.942192 65 167 0
-0.620193 0.254061 2.782037 -0.089227 -0.275239 -0.957226 65 167 0
-0.731753 0.358232 2.746757 -0.089227 -0.275239 -0.957226 68 168 4
-0.361061 0.569629 2.667144 -0.089227 -0.275239 -0.957226 65 167 0
-0.355826 0.404020 2.698550 -0.089227 -0.275239 -0.957226 65 167 0
-0.746136 -0.018335 2.685668 0.296269 0.141907 -0.944504 65 167 0
-0.910609 -0.025036 2.649007 0.296269 0.141907 -0.944504 108 187 58
-0.731753 0.358232 2.746757 0.296269 0.141907 -0.944504 68 168 4
-0.620193 0.254061 2.782037 0.296269 0.141907 -0.944504 65 167 0
-0.334570 0.512046 2.062743 0.157594 -0.211236 -0.964647 65 167 0
-0.341643 0.724928 2.030942 0.157594 -0.211236 -0.964647 65 167 0
0.143519 0.491966 2.145246 0.157594 -0.211236 -0.964647 65 167 0
0.008241 0.347097 2.170839 0.157594 -0.211236 -0.964647 65 167 0
0.008241 0.347097 2.170839 -0.173904 0.095582 -0.980113 65 167 0
0.143519 0.491966 2.145246 -0.173904 0.095582 -0.980113 65 167 0
0.418100 0.021747 2.066388 -0.173904 0.095582 -0.980113 65 167 0
0.203968 0.013602 2.087869 -0.173904 0.095582 -0.980113 65 167 0
0.203968 0.013602 2.087869 -0.165322 -0.125161 -0.978266 65 167 0
0.418100 0.021747 2.066388 -0.165322 -0.125161 -0.978266 65 167 0
0.180802 -0.466986 2.153271 -0.165322 -0.125161 -0.978266 65 167 0
0.034669 -0.332649 2.176528 -0.165322 -0.125161 -0.978266 65 167 0
0.034669 -0.332649 2.176528 0.141345 0.206683 -0.968144 65 167 0
0.180802 -0.466986 2.153271 0.141345 0.206683 -0.968144 65 167 0
-0.284734 -0.738789 2.043192 0.141345 0.206683 -0.968144 126 194 80
-0.294230 -0.525499 2.071427 0.141345 0.206683 -0.968144 103 185 51
-0.294230 -0.525499 2.071427 -0.079226 0.198032 -0.976989 103 185 51
-0.284734 -0.738789 2.043192 -0.079226 0.198032 -0.976989 126 194 80
-0.777402 -0.504562 2.114852 -0.079226 0.198032 -0.976989 131 197 89
-0.644547 -0.359284 2.149294 -0.079226 0.198032 -0.976989 82 175 23
-0.644547 -0.359284 2.149294 0.252271 -0.108786 -0.961522 65 167 0
-0.777402 -0.504562 2.114852 0.252271 -0.108786 -0.961522 65 167 0
-1.044477 -0.035608 2.007746 0.252271 -0.108786 -0.961522 65 167 0
-0.832768 -0.027054 2.046301 0.252271 -0.108786 -0.961522 65 167 0
-0.670975 0.320461 2.143605 -0.062977 -0.219886 -0.973491 65 167 0
-0.814685 0.454390 2.106826 -0.062977 -0.219886 -0.973491 65 167 0
-0.341643 0.724928 2.030942 -0.062977 -0.219886 -0.973491 65 167 0
-0.334570 0.512046 2.062743 -0.062977 -0.219886 -0.973491 65 167 0
-0.832768 -0.027054 2.046301 0.243689 0.111958 -0.963370 65 167 0
-1.044477 -0.035608 2.007746 0.243689 0.111958 -0.963370 65 167 0
-0.814685 0.454390 2.106826 0.243689 0.111958 -0.963370 65 167 0
-0.670975 0.320461 2.143605 0.243689 0.111958 -0.963370 65 167 0
-0.313313 0.620073 1.426937 0.138108 -0.175112 -0.974814 65 167 0
-0.322289 0.881908 1.394725 0.138108 -0.175112 -0.974814 65 167 0
0.270625 0.597463 1.513728 0.138108 -0.175112 -0.974814 65 167 0
0.104548 0.419265 1.538305 0.138108 -0.175112 -0.974814 65 167 0
0.104548 0.419265 1.538305 -0.135938 0.078533 -0.987600 65 167 0
0.270625 0.597463 1.513728 -0.135938 0.078533 -0.987600 65 167 0
0.604895 0.023750 1.437984 -0.135938 0.078533 -0.987600 65 167 0
0.341848 0.013687 1.457504 -0.135938 0.078533 -0.987600 65 167 0
0.341848 0.013687 1.457504 -0.128789 -0.105343 -0.986061 65 167 0
0.604895 0.023750 1.437984 -0.128789 -0.105343 -0.986061 65 167 0
0.316126 -0.572835 1.523523 -0.128789 -0.105343 -0.986061 65 167 0
0.136699 -0.407684 1.545226 -0.128789 -0.105343 -0.986061 52 129 4
0.136699 -0.407684 1.545226 0.124729 0.168989 -0.977694 52 129 4
0.316126 -0.572835 1.523523 0.124729 0.168989 -0.977694 65 167 0
-0.252839 -0.904403 1.409676 0.124729 0.168989 -0.977694 65 167 0
-0.264238 -0.642159 1.437501 0.124729 0.168989 -0.977694 65 167 0
-0.264238 -0.642159 1.437501 -0.059003 0.161784 -0.985061 65 167 0
-0.252839 -0.904403 1.409676 -0.059003 0.161784 -0.985061 65 167 0
-0.853259 -0.618693 1.476636 -0.059003 0.161784 -0.985061 65 167 0
-0.689605 -0.440087 1.512095 -0.059003 0.161784 -0.985061 65 167 0
-0.689605 -0.440087 1.512095 0.215043 -0.091860 -0.972275 65 167 0
-0.853259 -0.618693 1.476636 0.215043 -0.091860 -0.972275 65 167 0
-1.180023 -0.046245 1.366417 0.215043 -0.091860 -0.972275 65 167 0
-0.919400 -0.035773 1.406933 0.215043 -0.091860 -0.972275 65 167 0
-0.721756 0.386862 1.505174 -0.045625 -0.182317 -0.982181 65 167 0
-0.898760 0.551605 1.466841 -0.045625 -0.182317 -0.982181 65 167 0
-0.322289 0.881908 1.394725 -0.045625 -0.182317 -0.982181 65 167 0
-0.313313 0.620073 1.426937 -0.045625 -0.182317 -0.982181 65 167 0
-0.919400 -0.035773 1.406933 0.207894 0.092016 -0.973814 65 167 0
-1.180023 -0.046245 1.366417 0.207894 0.092016 -0.973814 65 167 0
-0.898760 0.551605 1.466841 0.207894 0.092016 -0.973814 65 167 0
-0.721756 0.386862 1.505174 0.207894 0.092016 -0.973814 65 167 0
-0.292056 0.728099 0.791130 0.122790 -0.154690 -0.980303 55 130 8
-0.302375 1.024448 0.758630 0.122790 -0.154690 -0.980303 65 167 0
0.388648 0.693129 0.881911 0.122790 -0.154690 -0.980303 65 167 0
0.200855 0.491434 0.905772 0.122790 -0.154690 -0.980303 56 130 9
0.200855 0.491434 0.905772 -0.114162 0.064622 -0.991358 56 130 9
0.388648 0.693129 0.881911 -0.114162 0.064622 -0.991358 65 167 0
0.777263 0.025188 0.809001 -0.114162 0.064622 -0.991358 65 167 0
0.479729 0.013772 0.827138 -0.114162 0.064622 -0.991358 57 145 3
0.479729 0.013772 0.827138 -0.108157 -0.089849 -0.990065 57 145 3
0.777263 0.025188 0.809001 -0.108157 -0.089849 -0.990065 65 167 0
0.441630 -0.669596 0.893317 -0.108157 -0.089849 -0.990065 65 167 0
0.238730 -0.482719 0.913925 -0.108157 -0.089849 -0.990065 52 129 4
0.238730 -0.482719 0.913925 0.111047 0.147351 -0.982831 52 129 4
0.441630 -0.669596 0.893317 0.111047 0.147351 -0.982831 65 167 0
-0.221504 -1.055578 0.776038 0.111047 0.147351 -0.982831 65 167 0
-0.234246 -0.758820 0.803575 0.111047 0.147351 -0.982831 52 129 4
-0.234246 -0.758820 0.803575 -0.043304 0.141298 -0.989020 52 129 4
-0.221504 -1.055578 0.776038 -0.043304 0.141298 -0.989020 65 167 0
-0.920033 -0.722994 0.838720 -0.043304 0.141298 -0.989020 65 167 0
-0.734663 -0.520890 0.874896 -0.043304 0.141298 -0.989020 52 129 4
-0.734663 -0.520890 0.874896 0.193648 -0.078014 -0.977964 52 129 4
-0.920033 -0.722994 0.838720 0.193648 -0.078014 -0.977964 65 167 0
-1.301142 -0.056317 0.725667 0.193648 -0.078014 -0.977964 65 167 0
-1.006031 -0.044493 0.767566 0.193648 -0.078014 -0.977964 52 129 4
-0.302375 1.024448 0.758630 -0.031561 -0.160742 -0.986492 65 167 0
-0.292056 0.728099 0.791130 -0.031561 -0.160742 -0.986492 55 130 8
-0.772538 0.453262 0.866743 -0.031561 -0.160742 -0.986492 52 129 4
-0.973015 0.639731 0.827315 -0.031561 -0.160742 -0.986492 65 167 0
-1.006031 -0.044493 0.767566 0.187642 0.076458 -0.979257 52 129 4
-1.301142 -0.056317 0.725667 0.187642 0.076458 -0.979257 65 167 0
-0.973015 0.639731 0.827315 0.187642 0.076458 -0.979257 65 167 0
-0.772538 0.453262 0.866743 0.187642 0.076458 -0.979257 52 129 4
-0.227366 0.200070 -0.305848 0.346191 0.938133 0.007594 90 72 27
-0.278296 0.208651 0.955975 0.346191 0.938133 0.007594 90 72 27
-0.118252 0.149535 0.962837 0.346191 0.938133 0.007594 90 72 27
-0.067322 0.140955 -0.298986 0.346191 0.938133 0.007594 90 72 27
-0.067322 0.140955 -0.298986 0.907563 0.418554 0.033785 90 72 27
-0.118252 0.149535 0.962837 0.907563 0.418554 0.033785 90 72 27
-0.046883 -0.005534 0.966772 0.907563 0.418554 0.033785 90 72 27
0.004047 -0.014115 -0.295051 0.907563 0.418554 0.033785 89 75 26
0.004047 -0.014115 -0.295051 0.937297 -0.346208 0.040185 89 75 26
-0.046883 -0.005534 0.966772 0.937297 -0.346208 0.040185 90 72 27
-0.105995 -0.165721 0.965476 0.937297 -0.346208 0.040185 90 72 27
-0.055065 -0.174301 -0.296348 0.937297 -0.346208 0.040185 88 80 25
-0.055065 -0.174301 -0.296348 0.417975 -0.908166 0.023046 88 80 25
-0.105995 -0.165721 0.965476 0.417975 -0.908166 0.023046 90 72 27
-0.260962 -0.237189 0.959707 0.417975 -0.908166 0.023046 90 72 27
-0.210032 -0.245770 -0.302116 0.417975 -0.908166 0.023046 90 72 27
-0.210032 -0.245770 -0.302116 -0.346192 -0.938133 -0.007594 90 72 27
-0.260962 -0.237189 0.959707 -0.346192 -0.938133 -0.007594 90 72 27
-0.421005 -0.178074 0.952845 -0.346192 -0.938133 -0.007594 90 72 27
-0.370076 -0.186654 -0.308978 -0.346192 -0.938133 -0.007594 90 72 27
-0.370076 -0.186654 -0.308978 -0.907563 -0.418554 -0.033785 90 72 27
-0.421005 -0.178074 0.952845 -0.907563 -0.418554 -0.033785 89 74 26
-0.492375 -0.023004 0.948910 -0.907563 -0.418554 -0.033785 90 72 27
-0.441445 -0.031585 -0.312913 -0.907563 -0.418554 -0.033785 90 72 27
-0.046883 -0.005534 0.966772 -0.040328 0.006795 0.999163 255 255 255
-0.118252 0.149535 0.962837 -0.040328 0.006795 0.999163 255 255 255
-0.278296 0.208651 0.955975 -0.040328 0.006795 0.999163 255 255 255
-0.433262 0.137182 0.950207 -0.040328 0.006795 0.999163 255 255 255
-0.492375 -0.023004 0.948910 -0.040328 0.006795 0.999163 255 255 255
-0.421005 -0.178074 0.952845 -0.040328 0.006795 0.999163 255 255 255
-0.260962 -0.237189 0.959707 -0.040328 0.006795 0.999163 255 255 255
-0.105995 -0.165721 0.965476 -0.040328 0.006795 0.999163 255 255 255
-0.046883 -0.005534 0.966772 -0.040328 0.006794 0.999163 255 255 255
-0.278296 0.208651 0.955975 -0.040328 0.006794 0.999163 255 255 255
-0.492375 -0.023004 0.948910 -0.040328 0.006794 0.999163 255 255 255
-0.260962 -0.237189 0.959707 -0.040328 0.006794 0.999163 255 255 255
-0.382333 0.128602 -0.311617 -0.417975 0.908166 -0.023046 90 72 27
-0.433262 0.137182 0.950207 -0.417975 0.908166 -0.023046 89 73 26
-0.278296 0.208651 0.955975 -0.417975 0.908166 -0.023046 90 72 27
-0.227366 0.200070 -0.305848 -0.417975 0.908166 -0.023046 90 72 27
-0.441445 -0.031585 -0.312913 -0.937297 0.346208 -0.040185 90 72 27
-0.492375 -0.023004 0.948910 -0.937297 0.346208 -0.040185 90 72 27
-0.433262 0.137182 0.950207 -0.937297 0.346208 -0.040185 90 72 27
-0.382333 0.128602 -0.311617 -0.937297 0.346208 -0.040185 90 72 27
-0.382333 0.128602 -0.311617 0.040328 -0.006795 -0.999163 90 72 27
-0.227366 0.200070 -0.305848 0.040328 -0.006795 -0.999163 90 72 27
-0.067322 0.140955 -0.298986 0.040328 -0.006795 -0.999163 90 72 27
0.004047 -0.014115 -0.295051 0.040328 -0.006795 -0.999163 89 75 26
-0.055065 -0.174301 -0.296348 0.040328 -0.006795 -0.999163 88 80 25
-0.210032 -0.245770 -0.302116 0.040328 -0.006795 -0.999163 90 72 27
-0.370076 -0.186654 -0.308978 0.040328 -0.006795 -0.999163 90 72 27
-0.441445 -0.031585 -0.312913 0.040328 -0.006795 -0.999163 90 72 27
4 0 1 2 3
4 4 5 6 7
4 8 9 10 11
4 12 13 14 15
4 16 17 18 19
4 20 21 22 23
4 24 25 26 27
4 28 29 30 31
3 32 33 34
3 35 36 37
3 38 39 40
3 41 42 43
3 44 45 46
3 46 47 44
3 48 49 50
3 51 52 53
3 54 55 56
3 57 58 59
3 60 61 62
3 63 64 65
4 66 67 68 69
4 70 71 72 73
4 74 75 76 77
4 78 79 80 81
4 82 83 84 85
4 86 87 88 89
4 90 91 92 93
4 94 95 96 97
4 98 99 100 101
4 102 103 104 105
4 106 107 108 109
4 110 111 112 113
4 114 115 116 117
4 118 119 120 121
4 122 123 124 125
4 126 127 128 129
4 130 131 132 133
4 134 135 136 137
4 138 139 140 141
4 142 143 144 145
4 146 147 148 149
4 150 151 152 153
4 154 155 156 157
4 158 159 160 161
4 162 163 164 165
4 166 167 168 169
4 170 171 172 173
4 174 175 176 177
4 178 179 180 181
4 182 183 184 185
4 186 187 188 189
4 190 191 192 193
4 194 195 196 197
4 198 199 200 201
4 202 203 204 205
4 206 207 208 209
4 210 211 212 213
4 214 215 216 217
4 218 219 220 221
4 222 223 224 225
4 226 227 228 229
4 230 231 232 233
4 234 235 236 237
4 238 239 240 241
4 242 243 244 245
4 246 247 248 249
4 250 251 252 253
4 254 255 256 257
4 258 259 260 261
4 262 263 264 265
4 266 267 268 269
4 270 271 272 273
4 274 275 276 277
4 278 279 280 281
4 282 283 284 285
4 286 287 288 289
4 290 291 292 293
4 294 295 296 297
4 298 299 300 301
4 302 303 304 305
4 306 307 308 309
4 310 311 312 313
4 314 315 316 317
4 318 319 320 321
4 322 323 324 325
4 326 327 328 329
4 330 331 332 333
4 334 335 336 337
4 338 339 340 341
4 342 343 344 345
4 346 347 348 349
4 350 351 352 353
4 354 355 356 357
4 358 359 360 361
4 362 363 364 365
4 366 367 368 369
4 370 371 372 373
4 374 375 376 377
4 378 379 380 381
4 382 383 384 385
4 386 387 388 389
4 390 391 392 393
4 394 395 396 397
4 398 399 400 401
4 402 403 404 405
4 406 407 408 409
4 410 411 412 413
4 414 415 416 417
4 418 419 420 421
4 422 423 424 425
4 426 427 428 429
4 430 431 432 433
4 434 435 436 437
4 438 439 440 441
3 442 443 444
3 444 445 446
3 446 447 448
3 448 449 442
3 450 451 452
3 452 453 450
4 454 455 456 457
4 458 459 460 461
3 462 463 464
3 464 465 466
3 466 467 468
3 468 469 462
3 462 464 466
3 466 468 462
