ply
format ascii 1.0
comment Created by Blender 2.73 (sub 0) - www.blender.org, source file: ''
element vertex 192
property float x
property float y
property float z
property float nx
property float ny
property float nz
property uchar red
property uchar green
property uchar blue
element face 92
property list uchar uint vertex_indices
end_header
0.500000 0.000000 0.000000 0.995185 0.000000 0.098019 63 52 255
0.500000 1.000000 0.000000 0.995185 0.000000 0.098019 63 52 255
0.490393 1.000000 0.097545 0.995185 0.000000 0.098019 63 52 255
0.490393 0.000000 0.097545 0.995185 0.000000 0.098019 63 52 255
0.490393 0.000000 0.097545 0.956941 0.000000 0.290281 63 52 255
0.490393 1.000000 0.097545 0.956941 0.000000 0.290281 63 52 255
0.461940 1.000000 0.191342 0.956941 0.000000 0.290281 69 58 255
0.461940 0.000000 0.191342 0.956941 0.000000 0.290281 63 52 255
0.461940 0.000000 0.191342 0.881921 0.000000 0.471397 63 52 255
0.461940 1.000000 0.191342 0.881921 0.000000 0.471397 69 58 255
0.415735 1.000000 0.277785 0.881921 0.000000 0.471397 65 54 255
0.415735 0.000000 0.277785 0.881921 0.000000 0.471397 63 52 255
0.415735 0.000000 0.277785 0.773011 0.000000 0.634393 63 52 255
0.415735 1.000000 0.277785 0.773011 0.000000 0.634393 65 54 255
0.353554 1.000000 0.353554 0.773011 0.000000 0.634393 64 53 255
0.353554 0.000000 0.353554 0.773011 0.000000 0.634393 63 52 255
0.353554 0.000000 0.353554 0.634393 0.000000 0.773011 63 52 255
0.353554 1.000000 0.353554 0.634393 0.000000 0.773011 64 53 255
0.277785 1.000000 0.415735 0.634393 0.000000 0.773011 64 53 255
0.277785 0.000000 0.415735 0.634393 0.000000 0.773011 63 52 255
0.277785 0.000000 0.415735 0.471397 0.000000 0.881921 63 52 255
0.277785 1.000000 0.415735 0.471397 0.000000 0.881921 64 53 255
0.191342 1.000000 0.461940 0.471397 0.000000 0.881921 66 56 255
0.191342 0.000000 0.461940 0.471397 0.000000 0.881921 63 52 255
0.191342 0.000000 0.461940 0.290281 0.000000 0.956941 63 52 255
0.191342 1.000000 0.461940 0.290281 0.000000 0.956941 66 56 255
0.097545 1.000000 0.490393 0.290281 0.000000 0.956941 66 55 255
0.097545 0.000000 0.490393 0.290281 0.000000 0.956941 63 52 255
0.097545 0.000000 0.490393 0.098019 0.000000 0.995185 63 52 255
0.097545 1.000000 0.490393 0.098019 0.000000 0.995185 66 55 255
0.000000 1.000000 0.500000 0.098019 0.000000 0.995185 65 54 255
0.000000 0.000000 0.500000 0.098019 0.000000 0.995185 63 52 255
0.000000 0.000000 0.500000 -0.098019 0.000000 0.995185 255 255 255
0.000000 1.000000 0.500000 -0.098019 0.000000 0.995185 255 255 255
-0.097545 1.000000 0.490393 -0.098019 0.000000 0.995185 255 255 255
-0.097545 0.000000 0.490393 -0.098019 0.000000 0.995185 255 255 255
-0.097545 0.000000 0.490393 -0.290281 0.000000 0.956941 255 0 11
-0.097545 1.000000 0.490393 -0.290281 0.000000 0.956941 255 0 11
-0.191342 1.000000 0.461940 -0.290281 0.000000 0.956941 255 0 11
-0.191342 0.000000 0.461940 -0.290281 0.000000 0.956941 255 0 11
-0.191342 0.000000 0.461940 -0.471397 0.000000 0.881921 255 0 11
-0.191342 1.000000 0.461940 -0.471397 0.000000 0.881921 255 0 11
-0.277785 1.000000 0.415735 -0.471397 0.000000 0.881921 255 0 11
-0.277785 0.000000 0.415735 -0.471397 0.000000 0.881921 255 0 11
-0.277785 0.000000 0.415735 -0.634393 0.000000 0.773011 255 0 11
-0.277785 1.000000 0.415735 -0.634393 0.000000 0.773011 255 0 11
-0.353554 1.000000 0.353554 -0.634393 0.000000 0.773011 255 0 11
-0.353554 0.000000 0.353554 -0.634393 0.000000 0.773011 255 0 11
-0.353554 0.000000 0.353554 -0.773011 0.000000 0.634393 255 0 11
-0.353554 1.000000 0.353554 -0.773011 0.000000 0.634393 255 0 11
-0.415735 1.000000 0.277785 -0.773011 0.000000 0.634393 255 0 11
-0.415735 0.000000 0.277785 -0.773011 0.000000 0.634393 255 0 11
-0.415735 0.000000 0.277785 -0.881921 0.000000 0.471397 255 0 11
-0.415735 1.000000 0.277785 -0.881921 0.000000 0.471397 255 0 11
-0.461940 1.000000 0.191342 -0.881921 0.000000 0.471397 255 0 11
-0.461940 0.000000 0.191342 -0.881921 0.000000 0.471397 255 0 11
-0.461940 0.000000 0.191342 -0.956941 0.000000 0.290281 255 0 11
-0.461940 1.000000 0.191342 -0.956941 0.000000 0.290281 255 0 11
-0.490393 1.000000 0.097545 -0.956941 0.000000 0.290281 255 1 12
-0.490393 0.000000 0.097545 -0.956941 0.000000 0.290281 255 0 11
-0.490393 0.000000 0.097545 -0.995185 0.000000 0.098019 255 0 11
-0.490393 1.000000 0.097545 -0.995185 0.000000 0.098019 255 1 12
-0.500000 1.000000 0.000000 -0.995185 0.000000 0.098019 255 3 14
-0.500000 0.000000 0.000000 -0.995185 0.000000 0.098019 255 0 11
-0.500000 0.000000 0.000000 -0.995185 0.000000 -0.098018 255 0 11
-0.500000 1.000000 0.000000 -0.995185 0.000000 -0.098018 255 3 14
-0.490393 1.000000 -0.097545 -0.995185 0.000000 -0.098018 255 3 14
-0.490393 0.000000 -0.097545 -0.995185 0.000000 -0.098018 255 0 11
-0.490393 0.000000 -0.097545 -0.956940 0.000000 -0.290286 255 0 11
-0.490393 1.000000 -0.097545 -0.956940 0.000000 -0.290286 255 3 14
-0.461940 1.000000 -0.191342 -0.956940 0.000000 -0.290286 255 3 14
-0.461940 0.000000 -0.191342 -0.956940 0.000000 -0.290286 255 0 11
-0.461940 0.000000 -0.191342 -0.881921 0.000000 -0.471397 255 0 11
-0.461940 1.000000 -0.191342 -0.881921 0.000000 -0.471397 255 3 14
-0.415734 1.000000 -0.277786 -0.881921 0.000000 -0.471397 255 1 12
-0.415734 0.000000 -0.277786 -0.881921 0.000000 -0.471397 255 0 11
-0.415734 0.000000 -0.277786 -0.773009 0.000000 -0.634395 255 0 11
-0.415734 1.000000 -0.277786 -0.773009 0.000000 -0.634395 255 1 12
-0.353553 1.000000 -0.353554 -0.773009 0.000000 -0.634395 255 0 11
-0.353553 0.000000 -0.353554 -0.773009 0.000000 -0.634395 255 0 11
-0.353553 0.000000 -0.353554 -0.634395 0.000000 -0.773009 255 0 11
-0.353553 1.000000 -0.353554 -0.634395 0.000000 -0.773009 255 0 11
-0.277785 1.000000 -0.415735 -0.634395 0.000000 -0.773009 255 0 11
-0.277785 0.000000 -0.415735 -0.634395 0.000000 -0.773009 255 0 11
-0.277785 0.000000 -0.415735 -0.471397 0.000000 -0.881921 255 0 11
-0.277785 1.000000 -0.415735 -0.471397 0.000000 -0.881921 255 0 11
-0.191342 1.000000 -0.461940 -0.471397 0.000000 -0.881921 255 0 11
-0.191342 0.000000 -0.461940 -0.471397 0.000000 -0.881921 255 0 11
-0.191342 0.000000 -0.461940 -0.290280 0.000000 -0.956942 255 0 11
-0.191342 1.000000 -0.461940 -0.290280 0.000000 -0.956942 255 0 11
-0.097544 1.000000 -0.490393 -0.290280 0.000000 -0.956942 255 0 11
-0.097544 0.000000 -0.490393 -0.290280 0.000000 -0.956942 255 0 11
-0.097544 0.000000 -0.490393 -0.098019 0.000000 -0.995185 255 255 255
-0.097544 1.000000 -0.490393 -0.098019 0.000000 -0.995185 255 255 255
0.000000 1.000000 -0.500000 -0.098019 0.000000 -0.995185 255 255 255
0.000000 0.000000 -0.500000 -0.098019 0.000000 -0.995185 255 255 255
0.000000 0.000000 -0.500000 0.098019 0.000000 -0.995185 255 255 255
0.000000 1.000000 -0.500000 0.098019 0.000000 -0.995185 255 255 255
0.097545 1.000000 -0.490393 0.098019 0.000000 -0.995185 255 255 255
0.097545 0.000000 -0.490393 0.098019 0.000000 -0.995185 255 255 255
0.097545 0.000000 -0.490393 0.290286 0.000000 -0.956940 63 52 255
0.097545 1.000000 -0.490393 0.290286 0.000000 -0.956940 125 119 255
0.191342 1.000000 -0.461940 0.290286 0.000000 -0.956940 132 126 255
0.191342 0.000000 -0.461940 0.290286 0.000000 -0.956940 63 52 255
0.191342 0.000000 -0.461940 0.471397 0.000000 -0.881921 63 52 255
0.191342 1.000000 -0.461940 0.471397 0.000000 -0.881921 132 126 255
0.277786 1.000000 -0.415734 0.471397 0.000000 -0.881921 112 105 255
0.277786 0.000000 -0.415734 0.471397 0.000000 -0.881921 63 52 255
0.277786 0.000000 -0.415734 0.634393 0.000000 -0.773011 63 52 255
0.277786 1.000000 -0.415734 0.634393 0.000000 -0.773011 112 105 255
0.353554 1.000000 -0.353553 0.634393 0.000000 -0.773011 93 85 255
0.353554 0.000000 -0.353553 0.634393 0.000000 -0.773011 63 52 255
0.353554 0.000000 -0.353553 0.773013 0.000000 -0.634390 63 52 255
0.353554 1.000000 -0.353553 0.773013 0.000000 -0.634390 93 85 255
0.415735 1.000000 -0.277784 0.773013 0.000000 -0.634390 108 100 255
0.415735 0.000000 -0.277784 0.773013 0.000000 -0.634390 63 52 255
0.415735 0.000000 -0.277784 0.881921 0.000000 -0.471397 63 52 255
0.415735 1.000000 -0.277784 0.881921 0.000000 -0.471397 108 100 255
0.461940 1.000000 -0.191341 0.881921 0.000000 -0.471397 110 103 255
0.461940 0.000000 -0.191341 0.881921 0.000000 -0.471397 63 52 255
0.490393 1.000000 0.097545 0.000000 1.000000 0.000000 88 91 92
0.415735 1.000000 0.277785 0.000000 1.000000 0.000000 88 91 92
0.461940 1.000000 0.191342 0.000000 1.000000 0.000000 88 91 92
0.277785 1.000000 0.415735 0.000000 1.000000 0.000000 88 91 92
0.353554 1.000000 0.353554 0.000000 1.000000 0.000000 88 91 92
0.097545 1.000000 0.490393 0.000000 1.000000 0.000000 88 91 92
0.191342 1.000000 0.461940 0.000000 1.000000 0.000000 88 91 92
-0.097545 1.000000 0.490393 0.000000 1.000000 0.000000 88 91 92
0.000000 1.000000 0.500000 0.000000 1.000000 0.000000 88 91 92
-0.277785 1.000000 0.415735 0.000000 1.000000 0.000000 88 91 92
-0.191342 1.000000 0.461940 0.000000 1.000000 0.000000 88 91 92
-0.415735 1.000000 0.277785 0.000000 1.000000 0.000000 88 91 92
-0.353554 1.000000 0.353554 0.000000 1.000000 0.000000 88 91 92
-0.490393 1.000000 0.097545 0.000000 1.000000 0.000000 88 85 86
-0.461940 1.000000 0.191342 0.000000 1.000000 0.000000 88 89 90
-0.490393 1.000000 -0.097545 0.000000 1.000000 0.000000 88 86 87
-0.500000 1.000000 0.000000 0.000000 1.000000 0.000000 89 82 83
-0.415734 1.000000 -0.277786 0.000000 1.000000 0.000000 88 91 92
-0.461940 1.000000 -0.191342 0.000000 1.000000 0.000000 88 90 91
-0.277785 1.000000 -0.415735 0.000000 1.000000 0.000000 88 91 92
-0.353553 1.000000 -0.353554 0.000000 1.000000 0.000000 88 91 92
-0.097544 1.000000 -0.490393 0.000000 1.000000 0.000000 88 91 92
-0.191342 1.000000 -0.461940 0.000000 1.000000 0.000000 88 91 92
0.097545 1.000000 -0.490393 -0.000000 1.000000 0.000000 88 91 92
0.000000 1.000000 -0.500000 -0.000000 1.000000 0.000000 88 91 92
0.277786 1.000000 -0.415734 0.000000 1.000000 0.000000 88 91 92
0.191342 1.000000 -0.461940 0.000000 1.000000 0.000000 88 91 92
0.415735 1.000000 -0.277784 0.000000 1.000000 0.000000 88 91 92
0.353554 1.000000 -0.353553 0.000000 1.000000 0.000000 88 91 92
0.490393 1.000000 -0.097544 0.000000 1.000000 0.000000 88 91 92
0.461940 1.000000 -0.191341 0.000000 1.000000 0.000000 88 91 92
0.500000 1.000000 0.000000 0.000000 1.000000 -0.000000 88 91 92
0.500000 1.000000 0.000000 0.995185 0.000000 -0.098014 63 52 255
0.500000 0.000000 0.000000 0.995185 0.000000 -0.098014 63 52 255
0.490393 0.000000 -0.097544 0.995185 0.000000 -0.098014 63 52 255
0.490393 1.000000 -0.097544 0.995185 0.000000 -0.098014 63 52 255
0.461940 0.000000 -0.191341 0.956940 0.000000 -0.290286 63 52 255
0.461940 1.000000 -0.191341 0.956940 0.000000 -0.290286 110 103 255
0.490393 1.000000 -0.097544 0.956940 0.000000 -0.290286 63 52 255
0.490393 0.000000 -0.097544 0.956940 0.000000 -0.290286 63 52 255
0.500000 0.000000 0.000000 -0.000000 -1.000000 0.000000 88 91 92
0.461940 0.000000 -0.191341 -0.000000 -1.000000 0.000000 88 91 92
0.490393 0.000000 -0.097544 -0.000000 -1.000000 0.000000 88 91 92
0.353554 0.000000 -0.353553 0.000000 -1.000000 0.000000 88 91 92
0.415735 0.000000 -0.277784 0.000000 -1.000000 0.000000 88 91 92
0.191342 0.000000 -0.461940 0.000000 -1.000000 0.000000 88 91 92
0.277786 0.000000 -0.415734 0.000000 -1.000000 0.000000 88 91 92
0.000000 0.000000 -0.500000 0.000000 -1.000000 0.000000 88 91 92
0.097545 0.000000 -0.490393 0.000000 -1.000000 0.000000 88 91 92
-0.191342 0.000000 -0.461940 0.000000 -1.000000 0.000000 88 91 92
-0.097544 0.000000 -0.490393 0.000000 -1.000000 0.000000 88 91 92
-0.353553 0.000000 -0.353554 0.000000 -1.000000 0.000000 88 91 92
-0.277785 0.000000 -0.415735 0.000000 -1.000000 0.000000 88 91 92
-0.461940 0.000000 -0.191342 0.000000 -1.000000 0.000000 88 91 92
-0.415734 0.000000 -0.277786 0.000000 -1.000000 0.000000 88 91 92
-0.500000 0.000000 0.000000 0.000000 -1.000000 0.000000 88 91 92
-0.490393 0.000000 -0.097545 0.000000 -1.000000 0.000000 88 91 92
-0.461940 0.000000 0.191342 0.000000 -1.000000 0.000000 88 91 92
-0.490393 0.000000 0.097545 0.000000 -1.000000 0.000000 88 91 92
-0.353554 0.000000 0.353554 0.000000 -1.000000 0.000000 88 91 92
-0.415735 0.000000 0.277785 0.000000 -1.000000 0.000000 88 91 92
-0.191342 0.000000 0.461940 0.000000 -1.000000 0.000000 88 91 92
-0.277785 0.000000 0.415735 0.000000 -1.000000 0.000000 88 91 92
0.000000 0.000000 0.500000 0.000000 -1.000000 0.000000 88 91 92
-0.097545 0.000000 0.490393 0.000000 -1.000000 0.000000 88 91 92
0.191342 0.000000 0.461940 0.000000 -1.000000 0.000000 88 91 92
0.097545 0.000000 0.490393 0.000000 -1.000000 0.000000 88 91 92
0.353554 0.000000 0.353554 0.000000 -1.000000 0.000000 88 91 92
0.277785 0.000000 0.415735 0.000000 -1.000000 0.000000 88 91 92
0.461940 0.000000 0.191342 0.000000 -1.000000 0.000000 88 91 92
0.415735 0.000000 0.277785 0.000000 -1.000000 0.000000 88 91 92
0.490393 0.000000 0.097545 0.000000 -1.000000 0.000000 88 91 92
4 0 1 2 3
4 4 5 6 7
4 8 9 10 11
4 12 13 14 15
4 16 17 18 19
4 20 21 22 23
4 24 25 26 27
4 28 29 30 31
4 32 33 34 35
4 36 37 38 39
4 40 41 42 43
4 44 45 46 47
4 48 49 50 51
4 52 53 54 55
4 56 57 58 59
4 60 61 62 63
4 64 65 66 67
4 68 69 70 71
4 72 73 74 75
4 76 77 78 79
4 80 81 82 83
4 84 85 86 87
4 88 89 90 91
4 92 93 94 95
4 96 97 98 99
4 100 101 102 103
4 104 105 106 107
4 108 109 110 111
4 112 113 114 115
4 116 117 118 119
3 120 121 122
3 123 124 121
3 125 126 123
3 127 128 125
3 129 130 127
3 131 132 129
3 133 134 131
3 135 136 133
3 137 138 135
3 139 140 137
3 141 142 139
3 143 144 141
3 145 146 143
3 147 148 145
3 149 150 147
3 120 151 149
3 120 123 121
3 127 125 123
3 131 129 127
3 135 133 131
3 139 137 135
3 143 141 139
3 147 145 143
3 120 149 147
3 120 127 123
3 135 131 127
3 143 139 135
3 120 147 143
3 120 135 127
3 120 143 135
4 152 153 154 155
4 156 157 158 159
3 160 161 162
3 163 164 161
3 165 166 163
3 167 168 165
3 169 170 167
3 171 172 169
3 173 174 171
3 175 176 173
3 177 178 175
3 179 180 177
3 181 182 179
3 183 184 181
3 185 186 183
3 187 188 185
3 189 190 187
3 160 191 189
3 160 163 161
3 167 165 163
3 171 169 167
3 175 173 171
3 179 177 175
3 183 181 179
3 187 185 183
3 160 189 187
3 160 167 163
3 175 171 167
3 183 179 175
3 160 187 183
3 160 175 167
3 160 183 175
