ply
format ascii 1.0
comment Created by Blender 2.73 (sub 0) - www.blender.org, source file: ''
element vertex 24
property float x
property float y
property float z
property float nx
property float ny
property float nz
property uchar red
property uchar green
property uchar blue
element face 6
property list uchar uint vertex_indices
end_header
0.500000 0.500000 -0.500000 0.000000 0.000000 -1.000000 255 230 163
0.500000 -0.500000 -0.500000 0.000000 0.000000 -1.000000 255 230 163
-0.500000 -0.500000 -0.500000 0.000000 0.000000 -1.000000 255 230 163
-0.500000 0.500000 -0.500000 0.000000 0.000000 -1.000000 255 217 159
0.500000 0.499999 0.500000 0.000000 -0.000000 1.000000 255 230 163
-0.500000 0.500000 0.500000 0.000000 -0.000000 1.000000 255 230 163
-0.500000 -0.500000 0.500000 0.000000 -0.000000 1.000000 255 230 163
0.499999 -0.500000 0.500000 0.000000 -0.000000 1.000000 255 230 163
0.500000 0.500000 -0.500000 1.000000 -0.000000 0.000000 255 230 163
0.500000 0.499999 0.500000 1.000000 -0.000000 0.000000 255 230 163
0.499999 -0.500000 0.500000 1.000000 -0.000000 0.000000 255 230 163
0.500000 -0.500000 -0.500000 1.000000 -0.000000 0.000000 255 230 163
0.500000 -0.500000 -0.500000 -0.000000 -1.000000 -0.000000 255 230 163
0.499999 -0.500000 0.500000 -0.000000 -1.000000 -0.000000 255 230 163
-0.500000 -0.500000 0.500000 -0.000000 -1.000000 -0.000000 255 230 163
-0.500000 -0.500000 -0.500000 -0.000000 -1.000000 -0.000000 255 230 163
-0.500000 -0.500000 -0.500000 -1.000000 -0.000000 0.000000 255 230 163
-0.500000 -0.500000 0.500000 -1.000000 -0.000000 0.000000 255 230 163
-0.500000 0.500000 0.500000 -1.000000 -0.000000 0.000000 255 230 163
-0.500000 0.500000 -0.500000 -1.000000 -0.000000 0.000000 255 230 163
0.500000 0.499999 0.500000 0.000000 1.000000 0.000000 255 230 163
0.500000 0.500000 -0.500000 0.000000 1.000000 0.000000 255 230 163
-0.500000 0.500000 -0.500000 0.000000 1.000000 0.000000 255 230 163
-0.500000 0.500000 0.500000 0.000000 1.000000 0.000000 255 230 163
4 0 1 2 3
4 4 5 6 7
4 8 9 10 11
4 12 13 14 15
4 16 17 18 19
4 20 21 22 23
