ply
format ascii 1.0
comment Created by Blender 2.79 (sub 0) - www.blender.org, source file: 'bigwooden_door_only.blend'
element vertex 168
property float x
property float y
property float z
property float nx
property float ny
property float nz
property uchar red
property uchar green
property uchar blue
element face 42
property list uchar uint vertex_indices
end_header
3.905116 3.488985 -0.209842 0.000000 -0.000000 -1.000000 255 255 255
3.374012 3.488986 -0.209842 0.000000 -0.000000 -1.000000 255 255 255
3.374012 3.754537 -0.209842 0.000000 -0.000000 -1.000000 255 255 255
3.905116 3.754537 -0.209842 0.000000 -0.000000 -1.000000 255 255 255
3.905116 3.754537 -0.209842 1.000000 -0.000001 -0.000000 63 39 23
3.905116 3.754536 0.055709 1.000000 -0.000001 -0.000000 63 39 23
3.905116 3.488985 0.055709 1.000000 -0.000001 -0.000000 63 39 23
3.905116 3.488985 -0.209842 1.000000 -0.000001 -0.000000 63 39 23
3.905116 3.754536 0.055709 0.000000 -0.000000 1.000000 63 39 23
3.374012 3.754537 0.055709 0.000000 -0.000000 1.000000 63 39 23
3.374012 3.488985 0.055709 0.000000 -0.000000 1.000000 63 39 23
3.905116 3.488985 0.055709 0.000000 -0.000000 1.000000 63 39 23
3.374012 3.488986 -0.209842 -1.000000 0.000001 0.000000 63 39 23
3.374012 3.488985 0.055709 -1.000000 0.000001 0.000000 63 39 23
3.374012 3.754537 0.055709 -1.000000 0.000001 0.000000 63 39 23
3.374012 3.754537 -0.209842 -1.000000 0.000001 0.000000 63 39 23
3.374012 3.488986 -0.209842 -0.000001 -1.000000 -0.000002 63 39 23
3.905116 3.488985 -0.209842 -0.000001 -1.000000 -0.000002 63 39 23
3.905116 3.488985 0.055709 -0.000001 -1.000000 -0.000002 63 39 23
3.374012 3.488985 0.055709 -0.000001 -1.000000 -0.000002 63 39 23
3.374012 3.754537 0.055709 0.000001 1.000000 0.000002 63 39 23
3.905116 3.754536 0.055709 0.000001 1.000000 0.000002 63 39 23
3.905116 3.754537 -0.209842 0.000001 1.000000 0.000002 63 39 23
3.374012 3.754537 -0.209842 0.000001 1.000000 0.000002 63 39 23
3.224498 6.820502 -0.467028 0.000000 -0.000000 -1.000000 63 39 23
4.024499 6.820501 -0.467028 0.000000 -0.000000 -1.000000 63 39 23
4.024495 0.221082 -0.467028 0.000000 -0.000000 -1.000000 63 39 23
3.224493 0.221083 -0.467028 0.000000 -0.000000 -1.000000 63 39 23
4.024499 6.820501 -0.467028 1.000000 -0.000001 -0.000000 63 39 23
4.024499 6.820500 -0.067028 1.000000 -0.000001 -0.000000 63 39 23
4.024495 0.221082 -0.067028 1.000000 -0.000001 -0.000000 63 39 23
4.024495 0.221082 -0.467028 1.000000 -0.000001 -0.000000 63 39 23
4.024499 6.820500 -0.067028 -0.000000 0.000000 1.000000 63 39 23
3.224498 6.820501 -0.067028 -0.000000 0.000000 1.000000 63 39 23
3.224493 0.221082 -0.067028 -0.000000 0.000000 1.000000 63 39 23
4.024495 0.221082 -0.067028 -0.000000 0.000000 1.000000 63 39 23
3.224498 6.820501 -0.067028 -1.000000 0.000001 -0.000000 63 39 23
3.224498 6.820502 -0.467028 -1.000000 0.000001 -0.000000 63 39 23
3.224493 0.221083 -0.467028 -1.000000 0.000001 -0.000000 63 39 23
3.224493 0.221082 -0.067028 -1.000000 0.000001 -0.000000 63 39 23
3.224493 0.221083 -0.467028 -0.000001 -1.000000 -0.000002 63 39 23
4.024495 0.221082 -0.467028 -0.000001 -1.000000 -0.000002 63 39 23
4.024495 0.221082 -0.067028 -0.000001 -1.000000 -0.000002 63 39 23
3.224493 0.221082 -0.067028 -0.000001 -1.000000 -0.000002 63 39 23
3.224498 6.820501 -0.067028 0.000001 1.000000 0.000002 63 39 23
4.024499 6.820500 -0.067028 0.000001 1.000000 0.000002 63 39 23
4.024499 6.820501 -0.467028 0.000001 1.000000 0.000002 63 39 23
3.224498 6.820502 -0.467028 0.000001 1.000000 0.000002 63 39 23
0.024490 6.378412 -0.482147 0.000000 -0.000000 -1.000000 63 39 23
0.824492 6.378411 -0.482147 0.000000 -0.000000 -1.000000 63 39 23
0.824488 0.221085 -0.482147 0.000000 -0.000000 -1.000000 63 39 23
0.024486 0.221085 -0.482147 0.000000 -0.000000 -1.000000 63 39 23
0.824492 6.378411 -0.482147 1.000000 -0.000001 -0.000000 63 39 23
0.824492 6.378410 -0.082147 1.000000 -0.000001 -0.000000 63 39 23
0.824488 0.221084 -0.082147 1.000000 -0.000001 -0.000000 63 39 23
0.824488 0.221085 -0.482147 1.000000 -0.000001 -0.000000 63 39 23
0.824492 6.378410 -0.082147 -0.000000 0.000000 1.000000 63 39 23
0.024490 6.378411 -0.082147 -0.000000 0.000000 1.000000 63 39 23
0.024486 0.221085 -0.082147 -0.000000 0.000000 1.000000 63 39 23
0.824488 0.221084 -0.082147 -0.000000 0.000000 1.000000 63 39 23
0.024490 6.378411 -0.082147 -1.000000 0.000001 0.000000 63 39 23
0.024490 6.378412 -0.482147 -1.000000 0.000001 0.000000 63 39 23
0.024486 0.221085 -0.482147 -1.000000 0.000001 0.000000 63 39 23
0.024486 0.221085 -0.082147 -1.000000 0.000001 0.000000 63 39 23
0.024486 0.221085 -0.482147 -0.000001 -1.000000 -0.000002 63 39 23
0.824488 0.221085 -0.482147 -0.000001 -1.000000 -0.000002 63 39 23
0.824488 0.221084 -0.082147 -0.000001 -1.000000 -0.000002 63 39 23
0.024486 0.221085 -0.082147 -0.000001 -1.000000 -0.000002 63 39 23
0.024490 6.378411 -0.082147 0.000001 1.000000 0.000002 63 39 23
0.824492 6.378410 -0.082147 0.000001 1.000000 0.000002 63 39 23
0.824492 6.378411 -0.482147 0.000001 1.000000 0.000002 63 39 23
0.024490 6.378412 -0.482147 0.000001 1.000000 0.000002 63 39 23
0.824492 6.522772 -0.413724 0.000000 -0.000000 -1.000000 63 39 23
1.624494 6.522772 -0.413724 0.000000 -0.000000 -1.000000 63 39 23
1.624490 0.221084 -0.413724 0.000000 -0.000000 -1.000000 63 39 23
0.824488 0.221084 -0.413724 0.000000 -0.000000 -1.000000 63 39 23
1.624494 6.522772 -0.413724 1.000000 -0.000001 -0.000000 63 39 23
1.624494 6.522771 -0.013724 1.000000 -0.000001 -0.000000 63 39 23
1.624490 0.221083 -0.013724 1.000000 -0.000001 -0.000000 63 39 23
1.624490 0.221084 -0.413724 1.000000 -0.000001 -0.000000 63 39 23
1.624494 6.522771 -0.013724 -0.000000 0.000000 1.000000 63 39 23
0.824492 6.522771 -0.013724 -0.000000 0.000000 1.000000 63 39 23
0.824488 0.221084 -0.013724 -0.000000 0.000000 1.000000 63 39 23
1.624490 0.221083 -0.013724 -0.000000 0.000000 1.000000 63 39 23
0.824492 6.522771 -0.013724 -1.000000 0.000001 0.000000 63 39 23
0.824492 6.522772 -0.413724 -1.000000 0.000001 0.000000 63 39 23
0.824488 0.221084 -0.413724 -1.000000 0.000001 0.000000 63 39 23
0.824488 0.221084 -0.013724 -1.000000 0.000001 0.000000 63 39 23
0.824488 0.221084 -0.413724 -0.000001 -1.000000 -0.000002 63 39 23
1.624490 0.221084 -0.413724 -0.000001 -1.000000 -0.000002 63 39 23
1.624490 0.221083 -0.013724 -0.000001 -1.000000 -0.000002 63 39 23
0.824488 0.221084 -0.013724 -0.000001 -1.000000 -0.000002 63 39 23
0.824492 6.522771 -0.013724 -0.000000 1.000000 0.000002 63 39 23
1.624494 6.522771 -0.013724 -0.000000 1.000000 0.000002 63 39 23
1.624494 6.522772 -0.413724 -0.000000 1.000000 0.000002 63 39 23
0.824492 6.522772 -0.413724 -0.000000 1.000000 0.000002 63 39 23
1.538679 6.683497 -0.494503 -0.125364 0.000000 -0.992111 63 39 23
2.314295 6.683496 -0.592510 -0.125364 0.000000 -0.992111 63 39 23
2.314291 0.221084 -0.592510 -0.125364 0.000000 -0.992111 63 39 23
1.538675 0.221084 -0.494503 -0.125364 0.000000 -0.992111 63 39 23
2.314295 6.683496 -0.592510 0.892475 -0.000001 -0.451097 63 39 23
2.510311 6.683496 -0.204703 0.892475 -0.000001 -0.451097 63 39 23
2.510306 0.221083 -0.204703 0.892475 -0.000001 -0.451097 63 39 23
2.314291 0.221084 -0.592510 0.892475 -0.000001 -0.451097 63 39 23
2.510311 6.683496 -0.204703 0.125364 -0.000000 0.992111 63 39 23
1.734694 6.683496 -0.106695 0.125364 -0.000000 0.992111 63 39 23
1.734690 0.221083 -0.106695 0.125364 -0.000000 0.992111 63 39 23
2.510306 0.221083 -0.204703 0.125364 -0.000000 0.992111 63 39 23
1.734694 6.683496 -0.106695 -0.892475 0.000001 0.451097 63 39 23
1.538679 6.683497 -0.494503 -0.892475 0.000001 0.451097 63 39 23
1.538675 0.221084 -0.494503 -0.892475 0.000001 0.451097 63 39 23
1.734690 0.221083 -0.106695 -0.892475 0.000001 0.451097 63 39 23
1.538675 0.221084 -0.494503 -0.000001 -1.000000 -0.000002 63 39 23
2.314291 0.221084 -0.592510 -0.000001 -1.000000 -0.000002 63 39 23
2.510306 0.221083 -0.204703 -0.000001 -1.000000 -0.000002 63 39 23
1.734690 0.221083 -0.106695 -0.000001 -1.000000 -0.000002 63 39 23
1.734694 6.683496 -0.106695 0.000001 1.000000 0.000002 63 39 23
2.510311 6.683496 -0.204703 0.000001 1.000000 0.000002 63 39 23
2.314295 6.683496 -0.592510 0.000001 1.000000 0.000002 63 39 23
1.538679 6.683497 -0.494503 0.000001 1.000000 0.000002 63 39 23
2.424496 6.776813 -0.645915 0.000000 0.000000 -1.000000 63 39 23
3.224498 6.776812 -0.645915 0.000000 0.000000 -1.000000 63 39 23
3.224493 0.221083 -0.645915 0.000000 0.000000 -1.000000 63 39 23
2.424491 0.221084 -0.645915 0.000000 0.000000 -1.000000 63 39 23
3.224498 6.776812 -0.645915 1.000000 -0.000001 -0.000000 63 39 23
3.224498 6.776811 -0.245915 1.000000 -0.000001 -0.000000 63 39 23
3.224493 0.221082 -0.245915 1.000000 -0.000001 -0.000000 63 39 23
3.224493 0.221083 -0.645915 1.000000 -0.000001 -0.000000 63 39 23
3.224498 6.776811 -0.245915 -0.000000 0.000000 1.000000 63 39 23
2.424496 6.776812 -0.245915 -0.000000 0.000000 1.000000 63 39 23
2.424491 0.221083 -0.245915 -0.000000 0.000000 1.000000 63 39 23
3.224493 0.221082 -0.245915 -0.000000 0.000000 1.000000 63 39 23
2.424496 6.776812 -0.245915 -1.000000 0.000001 0.000000 63 39 23
2.424496 6.776813 -0.645915 -1.000000 0.000001 0.000000 63 39 23
2.424491 0.221084 -0.645915 -1.000000 0.000001 0.000000 63 39 23
2.424491 0.221083 -0.245915 -1.000000 0.000001 0.000000 63 39 23
2.424491 0.221084 -0.645915 -0.000001 -1.000000 -0.000002 63 39 23
3.224493 0.221083 -0.645915 -0.000001 -1.000000 -0.000002 63 39 23
3.224493 0.221082 -0.245915 -0.000001 -1.000000 -0.000002 63 39 23
2.424491 0.221083 -0.245915 -0.000001 -1.000000 -0.000002 63 39 23
2.424496 6.776812 -0.245915 0.000001 1.000000 0.000002 63 39 23
3.224498 6.776811 -0.245915 0.000001 1.000000 0.000002 63 39 23
3.224498 6.776812 -0.645915 0.000001 1.000000 0.000002 63 39 23
2.424496 6.776813 -0.645915 0.000001 1.000000 0.000002 63 39 23
3.374012 3.754537 -0.609774 0.000000 0.000000 -1.000000 63 39 23
3.905116 3.754537 -0.609774 0.000000 0.000000 -1.000000 63 39 23
3.905116 3.488985 -0.609774 0.000000 0.000000 -1.000000 63 39 23
3.374012 3.488986 -0.609774 0.000000 0.000000 -1.000000 63 39 23
3.905116 3.754537 -0.609774 1.000000 -0.000000 0.000000 63 39 23
3.905116 3.754537 -0.344222 1.000000 -0.000000 0.000000 63 39 23
3.905116 3.488985 -0.344222 1.000000 -0.000000 0.000000 63 39 23
3.905116 3.488985 -0.609774 1.000000 -0.000000 0.000000 63 39 23
3.905116 3.754537 -0.344222 -0.000000 0.000000 1.000000 255 255 255
3.374012 3.754537 -0.344222 -0.000000 0.000000 1.000000 255 255 255
3.374012 3.488986 -0.344222 -0.000000 0.000000 1.000000 255 255 255
3.905116 3.488985 -0.344222 -0.000000 0.000000 1.000000 255 255 255
3.374012 3.754537 -0.344222 -1.000000 0.000000 0.000000 63 39 23
3.374012 3.754537 -0.609774 -1.000000 0.000000 0.000000 63 39 23
3.374012 3.488986 -0.609774 -1.000000 0.000000 0.000000 63 39 23
3.374012 3.488986 -0.344222 -1.000000 0.000000 0.000000 63 39 23
3.374012 3.488986 -0.609774 -0.000001 -1.000000 0.000000 63 39 23
3.905116 3.488985 -0.609774 -0.000001 -1.000000 0.000000 63 39 23
3.905116 3.488985 -0.344222 -0.000001 -1.000000 0.000000 63 39 23
3.374012 3.488986 -0.344222 -0.000001 -1.000000 0.000000 63 39 23
3.374012 3.754537 -0.344222 0.000001 1.000000 0.000000 63 39 23
3.905116 3.754537 -0.344222 0.000001 1.000000 0.000000 63 39 23
3.905116 3.754537 -0.609774 0.000001 1.000000 0.000000 63 39 23
3.374012 3.754537 -0.609774 0.000001 1.000000 0.000000 63 39 23
4 0 1 2 3
4 4 5 6 7
4 8 9 10 11
4 12 13 14 15
4 16 17 18 19
4 20 21 22 23
4 24 25 26 27
4 28 29 30 31
4 32 33 34 35
4 36 37 38 39
4 40 41 42 43
4 44 45 46 47
4 48 49 50 51
4 52 53 54 55
4 56 57 58 59
4 60 61 62 63
4 64 65 66 67
4 68 69 70 71
4 72 73 74 75
4 76 77 78 79
4 80 81 82 83
4 84 85 86 87
4 88 89 90 91
4 92 93 94 95
4 96 97 98 99
4 100 101 102 103
4 104 105 106 107
4 108 109 110 111
4 112 113 114 115
4 116 117 118 119
4 120 121 122 123
4 124 125 126 127
4 128 129 130 131
4 132 133 134 135
4 136 137 138 139
4 140 141 142 143
4 144 145 146 147
4 148 149 150 151
4 152 153 154 155
4 156 157 158 159
4 160 161 162 163
4 164 165 166 167
