ply
format ascii 1.0
comment Created by Blender 2.73 (sub 0) - www.blender.org, source file: 'gems_separated.blend'
element vertex 217
property float x
property float y
property float z
property float nx
property float ny
property float nz
property uchar red
property uchar green
property uchar blue
element face 72
property list uchar uint vertex_indices
end_header
0.089658 -0.049836 0.037808 0.496965 -0.857493 0.133161 103 147 51
0.000000 -0.109836 -0.013956 0.496965 -0.857493 0.133161 103 147 51
0.103528 -0.049836 -0.013956 0.496965 -0.857493 0.133161 103 147 51
0.193185 0.010164 0.037808 0.496965 -0.857493 0.133161 103 147 51
0.089658 -0.049836 0.037808 0.481652 -0.831072 0.278082 103 147 51
0.193185 0.010164 0.037808 0.481652 -0.831072 0.278082 103 147 51
0.141421 0.010164 0.127465 0.481652 -0.831072 0.278082 103 147 51
0.141421 0.010164 0.127465 0.680584 0.618390 0.392936 103 147 51
0.193185 0.010164 0.037808 0.680584 0.618390 0.392936 103 147 51
0.143452 0.045164 0.068866 0.680584 0.618390 0.392936 103 147 51
0.143452 0.045164 0.068866 0.636067 0.752577 0.170434 103 147 51
0.193185 0.010164 0.037808 0.636067 0.752577 0.170434 103 147 51
0.165644 0.045164 -0.013956 0.636067 0.752577 0.170434 103 147 51
0.115911 0.080164 0.017102 0.636067 0.752577 0.170434 103 147 51
0.143452 0.045164 0.068866 0.498417 0.817786 0.287761 103 147 51
0.115911 0.080164 0.017102 0.498417 0.817786 0.287761 103 147 51
0.084853 0.080164 0.070897 0.498417 0.817786 0.287761 103 147 51
0.051764 -0.049836 0.075702 0.363803 -0.857493 0.363803 103 147 51
0.000000 -0.109836 -0.013956 0.363803 -0.857493 0.363803 103 147 51
0.089658 -0.049836 0.037808 0.363803 -0.857493 0.363803 103 147 51
0.141421 0.010164 0.127465 0.363803 -0.857493 0.363803 103 147 51
0.051764 -0.049836 0.075702 0.278082 -0.831072 0.481652 103 147 51
0.141421 0.010164 0.127465 0.278082 -0.831072 0.481652 103 147 51
0.051764 0.010164 0.179229 0.278082 -0.831072 0.481652 103 147 51
0.051764 0.010164 0.179229 0.392936 0.618390 0.680584 103 147 51
0.141421 0.010164 0.127465 0.392936 0.618390 0.680584 103 147 51
0.082822 0.045164 0.129496 0.392936 0.618390 0.680584 103 147 51
0.082822 0.045164 0.129496 0.465633 0.752577 0.465633 103 147 51
0.141421 0.010164 0.127465 0.465633 0.752577 0.465633 103 147 51
0.143452 0.045164 0.068866 0.465633 0.752577 0.465633 103 147 51
0.084853 0.080164 0.070897 0.465633 0.752577 0.465633 103 147 51
0.082822 0.045164 0.129496 0.287761 0.817786 0.498417 103 147 51
0.084853 0.080164 0.070897 0.287761 0.817786 0.498417 103 147 51
0.031058 0.080164 0.101955 0.287761 0.817786 0.498417 103 147 51
0.000000 -0.049836 0.089572 0.133161 -0.857493 0.496965 103 147 51
0.000000 -0.109836 -0.013956 0.133161 -0.857493 0.496965 103 147 51
0.051764 -0.049836 0.075702 0.133161 -0.857493 0.496965 103 147 51
0.051764 0.010164 0.179229 0.133161 -0.857493 0.496965 103 147 51
0.000000 -0.049836 0.089572 0.000000 -0.831072 0.556164 103 147 51
0.051764 0.010164 0.179229 0.000000 -0.831072 0.556164 103 147 51
-0.051764 0.010164 0.179229 0.000000 -0.831072 0.556164 103 147 51
-0.051764 0.010164 0.179229 0.000000 0.618390 0.785871 103 147 51
0.051764 0.010164 0.179229 0.000000 0.618390 0.785871 103 147 51
0.000000 0.045164 0.151688 0.000000 0.618390 0.785871 103 147 51
0.000000 0.045164 0.151688 0.170434 0.752577 0.636067 103 147 51
0.051764 0.010164 0.179229 0.170434 0.752577 0.636067 103 147 51
0.082822 0.045164 0.129496 0.170434 0.752577 0.636067 103 147 51
0.031058 0.080164 0.101955 0.170434 0.752577 0.636067 103 147 51
0.000000 0.045164 0.151688 -0.000000 0.817786 0.575522 103 147 51
0.031058 0.080164 0.101955 -0.000000 0.817786 0.575522 103 147 51
-0.031058 0.080164 0.101955 -0.000000 0.817786 0.575522 103 147 51
-0.051764 -0.049836 0.075702 -0.133161 -0.857493 0.496965 103 147 51
0.000000 -0.109836 -0.013956 -0.133161 -0.857493 0.496965 103 147 51
0.000000 -0.049836 0.089572 -0.133161 -0.857493 0.496965 103 147 51
-0.051764 0.010164 0.179229 -0.133161 -0.857493 0.496965 103 147 51
-0.051764 -0.049836 0.075702 -0.278082 -0.831072 0.481652 103 147 51
-0.051764 0.010164 0.179229 -0.278082 -0.831072 0.481652 103 147 51
-0.141421 0.010164 0.127465 -0.278082 -0.831072 0.481652 103 147 51
-0.141421 0.010164 0.127465 -0.392936 0.618390 0.680584 103 147 51
-0.051764 0.010164 0.179229 -0.392936 0.618390 0.680584 103 147 51
-0.082822 0.045164 0.129496 -0.392936 0.618390 0.680584 103 147 51
-0.082822 0.045164 0.129496 -0.170434 0.752577 0.636067 103 147 51
-0.051764 0.010164 0.179229 -0.170434 0.752577 0.636067 103 147 51
0.000000 0.045164 0.151688 -0.170434 0.752577 0.636067 103 147 51
-0.031058 0.080164 0.101955 -0.170434 0.752577 0.636067 103 147 51
-0.082822 0.045164 0.129496 -0.287761 0.817786 0.498417 103 147 51
-0.031058 0.080164 0.101955 -0.287761 0.817786 0.498417 103 147 51
-0.084853 0.080164 0.070897 -0.287761 0.817786 0.498417 103 147 51
-0.089658 -0.049836 0.037808 -0.363803 -0.857493 0.363803 103 147 51
0.000000 -0.109836 -0.013956 -0.363803 -0.857493 0.363803 103 147 51
-0.051764 -0.049836 0.075702 -0.363803 -0.857493 0.363803 103 147 51
-0.141421 0.010164 0.127465 -0.363803 -0.857493 0.363803 103 147 51
-0.089658 -0.049836 0.037808 -0.481652 -0.831072 0.278082 103 147 51
-0.141421 0.010164 0.127465 -0.481652 -0.831072 0.278082 103 147 51
-0.193185 0.010164 0.037808 -0.481652 -0.831072 0.278082 103 147 51
-0.193185 0.010164 0.037808 -0.680584 0.618390 0.392936 103 147 51
-0.141421 0.010164 0.127465 -0.680584 0.618390 0.392936 103 147 51
-0.143452 0.045164 0.068866 -0.680584 0.618390 0.392936 103 147 51
-0.143452 0.045164 0.068866 -0.465633 0.752577 0.465633 103 147 51
-0.141421 0.010164 0.127465 -0.465633 0.752577 0.465633 103 147 51
-0.082822 0.045164 0.129496 -0.465633 0.752577 0.465633 103 147 51
-0.084853 0.080164 0.070897 -0.465633 0.752577 0.465633 103 147 51
-0.143452 0.045164 0.068866 -0.498417 0.817786 0.287761 103 147 51
-0.084853 0.080164 0.070897 -0.498417 0.817786 0.287761 103 147 51
-0.115911 0.080164 0.017102 -0.498417 0.817786 0.287761 103 147 51
-0.103528 -0.049836 -0.013956 -0.496965 -0.857493 0.133161 103 147 51
0.000000 -0.109836 -0.013956 -0.496965 -0.857493 0.133161 103 147 51
-0.089658 -0.049836 0.037808 -0.496965 -0.857493 0.133161 103 147 51
-0.193185 0.010164 0.037808 -0.496965 -0.857493 0.133161 103 147 51
-0.103528 -0.049836 -0.013956 -0.556164 -0.831072 0.000000 103 147 51
-0.193185 0.010164 0.037808 -0.556164 -0.831072 0.000000 103 147 51
-0.193185 0.010164 -0.065720 -0.556164 -0.831072 0.000000 103 147 51
-0.193185 0.010164 -0.065720 -0.785871 0.618390 0.000000 113 160 56
-0.193185 0.010164 0.037808 -0.785871 0.618390 0.000000 108 154 53
-0.165644 0.045164 -0.013956 -0.785871 0.618390 0.000000 105 150 52
-0.165644 0.045164 -0.013956 -0.636067 0.752577 0.170434 103 147 51
-0.193185 0.010164 0.037808 -0.636067 0.752577 0.170434 103 147 51
-0.143452 0.045164 0.068866 -0.636067 0.752577 0.170434 103 147 51
-0.115911 0.080164 0.017102 -0.636067 0.752577 0.170434 103 147 51
-0.165644 0.045164 -0.013956 -0.575522 0.817786 0.000000 103 147 51
-0.115911 0.080164 0.017102 -0.575522 0.817786 0.000000 103 147 51
-0.115911 0.080164 -0.045014 -0.575522 0.817786 0.000000 103 147 51
-0.089658 -0.049836 -0.065720 -0.496965 -0.857493 -0.133161 103 147 51
0.000000 -0.109836 -0.013956 -0.496965 -0.857493 -0.133161 103 147 51
-0.103528 -0.049836 -0.013956 -0.496965 -0.857493 -0.133161 103 147 51
-0.193185 0.010164 -0.065720 -0.496965 -0.857493 -0.133161 103 147 51
-0.089658 -0.049836 -0.065720 -0.481652 -0.831072 -0.278082 103 147 51
-0.193185 0.010164 -0.065720 -0.481652 -0.831072 -0.278082 103 147 51
-0.141421 0.010164 -0.155377 -0.481652 -0.831072 -0.278082 103 147 51
-0.141421 0.010164 -0.155377 -0.680584 0.618390 -0.392936 111 158 55
-0.193185 0.010164 -0.065720 -0.680584 0.618390 -0.392936 113 160 56
-0.143452 0.045164 -0.096778 -0.680584 0.618390 -0.392936 95 135 47
-0.143452 0.045164 -0.096778 -0.636067 0.752577 -0.170434 103 147 51
-0.193185 0.010164 -0.065720 -0.636067 0.752577 -0.170434 103 147 51
-0.165644 0.045164 -0.013956 -0.636067 0.752577 -0.170434 103 147 51
-0.115911 0.080164 -0.045014 -0.636067 0.752577 -0.170434 103 147 51
-0.143452 0.045164 -0.096778 -0.498417 0.817786 -0.287761 103 147 51
-0.115911 0.080164 -0.045014 -0.498417 0.817786 -0.287761 103 147 51
-0.084853 0.080164 -0.098809 -0.498417 0.817786 -0.287761 103 147 51
-0.051764 -0.049836 -0.103614 -0.363803 -0.857493 -0.363803 103 147 51
0.000000 -0.109836 -0.013956 -0.363803 -0.857493 -0.363803 103 147 51
-0.089658 -0.049836 -0.065720 -0.363803 -0.857493 -0.363803 103 147 51
-0.141421 0.010164 -0.155377 -0.363803 -0.857493 -0.363803 103 147 51
-0.051764 -0.049836 -0.103614 -0.278082 -0.831072 -0.481652 103 147 51
-0.141421 0.010164 -0.155377 -0.278082 -0.831072 -0.481652 103 147 51
-0.051764 0.010164 -0.207141 -0.278082 -0.831072 -0.481652 103 147 51
-0.051764 0.010164 -0.207141 -0.392936 0.618390 -0.680584 103 147 51
-0.141421 0.010164 -0.155377 -0.392936 0.618390 -0.680584 103 147 51
-0.082822 0.045164 -0.157408 -0.392936 0.618390 -0.680584 103 147 51
-0.082822 0.045164 -0.157408 -0.465633 0.752577 -0.465633 103 147 51
-0.141421 0.010164 -0.155377 -0.465633 0.752577 -0.465633 103 147 51
-0.143452 0.045164 -0.096778 -0.465633 0.752577 -0.465633 103 147 51
-0.084853 0.080164 -0.098809 -0.465633 0.752577 -0.465633 103 147 51
-0.082822 0.045164 -0.157408 -0.287761 0.817786 -0.498417 103 147 51
-0.084853 0.080164 -0.098809 -0.287761 0.817786 -0.498417 103 147 51
-0.031058 0.080164 -0.129867 -0.287761 0.817786 -0.498417 103 147 51
-0.000000 -0.049836 -0.117484 -0.133161 -0.857493 -0.496965 103 147 51
0.000000 -0.109836 -0.013956 -0.133161 -0.857493 -0.496965 103 147 51
-0.051764 -0.049836 -0.103614 -0.133161 -0.857493 -0.496965 103 147 51
-0.051764 0.010164 -0.207141 -0.133161 -0.857493 -0.496965 103 147 51
-0.000000 -0.049836 -0.117484 -0.000000 -0.831072 -0.556164 103 147 51
-0.051764 0.010164 -0.207141 -0.000000 -0.831072 -0.556164 103 147 51
0.051764 0.010164 -0.207141 -0.000000 -0.831072 -0.556164 103 147 51
0.051764 0.010164 -0.207141 0.000000 0.618390 -0.785871 103 147 51
-0.051764 0.010164 -0.207141 0.000000 0.618390 -0.785871 103 147 51
-0.000000 0.045164 -0.179600 0.000000 0.618390 -0.785871 103 147 51
-0.000000 0.045164 -0.179600 -0.170434 0.752577 -0.636067 103 147 51
-0.051764 0.010164 -0.207141 -0.170434 0.752577 -0.636067 103 147 51
-0.082822 0.045164 -0.157408 -0.170434 0.752577 -0.636067 103 147 51
-0.031058 0.080164 -0.129867 -0.170434 0.752577 -0.636067 103 147 51
-0.000000 0.045164 -0.179600 0.000000 0.817786 -0.575522 103 147 51
-0.031058 0.080164 -0.129867 0.000000 0.817786 -0.575522 103 147 51
0.031058 0.080164 -0.129867 0.000000 0.817786 -0.575522 103 147 51
0.051764 -0.049836 -0.103614 0.133161 -0.857493 -0.496965 103 147 51
0.000000 -0.109836 -0.013956 0.133161 -0.857493 -0.496965 103 147 51
-0.000000 -0.049836 -0.117484 0.133161 -0.857493 -0.496965 103 147 51
0.051764 0.010164 -0.207141 0.133161 -0.857493 -0.496965 103 147 51
0.051764 -0.049836 -0.103614 0.278082 -0.831072 -0.481652 103 147 51
0.051764 0.010164 -0.207141 0.278082 -0.831072 -0.481652 103 147 51
0.141421 0.010164 -0.155377 0.278082 -0.831072 -0.481652 103 147 51
0.141421 0.010164 -0.155377 0.392936 0.618390 -0.680584 103 147 51
0.051764 0.010164 -0.207141 0.392936 0.618390 -0.680584 103 147 51
0.082822 0.045164 -0.157408 0.392936 0.618390 -0.680584 103 147 51
0.082822 0.045164 -0.157408 0.170434 0.752577 -0.636067 103 147 51
0.051764 0.010164 -0.207141 0.170434 0.752577 -0.636067 104 148 52
-0.000000 0.045164 -0.179600 0.170434 0.752577 -0.636067 103 147 51
0.031058 0.080164 -0.129867 0.170434 0.752577 -0.636067 103 147 51
0.082822 0.045164 -0.157408 0.287761 0.817786 -0.498417 103 147 51
0.031058 0.080164 -0.129867 0.287761 0.817786 -0.498417 103 147 51
0.084853 0.080164 -0.098809 0.287761 0.817786 -0.498417 103 147 51
0.089658 -0.049836 -0.065720 0.363803 -0.857493 -0.363803 103 147 51
0.000000 -0.109836 -0.013956 0.363803 -0.857493 -0.363803 103 147 51
0.051764 -0.049836 -0.103614 0.363803 -0.857493 -0.363803 103 147 51
0.141421 0.010164 -0.155377 0.363803 -0.857493 -0.363803 103 147 51
0.089658 -0.049836 -0.065720 0.481652 -0.831072 -0.278082 103 147 51
0.141421 0.010164 -0.155377 0.481652 -0.831072 -0.278082 103 147 51
0.193185 0.010164 -0.065720 0.481652 -0.831072 -0.278082 103 147 51
0.193185 0.010164 -0.065720 0.680584 0.618390 -0.392936 103 147 51
0.141421 0.010164 -0.155377 0.680584 0.618390 -0.392936 103 147 51
0.143452 0.045164 -0.096778 0.680584 0.618390 -0.392936 103 147 51
0.143452 0.045164 -0.096778 0.465633 0.752577 -0.465633 103 147 51
0.141421 0.010164 -0.155377 0.465633 0.752577 -0.465633 104 148 51
0.082822 0.045164 -0.157408 0.465633 0.752577 -0.465633 103 147 51
0.084853 0.080164 -0.098809 0.465633 0.752577 -0.465633 103 147 51
0.143452 0.045164 -0.096778 0.498417 0.817786 -0.287761 103 147 51
0.084853 0.080164 -0.098809 0.498417 0.817786 -0.287761 103 147 51
0.115911 0.080164 -0.045014 0.498417 0.817786 -0.287761 103 147 51
0.103528 -0.049836 -0.013956 0.496965 -0.857493 -0.133161 103 147 51
0.000000 -0.109836 -0.013956 0.496965 -0.857493 -0.133161 103 147 51
0.089658 -0.049836 -0.065720 0.496965 -0.857493 -0.133161 103 147 51
0.193185 0.010164 -0.065720 0.496965 -0.857493 -0.133161 103 147 51
0.103528 -0.049836 -0.013956 0.556164 -0.831072 0.000000 103 147 51
0.193185 0.010164 -0.065720 0.556164 -0.831072 0.000000 103 147 51
0.193185 0.010164 0.037808 0.556164 -0.831072 0.000000 103 147 51
0.193185 0.010164 0.037808 0.785871 0.618390 -0.000000 103 147 51
0.193185 0.010164 -0.065720 0.785871 0.618390 -0.000000 103 147 51
0.165644 0.045164 -0.013956 0.785871 0.618390 -0.000000 103 147 51
0.165644 0.045164 -0.013956 0.636067 0.752577 -0.170434 103 147 51
0.193185 0.010164 -0.065720 0.636067 0.752577 -0.170434 103 147 51
0.143452 0.045164 -0.096778 0.636067 0.752577 -0.170434 103 147 51
0.115911 0.080164 -0.045014 0.636067 0.752577 -0.170434 103 147 51
0.165644 0.045164 -0.013956 0.575522 0.817786 0.000000 103 147 51
0.115911 0.080164 -0.045014 0.575522 0.817786 0.000000 103 147 51
0.115911 0.080164 0.017102 0.575522 0.817786 0.000000 103 147 51
0.115911 0.080164 0.017102 -0.000000 1.000000 0.000000 103 147 51
0.115911 0.080164 -0.045014 -0.000000 1.000000 0.000000 103 147 51
0.000000 0.080164 -0.013956 -0.000000 1.000000 0.000000 103 147 51
0.084853 0.080164 0.070897 0.000000 1.000000 0.000000 103 147 51
0.031058 0.080164 0.101955 0.000000 1.000000 0.000000 103 147 51
-0.031058 0.080164 0.101955 0.000000 1.000000 0.000000 103 147 51
-0.084853 0.080164 0.070897 0.000000 1.000000 0.000000 103 147 51
-0.115911 0.080164 0.017102 0.000000 1.000000 0.000000 103 147 51
-0.115911 0.080164 -0.045014 -0.000000 1.000000 0.000000 103 147 51
-0.084853 0.080164 -0.098809 -0.000000 1.000000 0.000000 103 147 51
-0.031058 0.080164 -0.129867 -0.000000 1.000000 0.000000 103 147 51
0.031058 0.080164 -0.129867 0.000000 1.000000 -0.000000 103 147 51
0.084853 0.080164 -0.098809 0.000000 1.000000 -0.000000 103 147 51
4 0 1 2 3
3 4 5 6
3 7 8 9
4 10 11 12 13
3 14 15 16
4 17 18 19 20
3 21 22 23
3 24 25 26
4 27 28 29 30
3 31 32 33
4 34 35 36 37
3 38 39 40
3 41 42 43
4 44 45 46 47
3 48 49 50
4 51 52 53 54
3 55 56 57
3 58 59 60
4 61 62 63 64
3 65 66 67
4 68 69 70 71
3 72 73 74
3 75 76 77
4 78 79 80 81
3 82 83 84
4 85 86 87 88
3 89 90 91
3 92 93 94
4 95 96 97 98
3 99 100 101
4 102 103 104 105
3 106 107 108
3 109 110 111
4 112 113 114 115
3 116 117 118
4 119 120 121 122
3 123 124 125
3 126 127 128
4 129 130 131 132
3 133 134 135
4 136 137 138 139
3 140 141 142
3 143 144 145
4 146 147 148 149
3 150 151 152
4 153 154 155 156
3 157 158 159
3 160 161 162
4 163 164 165 166
3 167 168 169
4 170 171 172 173
3 174 175 176
3 177 178 179
4 180 181 182 183
3 184 185 186
4 187 188 189 190
3 191 192 193
3 194 195 196
4 197 198 199 200
3 201 202 203
3 204 205 206
3 206 207 204
3 206 208 207
3 206 209 208
3 206 210 209
3 206 211 210
3 206 212 211
3 206 213 212
3 206 214 213
3 206 215 214
3 206 216 215
3 206 205 216
