ply
format ascii 1.0
comment Created by Blender 2.73 (sub 0) - www.blender.org, source file: 'gems_separated.blend'
element vertex 145
property float x
property float y
property float z
property float nx
property float ny
property float nz
property uchar red
property uchar green
property uchar blue
element face 48
property list uchar uint vertex_indices
end_header
0.029976 -0.097959 0.110777 0.577143 -0.780869 0.239061 115 202 236
-0.046561 -0.177959 0.034241 0.577143 -0.780869 0.239061 115 202 236
0.061679 -0.097959 0.034241 0.577143 -0.780869 0.239061 115 202 236
0.138215 -0.017959 0.110777 0.577143 -0.780869 0.239061 115 202 236
0.029976 -0.097959 0.110777 0.510937 -0.691293 0.510937 115 202 236
0.138215 -0.017959 0.110777 0.510937 -0.691293 0.510937 115 202 236
0.029976 -0.017959 0.219017 0.510937 -0.691293 0.510937 115 202 236
0.029976 -0.017959 0.219017 0.671242 0.314433 0.671242 115 202 236
0.138215 -0.017959 0.110777 0.671242 0.314433 0.671242 115 202 236
0.075898 0.017041 0.156699 0.671242 0.314433 0.671242 115 202 236
0.075898 0.017041 0.156699 0.608379 0.752577 0.251999 115 202 236
0.138215 -0.017959 0.110777 0.608379 0.752577 0.251999 115 202 236
0.126622 0.017041 0.034241 0.608379 0.752577 0.251999 115 202 236
0.064305 0.052041 0.080163 0.608379 0.752577 0.251999 115 202 236
0.075898 0.017041 0.156699 0.346265 0.871895 0.346265 115 202 236
0.064305 0.052041 0.080163 0.346265 0.871895 0.346265 115 202 236
-0.000639 0.052041 0.145106 0.346265 0.871895 0.346265 115 202 236
-0.046561 -0.097959 0.142480 0.239061 -0.780869 0.577143 115 202 236
-0.046561 -0.177959 0.034241 0.239061 -0.780869 0.577143 115 202 236
0.029976 -0.097959 0.110777 0.239061 -0.780869 0.577143 115 202 236
0.029976 -0.017959 0.219017 0.239061 -0.780869 0.577143 115 202 236
-0.046561 -0.097959 0.142480 0.000000 -0.691293 0.722574 115 202 236
0.029976 -0.017959 0.219017 0.000000 -0.691293 0.722574 115 202 236
-0.123097 -0.017959 0.219017 0.000000 -0.691293 0.722574 115 202 236
-0.123097 -0.017959 0.219017 0.000000 0.314433 0.949280 115 202 236
0.029976 -0.017959 0.219017 0.000000 0.314433 0.949280 115 202 236
-0.046561 0.017041 0.207424 0.000000 0.314433 0.949280 115 202 236
-0.046561 0.017041 0.207424 0.251999 0.752577 0.608379 115 202 236
0.029976 -0.017959 0.219017 0.251999 0.752577 0.608379 115 202 236
0.075898 0.017041 0.156699 0.251999 0.752577 0.608379 115 202 236
-0.000639 0.052041 0.145106 0.251999 0.752577 0.608379 115 202 236
-0.046561 0.017041 0.207424 -0.000000 0.871895 0.489693 115 202 236
-0.000639 0.052041 0.145106 -0.000000 0.871895 0.489693 115 202 236
-0.092483 0.052041 0.145106 -0.000000 0.871895 0.489693 115 202 236
-0.123097 -0.097959 0.110777 -0.239061 -0.780869 0.577143 115 202 236
-0.046561 -0.177959 0.034241 -0.239061 -0.780869 0.577143 115 202 236
-0.046561 -0.097959 0.142480 -0.239061 -0.780869 0.577143 115 202 236
-0.123097 -0.017959 0.219017 -0.239061 -0.780869 0.577143 115 202 236
-0.123097 -0.097959 0.110777 -0.510937 -0.691293 0.510937 115 202 236
-0.123097 -0.017959 0.219017 -0.510937 -0.691293 0.510937 115 202 236
-0.231336 -0.017959 0.110777 -0.510937 -0.691293 0.510937 116 203 236
-0.231336 -0.017959 0.110777 -0.671242 0.314433 0.671242 116 203 236
-0.123097 -0.017959 0.219017 -0.671242 0.314433 0.671242 137 210 239
-0.169019 0.017041 0.156699 -0.671242 0.314433 0.671242 143 213 240
-0.169019 0.017041 0.156699 -0.251999 0.752577 0.608379 115 202 236
-0.123097 -0.017959 0.219017 -0.251999 0.752577 0.608379 115 202 236
-0.046561 0.017041 0.207424 -0.251999 0.752577 0.608379 115 202 236
-0.092483 0.052041 0.145106 -0.251999 0.752577 0.608379 115 202 236
-0.169019 0.017041 0.156699 -0.346265 0.871895 0.346265 115 202 236
-0.092483 0.052041 0.145106 -0.346265 0.871895 0.346265 115 202 236
-0.157426 0.052041 0.080163 -0.346265 0.871895 0.346265 115 202 236
-0.154800 -0.097959 0.034241 -0.577143 -0.780869 0.239060 115 202 236
-0.046561 -0.177959 0.034241 -0.577143 -0.780869 0.239060 115 202 236
-0.123097 -0.097959 0.110777 -0.577143 -0.780869 0.239060 115 202 236
-0.231336 -0.017959 0.110777 -0.577143 -0.780869 0.239060 116 203 236
-0.154800 -0.097959 0.034241 -0.722574 -0.691293 0.000000 115 202 236
-0.231336 -0.017959 0.110777 -0.722574 -0.691293 0.000000 116 203 236
-0.231336 -0.017959 -0.042296 -0.722574 -0.691293 0.000000 115 202 236
-0.231336 -0.017959 -0.042296 -0.949280 0.314433 0.000000 115 202 236
-0.231336 -0.017959 0.110777 -0.949280 0.314433 0.000000 116 203 236
-0.219743 0.017041 0.034241 -0.949280 0.314433 0.000000 115 202 236
-0.219743 0.017041 0.034241 -0.608379 0.752577 0.251999 115 202 236
-0.231336 -0.017959 0.110777 -0.608379 0.752577 0.251999 115 202 236
-0.169019 0.017041 0.156699 -0.608379 0.752577 0.251999 115 202 236
-0.157426 0.052041 0.080163 -0.608379 0.752577 0.251999 115 202 236
-0.219743 0.017041 0.034241 -0.489693 0.871895 0.000000 115 202 236
-0.157426 0.052041 0.080163 -0.489693 0.871895 0.000000 115 202 236
-0.157426 0.052041 -0.011681 -0.489693 0.871895 0.000000 115 202 236
-0.123097 -0.097959 -0.042296 -0.577143 -0.780869 -0.239060 115 202 236
-0.046561 -0.177959 0.034241 -0.577143 -0.780869 -0.239060 115 202 236
-0.154800 -0.097959 0.034241 -0.577143 -0.780869 -0.239060 115 202 236
-0.231336 -0.017959 -0.042296 -0.577143 -0.780869 -0.239060 115 202 236
-0.123097 -0.097959 -0.042296 -0.510937 -0.691293 -0.510937 115 202 236
-0.231336 -0.017959 -0.042296 -0.510937 -0.691293 -0.510937 115 202 236
-0.123097 -0.017959 -0.150535 -0.510937 -0.691293 -0.510937 115 202 236
-0.123097 -0.017959 -0.150535 -0.671242 0.314433 -0.671242 115 202 236
-0.231336 -0.017959 -0.042296 -0.671242 0.314433 -0.671242 115 202 236
-0.169019 0.017041 -0.088218 -0.671242 0.314433 -0.671242 115 202 236
-0.169019 0.017041 -0.088218 -0.608379 0.752577 -0.251999 115 202 236
-0.231336 -0.017959 -0.042296 -0.608379 0.752577 -0.251999 115 202 236
-0.219743 0.017041 0.034241 -0.608379 0.752577 -0.251999 115 202 236
-0.157426 0.052041 -0.011681 -0.608379 0.752577 -0.251999 115 202 236
-0.169019 0.017041 -0.088218 -0.346265 0.871895 -0.346265 115 202 236
-0.157426 0.052041 -0.011681 -0.346265 0.871895 -0.346265 115 202 236
-0.092483 0.052041 -0.076625 -0.346265 0.871895 -0.346265 115 202 236
-0.046561 -0.097959 -0.073998 -0.239061 -0.780869 -0.577143 115 202 236
-0.046561 -0.177959 0.034241 -0.239061 -0.780869 -0.577143 115 202 236
-0.123097 -0.097959 -0.042296 -0.239061 -0.780869 -0.577143 115 202 236
-0.123097 -0.017959 -0.150535 -0.239061 -0.780869 -0.577143 115 202 236
-0.046561 -0.097959 -0.073998 -0.000000 -0.691293 -0.722574 115 202 236
-0.123097 -0.017959 -0.150535 -0.000000 -0.691293 -0.722574 115 202 236
0.029976 -0.017959 -0.150535 -0.000000 -0.691293 -0.722574 115 202 236
0.029976 -0.017959 -0.150535 0.000000 0.314433 -0.949280 115 202 236
-0.123097 -0.017959 -0.150535 0.000000 0.314433 -0.949280 115 202 236
-0.046561 0.017041 -0.138942 0.000000 0.314433 -0.949280 115 202 236
-0.046561 0.017041 -0.138942 -0.251999 0.752577 -0.608379 115 202 236
-0.123097 -0.017959 -0.150535 -0.251999 0.752577 -0.608379 115 202 236
-0.169019 0.017041 -0.088218 -0.251999 0.752577 -0.608379 115 202 236
-0.092483 0.052041 -0.076625 -0.251999 0.752577 -0.608379 115 202 236
-0.046561 0.017041 -0.138942 0.000000 0.871895 -0.489693 115 202 236
-0.092483 0.052041 -0.076625 0.000000 0.871895 -0.489693 115 202 236
-0.000639 0.052041 -0.076625 0.000000 0.871895 -0.489693 115 202 236
0.029976 -0.097959 -0.042296 0.239061 -0.780869 -0.577143 115 202 236
-0.046561 -0.177959 0.034241 0.239061 -0.780869 -0.577143 115 202 236
-0.046561 -0.097959 -0.073998 0.239061 -0.780869 -0.577143 115 202 236
0.029976 -0.017959 -0.150535 0.239061 -0.780869 -0.577143 115 202 236
0.029976 -0.097959 -0.042296 0.510937 -0.691293 -0.510937 115 202 236
0.029976 -0.017959 -0.150535 0.510937 -0.691293 -0.510937 115 202 236
0.138215 -0.017959 -0.042296 0.510937 -0.691293 -0.510937 115 202 236
0.138215 -0.017959 -0.042296 0.671242 0.314433 -0.671242 115 202 236
0.029976 -0.017959 -0.150535 0.671242 0.314433 -0.671242 115 202 236
0.075898 0.017041 -0.088218 0.671242 0.314433 -0.671242 115 202 236
0.075898 0.017041 -0.088218 0.251999 0.752577 -0.608379 115 202 236
0.029976 -0.017959 -0.150535 0.251999 0.752577 -0.608379 161 220 242
-0.046561 0.017041 -0.138942 0.251999 0.752577 -0.608379 115 202 236
-0.000639 0.052041 -0.076625 0.251999 0.752577 -0.608379 115 202 236
0.075898 0.017041 -0.088218 0.346265 0.871895 -0.346265 115 202 236
-0.000639 0.052041 -0.076625 0.346265 0.871895 -0.346265 115 202 236
0.064305 0.052041 -0.011681 0.346265 0.871895 -0.346265 115 202 236
0.061679 -0.097959 0.034241 0.577143 -0.780869 -0.239061 115 202 236
-0.046561 -0.177959 0.034241 0.577143 -0.780869 -0.239061 115 202 236
0.029976 -0.097959 -0.042296 0.577143 -0.780869 -0.239061 115 202 236
0.138215 -0.017959 -0.042296 0.577143 -0.780869 -0.239061 115 202 236
0.061679 -0.097959 0.034241 0.722574 -0.691293 0.000000 115 202 236
0.138215 -0.017959 -0.042296 0.722574 -0.691293 0.000000 115 202 236
0.138215 -0.017959 0.110777 0.722574 -0.691293 0.000000 115 202 236
0.138215 -0.017959 0.110777 0.949280 0.314433 -0.000000 115 202 236
0.138215 -0.017959 -0.042296 0.949280 0.314433 -0.000000 116 201 235
0.126622 0.017041 0.034241 0.949280 0.314433 -0.000000 115 202 236
0.126622 0.017041 0.034241 0.608379 0.752577 -0.251999 115 202 236
0.138215 -0.017959 -0.042296 0.608379 0.752577 -0.251999 116 201 235
0.075898 0.017041 -0.088218 0.608379 0.752577 -0.251999 115 202 236
0.064305 0.052041 -0.011681 0.608379 0.752577 -0.251999 115 202 236
0.126622 0.017041 0.034241 0.489693 0.871895 0.000000 115 202 236
0.064305 0.052041 -0.011681 0.489693 0.871895 0.000000 115 202 236
0.064305 0.052041 0.080163 0.489693 0.871895 0.000000 115 202 236
0.064305 0.052041 0.080163 -0.000000 1.000000 0.000000 115 202 236
0.064305 0.052041 -0.011681 -0.000000 1.000000 0.000000 115 202 236
-0.046561 0.052041 0.034241 -0.000000 1.000000 0.000000 115 202 236
-0.000639 0.052041 0.145106 0.000000 1.000000 0.000000 115 202 236
-0.092483 0.052041 0.145106 0.000000 1.000000 0.000000 115 202 236
-0.157426 0.052041 0.080163 0.000000 1.000000 0.000000 115 202 236
-0.157426 0.052041 -0.011681 -0.000000 1.000000 0.000000 115 202 236
-0.092483 0.052041 -0.076625 -0.000000 1.000000 0.000000 115 202 236
-0.000639 0.052041 -0.076625 0.000000 1.000000 -0.000000 115 202 236
4 0 1 2 3
3 4 5 6
3 7 8 9
4 10 11 12 13
3 14 15 16
4 17 18 19 20
3 21 22 23
3 24 25 26
4 27 28 29 30
3 31 32 33
4 34 35 36 37
3 38 39 40
3 41 42 43
4 44 45 46 47
3 48 49 50
4 51 52 53 54
3 55 56 57
3 58 59 60
4 61 62 63 64
3 65 66 67
4 68 69 70 71
3 72 73 74
3 75 76 77
4 78 79 80 81
3 82 83 84
4 85 86 87 88
3 89 90 91
3 92 93 94
4 95 96 97 98
3 99 100 101
4 102 103 104 105
3 106 107 108
3 109 110 111
4 112 113 114 115
3 116 117 118
4 119 120 121 122
3 123 124 125
3 126 127 128
4 129 130 131 132
3 133 134 135
3 136 137 138
3 138 139 136
3 138 140 139
3 138 141 140
3 138 142 141
3 138 143 142
3 138 144 143
3 138 137 144
