ply
format ascii 1.0
comment Created by Blender 2.73 (sub 0) - www.blender.org, source file: 'gems_separated.blend'
element vertex 65
property float x
property float y
property float z
property float nx
property float ny
property float nz
property uchar red
property uchar green
property uchar blue
element face 24
property list uchar uint vertex_indices
end_header
0.000000 0.035954 0.183522 0.250507 -0.755971 0.604777 240 238 33
0.000000 -0.124046 -0.016478 0.250507 -0.755971 0.604777 240 238 33
0.141421 0.035954 0.124943 0.250507 -0.755971 0.604777 240 238 33
0.000000 -0.124046 -0.016478 -0.250507 -0.755971 0.604777 240 238 33
0.000000 0.035954 0.183522 -0.250507 -0.755971 0.604777 240 238 33
-0.141421 0.035954 0.124944 -0.250507 -0.755971 0.604777 240 238 33
0.000000 -0.124046 -0.016478 -0.604777 -0.755971 0.250507 240 238 33
-0.141421 0.035954 0.124944 -0.604777 -0.755971 0.250507 240 238 33
-0.200000 0.035954 -0.016478 -0.604777 -0.755971 0.250507 240 238 33
0.000000 -0.124046 -0.016478 -0.604777 -0.755971 -0.250507 240 238 33
-0.200000 0.035954 -0.016478 -0.604777 -0.755971 -0.250507 240 238 33
-0.141421 0.035954 -0.157899 -0.604777 -0.755971 -0.250507 240 238 33
0.000000 -0.124046 -0.016478 -0.250507 -0.755971 -0.604777 240 238 33
-0.141421 0.035954 -0.157899 -0.250507 -0.755971 -0.604777 240 238 33
-0.000000 0.035954 -0.216478 -0.250507 -0.755971 -0.604777 240 238 33
0.000000 -0.124046 -0.016478 0.250507 -0.755971 -0.604777 240 238 33
-0.000000 0.035954 -0.216478 0.250507 -0.755971 -0.604777 240 238 33
0.141421 0.035954 -0.157899 0.250507 -0.755971 -0.604777 240 238 33
0.000000 -0.124046 -0.016478 0.604777 -0.755971 -0.250507 240 238 33
0.141421 0.035954 -0.157899 0.604777 -0.755971 -0.250507 240 238 33
0.200000 0.035954 -0.016478 0.604777 -0.755971 -0.250507 240 238 33
0.000000 -0.124046 -0.016478 0.604777 -0.755971 0.250506 240 238 33
0.200000 0.035954 -0.016478 0.604777 -0.755971 0.250506 240 238 33
0.141421 0.035954 0.124943 0.604777 -0.755971 0.250506 240 238 33
0.000000 0.105954 0.103522 0.263148 0.726052 0.635296 240 238 33
0.000000 0.035954 0.183522 0.263148 0.726052 0.635296 240 238 33
0.141421 0.035954 0.124943 0.263148 0.726052 0.635296 240 238 33
0.084853 0.105954 0.068375 0.263148 0.726052 0.635296 240 238 33
0.000000 0.035954 0.183522 -0.263148 0.726052 0.635296 240 238 33
0.000000 0.105954 0.103522 -0.263148 0.726052 0.635296 240 238 33
-0.084853 0.105954 0.068375 -0.263148 0.726052 0.635296 240 238 33
-0.141421 0.035954 0.124944 -0.263148 0.726052 0.635296 240 238 33
-0.141421 0.035954 0.124944 -0.635296 0.726052 0.263148 240 238 33
-0.084853 0.105954 0.068375 -0.635296 0.726052 0.263148 240 238 33
-0.120000 0.105954 -0.016478 -0.635296 0.726052 0.263148 240 238 33
-0.200000 0.035954 -0.016478 -0.635296 0.726052 0.263148 240 238 33
-0.200000 0.035954 -0.016478 -0.635296 0.726052 -0.263148 240 238 33
-0.120000 0.105954 -0.016478 -0.635296 0.726052 -0.263148 240 238 33
-0.084853 0.105954 -0.101331 -0.635296 0.726052 -0.263148 240 238 33
-0.141421 0.035954 -0.157899 -0.635296 0.726052 -0.263148 240 238 33
-0.141421 0.035954 -0.157899 -0.263148 0.726052 -0.635296 240 238 33
-0.084853 0.105954 -0.101331 -0.263148 0.726052 -0.635296 240 238 33
-0.000000 0.105954 -0.136478 -0.263148 0.726052 -0.635296 240 238 33
-0.000000 0.035954 -0.216478 -0.263148 0.726052 -0.635296 240 238 33
-0.000000 0.035954 -0.216478 0.263148 0.726053 -0.635296 240 238 33
-0.000000 0.105954 -0.136478 0.263148 0.726053 -0.635296 240 238 33
0.084853 0.105954 -0.101331 0.263148 0.726053 -0.635296 240 238 33
0.141421 0.035954 -0.157899 0.263148 0.726053 -0.635296 240 238 33
0.141421 0.035954 -0.157899 0.635296 0.726052 -0.263148 240 238 33
0.084853 0.105954 -0.101331 0.635296 0.726052 -0.263148 240 238 33
0.120000 0.105954 -0.016478 0.635296 0.726052 -0.263148 240 238 33
0.200000 0.035954 -0.016478 0.635296 0.726052 -0.263148 240 238 33
0.200000 0.035954 -0.016478 0.635296 0.726052 0.263148 240 238 33
0.120000 0.105954 -0.016478 0.635296 0.726052 0.263148 240 238 33
0.084853 0.105954 0.068375 0.635296 0.726052 0.263148 240 238 33
0.141421 0.035954 0.124943 0.635296 0.726052 0.263148 240 238 33
0.000000 0.105954 -0.016478 0.000000 1.000000 0.000000 240 238 33
0.000000 0.105954 0.103522 0.000000 1.000000 0.000000 240 238 33
0.084853 0.105954 0.068375 0.000000 1.000000 0.000000 240 238 33
-0.084853 0.105954 0.068375 -0.000000 1.000000 0.000000 240 238 33
-0.120000 0.105954 -0.016478 0.000000 1.000000 0.000000 240 238 33
-0.084853 0.105954 -0.101331 0.000000 1.000000 -0.000000 240 238 34
-0.000000 0.105954 -0.136478 -0.000000 1.000000 0.000000 240 238 34
0.084853 0.105954 -0.101331 0.000000 1.000000 -0.000000 240 238 33
0.120000 0.105954 -0.016478 -0.000000 1.000000 -0.000000 240 238 33
3 0 1 2
3 3 4 5
3 6 7 8
3 9 10 11
3 12 13 14
3 15 16 17
3 18 19 20
3 21 22 23
4 24 25 26 27
4 28 29 30 31
4 32 33 34 35
4 36 37 38 39
4 40 41 42 43
4 44 45 46 47
4 48 49 50 51
4 52 53 54 55
3 56 57 58
3 57 56 59
3 59 56 60
3 60 56 61
3 61 56 62
3 62 56 63
3 63 56 64
3 64 56 58
