ply
format ascii 1.0
comment Created by Blender 2.73 (sub 0) - www.blender.org, source file: 'gems_separated.blend'
element vertex 704
property float x
property float y
property float z
property float nx
property float ny
property float nz
property uchar red
property uchar green
property uchar blue
element face 222
property list uchar uint vertex_indices
end_header
0.000000 0.050005 0.188094 0.049068 0.000000 0.998796 199 0 57
0.019603 0.052696 0.187131 0.049068 0.000000 0.998796 199 0 57
0.019603 0.054408 0.187131 0.049068 0.000000 0.998796 199 0 57
0.000000 0.056805 0.188094 0.049068 0.000000 0.998796 199 0 57
0.000000 0.050005 0.188094 -0.049068 0.000000 0.998795 199 0 57
0.000000 0.056805 0.188094 -0.049068 0.000000 0.998795 199 0 57
-0.019603 0.054408 0.187131 -0.049068 0.000000 0.998795 199 0 57
-0.019603 0.052696 0.187131 -0.049068 0.000000 0.998795 199 0 57
0.076537 0.050005 0.172870 0.427555 0.000000 0.903989 199 0 57
0.094279 0.052696 0.164478 0.427555 0.000000 0.903989 199 0 57
0.094279 0.054408 0.164478 0.427555 0.000000 0.903989 199 0 57
0.076537 0.056805 0.172870 0.427555 0.000000 0.903989 199 0 57
0.076537 0.050005 0.172870 0.336890 0.000000 0.941544 199 0 57
0.076537 0.056805 0.172870 0.336890 0.000000 0.941544 199 0 57
0.058057 0.054408 0.179482 0.336890 0.000000 0.941544 199 0 57
0.058057 0.052696 0.179482 0.336890 0.000000 0.941544 199 0 57
0.141421 0.050005 0.129516 0.740951 0.000000 0.671559 199 0 57
0.154602 0.052696 0.114973 0.740951 0.000000 0.671559 199 0 57
0.154602 0.054408 0.114973 0.740951 0.000000 0.671559 199 0 57
0.141421 0.056805 0.129516 0.740951 0.000000 0.671559 199 0 57
0.141421 0.050005 0.129516 0.671559 0.000000 0.740951 199 0 57
0.141421 0.056805 0.129516 0.671559 0.000000 0.740951 199 0 57
0.126879 0.054408 0.142696 0.671559 0.000000 0.740951 199 0 57
0.126879 0.052696 0.142696 0.671559 0.000000 0.740951 199 0 57
0.184776 0.050005 0.064631 0.941544 0.000000 0.336890 199 0 57
0.191388 0.052696 0.046151 0.941544 0.000000 0.336890 199 0 57
0.191388 0.054408 0.046151 0.941544 0.000000 0.336890 199 0 57
0.184776 0.056805 0.064631 0.941544 0.000000 0.336890 199 0 57
0.184776 0.050005 0.064631 0.903990 0.000000 0.427555 199 0 57
0.184776 0.056805 0.064631 0.903990 0.000000 0.427555 199 0 57
0.176384 0.054408 0.082374 0.903990 0.000000 0.427555 199 0 57
0.176384 0.052696 0.082374 0.903990 0.000000 0.427555 199 0 57
0.200000 0.050005 -0.011906 0.998795 0.000000 -0.049068 199 0 57
0.199037 0.052696 -0.031509 0.998795 0.000000 -0.049068 199 0 57
0.199037 0.054408 -0.031509 0.998795 0.000000 -0.049068 199 0 57
0.200000 0.056805 -0.011906 0.998795 0.000000 -0.049068 199 0 57
0.200000 0.050005 -0.011906 0.998796 0.000000 0.049068 199 0 57
0.200000 0.056805 -0.011906 0.998796 0.000000 0.049068 199 0 57
0.199037 0.054408 0.007698 0.998796 0.000000 0.049068 199 0 57
0.199037 0.052696 0.007698 0.998796 0.000000 0.049068 199 0 57
0.184776 0.050005 -0.088442 0.903989 0.000000 -0.427556 199 0 57
0.176384 0.052696 -0.106185 0.903989 0.000000 -0.427556 199 0 57
0.176384 0.054408 -0.106185 0.903989 0.000000 -0.427556 199 0 57
0.184776 0.056805 -0.088442 0.903989 0.000000 -0.427556 199 0 57
0.184776 0.050005 -0.088442 0.941544 0.000000 -0.336889 199 0 57
0.184776 0.056805 -0.088442 0.941544 0.000000 -0.336889 199 0 57
0.191388 0.054408 -0.069963 0.941544 0.000000 -0.336889 199 0 57
0.191388 0.052696 -0.069963 0.941544 0.000000 -0.336889 199 0 57
0.141421 0.050005 -0.153327 0.671559 0.000000 -0.740951 199 0 57
0.126879 0.052696 -0.166508 0.671559 0.000000 -0.740951 199 0 57
0.126879 0.054408 -0.166508 0.671559 0.000000 -0.740951 199 0 57
0.141421 0.056805 -0.153327 0.671559 0.000000 -0.740951 199 0 57
0.141421 0.050005 -0.153327 0.740951 0.000000 -0.671559 199 0 57
0.141421 0.056805 -0.153327 0.740951 0.000000 -0.671559 199 0 57
0.154602 0.054408 -0.138784 0.740951 0.000000 -0.671559 199 0 57
0.154602 0.052696 -0.138784 0.740951 0.000000 -0.671559 199 0 57
0.076537 0.050005 -0.196682 0.336890 0.000000 -0.941544 199 0 57
0.058057 0.052696 -0.203294 0.336890 0.000000 -0.941544 199 0 57
0.058057 0.054408 -0.203294 0.336890 0.000000 -0.941544 199 0 57
0.076537 0.056805 -0.196682 0.336890 0.000000 -0.941544 199 0 57
0.076537 0.050005 -0.196682 0.427555 0.000000 -0.903990 199 0 57
0.076537 0.056805 -0.196682 0.427555 0.000000 -0.903990 199 0 57
0.094279 0.054408 -0.188290 0.427555 0.000000 -0.903990 199 0 57
0.094279 0.052696 -0.188290 0.427555 0.000000 -0.903990 199 0 57
-0.000000 0.050005 -0.211906 -0.049068 0.000000 -0.998795 199 0 57
-0.019603 0.052696 -0.210943 -0.049068 0.000000 -0.998795 199 0 57
-0.019603 0.054408 -0.210943 -0.049068 0.000000 -0.998795 199 0 57
-0.000000 0.056805 -0.211906 -0.049068 0.000000 -0.998795 199 0 57
-0.000000 0.050005 -0.211906 0.049068 0.000000 -0.998796 199 0 57
-0.000000 0.056805 -0.211906 0.049068 0.000000 -0.998796 199 0 57
0.019603 0.054408 -0.210943 0.049068 0.000000 -0.998796 199 0 57
0.019603 0.052696 -0.210943 0.049068 0.000000 -0.998796 199 0 57
-0.076537 0.050005 -0.196682 -0.427555 0.000000 -0.903990 199 0 57
-0.094279 0.052696 -0.188290 -0.427555 0.000000 -0.903990 199 0 57
-0.094279 0.054408 -0.188290 -0.427555 0.000000 -0.903990 199 0 57
-0.076537 0.056805 -0.196682 -0.427555 0.000000 -0.903990 199 0 57
-0.076537 0.050005 -0.196682 -0.336890 0.000000 -0.941544 199 0 57
-0.076537 0.056805 -0.196682 -0.336890 0.000000 -0.941544 199 0 57
-0.058057 0.054408 -0.203294 -0.336890 0.000000 -0.941544 199 0 57
-0.058057 0.052696 -0.203294 -0.336890 0.000000 -0.941544 199 0 57
-0.141421 0.050005 -0.153327 -0.740951 0.000000 -0.671559 199 0 57
-0.154602 0.052696 -0.138784 -0.740951 0.000000 -0.671559 199 0 57
-0.154602 0.054408 -0.138784 -0.740951 0.000000 -0.671559 199 0 57
-0.141421 0.056805 -0.153327 -0.740951 0.000000 -0.671559 199 0 57
-0.141421 0.050005 -0.153327 -0.671559 0.000000 -0.740951 199 0 57
-0.141421 0.056805 -0.153327 -0.671559 0.000000 -0.740951 199 0 57
-0.126879 0.054408 -0.166508 -0.671559 0.000000 -0.740951 199 0 57
-0.126879 0.052696 -0.166508 -0.671559 0.000000 -0.740951 199 0 57
-0.184776 0.050005 -0.088442 -0.941544 0.000000 -0.336889 199 0 57
-0.191388 0.052696 -0.069963 -0.941544 0.000000 -0.336889 199 0 57
-0.191388 0.054408 -0.069963 -0.941544 0.000000 -0.336889 199 0 57
-0.184776 0.056805 -0.088442 -0.941544 0.000000 -0.336889 199 0 57
-0.184776 0.050005 -0.088442 -0.903989 0.000000 -0.427556 199 0 57
-0.184776 0.056805 -0.088442 -0.903989 0.000000 -0.427556 199 0 57
-0.176384 0.054408 -0.106185 -0.903989 0.000000 -0.427556 199 0 57
-0.176384 0.052696 -0.106185 -0.903989 0.000000 -0.427556 199 0 57
-0.200000 0.050005 -0.011906 -0.998795 0.000000 0.049068 199 0 57
-0.199037 0.052696 0.007698 -0.998795 0.000000 0.049068 199 0 57
-0.199037 0.054408 0.007698 -0.998795 0.000000 0.049068 199 0 57
-0.200000 0.056805 -0.011906 -0.998795 0.000000 0.049068 199 0 57
-0.200000 0.050005 -0.011906 -0.998795 0.000000 -0.049068 199 0 57
-0.200000 0.056805 -0.011906 -0.998795 0.000000 -0.049068 199 0 57
-0.199037 0.054408 -0.031509 -0.998795 0.000000 -0.049068 199 0 57
-0.199037 0.052696 -0.031509 -0.998795 0.000000 -0.049068 199 0 57
-0.184776 0.050005 0.064631 -0.903989 0.000000 0.427555 199 0 57
-0.176384 0.052696 0.082374 -0.903989 0.000000 0.427555 199 0 57
-0.176384 0.054408 0.082374 -0.903989 0.000000 0.427555 199 0 57
-0.184776 0.056805 0.064631 -0.903989 0.000000 0.427555 199 0 57
-0.184776 0.050005 0.064631 -0.941544 0.000000 0.336890 199 0 57
-0.184776 0.056805 0.064631 -0.941544 0.000000 0.336890 199 0 57
-0.191388 0.054408 0.046151 -0.941544 0.000000 0.336890 199 0 57
-0.191388 0.052696 0.046151 -0.941544 0.000000 0.336890 199 0 57
-0.141421 0.050005 0.129516 -0.671559 0.000000 0.740951 199 0 57
-0.126879 0.052696 0.142696 -0.671559 0.000000 0.740951 199 0 57
-0.126879 0.054408 0.142696 -0.671559 0.000000 0.740951 199 0 57
-0.141421 0.056805 0.129516 -0.671559 0.000000 0.740951 199 0 57
-0.141421 0.050005 0.129516 -0.740951 0.000000 0.671559 199 0 57
-0.141421 0.056805 0.129516 -0.740951 0.000000 0.671559 199 0 57
-0.154602 0.054408 0.114973 -0.740951 0.000000 0.671559 199 0 57
-0.154602 0.052696 0.114973 -0.740951 0.000000 0.671559 199 0 57
-0.076537 0.050005 0.172870 -0.336889 0.000000 0.941544 199 0 57
-0.058057 0.052696 0.179482 -0.336889 0.000000 0.941544 199 0 57
-0.058057 0.054408 0.179482 -0.336889 0.000000 0.941544 199 0 57
-0.076537 0.056805 0.172870 -0.336889 0.000000 0.941544 199 0 57
-0.076537 0.050005 0.172870 -0.427556 0.000000 0.903989 199 0 57
-0.076537 0.056805 0.172870 -0.427556 0.000000 0.903989 199 0 57
-0.094279 0.054408 0.164478 -0.427556 0.000000 0.903989 199 0 57
-0.094279 0.052696 0.164478 -0.427556 0.000000 0.903989 199 0 57
0.039018 0.053579 0.184251 0.146730 0.000000 0.989177 199 0 57
0.039018 0.053622 0.184251 0.146730 0.000000 0.989177 199 0 57
0.019603 0.054408 0.187131 0.146730 0.000000 0.989177 199 0 57
0.019603 0.052696 0.187131 0.146730 0.000000 0.989177 199 0 57
0.039018 0.053579 0.184251 0.242980 0.000000 0.970031 200 2 59
0.058057 0.052696 0.179482 0.242980 0.000000 0.970031 200 1 58
0.058057 0.054408 0.179482 0.242980 0.000000 0.970031 200 1 58
0.039018 0.053622 0.184251 0.242980 0.000000 0.970031 200 2 59
0.111114 0.053579 0.154388 0.514103 0.000000 0.857729 199 0 57
0.111114 0.053622 0.154388 0.514103 0.000000 0.857729 199 0 57
0.094279 0.054408 0.164478 0.514103 0.000000 0.857729 199 0 57
0.094279 0.052696 0.164478 0.514103 0.000000 0.857729 199 0 57
0.111114 0.053579 0.154388 0.595699 0.000000 0.803208 199 0 57
0.126879 0.052696 0.142696 0.595699 0.000000 0.803208 199 0 57
0.126879 0.054408 0.142696 0.595699 0.000000 0.803208 199 0 57
0.111114 0.053622 0.154388 0.595699 0.000000 0.803208 199 0 57
0.166294 0.053579 0.099208 0.803208 0.000000 0.595699 199 0 57
0.166294 0.053622 0.099208 0.803208 0.000000 0.595699 199 0 57
0.154602 0.054408 0.114973 0.803208 0.000000 0.595699 199 0 57
0.154602 0.052696 0.114973 0.803208 0.000000 0.595699 199 0 57
0.166294 0.053579 0.099208 0.857728 0.000000 0.514103 199 0 57
0.176384 0.052696 0.082374 0.857728 0.000000 0.514103 199 0 57
0.176384 0.054408 0.082374 0.857728 0.000000 0.514103 199 0 57
0.166294 0.053622 0.099208 0.857728 0.000000 0.514103 199 0 57
0.196157 0.053579 0.027112 0.970031 0.000000 0.242980 199 0 57
0.196157 0.053622 0.027112 0.970031 0.000000 0.242980 199 0 57
0.191388 0.054408 0.046151 0.970031 0.000000 0.242980 199 0 57
0.191388 0.052696 0.046151 0.970031 0.000000 0.242980 199 0 57
0.196157 0.053579 0.027112 0.989177 0.000000 0.146730 199 0 57
0.199037 0.052696 0.007698 0.989177 0.000000 0.146730 199 0 57
0.199037 0.054408 0.007698 0.989177 0.000000 0.146730 199 0 57
0.196157 0.053622 0.027112 0.989177 0.000000 0.146730 199 0 57
0.196157 0.053579 -0.050924 0.989177 0.000000 -0.146730 199 0 57
0.196157 0.053622 -0.050924 0.989177 0.000000 -0.146730 199 0 57
0.199037 0.054408 -0.031509 0.989177 0.000000 -0.146730 199 0 57
0.199037 0.052696 -0.031509 0.989177 0.000000 -0.146730 199 0 57
0.196157 0.053579 -0.050924 0.970031 0.000000 -0.242980 199 0 57
0.191388 0.052696 -0.069963 0.970031 0.000000 -0.242980 199 0 57
0.191388 0.054408 -0.069963 0.970031 0.000000 -0.242980 199 0 57
0.196157 0.053622 -0.050924 0.970031 0.000000 -0.242980 199 0 57
0.166294 0.053579 -0.123020 0.857729 0.000000 -0.514102 199 0 57
0.166294 0.053622 -0.123020 0.857729 0.000000 -0.514102 199 0 57
0.176384 0.054408 -0.106185 0.857729 0.000000 -0.514102 199 0 57
0.176384 0.052696 -0.106185 0.857729 0.000000 -0.514102 199 0 57
0.166294 0.053579 -0.123020 0.803208 0.000000 -0.595699 199 0 57
0.154602 0.052696 -0.138784 0.803208 0.000000 -0.595699 199 0 57
0.154602 0.054408 -0.138784 0.803208 0.000000 -0.595699 199 0 57
0.166294 0.053622 -0.123020 0.803208 0.000000 -0.595699 199 0 57
0.111114 0.053579 -0.178200 0.595699 0.000000 -0.803208 199 0 57
0.111114 0.053622 -0.178200 0.595699 0.000000 -0.803208 199 0 57
0.126879 0.054408 -0.166508 0.595699 0.000000 -0.803208 199 0 57
0.126879 0.052696 -0.166508 0.595699 0.000000 -0.803208 199 0 57
0.111114 0.053579 -0.178200 0.514103 0.000000 -0.857728 200 3 60
0.094279 0.052696 -0.188290 0.514103 0.000000 -0.857728 200 5 61
0.094279 0.054408 -0.188290 0.514103 0.000000 -0.857728 200 5 60
0.111114 0.053622 -0.178200 0.514103 0.000000 -0.857728 200 3 60
0.039018 0.053579 -0.208063 0.242980 0.000000 -0.970031 255 255 255
0.039018 0.053622 -0.208063 0.242980 0.000000 -0.970031 255 255 255
0.058057 0.054408 -0.203294 0.242980 0.000000 -0.970031 255 255 255
0.058057 0.052696 -0.203294 0.242980 0.000000 -0.970031 255 255 255
0.039018 0.053579 -0.208063 0.146730 0.000000 -0.989177 199 0 57
0.019603 0.052696 -0.210943 0.146730 0.000000 -0.989177 199 0 57
0.019603 0.054408 -0.210943 0.146730 0.000000 -0.989177 199 0 57
0.039018 0.053622 -0.208063 0.146730 0.000000 -0.989177 199 0 57
-0.039018 0.053579 -0.208063 -0.146730 0.000000 -0.989177 199 0 57
-0.039018 0.053622 -0.208063 -0.146730 0.000000 -0.989177 199 0 57
-0.019603 0.054408 -0.210943 -0.146730 0.000000 -0.989177 199 0 57
-0.019603 0.052696 -0.210943 -0.146730 0.000000 -0.989177 199 0 57
-0.039018 0.053579 -0.208063 -0.242980 0.000000 -0.970031 199 0 57
-0.058057 0.052696 -0.203294 -0.242980 0.000000 -0.970031 199 0 57
-0.058057 0.054408 -0.203294 -0.242980 0.000000 -0.970031 199 0 57
-0.039018 0.053622 -0.208063 -0.242980 0.000000 -0.970031 199 0 57
-0.111114 0.053579 -0.178200 -0.514103 0.000000 -0.857728 199 0 57
-0.111114 0.053622 -0.178200 -0.514103 0.000000 -0.857728 199 0 57
-0.094279 0.054408 -0.188290 -0.514103 0.000000 -0.857728 199 0 57
-0.094279 0.052696 -0.188290 -0.514103 0.000000 -0.857728 199 0 57
-0.111114 0.053579 -0.178200 -0.595699 0.000000 -0.803208 199 0 57
-0.126879 0.052696 -0.166508 -0.595699 0.000000 -0.803208 199 0 57
-0.126879 0.054408 -0.166508 -0.595699 0.000000 -0.803208 199 0 57
-0.111114 0.053622 -0.178200 -0.595699 0.000000 -0.803208 199 0 57
-0.166294 0.053579 -0.123020 -0.803208 0.000000 -0.595699 199 0 57
-0.166294 0.053622 -0.123020 -0.803208 0.000000 -0.595699 199 0 57
-0.154602 0.054408 -0.138784 -0.803208 0.000000 -0.595699 199 0 57
-0.154602 0.052696 -0.138784 -0.803208 0.000000 -0.595699 199 0 57
-0.166294 0.053579 -0.123020 -0.857729 0.000000 -0.514103 199 0 57
-0.176384 0.052696 -0.106185 -0.857729 0.000000 -0.514103 199 0 57
-0.176384 0.054408 -0.106185 -0.857729 0.000000 -0.514103 199 0 57
-0.166294 0.053622 -0.123020 -0.857729 0.000000 -0.514103 199 0 57
-0.196157 0.053579 -0.050924 -0.970031 0.000000 -0.242980 199 0 57
-0.196157 0.053622 -0.050924 -0.970031 0.000000 -0.242980 199 0 57
-0.191388 0.054408 -0.069963 -0.970031 0.000000 -0.242980 199 0 57
-0.191388 0.052696 -0.069963 -0.970031 0.000000 -0.242980 199 0 57
-0.196157 0.053579 -0.050924 -0.989177 0.000000 -0.146730 199 0 57
-0.199037 0.052696 -0.031509 -0.989177 0.000000 -0.146730 199 0 57
-0.199037 0.054408 -0.031509 -0.989177 0.000000 -0.146730 199 0 57
-0.196157 0.053622 -0.050924 -0.989177 0.000000 -0.146730 199 0 57
-0.196157 0.053579 0.027112 -0.989177 0.000000 0.146730 199 0 57
-0.196157 0.053622 0.027112 -0.989177 0.000000 0.146730 199 0 57
-0.199037 0.054408 0.007698 -0.989177 0.000000 0.146730 199 0 57
-0.199037 0.052696 0.007698 -0.989177 0.000000 0.146730 199 0 57
-0.196157 0.053579 0.027112 -0.970031 0.000000 0.242980 199 0 57
-0.191388 0.052696 0.046151 -0.970031 0.000000 0.242980 199 0 57
-0.191388 0.054408 0.046151 -0.970031 0.000000 0.242980 199 0 57
-0.196157 0.053622 0.027112 -0.970031 0.000000 0.242980 199 0 57
-0.166294 0.053579 0.099208 -0.857729 0.000000 0.514102 199 0 57
-0.166294 0.053622 0.099208 -0.857729 0.000000 0.514102 199 0 57
-0.176384 0.054408 0.082374 -0.857729 0.000000 0.514102 199 0 57
-0.176384 0.052696 0.082374 -0.857729 0.000000 0.514102 199 0 57
-0.166294 0.053579 0.099208 -0.803208 0.000000 0.595699 199 0 57
-0.154602 0.052696 0.114973 -0.803208 0.000000 0.595699 199 0 57
-0.154602 0.054408 0.114973 -0.803208 0.000000 0.595699 199 0 57
-0.166294 0.053622 0.099208 -0.803208 0.000000 0.595699 199 0 57
-0.111114 0.053579 0.154388 -0.595699 0.000000 0.803207 199 0 57
-0.111114 0.053622 0.154388 -0.595699 0.000000 0.803207 199 0 57
-0.126879 0.054408 0.142696 -0.595699 0.000000 0.803207 199 0 57
-0.126879 0.052696 0.142696 -0.595699 0.000000 0.803207 199 0 57
-0.111114 0.053579 0.154388 -0.514102 0.000000 0.857729 199 0 57
-0.094279 0.052696 0.164478 -0.514102 0.000000 0.857729 199 0 57
-0.094279 0.054408 0.164478 -0.514102 0.000000 0.857729 199 0 57
-0.111114 0.053622 0.154388 -0.514102 0.000000 0.857729 199 0 57
-0.039018 0.053579 0.184251 -0.242981 0.000000 0.970031 255 255 255
-0.039018 0.053622 0.184251 -0.242981 0.000000 0.970031 255 255 255
-0.058057 0.054408 0.179482 -0.242981 0.000000 0.970031 255 255 255
-0.058057 0.052696 0.179482 -0.242981 0.000000 0.970031 255 255 255
-0.039018 0.053579 0.184251 -0.146730 0.000000 0.989177 207 33 83
-0.019603 0.052696 0.187131 -0.146730 0.000000 0.989177 206 26 78
-0.019603 0.054408 0.187131 -0.146730 0.000000 0.989177 206 26 78
-0.039018 0.053622 0.184251 -0.146730 0.000000 0.989177 207 33 83
0.000000 0.056805 0.188094 -0.124610 0.765651 0.631071 199 0 57
-0.039018 0.053622 0.184251 -0.124610 0.765651 0.631071 199 0 57
-0.019603 0.054408 0.187131 -0.124610 0.765651 0.631071 199 0 57
-0.076537 0.056805 0.172870 -0.126376 0.765648 0.630723 199 0 57
-0.058057 0.054408 0.179482 -0.126376 0.765648 0.630723 199 0 57
-0.039018 0.053622 0.184251 -0.126376 0.765648 0.630723 199 0 57
0.000000 0.056805 0.188094 -0.124439 0.770157 0.625598 199 0 57
-0.053641 0.105405 0.117594 -0.124439 0.770157 0.625598 199 0 57
-0.076537 0.056805 0.172870 -0.124439 0.770157 0.625598 199 0 57
0.000000 0.056805 0.188094 -0.124439 0.770158 0.625597 199 0 57
-0.076537 0.056805 0.172870 -0.124439 0.770158 0.625597 199 0 57
-0.039018 0.053622 0.184251 -0.124439 0.770158 0.625597 199 0 57
-0.141421 0.056805 0.129516 -0.354373 0.770157 0.530356 199 0 57
-0.076537 0.056805 0.172870 -0.354373 0.770157 0.530356 199 0 57
-0.053641 0.105405 0.117594 -0.354373 0.770157 0.530356 199 0 57
-0.111114 0.053622 0.154388 -0.356627 0.765649 0.535350 199 0 57
-0.094279 0.054408 0.164478 -0.356627 0.765649 0.535350 199 0 57
-0.076537 0.056805 0.172870 -0.356627 0.765649 0.535350 199 0 57
-0.141421 0.056805 0.129516 -0.358119 0.765654 0.534345 199 0 57
-0.126879 0.054408 0.142696 -0.358119 0.765654 0.534345 199 0 57
-0.111114 0.053622 0.154388 -0.358119 0.765654 0.534345 199 0 57
-0.141421 0.056805 0.129516 -0.354372 0.770158 0.530356 199 0 57
-0.111114 0.053622 0.154388 -0.354372 0.770158 0.530356 199 0 57
-0.076537 0.056805 0.172870 -0.354372 0.770158 0.530356 199 0 57
0.076537 0.056805 0.172870 0.354373 0.770157 0.530356 199 0 57
0.141421 0.056805 0.129516 0.354373 0.770157 0.530356 199 0 57
0.053641 0.105405 0.117594 0.354373 0.770157 0.530356 199 0 57
0.111114 0.053622 0.154388 0.358119 0.765654 0.534345 199 0 57
0.126879 0.054408 0.142696 0.358119 0.765654 0.534345 199 0 57
0.141421 0.056805 0.129516 0.358119 0.765654 0.534345 199 0 57
0.076537 0.056805 0.172870 0.356625 0.765653 0.535346 199 0 57
0.094279 0.054408 0.164478 0.356625 0.765653 0.535346 199 0 57
0.111114 0.053622 0.154388 0.356625 0.765653 0.535346 199 0 57
0.076537 0.056805 0.172870 0.354373 0.770157 0.530357 199 0 57
0.111114 0.053622 0.154388 0.354373 0.770157 0.530357 199 0 57
0.141421 0.056805 0.129516 0.354373 0.770157 0.530357 199 0 57
0.076537 0.056805 0.172870 0.126374 0.765654 0.630716 199 0 57
0.039018 0.053622 0.184251 0.126374 0.765654 0.630716 199 0 57
0.058057 0.054408 0.179482 0.126374 0.765654 0.630716 199 0 57
0.000000 0.056805 0.188094 0.124611 0.765651 0.631070 199 0 57
0.019603 0.054408 0.187131 0.124611 0.765651 0.631070 199 0 57
0.039018 0.053622 0.184251 0.124611 0.765651 0.631070 199 0 57
0.076537 0.056805 0.172870 0.124439 0.770157 0.625598 199 0 57
0.053641 0.105405 0.117594 0.124439 0.770157 0.625598 199 0 57
0.000000 0.056805 0.188094 0.124439 0.770157 0.625598 199 0 57
0.039018 0.053622 0.184251 0.124439 0.770157 0.625598 199 0 57
0.184776 0.056805 0.064631 0.625598 0.770157 0.124439 199 0 57
0.200000 0.056805 -0.011906 0.625598 0.770157 0.124439 199 0 57
0.129500 0.105405 0.041735 0.625598 0.770157 0.124439 199 0 57
0.196157 0.053622 0.027112 0.631071 0.765651 0.124611 199 0 57
0.199037 0.054408 0.007698 0.631071 0.765651 0.124611 199 0 57
0.200000 0.056805 -0.011906 0.631071 0.765651 0.124611 199 0 57
0.184776 0.056805 0.064631 0.630716 0.765654 0.126374 199 0 57
0.191388 0.054408 0.046151 0.630716 0.765654 0.126374 199 0 57
0.196157 0.053622 0.027112 0.630716 0.765654 0.126374 199 0 57
0.196157 0.053622 0.027112 0.625598 0.770157 0.124439 199 0 57
0.184776 0.056805 0.064631 0.535342 0.765656 0.356623 199 0 57
0.166294 0.053622 0.099208 0.535342 0.765656 0.356623 199 0 57
0.176384 0.054408 0.082374 0.535342 0.765656 0.356623 199 0 57
0.141421 0.056805 0.129516 0.534345 0.765654 0.358119 199 0 57
0.154602 0.054408 0.114973 0.534345 0.765654 0.358119 199 0 57
0.166294 0.053622 0.099208 0.534345 0.765654 0.358119 199 0 57
0.184776 0.056805 0.064631 0.530356 0.770157 0.354373 199 0 57
0.129500 0.105405 0.041735 0.530356 0.770157 0.354373 199 0 57
0.141421 0.056805 0.129516 0.530356 0.770157 0.354373 199 0 57
0.166294 0.053622 0.099208 0.530356 0.770157 0.354373 199 0 57
0.184776 0.056805 -0.088442 0.530356 0.770157 -0.354373 199 0 57
0.141421 0.056805 -0.153327 0.530356 0.770157 -0.354373 199 0 57
0.129500 0.105405 -0.065546 0.530356 0.770157 -0.354373 199 0 57
0.166294 0.053622 -0.123020 0.534346 0.765653 -0.358120 199 0 57
0.154602 0.054408 -0.138784 0.534346 0.765653 -0.358120 199 0 57
0.141421 0.056805 -0.153327 0.534346 0.765653 -0.358120 199 0 57
0.184776 0.056805 -0.088442 0.535351 0.765648 -0.356627 199 0 57
0.176384 0.054408 -0.106185 0.535351 0.765648 -0.356627 199 0 57
0.166294 0.053622 -0.123020 0.535351 0.765648 -0.356627 199 0 57
0.166294 0.053622 -0.123020 0.530356 0.770157 -0.354373 199 0 57
0.184776 0.056805 -0.088442 0.630723 0.765649 -0.126376 199 0 57
0.196157 0.053622 -0.050924 0.630723 0.765649 -0.126376 199 0 57
0.191388 0.054408 -0.069963 0.630723 0.765649 -0.126376 199 0 57
0.200000 0.056805 -0.011906 0.631071 0.765651 -0.124611 199 0 57
0.199037 0.054408 -0.031509 0.631071 0.765651 -0.124611 199 0 57
0.196157 0.053622 -0.050924 0.631071 0.765651 -0.124611 199 0 57
0.184776 0.056805 -0.088442 0.625598 0.770157 -0.124439 199 0 57
0.129500 0.105405 -0.065546 0.625598 0.770157 -0.124439 199 0 57
0.200000 0.056805 -0.011906 0.625598 0.770157 -0.124439 199 0 57
0.184776 0.056805 -0.088442 0.625599 0.770157 -0.124439 199 0 57
0.200000 0.056805 -0.011906 0.625599 0.770157 -0.124439 199 0 57
0.196157 0.053622 -0.050924 0.625599 0.770157 -0.124439 199 0 57
0.076537 0.056805 -0.196682 0.124439 0.770157 -0.625598 199 0 57
-0.000000 0.056805 -0.211906 0.124439 0.770157 -0.625598 199 0 57
0.053641 0.105405 -0.141406 0.124439 0.770157 -0.625598 199 0 57
0.039018 0.053622 -0.208063 0.124610 0.765649 -0.631073 199 0 57
0.019603 0.054408 -0.210943 0.124610 0.765649 -0.631073 199 0 57
-0.000000 0.056805 -0.211906 0.124610 0.765649 -0.631073 199 0 57
0.076537 0.056805 -0.196682 0.126375 0.765653 -0.630718 199 0 57
0.058057 0.054408 -0.203294 0.126375 0.765653 -0.630718 199 0 57
0.039018 0.053622 -0.208063 0.126375 0.765653 -0.630718 199 0 57
0.076537 0.056805 -0.196682 0.124439 0.770158 -0.625596 199 0 57
0.039018 0.053622 -0.208063 0.124439 0.770158 -0.625596 199 0 57
-0.000000 0.056805 -0.211906 0.124439 0.770158 -0.625596 199 0 57
0.076537 0.056805 -0.196682 0.356623 0.765656 -0.535342 201 8 63
0.111114 0.053622 -0.178200 0.356623 0.765656 -0.535342 200 4 60
0.094279 0.054408 -0.188290 0.356623 0.765656 -0.535342 201 7 62
0.141421 0.056805 -0.153327 0.358120 0.765653 -0.534346 199 0 57
0.126879 0.054408 -0.166508 0.358120 0.765653 -0.534346 200 1 58
0.111114 0.053622 -0.178200 0.358120 0.765653 -0.534346 200 4 60
0.076537 0.056805 -0.196682 0.354373 0.770157 -0.530356 201 8 63
0.053641 0.105405 -0.141406 0.354373 0.770157 -0.530356 199 0 57
0.141421 0.056805 -0.153327 0.354373 0.770157 -0.530356 199 0 57
0.111114 0.053622 -0.178200 0.354373 0.770157 -0.530356 200 4 60
-0.076537 0.056805 -0.196682 -0.354373 0.770157 -0.530356 199 0 57
-0.141421 0.056805 -0.153327 -0.354373 0.770157 -0.530356 199 0 57
-0.053641 0.105405 -0.141406 -0.354373 0.770157 -0.530356 199 0 57
-0.111114 0.053622 -0.178200 -0.358116 0.765658 -0.534342 199 0 57
-0.126879 0.054408 -0.166508 -0.358116 0.765658 -0.534342 199 0 57
-0.141421 0.056805 -0.153327 -0.358116 0.765658 -0.534342 199 0 57
-0.076537 0.056805 -0.196682 -0.356623 0.765657 -0.535341 199 0 57
-0.094279 0.054408 -0.188290 -0.356623 0.765657 -0.535341 199 0 57
-0.111114 0.053622 -0.178200 -0.356623 0.765657 -0.535341 199 0 57
-0.111114 0.053622 -0.178200 -0.354373 0.770157 -0.530356 199 0 57
-0.076537 0.056805 -0.196682 -0.126375 0.765653 -0.630718 199 0 57
-0.039018 0.053622 -0.208063 -0.126375 0.765653 -0.630718 199 0 57
-0.058057 0.054408 -0.203294 -0.126375 0.765653 -0.630718 199 0 57
-0.000000 0.056805 -0.211906 -0.124611 0.765648 -0.631075 199 0 57
-0.019603 0.054408 -0.210943 -0.124611 0.765648 -0.631075 199 0 57
-0.039018 0.053622 -0.208063 -0.124611 0.765648 -0.631075 199 0 57
-0.076537 0.056805 -0.196682 -0.124439 0.770157 -0.625598 199 0 57
-0.053641 0.105405 -0.141406 -0.124439 0.770157 -0.625598 199 0 57
-0.000000 0.056805 -0.211906 -0.124439 0.770157 -0.625598 199 0 57
-0.076537 0.056805 -0.196682 -0.124439 0.770158 -0.625597 199 0 57
-0.000000 0.056805 -0.211906 -0.124439 0.770158 -0.625597 199 0 57
-0.039018 0.053622 -0.208063 -0.124439 0.770158 -0.625597 199 0 57
-0.184776 0.056805 -0.088442 -0.625598 0.770157 -0.124439 199 0 57
-0.200000 0.056805 -0.011906 -0.625598 0.770157 -0.124439 199 0 57
-0.129500 0.105405 -0.065546 -0.625598 0.770157 -0.124439 199 0 57
-0.196157 0.053622 -0.050924 -0.631074 0.765649 -0.124611 199 0 57
-0.199037 0.054408 -0.031509 -0.631074 0.765649 -0.124611 199 0 57
-0.200000 0.056805 -0.011906 -0.631074 0.765649 -0.124611 199 0 57
-0.184776 0.056805 -0.088442 -0.630719 0.765652 -0.126375 199 0 57
-0.191388 0.054408 -0.069963 -0.630719 0.765652 -0.126375 199 0 57
-0.196157 0.053622 -0.050924 -0.630719 0.765652 -0.126375 199 0 57
-0.196157 0.053622 -0.050924 -0.625598 0.770157 -0.124439 199 0 57
-0.184776 0.056805 -0.088442 -0.535349 0.765649 -0.356627 199 0 57
-0.166294 0.053622 -0.123020 -0.535349 0.765649 -0.356627 199 0 57
-0.176384 0.054408 -0.106185 -0.535349 0.765649 -0.356627 199 0 57
-0.141421 0.056805 -0.153327 -0.534344 0.765655 -0.358119 199 0 57
-0.154602 0.054408 -0.138784 -0.534344 0.765655 -0.358119 199 0 57
-0.166294 0.053622 -0.123020 -0.534344 0.765655 -0.358119 199 0 57
-0.184776 0.056805 -0.088442 -0.530356 0.770157 -0.354373 199 0 57
-0.129500 0.105405 -0.065546 -0.530356 0.770157 -0.354373 199 0 57
-0.141421 0.056805 -0.153327 -0.530356 0.770157 -0.354373 199 0 57
-0.184776 0.056805 -0.088442 -0.530356 0.770158 -0.354373 199 0 57
-0.141421 0.056805 -0.153327 -0.530356 0.770158 -0.354373 199 0 57
-0.166294 0.053622 -0.123020 -0.530356 0.770158 -0.354373 199 0 57
-0.184776 0.056805 0.064631 -0.530356 0.770157 0.354373 199 0 57
-0.141421 0.056805 0.129516 -0.530356 0.770157 0.354373 199 0 57
-0.129500 0.105405 0.041735 -0.530356 0.770157 0.354373 199 0 57
-0.166294 0.053622 0.099208 -0.534345 0.765654 0.358119 199 0 57
-0.154602 0.054408 0.114973 -0.534345 0.765654 0.358119 199 0 57
-0.141421 0.056805 0.129516 -0.534345 0.765654 0.358119 199 0 57
-0.184776 0.056805 0.064631 -0.535348 0.765651 0.356626 199 0 57
-0.176384 0.054408 0.082374 -0.535348 0.765651 0.356626 199 0 57
-0.166294 0.053622 0.099208 -0.535348 0.765651 0.356626 199 0 57
-0.184776 0.056805 0.064631 -0.530356 0.770158 0.354373 199 0 57
-0.166294 0.053622 0.099208 -0.530356 0.770158 0.354373 199 0 57
-0.141421 0.056805 0.129516 -0.530356 0.770158 0.354373 199 0 57
-0.184776 0.056805 0.064631 -0.630716 0.765654 0.126374 199 0 57
-0.196157 0.053622 0.027112 -0.630716 0.765654 0.126374 199 0 57
-0.191388 0.054408 0.046151 -0.630716 0.765654 0.126374 199 0 57
-0.200000 0.056805 -0.011906 -0.631074 0.765648 0.124611 199 0 57
-0.199037 0.054408 0.007698 -0.631074 0.765648 0.124611 199 0 57
-0.196157 0.053622 0.027112 -0.631074 0.765648 0.124611 199 0 57
-0.184776 0.056805 0.064631 -0.625598 0.770157 0.124439 199 0 57
-0.129500 0.105405 0.041735 -0.625598 0.770157 0.124439 199 0 57
-0.200000 0.056805 -0.011906 -0.625598 0.770157 0.124439 199 0 57
-0.184776 0.056805 0.064631 -0.625597 0.770158 0.124439 199 0 57
-0.200000 0.056805 -0.011906 -0.625597 0.770158 0.124439 199 0 57
-0.196157 0.053622 0.027112 -0.625597 0.770158 0.124439 199 0 57
0.000000 0.121605 0.094094 0.137039 0.933683 0.330842 199 0 57
0.053641 0.105405 0.117594 0.137039 0.933683 0.330842 199 0 57
0.074953 0.121605 0.063048 0.137039 0.933683 0.330842 199 0 57
0.074953 0.121605 0.063048 0.401332 0.823326 0.401332 199 0 57
0.053641 0.105405 0.117594 0.401332 0.823326 0.401332 199 0 57
0.141421 0.056805 0.129516 0.401332 0.823326 0.401332 199 0 57
0.129500 0.105405 0.041735 0.401332 0.823326 0.401332 199 0 57
0.074953 0.121605 0.063048 0.330842 0.933683 0.137039 199 0 57
0.129500 0.105405 0.041735 0.330842 0.933683 0.137039 199 0 57
0.106000 0.121605 -0.011906 0.330842 0.933683 0.137039 199 0 57
0.106000 0.121605 -0.011906 0.567569 0.823326 0.000000 199 0 57
0.129500 0.105405 0.041735 0.567569 0.823326 0.000000 199 0 57
0.200000 0.056805 -0.011906 0.567569 0.823326 0.000000 199 0 57
0.129500 0.105405 -0.065546 0.567569 0.823326 0.000000 199 0 57
0.106000 0.121605 -0.011906 0.330842 0.933683 -0.137039 199 0 57
0.129500 0.105405 -0.065546 0.330842 0.933683 -0.137039 199 0 57
0.074953 0.121605 -0.086859 0.330842 0.933683 -0.137039 199 0 57
0.074953 0.121605 -0.086859 0.401332 0.823326 -0.401332 199 0 57
0.129500 0.105405 -0.065546 0.401332 0.823326 -0.401332 199 0 57
0.141421 0.056805 -0.153327 0.401332 0.823326 -0.401332 199 0 57
0.053641 0.105405 -0.141406 0.401332 0.823326 -0.401332 199 0 57
0.074953 0.121605 -0.086859 0.137039 0.933683 -0.330842 199 0 57
0.053641 0.105405 -0.141406 0.137039 0.933683 -0.330842 199 0 57
-0.000000 0.121605 -0.117906 0.137039 0.933683 -0.330842 199 0 57
-0.000000 0.121605 -0.117906 0.000000 0.823326 -0.567569 199 0 57
0.053641 0.105405 -0.141406 0.000000 0.823326 -0.567569 199 0 57
-0.000000 0.056805 -0.211906 0.000000 0.823326 -0.567569 199 0 57
-0.053641 0.105405 -0.141406 0.000000 0.823326 -0.567569 199 0 57
-0.000000 0.121605 -0.117906 -0.137039 0.933683 -0.330842 199 0 57
-0.053641 0.105405 -0.141406 -0.137039 0.933683 -0.330842 199 0 57
-0.074953 0.121605 -0.086859 -0.137039 0.933683 -0.330842 199 0 57
-0.074953 0.121605 -0.086859 -0.401332 0.823326 -0.401332 199 0 57
-0.053641 0.105405 -0.141406 -0.401332 0.823326 -0.401332 199 0 57
-0.141421 0.056805 -0.153327 -0.401332 0.823326 -0.401332 199 0 57
-0.129500 0.105405 -0.065546 -0.401332 0.823326 -0.401332 199 0 57
-0.074953 0.121605 -0.086859 -0.330842 0.933683 -0.137039 199 0 57
-0.129500 0.105405 -0.065546 -0.330842 0.933683 -0.137039 199 0 57
-0.106000 0.121605 -0.011906 -0.330842 0.933683 -0.137039 199 0 57
-0.106000 0.121605 -0.011906 -0.567569 0.823326 0.000000 199 0 57
-0.129500 0.105405 -0.065546 -0.567569 0.823326 0.000000 199 0 57
-0.200000 0.056805 -0.011906 -0.567569 0.823326 0.000000 199 0 57
-0.129500 0.105405 0.041735 -0.567569 0.823326 0.000000 199 0 57
-0.106000 0.121605 -0.011906 -0.330842 0.933683 0.137039 199 0 57
-0.129500 0.105405 0.041735 -0.330842 0.933683 0.137039 199 0 57
-0.074953 0.121605 0.063048 -0.330842 0.933683 0.137039 199 0 57
-0.074953 0.121605 0.063048 -0.401332 0.823326 0.401332 199 0 57
-0.129500 0.105405 0.041735 -0.401332 0.823326 0.401332 199 0 57
-0.141421 0.056805 0.129516 -0.401332 0.823326 0.401332 199 0 57
-0.053641 0.105405 0.117594 -0.401332 0.823326 0.401332 199 0 57
-0.074953 0.121605 0.063048 -0.137039 0.933683 0.330842 199 0 57
-0.053641 0.105405 0.117594 -0.137039 0.933683 0.330842 199 0 57
0.000000 0.121605 0.094094 -0.137039 0.933683 0.330842 199 0 57
0.000000 0.056805 0.188094 0.000000 0.823326 0.567569 204 16 71
0.053641 0.105405 0.117594 0.000000 0.823326 0.567569 199 0 57
0.000000 0.121605 0.094094 0.000000 0.823326 0.567569 199 0 57
-0.053641 0.105405 0.117594 0.000000 0.823326 0.567569 199 0 57
0.000000 0.121605 0.094094 -0.000000 1.000000 0.000000 199 0 57
-0.106000 0.121605 -0.011906 -0.000000 1.000000 0.000000 199 0 57
-0.074953 0.121605 0.063048 -0.000000 1.000000 0.000000 199 0 57
-0.000000 0.121605 -0.117906 0.000000 1.000000 0.000000 199 0 57
-0.074953 0.121605 -0.086859 0.000000 1.000000 0.000000 199 0 57
0.106000 0.121605 -0.011906 0.000000 1.000000 0.000000 199 0 57
0.074953 0.121605 -0.086859 0.000000 1.000000 0.000000 199 0 57
0.074953 0.121605 0.063048 0.000000 1.000000 0.000000 199 0 57
0.000000 0.050005 0.188094 0.132931 -0.727406 0.673209 199 0 57
0.039018 0.053579 0.184251 0.132931 -0.727406 0.673209 199 0 57
0.019603 0.052696 0.187131 0.132931 -0.727406 0.673209 199 0 57
0.076537 0.050005 0.172870 0.134812 -0.727409 0.672831 199 0 57
0.058057 0.052696 0.179482 0.134812 -0.727409 0.672831 199 0 57
0.039018 0.053579 0.184251 0.134812 -0.727409 0.672831 199 0 57
0.000000 0.050005 0.188094 0.132857 -0.732283 0.667915 199 0 57
0.033137 -0.053435 0.068094 0.132857 -0.732283 0.667915 199 0 57
0.076537 0.050005 0.172870 0.132857 -0.732283 0.667915 199 0 57
0.000000 0.050005 0.188094 0.132857 -0.732283 0.667916 199 0 57
0.076537 0.050005 0.172870 0.132857 -0.732283 0.667916 199 0 57
0.039018 0.053579 0.184251 0.132857 -0.732283 0.667916 199 0 57
0.000000 0.050005 0.188094 -0.132857 -0.732283 0.667915 199 0 57
-0.076537 0.050005 0.172870 -0.132857 -0.732283 0.667915 199 1 58
-0.033137 -0.053435 0.068094 -0.132857 -0.732283 0.667915 199 0 57
-0.039018 0.053579 0.184251 -0.134815 -0.727402 0.672838 199 1 58
-0.058057 0.052696 0.179482 -0.134815 -0.727402 0.672838 199 1 58
-0.076537 0.050005 0.172870 -0.134815 -0.727402 0.672838 199 1 58
0.000000 0.050005 0.188094 -0.132931 -0.727405 0.673209 199 0 57
-0.019603 0.052696 0.187131 -0.132931 -0.727405 0.673209 199 1 58
-0.039018 0.053579 0.184251 -0.132931 -0.727405 0.673209 199 1 58
-0.039018 0.053579 0.184251 -0.132857 -0.732283 0.667915 199 1 58
0.141421 0.050005 0.129516 0.570025 -0.727409 0.382031 199 0 57
0.166294 0.053579 0.099208 0.570025 -0.727409 0.382031 199 0 57
0.154602 0.052696 0.114973 0.570025 -0.727409 0.382031 199 0 57
0.184776 0.050005 0.064631 0.571088 -0.727411 0.380436 199 0 57
0.176384 0.052696 0.082374 0.571088 -0.727411 0.380436 199 0 57
0.166294 0.053579 0.099208 0.571088 -0.727411 0.380436 199 0 57
0.141421 0.050005 0.129516 0.566231 -0.732283 0.378343 199 0 57
0.080000 -0.053435 0.021231 0.566231 -0.732283 0.378343 199 0 57
0.184776 0.050005 0.064631 0.566231 -0.732283 0.378343 199 0 57
0.141421 0.050005 0.129516 0.566232 -0.732282 0.378344 199 0 57
0.184776 0.050005 0.064631 0.566232 -0.732282 0.378344 199 0 57
0.166294 0.053579 0.099208 0.566232 -0.732282 0.378344 199 0 57
0.141421 0.050005 0.129516 0.378344 -0.732283 0.566231 199 0 57
0.076537 0.050005 0.172870 0.378344 -0.732283 0.566231 199 0 57
0.033137 -0.053435 0.068094 0.378344 -0.732283 0.566231 199 0 57
0.111114 0.053579 0.154388 0.380438 -0.727407 0.571092 199 0 57
0.094279 0.052696 0.164478 0.380438 -0.727407 0.571092 199 0 57
0.076537 0.050005 0.172870 0.380438 -0.727407 0.571092 199 0 57
0.141421 0.050005 0.129516 0.382031 -0.727409 0.570025 199 0 57
0.126879 0.052696 0.142696 0.382031 -0.727409 0.570025 199 0 57
0.111114 0.053579 0.154388 0.382031 -0.727409 0.570025 199 0 57
0.141421 0.050005 0.129516 0.378344 -0.732282 0.566232 199 0 57
0.111114 0.053579 0.154388 0.378344 -0.732282 0.566232 199 0 57
0.076537 0.050005 0.172870 0.378344 -0.732282 0.566232 199 0 57
0.200000 0.050005 -0.011906 0.673209 -0.727405 -0.132931 199 0 57
0.196157 0.053579 -0.050924 0.673209 -0.727405 -0.132931 199 0 57
0.199037 0.052696 -0.031509 0.673209 -0.727405 -0.132931 199 0 57
0.184776 0.050005 -0.088442 0.672837 -0.727403 -0.134814 199 0 57
0.191388 0.052696 -0.069963 0.672837 -0.727403 -0.134814 199 0 57
0.196157 0.053579 -0.050924 0.672837 -0.727403 -0.134814 199 0 57
0.200000 0.050005 -0.011906 0.667915 -0.732283 -0.132857 199 0 57
0.080000 -0.053435 -0.045043 0.667915 -0.732283 -0.132857 199 0 57
0.184776 0.050005 -0.088442 0.667915 -0.732283 -0.132857 199 0 57
0.200000 0.050005 -0.011906 0.667916 -0.732282 -0.132857 199 0 57
0.184776 0.050005 -0.088442 0.667916 -0.732282 -0.132857 199 0 57
0.196157 0.053579 -0.050924 0.667916 -0.732282 -0.132857 199 0 57
0.200000 0.050005 -0.011906 0.667915 -0.732283 0.132857 199 0 57
0.184776 0.050005 0.064631 0.667915 -0.732283 0.132857 199 0 57
0.080000 -0.053435 0.021231 0.667915 -0.732283 0.132857 199 0 57
0.196157 0.053579 0.027112 0.672831 -0.727409 0.134812 199 0 57
0.191388 0.052696 0.046151 0.672831 -0.727409 0.134812 199 0 57
0.184776 0.050005 0.064631 0.672831 -0.727409 0.134812 199 0 57
0.200000 0.050005 -0.011906 0.673209 -0.727406 0.132931 199 0 57
0.199037 0.052696 0.007698 0.673209 -0.727406 0.132931 199 0 57
0.196157 0.053579 0.027112 0.673209 -0.727406 0.132931 199 0 57
0.196157 0.053579 0.027112 0.667915 -0.732283 0.132857 199 0 57
0.141421 0.050005 -0.153327 0.382033 -0.727408 -0.570026 199 0 57
0.111114 0.053579 -0.178200 0.382033 -0.727408 -0.570026 199 0 57
0.126879 0.052696 -0.166508 0.382033 -0.727408 -0.570026 199 0 57
0.076537 0.050005 -0.196682 0.380436 -0.727411 -0.571088 199 0 57
0.094279 0.052696 -0.188290 0.380436 -0.727411 -0.571088 199 0 57
0.111114 0.053579 -0.178200 0.380436 -0.727411 -0.571088 199 0 57
0.141421 0.050005 -0.153327 0.378344 -0.732283 -0.566231 199 0 57
0.033137 -0.053435 -0.091906 0.378344 -0.732283 -0.566231 199 0 57
0.076537 0.050005 -0.196682 0.378344 -0.732283 -0.566231 199 0 57
0.111114 0.053579 -0.178200 0.378344 -0.732283 -0.566231 199 0 57
0.141421 0.050005 -0.153327 0.566231 -0.732283 -0.378344 199 0 57
0.184776 0.050005 -0.088442 0.566231 -0.732283 -0.378344 199 0 57
0.080000 -0.053435 -0.045043 0.566231 -0.732283 -0.378344 199 0 57
0.166294 0.053579 -0.123020 0.571097 -0.727402 -0.380440 199 0 57
0.176384 0.052696 -0.106185 0.571097 -0.727402 -0.380440 199 0 57
0.184776 0.050005 -0.088442 0.571097 -0.727402 -0.380440 199 0 57
0.141421 0.050005 -0.153327 0.570026 -0.727408 -0.382033 199 0 57
0.154602 0.052696 -0.138784 0.570026 -0.727408 -0.382033 199 0 57
0.166294 0.053579 -0.123020 0.570026 -0.727408 -0.382033 199 0 57
0.166294 0.053579 -0.123020 0.566231 -0.732283 -0.378344 199 0 57
-0.000000 0.050005 -0.211906 -0.132931 -0.727402 -0.673213 199 0 57
-0.039018 0.053579 -0.208063 -0.132931 -0.727402 -0.673213 199 0 57
-0.019603 0.052696 -0.210943 -0.132931 -0.727402 -0.673213 199 0 57
-0.076537 0.050005 -0.196682 -0.134813 -0.727407 -0.672833 199 0 57
-0.058057 0.052696 -0.203294 -0.134813 -0.727407 -0.672833 199 0 57
-0.039018 0.053579 -0.208063 -0.134813 -0.727407 -0.672833 199 0 57
-0.000000 0.050005 -0.211906 -0.132857 -0.732283 -0.667915 199 0 57
-0.033137 -0.053435 -0.091906 -0.132857 -0.732283 -0.667915 199 0 57
-0.076537 0.050005 -0.196682 -0.132857 -0.732283 -0.667915 199 0 57
-0.039018 0.053579 -0.208063 -0.132857 -0.732283 -0.667915 199 0 57
-0.000000 0.050005 -0.211906 0.132857 -0.732283 -0.667915 199 0 57
0.076537 0.050005 -0.196682 0.132857 -0.732283 -0.667915 199 0 57
0.033137 -0.053435 -0.091906 0.132857 -0.732283 -0.667915 199 0 57
0.039018 0.053579 -0.208063 0.134813 -0.727407 -0.672833 199 0 57
0.058057 0.052696 -0.203294 0.134813 -0.727407 -0.672833 199 0 57
0.076537 0.050005 -0.196682 0.134813 -0.727407 -0.672833 199 0 57
-0.000000 0.050005 -0.211906 0.132931 -0.727403 -0.673211 199 0 57
0.019603 0.052696 -0.210943 0.132931 -0.727403 -0.673211 199 0 57
0.039018 0.053579 -0.208063 0.132931 -0.727403 -0.673211 199 0 57
-0.000000 0.050005 -0.211906 0.132856 -0.732284 -0.667914 199 0 57
0.039018 0.053579 -0.208063 0.132856 -0.732284 -0.667914 199 0 57
0.076537 0.050005 -0.196682 0.132856 -0.732284 -0.667914 199 0 57
-0.141421 0.050005 -0.153327 -0.570024 -0.727409 -0.382031 199 0 57
-0.166294 0.053579 -0.123020 -0.570024 -0.727409 -0.382031 199 0 57
-0.154602 0.052696 -0.138784 -0.570024 -0.727409 -0.382031 199 0 57
-0.184776 0.050005 -0.088442 -0.571095 -0.727404 -0.380439 199 0 57
-0.176384 0.052696 -0.106185 -0.571095 -0.727404 -0.380439 199 0 57
-0.166294 0.053579 -0.123020 -0.571095 -0.727404 -0.380439 199 0 57
-0.141421 0.050005 -0.153327 -0.566231 -0.732283 -0.378344 199 0 57
-0.080000 -0.053435 -0.045043 -0.566231 -0.732283 -0.378344 199 0 57
-0.184776 0.050005 -0.088442 -0.566231 -0.732283 -0.378344 199 0 57
-0.166294 0.053579 -0.123020 -0.566231 -0.732283 -0.378344 199 0 57
-0.141421 0.050005 -0.153327 -0.378344 -0.732283 -0.566231 199 0 57
-0.076537 0.050005 -0.196682 -0.378344 -0.732283 -0.566231 199 0 57
-0.033137 -0.053435 -0.091906 -0.378344 -0.732283 -0.566231 199 0 57
-0.111114 0.053579 -0.178200 -0.380436 -0.727411 -0.571087 199 0 57
-0.094279 0.052696 -0.188290 -0.380436 -0.727411 -0.571087 199 0 57
-0.076537 0.050005 -0.196682 -0.380436 -0.727411 -0.571087 199 0 57
-0.141421 0.050005 -0.153327 -0.382029 -0.727413 -0.570022 199 0 57
-0.126879 0.052696 -0.166508 -0.382029 -0.727413 -0.570022 199 0 57
-0.111114 0.053579 -0.178200 -0.382029 -0.727413 -0.570022 199 0 57
-0.141421 0.050005 -0.153327 -0.378344 -0.732282 -0.566232 199 0 57
-0.111114 0.053579 -0.178200 -0.378344 -0.732282 -0.566232 199 0 57
-0.076537 0.050005 -0.196682 -0.378344 -0.732282 -0.566232 199 0 57
-0.200000 0.050005 -0.011906 -0.673212 -0.727403 0.132931 199 0 57
-0.196157 0.053579 0.027112 -0.673212 -0.727403 0.132931 199 0 57
-0.199037 0.052696 0.007698 -0.673212 -0.727403 0.132931 199 0 57
-0.184776 0.050005 0.064631 -0.672831 -0.727409 0.134812 199 0 57
-0.191388 0.052696 0.046151 -0.672831 -0.727409 0.134812 199 0 57
-0.196157 0.053579 0.027112 -0.672831 -0.727409 0.134812 199 0 57
-0.200000 0.050005 -0.011906 -0.667915 -0.732283 0.132857 199 0 57
-0.080000 -0.053435 0.021231 -0.667915 -0.732283 0.132857 199 0 57
-0.184776 0.050005 0.064631 -0.667915 -0.732283 0.132857 199 0 57
-0.196157 0.053579 0.027112 -0.667915 -0.732283 0.132857 199 0 57
-0.200000 0.050005 -0.011906 -0.667915 -0.732283 -0.132857 199 0 57
-0.184776 0.050005 -0.088442 -0.667915 -0.732283 -0.132857 199 0 57
-0.080000 -0.053435 -0.045043 -0.667915 -0.732283 -0.132857 199 0 57
-0.196157 0.053579 -0.050924 -0.672834 -0.727406 -0.134813 199 0 57
-0.191388 0.052696 -0.069963 -0.672834 -0.727406 -0.134813 199 0 57
-0.184776 0.050005 -0.088442 -0.672834 -0.727406 -0.134813 199 0 57
-0.200000 0.050005 -0.011906 -0.673212 -0.727403 -0.132931 199 0 57
-0.199037 0.052696 -0.031509 -0.673212 -0.727403 -0.132931 199 0 57
-0.196157 0.053579 -0.050924 -0.673212 -0.727403 -0.132931 199 0 57
-0.200000 0.050005 -0.011906 -0.667916 -0.732283 -0.132857 199 0 57
-0.196157 0.053579 -0.050924 -0.667916 -0.732283 -0.132857 199 0 57
-0.184776 0.050005 -0.088442 -0.667916 -0.732283 -0.132857 199 0 57
-0.141421 0.050005 0.129516 -0.382032 -0.727409 0.570025 199 0 57
-0.111114 0.053579 0.154388 -0.382032 -0.727409 0.570025 199 0 57
-0.126879 0.052696 0.142696 -0.382032 -0.727409 0.570025 199 0 57
-0.076537 0.050005 0.172870 -0.380440 -0.727403 0.571096 199 0 57
-0.094279 0.052696 0.164478 -0.380440 -0.727403 0.571096 199 0 57
-0.111114 0.053579 0.154388 -0.380440 -0.727403 0.571096 199 0 57
-0.141421 0.050005 0.129516 -0.378344 -0.732283 0.566231 199 0 57
-0.033137 -0.053435 0.068094 -0.378344 -0.732283 0.566231 199 0 57
-0.076537 0.050005 0.172870 -0.378344 -0.732283 0.566231 199 0 57
-0.111114 0.053579 0.154388 -0.378344 -0.732283 0.566231 199 0 57
-0.141421 0.050005 0.129516 -0.566231 -0.732283 0.378344 199 0 57
-0.184776 0.050005 0.064631 -0.566231 -0.732283 0.378344 199 0 57
-0.080000 -0.053435 0.021231 -0.566231 -0.732283 0.378344 199 0 57
-0.166294 0.053579 0.099208 -0.571094 -0.727405 0.380439 199 0 57
-0.176384 0.052696 0.082374 -0.571094 -0.727405 0.380439 199 0 57
-0.184776 0.050005 0.064631 -0.571094 -0.727405 0.380439 199 0 57
-0.141421 0.050005 0.129516 -0.570025 -0.727408 0.382032 199 0 57
-0.154602 0.052696 0.114973 -0.570025 -0.727408 0.382032 199 0 57
-0.166294 0.053579 0.099208 -0.570025 -0.727408 0.382032 199 0 57
-0.166294 0.053579 0.099208 -0.566231 -0.732283 0.378344 199 0 57
0.000000 0.050005 0.188094 0.000000 -0.757436 0.652910 199 0 57
-0.033137 -0.053435 0.068094 0.000000 -0.757436 0.652910 199 0 57
0.000000 -0.122395 -0.011906 0.000000 -0.757436 0.652910 199 0 57
0.033137 -0.053435 0.068094 0.000000 -0.757436 0.652910 199 0 57
0.141421 0.050005 0.129516 0.461677 -0.757436 0.461677 199 0 57
0.033137 -0.053435 0.068094 0.461677 -0.757436 0.461677 199 0 57
0.000000 -0.122395 -0.011906 0.461677 -0.757436 0.461677 199 0 57
0.080000 -0.053435 0.021231 0.461677 -0.757436 0.461677 199 0 57
0.200000 0.050005 -0.011906 0.652910 -0.757436 0.000000 199 0 57
0.080000 -0.053435 0.021231 0.652910 -0.757436 0.000000 199 0 57
0.000000 -0.122395 -0.011906 0.652910 -0.757436 0.000000 199 0 57
0.080000 -0.053435 -0.045043 0.652910 -0.757436 0.000000 199 0 57
0.141421 0.050005 -0.153327 0.461677 -0.757436 -0.461677 199 0 57
0.080000 -0.053435 -0.045043 0.461677 -0.757436 -0.461677 199 0 57
0.000000 -0.122395 -0.011906 0.461677 -0.757436 -0.461677 199 0 57
0.033137 -0.053435 -0.091906 0.461677 -0.757436 -0.461677 199 0 57
-0.000000 0.050005 -0.211906 0.000000 -0.757436 -0.652910 199 0 57
0.033137 -0.053435 -0.091906 0.000000 -0.757436 -0.652910 199 0 57
0.000000 -0.122395 -0.011906 0.000000 -0.757436 -0.652910 199 0 57
-0.033137 -0.053435 -0.091906 0.000000 -0.757436 -0.652910 199 0 57
-0.141421 0.050005 -0.153327 -0.461677 -0.757436 -0.461677 199 0 57
-0.033137 -0.053435 -0.091906 -0.461677 -0.757436 -0.461677 199 0 57
0.000000 -0.122395 -0.011906 -0.461677 -0.757436 -0.461677 199 0 57
-0.080000 -0.053435 -0.045043 -0.461677 -0.757436 -0.461677 199 0 57
-0.200000 0.050005 -0.011906 -0.652910 -0.757436 0.000000 199 0 57
-0.080000 -0.053435 -0.045043 -0.652910 -0.757436 0.000000 199 0 57
0.000000 -0.122395 -0.011906 -0.652910 -0.757436 0.000000 199 0 57
-0.080000 -0.053435 0.021231 -0.652910 -0.757436 0.000000 199 0 57
-0.141421 0.050005 0.129516 -0.461677 -0.757436 0.461677 199 0 57
-0.080000 -0.053435 0.021231 -0.461677 -0.757436 0.461677 199 0 57
0.000000 -0.122395 -0.011906 -0.461677 -0.757436 0.461677 199 0 57
-0.033137 -0.053435 0.068094 -0.461677 -0.757436 0.461677 199 0 57
4 0 1 2 3
4 4 5 6 7
4 8 9 10 11
4 12 13 14 15
4 16 17 18 19
4 20 21 22 23
4 24 25 26 27
4 28 29 30 31
4 32 33 34 35
4 36 37 38 39
4 40 41 42 43
4 44 45 46 47
4 48 49 50 51
4 52 53 54 55
4 56 57 58 59
4 60 61 62 63
4 64 65 66 67
4 68 69 70 71
4 72 73 74 75
4 76 77 78 79
4 80 81 82 83
4 84 85 86 87
4 88 89 90 91
4 92 93 94 95
4 96 97 98 99
4 100 101 102 103
4 104 105 106 107
4 108 109 110 111
4 112 113 114 115
4 116 117 118 119
4 120 121 122 123
4 124 125 126 127
4 128 129 130 131
4 132 133 134 135
4 136 137 138 139
4 140 141 142 143
4 144 145 146 147
4 148 149 150 151
4 152 153 154 155
4 156 157 158 159
4 160 161 162 163
4 164 165 166 167
4 168 169 170 171
4 172 173 174 175
4 176 177 178 179
4 180 181 182 183
4 184 185 186 187
4 188 189 190 191
4 192 193 194 195
4 196 197 198 199
4 200 201 202 203
4 204 205 206 207
4 208 209 210 211
4 212 213 214 215
4 216 217 218 219
4 220 221 222 223
4 224 225 226 227
4 228 229 230 231
4 232 233 234 235
4 236 237 238 239
4 240 241 242 243
4 244 245 246 247
4 248 249 250 251
4 252 253 254 255
3 256 257 258
3 259 260 261
3 262 263 264
3 265 266 267
3 268 269 270
3 271 272 273
3 274 275 276
3 277 278 279
3 280 281 282
3 283 284 285
3 286 287 288
3 289 290 291
3 292 293 294
3 295 296 297
3 298 299 300
3 298 300 301
3 302 303 304
3 305 306 307
3 308 309 310
3 302 311 303
3 312 313 314
3 315 316 317
3 318 319 320
3 318 320 321
3 322 323 324
3 325 326 327
3 328 329 330
3 322 331 323
3 332 333 334
3 335 336 337
3 338 339 340
3 341 342 343
3 344 345 346
3 347 348 349
3 350 351 352
3 353 354 355
3 356 357 358
3 359 360 361
3 362 363 364
3 362 364 365
3 366 367 368
3 369 370 371
3 372 373 374
3 366 375 367
3 376 377 378
3 379 380 381
3 382 383 384
3 385 386 387
3 388 389 390
3 391 392 393
3 394 395 396
3 388 397 389
3 398 399 400
3 401 402 403
3 404 405 406
3 407 408 409
3 410 411 412
3 413 414 415
3 416 417 418
3 419 420 421
3 422 423 424
3 425 426 427
3 428 429 430
3 431 432 433
3 434 435 436
4 437 438 439 440
3 441 442 443
4 444 445 446 447
3 448 449 450
4 451 452 453 454
3 455 456 457
4 458 459 460 461
3 462 463 464
4 465 466 467 468
3 469 470 471
4 472 473 474 475
3 476 477 478
4 479 480 481 482
3 483 484 485
4 486 487 488 489
3 490 491 492
3 493 494 491
3 495 496 493
3 490 497 495
3 490 493 491
3 490 495 493
3 498 499 500
3 501 502 503
3 504 505 506
3 507 508 509
3 510 511 512
3 513 514 515
3 516 517 518
3 510 519 511
3 520 521 522
3 523 524 525
3 526 527 528
3 529 530 531
3 532 533 534
3 535 536 537
3 538 539 540
3 541 542 543
3 544 545 546
3 547 548 549
3 550 551 552
3 553 554 555
3 556 557 558
3 559 560 561
3 562 563 564
3 556 565 557
3 566 567 568
3 569 570 571
3 572 573 574
3 572 574 575
3 576 577 578
3 579 580 581
3 582 583 584
3 576 585 577
3 586 587 588
3 589 590 591
3 592 593 594
3 592 594 595
3 596 597 598
3 599 600 601
3 602 603 604
3 605 606 607
3 608 609 610
3 611 612 613
3 614 615 616
3 614 616 617
3 618 619 620
3 621 622 623
3 624 625 626
3 627 628 629
3 630 631 632
3 633 634 635
3 636 637 638
3 636 638 639
3 640 641 642
3 643 644 645
3 646 647 648
3 649 650 651
3 652 653 654
3 655 656 657
3 658 659 660
3 658 660 661
3 662 663 664
3 665 666 667
3 668 669 670
3 662 671 663
4 672 673 674 675
4 676 677 678 679
4 680 681 682 683
4 684 685 686 687
4 688 689 690 691
4 692 693 694 695
4 696 697 698 699
4 700 701 702 703
