ply
format ascii 1.0
comment Created by Blender 2.73 (sub 0) - www.blender.org, source file: 'pencil_rotated.blend'
element vertex 594
property float x
property float y
property float z
property float nx
property float ny
property float nz
property uchar red
property uchar green
property uchar blue
element face 190
property list uchar uint vertex_indices
end_header
-0.011771 -0.092161 0.067184 -0.635242 -0.714349 -0.293554 0 0 0
-0.008323 -0.094352 0.065055 -0.635242 -0.714349 -0.293554 0 0 0
0.000000 -0.124201 0.119678 -0.635242 -0.714349 -0.293554 0 0 0
-0.016647 -0.082411 0.076654 -0.957812 -0.263556 0.114604 0 0 0
-0.016080 -0.085980 0.073188 -0.957812 -0.263556 0.114604 0 0 0
0.000000 -0.124201 0.119678 -0.957812 -0.263556 0.114604 0 0 0
-0.016080 -0.085980 0.073188 -0.906327 -0.421296 -0.032885 0 0 0
-0.014417 -0.089305 0.069957 -0.906327 -0.421296 -0.032885 0 0 0
0.000000 -0.124201 0.119678 -0.906327 -0.421296 -0.032885 0 0 0
-0.004309 -0.095730 0.063717 -0.143275 -0.886500 -0.439989 0 0 0
0.000000 -0.096200 0.063261 -0.143275 -0.886500 -0.439989 0 0 0
0.000000 -0.124201 0.119678 -0.143275 -0.886500 -0.439989 0 0 0
-0.008323 -0.094352 0.065055 -0.412098 -0.824513 -0.387755 0 0 0
-0.004309 -0.095730 0.063717 -0.412098 -0.824513 -0.387755 0 0 0
0.000000 -0.124201 0.119678 -0.412098 -0.824513 -0.387755 0 0 0
0.004309 -0.095730 0.063717 0.412099 -0.824512 -0.387755 0 0 0
0.008323 -0.094352 0.065055 0.412099 -0.824512 -0.387755 0 0 0
0.000000 -0.124201 0.119678 0.412099 -0.824512 -0.387755 0 0 0
-0.004309 -0.069092 0.089590 -0.412100 0.411589 0.812876 0 0 0
-0.008323 -0.070470 0.088252 -0.412100 0.411589 0.812876 0 0 0
0.000000 -0.124201 0.119678 -0.412100 0.411589 0.812876 0 0 0
-0.008323 -0.070470 0.088252 -0.635242 0.314221 0.705501 0 0 0
-0.011771 -0.072661 0.086124 -0.635242 0.314221 0.705501 0 0 0
0.000000 -0.124201 0.119678 -0.635242 0.314221 0.705501 0 0 0
0.008323 -0.094352 0.065055 0.635242 -0.714349 -0.293554 0 0 0
0.011771 -0.092161 0.067184 0.635242 -0.714349 -0.293554 0 0 0
0.000000 -0.124201 0.119678 0.635242 -0.714349 -0.293554 0 0 0
0.004309 -0.069092 0.089590 0.143270 0.465606 0.873318 0 0 0
-0.000000 -0.068623 0.090047 0.143270 0.465606 0.873318 0 0 0
0.000000 -0.124201 0.119678 0.143270 0.465606 0.873318 0 0 0
0.011771 -0.092161 0.067184 0.800155 -0.574784 -0.171392 0 0 0
0.014417 -0.089305 0.069957 0.800155 -0.574784 -0.171392 0 0 0
0.000000 -0.124201 0.119678 0.800155 -0.574784 -0.171392 0 0 0
-0.016080 -0.078842 0.080120 -0.957812 -0.106885 0.266779 0 0 0
-0.016647 -0.082411 0.076654 -0.957812 -0.106885 0.266779 0 0 0
0.000000 -0.124201 0.119678 -0.957812 -0.106885 0.266779 0 0 0
0.008323 -0.070470 0.088252 0.412100 0.411589 0.812876 0 0 0
0.004309 -0.069092 0.089590 0.412100 0.411589 0.812876 0 0 0
0.000000 -0.124201 0.119678 0.412100 0.411589 0.812876 0 0 0
-0.014417 -0.075517 0.083350 -0.906327 0.045133 0.420160 0 0 0
-0.016080 -0.078842 0.080120 -0.906327 0.045133 0.420160 0 0 0
0.000000 -0.124201 0.119678 -0.906327 0.045133 0.420160 0 0 0
0.014417 -0.075517 0.083350 0.800155 0.188050 0.569553 0 0 0
0.011771 -0.072661 0.086124 0.800155 0.188050 0.569553 0 0 0
0.000000 -0.124201 0.119678 0.800155 0.188050 0.569553 0 0 0
0.016080 -0.085980 0.073188 0.957812 -0.263555 0.114605 0 0 0
0.016647 -0.082411 0.076654 0.957812 -0.263555 0.114605 0 0 0
0.000000 -0.124201 0.119678 0.957812 -0.263555 0.114605 0 0 0
0.000000 -0.096200 0.063261 0.143274 -0.886500 -0.439989 0 0 0
0.004309 -0.095730 0.063717 0.143274 -0.886500 -0.439989 0 0 0
0.000000 -0.124201 0.119678 0.143274 -0.886500 -0.439989 0 0 0
0.016647 -0.082411 0.076654 0.957812 -0.106885 0.266779 0 0 0
0.016080 -0.078842 0.080120 0.957812 -0.106885 0.266779 0 0 0
0.000000 -0.124201 0.119678 0.957812 -0.106885 0.266779 0 0 0
-0.014417 -0.089305 0.069957 -0.800155 -0.574785 -0.171392 0 0 0
-0.011771 -0.092161 0.067184 -0.800155 -0.574785 -0.171392 0 0 0
0.000000 -0.124201 0.119678 -0.800155 -0.574785 -0.171392 0 0 0
-0.000000 -0.068623 0.090047 -0.143273 0.465606 0.873318 0 0 0
-0.004309 -0.069092 0.089590 -0.143273 0.465606 0.873318 0 0 0
0.000000 -0.124201 0.119678 -0.143273 0.465606 0.873318 0 0 0
0.016080 -0.078842 0.080120 0.906327 0.045134 0.420161 0 0 0
0.014417 -0.075517 0.083350 0.906327 0.045134 0.420161 0 0 0
0.000000 -0.124201 0.119678 0.906327 0.045134 0.420161 0 0 0
-0.011771 -0.072661 0.086124 -0.800154 0.188050 0.569553 0 0 0
-0.014417 -0.075517 0.083350 -0.800154 0.188050 0.569553 0 0 0
0.000000 -0.124201 0.119678 -0.800154 0.188050 0.569553 0 0 0
0.014417 -0.089305 0.069957 0.906327 -0.421296 -0.032884 0 0 0
0.016080 -0.085980 0.073188 0.906327 -0.421296 -0.032884 0 0 0
0.000000 -0.124201 0.119678 0.906327 -0.421296 -0.032884 0 0 0
0.011771 -0.072661 0.086124 0.635241 0.314222 0.705503 0 0 0
0.008323 -0.070470 0.088252 0.635241 0.314222 0.705503 0 0 0
0.000000 -0.124201 0.119678 0.635241 0.314222 0.705503 0 0 0
0.027433 0.679714 -0.629239 0.894427 0.320797 0.311592 240 114 114
0.027433 0.629757 -0.577806 0.894427 0.320797 0.311592 240 114 114
0.034292 0.619917 -0.587363 0.894427 0.320797 0.311592 240 114 114
0.034292 0.669875 -0.638796 0.894427 0.320797 0.311592 240 114 114
-0.048008 0.630518 -0.677024 -0.894427 -0.320797 -0.311592 240 114 114
-0.048008 0.580560 -0.625591 -0.894427 -0.320797 -0.311592 240 114 114
-0.054867 0.590399 -0.616034 -0.894427 -0.320797 -0.311592 240 114 114
-0.054867 0.640357 -0.667467 -0.894427 -0.320797 -0.311592 240 114 114
0.054867 0.640357 -0.667467 0.894427 -0.320797 -0.311592 240 114 114
0.054867 0.590399 -0.616034 0.894427 -0.320797 -0.311592 240 114 114
0.048008 0.580560 -0.625591 0.894427 -0.320797 -0.311592 240 114 114
0.048008 0.630518 -0.677024 0.894427 -0.320797 -0.311592 240 114 114
-0.013717 0.601000 -0.705695 0.000000 -0.717324 -0.696740 240 114 114
-0.013717 0.551042 -0.654261 0.000000 -0.717324 -0.696740 240 114 114
-0.027433 0.551042 -0.654261 0.000000 -0.717324 -0.696740 240 114 114
-0.027433 0.601000 -0.705695 0.000000 -0.717324 -0.696740 240 114 114
0.034292 0.669875 -0.638796 0.894427 0.320796 0.311591 240 114 114
0.034292 0.619917 -0.587363 0.894427 0.320796 0.311591 240 114 114
0.041150 0.610078 -0.596920 0.894427 0.320796 0.311591 240 114 114
0.041150 0.660036 -0.648353 0.894427 0.320796 0.311591 240 114 114
0.041150 0.620678 -0.686581 0.894427 -0.320797 -0.311591 240 114 114
0.041150 0.570721 -0.635148 0.894427 -0.320797 -0.311591 240 114 114
0.034292 0.560881 -0.644704 0.894427 -0.320797 -0.311591 240 114 114
0.034292 0.610839 -0.696138 0.894427 -0.320797 -0.311591 240 114 114
0.048008 0.630518 -0.677024 0.894428 -0.320796 -0.311591 240 114 114
0.048008 0.580560 -0.625591 0.894428 -0.320796 -0.311591 240 114 114
0.041150 0.570721 -0.635148 0.894428 -0.320796 -0.311591 240 114 114
0.041150 0.620678 -0.686581 0.894428 -0.320796 -0.311591 240 114 114
-0.034292 0.669875 -0.638796 -0.894427 0.320797 0.311592 240 114 114
-0.034292 0.619917 -0.587363 -0.894427 0.320797 0.311592 240 114 114
-0.027433 0.629757 -0.577806 -0.894427 0.320797 0.311592 240 114 114
-0.027433 0.679714 -0.629239 -0.894427 0.320797 0.311592 240 114 114
-0.041150 0.660036 -0.648353 -0.894427 0.320796 0.311591 240 114 114
-0.041150 0.610078 -0.596920 -0.894427 0.320796 0.311591 240 114 114
-0.034292 0.619917 -0.587363 -0.894427 0.320796 0.311591 240 114 114
-0.034292 0.669875 -0.638796 -0.894427 0.320796 0.311591 240 114 114
-0.027433 0.601000 -0.705695 -0.894427 -0.320797 -0.311592 240 114 114
-0.027433 0.551042 -0.654261 -0.894427 -0.320797 -0.311592 240 114 114
-0.034292 0.560881 -0.644704 -0.894427 -0.320797 -0.311592 240 114 114
-0.034292 0.610839 -0.696138 -0.894427 -0.320797 -0.311592 240 114 114
-0.000000 0.601000 -0.705695 0.000000 -0.717324 -0.696740 240 114 114
-0.000000 0.551042 -0.654261 0.000000 -0.717324 -0.696740 240 114 114
0.013717 0.601000 -0.705695 0.000000 -0.717324 -0.696740 240 114 114
0.013717 0.551042 -0.654261 0.000000 -0.717324 -0.696740 240 114 114
0.013717 0.679714 -0.629239 0.000000 0.717324 0.696740 240 114 114
0.013717 0.629757 -0.577806 0.000000 0.717324 0.696740 240 114 114
0.027433 0.629757 -0.577806 0.000000 0.717324 0.696740 240 114 114
0.027433 0.679714 -0.629239 0.000000 0.717324 0.696740 240 114 114
-0.000000 0.679714 -0.629239 0.000000 0.717324 0.696740 240 114 114
-0.000000 0.629757 -0.577806 0.000000 0.717324 0.696740 240 114 114
-0.048008 0.650196 -0.657910 -0.894427 0.320796 0.311591 240 114 114
-0.048008 0.600239 -0.606477 -0.894427 0.320796 0.311591 240 114 114
-0.054867 0.640357 -0.667467 -0.894427 0.320797 0.311592 240 114 114
-0.054867 0.590399 -0.616034 -0.894427 0.320797 0.311592 240 114 114
-0.048008 0.600239 -0.606477 -0.894427 0.320797 0.311592 240 114 114
-0.048008 0.650196 -0.657910 -0.894427 0.320797 0.311592 240 114 114
-0.041150 0.620678 -0.686581 -0.894427 -0.320797 -0.311591 240 114 114
-0.041150 0.570721 -0.635148 -0.894427 -0.320797 -0.311591 240 114 114
-0.048008 0.580560 -0.625591 -0.894427 -0.320797 -0.311591 240 114 114
-0.048008 0.630518 -0.677024 -0.894427 -0.320797 -0.311591 240 114 114
-0.034292 0.610839 -0.696138 -0.894427 -0.320797 -0.311591 240 114 114
-0.034292 0.560881 -0.644704 -0.894427 -0.320797 -0.311591 240 114 114
0.048008 0.650196 -0.657910 0.894427 0.320797 0.311592 240 114 114
0.048008 0.600239 -0.606477 0.894427 0.320797 0.311592 240 114 114
0.054867 0.590399 -0.616034 0.894427 0.320797 0.311592 240 114 114
0.054867 0.640357 -0.667467 0.894427 0.320797 0.311592 240 114 114
0.041150 0.660036 -0.648353 0.894428 0.320796 0.311591 240 114 114
0.041150 0.610078 -0.596920 0.894428 0.320796 0.311591 240 114 114
0.048008 0.600239 -0.606477 0.894428 0.320796 0.311591 240 114 114
0.048008 0.650196 -0.657910 0.894428 0.320796 0.311591 240 114 114
0.027433 0.601000 -0.705695 0.000000 -0.717324 -0.696740 240 114 114
0.027433 0.551042 -0.654261 0.000000 -0.717324 -0.696740 240 114 114
0.034292 0.610839 -0.696138 0.894427 -0.320797 -0.311592 240 114 114
0.034292 0.560881 -0.644704 0.894427 -0.320797 -0.311592 240 114 114
0.027433 0.551042 -0.654261 0.894427 -0.320797 -0.311592 240 114 114
0.027433 0.601000 -0.705695 0.894427 -0.320797 -0.311592 240 114 114
-0.013717 0.679714 -0.629239 0.000000 0.717324 0.696740 240 114 114
-0.013717 0.629757 -0.577806 0.000000 0.717324 0.696740 240 114 114
-0.027433 0.679714 -0.629239 0.000000 0.717324 0.696740 240 114 114
-0.027433 0.629757 -0.577806 0.000000 0.717324 0.696740 240 114 114
0.048008 0.650196 -0.657910 0.895772 0.335914 0.291126 240 114 114
0.034292 0.669875 -0.638796 0.895772 0.335914 0.291126 240 114 114
0.041150 0.660036 -0.648353 0.895772 0.335914 0.291126 240 114 114
0.013717 0.679714 -0.629239 0.000000 0.696740 -0.717324 240 114 114
0.027433 0.679714 -0.629239 0.000000 0.696740 -0.717324 240 114 114
0.034292 0.669875 -0.638796 0.000000 0.696740 -0.717324 240 114 114
-0.013717 0.679714 -0.629239 0.000000 0.000000 0.000000 240 114 114
-0.000000 0.679714 -0.629239 0.000000 0.000000 0.000000 240 114 114
0.013717 0.679714 -0.629239 0.000000 0.000000 0.000000 240 114 114
-0.034292 0.669875 -0.638796 0.000000 0.696740 -0.717324 240 114 114
-0.027433 0.679714 -0.629239 0.000000 0.696740 -0.717324 240 114 114
-0.013717 0.679714 -0.629239 0.000000 0.696740 -0.717324 240 114 114
-0.048008 0.630518 -0.677024 0.000000 0.696740 -0.717324 240 114 114
-0.054867 0.640357 -0.667467 0.000000 0.696740 -0.717324 240 114 114
-0.048008 0.650196 -0.657910 0.000000 0.696740 -0.717324 240 114 114
-0.041150 0.660036 -0.648353 0.000003 0.696736 -0.717327 240 114 114
-0.034292 0.669875 -0.638796 0.000003 0.696736 -0.717327 240 114 114
-0.013717 0.679714 -0.629239 0.000003 0.696736 -0.717327 240 114 114
-0.048008 0.630518 -0.677024 0.000006 0.696740 -0.717324 240 114 114
-0.048008 0.650196 -0.657910 0.000006 0.696740 -0.717324 240 114 114
-0.041150 0.660036 -0.648353 0.000006 0.696740 -0.717324 240 114 114
-0.027433 0.601000 -0.705695 -0.822010 -0.021077 -0.569084 240 114 114
-0.034292 0.610839 -0.696138 -0.822010 -0.021077 -0.569084 240 114 114
-0.041150 0.620678 -0.686581 -0.822010 -0.021077 -0.569084 240 114 114
-0.041150 0.620678 -0.686581 -0.000003 0.696741 -0.717323 240 114 114
-0.048008 0.630518 -0.677024 -0.000003 0.696741 -0.717323 240 114 114
-0.041150 0.660036 -0.648353 -0.000003 0.696741 -0.717323 240 114 114
-0.041150 0.660036 -0.648353 0.000000 0.696739 -0.717325 240 114 114
-0.013717 0.679714 -0.629239 0.000000 0.696739 -0.717325 240 114 114
0.013717 0.679714 -0.629239 0.000000 0.696739 -0.717325 240 114 114
0.048008 0.650196 -0.657910 0.000000 0.696740 -0.717324 240 114 114
0.054867 0.640357 -0.667467 0.000000 0.696740 -0.717324 240 114 114
0.048008 0.630518 -0.677024 0.000000 0.696740 -0.717324 240 114 114
0.041150 0.620678 -0.686581 0.835768 -0.053575 -0.546463 240 114 114
0.034292 0.610839 -0.696138 0.835768 -0.053575 -0.546463 240 114 114
0.027433 0.601000 -0.705695 0.835768 -0.053575 -0.546463 240 114 114
0.048008 0.650196 -0.657910 0.000006 0.696740 -0.717324 240 114 114
0.048008 0.630518 -0.677024 0.000006 0.696740 -0.717324 240 114 114
0.041150 0.620678 -0.686581 0.000006 0.696740 -0.717324 240 114 114
0.048008 0.650196 -0.657910 -0.000001 0.696739 -0.717324 240 114 114
-0.041150 0.660036 -0.648353 -0.000001 0.696739 -0.717324 240 114 114
0.013717 0.679714 -0.629239 -0.000001 0.696739 -0.717324 240 114 114
-0.027433 0.601000 -0.705695 0.000006 0.696741 -0.717323 240 114 114
-0.041150 0.620678 -0.686581 0.000006 0.696741 -0.717323 240 114 114
-0.041150 0.660036 -0.648353 0.000006 0.696741 -0.717323 240 114 114
-0.000000 0.601000 -0.705695 0.000000 0.000000 0.000000 240 114 114
-0.013717 0.601000 -0.705695 0.000000 0.000000 0.000000 240 114 114
-0.027433 0.601000 -0.705695 0.000000 0.000000 0.000000 240 114 114
0.027433 0.601000 -0.705695 0.000000 0.000000 0.000000 240 114 114
0.013717 0.601000 -0.705695 0.000000 0.000000 0.000000 240 114 114
0.048008 0.650196 -0.657910 -0.000008 0.696741 -0.717322 240 114 114
0.041150 0.620678 -0.686581 -0.000008 0.696741 -0.717322 240 114 114
0.027433 0.601000 -0.705695 -0.000008 0.696741 -0.717322 240 114 114
-0.027433 0.601000 -0.705695 -0.000000 0.696740 -0.717324 240 114 114
-0.041150 0.660036 -0.648353 -0.000000 0.696740 -0.717324 240 114 114
0.027433 0.601000 -0.705695 0.000000 0.696740 -0.717324 240 114 114
-0.034292 0.560881 -0.644704 -0.894427 -0.320797 -0.311591 255 255 255
-0.034292 0.515008 -0.597476 -0.894427 -0.320797 -0.311591 255 255 255
-0.041150 0.524847 -0.587919 -0.894427 -0.320797 -0.311591 255 255 255
-0.041150 0.570721 -0.635148 -0.894427 -0.320797 -0.311591 255 255 255
0.041150 0.610078 -0.596920 0.894428 0.320797 0.311591 255 255 255
0.041150 0.564205 -0.549691 0.894428 0.320797 0.311591 255 255 255
0.048008 0.554365 -0.559248 0.894428 0.320797 0.311591 255 255 255
0.048008 0.600239 -0.606477 0.894428 0.320797 0.311591 255 255 255
0.013717 0.629757 -0.577806 0.000001 0.717324 0.696740 255 255 255
0.013717 0.583883 -0.530577 0.000001 0.717324 0.696740 255 255 255
0.027433 0.583883 -0.530577 0.000001 0.717324 0.696740 255 255 255
0.027433 0.629757 -0.577806 0.000001 0.717324 0.696740 255 255 255
0.048008 0.580560 -0.625591 0.894427 -0.320797 -0.311591 255 255 255
0.048008 0.534687 -0.578362 0.894427 -0.320797 -0.311591 255 255 255
0.041150 0.524847 -0.587919 0.894427 -0.320797 -0.311591 255 255 255
0.041150 0.570721 -0.635148 0.894427 -0.320797 -0.311591 255 255 255
-0.048008 0.600239 -0.606477 -0.894427 0.320797 0.311592 255 255 255
-0.048008 0.554365 -0.559248 -0.894427 0.320797 0.311592 255 255 255
-0.041150 0.564205 -0.549691 -0.894427 0.320797 0.311592 255 255 255
-0.041150 0.610078 -0.596920 -0.894427 0.320797 0.311592 255 255 255
-0.041150 0.610078 -0.596920 -0.894428 0.320796 0.311591 255 255 255
-0.041150 0.564205 -0.549691 -0.894428 0.320796 0.311591 255 255 255
-0.034292 0.574044 -0.540134 -0.894428 0.320796 0.311591 255 255 255
-0.034292 0.619917 -0.587363 -0.894428 0.320796 0.311591 255 255 255
-0.027433 0.551042 -0.654261 -0.894427 -0.320797 -0.311592 255 255 255
-0.027433 0.505169 -0.607033 -0.894427 -0.320797 -0.311592 255 255 255
-0.034292 0.515008 -0.597476 -0.894427 -0.320797 -0.311592 255 255 255
-0.034292 0.560881 -0.644704 -0.894427 -0.320797 -0.311592 255 255 255
-0.041150 0.570721 -0.635148 -0.894427 -0.320797 -0.311592 255 255 255
-0.041150 0.524847 -0.587919 -0.894427 -0.320797 -0.311592 255 255 255
-0.048008 0.534687 -0.578362 -0.894427 -0.320797 -0.311592 255 255 255
-0.048008 0.580560 -0.625591 -0.894427 -0.320797 -0.311592 255 255 255
0.027433 0.629757 -0.577806 0.894427 0.320797 0.311592 255 255 255
0.027433 0.583883 -0.530577 0.894427 0.320797 0.311592 255 255 255
0.034292 0.574044 -0.540134 0.894427 0.320797 0.311592 255 255 255
0.034292 0.619917 -0.587363 0.894427 0.320797 0.311592 255 255 255
0.034292 0.619917 -0.587363 0.894427 0.320797 0.311591 255 255 255
0.034292 0.574044 -0.540134 0.894427 0.320797 0.311591 255 255 255
0.041150 0.564205 -0.549691 0.894427 0.320797 0.311591 255 255 255
0.041150 0.610078 -0.596920 0.894427 0.320797 0.311591 255 255 255
-0.054867 0.544526 -0.568805 -0.894427 -0.320797 -0.311592 255 255 255
-0.054867 0.590399 -0.616034 -0.894427 -0.320797 -0.311592 255 255 255
-0.054867 0.590399 -0.616034 -0.894427 0.320797 0.311592 255 255 255
-0.054867 0.544526 -0.568805 -0.894427 0.320797 0.311592 255 255 255
0.048008 0.600239 -0.606477 0.894427 0.320797 0.311592 255 255 255
0.048008 0.554365 -0.559248 0.894427 0.320797 0.311592 255 255 255
0.054867 0.544526 -0.568805 0.894427 0.320797 0.311592 255 255 255
0.054867 0.590399 -0.616034 0.894427 0.320797 0.311592 255 255 255
0.054867 0.590399 -0.616034 0.894427 -0.320797 -0.311592 255 255 255
0.054867 0.544526 -0.568805 0.894427 -0.320797 -0.311592 255 255 255
0.048008 0.534687 -0.578362 0.894427 -0.320797 -0.311592 255 255 255
0.048008 0.580560 -0.625591 0.894427 -0.320797 -0.311592 255 255 255
0.041150 0.570721 -0.635148 0.894428 -0.320796 -0.311591 255 255 255
0.041150 0.524847 -0.587919 0.894428 -0.320796 -0.311591 255 255 255
0.034292 0.515008 -0.597476 0.894428 -0.320796 -0.311591 255 255 255
0.034292 0.560881 -0.644704 0.894428 -0.320796 -0.311591 255 255 255
0.034292 0.560881 -0.644704 0.894427 -0.320797 -0.311592 255 255 255
0.034292 0.515008 -0.597476 0.894427 -0.320797 -0.311592 255 255 255
0.027433 0.505169 -0.607033 0.894427 -0.320797 -0.311592 255 255 255
0.027433 0.551042 -0.654261 0.894427 -0.320797 -0.311592 255 255 255
0.027433 0.551042 -0.654261 0.000000 -0.717324 -0.696740 255 255 255
0.027433 0.505169 -0.607033 0.000000 -0.717324 -0.696740 255 255 255
0.013717 0.505169 -0.607033 0.000000 -0.717324 -0.696740 255 255 255
0.013717 0.551042 -0.654261 0.000000 -0.717324 -0.696740 255 255 255
0.013717 0.551042 -0.654261 -0.000001 -0.717324 -0.696740 255 255 255
0.013717 0.505169 -0.607033 -0.000001 -0.717324 -0.696740 255 255 255
-0.000000 0.505169 -0.607033 -0.000001 -0.717324 -0.696740 255 255 255
-0.000000 0.551042 -0.654261 -0.000001 -0.717324 -0.696740 255 255 255
-0.034292 0.619917 -0.587363 -0.894427 0.320798 0.311592 255 255 255
-0.034292 0.574044 -0.540134 -0.894427 0.320798 0.311592 255 255 255
-0.027433 0.583883 -0.530577 -0.894427 0.320798 0.311592 255 255 255
-0.027433 0.629757 -0.577806 -0.894427 0.320798 0.311592 255 255 255
-0.027433 0.629757 -0.577806 -0.000001 0.717324 0.696740 255 255 255
-0.027433 0.583883 -0.530577 -0.000001 0.717324 0.696740 255 255 255
-0.013717 0.583883 -0.530577 -0.000001 0.717324 0.696740 255 255 255
-0.013717 0.629757 -0.577806 -0.000001 0.717324 0.696740 255 255 255
-0.013717 0.629757 -0.577806 0.000001 0.717324 0.696740 255 255 255
-0.013717 0.583883 -0.530577 0.000001 0.717324 0.696740 255 255 255
-0.000000 0.583883 -0.530577 0.000001 0.717324 0.696740 255 255 255
-0.000000 0.629757 -0.577806 0.000001 0.717324 0.696740 255 255 255
-0.000000 0.629757 -0.577806 -0.000001 0.717324 0.696740 255 255 255
-0.000000 0.583883 -0.530577 -0.000001 0.717324 0.696740 255 255 255
0.013717 0.583883 -0.530577 -0.000001 0.717324 0.696740 255 255 255
0.013717 0.629757 -0.577806 -0.000001 0.717324 0.696740 255 255 255
-0.000000 0.551042 -0.654261 0.000001 -0.717324 -0.696740 255 255 255
-0.000000 0.505169 -0.607033 0.000001 -0.717324 -0.696740 255 255 255
-0.013717 0.505169 -0.607033 0.000001 -0.717324 -0.696740 255 255 255
-0.013717 0.551042 -0.654261 0.000001 -0.717324 -0.696740 255 255 255
-0.013717 0.551042 -0.654261 0.000000 -0.717324 -0.696740 255 255 255
-0.013717 0.505169 -0.607033 0.000000 -0.717324 -0.696740 255 255 255
-0.027433 0.505169 -0.607033 0.000000 -0.717324 -0.696740 255 255 255
-0.027433 0.551042 -0.654261 0.000000 -0.717324 -0.696740 255 255 255
-0.013717 0.583883 -0.530577 0.000003 0.717324 0.696740 251 216 76
-0.000000 0.034438 0.035100 0.000003 0.717324 0.696740 251 216 76
-0.000000 0.583883 -0.530577 0.000003 0.717324 0.696740 251 216 76
-0.013717 0.039600 0.029786 -0.000000 0.717323 0.696740 251 216 76
-0.012732 0.038646 0.030768 -0.000000 0.717323 0.696740 251 216 76
-0.000000 0.034438 0.035100 -0.000000 0.717323 0.696740 251 216 76
-0.013717 0.583883 -0.530577 -0.000000 0.717324 0.696740 251 216 76
-0.013717 0.039600 0.029786 -0.000000 0.717324 0.696740 251 216 76
-0.000000 0.034438 0.035100 -0.000000 0.717324 0.696740 251 216 76
0.027433 0.505169 -0.607033 0.000000 -0.717324 -0.696740 251 216 76
0.027433 -0.025823 -0.060354 0.000000 -0.717324 -0.696740 251 216 76
0.013717 -0.039114 -0.046670 0.000000 -0.717324 -0.696740 251 216 76
0.013717 0.505169 -0.607033 0.000000 -0.717324 -0.696740 251 216 76
0.048008 0.554365 -0.559248 0.894428 0.320797 0.311591 251 216 76
0.048008 0.010083 0.001115 0.894428 0.320797 0.311591 251 216 76
0.054867 0.013534 -0.022126 0.894428 0.320797 0.311591 251 216 76
0.054867 0.544526 -0.568805 0.894428 0.320797 0.311591 251 216 76
-0.041150 0.524847 -0.587919 -0.894427 -0.320797 -0.311592 251 216 76
-0.048008 -0.009596 -0.017999 -0.894427 -0.320797 -0.311592 251 216 76
-0.048008 0.534687 -0.578362 -0.894427 -0.320797 -0.311592 251 216 76
-0.041150 -0.024597 -0.022242 -0.894430 -0.320802 -0.311578 251 216 76
-0.047516 -0.011257 -0.017703 -0.894430 -0.320802 -0.311578 251 216 76
-0.048008 -0.009596 -0.017999 -0.894430 -0.320802 -0.311578 251 216 76
-0.041150 -0.024597 -0.022242 -0.894427 -0.320797 -0.311592 251 216 76
-0.048008 0.554365 -0.559248 -0.894427 0.320798 0.311592 251 216 76
-0.041150 0.014760 0.015986 -0.894427 0.320798 0.311592 251 216 76
-0.041150 0.564205 -0.549691 -0.894427 0.320798 0.311592 251 216 76
-0.048008 0.010083 0.001115 -0.894426 0.320803 0.311589 251 216 76
-0.047516 0.009835 0.002783 -0.894426 0.320803 0.311589 251 216 76
-0.041150 0.014760 0.015986 -0.894426 0.320803 0.311589 251 216 76
-0.048008 0.554365 -0.559248 -0.894427 0.320797 0.311591 251 216 76
-0.048008 0.010083 0.001115 -0.894427 0.320797 0.311591 251 216 76
-0.041150 0.014760 0.015986 -0.894427 0.320797 0.311591 251 216 76
0.054867 0.544526 -0.568805 0.894427 -0.320797 -0.311592 251 216 76
0.054867 0.013534 -0.022126 0.894427 -0.320797 -0.311592 251 216 76
0.048008 -0.009596 -0.017999 0.894427 -0.320797 -0.311592 251 216 76
0.048008 0.534687 -0.578362 0.894427 -0.320797 -0.311592 251 216 76
0.013717 0.583883 -0.530577 0.000000 0.717324 0.696740 251 216 76
0.013717 0.039600 0.029786 0.000000 0.717324 0.696740 251 216 76
0.027433 0.052891 0.016102 0.000000 0.717324 0.696740 251 216 76
0.027433 0.583883 -0.530577 0.000000 0.717324 0.696740 251 216 76
-0.000000 0.505169 -0.607033 0.000003 -0.717324 -0.696740 251 216 76
-0.013717 -0.039114 -0.046670 0.000003 -0.717324 -0.696740 251 216 76
-0.013717 0.505169 -0.607033 0.000003 -0.717324 -0.696740 251 216 76
0.000000 -0.044276 -0.041356 -0.000001 -0.717325 -0.696738 251 216 76
-0.012732 -0.040068 -0.045688 -0.000001 -0.717325 -0.696738 251 216 76
-0.013717 -0.039114 -0.046670 -0.000001 -0.717325 -0.696738 251 216 76
-0.000000 0.505169 -0.607033 -0.000000 -0.717324 -0.696740 251 216 76
0.000000 -0.044276 -0.041356 -0.000000 -0.717324 -0.696740 251 216 76
-0.013717 -0.039114 -0.046670 -0.000000 -0.717324 -0.696740 251 216 76
-0.034292 0.515008 -0.597476 -0.894428 -0.320796 -0.311591 251 216 76
-0.041150 -0.024597 -0.022242 -0.894428 -0.320796 -0.311591 251 216 76
-0.041150 0.524847 -0.587919 -0.894428 -0.320796 -0.311591 251 216 76
-0.034292 -0.029275 -0.037113 -0.894429 -0.320788 -0.311595 251 216 76
-0.034784 -0.029522 -0.035445 -0.894429 -0.320788 -0.311595 251 216 76
-0.041150 -0.024597 -0.022242 -0.894429 -0.320788 -0.311595 251 216 76
-0.034292 0.515008 -0.597476 -0.894427 -0.320797 -0.311592 251 216 76
-0.034292 -0.029275 -0.037113 -0.894427 -0.320797 -0.311592 251 216 76
-0.034292 0.574044 -0.540134 -0.894427 0.320798 0.311592 251 216 76
-0.034292 0.029761 0.020229 -0.894427 0.320798 0.311592 251 216 76
-0.027433 0.052891 0.016102 -0.894427 0.320798 0.311592 251 216 76
-0.027433 0.583883 -0.530577 -0.894427 0.320798 0.311592 251 216 76
0.041150 0.524847 -0.587919 0.894428 -0.320796 -0.311590 251 216 76
0.034292 -0.029275 -0.037113 0.894428 -0.320796 -0.311590 251 216 76
0.034292 0.515008 -0.597476 0.894428 -0.320796 -0.311590 251 216 76
0.041150 -0.024597 -0.022242 0.894426 -0.320801 -0.311590 251 216 76
0.034784 -0.029523 -0.035445 0.894426 -0.320801 -0.311590 251 216 76
0.034292 -0.029275 -0.037113 0.894426 -0.320801 -0.311590 251 216 76
0.041150 0.524847 -0.587919 0.894427 -0.320797 -0.311592 251 216 76
0.041150 -0.024597 -0.022242 0.894427 -0.320797 -0.311592 251 216 76
0.034292 -0.029275 -0.037113 0.894427 -0.320797 -0.311592 251 216 76
0.013717 0.505169 -0.607033 -0.000006 -0.717324 -0.696740 251 216 76
0.000000 -0.044276 -0.041356 -0.000006 -0.717324 -0.696740 251 216 76
-0.000000 0.505169 -0.607033 -0.000006 -0.717324 -0.696740 251 216 76
0.013717 -0.039114 -0.046670 -0.000004 -0.717319 -0.696745 251 216 76
0.012732 -0.040068 -0.045688 -0.000004 -0.717319 -0.696745 251 216 76
0.000000 -0.044276 -0.041356 -0.000004 -0.717319 -0.696745 251 216 76
-0.048008 0.534687 -0.578362 -0.894427 -0.320798 -0.311592 251 216 76
-0.048008 -0.009596 -0.017999 -0.894427 -0.320798 -0.311592 251 216 76
-0.054867 0.013534 -0.022126 -0.894427 -0.320798 -0.311592 251 216 76
-0.054867 0.544526 -0.568805 -0.894427 -0.320798 -0.311592 251 216 76
0.027433 0.583883 -0.530577 0.894427 0.320798 0.311592 251 216 76
0.027433 0.052891 0.016102 0.894427 0.320798 0.311592 251 216 76
0.034292 0.029761 0.020229 0.894427 0.320798 0.311592 251 216 76
0.034292 0.574044 -0.540134 0.894427 0.320798 0.311592 251 216 76
0.048008 -0.009596 -0.017999 0.894428 -0.320798 -0.311587 251 216 76
0.047516 -0.011257 -0.017703 0.894428 -0.320798 -0.311587 251 216 76
0.041150 -0.024597 -0.022242 0.894428 -0.320798 -0.311587 251 216 76
0.048008 0.534687 -0.578362 0.894427 -0.320797 -0.311591 251 216 76
0.048008 -0.009596 -0.017999 0.894427 -0.320797 -0.311591 251 216 76
0.041150 -0.024597 -0.022242 0.894427 -0.320797 -0.311591 251 216 76
-0.013717 0.505169 -0.607033 0.000000 -0.717324 -0.696740 251 216 76
-0.027433 -0.025823 -0.060354 0.000000 -0.717324 -0.696740 251 216 76
-0.027433 0.505169 -0.607033 0.000000 -0.717324 -0.696740 251 216 76
-0.027433 0.583883 -0.530577 -0.000003 0.717324 0.696740 251 216 76
-0.027433 0.052891 0.016102 -0.000003 0.717324 0.696740 251 216 76
-0.013717 0.039600 0.029786 -0.000003 0.717324 0.696740 251 216 76
-0.013717 0.583883 -0.530577 -0.000003 0.717324 0.696740 251 216 76
0.041150 0.564205 -0.549691 0.894428 0.320796 0.311591 251 216 76
0.048008 0.010083 0.001115 0.894428 0.320796 0.311591 251 216 76
0.048008 0.554365 -0.559248 0.894428 0.320796 0.311591 251 216 76
0.041150 0.014760 0.015986 0.894428 0.320793 0.311593 251 216 76
0.047516 0.009835 0.002783 0.894428 0.320793 0.311593 251 216 76
0.048008 0.010083 0.001115 0.894428 0.320793 0.311593 251 216 76
0.041150 0.564205 -0.549691 0.894427 0.320797 0.311591 251 216 76
0.041150 0.014760 0.015986 0.894427 0.320797 0.311591 251 216 76
0.048008 0.010083 0.001115 0.894427 0.320797 0.311591 251 216 76
0.034292 0.515008 -0.597476 0.894427 -0.320797 -0.311591 251 216 76
0.034292 -0.029275 -0.037113 0.894427 -0.320797 -0.311591 251 216 76
0.027433 -0.025823 -0.060354 0.894427 -0.320797 -0.311591 251 216 76
0.027433 0.505169 -0.607033 0.894427 -0.320797 -0.311591 251 216 76
-0.054867 0.544526 -0.568805 -0.894428 0.320796 0.311591 251 216 76
-0.054867 0.013534 -0.022126 -0.894428 0.320796 0.311591 251 216 76
-0.048008 0.010083 0.001115 -0.894428 0.320796 0.311591 251 216 76
-0.048008 0.554365 -0.559248 -0.894428 0.320796 0.311591 251 216 76
-0.000000 0.583883 -0.530577 -0.000003 0.717324 0.696740 251 216 76
0.013717 0.039600 0.029786 -0.000003 0.717324 0.696740 251 216 76
0.013717 0.583883 -0.530577 -0.000003 0.717324 0.696740 251 216 76
-0.000000 0.034438 0.035100 -0.000004 0.717329 0.696735 251 216 76
0.012732 0.038646 0.030768 -0.000004 0.717329 0.696735 251 216 76
0.013717 0.039600 0.029786 -0.000004 0.717329 0.696735 251 216 76
-0.000000 0.583883 -0.530577 0.000000 0.717324 0.696740 251 216 76
0.041150 0.014760 0.015986 0.894427 0.320798 0.311592 251 216 76
0.041150 0.564205 -0.549691 0.894427 0.320798 0.311592 251 216 76
0.034292 0.029761 0.020229 0.894427 0.320796 0.311594 251 216 76
0.034784 0.028101 0.020525 0.894427 0.320796 0.311594 251 216 76
0.041150 0.014760 0.015986 0.894427 0.320796 0.311594 251 216 76
0.034292 0.574044 -0.540134 0.894427 0.320797 0.311592 251 216 76
0.034292 0.029761 0.020229 0.894427 0.320797 0.311592 251 216 76
0.041150 0.014760 0.015986 0.894427 0.320797 0.311592 251 216 76
-0.027433 0.505169 -0.607033 -0.894427 -0.320797 -0.311591 251 216 76
-0.027433 -0.025823 -0.060354 -0.894427 -0.320797 -0.311591 251 216 76
-0.034292 -0.029275 -0.037113 -0.894427 -0.320797 -0.311591 251 216 76
-0.034292 0.515008 -0.597476 -0.894427 -0.320797 -0.311591 251 216 76
-0.041150 0.564205 -0.549691 -0.894428 0.320795 0.311590 251 216 76
-0.034292 0.029761 0.020229 -0.894428 0.320795 0.311590 251 216 76
-0.034292 0.574044 -0.540134 -0.894428 0.320795 0.311590 251 216 76
-0.041150 0.014760 0.015986 -0.894429 0.320800 0.311584 251 216 76
-0.034784 0.028100 0.020525 -0.894429 0.320800 0.311584 251 216 76
-0.034292 0.029761 0.020229 -0.894429 0.320800 0.311584 251 216 76
-0.041150 0.564205 -0.549691 -0.894427 0.320797 0.311592 251 216 76
-0.041150 0.014760 0.015986 -0.894427 0.320797 0.311592 251 216 76
-0.034292 0.029761 0.020229 -0.894427 0.320797 0.311592 251 216 76
0.034784 -0.029523 -0.035445 0.800155 -0.574785 -0.171392 250 158 109
0.041150 -0.024597 -0.022242 0.800155 -0.574785 -0.171392 250 158 109
0.014417 -0.089305 0.069957 0.800155 -0.574785 -0.171392 250 158 109
0.011771 -0.092161 0.067184 0.800155 -0.574785 -0.171392 250 158 109
0.012732 0.038646 0.030768 0.143272 0.465606 0.873318 250 158 109
-0.000000 0.034438 0.035100 0.143272 0.465606 0.873318 250 158 109
-0.000000 -0.068623 0.090047 0.143272 0.465606 0.873318 250 158 109
0.004309 -0.069092 0.089590 0.143272 0.465606 0.873318 250 158 109
0.027433 -0.025823 -0.060354 0.635242 -0.714349 -0.293554 250 158 109
0.011771 -0.092161 0.067184 0.635242 -0.714349 -0.293554 250 158 109
0.008323 -0.094352 0.065055 0.635242 -0.714349 -0.293554 250 158 109
0.034292 -0.029275 -0.037113 0.635245 -0.714347 -0.293552 250 158 109
0.034784 -0.029523 -0.035445 0.635245 -0.714347 -0.293552 250 158 109
0.011771 -0.092161 0.067184 0.635245 -0.714347 -0.293552 250 158 109
0.027433 -0.025823 -0.060354 0.635241 -0.714349 -0.293554 250 158 109
0.034292 -0.029275 -0.037113 0.635241 -0.714349 -0.293554 250 158 109
0.011771 -0.092161 0.067184 0.635241 -0.714349 -0.293554 250 158 109
-0.047516 -0.011257 -0.017703 -0.906327 -0.421296 -0.032884 250 158 109
-0.041150 -0.024597 -0.022242 -0.906327 -0.421296 -0.032884 250 158 109
-0.014417 -0.089305 0.069957 -0.906327 -0.421296 -0.032884 250 158 109
-0.016080 -0.085980 0.073188 -0.906327 -0.421296 -0.032884 250 158 109
0.027433 0.052891 0.016102 0.412100 0.411589 0.812876 250 158 109
0.004309 -0.069092 0.089590 0.412100 0.411589 0.812876 250 158 109
0.008323 -0.070470 0.088252 0.412100 0.411589 0.812876 250 158 109
0.013717 0.039600 0.029786 0.412096 0.411590 0.812878 250 158 109
0.012732 0.038646 0.030768 0.412096 0.411590 0.812878 250 158 109
0.004309 -0.069092 0.089590 0.412096 0.411590 0.812878 250 158 109
0.027433 0.052891 0.016102 0.412100 0.411589 0.812877 250 158 109
0.013717 0.039600 0.029786 0.412100 0.411589 0.812877 250 158 109
0.004309 -0.069092 0.089590 0.412100 0.411589 0.812877 250 158 109
0.012732 -0.040068 -0.045688 0.412099 -0.824512 -0.387755 250 158 109
0.008323 -0.094352 0.065055 0.412099 -0.824512 -0.387755 250 158 109
0.004309 -0.095730 0.063717 0.412099 -0.824512 -0.387755 250 158 109
0.013717 -0.039114 -0.046670 0.412099 -0.824512 -0.387755 250 158 109
0.027433 -0.025823 -0.060354 0.412099 -0.824512 -0.387755 250 158 109
0.012732 -0.040068 -0.045688 0.412102 -0.824511 -0.387754 250 158 109
0.013717 -0.039114 -0.046670 0.412102 -0.824511 -0.387754 250 158 109
0.008323 -0.094352 0.065055 0.412102 -0.824511 -0.387754 250 158 109
-0.054867 0.013534 -0.022126 -0.957812 -0.263556 0.114604 250 158 109
-0.016080 -0.085980 0.073188 -0.957812 -0.263556 0.114604 250 158 109
-0.016647 -0.082411 0.076654 -0.957812 -0.263556 0.114604 250 158 109
-0.048008 -0.009596 -0.017999 -0.957812 -0.263559 0.114602 250 158 109
-0.047516 -0.011257 -0.017703 -0.957812 -0.263559 0.114602 250 158 109
-0.016080 -0.085980 0.073188 -0.957812 -0.263559 0.114602 250 158 109
-0.054867 0.013534 -0.022126 -0.957812 -0.263555 0.114605 250 158 109
-0.048008 -0.009596 -0.017999 -0.957812 -0.263555 0.114605 250 158 109
-0.016080 -0.085980 0.073188 -0.957812 -0.263555 0.114605 250 158 109
0.034784 0.028101 0.020525 0.635240 0.314222 0.705502 250 158 109
0.008323 -0.070470 0.088252 0.635240 0.314222 0.705502 250 158 109
0.011771 -0.072661 0.086124 0.635240 0.314222 0.705502 250 158 109
0.034292 0.029761 0.020229 0.635240 0.314223 0.705503 250 158 109
0.027433 0.052891 0.016102 0.635240 0.314223 0.705503 250 158 109
0.008323 -0.070470 0.088252 0.635240 0.314223 0.705503 250 158 109
0.034784 0.028101 0.020525 0.635243 0.314221 0.705501 250 158 109
0.034292 0.029761 0.020229 0.635243 0.314221 0.705501 250 158 109
0.008323 -0.070470 0.088252 0.635243 0.314221 0.705501 250 158 109
0.000000 -0.044276 -0.041356 0.143273 -0.886500 -0.439989 250 158 109
0.012732 -0.040068 -0.045688 0.143273 -0.886500 -0.439989 250 158 109
0.004309 -0.095730 0.063717 0.143273 -0.886500 -0.439989 250 158 109
0.000000 -0.096200 0.063261 0.143273 -0.886500 -0.439989 250 158 109
-0.047516 0.009835 0.002783 -0.957812 -0.106885 0.266779 250 158 109
-0.016647 -0.082411 0.076654 -0.957812 -0.106885 0.266779 250 158 109
-0.016080 -0.078842 0.080120 -0.957812 -0.106885 0.266779 250 158 109
-0.048008 0.010083 0.001115 -0.957812 -0.106885 0.266779 250 158 109
-0.054867 0.013534 -0.022126 -0.957812 -0.106885 0.266779 250 158 109
-0.047516 0.009835 0.002783 -0.957812 -0.106884 0.266781 250 158 109
-0.048008 0.010083 0.001115 -0.957812 -0.106884 0.266781 250 158 109
-0.016647 -0.082411 0.076654 -0.957812 -0.106884 0.266781 250 158 109
0.041150 0.014760 0.015986 0.800154 0.188050 0.569553 250 158 109
0.034784 0.028101 0.020525 0.800154 0.188050 0.569553 250 158 109
0.011771 -0.072661 0.086124 0.800154 0.188050 0.569553 250 158 109
0.014417 -0.075517 0.083350 0.800154 0.188050 0.569553 250 158 109
-0.041150 0.014760 0.015986 -0.906327 0.045133 0.420160 250 158 109
-0.047516 0.009835 0.002783 -0.906327 0.045133 0.420160 250 158 109
-0.016080 -0.078842 0.080120 -0.906327 0.045133 0.420160 250 158 109
-0.014417 -0.075517 0.083350 -0.906327 0.045133 0.420160 250 158 109
-0.012732 -0.040068 -0.045688 -0.143273 -0.886500 -0.439989 250 158 109
0.000000 -0.044276 -0.041356 -0.143273 -0.886500 -0.439989 250 158 109
0.000000 -0.096200 0.063261 -0.143273 -0.886500 -0.439989 250 158 109
-0.004309 -0.095730 0.063717 -0.143273 -0.886500 -0.439989 250 158 109
0.047516 0.009835 0.002783 0.906327 0.045133 0.420160 250 158 109
0.041150 0.014760 0.015986 0.906327 0.045133 0.420160 250 158 109
0.014417 -0.075517 0.083350 0.906327 0.045133 0.420160 250 158 109
0.016080 -0.078842 0.080120 0.906327 0.045133 0.420160 250 158 109
-0.027433 0.052891 0.016102 -0.635242 0.314221 0.705501 250 158 109
-0.011771 -0.072661 0.086124 -0.635242 0.314221 0.705501 250 158 109
-0.008323 -0.070470 0.088252 -0.635242 0.314221 0.705501 250 158 109
-0.034292 0.029761 0.020229 -0.635243 0.314221 0.705501 250 158 109
-0.034784 0.028100 0.020525 -0.635243 0.314221 0.705501 250 158 109
-0.011771 -0.072661 0.086124 -0.635243 0.314221 0.705501 250 158 109
-0.027433 0.052891 0.016102 -0.635242 0.314222 0.705502 250 158 109
-0.034292 0.029761 0.020229 -0.635242 0.314222 0.705502 250 158 109
-0.011771 -0.072661 0.086124 -0.635242 0.314222 0.705502 250 158 109
-0.034784 0.028100 0.020525 -0.800155 0.188050 0.569552 250 158 109
-0.041150 0.014760 0.015986 -0.800155 0.188050 0.569552 250 158 109
-0.014417 -0.075517 0.083350 -0.800155 0.188050 0.569552 250 158 109
-0.011771 -0.072661 0.086124 -0.800155 0.188050 0.569552 250 158 109
-0.027433 -0.025823 -0.060354 -0.412098 -0.824513 -0.387755 250 158 109
-0.004309 -0.095730 0.063717 -0.412098 -0.824513 -0.387755 250 158 109
-0.008323 -0.094352 0.065055 -0.412098 -0.824513 -0.387755 250 158 109
-0.013717 -0.039114 -0.046670 -0.412091 -0.824515 -0.387757 250 158 109
-0.012732 -0.040068 -0.045688 -0.412091 -0.824515 -0.387757 250 158 109
-0.004309 -0.095730 0.063717 -0.412091 -0.824515 -0.387757 250 158 109
-0.027433 -0.025823 -0.060354 -0.412100 -0.824512 -0.387754 250 158 109
-0.013717 -0.039114 -0.046670 -0.412100 -0.824512 -0.387754 250 158 109
-0.004309 -0.095730 0.063717 -0.412100 -0.824512 -0.387754 250 158 109
-0.034784 -0.029522 -0.035445 -0.635242 -0.714349 -0.293554 250 158 109
-0.008323 -0.094352 0.065055 -0.635242 -0.714349 -0.293554 250 158 109
-0.011771 -0.092161 0.067184 -0.635242 -0.714349 -0.293554 250 158 109
-0.034292 -0.029275 -0.037113 -0.635241 -0.714349 -0.293554 250 158 109
-0.027433 -0.025823 -0.060354 -0.635241 -0.714349 -0.293554 250 158 109
-0.008323 -0.094352 0.065055 -0.635241 -0.714349 -0.293554 250 158 109
-0.034784 -0.029522 -0.035445 -0.635245 -0.714347 -0.293552 250 158 109
-0.034292 -0.029275 -0.037113 -0.635245 -0.714347 -0.293552 250 158 109
-0.008323 -0.094352 0.065055 -0.635245 -0.714347 -0.293552 250 158 109
-0.041150 -0.024597 -0.022242 -0.800154 -0.574785 -0.171392 250 158 109
-0.034784 -0.029522 -0.035445 -0.800154 -0.574785 -0.171392 250 158 109
-0.011771 -0.092161 0.067184 -0.800154 -0.574785 -0.171392 250 158 109
-0.014417 -0.089305 0.069957 -0.800154 -0.574785 -0.171392 250 158 109
-0.012732 0.038646 0.030768 -0.412100 0.411589 0.812876 250 158 109
-0.008323 -0.070470 0.088252 -0.412100 0.411589 0.812876 250 158 109
-0.004309 -0.069092 0.089590 -0.412100 0.411589 0.812876 250 158 109
-0.013717 0.039600 0.029786 -0.412101 0.411589 0.812876 250 158 109
-0.027433 0.052891 0.016102 -0.412101 0.411589 0.812876 250 158 109
-0.008323 -0.070470 0.088252 -0.412101 0.411589 0.812876 250 158 109
-0.012732 0.038646 0.030768 -0.412090 0.411592 0.812880 250 158 109
-0.013717 0.039600 0.029786 -0.412090 0.411592 0.812880 250 158 109
-0.008323 -0.070470 0.088252 -0.412090 0.411592 0.812880 250 158 109
-0.000000 0.034438 0.035100 -0.143273 0.465606 0.873318 250 158 109
-0.012732 0.038646 0.030768 -0.143273 0.465606 0.873318 250 158 109
-0.004309 -0.069092 0.089590 -0.143273 0.465606 0.873318 250 158 109
-0.000000 -0.068623 0.090047 -0.143273 0.465606 0.873318 250 158 109
0.047516 -0.011257 -0.017703 0.957812 -0.263555 0.114605 250 158 109
0.016647 -0.082411 0.076654 0.957812 -0.263555 0.114605 250 158 109
0.016080 -0.085980 0.073188 0.957812 -0.263555 0.114605 250 158 109
0.048008 -0.009596 -0.017999 0.957812 -0.263555 0.114605 250 158 109
0.054867 0.013534 -0.022126 0.957812 -0.263555 0.114605 250 158 109
0.047516 -0.011257 -0.017703 0.957811 -0.263563 0.114599 250 158 109
0.048008 -0.009596 -0.017999 0.957811 -0.263563 0.114599 250 158 109
0.016647 -0.082411 0.076654 0.957811 -0.263563 0.114599 250 158 109
0.054867 0.013534 -0.022126 0.957812 -0.106885 0.266779 250 158 109
0.016080 -0.078842 0.080120 0.957812 -0.106885 0.266779 250 158 109
0.016647 -0.082411 0.076654 0.957812 -0.106885 0.266779 250 158 109
0.048008 0.010083 0.001115 0.957812 -0.106882 0.266782 250 158 109
0.047516 0.009835 0.002783 0.957812 -0.106882 0.266782 250 158 109
0.016080 -0.078842 0.080120 0.957812 -0.106882 0.266782 250 158 109
0.048008 0.010083 0.001115 0.957812 -0.106885 0.266779 250 158 109
0.041150 -0.024597 -0.022242 0.906327 -0.421295 -0.032884 250 158 109
0.047516 -0.011257 -0.017703 0.906327 -0.421295 -0.032884 250 158 109
0.016080 -0.085980 0.073188 0.906327 -0.421295 -0.032884 250 158 109
0.014417 -0.089305 0.069957 0.906327 -0.421295 -0.032884 250 158 109
3 0 1 2
3 3 4 5
3 6 7 8
3 9 10 11
3 12 13 14
3 15 16 17
3 18 19 20
3 21 22 23
3 24 25 26
3 27 28 29
3 30 31 32
3 33 34 35
3 36 37 38
3 39 40 41
3 42 43 44
3 45 46 47
3 48 49 50
3 51 52 53
3 54 55 56
3 57 58 59
3 60 61 62
3 63 64 65
3 66 67 68
3 69 70 71
4 72 73 74 75
4 76 77 78 79
4 80 81 82 83
4 84 85 86 87
4 88 89 90 91
4 92 93 94 95
4 96 97 98 99
4 100 101 102 103
4 104 105 106 107
4 108 109 110 111
4 112 113 85 84
4 114 115 113 112
4 116 117 118 119
4 120 121 117 116
4 122 123 105 104
4 124 125 126 127
4 128 129 130 131
4 132 133 129 128
4 134 135 136 137
4 138 139 140 141
4 142 143 115 114
4 144 145 146 147
4 148 149 121 120
4 150 151 149 148
3 152 153 154
3 155 156 157
3 158 159 160
3 161 162 163
3 164 165 166
3 167 168 169
3 170 171 172
3 173 174 175
3 176 177 178
3 179 180 181
3 182 155 157
3 182 183 184
3 185 186 187
3 188 189 190
3 191 192 193
3 194 195 196
3 197 198 199
3 200 201 197
3 202 203 204
3 182 205 206
3 200 197 199
3 182 207 205
4 208 209 210 211
4 212 213 214 215
4 216 217 218 219
4 220 221 222 223
4 224 225 226 227
4 228 229 230 231
4 232 233 234 235
4 236 237 238 239
4 240 241 242 243
4 244 245 246 247
4 239 238 248 249
4 250 251 225 224
4 252 253 254 255
4 256 257 258 259
4 260 261 262 263
4 264 265 266 267
4 268 269 270 271
4 272 273 274 275
4 276 277 278 279
4 280 281 282 283
4 284 285 286 287
4 288 289 290 291
4 292 293 294 295
4 296 297 298 299
3 300 301 302
3 303 304 305
3 306 307 308
4 309 310 311 312
4 313 314 315 316
3 317 318 319
3 320 321 322
3 317 323 318
3 324 325 326
3 327 328 329
3 330 331 332
4 333 334 335 336
4 337 338 339 340
3 341 342 343
3 344 345 346
3 347 348 349
3 350 351 352
3 353 354 355
3 356 357 323
4 358 359 360 361
3 362 363 364
3 365 366 367
3 368 369 370
3 371 372 373
3 374 375 376
3 312 311 348
4 377 378 379 380
4 381 382 383 384
3 336 369 368
3 385 386 387
3 388 389 390
4 391 349 392 393
4 394 395 396 397
3 398 399 400
3 401 402 403
3 404 405 406
4 407 408 409 410
4 411 412 413 414
3 415 416 417
3 418 419 420
3 421 308 338
3 384 422 423
3 424 425 426
3 427 428 429
4 430 431 432 433
3 434 435 436
3 437 438 439
3 440 441 442
4 443 444 445 446
4 447 448 449 450
3 451 452 453
3 454 455 456
3 457 458 459
4 460 461 462 463
3 464 465 466
3 467 468 469
3 470 471 472
3 473 474 475
3 476 477 474
3 478 479 480
3 481 482 483
3 484 485 486
3 487 488 489
3 490 491 492
3 493 494 495
3 496 497 498
4 499 500 501 502
3 503 504 505
3 506 507 504
3 508 509 510
4 511 512 513 514
4 515 516 517 518
4 519 520 521 522
4 523 524 525 526
3 527 528 529
3 530 531 532
3 533 534 535
4 536 537 538 539
3 540 541 542
3 543 544 545
3 546 547 548
3 549 550 551
3 552 553 554
3 555 556 557
4 558 559 560 561
3 562 563 564
3 565 566 567
3 568 569 570
4 571 572 573 574
3 575 576 577
3 578 579 576
3 580 581 582
3 583 584 585
3 586 587 588
3 583 589 584
4 590 591 592 593
