ply
format ascii 1.0
comment Created by Blender 2.79 (sub 0) - www.blender.org, source file: 'question_mark.blend'
element vertex 96
property float x
property float y
property float z
property float nx
property float ny
property float nz
property uchar red
property uchar green
property uchar blue
element face 64
property list uchar uint vertex_indices
end_header
-0.064000 0.654511 -0.241091 -1.000000 0.000000 0.000000 255 239 0
-0.064000 0.707143 0.232594 -1.000000 0.000000 0.000000 255 239 0
-0.064000 0.707143 -0.241091 -1.000000 0.000000 0.000000 255 239 0
-0.064000 0.654511 0.232594 -1.000000 0.000000 0.000000 255 239 0
-0.064000 0.496616 -0.293722 -1.000000 0.000000 0.000000 255 239 0
-0.064000 0.654511 -0.293722 -1.000000 0.000000 0.000000 255 239 0
-0.064000 0.549248 -0.135827 -1.000000 0.000000 -0.000000 255 239 0
-0.064000 0.654511 0.285225 -1.000000 0.000000 0.000000 255 239 0
-0.064000 0.549248 0.127331 -1.000000 0.000000 0.000000 255 239 0
-0.064000 0.286090 0.285225 -1.000000 0.000000 0.000000 255 239 0
-0.064000 0.496616 -0.135827 -1.000000 -0.000000 -0.000000 255 239 0
-0.064000 0.391353 0.127331 -1.000000 0.000000 -0.000000 255 239 0
-0.064000 0.338721 -0.030564 -1.000000 0.000000 0.000000 255 239 0
-0.064000 0.391353 -0.030564 -1.000000 0.000000 0.000000 255 239 0
-0.064000 0.180827 -0.083196 -1.000000 0.000000 0.000000 255 239 0
-0.064000 0.338721 -0.083196 -1.000000 0.000000 0.000000 255 239 0
-0.064000 0.286090 0.179962 -1.000000 0.000000 0.000000 255 239 0
-0.064000 0.233458 0.074699 -1.000000 0.000000 -0.000000 255 239 0
-0.064000 0.233458 0.179962 -1.000000 0.000000 0.000000 255 239 0
-0.064000 0.180827 0.074699 -1.000000 -0.000000 -0.000000 255 239 0
-0.064000 -0.082331 -0.083196 -1.000000 0.000000 0.000000 255 239 0
-0.064000 0.075564 0.074699 -1.000000 0.000000 0.000000 255 239 0
-0.064000 0.075564 -0.083196 -1.000000 0.000000 0.000000 255 239 0
-0.064000 -0.082331 0.074699 -1.000000 0.000000 0.000000 255 239 0
0.064000 0.707143 0.232594 1.000000 -0.000000 0.000000 255 239 0
0.064000 0.654511 -0.241091 1.000000 -0.000000 0.000000 255 239 0
0.064000 0.707143 -0.241091 1.000000 -0.000000 0.000000 255 239 0
0.064000 0.654511 0.232594 1.000000 -0.000000 0.000000 255 239 0
0.064000 0.496616 -0.293722 1.000000 -0.000000 0.000000 255 239 0
0.064000 0.654511 -0.293722 1.000000 -0.000000 0.000000 255 239 0
0.064000 0.549248 -0.135827 1.000000 -0.000000 0.000000 255 239 0
0.064000 0.654511 0.285225 1.000000 -0.000000 0.000000 255 239 0
0.064000 0.549248 0.127331 1.000000 -0.000000 0.000000 255 239 0
0.064000 0.286090 0.285225 1.000000 -0.000000 -0.000000 255 239 0
0.064000 0.496616 -0.135827 1.000000 0.000000 -0.000000 255 239 0
0.064000 0.391353 0.127331 1.000000 -0.000000 0.000000 255 239 0
0.064000 0.338721 -0.030564 1.000000 -0.000000 0.000000 255 239 0
0.064000 0.391353 -0.030564 1.000000 -0.000000 0.000000 255 239 0
0.064000 0.180827 -0.083196 1.000000 -0.000000 0.000000 255 239 0
0.064000 0.338721 -0.083196 1.000000 -0.000000 0.000000 255 239 0
0.064000 0.286090 0.179962 1.000000 -0.000000 -0.000000 255 239 0
0.064000 0.233458 0.074699 1.000000 -0.000000 0.000000 255 239 0
0.064000 0.233458 0.179962 1.000000 -0.000000 0.000000 255 239 0
0.064000 0.180827 0.074699 1.000000 0.000000 -0.000000 255 239 0
0.064000 0.075564 0.074699 1.000000 -0.000000 0.000000 255 239 0
0.064000 -0.082331 -0.083196 1.000000 -0.000000 0.000000 255 239 0
0.064000 0.075564 -0.083196 1.000000 -0.000000 0.000000 255 239 0
0.064000 -0.082331 0.074699 1.000000 -0.000000 0.000000 255 239 0
-0.064000 -0.082331 0.074699 0.000000 -0.707083 0.707083 255 239 0
-0.064000 -0.082331 -0.083196 0.000000 -0.707083 -0.707083 255 239 0
0.064000 -0.082331 -0.083196 0.000000 -0.707083 -0.707083 255 239 0
0.064000 -0.082331 0.074699 0.000000 -0.707083 0.707083 255 239 0
-0.064000 0.075564 -0.083196 0.000000 0.707083 -0.707083 255 239 0
0.064000 0.075564 -0.083196 0.000000 0.707083 -0.707083 255 239 0
-0.064000 0.075564 0.074699 0.000000 0.707083 0.707083 255 239 0
0.064000 0.075564 0.074699 0.000000 0.707083 0.707083 255 239 0
-0.064000 0.180827 0.074699 0.000000 -0.707083 0.707083 255 239 0
-0.064000 0.180827 -0.083196 0.000000 -0.707083 -0.707083 255 239 0
0.064000 0.180827 -0.083196 0.000000 -0.707083 -0.707083 255 239 0
0.064000 0.180827 0.074699 0.000000 -0.707083 0.707083 255 239 0
-0.064000 0.338721 -0.083196 0.000000 0.707083 -0.707083 255 239 0
0.064000 0.338721 -0.083196 0.000000 0.707083 -0.707083 255 239 0
-0.064000 0.338721 -0.030564 0.000000 0.707083 -0.707083 255 239 0
0.064000 0.338721 -0.030564 0.000000 0.707083 -0.707083 255 239 0
-0.064000 0.391353 -0.030564 0.000000 0.707083 -0.707083 255 239 0
0.064000 0.391353 -0.030564 0.000000 0.707083 -0.707083 255 239 0
-0.064000 0.391353 0.127331 0.000000 0.707083 -0.707083 255 239 0
0.064000 0.391353 0.127331 0.000000 0.707083 -0.707083 255 239 0
-0.064000 0.549248 0.127331 0.000000 -0.707083 -0.707083 255 239 0
0.064000 0.549248 0.127331 0.000000 -0.707083 -0.707083 255 239 0
-0.064000 0.549248 -0.135827 0.000000 -0.707083 0.707083 255 239 0
0.064000 0.549248 -0.135827 0.000000 -0.707083 0.707083 255 239 0
-0.064000 0.496616 -0.135827 0.000000 -0.707083 0.707083 255 239 0
0.064000 0.496616 -0.135827 0.000000 -0.707083 0.707083 255 239 0
-0.064000 0.496616 -0.293722 0.000000 -0.707083 -0.707083 255 239 0
0.064000 0.496616 -0.293722 0.000000 -0.707083 -0.707083 255 239 0
-0.064000 0.654511 -0.293722 0.000000 0.707083 -0.707083 255 239 0
0.064000 0.654511 -0.293722 0.000000 0.707083 -0.707083 255 239 0
-0.064000 0.654511 -0.241091 0.000000 0.707083 -0.707083 255 239 0
0.064000 0.654511 -0.241091 0.000000 0.707083 -0.707083 255 239 0
-0.064000 0.707143 -0.241091 0.000000 0.707083 -0.707083 255 239 0
0.064000 0.707143 -0.241091 0.000000 0.707083 -0.707083 255 239 0
-0.064000 0.707143 0.232594 0.000000 0.707083 0.707083 255 239 0
0.064000 0.707143 0.232594 0.000000 0.707083 0.707083 255 239 0
-0.064000 0.654511 0.232594 0.000000 0.707083 0.707083 255 239 0
0.064000 0.654511 0.232594 0.000000 0.707083 0.707083 255 239 0
-0.064000 0.654511 0.285225 0.000000 0.707083 0.707083 255 239 0
0.064000 0.654511 0.285225 0.000000 0.707083 0.707083 255 239 0
-0.064000 0.286090 0.285225 0.000000 -0.707083 0.707083 255 239 0
0.064000 0.286090 0.285225 0.000000 -0.707083 0.707083 255 239 0
-0.064000 0.286090 0.179962 0.000000 -0.707083 0.707083 255 239 0
0.064000 0.286090 0.179962 0.000000 -0.707083 0.707083 255 239 0
-0.064000 0.233458 0.179962 0.000000 -0.707083 0.707083 255 239 0
0.064000 0.233458 0.179962 0.000000 -0.707083 0.707083 255 239 0
-0.064000 0.233458 0.074699 0.000000 -0.707083 0.707083 255 239 0
0.064000 0.233458 0.074699 0.000000 -0.707083 0.707083 255 239 0
3 0 1 2
3 0 3 1
3 4 0 5
3 4 6 0
3 6 3 0
3 6 7 3
3 6 8 7
3 8 9 7
3 4 10 6
3 11 9 8
3 12 11 13
3 12 9 11
3 14 12 15
3 14 16 12
3 16 9 12
3 14 17 16
3 17 18 16
3 14 19 17
3 20 21 22
3 20 23 21
3 24 25 26
3 27 25 24
3 25 28 29
3 30 28 25
3 27 30 25
3 31 30 27
3 32 30 31
3 33 32 31
3 34 28 30
3 33 35 32
3 35 36 37
3 33 36 35
3 36 38 39
3 40 38 36
3 33 40 36
3 41 38 40
3 42 41 40
3 43 38 41
3 44 45 46
3 47 45 44
4 48 49 50 51
4 49 52 53 50
4 52 54 55 53
4 54 48 51 55
4 56 57 58 59
4 57 60 61 58
4 60 62 63 61
4 62 64 65 63
4 64 66 67 65
4 66 68 69 67
4 68 70 71 69
4 70 72 73 71
4 72 74 75 73
4 74 76 77 75
4 76 78 79 77
4 78 80 81 79
4 80 82 83 81
4 82 84 85 83
4 84 86 87 85
4 86 88 89 87
4 88 90 91 89
4 90 92 93 91
4 92 94 95 93
4 94 56 59 95
