ply
format ascii 1.0
comment Created by Blender 2.73 (sub 0) - www.blender.org, source file: ''
element vertex 133
property float x
property float y
property float z
property float nx
property float ny
property float nz
property uchar red
property uchar green
property uchar blue
element face 46
property list uchar uint vertex_indices
end_header
-0.063830 -0.045648 -1.000000 0.000000 0.000000 -1.000000 255 255 255
-0.063830 -1.000000 -1.000000 0.000000 0.000000 -1.000000 255 255 255
-1.000000 -1.000000 -1.000000 0.000000 0.000000 -1.000000 255 255 255
-1.000000 -0.045647 -1.000000 0.000000 0.000000 -1.000000 255 255 255
-0.063830 -1.000000 1.000000 1.000000 -0.000000 0.000000 102 104 107
-0.063830 -0.045648 1.000000 1.000000 -0.000000 0.000000 167 168 170
-0.063830 -0.045648 1.049946 1.000000 -0.000000 0.000000 255 255 255
-0.063830 -1.000000 1.049946 1.000000 -0.000000 0.000000 255 255 255
1.000000 -0.045648 -1.000000 1.000000 -0.000000 0.000000 255 255 255
1.000000 -0.045648 1.000000 1.000000 -0.000000 0.000000 106 108 111
0.999999 -1.000001 1.000000 1.000000 -0.000000 0.000000 161 161 161
1.000000 -1.000000 -1.000000 1.000000 -0.000000 0.000000 255 255 255
-0.063830 -1.000000 -1.000000 -0.000000 -1.000000 -0.000000 255 255 255
-0.063830 -1.000000 1.000000 -0.000000 -1.000000 -0.000000 102 104 107
-1.000000 -1.000000 1.000000 -0.000000 -1.000000 -0.000000 255 255 255
-1.000000 -1.000000 -1.000000 -0.000000 -1.000000 -0.000000 255 255 255
-1.000000 0.055248 -1.000000 -1.000000 0.000000 -0.000000 255 255 255
-1.000000 0.055248 1.000000 -1.000000 0.000000 -0.000000 102 104 107
-1.000000 1.000000 1.000000 -1.000000 0.000000 -0.000000 255 255 255
-1.000000 1.000000 -1.000000 -1.000000 0.000000 -0.000000 255 255 255
-0.063830 1.000000 1.000000 0.000000 1.000000 0.000000 102 104 107
-0.063830 1.000000 -1.000000 0.000000 1.000000 0.000000 255 255 255
-1.000000 1.000000 -1.000000 0.000000 1.000000 0.000000 255 255 255
-1.000000 1.000000 1.000000 0.000000 1.000000 0.000000 255 255 255
-1.000000 -1.000000 -1.000000 -1.000000 0.000000 -0.000000 255 255 255
-1.000000 -1.000000 1.000000 -1.000000 0.000000 -0.000000 255 255 255
-1.000000 -0.045648 1.000000 -1.000000 0.000000 -0.000000 102 104 107
-1.000000 -0.045647 -1.000000 -1.000000 0.000000 -0.000000 255 255 255
1.000000 0.055248 -1.000000 1.000000 -0.000000 0.000000 255 255 255
1.000000 0.055248 1.000000 1.000000 -0.000000 0.000000 102 104 107
-0.063830 0.055248 1.000000 0.000000 -0.000000 1.000000 104 106 109
-1.000000 0.055248 1.000000 0.000000 -0.000000 1.000000 102 104 107
-1.000000 -0.045648 1.000000 0.000000 -0.000000 1.000000 102 104 107
-0.063830 -0.045648 1.000000 0.000000 -0.000000 1.000000 104 106 109
-0.063830 0.055248 -1.000000 0.000000 0.000000 -1.000000 255 255 255
-1.000000 0.055248 -1.000000 0.000000 0.000000 -1.000000 255 255 255
-0.063830 1.000000 -1.000000 0.000000 0.000000 -1.000000 255 255 255
-1.000000 1.000000 -1.000000 0.000000 0.000000 -1.000000 255 255 255
-0.063830 0.055248 1.000000 1.000000 -0.000000 0.000000 113 115 118
-0.063830 1.000000 1.000000 1.000000 -0.000000 0.000000 102 104 107
-0.063830 1.000000 1.025323 1.000000 -0.000000 0.000000 255 255 255
-0.063830 0.055248 1.025323 1.000000 -0.000000 0.000000 255 255 255
1.000000 1.000000 -1.000000 1.000000 -0.000000 -0.000000 255 255 255
1.000000 0.999999 1.000000 1.000000 -0.000000 -0.000000 161 161 161
0.045593 1.000000 1.000000 0.000000 -0.000000 1.000000 102 104 107
-0.063830 1.000000 1.000000 0.000000 -0.000000 1.000000 102 104 107
0.045593 0.055248 1.000000 0.000000 -0.000000 1.000000 103 105 108
0.045593 1.000000 -1.000000 0.000000 0.000000 -1.000000 255 255 255
0.045593 0.055248 -1.000000 0.000000 0.000000 -1.000000 255 255 255
0.045593 -0.045648 -1.000000 0.000000 0.000000 -1.000000 255 255 255
0.045593 0.055248 1.000000 0.000000 -0.000000 1.000000 102 104 107
0.045593 -0.045648 1.000000 0.000000 -0.000000 1.000000 102 104 107
0.045593 1.000000 1.000000 0.000000 1.000000 0.000000 102 104 107
0.045593 1.000000 -1.000000 0.000000 1.000000 0.000000 255 255 255
0.045593 -1.000000 -1.000000 0.000000 -1.000000 -0.000000 255 255 255
0.045592 -1.000000 1.000000 0.000000 -1.000000 -0.000000 116 118 121
-0.063830 -0.045648 1.000000 0.000000 -0.000000 1.000000 105 107 110
-0.063830 -1.000000 1.000000 0.000000 -0.000000 1.000000 102 104 107
0.045592 -1.000000 1.000000 0.000000 -0.000000 1.000000 107 109 112
0.045593 -1.000000 -1.000000 0.000000 0.000000 -1.000000 255 255 255
1.000000 -0.045648 -1.000000 0.000000 0.000000 -1.000000 255 255 255
1.000000 -1.000000 -1.000000 0.000000 0.000000 -1.000000 255 255 255
0.045593 -0.045648 1.000000 -1.000000 0.000000 0.000000 102 104 107
0.045592 -1.000000 1.000000 -1.000000 0.000000 0.000000 125 126 129
0.045592 -1.000000 1.031188 -1.000000 0.000000 0.000000 255 255 255
0.045593 -0.045648 1.031188 -1.000000 0.000000 0.000000 255 255 255
1.000000 -1.000000 -1.000000 -0.000000 -1.000000 -0.000000 255 255 255
0.999999 -1.000001 1.000000 -0.000000 -1.000000 -0.000000 255 255 255
0.045592 -1.000000 1.000000 -0.000000 -1.000000 -0.000000 115 116 119
1.000000 0.999999 1.000000 0.000000 1.000000 0.000000 255 255 255
1.000000 1.000000 -1.000000 0.000000 1.000000 0.000000 255 255 255
1.000000 0.055248 1.000000 0.000000 -0.000000 1.000000 102 104 107
1.000000 -0.045648 1.000000 0.000000 -0.000000 1.000000 106 108 111
1.000000 0.055248 -1.000000 0.000000 0.000000 -1.000000 255 255 255
1.000000 1.000000 -1.000000 0.000000 0.000000 -1.000000 255 255 255
0.045593 1.000000 1.000000 -1.000000 0.000000 0.000000 102 104 107
0.045593 0.055248 1.000000 -1.000000 0.000000 0.000000 103 105 108
0.045593 0.055248 1.091094 -1.000000 0.000000 0.000000 161 161 161
0.045593 1.000000 1.091094 -1.000000 0.000000 0.000000 182 182 182
1.000000 -0.045648 1.031188 0.000000 -0.000000 1.000000 161 161 161
0.045593 -0.045648 1.031188 0.000000 -0.000000 1.000000 161 161 161
0.045592 -1.000000 1.031188 0.000000 -0.000000 1.000000 161 161 161
0.999999 -1.000001 1.031188 0.000000 -0.000000 1.000000 164 164 164
0.999999 -1.000001 1.031188 -0.000000 -1.000000 0.000000 255 255 255
0.045592 -1.000000 1.031188 -0.000000 -1.000000 0.000000 255 255 255
1.000000 -0.045648 1.000000 0.000000 1.000000 0.000000 127 129 130
0.045593 -0.045648 1.000000 0.000000 1.000000 0.000000 102 104 107
0.045593 -0.045648 1.031188 0.000000 1.000000 0.000000 161 161 161
1.000000 -0.045648 1.031188 0.000000 1.000000 0.000000 161 161 161
0.999999 -1.000001 1.000000 1.000000 -0.000001 0.000000 161 161 161
1.000000 -0.045648 1.000000 1.000000 -0.000001 0.000000 106 108 111
1.000000 -0.045648 1.031188 1.000000 -0.000001 0.000000 161 161 161
0.999999 -1.000001 1.031188 1.000000 -0.000001 0.000000 161 161 161
1.000000 0.999999 1.091094 0.000000 -0.000000 1.000000 164 164 164
0.045593 1.000000 1.091094 0.000000 -0.000000 1.000000 182 182 182
0.045593 0.055248 1.091094 0.000000 -0.000000 1.000000 161 161 161
1.000000 0.055248 1.091094 0.000000 -0.000000 1.000000 161 161 161
0.045593 1.000000 1.091094 0.000000 1.000000 0.000000 255 255 255
1.000000 0.999999 1.091094 0.000000 1.000000 0.000000 255 255 255
0.045593 0.055248 1.000000 -0.000000 -1.000000 0.000000 126 126 129
1.000000 0.055248 1.000000 -0.000000 -1.000000 0.000000 102 104 107
1.000000 0.055248 1.091094 -0.000000 -1.000000 0.000000 161 161 161
0.045593 0.055248 1.091094 -0.000000 -1.000000 0.000000 255 255 255
1.000000 0.055248 1.000000 1.000000 -0.000001 0.000000 102 104 107
1.000000 0.999999 1.000000 1.000000 -0.000001 0.000000 161 161 161
1.000000 0.999999 1.091094 1.000000 -0.000001 0.000000 161 161 161
1.000000 0.055248 1.091094 1.000000 -0.000001 0.000000 161 161 161
-0.063830 1.000000 1.025323 0.000000 -0.000000 1.000000 161 161 161
-1.000000 1.000000 1.025323 0.000000 -0.000000 1.000000 161 161 161
-1.000000 0.055248 1.025323 0.000000 -0.000000 1.000000 162 162 162
-0.063830 0.055248 1.025323 0.000000 -0.000000 1.000000 161 161 161
-1.000000 0.055248 1.000000 -0.000000 -1.000000 0.000000 102 104 107
-0.063830 0.055248 1.000000 -0.000000 -1.000000 0.000000 113 115 118
-0.063830 0.055248 1.025323 -0.000000 -1.000000 0.000000 255 255 255
-1.000000 0.055248 1.025323 -0.000000 -1.000000 0.000000 255 255 255
-1.000000 0.055248 1.025323 -1.000000 0.000000 0.000000 255 255 255
-1.000000 1.000000 1.025323 -1.000000 0.000000 0.000000 255 255 255
-1.000000 1.000000 1.025323 0.000000 1.000000 0.000000 255 255 255
-0.063830 1.000000 1.025323 0.000000 1.000000 0.000000 255 255 255
-0.063830 -0.045648 1.049946 0.000000 -0.000000 1.000000 161 161 161
-1.000000 -0.045648 1.049946 0.000000 -0.000000 1.000000 161 161 161
-1.000000 -1.000000 1.049946 0.000000 -0.000000 1.000000 161 161 161
-0.063830 -1.000000 1.049946 0.000000 -0.000000 1.000000 162 162 162
-0.063830 -0.045648 1.000000 0.000000 1.000000 0.000000 104 106 109
-1.000000 -0.045648 1.000000 0.000000 1.000000 0.000000 161 161 161
-1.000000 -0.045648 1.049946 0.000000 1.000000 0.000000 161 161 161
-0.063830 -0.045648 1.049946 0.000000 1.000000 0.000000 161 161 161
-1.000000 -1.000000 1.049946 -1.000000 0.000000 0.000000 255 255 255
-1.000000 -0.045648 1.049946 -1.000000 0.000000 0.000000 255 255 255
-1.000000 -1.000000 1.000000 -0.000001 -1.000000 0.000000 255 255 255
-0.063830 -1.000000 1.000000 -0.000001 -1.000000 0.000000 102 104 107
-0.063830 -1.000000 1.049946 -0.000001 -1.000000 0.000000 255 255 255
-1.000000 -1.000000 1.049946 -0.000001 -1.000000 0.000000 255 255 255
4 0 1 2 3
4 4 5 6 7
4 8 9 10 11
4 12 13 14 15
4 16 17 18 19
4 20 21 22 23
4 24 25 26 27
4 28 29 9 8
4 30 31 32 33
4 34 0 3 35
4 36 34 35 37
4 38 39 40 41
4 42 43 29 28
4 27 26 17 16
4 44 45 30 46
4 47 48 34 36
4 48 49 0 34
4 50 30 33 51
4 52 53 21 20
4 54 55 13 12
4 51 56 57 58
4 49 59 1 0
4 60 61 59 49
4 62 63 64 65
4 66 67 68 54
4 69 70 53 52
4 71 46 51 72
4 73 60 49 48
4 74 73 48 47
4 75 76 77 78
4 79 80 81 82
4 68 67 83 84
4 85 86 87 88
4 89 90 91 92
4 93 94 95 96
4 69 52 97 98
4 99 100 101 102
4 103 104 105 106
4 107 108 109 110
4 111 112 113 114
4 18 17 115 116
4 20 23 117 118
4 119 120 121 122
4 123 124 125 126
4 26 25 127 128
4 129 130 131 132
