ply
format ascii 1.0
comment Created by Blender 2.73 (sub 0) - www.blender.org, source file: ''
element vertex 139
property float x
property float y
property float z
property float nx
property float ny
property float nz
property uchar red
property uchar green
property uchar blue
element face 46
property list uchar uint vertex_indices
end_header
-0.045648 -1.000000 -0.063830 0.000000 -1.000000 0.000000 165 155 140
-1.000000 -1.000000 -0.063830 0.000000 -1.000000 0.000000 165 155 140
-1.000000 -1.000000 -1.000000 0.000000 -1.000000 0.000000 165 155 140
-0.045647 -1.000000 -1.000000 0.000000 -1.000000 0.000000 165 155 140
-1.000000 1.000000 -0.063830 0.000000 0.000000 1.000000 165 155 140
-0.045648 1.000000 -0.063830 0.000000 0.000000 1.000000 165 155 140
-0.045648 1.049946 -0.063830 0.000000 0.000000 1.000000 165 155 140
-1.000000 1.049946 -0.063830 0.000000 0.000000 1.000000 165 155 140
-0.045648 -1.000000 1.000000 -0.000001 0.000000 1.000000 165 155 140
-0.045648 1.000000 1.000000 -0.000001 0.000000 1.000000 165 155 140
-1.000001 1.000000 0.999999 -0.000001 0.000000 1.000000 165 155 140
-1.000000 -1.000000 1.000000 -0.000001 0.000000 1.000000 165 155 140
-1.000000 -1.000000 -0.063830 -1.000000 0.000000 0.000000 165 155 140
-1.000000 1.000000 -0.063830 -1.000000 0.000000 0.000000 165 155 140
-1.000000 1.000000 -1.000000 -1.000000 0.000000 0.000000 165 155 140
-1.000000 -1.000000 -1.000000 -1.000000 0.000000 0.000000 165 155 140
0.055248 -1.000000 -1.000000 -0.000000 0.000000 -1.000000 165 155 140
0.055248 1.000000 -1.000000 -0.000000 0.000000 -1.000000 165 155 140
1.000000 1.000000 -1.000000 -0.000000 0.000000 -1.000000 165 155 140
1.000000 -1.000000 -1.000000 -0.000000 0.000000 -1.000000 165 155 140
1.000000 1.000000 -0.063830 1.000000 0.000000 -0.000000 165 155 140
1.000000 -1.000000 -0.063830 1.000000 0.000000 -0.000000 165 155 140
1.000000 -1.000000 -1.000000 1.000000 0.000000 -0.000000 170 161 147
1.000000 1.000000 -1.000000 1.000000 0.000000 -0.000000 165 155 140
-1.000000 -1.000000 -1.000000 -0.000000 0.000000 -1.000000 165 155 140
-1.000000 1.000000 -1.000000 -0.000000 0.000000 -1.000000 165 155 140
-0.045648 1.000000 -1.000000 -0.000000 0.000000 -1.000000 165 155 140
-0.045647 -1.000000 -1.000000 -0.000000 0.000000 -1.000000 165 155 140
0.055248 -1.000000 1.000000 -0.000000 0.000000 1.000000 165 155 140
0.055248 1.000000 1.000000 -0.000000 0.000000 1.000000 165 155 140
-0.045648 1.000000 1.000000 -0.000000 0.000000 1.000000 165 155 140
-0.045648 -1.000000 1.000000 -0.000000 0.000000 1.000000 165 155 140
0.055248 1.000000 -0.063830 -0.000000 1.000000 0.000000 165 155 140
0.055248 1.000000 -1.000000 -0.000000 1.000000 0.000000 165 155 140
-0.045648 1.000000 -1.000000 -0.000000 1.000000 0.000000 165 155 140
-0.045648 1.000000 -0.063830 -0.000000 1.000000 0.000000 165 155 140
0.055248 -1.000000 -0.063830 0.000000 -1.000000 0.000000 165 155 140
0.055248 -1.000000 -1.000000 0.000000 -1.000000 0.000000 165 155 140
1.000000 -1.000000 -0.063830 0.000000 -1.000000 0.000000 166 156 141
1.000000 -1.000000 -1.000000 0.000000 -1.000000 0.000000 168 158 143
0.055248 1.000000 -0.063830 0.000000 0.000000 1.000000 165 155 140
1.000000 1.000000 -0.063830 0.000000 0.000000 1.000000 165 155 140
1.000000 1.025323 -0.063830 0.000000 0.000000 1.000000 165 155 140
0.055248 1.025323 -0.063830 0.000000 0.000000 1.000000 165 155 140
1.000000 -1.000000 1.000000 -0.000000 0.000000 1.000000 165 155 140
0.999999 1.000000 1.000000 -0.000000 0.000000 1.000000 165 155 140
1.000000 1.000000 0.045593 -0.000000 1.000000 0.000000 165 155 140
1.000000 1.000000 -0.063830 -0.000000 1.000000 0.000000 165 155 140
0.055248 1.000000 0.045593 -0.000000 1.000000 0.000000 165 155 140
1.000000 -1.000000 0.045593 0.000000 -1.000000 0.000000 165 155 140
0.055248 -1.000000 0.045593 0.000000 -1.000000 0.000000 165 155 140
-0.045648 -1.000000 0.045593 0.000000 -1.000000 -0.000000 165 155 140
0.055248 1.000000 0.045593 -0.000000 1.000000 0.000000 165 155 140
-0.045648 1.000000 0.045593 -0.000000 1.000000 0.000000 165 155 140
1.000000 1.000000 0.045593 1.000000 0.000000 -0.000000 165 155 140
1.000000 -1.000000 0.045593 1.000000 0.000000 -0.000000 165 155 140
-1.000000 -1.000000 0.045593 -1.000000 0.000000 0.000000 165 155 140
-1.000000 1.000000 0.045592 -1.000000 0.000000 0.000000 165 155 140
-0.045648 1.000000 -0.063830 -0.000000 1.000000 0.000000 165 155 140
-1.000000 1.000000 -0.063830 -0.000000 1.000000 0.000000 165 155 140
-1.000000 1.000000 0.045592 -0.000000 1.000000 0.000000 165 155 140
-1.000000 -1.000000 0.045593 0.000000 -1.000000 -0.000000 165 155 140
-0.045648 -1.000000 1.000000 0.000000 -1.000000 0.000000 165 155 140
-1.000000 -1.000000 1.000000 0.000000 -1.000000 0.000000 165 155 140
-0.045648 1.000000 0.045593 0.000001 0.000000 -1.000000 165 155 140
-1.000000 1.000000 0.045592 0.000001 0.000000 -1.000000 165 155 140
-1.000000 1.031188 0.045592 0.000001 0.000000 -1.000000 165 155 140
-0.045648 1.031188 0.045593 0.000001 0.000000 -1.000000 165 155 140
-1.000000 -1.000000 1.000000 -1.000000 -0.000000 -0.000000 165 155 140
-1.000001 1.000000 0.999999 -1.000000 -0.000000 -0.000000 165 155 140
-1.000000 1.000000 0.045592 -1.000000 -0.000000 -0.000000 165 155 140
0.999999 1.000000 1.000000 1.000000 0.000000 0.000001 165 155 140
1.000000 -1.000000 1.000000 1.000000 0.000000 0.000001 165 155 140
1.000000 -1.000000 0.045593 1.000000 0.000000 0.000001 165 155 140
1.000000 1.000000 0.045593 1.000000 0.000000 0.000001 165 155 140
0.055248 1.000000 1.000000 -0.000000 1.000000 0.000000 165 155 140
-0.045648 1.000000 1.000000 -0.000000 1.000000 0.000000 165 155 140
0.055248 -1.000000 1.000000 0.000000 -1.000000 0.000000 165 155 140
1.000000 -1.000000 1.000000 0.000000 -1.000000 0.000000 165 155 140
1.000000 1.000000 0.045593 0.000000 -0.000000 -1.000000 165 155 140
0.055248 1.000000 0.045593 0.000000 -0.000000 -1.000000 165 155 140
0.055248 1.091094 0.045593 0.000000 -0.000000 -1.000000 165 155 140
1.000000 1.091094 0.045593 0.000000 -0.000000 -1.000000 165 155 140
-0.045648 1.031188 1.000000 -0.000000 1.000000 0.000000 165 155 140
-0.045648 1.031188 0.045593 -0.000000 1.000000 0.000000 165 155 140
-1.000000 1.031188 0.045592 -0.000000 1.000000 0.000000 165 155 140
-1.000001 1.031188 0.999999 -0.000000 1.000000 0.000000 165 155 140
-1.000000 1.000000 0.045592 -1.000000 0.000000 -0.000001 165 155 140
-1.000001 1.000000 0.999999 -1.000000 0.000000 -0.000001 165 155 140
-1.000001 1.031188 0.999999 -1.000000 0.000000 -0.000001 165 155 140
-1.000000 1.031188 0.045592 -1.000000 0.000000 -0.000001 165 155 140
-0.045648 1.000000 1.000000 1.000000 0.000000 0.000000 165 155 140
-0.045648 1.000000 0.045593 1.000000 0.000000 0.000000 165 155 140
-0.045648 1.031188 0.045593 1.000000 0.000000 0.000000 165 155 140
-0.045648 1.031188 1.000000 1.000000 0.000000 0.000000 165 155 140
-1.000001 1.000000 0.999999 -0.000001 0.000000 1.000000 165 155 140
-0.045648 1.000000 1.000000 -0.000001 0.000000 1.000000 165 155 140
-0.045648 1.031188 1.000000 -0.000001 0.000000 1.000000 165 155 140
-1.000001 1.031188 0.999999 -0.000001 0.000000 1.000000 165 155 140
0.999999 1.091094 1.000000 -0.000000 1.000000 0.000000 165 155 140
1.000000 1.091094 0.045593 -0.000000 1.000000 0.000000 165 155 140
0.055248 1.091094 0.045593 -0.000000 1.000000 0.000000 165 155 140
0.055248 1.091094 1.000000 -0.000000 1.000000 0.000000 165 155 140
1.000000 1.091094 0.045593 1.000000 0.000000 0.000001 165 155 140
0.999999 1.091094 1.000000 1.000000 0.000000 0.000001 165 155 140
0.055248 1.000000 0.045593 -1.000000 -0.000000 0.000000 165 155 140
0.055248 1.000000 1.000000 -1.000000 -0.000000 0.000000 165 155 140
0.055248 1.091094 1.000000 -1.000000 -0.000000 0.000000 165 155 140
0.055248 1.091094 0.045593 -1.000000 -0.000000 0.000000 165 155 140
0.055248 1.000000 1.000000 0.000000 0.000000 1.000000 165 155 140
0.999999 1.000000 1.000000 0.000000 0.000000 1.000000 165 155 140
0.999999 1.091094 1.000000 0.000000 0.000000 1.000000 165 155 140
0.055248 1.091094 1.000000 0.000000 0.000000 1.000000 165 155 140
1.000000 1.025323 -0.063830 -0.000000 1.000000 0.000000 165 155 140
1.000000 1.025323 -1.000000 -0.000000 1.000000 0.000000 165 155 140
0.055248 1.025323 -1.000000 -0.000000 1.000000 0.000000 165 155 140
0.055248 1.025323 -0.063830 -0.000000 1.000000 0.000000 165 155 140
0.055248 1.000000 -1.000000 -1.000000 -0.000000 0.000000 165 155 140
0.055248 1.000000 -0.063830 -1.000000 -0.000000 0.000000 165 155 140
0.055248 1.025323 -0.063830 -1.000000 -0.000000 0.000000 165 155 140
0.055248 1.025323 -1.000000 -1.000000 -0.000000 0.000000 165 155 140
0.055248 1.025323 -1.000000 0.000000 -0.000000 -1.000000 165 155 140
1.000000 1.025323 -1.000000 0.000000 -0.000000 -1.000000 165 155 140
1.000000 1.025323 -1.000000 1.000000 0.000000 0.000000 165 155 140
1.000000 1.025323 -0.063830 1.000000 0.000000 0.000000 165 155 140
-0.045648 1.049946 -0.063830 -0.000000 1.000000 0.000000 165 155 140
-0.045648 1.049946 -1.000000 -0.000000 1.000000 0.000000 165 155 140
-1.000000 1.049946 -1.000000 -0.000000 1.000000 0.000000 165 155 140
-1.000000 1.049946 -0.063830 -0.000000 1.000000 0.000000 165 155 140
-0.045648 1.000000 -0.063830 1.000000 0.000000 0.000000 165 155 140
-0.045648 1.000000 -1.000000 1.000000 0.000000 0.000000 165 155 140
-0.045648 1.049946 -1.000000 1.000000 0.000000 0.000000 165 155 140
-0.045648 1.049946 -0.063830 1.000000 0.000000 0.000000 165 155 140
-1.000000 1.049946 -1.000000 0.000000 -0.000000 -1.000000 165 155 140
-0.045648 1.049946 -1.000000 0.000000 -0.000000 -1.000000 165 155 140
-1.000000 1.000000 -1.000000 -1.000000 -0.000000 0.000000 165 155 140
-1.000000 1.000000 -0.063830 -1.000000 -0.000000 0.000000 165 155 140
-1.000000 1.049946 -0.063830 -1.000000 -0.000000 0.000000 165 155 140
-1.000000 1.049946 -1.000000 -1.000000 -0.000000 0.000000 165 155 140
4 0 1 2 3
4 4 5 6 7
4 8 9 10 11
4 12 13 14 15
4 16 17 18 19
4 20 21 22 23
4 24 25 26 27
4 28 29 30 31
4 32 33 34 35
4 36 0 3 37
4 38 36 37 39
4 40 41 42 43
4 44 45 29 28
4 27 26 17 16
4 46 47 32 48
4 49 50 36 38
4 0 36 50 51
4 52 32 35 53
4 54 55 21 20
4 56 57 13 12
4 53 58 59 60
4 1 0 51 61
4 62 63 61 51
4 64 65 66 67
4 68 69 70 56
4 71 72 73 74
4 75 48 53 76
4 77 62 51 50
4 78 77 50 49
4 79 80 81 82
4 83 84 85 86
4 87 88 89 90
4 91 92 93 94
4 95 96 97 98
4 99 100 101 102
4 71 74 103 104
4 105 106 107 108
4 109 110 111 112
4 113 114 115 116
4 117 118 119 120
4 18 17 121 122
4 20 23 123 124
4 125 126 127 128
4 129 130 131 132
4 26 25 133 134
4 135 136 137 138
